<svg width="244" height="68" viewBox="0 0 244 68" fill="none" xmlns="http://www.w3.org/2000/svg">
<path d="M12.5586 21.5703C12.5586 21.2422 12.5078 20.9492 12.4062 20.6914C12.3125 20.4258 12.1367 20.1875 11.8789 19.9766C11.6289 19.7578 11.2734 19.5469 10.8125 19.3438C10.3594 19.1328 9.77344 18.9141 9.05469 18.6875C8.25781 18.4375 7.51562 18.1562 6.82812 17.8438C6.14062 17.5312 5.53516 17.168 5.01172 16.7539C4.49609 16.3398 4.09375 15.8633 3.80469 15.3242C3.51562 14.7773 3.37109 14.1445 3.37109 13.4258C3.37109 12.7227 3.51953 12.082 3.81641 11.5039C4.12109 10.9258 4.55078 10.4297 5.10547 10.0156C5.66016 9.59375 6.3125 9.26953 7.0625 9.04297C7.82031 8.81641 8.65625 8.70312 9.57031 8.70312C10.8359 8.70312 11.9297 8.93359 12.8516 9.39453C13.7812 9.85547 14.5 10.4805 15.0078 11.2695C15.5156 12.0586 15.7695 12.9453 15.7695 13.9297H12.5586C12.5586 13.3984 12.4453 12.9297 12.2188 12.5234C12 12.1172 11.6641 11.7969 11.2109 11.5625C10.7656 11.3281 10.2031 11.2109 9.52344 11.2109C8.86719 11.2109 8.32031 11.3086 7.88281 11.5039C7.45312 11.6992 7.12891 11.9648 6.91016 12.3008C6.69922 12.6367 6.59375 13.0117 6.59375 13.4258C6.59375 13.7383 6.66797 14.0195 6.81641 14.2695C6.96484 14.5117 7.1875 14.7422 7.48438 14.9609C7.78125 15.1719 8.14844 15.3711 8.58594 15.5586C9.03125 15.7383 9.54688 15.918 10.1328 16.0977C11.0703 16.3789 11.8906 16.6914 12.5938 17.0352C13.3047 17.3789 13.8945 17.7695 14.3633 18.207C14.8398 18.6445 15.1953 19.1367 15.4297 19.6836C15.6719 20.2305 15.793 20.8516 15.793 21.5469C15.793 22.2812 15.6484 22.9375 15.3594 23.5156C15.0703 24.0938 14.6562 24.5859 14.1172 24.9922C13.5781 25.3984 12.9297 25.707 12.1719 25.918C11.4219 26.1289 10.582 26.2344 9.65234 26.2344C8.82422 26.2344 8.00391 26.125 7.19141 25.9062C6.38672 25.6797 5.65625 25.3438 5 24.8984C4.34375 24.4453 3.82031 23.875 3.42969 23.1875C3.03906 22.4922 2.84375 21.6797 2.84375 20.75H6.07812C6.07812 21.2891 6.16406 21.75 6.33594 22.1328C6.51562 22.5078 6.76562 22.8164 7.08594 23.0586C7.41406 23.293 7.79688 23.4648 8.23438 23.5742C8.67188 23.6836 9.14453 23.7383 9.65234 23.7383C10.3086 23.7383 10.8477 23.6484 11.2695 23.4688C11.6992 23.2812 12.0195 23.0234 12.2305 22.6953C12.4492 22.3672 12.5586 21.9922 12.5586 21.5703ZM25.7473 23.3047V17.457C25.7473 17.0273 25.6731 16.6562 25.5247 16.3438C25.3763 16.0312 25.1497 15.7891 24.845 15.6172C24.5403 15.4453 24.1536 15.3594 23.6848 15.3594C23.2708 15.3594 22.9075 15.4297 22.595 15.5703C22.2903 15.7109 22.0559 15.9102 21.8919 16.168C21.7278 16.418 21.6458 16.707 21.6458 17.0352H18.5403C18.5403 16.5117 18.6653 16.0156 18.9153 15.5469C19.1653 15.0703 19.5208 14.6484 19.9817 14.2812C20.4505 13.9062 21.0091 13.6133 21.6575 13.4023C22.3138 13.1914 23.0481 13.0859 23.8606 13.0859C24.8216 13.0859 25.677 13.25 26.427 13.5781C27.1848 13.8984 27.7786 14.3828 28.2083 15.0312C28.6458 15.6797 28.8645 16.4961 28.8645 17.4805V23.0117C28.8645 23.6445 28.9036 24.1875 28.9817 24.6406C29.0677 25.0859 29.1927 25.4727 29.3567 25.8008V26H26.2044C26.0559 25.6797 25.9427 25.2734 25.8645 24.7812C25.7864 24.2812 25.7473 23.7891 25.7473 23.3047ZM26.1809 18.2773L26.2044 20.1172H24.2473C23.763 20.1172 23.3372 20.168 22.97 20.2695C22.6028 20.3633 22.302 20.5039 22.0677 20.6914C21.8333 20.8711 21.6575 21.0898 21.5403 21.3477C21.4231 21.5977 21.3645 21.8828 21.3645 22.2031C21.3645 22.5156 21.4348 22.7969 21.5755 23.0469C21.7239 23.2969 21.9348 23.4961 22.2083 23.6445C22.4895 23.7852 22.8177 23.8555 23.1927 23.8555C23.7395 23.8555 24.2161 23.7461 24.6223 23.5273C25.0286 23.3008 25.345 23.0273 25.5716 22.707C25.7981 22.3867 25.9192 22.082 25.9348 21.793L26.8255 23.1289C26.7161 23.4492 26.552 23.7891 26.3333 24.1484C26.1145 24.5078 25.8333 24.8438 25.4895 25.1562C25.1458 25.4688 24.7317 25.7266 24.2473 25.9297C23.763 26.1328 23.2005 26.2344 22.5598 26.2344C21.7395 26.2344 21.0052 26.0703 20.3567 25.7422C19.7083 25.4141 19.1966 24.9648 18.8216 24.3945C18.4466 23.8242 18.2591 23.1758 18.2591 22.4492C18.2591 21.7773 18.3841 21.1836 18.6341 20.668C18.8841 20.1523 19.2552 19.7188 19.7473 19.3672C20.2395 19.0078 20.8489 18.7383 21.5755 18.5586C22.3098 18.3711 23.1497 18.2773 24.095 18.2773H26.1809ZM35.4088 16.0273V26H32.315V13.3203H35.2213L35.4088 16.0273ZM34.9166 19.2031H34.0025C34.0103 18.2812 34.1353 17.4453 34.3775 16.6953C34.6197 15.9453 34.9595 15.3008 35.397 14.7617C35.8423 14.2227 36.3697 13.8086 36.9791 13.5195C37.5884 13.2305 38.2681 13.0859 39.0181 13.0859C39.6275 13.0859 40.1783 13.1719 40.6705 13.3438C41.1627 13.5156 41.5845 13.7891 41.9361 14.1641C42.2955 14.5391 42.5689 15.0312 42.7564 15.6406C42.9517 16.2422 43.0494 16.9844 43.0494 17.8672V26H39.9322V17.8438C39.9322 17.2656 39.8463 16.8086 39.6744 16.4727C39.5103 16.1367 39.2681 15.8984 38.9478 15.7578C38.6353 15.6172 38.2486 15.5469 37.7877 15.5469C37.3111 15.5469 36.8931 15.6445 36.5338 15.8398C36.1822 16.0273 35.8853 16.2891 35.6431 16.625C35.4088 16.9609 35.2291 17.3477 35.1041 17.7852C34.9791 18.2227 34.9166 18.6953 34.9166 19.2031ZM60.3917 20.8203V8.9375H63.6144V20.8203C63.6144 21.9531 63.3683 22.9258 62.8761 23.7383C62.3839 24.543 61.712 25.1602 60.8605 25.5898C60.0089 26.0195 59.048 26.2344 57.9777 26.2344C56.8761 26.2344 55.8995 26.0508 55.048 25.6836C54.1964 25.3086 53.5284 24.7383 53.0441 23.9727C52.5675 23.207 52.3292 22.2344 52.3292 21.0547H55.5636C55.5636 21.6953 55.6613 22.2109 55.8566 22.6016C56.0519 22.9922 56.3292 23.2734 56.6886 23.4453C57.0558 23.6172 57.4855 23.7031 57.9777 23.7031C58.4542 23.7031 58.8722 23.5938 59.2316 23.375C59.5988 23.1484 59.8839 22.8203 60.087 22.3906C60.2902 21.9609 60.3917 21.4375 60.3917 20.8203ZM66.7484 19.7891V19.543C66.7484 18.6133 66.8812 17.7578 67.1469 16.9766C67.4125 16.1875 67.7992 15.5039 68.307 14.9258C68.8148 14.3477 69.4359 13.8984 70.1703 13.5781C70.9047 13.25 71.7406 13.0859 72.6781 13.0859C73.6312 13.0859 74.475 13.25 75.2094 13.5781C75.9516 13.8984 76.5766 14.3477 77.0844 14.9258C77.5922 15.5039 77.9789 16.1875 78.2445 16.9766C78.5102 17.7578 78.643 18.6133 78.643 19.543V19.7891C78.643 20.7109 78.5102 21.5664 78.2445 22.3555C77.9789 23.1367 77.5922 23.8203 77.0844 24.4062C76.5766 24.9844 75.9555 25.4336 75.2211 25.7539C74.4867 26.0742 73.6469 26.2344 72.7016 26.2344C71.7641 26.2344 70.9242 26.0742 70.182 25.7539C69.4398 25.4336 68.8148 24.9844 68.307 24.4062C67.7992 23.8203 67.4125 23.1367 67.1469 22.3555C66.8812 21.5664 66.7484 20.7109 66.7484 19.7891ZM69.8422 19.543V19.7891C69.8422 20.3438 69.8969 20.8633 70.0062 21.3477C70.1156 21.832 70.2836 22.2578 70.5102 22.625C70.7367 22.9922 71.0297 23.2812 71.3891 23.4922C71.7562 23.6953 72.1937 23.7969 72.7016 23.7969C73.2016 23.7969 73.6312 23.6953 73.9906 23.4922C74.35 23.2812 74.643 22.9922 74.8695 22.625C75.1039 22.2578 75.2758 21.832 75.3852 21.3477C75.4945 20.8633 75.5492 20.3438 75.5492 19.7891V19.543C75.5492 18.9961 75.4945 18.4844 75.3852 18.0078C75.2758 17.5234 75.1039 17.0977 74.8695 16.7305C74.643 16.3555 74.3461 16.0625 73.9789 15.8516C73.6195 15.6328 73.1859 15.5234 72.6781 15.5234C72.1781 15.5234 71.7484 15.6328 71.3891 15.8516C71.0297 16.0625 70.7367 16.3555 70.5102 16.7305C70.2836 17.0977 70.1156 17.5234 70.0062 18.0078C69.8969 18.4844 69.8422 18.9961 69.8422 19.543ZM88.5856 22.5312C88.5856 22.2656 88.5153 22.0273 88.3747 21.8164C88.2341 21.6055 87.9684 21.4141 87.5778 21.2422C87.195 21.0625 86.6325 20.8945 85.8903 20.7383C85.2341 20.5977 84.6286 20.4219 84.0739 20.2109C83.5192 20 83.0427 19.7461 82.6442 19.4492C82.2458 19.1445 81.9333 18.7891 81.7067 18.3828C81.488 17.9688 81.3786 17.4922 81.3786 16.9531C81.3786 16.4297 81.4919 15.9375 81.7184 15.4766C81.945 15.0078 82.2731 14.5977 82.7028 14.2461C83.1325 13.8867 83.6559 13.6055 84.2731 13.4023C84.8903 13.1914 85.5856 13.0859 86.3591 13.0859C87.4372 13.0859 88.363 13.2617 89.1364 13.6133C89.9177 13.9648 90.5153 14.4492 90.9294 15.0664C91.3434 15.6758 91.5505 16.3633 91.5505 17.1289H88.4567C88.4567 16.793 88.3786 16.4883 88.2223 16.2148C88.0739 15.9414 87.8434 15.7227 87.5309 15.5586C87.2184 15.3867 86.8239 15.3008 86.3473 15.3008C85.9177 15.3008 85.5544 15.3711 85.2575 15.5117C84.9684 15.6523 84.7497 15.8359 84.6012 16.0625C84.4528 16.2891 84.3786 16.5391 84.3786 16.8125C84.3786 17.0156 84.4177 17.1992 84.4958 17.3633C84.5817 17.5195 84.7184 17.6641 84.9059 17.7969C85.0934 17.9297 85.3473 18.0508 85.6677 18.1602C85.9958 18.2695 86.3981 18.375 86.8747 18.4766C87.82 18.6641 88.6442 18.9141 89.3473 19.2266C90.0583 19.5312 90.613 19.9375 91.0114 20.4453C91.4098 20.9531 91.6091 21.6016 91.6091 22.3906C91.6091 22.9531 91.488 23.4688 91.2458 23.9375C91.0036 24.3984 90.652 24.8008 90.1911 25.1445C89.7302 25.4883 89.1794 25.7578 88.5387 25.9531C87.8981 26.1406 87.1755 26.2344 86.3708 26.2344C85.2067 26.2344 84.2223 26.0273 83.4177 25.6133C82.613 25.1914 82.0036 24.6602 81.5895 24.0195C81.1755 23.3711 80.9684 22.6992 80.9684 22.0039H83.9333C83.9567 22.4961 84.0895 22.8906 84.3317 23.1875C84.5739 23.4844 84.8786 23.6992 85.2458 23.832C85.6208 23.957 86.0153 24.0195 86.4294 24.0195C86.8981 24.0195 87.2927 23.957 87.613 23.832C87.9333 23.6992 88.1755 23.5234 88.3395 23.3047C88.5036 23.0781 88.5856 22.8203 88.5856 22.5312ZM100.38 26.2344C99.4189 26.2344 98.5556 26.0781 97.79 25.7656C97.0244 25.4531 96.372 25.0195 95.833 24.4648C95.3017 23.9023 94.8916 23.25 94.6025 22.5078C94.3213 21.7578 94.1806 20.9531 94.1806 20.0938V19.625C94.1806 18.6484 94.3213 17.7617 94.6025 16.9648C94.8838 16.1602 95.2822 15.4688 95.7978 14.8906C96.3134 14.3125 96.9306 13.8672 97.6494 13.5547C98.3681 13.2422 99.1611 13.0859 100.028 13.0859C100.927 13.0859 101.72 13.2383 102.407 13.543C103.095 13.8398 103.669 14.2617 104.13 14.8086C104.591 15.3555 104.938 16.0117 105.173 16.7773C105.407 17.5352 105.524 18.375 105.524 19.2969V20.5977H95.5869V18.4648H102.478V18.2305C102.462 17.7383 102.368 17.2891 102.196 16.8828C102.024 16.4688 101.759 16.1406 101.399 15.8984C101.04 15.6484 100.575 15.5234 100.005 15.5234C99.5439 15.5234 99.1416 15.625 98.7978 15.8281C98.4619 16.0234 98.1806 16.3047 97.9541 16.6719C97.7353 17.0312 97.5713 17.4609 97.4619 17.9609C97.3525 18.4609 97.2978 19.0156 97.2978 19.625V20.0938C97.2978 20.625 97.3681 21.1172 97.5088 21.5703C97.6572 22.0234 97.872 22.418 98.1533 22.7539C98.4423 23.082 98.7861 23.3398 99.1845 23.5273C99.5908 23.707 100.052 23.7969 100.567 23.7969C101.216 23.7969 101.802 23.6719 102.325 23.4219C102.856 23.1641 103.317 22.7852 103.708 22.2852L105.267 23.9023C105.001 24.293 104.642 24.668 104.188 25.0273C103.743 25.3867 103.204 25.6797 102.571 25.9062C101.938 26.125 101.208 26.2344 100.38 26.2344ZM111.237 23.2109L111.213 25.3555C111.213 26.1914 111.006 27.0391 110.592 27.8984C110.178 28.7578 109.643 29.4688 108.987 30.0312L107.346 29.1289C107.557 28.7773 107.752 28.4219 107.932 28.0625C108.119 27.7031 108.268 27.3125 108.377 26.8906C108.494 26.4766 108.553 26.0117 108.553 25.4961V23.2109H111.237ZM131.602 20.3867H134.825C134.739 21.5273 134.423 22.5391 133.876 23.4219C133.329 24.2969 132.567 24.9844 131.591 25.4844C130.614 25.9844 129.43 26.2344 128.04 26.2344C126.97 26.2344 126.005 26.0469 125.145 25.6719C124.294 25.2891 123.563 24.7461 122.954 24.043C122.352 23.332 121.891 22.4805 121.571 21.4883C121.251 20.4883 121.091 19.3672 121.091 18.125V16.8242C121.091 15.582 121.255 14.4609 121.583 13.4609C121.911 12.4609 122.38 11.6094 122.989 10.9062C123.606 10.1953 124.345 9.64844 125.204 9.26562C126.071 8.88281 127.04 8.69141 128.11 8.69141C129.501 8.69141 130.677 8.94922 131.637 9.46484C132.598 9.97266 133.345 10.6719 133.876 11.5625C134.407 12.4531 134.727 13.4766 134.837 14.6328H131.614C131.552 13.9141 131.395 13.3047 131.145 12.8047C130.903 12.3047 130.536 11.9258 130.044 11.668C129.559 11.4023 128.915 11.2695 128.11 11.2695C127.485 11.2695 126.934 11.3867 126.458 11.6211C125.989 11.8555 125.598 12.207 125.286 12.6758C124.973 13.1367 124.739 13.7148 124.583 14.4102C124.427 15.0977 124.348 15.8945 124.348 16.8008V18.125C124.348 18.9922 124.419 19.7695 124.559 20.457C124.7 21.1445 124.919 21.7266 125.216 22.2031C125.512 22.6797 125.895 23.043 126.364 23.293C126.833 23.543 127.391 23.668 128.04 23.668C128.829 23.668 129.47 23.543 129.962 23.293C130.462 23.043 130.841 22.6758 131.098 22.1914C131.364 21.707 131.532 21.1055 131.602 20.3867ZM137.256 19.7891V19.543C137.256 18.6133 137.389 17.7578 137.654 16.9766C137.92 16.1875 138.307 15.5039 138.815 14.9258C139.322 14.3477 139.943 13.8984 140.678 13.5781C141.412 13.25 142.248 13.0859 143.186 13.0859C144.139 13.0859 144.982 13.25 145.717 13.5781C146.459 13.8984 147.084 14.3477 147.592 14.9258C148.1 15.5039 148.486 16.1875 148.752 16.9766C149.018 17.7578 149.15 18.6133 149.15 19.543V19.7891C149.15 20.7109 149.018 21.5664 148.752 22.3555C148.486 23.1367 148.1 23.8203 147.592 24.4062C147.084 24.9844 146.463 25.4336 145.729 25.7539C144.994 26.0742 144.154 26.2344 143.209 26.2344C142.272 26.2344 141.432 26.0742 140.69 25.7539C139.947 25.4336 139.322 24.9844 138.815 24.4062C138.307 23.8203 137.92 23.1367 137.654 22.3555C137.389 21.5664 137.256 20.7109 137.256 19.7891ZM140.35 19.543V19.7891C140.35 20.3438 140.404 20.8633 140.514 21.3477C140.623 21.832 140.791 22.2578 141.018 22.625C141.244 22.9922 141.537 23.2812 141.897 23.4922C142.264 23.6953 142.701 23.7969 143.209 23.7969C143.709 23.7969 144.139 23.6953 144.498 23.4922C144.857 23.2812 145.15 22.9922 145.377 22.625C145.611 22.2578 145.783 21.832 145.893 21.3477C146.002 20.8633 146.057 20.3438 146.057 19.7891V19.543C146.057 18.9961 146.002 18.4844 145.893 18.0078C145.783 17.5234 145.611 17.0977 145.377 16.7305C145.15 16.3555 144.854 16.0625 144.486 15.8516C144.127 15.6328 143.693 15.5234 143.186 15.5234C142.686 15.5234 142.256 15.6328 141.897 15.8516C141.537 16.0625 141.244 16.3555 141.018 16.7305C140.791 17.0977 140.623 17.5234 140.514 18.0078C140.404 18.4844 140.35 18.9961 140.35 19.543ZM159.093 22.5312C159.093 22.2656 159.023 22.0273 158.882 21.8164C158.742 21.6055 158.476 21.4141 158.085 21.2422C157.702 21.0625 157.14 20.8945 156.398 20.7383C155.742 20.5977 155.136 20.4219 154.581 20.2109C154.027 20 153.55 19.7461 153.152 19.4492C152.753 19.1445 152.441 18.7891 152.214 18.3828C151.995 17.9688 151.886 17.4922 151.886 16.9531C151.886 16.4297 151.999 15.9375 152.226 15.4766C152.452 15.0078 152.781 14.5977 153.21 14.2461C153.64 13.8867 154.163 13.6055 154.781 13.4023C155.398 13.1914 156.093 13.0859 156.867 13.0859C157.945 13.0859 158.87 13.2617 159.644 13.6133C160.425 13.9648 161.023 14.4492 161.437 15.0664C161.851 15.6758 162.058 16.3633 162.058 17.1289H158.964C158.964 16.793 158.886 16.4883 158.73 16.2148C158.581 15.9414 158.351 15.7227 158.038 15.5586C157.726 15.3867 157.331 15.3008 156.855 15.3008C156.425 15.3008 156.062 15.3711 155.765 15.5117C155.476 15.6523 155.257 15.8359 155.109 16.0625C154.96 16.2891 154.886 16.5391 154.886 16.8125C154.886 17.0156 154.925 17.1992 155.003 17.3633C155.089 17.5195 155.226 17.6641 155.413 17.7969C155.601 17.9297 155.855 18.0508 156.175 18.1602C156.503 18.2695 156.906 18.375 157.382 18.4766C158.327 18.6641 159.152 18.9141 159.855 19.2266C160.566 19.5312 161.12 19.9375 161.519 20.4453C161.917 20.9531 162.117 21.6016 162.117 22.3906C162.117 22.9531 161.995 23.4688 161.753 23.9375C161.511 24.3984 161.16 24.8008 160.699 25.1445C160.238 25.4883 159.687 25.7578 159.046 25.9531C158.406 26.1406 157.683 26.2344 156.878 26.2344C155.714 26.2344 154.73 26.0273 153.925 25.6133C153.12 25.1914 152.511 24.6602 152.097 24.0195C151.683 23.3711 151.476 22.6992 151.476 22.0039H154.441C154.464 22.4961 154.597 22.8906 154.839 23.1875C155.081 23.4844 155.386 23.6992 155.753 23.832C156.128 23.957 156.523 24.0195 156.937 24.0195C157.406 24.0195 157.8 23.957 158.12 23.832C158.441 23.6992 158.683 23.5234 158.847 23.3047C159.011 23.0781 159.093 22.8203 159.093 22.5312ZM171.192 13.3203V15.5469H163.926V13.3203H171.192ZM165.872 10.2031H168.977V22.3438C168.977 22.7188 169.028 23.0078 169.13 23.2109C169.231 23.4141 169.383 23.5508 169.587 23.6211C169.79 23.6914 170.032 23.7266 170.313 23.7266C170.516 23.7266 170.704 23.7148 170.876 23.6914C171.048 23.668 171.192 23.6445 171.309 23.6211L171.321 25.9414C171.063 26.0273 170.77 26.0977 170.442 26.1523C170.122 26.207 169.758 26.2344 169.352 26.2344C168.657 26.2344 168.048 26.1172 167.524 25.8828C167.001 25.6406 166.594 25.2539 166.305 24.7227C166.016 24.1836 165.872 23.4727 165.872 22.5898V10.2031ZM180.959 23.3047V17.457C180.959 17.0273 180.885 16.6562 180.736 16.3438C180.588 16.0312 180.361 15.7891 180.057 15.6172C179.752 15.4453 179.365 15.3594 178.896 15.3594C178.482 15.3594 178.119 15.4297 177.807 15.5703C177.502 15.7109 177.268 15.9102 177.103 16.168C176.939 16.418 176.857 16.707 176.857 17.0352H173.752C173.752 16.5117 173.877 16.0156 174.127 15.5469C174.377 15.0703 174.732 14.6484 175.193 14.2812C175.662 13.9062 176.221 13.6133 176.869 13.4023C177.525 13.1914 178.26 13.0859 179.072 13.0859C180.033 13.0859 180.889 13.25 181.639 13.5781C182.396 13.8984 182.99 14.3828 183.42 15.0312C183.857 15.6797 184.076 16.4961 184.076 17.4805V23.0117C184.076 23.6445 184.115 24.1875 184.193 24.6406C184.279 25.0859 184.404 25.4727 184.568 25.8008V26H181.416C181.268 25.6797 181.154 25.2734 181.076 24.7812C180.998 24.2812 180.959 23.7891 180.959 23.3047ZM181.393 18.2773L181.416 20.1172H179.459C178.975 20.1172 178.549 20.168 178.182 20.2695C177.814 20.3633 177.514 20.5039 177.279 20.6914C177.045 20.8711 176.869 21.0898 176.752 21.3477C176.635 21.5977 176.576 21.8828 176.576 22.2031C176.576 22.5156 176.646 22.7969 176.787 23.0469C176.935 23.2969 177.146 23.4961 177.42 23.6445C177.701 23.7852 178.029 23.8555 178.404 23.8555C178.951 23.8555 179.428 23.7461 179.834 23.5273C180.24 23.3008 180.557 23.0273 180.783 22.707C181.01 22.3867 181.131 22.082 181.146 21.793L182.037 23.1289C181.928 23.4492 181.764 23.7891 181.545 24.1484C181.326 24.5078 181.045 24.8438 180.701 25.1562C180.357 25.4688 179.943 25.7266 179.459 25.9297C178.975 26.1328 178.412 26.2344 177.771 26.2344C176.951 26.2344 176.217 26.0703 175.568 25.7422C174.92 25.4141 174.408 24.9648 174.033 24.3945C173.658 23.8242 173.471 23.1758 173.471 22.4492C173.471 21.7773 173.596 21.1836 173.846 20.668C174.096 20.1523 174.467 19.7188 174.959 19.3672C175.451 19.0078 176.06 18.7383 176.787 18.5586C177.521 18.3711 178.361 18.2773 179.307 18.2773H181.393ZM194.516 8.9375H200.715C202.012 8.9375 203.125 9.13281 204.055 9.52344C204.985 9.91406 205.7 10.4922 206.2 11.2578C206.7 12.0234 206.95 12.9648 206.95 14.082C206.95 14.9648 206.793 15.7305 206.481 16.3789C206.168 17.0273 205.727 17.5703 205.157 18.0078C204.594 18.4453 203.93 18.7891 203.165 19.0391L202.157 19.5547H196.684L196.661 17.0117H200.75C201.415 17.0117 201.965 16.8945 202.403 16.6602C202.84 16.4258 203.168 16.1016 203.387 15.6875C203.614 15.2734 203.727 14.8008 203.727 14.2695C203.727 13.6992 203.618 13.207 203.399 12.793C203.18 12.3711 202.848 12.0469 202.403 11.8203C201.958 11.5938 201.395 11.4805 200.715 11.4805H197.739V26H194.516V8.9375ZM204.149 26L200.2 18.3594L203.61 18.3477L207.606 25.8359V26H204.149ZM213.541 13.3203V26H210.435V13.3203H213.541ZM210.224 10.0039C210.224 9.54297 210.381 9.16016 210.693 8.85547C211.013 8.55078 211.443 8.39844 211.982 8.39844C212.521 8.39844 212.947 8.55078 213.26 8.85547C213.58 9.16016 213.74 9.54297 213.74 10.0039C213.74 10.457 213.58 10.8359 213.26 11.1406C212.947 11.4453 212.521 11.5977 211.982 11.5977C211.443 11.5977 211.013 11.4453 210.693 11.1406C210.381 10.8359 210.224 10.457 210.224 10.0039ZM222.417 23.7969C222.855 23.7969 223.245 23.7109 223.589 23.5391C223.933 23.3672 224.206 23.125 224.409 22.8125C224.62 22.5 224.733 22.1367 224.749 21.7227H227.667C227.651 22.582 227.409 23.3516 226.94 24.0312C226.472 24.7109 225.847 25.25 225.065 25.6484C224.292 26.0391 223.425 26.2344 222.464 26.2344C221.487 26.2344 220.636 26.0703 219.909 25.7422C219.183 25.4141 218.577 24.957 218.093 24.3711C217.616 23.7852 217.257 23.1055 217.015 22.332C216.78 21.5586 216.663 20.7305 216.663 19.8477V19.4727C216.663 18.5898 216.78 17.7617 217.015 16.9883C217.257 16.2148 217.616 15.5352 218.093 14.9492C218.577 14.3633 219.183 13.9062 219.909 13.5781C220.636 13.25 221.483 13.0859 222.452 13.0859C223.476 13.0859 224.374 13.2852 225.148 13.6836C225.929 14.082 226.538 14.6445 226.976 15.3711C227.421 16.0977 227.651 16.9531 227.667 17.9375H224.749C224.733 17.4844 224.632 17.0781 224.444 16.7188C224.257 16.3594 223.991 16.0703 223.648 15.8516C223.304 15.6328 222.886 15.5234 222.394 15.5234C221.87 15.5234 221.433 15.6328 221.081 15.8516C220.737 16.0703 220.468 16.3711 220.273 16.7539C220.085 17.1289 219.952 17.5508 219.874 18.0195C219.804 18.4805 219.769 18.9648 219.769 19.4727V19.8477C219.769 20.3633 219.804 20.8555 219.874 21.3242C219.952 21.793 220.085 22.2148 220.273 22.5898C220.468 22.957 220.737 23.25 221.081 23.4688C221.433 23.6875 221.878 23.7969 222.417 23.7969ZM237.434 23.3047V17.457C237.434 17.0273 237.36 16.6562 237.211 16.3438C237.063 16.0312 236.836 15.7891 236.532 15.6172C236.227 15.4453 235.84 15.3594 235.371 15.3594C234.957 15.3594 234.594 15.4297 234.282 15.5703C233.977 15.7109 233.743 15.9102 233.578 16.168C233.414 16.418 233.332 16.707 233.332 17.0352H230.227C230.227 16.5117 230.352 16.0156 230.602 15.5469C230.852 15.0703 231.207 14.6484 231.668 14.2812C232.137 13.9062 232.696 13.6133 233.344 13.4023C234 13.1914 234.735 13.0859 235.547 13.0859C236.508 13.0859 237.364 13.25 238.114 13.5781C238.871 13.8984 239.465 14.3828 239.895 15.0312C240.332 15.6797 240.551 16.4961 240.551 17.4805V23.0117C240.551 23.6445 240.59 24.1875 240.668 24.6406C240.754 25.0859 240.879 25.4727 241.043 25.8008V26H237.891C237.743 25.6797 237.629 25.2734 237.551 24.7812C237.473 24.2812 237.434 23.7891 237.434 23.3047ZM237.868 18.2773L237.891 20.1172H235.934C235.45 20.1172 235.024 20.168 234.657 20.2695C234.289 20.3633 233.989 20.5039 233.754 20.6914C233.52 20.8711 233.344 21.0898 233.227 21.3477C233.11 21.5977 233.051 21.8828 233.051 22.2031C233.051 22.5156 233.121 22.7969 233.262 23.0469C233.41 23.2969 233.621 23.4961 233.895 23.6445C234.176 23.7852 234.504 23.8555 234.879 23.8555C235.426 23.8555 235.903 23.7461 236.309 23.5273C236.715 23.3008 237.032 23.0273 237.258 22.707C237.485 22.3867 237.606 22.082 237.621 21.793L238.512 23.1289C238.403 23.4492 238.239 23.7891 238.02 24.1484C237.801 24.5078 237.52 24.8438 237.176 25.1562C236.832 25.4688 236.418 25.7266 235.934 25.9297C235.45 26.1328 234.887 26.2344 234.246 26.2344C233.426 26.2344 232.692 26.0703 232.043 25.7422C231.395 25.4141 230.883 24.9648 230.508 24.3945C230.133 23.8242 229.946 23.1758 229.946 22.4492C229.946 21.7773 230.071 21.1836 230.321 20.668C230.571 20.1523 230.942 19.7188 231.434 19.3672C231.926 19.0078 232.535 18.7383 233.262 18.5586C233.996 18.3711 234.836 18.2773 235.782 18.2773H237.868Z" fill="white"/>
<path d="M8.13281 40.8672V58H6.73828V42.6367L2.09766 44.3594V43.0352L7.89844 40.8672H8.13281ZM17.5716 56.8984H17.8763C19.1184 56.8984 20.1575 56.7188 20.9934 56.3594C21.8294 55.9922 22.4973 55.4883 22.9973 54.8477C23.5052 54.1992 23.8684 53.4414 24.0872 52.5742C24.3059 51.707 24.4153 50.7656 24.4153 49.75V47.3711C24.4153 46.4727 24.3177 45.6836 24.1223 45.0039C23.927 44.3242 23.6497 43.7578 23.2903 43.3047C22.9309 42.8438 22.5052 42.4961 22.013 42.2617C21.5286 42.0273 20.9895 41.9102 20.3958 41.9102C19.8098 41.9102 19.2786 42.0352 18.802 42.2852C18.3333 42.5352 17.9348 42.8828 17.6067 43.3281C17.2864 43.7656 17.0364 44.2695 16.8567 44.8398C16.6848 45.4023 16.5989 46 16.5989 46.6328C16.5989 47.2109 16.677 47.7734 16.8333 48.3203C16.9973 48.8594 17.2356 49.3477 17.5481 49.7852C17.8606 50.2148 18.2434 50.5586 18.6966 50.8164C19.1575 51.0664 19.6888 51.1914 20.2903 51.1914C20.97 51.1914 21.5716 51.0625 22.095 50.8047C22.6263 50.5469 23.0755 50.2148 23.4427 49.8086C23.8177 49.3945 24.1028 48.9492 24.2981 48.4727C24.5013 47.9883 24.6106 47.5195 24.6263 47.0664L25.3294 47.0547C25.3294 47.7656 25.1966 48.4453 24.9309 49.0938C24.6731 49.7344 24.3059 50.3047 23.8294 50.8047C23.3606 51.2969 22.8098 51.6875 22.177 51.9766C21.5442 52.2656 20.8606 52.4102 20.1263 52.4102C19.3294 52.4102 18.6223 52.2539 18.0052 51.9414C17.3958 51.6211 16.8841 51.1914 16.47 50.6523C16.0638 50.1055 15.7552 49.4922 15.5442 48.8125C15.3333 48.1328 15.2278 47.4258 15.2278 46.6914C15.2278 45.8711 15.3411 45.1016 15.5677 44.3828C15.802 43.6562 16.1419 43.0195 16.5872 42.4727C17.0325 41.918 17.5716 41.4844 18.2044 41.1719C18.845 40.8594 19.5677 40.7031 20.3723 40.7031C21.2864 40.7031 22.0833 40.8711 22.763 41.207C23.4427 41.5352 24.0052 42.0039 24.4505 42.6133C24.9036 43.2227 25.2395 43.9414 25.4583 44.7695C25.6848 45.5977 25.7981 46.5117 25.7981 47.5117V48.8594C25.7981 49.8672 25.72 50.832 25.5638 51.7539C25.4075 52.6758 25.1458 53.5273 24.7786 54.3086C24.4192 55.082 23.9348 55.7539 23.3255 56.3242C22.7161 56.8945 21.9622 57.3398 21.0638 57.6602C20.1653 57.9727 19.1028 58.1289 17.8763 58.1289H17.5598L17.5716 56.8984ZM34.2642 49.8672V51.0742H28.6509V49.8672H34.2642ZM47.9686 56.793V58H37.2928V56.9102L42.8827 50.5703C43.578 49.7812 44.1327 49.0898 44.5467 48.4961C44.9608 47.8945 45.2577 47.3477 45.4373 46.8555C45.6248 46.3555 45.7186 45.8711 45.7186 45.4023C45.7186 44.7148 45.5819 44.1094 45.3084 43.5859C45.0428 43.0625 44.6444 42.6523 44.1131 42.3555C43.5819 42.0586 42.9256 41.9102 42.1444 41.9102C41.3631 41.9102 40.6834 42.0781 40.1053 42.4141C39.5272 42.75 39.0819 43.2188 38.7694 43.8203C38.4647 44.4141 38.3123 45.0898 38.3123 45.8477H36.9178C36.9178 44.9102 37.1248 44.0508 37.5389 43.2695C37.9608 42.4883 38.5623 41.8672 39.3436 41.4062C40.1248 40.9375 41.0584 40.7031 42.1444 40.7031C43.1756 40.7031 44.0623 40.8867 44.8045 41.2539C45.5467 41.6133 46.117 42.1328 46.5155 42.8125C46.9217 43.4922 47.1248 44.3125 47.1248 45.2734C47.1248 45.7891 47.0311 46.3086 46.8436 46.832C46.6639 47.3555 46.4139 47.8789 46.0936 48.4023C45.7811 48.918 45.4217 49.4297 45.0155 49.9375C44.617 50.4453 44.1991 50.9453 43.7616 51.4375L39.0037 56.793H47.9686ZM59.3878 40.8086H59.587V42.0391H59.3878C58.3097 42.0391 57.3488 42.2148 56.505 42.5664C55.6691 42.918 54.962 43.4258 54.3839 44.0898C53.8136 44.7461 53.38 45.543 53.0831 46.4805C52.7863 47.418 52.6378 48.4688 52.6378 49.6328V51.9883C52.6378 52.7773 52.7433 53.4844 52.9542 54.1094C53.1652 54.7266 53.4581 55.2539 53.8331 55.6914C54.2081 56.1289 54.6456 56.4609 55.1456 56.6875C55.6456 56.9141 56.1847 57.0273 56.7628 57.0273C57.3331 57.0273 57.8448 56.9102 58.298 56.6758C58.7511 56.4414 59.1339 56.1133 59.4464 55.6914C59.7667 55.2695 60.0089 54.7852 60.173 54.2383C60.3448 53.6836 60.4308 53.0898 60.4308 52.457C60.4308 51.8555 60.3527 51.2891 60.1964 50.7578C60.048 50.2188 59.8175 49.7422 59.505 49.3281C59.1925 48.9141 58.8019 48.5898 58.3331 48.3555C57.8644 48.1211 57.3136 48.0039 56.6808 48.0039C55.962 48.0039 55.2902 48.168 54.6652 48.4961C54.0402 48.8242 53.5284 49.2617 53.13 49.8086C52.7394 50.3555 52.5323 50.9531 52.5089 51.6016L51.7003 51.5898C51.755 50.8555 51.923 50.1953 52.2042 49.6094C52.4855 49.0156 52.8566 48.5117 53.3175 48.0977C53.7863 47.6758 54.3214 47.3555 54.923 47.1367C55.5323 46.9102 56.1886 46.7969 56.8917 46.7969C57.712 46.7969 58.4269 46.9453 59.0363 47.2422C59.6534 47.5391 60.1652 47.9492 60.5714 48.4727C60.9855 48.9883 61.2941 49.5859 61.4972 50.2656C61.7081 50.9375 61.8136 51.6484 61.8136 52.3984C61.8136 53.2188 61.6964 53.9844 61.462 54.6953C61.2355 55.3984 60.8995 56.0156 60.4542 56.5469C60.0167 57.0781 59.4855 57.4922 58.8605 57.7891C58.2433 58.0859 57.5441 58.2344 56.7628 58.2344C55.9034 58.2344 55.1339 58.0703 54.4542 57.7422C53.7745 57.4141 53.1925 56.9609 52.7081 56.3828C52.2316 55.8047 51.8644 55.1406 51.6066 54.3906C51.3566 53.6328 51.2316 52.8242 51.2316 51.9648V50.4648C51.2316 49.0117 51.3995 47.6953 51.7355 46.5156C52.0714 45.3281 52.5753 44.3086 53.2472 43.457C53.9269 42.6055 54.7745 41.9531 55.7902 41.5C56.8136 41.0391 58.0128 40.8086 59.3878 40.8086ZM70.3734 45.3203V46.4688H64.0219V45.3203H70.3734ZM66.3539 42.0625H67.7484V54.918C67.7484 55.5039 67.8266 55.9453 67.9828 56.2422C68.1391 56.5391 68.3422 56.7383 68.5922 56.8398C68.8422 56.9414 69.1117 56.9922 69.4008 56.9922C69.6117 56.9922 69.8148 56.9805 70.0102 56.957C70.2055 56.9258 70.3812 56.8945 70.5375 56.8633L70.5961 58.0469C70.4242 58.1016 70.2016 58.1445 69.9281 58.1758C69.6547 58.2148 69.3812 58.2344 69.1078 58.2344C68.5687 58.2344 68.0922 58.1367 67.6781 57.9414C67.2641 57.7383 66.9398 57.3945 66.7055 56.9102C66.4711 56.418 66.3539 55.75 66.3539 54.9062V42.0625ZM75.4294 40V58H74.0348V40H75.4294ZM75.113 50.875L74.4919 50.5234C74.5387 49.7734 74.6911 49.0703 74.9489 48.4141C75.2067 47.7578 75.5544 47.1797 75.9919 46.6797C76.4372 46.1797 76.9567 45.7891 77.5505 45.5078C78.152 45.2266 78.8161 45.0859 79.5427 45.0859C80.1755 45.0859 80.7419 45.1719 81.2419 45.3438C81.7419 45.5156 82.1677 45.7891 82.5192 46.1641C82.8708 46.5391 83.1364 47.0195 83.3161 47.6055C83.5036 48.1914 83.5973 48.9062 83.5973 49.75V58H82.1911V49.7383C82.1911 48.8633 82.07 48.1797 81.8278 47.6875C81.5856 47.1875 81.2419 46.832 80.7966 46.6211C80.3512 46.4102 79.8239 46.3047 79.2145 46.3047C78.5427 46.3047 77.9528 46.4531 77.445 46.75C76.945 47.0391 76.5231 47.418 76.1794 47.8867C75.8434 48.3477 75.5856 48.8438 75.4059 49.375C75.2262 49.8984 75.1286 50.3984 75.113 50.875Z" fill="#EFB73B"/>
<path d="M107.432 48.5547V50.3828C107.432 51.5781 107.276 52.6602 106.963 53.6289C106.658 54.5898 106.213 55.4141 105.627 56.1016C105.049 56.7891 104.354 57.3164 103.541 57.6836C102.729 58.0508 101.815 58.2344 100.799 58.2344C99.8069 58.2344 98.9006 58.0508 98.0803 57.6836C97.2678 57.3164 96.5686 56.7891 95.9827 56.1016C95.3967 55.4141 94.9436 54.5898 94.6233 53.6289C94.303 52.6602 94.1428 51.5781 94.1428 50.3828V48.5547C94.1428 47.3594 94.2991 46.2812 94.6116 45.3203C94.9319 44.3516 95.385 43.5234 95.9709 42.8359C96.5569 42.1484 97.2561 41.6211 98.0686 41.2539C98.8811 40.8867 99.7834 40.7031 100.776 40.7031C101.791 40.7031 102.705 40.8867 103.518 41.2539C104.33 41.6211 105.03 42.1484 105.615 42.8359C106.201 43.5234 106.651 44.3516 106.963 45.3203C107.276 46.2812 107.432 47.3594 107.432 48.5547ZM106.002 50.3828V48.5312C106.002 47.5234 105.885 46.6172 105.651 45.8125C105.424 45.0078 105.084 44.3203 104.631 43.75C104.186 43.1797 103.639 42.7422 102.99 42.4375C102.342 42.1328 101.604 41.9805 100.776 41.9805C99.9709 41.9805 99.2483 42.1328 98.6077 42.4375C97.967 42.7422 97.4202 43.1797 96.967 43.75C96.5217 44.3203 96.178 45.0078 95.9358 45.8125C95.7014 46.6172 95.5842 47.5234 95.5842 48.5312V50.3828C95.5842 51.3984 95.7014 52.3125 95.9358 53.125C96.178 53.9297 96.5256 54.6211 96.9788 55.1992C97.4319 55.7695 97.9788 56.207 98.6194 56.5117C99.2678 56.8164 99.9944 56.9688 100.799 56.9688C101.635 56.9688 102.373 56.8164 103.014 56.5117C103.655 56.207 104.198 55.7695 104.643 55.1992C105.088 54.6211 105.424 53.9297 105.651 53.125C105.885 52.3125 106.002 51.3984 106.002 50.3828ZM116.144 57.0273C116.738 57.0273 117.293 56.918 117.808 56.6992C118.332 56.4727 118.761 56.1406 119.097 55.7031C119.441 55.2578 119.636 54.7148 119.683 54.0742H121.019C120.98 54.8789 120.734 55.5977 120.281 56.2305C119.835 56.8555 119.25 57.3477 118.523 57.707C117.804 58.0586 117.011 58.2344 116.144 58.2344C115.261 58.2344 114.48 58.0742 113.8 57.7539C113.128 57.4336 112.566 56.9883 112.113 56.418C111.66 55.8398 111.316 55.168 111.082 54.4023C110.855 53.6289 110.742 52.7969 110.742 51.9062V51.4141C110.742 50.5234 110.855 49.6953 111.082 48.9297C111.316 48.1562 111.66 47.4844 112.113 46.9141C112.566 46.3359 113.128 45.8867 113.8 45.5664C114.472 45.2461 115.25 45.0859 116.132 45.0859C117.039 45.0859 117.851 45.2695 118.57 45.6367C119.296 46.0039 119.875 46.5234 120.304 47.1953C120.742 47.8672 120.98 48.6641 121.019 49.5859H119.683C119.644 48.9062 119.464 48.3203 119.144 47.8281C118.824 47.3359 118.402 46.957 117.878 46.6914C117.355 46.4258 116.773 46.293 116.132 46.293C115.414 46.293 114.8 46.4336 114.293 46.7148C113.785 46.9883 113.371 47.3672 113.05 47.8516C112.738 48.3281 112.507 48.875 112.359 49.4922C112.21 50.1016 112.136 50.7422 112.136 51.4141V51.9062C112.136 52.5859 112.207 53.2344 112.347 53.8516C112.496 54.4609 112.726 55.0039 113.039 55.4805C113.359 55.957 113.773 56.3359 114.281 56.6172C114.796 56.8906 115.418 57.0273 116.144 57.0273ZM129.356 45.3203V46.4688H123.005V45.3203H129.356ZM125.337 42.0625H126.731V54.918C126.731 55.5039 126.809 55.9453 126.966 56.2422C127.122 56.5391 127.325 56.7383 127.575 56.8398C127.825 56.9414 128.095 56.9922 128.384 56.9922C128.595 56.9922 128.798 56.9805 128.993 56.957C129.188 56.9258 129.364 56.8945 129.52 56.8633L129.579 58.0469C129.407 58.1016 129.184 58.1445 128.911 58.1758C128.637 58.2148 128.364 58.2344 128.091 58.2344C127.552 58.2344 127.075 58.1367 126.661 57.9414C126.247 57.7383 125.923 57.3945 125.688 56.9102C125.454 56.418 125.337 55.75 125.337 54.9062V42.0625ZM132.01 51.8594V51.4727C132.01 50.5508 132.143 49.6992 132.408 48.918C132.674 48.1367 133.053 47.4609 133.545 46.8906C134.045 46.3203 134.643 45.8789 135.338 45.5664C136.033 45.2461 136.807 45.0859 137.658 45.0859C138.518 45.0859 139.295 45.2461 139.99 45.5664C140.686 45.8789 141.283 46.3203 141.783 46.8906C142.283 47.4609 142.666 48.1367 142.932 48.918C143.197 49.6992 143.33 50.5508 143.33 51.4727V51.8594C143.33 52.7812 143.197 53.6328 142.932 54.4141C142.666 55.1875 142.283 55.8594 141.783 56.4297C141.291 57 140.697 57.4453 140.002 57.7656C139.307 58.0781 138.533 58.2344 137.682 58.2344C136.822 58.2344 136.045 58.0781 135.35 57.7656C134.654 57.4453 134.057 57 133.557 56.4297C133.057 55.8594 132.674 55.1875 132.408 54.4141C132.143 53.6328 132.01 52.7812 132.01 51.8594ZM133.404 51.4727V51.8594C133.404 52.5547 133.498 53.2148 133.686 53.8398C133.873 54.457 134.147 55.0078 134.506 55.4922C134.865 55.9688 135.311 56.3438 135.842 56.6172C136.373 56.8906 136.986 57.0273 137.682 57.0273C138.369 57.0273 138.975 56.8906 139.498 56.6172C140.029 56.3438 140.475 55.9688 140.834 55.4922C141.193 55.0078 141.463 54.457 141.643 53.8398C141.83 53.2148 141.924 52.5547 141.924 51.8594V51.4727C141.924 50.7852 141.83 50.1328 141.643 49.5156C141.463 48.8984 141.19 48.3477 140.822 47.8633C140.463 47.3789 140.018 46.9961 139.486 46.7148C138.955 46.4336 138.346 46.293 137.658 46.293C136.971 46.293 136.361 46.4336 135.83 46.7148C135.307 46.9961 134.861 47.3789 134.494 47.8633C134.135 48.3477 133.861 48.8984 133.674 49.5156C133.494 50.1328 133.404 50.7852 133.404 51.4727ZM146.933 40H148.339V55.5391L148.245 58H146.933V40ZM157.163 51.543V51.7891C157.163 52.7344 157.054 53.6016 156.835 54.3906C156.617 55.1797 156.3 55.8633 155.886 56.4414C155.472 57.0117 154.964 57.4531 154.363 57.7656C153.769 58.0781 153.085 58.2344 152.312 58.2344C151.554 58.2344 150.882 58.1172 150.296 57.8828C149.71 57.6406 149.21 57.3008 148.796 56.8633C148.382 56.418 148.05 55.8984 147.8 55.3047C147.55 54.7031 147.374 54.043 147.273 53.3242V50.1953C147.39 49.4297 147.577 48.7344 147.835 48.1094C148.093 47.4844 148.425 46.9453 148.831 46.4922C149.245 46.0391 149.738 45.6914 150.308 45.4492C150.886 45.207 151.546 45.0859 152.288 45.0859C153.062 45.0859 153.749 45.2383 154.351 45.543C154.96 45.8398 155.472 46.2734 155.886 46.8438C156.3 47.4062 156.617 48.0859 156.835 48.8828C157.054 49.6719 157.163 50.5586 157.163 51.543ZM155.745 51.7891V51.543C155.745 50.8008 155.675 50.1133 155.535 49.4805C155.394 48.8477 155.171 48.2969 154.867 47.8281C154.57 47.3516 154.187 46.9805 153.718 46.7148C153.249 46.4492 152.687 46.3164 152.031 46.3164C151.359 46.3164 150.785 46.4297 150.308 46.6562C149.839 46.875 149.449 47.168 149.136 47.5352C148.831 47.8945 148.589 48.2891 148.41 48.7188C148.23 49.1484 148.097 49.5703 148.011 49.9844V53.6289C148.144 54.2148 148.374 54.7656 148.702 55.2812C149.031 55.7969 149.472 56.2148 150.027 56.5352C150.581 56.8477 151.257 57.0039 152.054 57.0039C152.695 57.0039 153.245 56.8711 153.706 56.6055C154.175 56.3398 154.558 55.9727 154.855 55.5039C155.16 55.0352 155.382 54.4844 155.523 53.8516C155.671 53.2188 155.745 52.5312 155.745 51.7891ZM165.887 58.2344C165.059 58.2344 164.298 58.082 163.602 57.7773C162.915 57.4727 162.313 57.043 161.798 56.4883C161.29 55.9336 160.895 55.2773 160.614 54.5195C160.34 53.7539 160.204 52.918 160.204 52.0117V51.5078C160.204 50.5312 160.348 49.6484 160.637 48.8594C160.926 48.0703 161.325 47.3945 161.833 46.832C162.34 46.2695 162.919 45.8398 163.567 45.543C164.223 45.2383 164.911 45.0859 165.63 45.0859C166.434 45.0859 167.149 45.2305 167.774 45.5195C168.399 45.8008 168.923 46.2031 169.344 46.7266C169.774 47.2422 170.098 47.8555 170.317 48.5664C170.536 49.2695 170.645 50.0469 170.645 50.8984V51.7539H161.048V50.5586H169.251V50.3945C169.235 49.6836 169.09 49.0195 168.817 48.4023C168.551 47.7773 168.153 47.2695 167.622 46.8789C167.09 46.4883 166.426 46.293 165.63 46.293C165.036 46.293 164.489 46.418 163.989 46.668C163.497 46.918 163.071 47.2773 162.712 47.7461C162.36 48.207 162.087 48.7578 161.891 49.3984C161.704 50.0312 161.61 50.7344 161.61 51.5078V52.0117C161.61 52.7148 161.712 53.3711 161.915 53.9805C162.126 54.582 162.423 55.1133 162.805 55.5742C163.196 56.0352 163.657 56.3945 164.188 56.6523C164.719 56.9102 165.305 57.0391 165.946 57.0391C166.696 57.0391 167.36 56.9023 167.938 56.6289C168.516 56.3477 169.036 55.9062 169.497 55.3047L170.376 55.9844C170.102 56.3906 169.758 56.7656 169.344 57.1094C168.938 57.4531 168.45 57.7266 167.88 57.9297C167.309 58.1328 166.645 58.2344 165.887 58.2344ZM175.525 47.418V58H174.131V45.3203H175.49L175.525 47.418ZM180.014 45.2266L179.978 46.5156C179.822 46.4922 179.67 46.4727 179.521 46.457C179.373 46.4414 179.213 46.4336 179.041 46.4336C178.432 46.4336 177.896 46.5469 177.435 46.7734C176.982 46.9922 176.6 47.3008 176.287 47.6992C175.975 48.0898 175.736 48.5508 175.572 49.082C175.408 49.6055 175.314 50.168 175.291 50.7695L174.775 50.9688C174.775 50.1406 174.861 49.3711 175.033 48.6602C175.205 47.9492 175.467 47.3281 175.818 46.7969C176.178 46.2578 176.627 45.8398 177.166 45.543C177.713 45.2383 178.353 45.0859 179.088 45.0859C179.268 45.0859 179.443 45.1016 179.615 45.1328C179.795 45.1562 179.928 45.1875 180.014 45.2266ZM199.969 56.793V58H189.293V56.9102L194.883 50.5703C195.579 49.7812 196.133 49.0898 196.547 48.4961C196.961 47.8945 197.258 47.3477 197.438 46.8555C197.625 46.3555 197.719 45.8711 197.719 45.4023C197.719 44.7148 197.583 44.1094 197.309 43.5859C197.043 43.0625 196.645 42.6523 196.114 42.3555C195.583 42.0586 194.926 41.9102 194.145 41.9102C193.364 41.9102 192.684 42.0781 192.106 42.4141C191.528 42.75 191.083 43.2188 190.77 43.8203C190.465 44.4141 190.313 45.0898 190.313 45.8477H188.918C188.918 44.9102 189.125 44.0508 189.54 43.2695C189.961 42.4883 190.563 41.8672 191.344 41.4062C192.125 40.9375 193.059 40.7031 194.145 40.7031C195.176 40.7031 196.063 40.8867 196.805 41.2539C197.547 41.6133 198.118 42.1328 198.516 42.8125C198.922 43.4922 199.125 44.3125 199.125 45.2734C199.125 45.7891 199.032 46.3086 198.844 46.832C198.665 47.3555 198.415 47.8789 198.094 48.4023C197.782 48.918 197.422 49.4297 197.016 49.9375C196.618 50.4453 196.2 50.9453 195.762 51.4375L191.004 56.793H199.969ZM213.603 48.0039V50.875C213.603 52.125 213.486 53.2148 213.252 54.1445C213.017 55.0664 212.674 55.832 212.22 56.4414C211.775 57.043 211.228 57.4922 210.58 57.7891C209.939 58.0859 209.205 58.2344 208.377 58.2344C207.72 58.2344 207.119 58.1406 206.572 57.9531C206.025 57.7656 205.537 57.4805 205.107 57.0977C204.685 56.707 204.326 56.2188 204.029 55.6328C203.732 55.0469 203.506 54.3594 203.349 53.5703C203.193 52.7734 203.115 51.875 203.115 50.875V48.0039C203.115 46.7461 203.232 45.6602 203.467 44.7461C203.709 43.832 204.053 43.0742 204.498 42.4727C204.951 41.8711 205.502 41.4258 206.15 41.1367C206.799 40.8398 207.533 40.6914 208.353 40.6914C209.01 40.6914 209.611 40.7891 210.158 40.9844C210.713 41.1719 211.201 41.4531 211.623 41.8281C212.053 42.2031 212.412 42.6836 212.701 43.2695C212.998 43.8477 213.22 44.5312 213.369 45.3203C213.525 46.1094 213.603 47.0039 213.603 48.0039ZM212.209 51.0391V47.8281C212.209 47.0547 212.154 46.3516 212.045 45.7188C211.943 45.0859 211.791 44.5312 211.588 44.0547C211.385 43.5781 211.127 43.1797 210.814 42.8594C210.51 42.5391 210.15 42.3008 209.736 42.1445C209.33 41.9805 208.869 41.8984 208.353 41.8984C207.72 41.8984 207.162 42.0273 206.678 42.2852C206.201 42.5352 205.803 42.9102 205.482 43.4102C205.162 43.9023 204.92 44.5195 204.756 45.2617C204.599 46.0039 204.521 46.8594 204.521 47.8281V51.0391C204.521 51.8047 204.572 52.5039 204.674 53.1367C204.775 53.7617 204.931 54.3164 205.142 54.8008C205.353 55.2852 205.611 55.6953 205.916 56.0312C206.228 56.3594 206.588 56.6094 206.994 56.7812C207.408 56.9453 207.869 57.0273 208.377 57.0273C209.025 57.0273 209.588 56.8984 210.064 56.6406C210.541 56.375 210.939 55.9883 211.26 55.4805C211.58 54.9648 211.818 54.3359 211.974 53.5938C212.131 52.8438 212.209 51.9922 212.209 51.0391ZM228.034 56.793V58H217.358V56.9102L222.948 50.5703C223.644 49.7812 224.198 49.0898 224.612 48.4961C225.026 47.8945 225.323 47.3477 225.503 46.8555C225.69 46.3555 225.784 45.8711 225.784 45.4023C225.784 44.7148 225.648 44.1094 225.374 43.5859C225.108 43.0625 224.71 42.6523 224.179 42.3555C223.648 42.0586 222.991 41.9102 222.21 41.9102C221.429 41.9102 220.749 42.0781 220.171 42.4141C219.593 42.75 219.148 43.2188 218.835 43.8203C218.53 44.4141 218.378 45.0898 218.378 45.8477H216.983C216.983 44.9102 217.19 44.0508 217.605 43.2695C218.026 42.4883 218.628 41.8672 219.409 41.4062C220.19 40.9375 221.124 40.7031 222.21 40.7031C223.241 40.7031 224.128 40.8867 224.87 41.2539C225.612 41.6133 226.183 42.1328 226.581 42.8125C226.987 43.4922 227.19 44.3125 227.19 45.2734C227.19 45.7891 227.097 46.3086 226.909 46.832C226.73 47.3555 226.48 47.8789 226.159 48.4023C225.847 48.918 225.487 49.4297 225.081 49.9375C224.683 50.4453 224.265 50.9453 223.827 51.4375L219.069 56.793H228.034ZM242.653 52.4922V53.6875H230.571V52.8789L238.457 40.9375H239.629L237.965 43.832L232.282 52.4922H242.653ZM239.993 40.9375V58H238.598V40.9375H239.993Z" fill="white"/>
</svg>
