<svg width="272" height="314" viewBox="0 0 272 314" fill="none" xmlns="http://www.w3.org/2000/svg">
<path d="M10.7986 18.7071C10.7986 19.5998 11.0709 19.9469 12.0363 19.9469H20.576C22.5728 19.9469 23.1256 20.5008 23.1256 22.5011V27.0556C23.1256 29.056 22.5728 29.6098 20.7163 29.6098H12.0445C11.0792 29.6098 10.8069 29.8826 10.8069 30.8497V40.9175C10.8069 41.8103 11.0792 42.1574 12.0445 42.1574H21.4094C23.4061 42.1574 23.959 42.7112 23.959 44.7116V49.2661C23.959 51.2664 23.4061 51.8203 21.4094 51.8203H3.85131C1.85457 51.8203 1.30176 51.2664 1.30176 49.2661V2.63815C1.30176 0.6378 1.85457 0.0839844 3.85131 0.0839844H21.4094C23.4061 0.0839844 23.959 0.6378 23.959 2.63815V7.19266C23.959 9.19301 23.4061 9.74683 21.4094 9.74683H12.0445C11.0792 9.74683 10.8069 10.0196 10.8069 10.9867V18.7153L10.7986 18.7071Z" fill="white"/>
<path d="M48.877 9.73852C47.9117 9.73852 47.6394 10.0113 47.6394 10.9784V49.2661C47.6394 51.2664 47.0866 51.8202 45.0898 51.8202H40.6838C38.6871 51.8202 38.1342 51.2664 38.1342 49.2661V10.9784C38.1342 10.0113 37.862 9.73852 36.8966 9.73852H32.6308C30.6341 9.73852 30.0813 9.1847 30.0813 7.18436V2.62985C30.0813 0.629499 30.6341 0.0756836 32.6308 0.0756836H53.151C55.1478 0.0756836 55.7006 0.629499 55.7006 2.62985V7.18436C55.7006 9.1847 55.1478 9.73852 53.151 9.73852H48.8853H48.877Z" fill="white"/>
<path d="M79.2405 30.643C79.2405 29.6759 78.9683 29.4031 78.0029 29.4031H72.3592C71.3939 29.4031 71.1216 29.6759 71.1216 30.643V49.2661C71.1216 51.2664 70.5688 51.8203 68.572 51.8203H64.166C62.1693 51.8203 61.6165 51.2664 61.6165 49.2661V2.63815C61.6165 0.6378 62.1693 0.0839844 64.166 0.0839844H68.572C70.5688 0.0839844 71.1216 0.6378 71.1216 2.63815V18.5004C71.1216 19.3931 71.3939 19.7403 72.3592 19.7403H78.0029C78.9683 19.7403 79.2405 19.3931 79.2405 18.5004V2.63815C79.2405 0.6378 79.7934 0.0839844 81.7901 0.0839844H86.1961C88.1929 0.0839844 88.7457 0.6378 88.7457 2.63815V49.2661C88.7457 51.2664 88.1929 51.8203 86.1961 51.8203H81.7901C79.7934 51.8203 79.2405 51.2664 79.2405 49.2661V30.643Z" fill="white"/>
<path d="M25.8566 141.786C23.6123 141.786 22.977 142.431 22.977 144.671V177.082C22.977 181.735 21.6981 183.017 17.0528 183.017H6.80506C2.15976 183.017 0.880859 181.735 0.880859 177.082V68.6332C0.880859 63.9795 2.15976 62.6982 6.80506 62.6982H27.9441C52.2845 62.6982 63.3326 71.5262 63.3326 93.1829V111.31C63.3326 132.967 52.2845 141.795 27.9441 141.795H25.8648L25.8566 141.786ZM22.977 116.443C22.977 118.691 23.6206 119.328 25.8566 119.328H29.223C37.0697 119.328 40.5928 116.121 40.5928 107.938V96.5471C40.5928 88.3639 37.0697 85.1567 29.223 85.1567H25.8566C23.6123 85.1567 22.977 85.8014 22.977 88.0415V116.435V116.443Z" fill="white"/>
<path d="M112.492 62.6899H122.74C127.385 62.6899 128.664 63.9712 128.664 68.6249V149.325C128.664 175.156 120.974 184.62 97.7558 184.62C74.5376 184.62 66.8477 175.156 66.8477 149.325V68.6249C66.8477 63.9712 68.1266 62.6899 72.7719 62.6899H83.0196C87.6649 62.6899 88.9438 63.9712 88.9438 68.6249V153.177C88.9438 159.591 91.6666 162.162 97.7476 162.162C103.829 162.162 106.56 159.591 106.56 153.177V68.6249C106.56 63.9712 107.839 62.6899 112.484 62.6899H112.492Z" fill="white"/>
<path d="M163.557 139.538C162.757 137.29 162.113 136.653 159.712 136.653H159.069C156.824 136.653 156.189 137.298 156.189 139.538V177.082C156.189 181.735 154.91 183.017 150.265 183.017H140.017C135.372 183.017 134.093 181.735 134.093 177.082V68.6332C134.093 63.9795 135.372 62.6982 140.017 62.6982H161.156C185.497 62.6982 196.545 71.0385 196.545 91.5793V103.127C196.545 118.204 194.144 123.982 185.653 131.206C184.688 131.851 184.531 132.165 184.531 132.967C184.531 133.446 184.688 133.934 185.01 135.05L199.102 176.925C200.546 181.099 198.946 183.025 194.779 183.025H183.087C178.607 183.025 177.642 182.38 176.363 178.537L163.549 139.555L163.557 139.538ZM156.189 111.946C156.189 114.195 156.833 114.831 159.069 114.831H162.435C169.96 114.831 173.805 111.459 173.805 103.763V94.9435C173.805 87.405 170.282 84.3549 162.435 84.3549H159.069C156.824 84.3549 156.189 84.9996 156.189 87.2397V111.946Z" fill="white"/>
<path d="M247.503 62.6899C254.706 62.6899 256.95 65.0953 257.751 71.0302L271.843 177.073C272.487 181.727 271.2 183.008 266.563 183.008H255.515C250.713 183.008 249.59 181.884 248.947 177.073L246.868 159.583C246.711 157.979 246.224 157.5 244.302 157.5H230.531C228.608 157.5 228.13 157.979 227.965 159.583L225.885 177.073C225.242 181.884 224.128 183.008 219.318 183.008H208.27C203.624 183.008 202.345 181.727 202.989 177.073L217.082 71.0302C217.882 65.0953 220.126 62.6899 227.329 62.6899H247.511H247.503ZM237.412 93.1746C235.654 93.1746 234.689 93.497 234.532 95.4229L230.852 132.801C230.696 134.727 231.174 135.207 233.253 135.207H241.579C243.658 135.207 244.145 134.727 243.98 132.801L240.3 95.4229C240.143 93.497 239.178 93.1746 237.42 93.1746H237.412Z" fill="white"/>
<path d="M24.9738 313.089C16.6486 313.089 14.2475 310.684 13.2822 303.145L0.955186 198.705C0.476628 194.052 2.23411 192.771 6.87941 192.771H18.571C23.2163 192.771 24.1735 194.052 24.4952 198.705L31.5416 281.009C31.6984 282.935 32.3419 283.414 33.7859 283.414C35.2298 283.414 35.8651 282.935 36.0301 281.009L43.0765 198.705C43.3983 194.052 44.3554 192.771 49.0007 192.771H60.6923C65.3376 192.771 67.0951 194.052 66.6165 198.705L54.2813 303.145C53.3242 310.684 50.9149 313.089 42.5897 313.089H24.9738Z" fill="white"/>
<path d="M93.0361 307.154C93.0361 311.808 91.7572 313.089 87.1119 313.089H76.8641C72.2188 313.089 70.9399 311.808 70.9399 307.154V198.697C70.9399 194.043 72.2188 192.762 76.8641 192.762H87.1119C91.7572 192.762 93.0361 194.043 93.0361 198.697V307.154Z" fill="white"/>
<path d="M161.503 231.273V274.586C161.503 301.864 155.257 313.089 124.506 313.089H104.967C100.322 313.089 99.043 311.808 99.043 307.154V198.697C99.043 194.043 100.322 192.762 104.967 192.762H124.506C155.257 192.762 161.503 203.996 161.503 231.265V231.273ZM121.147 218.114V287.746C121.147 289.829 121.791 290.63 124.027 290.63H125.784C134.753 290.63 138.755 286.456 138.755 276.033V229.827C138.755 219.395 134.753 215.229 125.784 215.229H124.027C121.783 215.229 121.147 215.874 121.147 218.114Z" fill="white"/>
<path d="M207.444 192.762C214.647 192.762 216.892 195.168 217.692 201.102L231.785 307.146C232.428 311.799 231.141 313.081 226.504 313.081H215.456C210.654 313.081 209.532 311.956 208.888 307.146L206.809 289.655C206.652 288.052 206.165 287.572 204.243 287.572H190.472C188.55 287.572 188.071 288.052 187.906 289.655L185.827 307.146C185.183 311.956 184.069 313.081 179.259 313.081H168.211C163.566 313.081 162.287 311.799 162.93 307.146L177.023 201.102C177.823 195.168 180.068 192.762 187.271 192.762H207.453H207.444ZM197.353 223.247C195.596 223.247 194.631 223.569 194.474 225.495L190.794 262.874C190.637 264.8 191.116 265.279 193.195 265.279H201.52C203.599 265.279 204.086 264.8 203.921 262.874L200.241 225.495C200.084 223.569 199.119 223.247 197.362 223.247H197.353Z" fill="white"/>
</svg>
