<svg width="659" height="541" viewBox="0 0 659 541" fill="none" xmlns="http://www.w3.org/2000/svg">
<path d="M17.928 52.9682C30.216 52.9682 32.712 57.4482 32.712 68.3282V85.6082C32.712 96.4882 30.216 100.968 17.928 100.968H10.12C8.264 100.968 7.752 100.456 7.752 98.6002V55.3362C7.752 53.4802 8.264 52.9682 10.12 52.9682H17.928ZM17.736 61.9282C16.84 61.9282 16.584 62.1842 16.584 63.0802V90.8562C16.584 91.6882 16.84 92.0082 17.736 92.0082H18.44C22.024 92.0082 23.624 90.3442 23.624 86.1842V67.7522C23.624 63.5922 22.024 61.9282 18.44 61.9282H17.736ZM46.9115 55.3362V98.6002C46.9115 100.456 46.3995 100.968 44.5435 100.968H40.4475C38.5915 100.968 38.0795 100.456 38.0795 98.6002V55.3362C38.0795 53.4802 38.5915 52.9682 40.4475 52.9682H44.5435C46.3995 52.9682 46.9115 53.4802 46.9115 55.3362ZM62.952 70.0562L71.144 77.4802C75.432 81.3202 76.392 83.6242 76.392 87.9122V89.0642C76.392 97.1282 73.32 101.608 64.04 101.608C54.76 101.608 51.688 97.8322 51.688 87.5282V86.2482C51.688 84.3922 52.2 83.8802 54.056 83.8802H58.408C60.264 83.8802 60.776 84.3922 60.776 86.2482V89.0642C60.776 91.6242 61.8 92.6482 64.04 92.6482C66.28 92.6482 67.304 91.6882 67.304 89.3842V88.1682C67.304 86.3762 66.92 85.4802 64.552 83.3682L56.872 76.5202C52.584 72.7442 51.688 70.5682 51.688 66.2802V64.8722C51.688 56.8082 54.76 52.3282 64.04 52.3282C73.32 52.3282 76.392 56.1042 76.392 66.4082V67.6882C76.392 69.5442 75.88 70.0562 74.024 70.0562H69.672C67.816 70.0562 67.304 69.5442 67.304 67.6882V64.8722C67.304 62.3122 66.28 61.2882 64.04 61.2882C61.8 61.2882 60.776 62.2482 60.776 64.5522V65.6402C60.776 67.4962 61.16 68.3922 62.952 70.0562ZM105.108 85.6082V87.5282C105.108 97.8322 102.164 101.608 92.884 101.608C83.604 101.608 80.532 97.8322 80.532 87.5282V66.4082C80.532 56.1042 83.604 52.3282 92.884 52.3282C102.164 52.3282 105.108 56.1042 105.108 66.4082V68.3282C105.108 70.1842 104.596 70.6962 102.74 70.6962H98.644C96.788 70.6962 96.276 70.1842 96.276 68.3282V64.8722C96.276 62.3122 95.188 61.2882 92.948 61.2882C90.708 61.2882 89.62 62.3122 89.62 64.8722V89.0642C89.62 91.6242 90.708 92.6482 92.948 92.6482C95.188 92.6482 96.276 91.6242 96.276 89.0642V85.6082C96.276 83.7522 96.788 83.2402 98.644 83.2402H102.74C104.596 83.2402 105.108 83.7522 105.108 85.6082ZM134.001 86.8882C134.001 97.7042 130.929 101.608 121.649 101.608C112.369 101.608 109.297 97.7042 109.297 86.8882V67.0482C109.297 56.2962 112.369 52.3282 121.649 52.3282C130.929 52.3282 134.001 56.2962 134.001 67.0482V86.8882ZM118.385 89.0642C118.385 91.6242 119.409 92.6482 121.649 92.6482C123.889 92.6482 124.913 91.6242 124.913 89.0642V65.1922C124.913 62.3762 123.889 61.2882 121.649 61.2882C119.409 61.2882 118.385 62.3762 118.385 65.1922V89.0642ZM148.482 100.968C144.77 100.968 143.874 100.264 143.17 96.9362L138.434 74.6642C137.73 71.2082 137.666 69.6722 137.666 66.4722V55.3362C137.666 53.4802 138.178 52.9682 140.034 52.9682H144.13C145.986 52.9682 146.498 53.4802 146.498 55.3362V69.0322C146.498 69.9282 146.562 70.7602 146.69 71.7202L149.378 87.8482C149.506 88.6162 149.698 88.8082 150.274 88.8082C150.85 88.8082 151.042 88.6162 151.17 87.8482L153.858 71.7202C153.986 70.7602 154.05 69.9282 154.05 69.0322V55.3362C154.05 53.4802 154.562 52.9682 156.418 52.9682H160.514C162.37 52.9682 162.882 53.4802 162.882 55.3362V66.4722C162.882 69.1602 162.946 70.8242 162.114 74.6642L157.378 96.9362C156.674 100.264 155.778 100.968 152.066 100.968H148.482ZM176.299 63.0802V70.2482C176.299 71.0802 176.555 71.4002 177.451 71.4002H185.387C187.243 71.4002 187.755 71.9122 187.755 73.7682V77.9922C187.755 79.8482 187.243 80.3602 185.515 80.3602H177.451C176.555 80.3602 176.299 80.6162 176.299 81.5122V90.8562C176.299 91.6882 176.555 92.0082 177.451 92.0082H186.155C188.011 92.0082 188.523 92.5202 188.523 94.3762V98.6002C188.523 100.456 188.011 100.968 186.155 100.968H169.835C167.979 100.968 167.467 100.456 167.467 98.6002V55.3362C167.467 53.4802 167.979 52.9682 169.835 52.9682H186.155C188.011 52.9682 188.523 53.4802 188.523 55.3362V59.5602C188.523 61.4162 188.011 61.9282 186.155 61.9282H177.451C176.555 61.9282 176.299 62.1842 176.299 63.0802ZM209.232 98.6002V91.1122C209.232 88.8722 209.104 88.1682 208.144 86.4402L206.608 83.6882C205.904 82.5362 205.52 82.3442 204.368 82.3442H203.216C202.32 82.3442 202.064 82.6002 202.064 83.4962V98.6002C202.064 100.456 201.552 100.968 199.696 100.968H195.6C193.744 100.968 193.232 100.456 193.232 98.6002V55.3362C193.232 53.4802 193.744 52.9682 195.6 52.9682H204.048C213.776 52.9682 218.192 56.2962 218.192 64.4882V69.0962C218.192 73.7042 217.488 76.7122 214.864 78.8242C214.544 79.0162 214.48 79.2082 214.48 79.4002C214.48 79.5922 214.544 79.7842 214.736 80.1042L216.528 83.3682C217.872 85.8642 218.064 86.8882 218.064 90.2802V98.6002C218.064 100.456 217.552 100.968 215.696 100.968H211.6C209.744 100.968 209.232 100.456 209.232 98.6002ZM202.064 62.7602V72.4242C202.064 73.3202 202.32 73.5762 203.216 73.5762H204.56C207.568 73.5762 209.104 72.2322 209.104 69.1602V65.8322C209.104 62.8242 207.696 61.6082 204.56 61.6082H203.216C202.32 61.6082 202.064 61.8642 202.064 62.7602ZM253.579 61.9282H249.611C248.715 61.9282 248.459 62.1842 248.459 63.0802V98.6002C248.459 100.456 247.947 100.968 246.091 100.968H241.995C240.139 100.968 239.627 100.456 239.627 98.6002V63.0802C239.627 62.1842 239.371 61.9282 238.475 61.9282H234.507C232.651 61.9282 232.139 61.4162 232.139 59.5602V55.3362C232.139 53.4802 232.651 52.9682 234.507 52.9682H253.579C255.435 52.9682 255.947 53.4802 255.947 55.3362V59.5602C255.947 61.4162 255.435 61.9282 253.579 61.9282ZM274.973 98.6002V81.3202C274.973 80.4242 274.717 80.1682 273.821 80.1682H268.573C267.677 80.1682 267.421 80.4242 267.421 81.3202V98.6002C267.421 100.456 266.909 100.968 265.053 100.968H260.957C259.101 100.968 258.589 100.456 258.589 98.6002V55.3362C258.589 53.4802 259.101 52.9682 260.957 52.9682H265.053C266.909 52.9682 267.421 53.4802 267.421 55.3362V70.0562C267.421 70.8882 267.677 71.2082 268.573 71.2082H273.821C274.717 71.2082 274.973 70.8882 274.973 70.0562V55.3362C274.973 53.4802 275.485 52.9682 277.341 52.9682H281.437C283.293 52.9682 283.805 53.4802 283.805 55.3362V98.6002C283.805 100.456 283.293 100.968 281.437 100.968H277.341C275.485 100.968 274.973 100.456 274.973 98.6002ZM299.124 63.0802V70.2482C299.124 71.0802 299.38 71.4002 300.276 71.4002H308.212C310.068 71.4002 310.58 71.9122 310.58 73.7682V77.9922C310.58 79.8482 310.068 80.3602 308.34 80.3602H300.276C299.38 80.3602 299.124 80.6162 299.124 81.5122V90.8562C299.124 91.6882 299.38 92.0082 300.276 92.0082H308.98C310.836 92.0082 311.348 92.5202 311.348 94.3762V98.6002C311.348 100.456 310.836 100.968 308.98 100.968H292.66C290.804 100.968 290.292 100.456 290.292 98.6002V55.3362C290.292 53.4802 290.804 52.9682 292.66 52.9682H308.98C310.836 52.9682 311.348 53.4802 311.348 55.3362V59.5602C311.348 61.4162 310.836 61.9282 308.98 61.9282H300.276C299.38 61.9282 299.124 62.1842 299.124 63.0802ZM336.092 90.9842C336.092 91.7522 336.348 92.0082 337.244 92.0082H345.244C347.1 92.0082 347.612 92.5202 347.612 94.3762V98.6002C347.612 100.456 347.1 100.968 345.244 100.968H329.628C327.772 100.968 327.26 100.456 327.26 98.6002V55.3362C327.26 53.4802 327.772 52.9682 329.628 52.9682H333.724C335.58 52.9682 336.092 53.4802 336.092 55.3362V90.9842ZM358.95 98.6002C358.95 100.456 358.438 100.968 356.582 100.968H352.486C350.63 100.968 350.118 100.456 350.118 98.6002V82.2162C350.118 79.4002 350.246 78.2482 351.014 75.6882L356.838 56.1682C357.606 53.4802 358.246 52.9682 361.574 52.9682H363.878C367.206 52.9682 367.846 53.4802 368.614 56.1682L374.438 75.6882C375.206 78.1842 375.334 79.4002 375.334 82.2162V98.6002C375.334 100.456 374.822 100.968 372.966 100.968H368.87C367.014 100.968 366.502 100.456 366.502 98.6002V90.1522C366.502 89.2562 366.246 89.0002 365.35 89.0002H360.102C359.206 89.0002 358.95 89.2562 358.95 90.1522V98.6002ZM365.542 80.0402C366.246 80.0402 366.63 79.7842 366.63 79.2082C366.63 78.8882 366.566 78.5682 366.502 78.2482L363.558 65.8962C363.43 65.2562 363.302 65.1282 362.726 65.1282C362.15 65.1282 362.022 65.2562 361.894 65.8962L358.95 78.2482C358.886 78.5682 358.822 78.8882 358.822 79.2082C358.822 79.7842 359.206 80.0402 359.91 80.0402H365.542ZM395.98 68.7762C396.3 69.3522 396.428 69.4802 396.812 69.4802C397.196 69.4802 397.324 69.2882 397.324 68.8402V55.3362C397.324 53.4802 397.836 52.9682 399.692 52.9682H403.596C405.452 52.9682 405.964 53.4802 405.964 55.3362V98.6002C405.964 100.456 405.452 100.968 403.596 100.968H399.692C397.836 100.968 397.324 100.456 397.324 98.6002V89.8322C397.324 86.8242 396.876 85.7362 395.788 83.6882L389.836 72.6162C389.516 72.0402 389.388 71.9122 389.004 71.9122C388.62 71.9122 388.492 72.1042 388.492 72.5522V98.6002C388.492 100.456 387.98 100.968 386.124 100.968H382.22C380.364 100.968 379.852 100.456 379.852 98.6002V55.3362C379.852 53.4802 380.364 52.9682 382.22 52.9682H384.716C387.084 52.9682 387.98 53.3522 389.324 55.9762L395.98 68.7762ZM422.605 52.9682C434.893 52.9682 437.389 57.4482 437.389 68.3282V85.6082C437.389 96.4882 434.893 100.968 422.605 100.968H414.797C412.941 100.968 412.429 100.456 412.429 98.6002V55.3362C412.429 53.4802 412.941 52.9682 414.797 52.9682H422.605ZM422.413 61.9282C421.517 61.9282 421.261 62.1842 421.261 63.0802V90.8562C421.261 91.6882 421.517 92.0082 422.413 92.0082H423.117C426.701 92.0082 428.301 90.3442 428.301 86.1842V67.7522C428.301 63.5922 426.701 61.9282 423.117 61.9282H422.413ZM478.023 86.8882C478.023 97.7042 474.951 101.608 465.671 101.608C456.391 101.608 453.319 97.7042 453.319 86.8882V67.0482C453.319 56.2962 456.391 52.3282 465.671 52.3282C474.951 52.3282 478.023 56.2962 478.023 67.0482V86.8882ZM462.407 89.0642C462.407 91.6242 463.431 92.6482 465.671 92.6482C467.911 92.6482 468.935 91.6242 468.935 89.0642V65.1922C468.935 62.3762 467.911 61.2882 465.671 61.2882C463.431 61.2882 462.407 62.3762 462.407 65.1922V89.0642ZM492.682 82.6642V98.6002C492.682 100.456 492.17 100.968 490.314 100.968H486.218C484.362 100.968 483.85 100.456 483.85 98.6002V55.3362C483.85 53.4802 484.362 52.9682 486.218 52.9682H503.434C505.29 52.9682 505.802 53.4802 505.802 55.3362V59.5602C505.802 61.4162 505.29 61.9282 503.434 61.9282H493.834C492.938 61.9282 492.682 62.1842 492.682 63.0802V71.4002C492.682 72.2322 492.938 72.5522 493.834 72.5522H500.746C502.602 72.5522 503.114 73.0642 503.114 74.9202V79.1442C503.114 81.0002 502.602 81.5122 500.874 81.5122H493.834C492.938 81.5122 492.682 81.7682 492.682 82.6642Z" fill="#0E2C5E"/>
<path d="M30.408 148.184V261.752C30.408 266.624 29.064 267.968 24.192 267.968H13.44C8.568 267.968 7.224 266.624 7.224 261.752V148.184C7.224 143.312 8.568 141.968 13.44 141.968H24.192C29.064 141.968 30.408 143.312 30.408 148.184ZM84.5906 183.464C85.4306 184.976 85.7666 185.312 86.7746 185.312C87.7826 185.312 88.1186 184.808 88.1186 183.632V148.184C88.1186 143.312 89.4626 141.968 94.3346 141.968H104.583C109.455 141.968 110.799 143.312 110.799 148.184V261.752C110.799 266.624 109.455 267.968 104.583 267.968H94.3346C89.4626 267.968 88.1186 266.624 88.1186 261.752V238.736C88.1186 230.84 86.9426 227.984 84.0866 222.608L68.4626 193.544C67.6226 192.032 67.2866 191.696 66.2786 191.696C65.2706 191.696 64.9346 192.2 64.9346 193.376V261.752C64.9346 266.624 63.5906 267.968 58.7186 267.968H48.4706C43.5986 267.968 42.2546 266.624 42.2546 261.752V148.184C42.2546 143.312 43.5986 141.968 48.4706 141.968H55.0226C61.2386 141.968 63.5906 142.976 67.1186 149.864L84.5906 183.464ZM165.067 183.464C165.907 184.976 166.243 185.312 167.251 185.312C168.259 185.312 168.595 184.808 168.595 183.632V148.184C168.595 143.312 169.939 141.968 174.811 141.968H185.059C189.931 141.968 191.275 143.312 191.275 148.184V261.752C191.275 266.624 189.931 267.968 185.059 267.968H174.811C169.939 267.968 168.595 266.624 168.595 261.752V238.736C168.595 230.84 167.419 227.984 164.563 222.608L148.939 193.544C148.099 192.032 147.763 191.696 146.755 191.696C145.747 191.696 145.411 192.2 145.411 193.376V261.752C145.411 266.624 144.067 267.968 139.195 267.968H128.947C124.075 267.968 122.731 266.624 122.731 261.752V148.184C122.731 143.312 124.075 141.968 128.947 141.968H135.499C141.715 141.968 144.067 142.976 147.595 149.864L165.067 183.464ZM266.375 231.008C266.375 259.4 258.311 269.648 233.951 269.648C209.59 269.648 201.526 259.4 201.526 231.008V178.928C201.526 150.704 209.59 140.288 233.951 140.288C258.311 140.288 266.375 150.704 266.375 178.928V231.008ZM225.383 236.72C225.383 243.44 228.071 246.128 233.951 246.128C239.83 246.128 242.518 243.44 242.518 236.72V174.056C242.518 166.664 239.83 163.808 233.951 163.808C228.071 163.808 225.383 166.664 225.383 174.056V236.72ZM299.347 267.968C289.603 267.968 287.251 266.12 285.403 257.384L272.971 198.92C271.123 189.848 270.955 185.816 270.955 177.416V148.184C270.955 143.312 272.299 141.968 277.171 141.968H287.923C292.795 141.968 294.139 143.312 294.139 148.184V184.136C294.139 186.488 294.307 188.672 294.643 191.192L301.699 233.528C302.035 235.544 302.539 236.048 304.051 236.048C305.563 236.048 306.067 235.544 306.403 233.528L313.459 191.192C313.795 188.672 313.963 186.488 313.963 184.136V148.184C313.963 143.312 315.307 141.968 320.179 141.968H330.931C335.803 141.968 337.147 143.312 337.147 148.184V177.416C337.147 184.472 337.315 188.84 335.131 198.92L322.699 257.384C320.851 266.12 318.499 267.968 308.755 267.968H299.347ZM362.158 261.752C362.158 266.624 360.814 267.968 355.942 267.968H345.19C340.318 267.968 338.974 266.624 338.974 261.752V218.744C338.974 211.352 339.31 208.328 341.326 201.608L356.614 150.368C358.63 143.312 360.31 141.968 369.046 141.968H375.094C383.83 141.968 385.51 143.312 387.526 150.368L402.814 201.608C404.83 208.16 405.166 211.352 405.166 218.744V261.752C405.166 266.624 403.822 267.968 398.95 267.968H388.198C383.326 267.968 381.982 266.624 381.982 261.752V239.576C381.982 237.224 381.31 236.552 378.958 236.552H365.182C362.83 236.552 362.158 237.224 362.158 239.576V261.752ZM379.462 213.032C381.31 213.032 382.318 212.36 382.318 210.848C382.318 210.008 382.15 209.168 381.982 208.328L374.254 175.904C373.918 174.224 373.582 173.888 372.07 173.888C370.558 173.888 370.222 174.224 369.886 175.904L362.158 208.328C361.99 209.168 361.822 210.008 361.822 210.848C361.822 212.36 362.83 213.032 364.678 213.032H379.462ZM456.46 165.488H446.044C443.692 165.488 443.02 166.16 443.02 168.512V261.752C443.02 266.624 441.676 267.968 436.804 267.968H426.052C421.18 267.968 419.836 266.624 419.836 261.752V168.512C419.836 166.16 419.164 165.488 416.812 165.488H406.396C401.524 165.488 400.18 164.144 400.18 159.272V148.184C400.18 143.312 401.524 141.968 406.396 141.968H456.46C461.332 141.968 462.676 143.312 462.676 148.184V159.272C462.676 164.144 461.332 165.488 456.46 165.488ZM487.755 148.184V261.752C487.755 266.624 486.411 267.968 481.539 267.968H470.787C465.915 267.968 464.571 266.624 464.571 261.752V148.184C464.571 143.312 465.915 141.968 470.787 141.968H481.539C486.411 141.968 487.755 143.312 487.755 148.184ZM562.77 231.008C562.77 259.4 554.706 269.648 530.346 269.648C505.986 269.648 497.922 259.4 497.922 231.008V178.928C497.922 150.704 505.986 140.288 530.346 140.288C554.706 140.288 562.77 150.704 562.77 178.928V231.008ZM521.778 236.72C521.778 243.44 524.466 246.128 530.346 246.128C536.226 246.128 538.914 243.44 538.914 236.72V174.056C538.914 166.664 536.226 163.808 530.346 163.808C524.466 163.808 521.778 166.664 521.778 174.056V236.72ZM615.359 183.464C616.199 184.976 616.535 185.312 617.543 185.312C618.551 185.312 618.887 184.808 618.887 183.632V148.184C618.887 143.312 620.231 141.968 625.103 141.968H635.351C640.223 141.968 641.567 143.312 641.567 148.184V261.752C641.567 266.624 640.223 267.968 635.351 267.968H625.103C620.231 267.968 618.887 266.624 618.887 261.752V238.736C618.887 230.84 617.711 227.984 614.855 222.608L599.231 193.544C598.391 192.032 598.055 191.696 597.047 191.696C596.039 191.696 595.703 192.2 595.703 193.376V261.752C595.703 266.624 594.359 267.968 589.487 267.968H579.239C574.367 267.968 573.023 266.624 573.023 261.752V148.184C573.023 143.312 574.367 141.968 579.239 141.968H585.791C592.007 141.968 594.359 142.976 597.887 149.864L615.359 183.464Z" fill="#0E2C5E"/>
<path d="M656.613 315.212C570.655 314.574 484.681 314.383 398.715 314.65C355.906 314.782 313.088 315.236 270.279 315.048C227.834 314.861 185.397 314.32 142.952 314.081C96.0881 313.818 49.1502 313.905 2.386 315.574C-0.78291 315.686 -0.807732 318.08 2.386 317.964C86.3414 314.965 170.76 316.765 254.831 317.347C297.583 317.645 340.334 317.247 383.086 317.092C426.077 316.932 469.076 316.885 512.068 316.952C560.247 317.028 608.434 317.243 656.605 317.602C659.798 317.626 659.798 315.236 656.605 315.212H656.613Z" fill="#84CCF5"/>
<path d="M109.656 371.692V345.772C109.656 345.1 109.464 344.908 108.792 344.908H106.92C105.528 344.908 105.144 344.524 105.144 343.132V339.244C105.144 337.852 105.528 337.468 106.92 337.468H114.504C115.896 337.468 116.28 337.852 116.28 339.244V371.692C116.28 373.084 115.896 373.468 114.504 373.468H111.432C110.04 373.468 109.656 373.084 109.656 371.692ZM141.825 354.892V339.244C141.825 337.852 142.209 337.468 143.601 337.468H146.289C147.681 337.468 148.065 337.852 148.065 339.244V371.692C148.065 373.084 147.681 373.468 146.289 373.468H144.081C142.593 373.468 142.161 373.132 141.681 371.836L135.681 355.948C135.537 355.612 135.393 355.516 135.201 355.516C134.961 355.516 134.865 355.612 134.865 356.044V371.692C134.865 373.084 134.481 373.468 133.089 373.468H130.449C129.057 373.468 128.673 373.084 128.673 371.692V339.244C128.673 337.852 129.057 337.468 130.449 337.468H132.609C134.001 337.468 134.481 337.612 134.913 338.716L141.009 354.988C141.153 355.324 141.297 355.42 141.489 355.42C141.729 355.42 141.825 355.324 141.825 354.892ZM170.487 362.908C170.487 371.02 168.183 373.948 161.223 373.948C154.263 373.948 151.959 371.02 151.959 362.908V348.028C151.959 339.964 154.263 336.988 161.223 336.988C168.183 336.988 170.487 339.964 170.487 348.028V362.908ZM158.775 364.54C158.775 366.46 159.543 367.228 161.223 367.228C162.903 367.228 163.671 366.46 163.671 364.54V346.636C163.671 344.524 162.903 343.708 161.223 343.708C159.543 343.708 158.775 344.524 158.775 346.636V364.54ZM184.756 373.468H179.476C176.98 373.468 176.26 372.748 175.972 370.492L172.276 339.244C172.132 337.852 172.66 337.468 174.052 337.468H177.556C178.948 337.468 179.236 337.852 179.332 339.244L181.444 363.868C181.492 364.444 181.684 364.588 182.116 364.588C182.548 364.588 182.74 364.444 182.788 363.868L184.9 339.244C184.996 337.852 185.284 337.468 186.676 337.468H190.18C191.572 337.468 192.1 337.852 191.956 339.244L188.26 370.492C187.972 372.748 187.252 373.468 184.756 373.468ZM200.829 345.052V350.428C200.829 351.052 201.021 351.292 201.693 351.292H207.645C209.037 351.292 209.421 351.676 209.421 353.068V356.236C209.421 357.628 209.037 358.012 207.741 358.012H201.693C201.021 358.012 200.829 358.204 200.829 358.876V365.884C200.829 366.508 201.021 366.748 201.693 366.748H208.221C209.613 366.748 209.997 367.132 209.997 368.524V371.692C209.997 373.084 209.613 373.468 208.221 373.468H195.981C194.589 373.468 194.205 373.084 194.205 371.692V339.244C194.205 337.852 194.589 337.468 195.981 337.468H208.221C209.613 337.468 209.997 337.852 209.997 339.244V342.412C209.997 343.804 209.613 344.188 208.221 344.188H201.693C201.021 344.188 200.829 344.38 200.829 345.052ZM225.384 358.78C225.48 359.164 225.624 359.26 225.864 359.26C226.104 359.26 226.248 359.164 226.344 358.78L230.472 338.716C230.664 337.708 231.096 337.468 232.296 337.468H236.952C238.344 337.468 238.728 337.852 238.728 339.244V371.692C238.728 373.084 238.344 373.468 236.952 373.468H234.744C233.352 373.468 232.968 373.084 232.968 371.692V356.14C232.968 355.708 232.872 355.612 232.584 355.612C232.392 355.612 232.2 355.708 232.152 356.044L228.744 371.884C228.504 373.036 227.976 373.468 226.584 373.468H225.288C223.848 373.468 223.32 373.036 223.08 371.884L219.624 356.044C219.528 355.708 219.432 355.612 219.192 355.612C218.904 355.612 218.808 355.708 218.808 356.14V371.692C218.808 373.084 218.424 373.468 217.032 373.468H214.824C213.432 373.468 213.048 373.084 213.048 371.692V339.244C213.048 337.852 213.432 337.468 214.824 337.468H218.808C220.488 337.468 221.112 337.852 221.448 339.532L225.384 358.78ZM244.871 373.468C243.479 373.468 243.095 373.084 243.095 371.692V339.244C243.095 337.852 243.479 337.468 244.871 337.468H251.687C258.647 337.468 261.815 340.06 261.815 345.868V348.652C261.815 351.148 260.999 352.924 259.319 354.46C259.175 354.604 259.127 354.652 259.127 354.748C259.127 354.844 259.175 354.892 259.319 355.036C261.143 356.524 262.055 358.108 262.055 360.652V365.308C262.055 370.876 258.743 373.468 251.447 373.468H244.871ZM249.719 345.052V350.572C249.719 351.244 249.911 351.436 250.583 351.436H251.591C253.943 351.436 254.999 350.62 254.999 348.508V347.116C254.999 345.004 253.943 344.188 251.591 344.188H250.583C249.911 344.188 249.719 344.38 249.719 345.052ZM251.831 366.748C254.183 366.748 255.239 365.932 255.239 363.82V361.084C255.239 358.972 254.183 358.156 251.831 358.156H250.583C249.911 358.156 249.719 358.348 249.719 359.02V365.884C249.719 366.556 249.911 366.748 250.583 366.748H251.831ZM271.938 345.052V350.428C271.938 351.052 272.13 351.292 272.802 351.292H278.754C280.146 351.292 280.53 351.676 280.53 353.068V356.236C280.53 357.628 280.146 358.012 278.85 358.012H272.802C272.13 358.012 271.938 358.204 271.938 358.876V365.884C271.938 366.508 272.13 366.748 272.802 366.748H279.33C280.722 366.748 281.106 367.132 281.106 368.524V371.692C281.106 373.084 280.722 373.468 279.33 373.468H267.09C265.698 373.468 265.314 373.084 265.314 371.692V339.244C265.314 337.852 265.698 337.468 267.09 337.468H279.33C280.722 337.468 281.106 337.852 281.106 339.244V342.412C281.106 343.804 280.722 344.188 279.33 344.188H272.802C272.13 344.188 271.938 344.38 271.938 345.052ZM296.83 372.124L292.99 360.46C292.75 359.788 292.558 359.596 291.838 359.596H291.646C290.974 359.596 290.782 359.788 290.782 360.46V371.692C290.782 373.084 290.398 373.468 289.006 373.468H285.934C284.542 373.468 284.158 373.084 284.158 371.692V339.244C284.158 337.852 284.542 337.468 285.934 337.468H292.27C299.566 337.468 302.878 339.964 302.878 346.108V349.564C302.878 354.076 302.158 355.804 299.614 357.964C299.326 358.156 299.278 358.252 299.278 358.492C299.278 358.636 299.326 358.78 299.422 359.116L303.646 371.644C304.078 372.892 303.598 373.468 302.35 373.468H298.846C297.502 373.468 297.214 373.276 296.83 372.124ZM290.782 344.812V352.204C290.782 352.876 290.974 353.068 291.646 353.068H292.654C294.91 353.068 296.062 352.06 296.062 349.756V347.116C296.062 344.86 295.006 343.948 292.654 343.948H291.646C290.974 343.948 290.782 344.14 290.782 344.812ZM307.818 373.756C307.914 373.516 307.866 373.42 307.626 373.372C305.946 373.18 305.466 372.22 305.466 370.54V369.292C305.466 367.372 306.474 366.364 308.394 366.364H309.642C311.61 366.364 312.57 367.372 312.57 369.292V370.78C312.57 371.932 312.426 372.652 311.85 373.708L310.074 377.02C309.738 377.644 309.594 377.74 308.922 377.74H307.338C306.858 377.74 306.666 377.596 306.666 377.26C306.666 377.116 306.714 376.972 306.81 376.684L307.818 373.756ZM331.158 365.884C330.774 366.508 330.918 366.988 331.734 366.988H339.222C340.614 366.988 340.998 367.372 340.998 368.764V371.692C340.998 373.084 340.614 373.468 339.222 373.468H324.918C323.526 373.468 323.142 373.084 323.142 371.692V368.236C323.142 366.94 323.238 366.316 323.766 365.5L332.166 352.636C333.462 350.668 334.182 348.268 334.182 346.54C334.182 344.428 333.51 343.708 331.734 343.708C330.054 343.708 329.286 344.476 329.286 346.396V348.988C329.286 350.38 328.902 350.764 327.51 350.764H324.534C323.142 350.764 322.758 350.38 322.758 348.988V347.548C322.758 340.06 325.062 336.988 331.734 336.988C338.502 336.988 340.998 340.108 340.998 346.348C340.998 349.036 340.038 351.964 338.022 355.084L331.158 365.884ZM362.4 362.908C362.4 371.02 360.096 373.948 353.136 373.948C346.176 373.948 343.872 371.02 343.872 362.908V348.028C343.872 339.964 346.176 336.988 353.136 336.988C360.096 336.988 362.4 339.964 362.4 348.028V362.908ZM355.584 346.396C355.584 344.476 354.816 343.708 353.136 343.708C351.456 343.708 350.688 344.476 350.688 346.396V364.54C350.688 366.46 351.456 367.228 353.136 367.228C354.816 367.228 355.584 366.46 355.584 364.54V346.396ZM373.674 365.884C373.29 366.508 373.434 366.988 374.25 366.988H381.738C383.13 366.988 383.514 367.372 383.514 368.764V371.692C383.514 373.084 383.13 373.468 381.738 373.468H367.434C366.042 373.468 365.658 373.084 365.658 371.692V368.236C365.658 366.94 365.754 366.316 366.282 365.5L374.682 352.636C375.978 350.668 376.698 348.268 376.698 346.54C376.698 344.428 376.026 343.708 374.25 343.708C372.57 343.708 371.802 344.476 371.802 346.396V348.988C371.802 350.38 371.418 350.764 370.026 350.764H367.05C365.658 350.764 365.274 350.38 365.274 348.988V347.548C365.274 340.06 367.578 336.988 374.25 336.988C381.018 336.988 383.514 340.108 383.514 346.348C383.514 349.036 382.554 351.964 380.538 355.084L373.674 365.884ZM397.764 364.54V359.932C397.764 357.148 396.9 356.38 394.308 356.38H390.132C387.204 356.38 386.628 355.852 386.628 353.308V339.244C386.628 337.852 387.012 337.468 388.404 337.468H402.132C403.524 337.468 403.908 337.852 403.908 339.244V342.412C403.908 343.804 403.524 344.188 402.132 344.188H393.972C393.3 344.188 393.108 344.428 393.108 345.052V348.364C393.108 349.42 393.3 349.66 394.5 349.66H395.316C401.988 349.66 404.58 352.828 404.58 359.932V364.54C404.58 370.636 402.228 373.948 395.316 373.948C388.5 373.948 386.148 370.876 386.148 363.388V361.948C386.148 360.556 386.532 360.172 387.924 360.172H391.092C392.484 360.172 392.868 360.556 392.868 361.948V364.54C392.868 366.46 393.636 367.228 395.316 367.228C396.996 367.228 397.764 366.46 397.764 364.54Z" fill="#F67A38"/>
<path d="M460.336 337.512L464.432 341.224C466.576 343.144 467.056 344.296 467.056 346.44V347.016C467.056 351.048 465.52 353.288 460.88 353.288C456.24 353.288 454.704 351.4 454.704 346.248V345.608C454.704 344.68 454.96 344.424 455.888 344.424H458.064C458.992 344.424 459.248 344.68 459.248 345.608V347.016C459.248 348.296 459.76 348.808 460.88 348.808C462 348.808 462.512 348.328 462.512 347.176V346.568C462.512 345.672 462.32 345.224 461.136 344.168L457.296 340.744C455.152 338.856 454.704 337.768 454.704 335.624V334.92C454.704 330.888 456.24 328.648 460.88 328.648C465.52 328.648 467.056 330.536 467.056 335.688V336.328C467.056 337.256 466.8 337.512 465.872 337.512H463.696C462.768 337.512 462.512 337.256 462.512 336.328V334.92C462.512 333.64 462 333.128 460.88 333.128C459.76 333.128 459.248 333.608 459.248 334.76V335.304C459.248 336.232 459.44 336.68 460.336 337.512ZM472.714 351.784C472.714 352.712 472.458 352.968 471.53 352.968H469.482C468.554 352.968 468.298 352.712 468.298 351.784V343.592C468.298 342.184 468.362 341.608 468.746 340.328L471.658 330.568C472.042 329.224 472.362 328.968 474.026 328.968H475.178C476.842 328.968 477.162 329.224 477.546 330.568L480.458 340.328C480.842 341.576 480.906 342.184 480.906 343.592V351.784C480.906 352.712 480.65 352.968 479.722 352.968H477.674C476.746 352.968 476.49 352.712 476.49 351.784V347.56C476.49 347.112 476.362 346.984 475.914 346.984H473.29C472.842 346.984 472.714 347.112 472.714 347.56V351.784ZM476.01 342.504C476.362 342.504 476.554 342.376 476.554 342.088C476.554 341.928 476.522 341.768 476.49 341.608L475.018 335.432C474.954 335.112 474.89 335.048 474.602 335.048C474.314 335.048 474.25 335.112 474.186 335.432L472.714 341.608C472.682 341.768 472.65 341.928 472.65 342.088C472.65 342.376 472.842 342.504 473.194 342.504H476.01ZM490.909 336.872C491.069 337.16 491.133 337.224 491.325 337.224C491.517 337.224 491.581 337.128 491.581 336.904V330.152C491.581 329.224 491.837 328.968 492.765 328.968H494.717C495.645 328.968 495.901 329.224 495.901 330.152V351.784C495.901 352.712 495.645 352.968 494.717 352.968H492.765C491.837 352.968 491.581 352.712 491.581 351.784V347.4C491.581 345.896 491.357 345.352 490.813 344.328L487.837 338.792C487.677 338.504 487.613 338.44 487.421 338.44C487.229 338.44 487.165 338.536 487.165 338.76V351.784C487.165 352.712 486.909 352.968 485.981 352.968H484.029C483.101 352.968 482.845 352.712 482.845 351.784V330.152C482.845 329.224 483.101 328.968 484.029 328.968H485.277C486.461 328.968 486.909 329.16 487.581 330.472L490.909 336.872ZM505.411 352.968H503.907C502.979 352.968 502.723 352.712 502.723 351.784V349.672C502.723 348.744 502.979 348.488 503.907 348.488H505.475C506.595 348.488 507.107 347.976 507.107 346.696V333.864C507.107 333.416 506.979 333.288 506.531 333.288H504.963C504.035 333.288 503.779 333.032 503.779 332.104V330.152C503.779 329.224 504.035 328.968 504.963 328.968H510.339C511.267 328.968 511.523 329.224 511.523 330.152V345.928C511.523 351.08 509.987 352.968 505.411 352.968ZM526.158 345.928C526.158 351.336 524.622 353.288 519.982 353.288C515.342 353.288 513.806 351.336 513.806 345.928V336.008C513.806 330.632 515.342 328.648 519.982 328.648C524.622 328.648 526.158 330.632 526.158 336.008V345.928ZM518.35 347.016C518.35 348.296 518.862 348.808 519.982 348.808C521.102 348.808 521.614 348.296 521.614 347.016V335.08C521.614 333.672 521.102 333.128 519.982 333.128C518.862 333.128 518.35 333.672 518.35 335.08V347.016ZM533.555 337.512L537.651 341.224C539.795 343.144 540.275 344.296 540.275 346.44V347.016C540.275 351.048 538.739 353.288 534.099 353.288C529.459 353.288 527.923 351.4 527.923 346.248V345.608C527.923 344.68 528.179 344.424 529.107 344.424H531.283C532.211 344.424 532.467 344.68 532.467 345.608V347.016C532.467 348.296 532.979 348.808 534.099 348.808C535.219 348.808 535.731 348.328 535.731 347.176V346.568C535.731 345.672 535.539 345.224 534.355 344.168L530.515 340.744C528.371 338.856 527.923 337.768 527.923 335.624V334.92C527.923 330.888 529.459 328.648 534.099 328.648C538.739 328.648 540.275 330.536 540.275 335.688V336.328C540.275 337.256 540.019 337.512 539.091 337.512H536.915C535.987 337.512 535.731 337.256 535.731 336.328V334.92C535.731 333.64 535.219 333.128 534.099 333.128C532.979 333.128 532.467 333.608 532.467 334.76V335.304C532.467 336.232 532.659 336.68 533.555 337.512ZM545.577 326.888L547.369 323.528C547.625 323.08 547.753 323.016 548.393 323.016H551.465C551.913 323.016 552.041 323.176 552.041 323.336C552.041 323.496 552.009 323.592 551.817 323.848L549.481 327.24C549.161 327.72 548.969 327.784 548.297 327.784H545.961C545.513 327.784 545.385 327.656 545.385 327.4C545.385 327.272 545.449 327.144 545.577 326.888ZM546.761 334.024V337.608C546.761 338.024 546.889 338.184 547.337 338.184H551.305C552.233 338.184 552.489 338.44 552.489 339.368V341.48C552.489 342.408 552.233 342.664 551.369 342.664H547.337C546.889 342.664 546.761 342.792 546.761 343.24V347.912C546.761 348.328 546.889 348.488 547.337 348.488H551.689C552.617 348.488 552.873 348.744 552.873 349.672V351.784C552.873 352.712 552.617 352.968 551.689 352.968H543.529C542.601 352.968 542.345 352.712 542.345 351.784V330.152C542.345 329.224 542.601 328.968 543.529 328.968H551.689C552.617 328.968 552.873 329.224 552.873 330.152V332.264C552.873 333.192 552.617 333.448 551.689 333.448H547.337C546.889 333.448 546.761 333.576 546.761 334.024Z" fill="#EFB73B"/>
<path d="M468.008 377.208V377.928C468.008 381.792 466.904 383.208 463.424 383.208C459.944 383.208 458.792 381.792 458.792 377.928V370.008C458.792 366.144 459.944 364.728 463.424 364.728C466.904 364.728 468.008 366.144 468.008 370.008V370.728C468.008 371.424 467.816 371.616 467.12 371.616H465.584C464.888 371.616 464.696 371.424 464.696 370.728V369.432C464.696 368.472 464.288 368.088 463.448 368.088C462.608 368.088 462.2 368.472 462.2 369.432V378.504C462.2 379.464 462.608 379.848 463.448 379.848C464.288 379.848 464.696 379.464 464.696 378.504V377.208C464.696 376.512 464.888 376.32 465.584 376.32H467.12C467.816 376.32 468.008 376.512 468.008 377.208ZM478.603 377.688C478.603 381.744 477.451 383.208 473.971 383.208C470.491 383.208 469.339 381.744 469.339 377.688V370.248C469.339 366.216 470.491 364.728 473.971 364.728C477.451 364.728 478.603 366.216 478.603 370.248V377.688ZM472.747 378.504C472.747 379.464 473.131 379.848 473.971 379.848C474.811 379.848 475.195 379.464 475.195 378.504V369.552C475.195 368.496 474.811 368.088 473.971 368.088C473.131 368.088 472.747 368.496 472.747 369.552V378.504ZM484.15 371.376L487.222 374.16C488.83 375.6 489.19 376.464 489.19 378.072V378.504C489.19 381.528 488.038 383.208 484.558 383.208C481.078 383.208 479.926 381.792 479.926 377.928V377.448C479.926 376.752 480.118 376.56 480.814 376.56H482.446C483.142 376.56 483.334 376.752 483.334 377.448V378.504C483.334 379.464 483.718 379.848 484.558 379.848C485.398 379.848 485.782 379.488 485.782 378.624V378.168C485.782 377.496 485.638 377.16 484.75 376.368L481.87 373.8C480.262 372.384 479.926 371.568 479.926 369.96V369.432C479.926 366.408 481.078 364.728 484.558 364.728C488.038 364.728 489.19 366.144 489.19 370.008V370.488C489.19 371.184 488.998 371.376 488.302 371.376H486.67C485.974 371.376 485.782 371.184 485.782 370.488V369.432C485.782 368.472 485.398 368.088 484.558 368.088C483.718 368.088 483.334 368.448 483.334 369.312V369.72C483.334 370.416 483.478 370.752 484.15 371.376ZM497.706 368.328H496.218C495.882 368.328 495.786 368.424 495.786 368.76V382.08C495.786 382.776 495.594 382.968 494.898 382.968H493.362C492.666 382.968 492.474 382.776 492.474 382.08V368.76C492.474 368.424 492.378 368.328 492.042 368.328H490.554C489.858 368.328 489.666 368.136 489.666 367.44V365.856C489.666 365.16 489.858 364.968 490.554 364.968H497.706C498.402 364.968 498.594 365.16 498.594 365.856V367.44C498.594 368.136 498.402 368.328 497.706 368.328ZM501.66 382.08C501.66 382.776 501.468 382.968 500.772 382.968H499.236C498.54 382.968 498.348 382.776 498.348 382.08V375.936C498.348 374.88 498.396 374.448 498.684 373.488L500.868 366.168C501.156 365.16 501.396 364.968 502.644 364.968H503.508C504.756 364.968 504.996 365.16 505.284 366.168L507.468 373.488C507.756 374.424 507.804 374.88 507.804 375.936V382.08C507.804 382.776 507.612 382.968 506.916 382.968H505.38C504.684 382.968 504.492 382.776 504.492 382.08V378.912C504.492 378.576 504.396 378.48 504.06 378.48H502.092C501.756 378.48 501.66 378.576 501.66 378.912V382.08ZM504.132 375.12C504.396 375.12 504.54 375.024 504.54 374.808C504.54 374.688 504.516 374.568 504.492 374.448L503.388 369.816C503.34 369.576 503.292 369.528 503.076 369.528C502.86 369.528 502.812 369.576 502.764 369.816L501.66 374.448C501.636 374.568 501.612 374.688 501.612 374.808C501.612 375.024 501.756 375.12 502.02 375.12H504.132ZM519.337 382.08V379.272C519.337 378.432 519.289 378.168 518.929 377.52L518.353 376.488C518.089 376.056 517.945 375.984 517.513 375.984H517.081C516.745 375.984 516.649 376.08 516.649 376.416V382.08C516.649 382.776 516.457 382.968 515.761 382.968H514.225C513.529 382.968 513.337 382.776 513.337 382.08V365.856C513.337 365.16 513.529 364.968 514.225 364.968H517.393C521.041 364.968 522.697 366.216 522.697 369.288V371.016C522.697 372.744 522.433 373.872 521.449 374.664C521.329 374.736 521.305 374.808 521.305 374.88C521.305 374.952 521.329 375.024 521.401 375.144L522.073 376.368C522.577 377.304 522.649 377.688 522.649 378.96V382.08C522.649 382.776 522.457 382.968 521.761 382.968H520.225C519.529 382.968 519.337 382.776 519.337 382.08ZM516.649 368.64V372.264C516.649 372.6 516.745 372.696 517.081 372.696H517.585C518.713 372.696 519.289 372.192 519.289 371.04V369.792C519.289 368.664 518.761 368.208 517.585 368.208H517.081C516.745 368.208 516.649 368.304 516.649 368.64ZM527.875 365.856V382.08C527.875 382.776 527.683 382.968 526.987 382.968H525.451C524.755 382.968 524.563 382.776 524.563 382.08V365.856C524.563 365.16 524.755 364.968 525.451 364.968H526.987C527.683 364.968 527.875 365.16 527.875 365.856ZM539.024 377.208V377.928C539.024 381.792 537.92 383.208 534.44 383.208C530.96 383.208 529.808 381.792 529.808 377.928V370.008C529.808 366.144 530.96 364.728 534.44 364.728C537.92 364.728 539.024 366.144 539.024 370.008V370.728C539.024 371.424 538.832 371.616 538.136 371.616H536.6C535.904 371.616 535.712 371.424 535.712 370.728V369.432C535.712 368.472 535.304 368.088 534.464 368.088C533.624 368.088 533.216 368.472 533.216 369.432V378.504C533.216 379.464 533.624 379.848 534.464 379.848C535.304 379.848 535.712 379.464 535.712 378.504V377.208C535.712 376.512 535.904 376.32 536.6 376.32H538.136C538.832 376.32 539.024 376.512 539.024 377.208ZM543.285 382.08C543.285 382.776 543.093 382.968 542.397 382.968H540.861C540.165 382.968 539.973 382.776 539.973 382.08V375.936C539.973 374.88 540.021 374.448 540.309 373.488L542.493 366.168C542.781 365.16 543.021 364.968 544.269 364.968H545.133C546.381 364.968 546.621 365.16 546.909 366.168L549.093 373.488C549.381 374.424 549.429 374.88 549.429 375.936V382.08C549.429 382.776 549.237 382.968 548.541 382.968H547.005C546.309 382.968 546.117 382.776 546.117 382.08V378.912C546.117 378.576 546.021 378.48 545.685 378.48H543.717C543.381 378.48 543.285 378.576 543.285 378.912V382.08ZM545.757 375.12C546.021 375.12 546.165 375.024 546.165 374.808C546.165 374.688 546.141 374.568 546.117 374.448L545.013 369.816C544.965 369.576 544.917 369.528 544.701 369.528C544.485 369.528 544.437 369.576 544.389 369.816L543.285 374.448C543.261 374.568 543.237 374.688 543.237 374.808C543.237 375.024 543.381 375.12 543.645 375.12H545.757Z" fill="#EFB73B"/>
<path d="M2.38696 395.725C88.3447 396.362 174.319 396.553 260.285 396.286C303.094 396.155 345.912 395.701 388.721 395.888C431.166 396.075 473.603 396.617 516.048 396.856C562.912 397.119 609.85 397.031 656.614 395.362C659.783 395.251 659.808 392.857 656.614 392.972C572.659 395.972 488.24 394.171 404.169 393.59C361.417 393.291 318.666 393.689 275.914 393.845C232.923 394.004 189.924 394.052 146.932 393.984C98.7533 393.908 50.566 393.693 2.39526 393.335C-0.798462 393.311 -0.798462 395.701 2.39526 395.725L2.38696 395.725Z" fill="#84CCF5"/>
</svg>
