<svg width="360" height="541" viewBox="0 0 360 541" fill="none" xmlns="http://www.w3.org/2000/svg">
<path d="M322.857 231.406L355.465 270.978L334.97 295.844C312.33 314.697 290.587 323.283 269.871 325.092C293.945 321.967 308.704 304.9 308.704 282.007C308.704 259.115 290.261 240.497 267.504 240.497C251.509 240.497 237.636 249.694 230.816 263.12C230.816 234.26 254.016 212.037 282.66 212.037C298.433 212.037 313.274 220.141 322.787 231.324C322.81 231.347 322.834 231.382 322.857 231.406Z" fill="#84CCF5"/>
<path d="M269.871 325.092C290.587 323.283 312.33 314.697 334.97 295.844L281.739 360.435C267.516 363.513 253.759 363.348 240.48 360.952C229.452 338.576 206.543 323.201 180.079 323.201C174.169 323.201 168.433 323.964 162.965 325.409L162.93 325.268C143.822 312.641 126.428 299.779 110.923 291.968C78.3269 275.547 46.8498 286.271 26.7744 297.583L5.11353 271.295C7.65501 268.969 28.3832 250.669 56.4911 244.315C71.2154 240.979 87.9682 240.92 105.199 248.179C106.878 248.884 108.568 249.659 110.259 250.516C123.631 257.259 138.425 268.112 154.513 279.506C187.785 303.056 226.596 328.862 269.871 325.092Z" fill="#84CCF5"/>
<path d="M322.216 101.154C324.058 100.884 325.434 103.316 324.699 105.536L304.204 166.662L180.161 17.793L235.374 3.83879C237.065 3.36895 238.58 5.30704 238.254 7.51529L229.137 53.9825C228.811 56.179 230.291 58.1053 231.982 57.6707L275.956 53.7475C277.612 53.3129 279.081 55.1688 278.812 57.3418L270.15 100.779C269.894 102.846 271.211 104.655 272.809 104.42L322.216 101.154Z" fill="#F67A38"/>
<path d="M292.569 194.664L322.787 231.324C313.274 220.141 298.433 212.037 282.66 212.037C254.016 212.037 230.816 234.26 230.816 263.12C237.636 249.694 251.509 240.497 267.504 240.497C290.261 240.497 308.704 259.091 308.704 282.007C308.704 304.924 293.945 321.967 269.871 325.092C226.596 328.862 187.785 303.056 154.513 279.506L198.219 228.035L220.941 201.289L231.072 189.355C234.045 185.867 237.554 183.094 241.39 181.098C252.57 175.26 266.455 175.882 277.274 183.67L292.569 194.664Z" fill="#84E9B7"/>
<path d="M245.482 137.52L292.569 194.664L277.274 183.67C266.455 175.882 252.57 175.26 241.39 181.098L241.133 179.806C241.821 176.552 241.914 173.122 241.308 169.634C240.271 163.737 237.379 158.639 233.334 154.845L245.482 137.52Z" fill="#EFB73B"/>
<path d="M281.739 360.435L247.452 402.04L246.636 401.911C247.196 398.399 247.487 394.804 247.487 391.128C247.487 380.286 244.969 370.044 240.48 360.952C253.759 363.348 267.516 363.513 281.739 360.435Z" fill="#F9FFF2"/>
<path d="M172 510.079C172 511.959 171.954 513.028 171.954 513.028C171.954 516.657 170.205 519.876 167.5 521.872C165.705 523.2 163.49 523.975 161.1 523.975C159.724 523.975 158.395 523.717 157.183 523.235C156.18 522.847 155.247 522.319 154.42 521.661C84.7155 467.465 124.05 428.903 124.05 428.903C118.711 420.88 115.027 411.648 113.488 401.711C112.952 398.258 112.672 394.734 112.672 391.128C112.672 374.672 118.478 359.578 128.142 347.82C137.002 337.037 149.115 329.062 162.965 325.409C168.433 323.964 174.169 323.201 180.079 323.201C206.543 323.201 229.452 338.576 240.48 360.952C244.969 370.044 247.487 380.286 247.487 391.128C247.487 394.804 247.196 398.399 246.636 401.911C245.097 411.672 241.483 420.751 236.26 428.656L236.587 428.903C236.587 428.903 275.921 467.465 206.217 521.661C204.375 523.106 202.055 523.975 199.537 523.975C197.019 523.975 194.699 523.106 192.857 521.649C190.315 519.652 188.683 516.528 188.683 513.028C188.683 513.028 188.637 511.959 188.637 510.079H188.194L180.079 520.839L172.443 510.079H172ZM231.142 391.128C231.142 387.604 230.792 384.162 230.116 380.827C225.383 357.346 204.783 339.68 180.079 339.68C155.376 339.68 134.811 357.311 130.054 380.756C129.378 384.115 129.017 387.581 129.017 391.128C129.017 404.612 134.17 416.899 142.61 426.072C151.937 436.221 165.274 442.575 180.079 442.575C194.885 442.575 208.397 436.138 217.724 425.872C226.059 416.722 231.142 404.518 231.142 391.128Z" fill="#F67A38"/>
<path d="M215.462 101.096L245.482 137.52L233.334 154.845C228.706 150.499 222.573 147.868 216.022 147.704L216.057 146.059L215.462 101.096Z" fill="#F9FFF2"/>
<path d="M241.308 169.634C241.914 173.122 241.821 176.552 241.133 179.806L241.39 181.098C237.554 183.094 234.045 185.867 231.072 189.355L220.941 201.289L219.927 200.408C213.981 201.465 208.152 200.432 203.186 197.824C199.164 195.721 195.713 192.597 193.218 188.721C191.353 185.82 190.012 182.507 189.383 178.878C189.161 177.609 189.033 176.352 188.998 175.095C188.823 170.009 190.129 165.111 192.554 160.918C194.769 157.077 197.928 153.812 201.764 151.498C204.457 149.853 207.488 148.69 210.764 148.103C212.536 147.786 214.296 147.657 216.022 147.704C222.573 147.868 228.706 150.499 233.334 154.845C237.379 158.639 240.271 163.737 241.308 169.634Z" fill="#EFB73B"/>
<path d="M230.116 380.827C230.792 384.162 231.142 387.604 231.142 391.128C231.142 404.518 226.059 416.722 217.724 425.872C219.402 423.394 220.265 420.763 220.627 418.249C221.419 412.74 216.896 407.76 211.405 408.441C210.612 408.547 209.808 408.594 208.992 408.594C198.021 408.594 189.184 399.385 189.697 388.227C190.152 378.313 198.243 370.161 208.082 369.703C215.031 369.386 223.844 371.348 230.116 380.827ZM216.278 389.143C216.278 385.09 213.014 381.801 208.992 381.801C204.97 381.801 201.705 385.09 201.705 389.143C201.705 393.195 204.97 396.484 208.992 396.484C213.014 396.484 216.278 393.195 216.278 389.143Z" fill="#EFB73B"/>
<path d="M220.941 201.289L198.219 228.035L197.333 227.271L188.975 218.074L203.186 197.824C208.152 200.432 213.981 201.465 219.927 200.408L220.941 201.289Z" fill="#F9FFF2"/>
<path d="M211.405 408.441C216.896 407.76 221.419 412.74 220.627 418.249C220.265 420.763 219.402 423.394 217.724 425.872C208.397 436.138 194.99 442.575 180.079 442.575C165.169 442.575 151.937 436.221 142.61 426.072L142.878 425.825C141.199 423.347 140.337 420.716 139.975 418.202C139.194 412.693 143.718 407.713 149.197 408.406C149.99 408.5 150.794 408.547 151.622 408.547C162.581 408.547 171.417 399.338 170.904 388.18C170.45 378.266 162.359 370.114 152.531 369.656C145.571 369.339 136.769 371.301 130.486 380.78L130.054 380.756C134.811 357.311 155.399 339.68 180.079 339.68C204.76 339.68 225.383 357.346 230.116 380.827C223.844 371.348 215.031 369.386 208.082 369.703C198.243 370.161 190.152 378.313 189.697 388.227C189.184 399.385 198.021 408.594 208.992 408.594C209.808 408.594 210.612 408.547 211.405 408.441ZM181.956 402.862C181.956 402.263 181.105 401.77 180.044 401.77C178.984 401.77 178.144 402.263 178.144 402.862C178.144 403.461 178.995 403.954 180.044 403.954C181.094 403.954 181.956 403.473 181.956 402.862Z" fill="#F9FFF2"/>
<path d="M215.462 101.096L216.057 146.059L216.022 147.704C214.296 147.657 212.536 147.786 210.764 148.103C207.488 148.69 204.457 149.853 201.764 151.498L201.006 150.264L160.773 81.7735L180.161 58.258L215.462 101.096Z" fill="#EFB73B"/>
<path d="M208.992 396.484C213.014 396.484 216.278 393.195 216.278 389.143C216.278 385.09 213.014 381.801 208.992 381.801C204.97 381.801 201.705 385.09 201.705 389.143C201.705 393.195 204.97 396.484 208.992 396.484Z" fill="#F9FFF2"/>
<path d="M203.186 197.824L188.975 218.074L176.687 204.543C174.46 202.088 171.779 200.326 168.888 199.257L191.33 189.437L193.218 188.721C195.713 192.597 199.164 195.721 203.186 197.824Z" fill="#EFB73B"/>
<path d="M201.006 150.264L201.764 151.498C197.928 153.812 194.769 157.077 192.554 160.918L191.854 160.495L126.813 124.799L125.927 124.059L160.773 81.7735L201.006 150.264Z" fill="#F9FFF2"/>
<path d="M143.076 208.983L147.81 204.085C153.475 198.223 161.788 196.638 168.888 199.257C171.779 200.326 174.46 202.088 176.687 204.543L188.975 218.074L197.333 227.271L198.219 228.035L154.513 279.506C138.425 268.112 123.631 257.259 110.259 250.516C108.568 249.659 106.878 248.884 105.199 248.179L143.076 208.983Z" fill="#84E9B7"/>
<path d="M193.218 188.721L191.33 189.437L168.888 199.257C161.788 196.638 153.475 198.223 147.81 204.085L143.076 208.983L56.4678 244.209L56.4911 244.315C28.3832 250.669 7.65501 268.969 5.11353 271.295L4.8454 270.978L81.4396 178.032L188.986 175.095C189.021 176.352 189.149 177.609 189.371 178.878C190.001 182.507 191.341 185.819 193.207 188.721L193.218 188.721Z" fill="#F9FFF2"/>
<path d="M191.854 160.495L192.554 160.918C190.129 165.111 188.823 170.009 188.998 175.095L81.4513 178.032L125.927 124.059L126.813 124.799L191.854 160.495Z" fill="#EFB73B"/>
<path d="M180.161 17.793L56.1064 166.662L35.6113 105.536C34.8769 103.316 36.2525 100.884 38.0945 101.154L87.5135 104.42C89.099 104.655 90.4164 102.846 90.1599 100.779L81.4979 57.3418C81.2297 55.1688 82.6987 53.3129 84.3541 53.7475L128.329 57.6707C130.019 58.1053 131.5 56.179 131.185 53.9825L122.068 7.51529C121.73 5.30704 123.246 3.36895 124.936 3.83879L180.161 17.793Z" fill="#F67A38"/>
<path d="M170.904 388.18C171.417 399.338 162.581 408.547 151.622 408.547C150.794 408.547 149.99 408.5 149.197 408.406C143.718 407.713 139.194 412.693 139.975 418.202C140.337 420.716 141.199 423.347 142.878 425.825L142.61 426.072C134.17 416.899 129.017 404.612 129.017 391.128C129.017 387.581 129.378 384.115 130.054 380.756L130.486 380.78C136.769 371.301 145.571 369.339 152.531 369.656C162.359 370.114 170.45 378.266 170.904 388.18ZM158.908 389.096C158.908 385.043 155.644 381.754 151.622 381.754C147.6 381.754 144.335 385.043 144.335 389.096C144.335 393.148 147.588 396.437 151.622 396.437C155.656 396.437 158.908 393.148 158.908 389.096Z" fill="#EFB73B"/>
<path d="M162.93 325.268L162.965 325.409C149.115 329.062 137.002 337.037 128.142 347.82C121.241 343.345 114.642 339.351 108.358 336.18C87.9915 325.914 70.6092 325.691 53.6232 330.154L26.7744 297.583C46.8498 286.271 78.3269 275.547 110.923 291.968C126.428 299.779 143.822 312.641 162.93 325.268Z" fill="#F9FFF2"/>
<path d="M151.622 381.754C155.644 381.754 158.908 385.043 158.908 389.096C158.908 393.148 155.644 396.437 151.622 396.437C147.6 396.437 144.335 393.148 144.335 389.096C144.335 385.043 147.588 381.754 151.622 381.754Z" fill="#F9FFF2"/>
<path d="M143.076 208.983L105.199 248.179C87.9682 240.92 71.2154 240.979 56.4911 244.315L56.4678 244.209L143.076 208.983Z" fill="#EFB73B"/>
<path d="M113.488 401.711L112.695 401.84L53.6232 330.154C70.6092 325.691 87.9915 325.914 108.358 336.18C114.642 339.351 121.241 343.345 128.142 347.82C118.478 359.578 112.672 374.672 112.672 391.128C112.672 394.734 112.952 398.258 113.488 401.711Z" fill="#84CCF5"/>
<path d="M194.501 415.512C193.043 416.393 191.388 416.863 189.697 416.863C187.028 416.863 184.475 415.7 182.621 413.586C182.493 413.445 182.341 413.316 182.19 413.198C182.155 413.175 182.12 413.14 182.085 413.116C181.968 413.034 181.84 412.964 181.712 412.905C181.63 412.858 181.56 412.811 181.478 412.776C181.397 412.74 181.304 412.717 181.21 412.682C181.082 412.635 180.954 412.588 180.814 412.564C180.744 412.552 180.686 412.552 180.616 412.541C180.452 412.517 180.289 412.494 180.126 412.494C180.114 412.494 180.091 412.494 180.079 412.494C180.033 412.494 179.998 412.505 179.951 412.505C179.765 412.505 179.566 412.529 179.38 412.564C179.31 412.576 179.24 412.599 179.17 412.623C179.007 412.67 178.844 412.729 178.68 412.787C178.61 412.823 178.541 412.846 178.482 412.881C178.331 412.964 178.191 413.046 178.051 413.152C177.993 413.199 177.934 413.234 177.876 413.281C177.829 413.316 177.771 413.351 177.724 413.398C177.643 413.48 177.573 413.574 177.491 413.657C177.468 413.692 177.433 413.715 177.398 413.739C175.603 415.724 173.073 416.863 170.45 416.863C168.748 416.863 167.092 416.393 165.647 415.512C163.991 414.502 161.846 415.031 160.843 416.699C159.841 418.367 160.365 420.528 162.021 421.538C164.551 423.089 167.465 423.899 170.45 423.899C173.924 423.899 177.293 422.771 180.068 420.728C182.842 422.771 186.2 423.899 189.697 423.899C192.659 423.899 195.573 423.077 198.115 421.538C199.77 420.54 200.306 418.367 199.304 416.699C198.313 415.031 196.156 414.491 194.501 415.501V415.512Z" fill="#0E2C5E"/>
<path d="M180.044 407.478C183.134 407.478 185.454 405.493 185.454 402.862C185.454 400.231 183.134 398.246 180.044 398.246C176.955 398.246 174.647 400.231 174.647 402.862C174.647 405.493 176.967 407.478 180.044 407.478Z" fill="#0E2C5E"/>
<path d="M208.992 378.278C203.046 378.278 198.208 383.152 198.208 389.143C198.208 395.133 203.046 400.008 208.992 400.008C214.937 400.008 219.775 395.133 219.775 389.143C219.775 383.152 214.937 378.278 208.992 378.278ZM208.992 392.96C206.905 392.96 205.203 391.245 205.203 389.143C205.203 387.04 206.905 385.325 208.992 385.325C211.078 385.325 212.781 387.04 212.781 389.143C212.781 391.245 211.078 392.96 208.992 392.96Z" fill="#0E2C5E"/>
<path d="M162.406 389.096C162.406 383.105 157.567 378.231 151.622 378.231C145.676 378.231 140.838 383.105 140.838 389.096C140.838 395.086 145.676 399.961 151.622 399.961C157.567 399.961 162.406 395.086 162.406 389.096ZM147.833 389.096C147.833 386.993 149.535 385.278 151.622 385.278C153.709 385.278 155.411 386.993 155.411 389.096C155.411 391.198 153.709 392.913 151.622 392.913C149.535 392.913 147.833 391.198 147.833 389.096Z" fill="#0E2C5E"/>
<path d="M233.555 380.18C233.555 380.18 233.555 380.157 233.555 380.145C233.555 380.145 233.555 380.122 233.555 380.11C228.414 354.633 205.937 336.145 180.091 336.145C154.245 336.145 131.803 354.609 126.638 380.04C125.904 383.693 125.531 387.416 125.531 391.116C125.531 405.012 130.684 418.273 140.057 428.457C150.351 439.662 164.947 446.087 180.091 446.087C195.235 446.087 210.006 439.58 220.312 428.245C229.557 418.097 234.651 404.906 234.651 391.116C234.651 387.428 234.29 383.74 233.567 380.169L233.555 380.18ZM139.882 408.359C138.786 409.475 137.947 410.791 137.364 412.212C134.193 405.716 132.514 398.528 132.514 391.128C132.514 388.403 132.759 385.654 133.214 382.953C133.272 382.882 133.33 382.823 133.388 382.741C137.842 376.022 144.231 372.792 152.368 373.18C160.435 373.556 167.034 380.216 167.407 388.344C167.605 392.749 166.066 396.919 163.058 400.09C160.039 403.273 155.982 405.023 151.622 405.023C150.934 405.023 150.269 404.988 149.628 404.906C146.026 404.448 142.47 405.705 139.882 408.359ZM217.164 417.744C216.849 419.941 216.092 421.949 214.949 423.699C205.972 433.46 193.288 439.051 180.079 439.051C166.871 439.051 155.096 433.836 146.177 424.71C146.073 424.404 145.944 424.111 145.758 423.829C144.534 422.031 143.753 419.964 143.426 417.697C143.193 416.065 143.718 414.467 144.86 413.292C145.478 412.67 146.795 411.66 148.777 411.895C149.698 412 150.654 412.059 151.61 412.059C157.906 412.059 163.758 409.534 168.106 404.941C172.443 400.36 174.682 394.346 174.39 388.003C173.854 376.281 164.318 366.661 152.683 366.121C148.311 365.921 142.913 366.532 137.702 369.339C145.676 353.658 161.928 343.192 180.079 343.192C198.231 343.192 214.284 353.541 222.305 369.057C217.292 366.52 212.128 365.98 207.919 366.168C196.284 366.708 186.736 376.316 186.2 388.05C185.908 394.393 188.135 400.407 192.484 404.988C196.832 409.581 202.696 412.106 208.992 412.106C209.983 412.106 210.95 412.047 211.836 411.93C213.807 411.683 215.136 412.705 215.742 413.339C216.884 414.514 217.397 416.111 217.164 417.732V417.744ZM223.016 411.73C222.445 410.52 221.687 409.393 220.743 408.418C218.155 405.763 214.599 404.506 210.95 404.941C210.344 405.023 209.68 405.059 208.992 405.059C204.62 405.059 200.563 403.308 197.543 400.125C194.536 396.954 192.985 392.784 193.195 388.379C193.568 380.251 200.178 373.591 208.246 373.215C216.15 372.851 222.387 375.881 226.817 382.213C227.365 385.126 227.656 388.121 227.656 391.128C227.656 398.34 226.048 405.352 223.028 411.73H223.016Z" fill="#0E2C5E"/>
<path d="M249.667 404.741C249.83 404.6 249.993 404.459 250.133 404.283L360 270.966L325.538 229.139C325.538 229.139 325.527 229.127 325.515 229.115C325.515 229.115 325.503 229.092 325.492 229.08L325.469 229.045L180.161 52.7374L157.987 79.6357C157.987 79.6357 157.964 79.671 157.952 79.6827L0.275391 271.001L1.47618 272.423C1.60442 272.94 1.84924 273.433 2.21065 273.856C2.54873 274.243 2.95677 274.537 3.38812 274.737L109.99 404.095C110.119 404.26 110.27 404.389 110.422 404.518C112.019 413.081 115.108 421.151 119.655 428.574C116.006 433.108 108.626 444.419 109.547 460.817C110.748 481.936 125.111 503.337 152.228 524.433C152.228 524.433 152.251 524.445 152.251 524.457C152.251 524.457 152.263 524.457 152.275 524.468C152.963 525.009 153.709 525.49 154.501 525.89L159.911 538.141C160.494 539.456 161.764 540.231 163.105 540.231C163.583 540.231 164.061 540.138 164.527 539.926C166.288 539.139 167.081 537.048 166.299 535.275L162.814 527.393C164.189 527.229 165.53 526.865 166.789 526.312L172.828 532.878C173.516 533.63 174.449 534.006 175.393 534.006C176.244 534.006 177.095 533.701 177.771 533.066C179.182 531.739 179.275 529.519 177.958 528.086L172.338 521.978C173.119 520.98 173.749 519.887 174.25 518.725L177.212 522.906C177.212 522.906 177.27 522.965 177.305 523C177.41 523.141 177.538 523.27 177.666 523.399C177.736 523.47 177.794 523.529 177.876 523.599C177.899 523.623 177.923 523.646 177.946 523.67C178.109 523.799 178.284 523.905 178.471 523.998C178.506 524.01 178.541 524.022 178.564 524.045C178.762 524.139 178.96 524.21 179.158 524.269C179.217 524.28 179.275 524.304 179.333 524.316C179.566 524.363 179.811 524.398 180.056 524.398C180.289 524.398 180.522 524.363 180.756 524.316C180.814 524.316 180.861 524.292 180.919 524.28C181.129 524.222 181.338 524.151 181.537 524.057C181.56 524.057 181.583 524.045 181.595 524.034C181.77 523.951 181.933 523.846 182.085 523.74C182.12 523.717 182.143 523.693 182.166 523.67C182.248 523.611 182.318 523.54 182.388 523.47C182.516 523.352 182.633 523.235 182.737 523.106C182.772 523.071 182.807 523.047 182.831 523L186.223 518.501C186.678 519.641 187.284 520.721 188.03 521.708L182.155 528.098C180.837 529.519 180.93 531.751 182.341 533.078C183.017 533.712 183.868 534.018 184.719 534.018C185.664 534.018 186.596 533.642 187.284 532.89L193.463 526.172C194.827 526.818 196.273 527.229 197.777 527.405L194.291 535.286C193.51 537.06 194.291 539.151 196.063 539.938C196.529 540.149 197.007 540.243 197.485 540.243C198.826 540.243 200.096 539.468 200.679 538.152L206.1 525.89C206.882 525.49 207.628 525.02 208.315 524.468C235.444 503.372 249.807 481.96 251.008 460.84C251.964 443.985 244.129 432.509 240.609 428.245C245.004 420.986 248.023 413.116 249.62 404.777L249.667 404.741ZM109.186 392.067L59.9536 332.327C76.275 329.121 90.941 331.341 106.784 339.328C111.518 341.712 116.741 344.731 123.013 348.713C114.059 360.941 109.163 375.846 109.163 391.128C109.163 391.445 109.174 391.762 109.186 392.079V392.067ZM127.478 343.216C120.681 338.882 115.038 335.616 109.921 333.032C91.6522 323.823 74.1066 321.65 54.9173 326.219L32.1955 298.652C51.9211 288.397 80.2388 280.457 109.361 295.128C120.46 300.719 132.771 309.094 145.804 317.974C148.835 320.041 151.948 322.144 155.084 324.258C144.522 328.251 135.114 334.7 127.478 343.228V343.216ZM163.746 321.591C158.966 318.42 154.257 315.225 149.71 312.124C136.478 303.115 123.98 294.611 112.485 288.82C80.0756 272.493 48.8783 281.737 27.6255 293.107L9.99831 271.718C16.5619 266.268 34.3989 252.924 57.2605 247.756C73.5937 244.056 89.2739 245.29 103.858 251.433C105.514 252.126 107.134 252.877 108.696 253.664C120.378 259.549 133.447 268.84 147.285 278.683L152.508 282.395C185.99 306.087 221.839 328.991 261.384 328.991C264.193 328.991 267.038 328.874 269.882 328.627C269.929 328.627 269.987 328.627 270.034 328.627H270.139C270.139 328.627 270.162 328.627 270.174 328.616C285.621 327.265 300.893 322.226 315.792 313.616L279.85 357.229C267.714 359.707 255.554 359.883 242.765 357.769C230.431 334.242 206.578 319.7 180.079 319.7C174.553 319.7 169.062 320.346 163.746 321.615V321.591ZM126.638 128.71L187.937 162.351C186.666 165.311 185.874 168.459 185.605 171.654L89.064 174.285L126.627 128.699L126.638 128.71ZM160.295 87.8814L197.065 150.488C194.944 152.144 193.043 154.094 191.434 156.267L131.185 123.202L160.284 87.8931L160.295 87.8814ZM273.974 177.609C264.986 173.146 254.668 172.441 245.167 175.683C245.272 173.474 245.132 171.243 244.747 169.023C243.791 163.561 241.413 158.616 237.846 154.516L245.703 143.311L273.974 177.609ZM302.793 212.589C296.335 209.946 289.48 208.513 282.66 208.513C251.626 208.513 227.318 232.498 227.318 263.12C227.318 263.19 227.33 263.249 227.342 263.308C227.342 263.437 227.353 263.555 227.377 263.684C227.4 263.801 227.423 263.907 227.447 264.013C227.47 264.118 227.505 264.236 227.551 264.341C227.586 264.447 227.633 264.553 227.691 264.659C227.738 264.764 227.796 264.858 227.855 264.952C227.913 265.046 227.971 265.14 228.041 265.222C228.111 265.316 228.181 265.41 228.263 265.493C228.333 265.575 228.414 265.657 228.496 265.728C228.577 265.798 228.659 265.88 228.752 265.939C228.857 266.009 228.95 266.08 229.067 266.139C229.125 266.174 229.172 266.221 229.23 266.244C229.265 266.268 229.3 266.268 229.347 266.291C229.463 266.35 229.58 266.385 229.697 266.432C229.801 266.468 229.906 266.503 230.011 266.526C230.116 266.55 230.233 266.573 230.349 266.585C230.466 266.597 230.594 266.62 230.711 266.62C230.758 266.62 230.792 266.632 230.827 266.632C230.897 266.632 230.956 266.62 231.026 266.608C231.142 266.608 231.27 266.597 231.387 266.573C231.504 266.55 231.609 266.526 231.725 266.503C231.83 266.479 231.935 266.444 232.04 266.409C232.156 266.362 232.261 266.315 232.366 266.268C232.46 266.221 232.565 266.174 232.658 266.115C232.751 266.056 232.844 265.986 232.938 265.927C233.031 265.868 233.112 265.786 233.206 265.704C233.287 265.622 233.369 265.551 233.439 265.457C233.509 265.375 233.579 265.293 233.649 265.199C233.719 265.093 233.789 264.988 233.847 264.882C233.882 264.823 233.917 264.776 233.952 264.717C240.434 251.949 253.304 244.009 267.527 244.009C288.314 244.009 305.23 261.053 305.23 281.996C305.23 302.939 291.555 318.678 269.533 321.568C230.011 324.998 194.944 303.608 159.701 278.824L233.754 191.634C236.388 188.533 239.513 186.043 243.022 184.21C253.398 178.784 265.755 179.676 275.268 186.524L290.214 197.26L302.828 212.565L302.793 212.589ZM104.313 244.044C96.2455 240.92 87.8866 239.135 79.2945 238.723L128.982 218.52L104.313 244.044ZM150.316 206.539C154.816 201.888 161.625 200.326 167.687 202.558C170.158 203.474 172.315 204.93 174.11 206.915L186.41 220.447C186.41 220.447 186.433 220.47 186.445 220.494L193.463 228.223L153.93 274.772L151.319 272.916C137.259 262.92 123.98 253.488 111.832 247.357C111.623 247.251 111.389 247.145 111.18 247.04L150.328 206.528L150.316 206.539ZM191.982 192.996C193.754 195.24 195.841 197.225 198.161 198.869L188.613 212.471L179.252 202.17C178.436 201.266 177.561 200.455 176.64 199.703L191.971 192.996H191.982ZM198.045 222.831L193.463 217.792L204.375 202.24C207.395 203.45 210.554 204.143 213.772 204.308L198.033 222.831H198.045ZM232.611 149.759C228.717 146.976 224.241 145.167 219.531 144.485L219.088 111.009L241.075 137.684L232.611 149.748V149.759ZM215.928 151.228C221.501 151.369 226.84 153.565 230.944 157.429C234.593 160.848 236.983 165.288 237.857 170.244C238.37 173.204 238.324 176.176 237.706 179.077C237.706 179.101 237.706 179.124 237.706 179.148C234.232 181.25 231.119 183.893 228.414 187.065L220.067 196.896C219.822 196.896 219.566 196.896 219.321 196.943C214.308 197.836 209.295 197.06 204.795 194.699C201.286 192.867 198.289 190.13 196.156 186.806C194.477 184.199 193.358 181.321 192.833 178.267C192.647 177.174 192.53 176.07 192.495 174.978C192.344 170.679 193.416 166.439 195.585 162.692C197.52 159.332 200.283 156.502 203.582 154.516C205.949 153.072 208.584 152.085 211.382 151.58C212.886 151.31 214.424 151.192 215.94 151.239L215.928 151.228ZM83.1184 181.509L185.827 178.701C185.862 178.96 185.885 179.218 185.932 179.477C186.386 182.073 187.168 184.563 188.252 186.935L168.701 195.486C160.424 193.008 151.377 195.334 145.303 201.618L141.083 205.987L55.1621 240.932C55.0688 240.967 54.9989 241.026 54.9056 241.061C42.8161 243.903 32.0789 248.872 23.5218 253.829L83.13 181.497L83.1184 181.509ZM260.066 366.261C264.426 366.261 268.763 365.991 273.042 365.463L250.949 392.267C250.949 391.891 250.973 391.504 250.973 391.128C250.973 382.177 249.352 373.544 246.193 365.369C250.845 365.944 255.473 366.261 260.054 366.261H260.066ZM332.51 293.319C321.983 302.058 311.467 308.73 300.8 313.44C308.086 305.335 312.201 294.517 312.201 282.007C312.201 257.176 292.149 236.973 267.504 236.973C255.519 236.973 244.363 241.742 236.144 249.929C241.821 229.879 260.229 215.56 282.66 215.56C296.51 215.56 310.511 222.314 320.129 233.614L320.152 233.637C320.152 233.637 320.176 233.661 320.187 233.673L350.918 270.966L332.51 293.307V293.319ZM211.976 102.388L212.536 144.321C211.743 144.403 210.939 144.497 210.146 144.638C207.663 145.084 205.308 145.848 203.069 146.858L165.04 82.1141L180.161 63.7669L211.976 102.376V102.388ZM244.071 460.547C242.929 479.505 229.475 499.12 204.084 518.865C202.58 520.052 200.668 520.533 198.826 520.345L200.644 518.36C201.962 516.939 201.88 514.707 200.458 513.38C199.047 512.053 196.832 512.135 195.515 513.568L192.973 516.328C192.472 515.318 192.192 514.179 192.192 513.004V512.852C192.192 512.852 192.146 511.806 192.146 510.068C192.181 502.738 193.241 477.661 205.681 462.543C206.917 461.04 206.707 458.82 205.226 457.587C203.745 456.342 201.53 456.553 200.306 458.045C187.506 473.596 185.407 497.135 185.186 508.247L180.184 514.872L175.498 508.259C175.276 497.171 173.189 473.608 160.377 458.045C159.141 456.541 156.938 456.342 155.457 457.587C153.965 458.832 153.767 461.052 155.003 462.543C167.442 477.661 168.503 502.738 168.538 510.056C168.538 511.806 168.491 512.805 168.491 512.852V513.004C168.491 514.32 168.141 515.565 167.535 516.657L164.691 513.568C163.373 512.135 161.17 512.053 159.748 513.38C158.325 514.707 158.244 516.927 159.561 518.36L161.45 520.404C160.447 520.451 159.433 520.298 158.477 519.923C157.801 519.664 157.171 519.3 156.623 518.877C156.623 518.877 156.623 518.877 156.612 518.877C156.612 518.877 156.612 518.877 156.6 518.865C131.208 499.12 117.755 479.505 116.612 460.547C115.528 442.587 126.428 431.522 126.533 431.428L128.62 429.384L127 426.941C121.789 419.118 118.431 410.45 116.985 401.171C116.472 397.858 116.216 394.487 116.216 391.128C116.216 376.152 121.427 361.575 130.882 350.064C139.486 339.586 150.911 332.245 163.898 328.815C169.156 327.429 174.612 326.724 180.126 326.724C204.573 326.724 226.514 340.444 237.391 362.526C241.798 371.453 244.036 381.073 244.036 391.128C244.036 394.558 243.768 397.987 243.232 401.359C241.798 410.473 238.487 419.001 233.404 426.706C232.355 428.292 232.763 430.406 234.278 431.511C235.269 432.556 245.155 443.409 244.118 460.558L244.071 460.547Z" fill="#0E2C5E"/>
<path d="M54.7774 173.733L180.161 23.2784L305.521 173.733L328.01 106.651C328.814 104.232 328.348 101.565 326.786 99.6979C325.538 98.1944 323.708 97.4309 321.878 97.6423L273.706 100.825L282.24 58.0348L282.287 57.7764C282.578 55.4037 281.739 53.031 280.083 51.5745C278.766 50.4117 277.087 49.9418 275.42 50.259L232.681 54.0764L241.681 8.2083L241.704 8.04386C242.066 5.62418 241.238 3.19276 239.548 1.68928C238.102 0.397216 236.237 -0.0491317 234.511 0.432454L180.149 14.1753L125.869 0.4442C124.062 -0.0608777 122.197 0.397216 120.751 1.68928C119.061 3.20451 118.244 5.63593 118.618 8.0556L127.641 54.0764L84.8904 50.259C83.235 49.9418 81.5562 50.3999 80.2271 51.5745C78.5833 53.031 77.7323 55.4037 78.0238 57.7764L86.6042 100.825L38.4326 97.6423C36.5906 97.4309 34.7719 98.1944 33.5245 99.6979C31.974 101.565 31.5076 104.232 32.3121 106.663L54.8007 173.733H54.7774ZM234.663 7.6445L225.709 53.2894L225.686 53.4539C225.325 55.8501 226.141 58.2697 227.796 59.7732C229.125 60.9831 230.827 61.4764 232.518 61.1475L275.257 57.3301L266.735 100.062L266.688 100.32C266.408 102.587 267.131 104.819 268.635 106.299C269.871 107.509 271.503 108.108 273.147 107.908L321.272 104.725L302.887 159.567L186.433 19.8368L234.663 7.6445ZM87.1754 107.932C88.8076 108.131 90.4397 107.544 91.6755 106.334C93.1794 104.854 93.9138 102.611 93.6341 100.344L85.0653 57.3536L127.804 61.171C129.483 61.4999 131.185 61.0066 132.514 59.7967C134.17 58.2932 134.986 55.8736 134.648 53.4891L125.659 7.66799L173.889 19.8486L57.4238 159.602L39.0388 104.76L87.1754 107.944V107.932Z" fill="#0E2C5E"/>
</svg>
