<svg width="659" height="353" viewBox="0 0 659 353" fill="none" xmlns="http://www.w3.org/2000/svg">
<path d="M17.928 8.96826C30.216 8.96826 32.712 13.4483 32.712 24.3283V41.6083C32.712 52.4883 30.216 56.9683 17.928 56.9683H10.12C8.264 56.9683 7.752 56.4563 7.752 54.6003V11.3363C7.752 9.48026 8.264 8.96826 10.12 8.96826H17.928ZM17.736 17.9283C16.84 17.9283 16.584 18.1843 16.584 19.0803V46.8563C16.584 47.6883 16.84 48.0083 17.736 48.0083H18.44C22.024 48.0083 23.624 46.3443 23.624 42.1843V23.7523C23.624 19.5923 22.024 17.9283 18.44 17.9283H17.736ZM46.9115 11.3363V54.6003C46.9115 56.4563 46.3995 56.9683 44.5435 56.9683H40.4475C38.5915 56.9683 38.0795 56.4563 38.0795 54.6003V11.3363C38.0795 9.48026 38.5915 8.96826 40.4475 8.96826H44.5435C46.3995 8.96826 46.9115 9.48026 46.9115 11.3363ZM62.952 26.0563L71.144 33.4803C75.432 37.3203 76.392 39.6243 76.392 43.9123V45.0643C76.392 53.1283 73.32 57.6083 64.04 57.6083C54.76 57.6083 51.688 53.8323 51.688 43.5283V42.2483C51.688 40.3923 52.2 39.8803 54.056 39.8803H58.408C60.264 39.8803 60.776 40.3923 60.776 42.2483V45.0643C60.776 47.6243 61.8 48.6483 64.04 48.6483C66.28 48.6483 67.304 47.6883 67.304 45.3843V44.1683C67.304 42.3763 66.92 41.4803 64.552 39.3683L56.872 32.5203C52.584 28.7443 51.688 26.5683 51.688 22.2803V20.8723C51.688 12.8083 54.76 8.32826 64.04 8.32826C73.32 8.32826 76.392 12.1043 76.392 22.4083V23.6883C76.392 25.5443 75.88 26.0563 74.024 26.0563H69.672C67.816 26.0563 67.304 25.5443 67.304 23.6883V20.8723C67.304 18.3123 66.28 17.2883 64.04 17.2883C61.8 17.2883 60.776 18.2483 60.776 20.5523V21.6403C60.776 23.4963 61.16 24.3923 62.952 26.0563ZM105.108 41.6083V43.5283C105.108 53.8323 102.164 57.6083 92.884 57.6083C83.604 57.6083 80.532 53.8323 80.532 43.5283V22.4083C80.532 12.1043 83.604 8.32826 92.884 8.32826C102.164 8.32826 105.108 12.1043 105.108 22.4083V24.3283C105.108 26.1843 104.596 26.6963 102.74 26.6963H98.644C96.788 26.6963 96.276 26.1843 96.276 24.3283V20.8723C96.276 18.3123 95.188 17.2883 92.948 17.2883C90.708 17.2883 89.62 18.3123 89.62 20.8723V45.0643C89.62 47.6243 90.708 48.6483 92.948 48.6483C95.188 48.6483 96.276 47.6243 96.276 45.0643V41.6083C96.276 39.7523 96.788 39.2403 98.644 39.2403H102.74C104.596 39.2403 105.108 39.7523 105.108 41.6083ZM134.001 42.8883C134.001 53.7043 130.929 57.6083 121.649 57.6083C112.369 57.6083 109.297 53.7043 109.297 42.8883V23.0483C109.297 12.2963 112.369 8.32826 121.649 8.32826C130.929 8.32826 134.001 12.2963 134.001 23.0483V42.8883ZM118.385 45.0643C118.385 47.6243 119.409 48.6483 121.649 48.6483C123.889 48.6483 124.913 47.6243 124.913 45.0643V21.1923C124.913 18.3763 123.889 17.2883 121.649 17.2883C119.409 17.2883 118.385 18.3763 118.385 21.1923V45.0643ZM148.482 56.9683C144.77 56.9683 143.874 56.2643 143.17 52.9363L138.434 30.6643C137.73 27.2083 137.666 25.6723 137.666 22.4723V11.3363C137.666 9.48026 138.178 8.96826 140.034 8.96826H144.13C145.986 8.96826 146.498 9.48026 146.498 11.3363V25.0323C146.498 25.9283 146.562 26.7603 146.69 27.7203L149.378 43.8483C149.506 44.6163 149.698 44.8083 150.274 44.8083C150.85 44.8083 151.042 44.6163 151.17 43.8483L153.858 27.7203C153.986 26.7603 154.05 25.9283 154.05 25.0323V11.3363C154.05 9.48026 154.562 8.96826 156.418 8.96826H160.514C162.37 8.96826 162.882 9.48026 162.882 11.3363V22.4723C162.882 25.1603 162.946 26.8243 162.114 30.6643L157.378 52.9363C156.674 56.2643 155.778 56.9683 152.066 56.9683H148.482ZM176.299 19.0803V26.2483C176.299 27.0803 176.555 27.4003 177.451 27.4003H185.387C187.243 27.4003 187.755 27.9123 187.755 29.7683V33.9923C187.755 35.8483 187.243 36.3603 185.515 36.3603H177.451C176.555 36.3603 176.299 36.6163 176.299 37.5123V46.8563C176.299 47.6883 176.555 48.0083 177.451 48.0083H186.155C188.011 48.0083 188.523 48.5203 188.523 50.3763V54.6003C188.523 56.4563 188.011 56.9683 186.155 56.9683H169.835C167.979 56.9683 167.467 56.4563 167.467 54.6003V11.3363C167.467 9.48026 167.979 8.96826 169.835 8.96826H186.155C188.011 8.96826 188.523 9.48026 188.523 11.3363V15.5603C188.523 17.4163 188.011 17.9283 186.155 17.9283H177.451C176.555 17.9283 176.299 18.1843 176.299 19.0803ZM209.232 54.6003V47.1123C209.232 44.8723 209.104 44.1683 208.144 42.4403L206.608 39.6883C205.904 38.5363 205.52 38.3443 204.368 38.3443H203.216C202.32 38.3443 202.064 38.6003 202.064 39.4963V54.6003C202.064 56.4563 201.552 56.9683 199.696 56.9683H195.6C193.744 56.9683 193.232 56.4563 193.232 54.6003V11.3363C193.232 9.48026 193.744 8.96826 195.6 8.96826H204.048C213.776 8.96826 218.192 12.2963 218.192 20.4883V25.0963C218.192 29.7043 217.488 32.7123 214.864 34.8243C214.544 35.0163 214.48 35.2083 214.48 35.4003C214.48 35.5923 214.544 35.7843 214.736 36.1043L216.528 39.3683C217.872 41.8643 218.064 42.8883 218.064 46.2803V54.6003C218.064 56.4563 217.552 56.9683 215.696 56.9683H211.6C209.744 56.9683 209.232 56.4563 209.232 54.6003ZM202.064 18.7603V28.4243C202.064 29.3203 202.32 29.5763 203.216 29.5763H204.56C207.568 29.5763 209.104 28.2323 209.104 25.1603V21.8323C209.104 18.8243 207.696 17.6083 204.56 17.6083H203.216C202.32 17.6083 202.064 17.8643 202.064 18.7603ZM253.579 17.9283H249.611C248.715 17.9283 248.459 18.1843 248.459 19.0803V54.6003C248.459 56.4563 247.947 56.9683 246.091 56.9683H241.995C240.139 56.9683 239.627 56.4563 239.627 54.6003V19.0803C239.627 18.1843 239.371 17.9283 238.475 17.9283H234.507C232.651 17.9283 232.139 17.4163 232.139 15.5603V11.3363C232.139 9.48026 232.651 8.96826 234.507 8.96826H253.579C255.435 8.96826 255.947 9.48026 255.947 11.3363V15.5603C255.947 17.4163 255.435 17.9283 253.579 17.9283ZM274.973 54.6003V37.3203C274.973 36.4243 274.717 36.1683 273.821 36.1683H268.573C267.677 36.1683 267.421 36.4243 267.421 37.3203V54.6003C267.421 56.4563 266.909 56.9683 265.053 56.9683H260.957C259.101 56.9683 258.589 56.4563 258.589 54.6003V11.3363C258.589 9.48026 259.101 8.96826 260.957 8.96826H265.053C266.909 8.96826 267.421 9.48026 267.421 11.3363V26.0563C267.421 26.8883 267.677 27.2083 268.573 27.2083H273.821C274.717 27.2083 274.973 26.8883 274.973 26.0563V11.3363C274.973 9.48026 275.485 8.96826 277.341 8.96826H281.437C283.293 8.96826 283.805 9.48026 283.805 11.3363V54.6003C283.805 56.4563 283.293 56.9683 281.437 56.9683H277.341C275.485 56.9683 274.973 56.4563 274.973 54.6003ZM299.124 19.0803V26.2483C299.124 27.0803 299.38 27.4003 300.276 27.4003H308.212C310.068 27.4003 310.58 27.9123 310.58 29.7683V33.9923C310.58 35.8483 310.068 36.3603 308.34 36.3603H300.276C299.38 36.3603 299.124 36.6163 299.124 37.5123V46.8563C299.124 47.6883 299.38 48.0083 300.276 48.0083H308.98C310.836 48.0083 311.348 48.5203 311.348 50.3763V54.6003C311.348 56.4563 310.836 56.9683 308.98 56.9683H292.66C290.804 56.9683 290.292 56.4563 290.292 54.6003V11.3363C290.292 9.48026 290.804 8.96826 292.66 8.96826H308.98C310.836 8.96826 311.348 9.48026 311.348 11.3363V15.5603C311.348 17.4163 310.836 17.9283 308.98 17.9283H300.276C299.38 17.9283 299.124 18.1843 299.124 19.0803ZM336.092 46.9843C336.092 47.7523 336.348 48.0083 337.244 48.0083H345.244C347.1 48.0083 347.612 48.5203 347.612 50.3763V54.6003C347.612 56.4563 347.1 56.9683 345.244 56.9683H329.628C327.772 56.9683 327.26 56.4563 327.26 54.6003V11.3363C327.26 9.48026 327.772 8.96826 329.628 8.96826H333.724C335.58 8.96826 336.092 9.48026 336.092 11.3363V46.9843ZM358.95 54.6003C358.95 56.4563 358.438 56.9683 356.582 56.9683H352.486C350.63 56.9683 350.118 56.4563 350.118 54.6003V38.2163C350.118 35.4003 350.246 34.2483 351.014 31.6883L356.838 12.1683C357.606 9.48026 358.246 8.96826 361.574 8.96826H363.878C367.206 8.96826 367.846 9.48026 368.614 12.1683L374.438 31.6883C375.206 34.1843 375.334 35.4003 375.334 38.2163V54.6003C375.334 56.4563 374.822 56.9683 372.966 56.9683H368.87C367.014 56.9683 366.502 56.4563 366.502 54.6003V46.1523C366.502 45.2563 366.246 45.0003 365.35 45.0003H360.102C359.206 45.0003 358.95 45.2563 358.95 46.1523V54.6003ZM365.542 36.0403C366.246 36.0403 366.63 35.7843 366.63 35.2083C366.63 34.8883 366.566 34.5683 366.502 34.2483L363.558 21.8963C363.43 21.2563 363.302 21.1283 362.726 21.1283C362.15 21.1283 362.022 21.2563 361.894 21.8963L358.95 34.2483C358.886 34.5683 358.822 34.8883 358.822 35.2083C358.822 35.7843 359.206 36.0403 359.91 36.0403H365.542ZM395.98 24.7763C396.3 25.3523 396.428 25.4803 396.812 25.4803C397.196 25.4803 397.324 25.2883 397.324 24.8403V11.3363C397.324 9.48026 397.836 8.96826 399.692 8.96826H403.596C405.452 8.96826 405.964 9.48026 405.964 11.3363V54.6003C405.964 56.4563 405.452 56.9683 403.596 56.9683H399.692C397.836 56.9683 397.324 56.4563 397.324 54.6003V45.8323C397.324 42.8243 396.876 41.7363 395.788 39.6883L389.836 28.6163C389.516 28.0403 389.388 27.9123 389.004 27.9123C388.62 27.9123 388.492 28.1043 388.492 28.5523V54.6003C388.492 56.4563 387.98 56.9683 386.124 56.9683H382.22C380.364 56.9683 379.852 56.4563 379.852 54.6003V11.3363C379.852 9.48026 380.364 8.96826 382.22 8.96826H384.716C387.084 8.96826 387.98 9.35226 389.324 11.9763L395.98 24.7763ZM422.605 8.96826C434.893 8.96826 437.389 13.4483 437.389 24.3283V41.6083C437.389 52.4883 434.893 56.9683 422.605 56.9683H414.797C412.941 56.9683 412.429 56.4563 412.429 54.6003V11.3363C412.429 9.48026 412.941 8.96826 414.797 8.96826H422.605ZM422.413 17.9283C421.517 17.9283 421.261 18.1843 421.261 19.0803V46.8563C421.261 47.6883 421.517 48.0083 422.413 48.0083H423.117C426.701 48.0083 428.301 46.3443 428.301 42.1843V23.7523C428.301 19.5923 426.701 17.9283 423.117 17.9283H422.413ZM478.023 42.8883C478.023 53.7043 474.951 57.6083 465.671 57.6083C456.391 57.6083 453.319 53.7043 453.319 42.8883V23.0483C453.319 12.2963 456.391 8.32826 465.671 8.32826C474.951 8.32826 478.023 12.2963 478.023 23.0483V42.8883ZM462.407 45.0643C462.407 47.6243 463.431 48.6483 465.671 48.6483C467.911 48.6483 468.935 47.6243 468.935 45.0643V21.1923C468.935 18.3763 467.911 17.2883 465.671 17.2883C463.431 17.2883 462.407 18.3763 462.407 21.1923V45.0643ZM492.682 38.6643V54.6003C492.682 56.4563 492.17 56.9683 490.314 56.9683H486.218C484.362 56.9683 483.85 56.4563 483.85 54.6003V11.3363C483.85 9.48026 484.362 8.96826 486.218 8.96826H503.434C505.29 8.96826 505.802 9.48026 505.802 11.3363V15.5603C505.802 17.4163 505.29 17.9283 503.434 17.9283H493.834C492.938 17.9283 492.682 18.1843 492.682 19.0803V27.4003C492.682 28.2323 492.938 28.5523 493.834 28.5523H500.746C502.602 28.5523 503.114 29.0643 503.114 30.9203V35.1443C503.114 37.0003 502.602 37.5123 500.874 37.5123H493.834C492.938 37.5123 492.682 37.7683 492.682 38.6643Z" fill="#0E2C5E"/>
<path d="M30.408 104.184V217.752C30.408 222.624 29.064 223.968 24.192 223.968H13.44C8.568 223.968 7.224 222.624 7.224 217.752V104.184C7.224 99.3123 8.568 97.9683 13.44 97.9683H24.192C29.064 97.9683 30.408 99.3123 30.408 104.184ZM84.5906 139.464C85.4306 140.976 85.7666 141.312 86.7746 141.312C87.7826 141.312 88.1186 140.808 88.1186 139.632V104.184C88.1186 99.3123 89.4626 97.9683 94.3346 97.9683H104.583C109.455 97.9683 110.799 99.3123 110.799 104.184V217.752C110.799 222.624 109.455 223.968 104.583 223.968H94.3346C89.4626 223.968 88.1186 222.624 88.1186 217.752V194.736C88.1186 186.84 86.9426 183.984 84.0866 178.608L68.4626 149.544C67.6226 148.032 67.2866 147.696 66.2786 147.696C65.2706 147.696 64.9346 148.2 64.9346 149.376V217.752C64.9346 222.624 63.5906 223.968 58.7186 223.968H48.4706C43.5986 223.968 42.2546 222.624 42.2546 217.752V104.184C42.2546 99.3123 43.5986 97.9683 48.4706 97.9683H55.0226C61.2386 97.9683 63.5906 98.9763 67.1186 105.864L84.5906 139.464ZM165.067 139.464C165.907 140.976 166.243 141.312 167.251 141.312C168.259 141.312 168.595 140.808 168.595 139.632V104.184C168.595 99.3123 169.939 97.9683 174.811 97.9683H185.059C189.931 97.9683 191.275 99.3123 191.275 104.184V217.752C191.275 222.624 189.931 223.968 185.059 223.968H174.811C169.939 223.968 168.595 222.624 168.595 217.752V194.736C168.595 186.84 167.419 183.984 164.563 178.608L148.939 149.544C148.099 148.032 147.763 147.696 146.755 147.696C145.747 147.696 145.411 148.2 145.411 149.376V217.752C145.411 222.624 144.067 223.968 139.195 223.968H128.947C124.075 223.968 122.731 222.624 122.731 217.752V104.184C122.731 99.3123 124.075 97.9683 128.947 97.9683H135.499C141.715 97.9683 144.067 98.9763 147.595 105.864L165.067 139.464ZM266.375 187.008C266.375 215.4 258.311 225.648 233.951 225.648C209.59 225.648 201.526 215.4 201.526 187.008V134.928C201.526 106.704 209.59 96.2883 233.951 96.2883C258.311 96.2883 266.375 106.704 266.375 134.928V187.008ZM225.383 192.72C225.383 199.44 228.071 202.128 233.951 202.128C239.83 202.128 242.518 199.44 242.518 192.72V130.056C242.518 122.664 239.83 119.808 233.951 119.808C228.071 119.808 225.383 122.664 225.383 130.056V192.72ZM299.347 223.968C289.603 223.968 287.251 222.12 285.403 213.384L272.971 154.92C271.123 145.848 270.955 141.816 270.955 133.416V104.184C270.955 99.3123 272.299 97.9683 277.171 97.9683H287.923C292.795 97.9683 294.139 99.3123 294.139 104.184V140.136C294.139 142.488 294.307 144.672 294.643 147.192L301.699 189.528C302.035 191.544 302.539 192.048 304.051 192.048C305.563 192.048 306.067 191.544 306.403 189.528L313.459 147.192C313.795 144.672 313.963 142.488 313.963 140.136V104.184C313.963 99.3123 315.307 97.9683 320.179 97.9683H330.931C335.803 97.9683 337.147 99.3123 337.147 104.184V133.416C337.147 140.472 337.315 144.84 335.131 154.92L322.699 213.384C320.851 222.12 318.499 223.968 308.755 223.968H299.347ZM362.158 217.752C362.158 222.624 360.814 223.968 355.942 223.968H345.19C340.318 223.968 338.974 222.624 338.974 217.752V174.744C338.974 167.352 339.31 164.328 341.326 157.608L356.614 106.368C358.63 99.3123 360.31 97.9683 369.046 97.9683H375.094C383.83 97.9683 385.51 99.3123 387.526 106.368L402.814 157.608C404.83 164.16 405.166 167.352 405.166 174.744V217.752C405.166 222.624 403.822 223.968 398.95 223.968H388.198C383.326 223.968 381.982 222.624 381.982 217.752V195.576C381.982 193.224 381.31 192.552 378.958 192.552H365.182C362.83 192.552 362.158 193.224 362.158 195.576V217.752ZM379.462 169.032C381.31 169.032 382.318 168.36 382.318 166.848C382.318 166.008 382.15 165.168 381.982 164.328L374.254 131.904C373.918 130.224 373.582 129.888 372.07 129.888C370.558 129.888 370.222 130.224 369.886 131.904L362.158 164.328C361.99 165.168 361.822 166.008 361.822 166.848C361.822 168.36 362.83 169.032 364.678 169.032H379.462ZM456.46 121.488H446.044C443.692 121.488 443.02 122.16 443.02 124.512V217.752C443.02 222.624 441.676 223.968 436.804 223.968H426.052C421.18 223.968 419.836 222.624 419.836 217.752V124.512C419.836 122.16 419.164 121.488 416.812 121.488H406.396C401.524 121.488 400.18 120.144 400.18 115.272V104.184C400.18 99.3123 401.524 97.9683 406.396 97.9683H456.46C461.332 97.9683 462.676 99.3123 462.676 104.184V115.272C462.676 120.144 461.332 121.488 456.46 121.488ZM487.755 104.184V217.752C487.755 222.624 486.411 223.968 481.539 223.968H470.787C465.915 223.968 464.571 222.624 464.571 217.752V104.184C464.571 99.3123 465.915 97.9683 470.787 97.9683H481.539C486.411 97.9683 487.755 99.3123 487.755 104.184ZM562.77 187.008C562.77 215.4 554.706 225.648 530.346 225.648C505.986 225.648 497.922 215.4 497.922 187.008V134.928C497.922 106.704 505.986 96.2883 530.346 96.2883C554.706 96.2883 562.77 106.704 562.77 134.928V187.008ZM521.778 192.72C521.778 199.44 524.466 202.128 530.346 202.128C536.226 202.128 538.914 199.44 538.914 192.72V130.056C538.914 122.664 536.226 119.808 530.346 119.808C524.466 119.808 521.778 122.664 521.778 130.056V192.72ZM615.359 139.464C616.199 140.976 616.535 141.312 617.543 141.312C618.551 141.312 618.887 140.808 618.887 139.632V104.184C618.887 99.3123 620.231 97.9683 625.103 97.9683H635.351C640.223 97.9683 641.567 99.3123 641.567 104.184V217.752C641.567 222.624 640.223 223.968 635.351 223.968H625.103C620.231 223.968 618.887 222.624 618.887 217.752V194.736C618.887 186.84 617.711 183.984 614.855 178.608L599.231 149.544C598.391 148.032 598.055 147.696 597.047 147.696C596.039 147.696 595.703 148.2 595.703 149.376V217.752C595.703 222.624 594.359 223.968 589.487 223.968H579.239C574.367 223.968 573.023 222.624 573.023 217.752V104.184C573.023 99.3123 574.367 97.9683 579.239 97.9683H585.791C592.007 97.9683 594.359 98.9763 597.887 105.864L615.359 139.464Z" fill="#0E2C5E"/>
<path d="M656.613 271.212C570.655 270.575 484.681 270.383 398.715 270.65C355.906 270.782 313.088 271.236 270.279 271.049C227.834 270.861 185.397 270.32 142.952 270.081C96.0881 269.818 49.1502 269.905 2.386 271.574C-0.78291 271.686 -0.807732 274.08 2.386 273.964C86.3414 270.965 170.76 272.765 254.831 273.347C297.583 273.646 340.334 273.247 383.086 273.092C426.077 272.933 469.076 272.885 512.068 272.952C560.247 273.028 608.434 273.243 656.605 273.602C659.798 273.626 659.798 271.236 656.605 271.212H656.613Z" fill="#84CCF5"/>
<path d="M78.156 327.692V301.772C78.156 301.1 77.964 300.908 77.292 300.908H75.42C74.028 300.908 73.644 300.524 73.644 299.132V295.244C73.644 293.852 74.028 293.468 75.42 293.468H83.004C84.396 293.468 84.78 293.852 84.78 295.244V327.692C84.78 329.084 84.396 329.468 83.004 329.468H79.932C78.54 329.468 78.156 329.084 78.156 327.692ZM100.388 315.356C100.388 315.212 100.34 315.164 100.244 315.164C100.148 315.164 100.052 315.212 99.9075 315.308C98.9955 315.932 97.9875 316.316 95.9715 316.316C91.4115 316.316 88.6755 313.724 88.6755 306.908V302.828C88.6755 295.868 91.2195 292.988 97.9395 292.988C104.9 292.988 107.204 295.916 107.204 304.028V318.908C107.204 327.02 104.9 329.948 98.0355 329.948C91.4115 329.948 88.8675 327.068 88.8675 320.108V319.916C88.8675 318.524 89.2515 318.14 90.6435 318.14H93.6195C95.0115 318.14 95.3955 318.524 95.3955 319.916V321.02C95.3955 322.604 96.2115 323.228 97.8915 323.228C99.6195 323.228 100.388 322.46 100.388 320.54V315.356ZM95.4915 302.396V306.908C95.4915 308.828 96.2595 309.596 97.9395 309.596C99.6195 309.596 100.388 308.828 100.388 306.908V302.396C100.388 300.476 99.6195 299.708 97.9395 299.708C96.2595 299.708 95.4915 300.476 95.4915 302.396ZM129.816 313.292C129.816 314.684 129.432 315.068 128.136 315.068H119.736C118.44 315.068 118.056 314.684 118.056 313.292V311.612C118.056 310.22 118.44 309.836 119.832 309.836H128.04C129.432 309.836 129.816 310.22 129.816 311.612V313.292ZM148.205 321.884C147.821 322.508 147.965 322.988 148.781 322.988H156.269C157.661 322.988 158.045 323.372 158.045 324.764V327.692C158.045 329.084 157.661 329.468 156.269 329.468H141.965C140.573 329.468 140.189 329.084 140.189 327.692V324.236C140.189 322.94 140.285 322.316 140.813 321.5L149.213 308.636C150.509 306.668 151.229 304.268 151.229 302.54C151.229 300.428 150.557 299.708 148.781 299.708C147.101 299.708 146.333 300.476 146.333 302.396V304.988C146.333 306.38 145.949 306.764 144.557 306.764H141.581C140.189 306.764 139.805 306.38 139.805 304.988V303.548C139.805 296.06 142.109 292.988 148.781 292.988C155.549 292.988 158.045 296.108 158.045 302.348C158.045 305.036 157.085 307.964 155.069 311.084L148.205 321.884ZM167.735 307.58C167.735 307.724 167.783 307.772 167.879 307.772C167.975 307.772 168.071 307.724 168.215 307.628C169.127 307.004 170.135 306.62 172.151 306.62C176.711 306.62 179.447 309.212 179.447 316.028V320.108C179.447 327.068 176.903 329.948 170.183 329.948C163.223 329.948 160.919 327.02 160.919 318.908V304.028C160.919 295.916 163.223 292.988 170.087 292.988C176.711 292.988 179.255 295.868 179.255 302.828V303.02C179.255 304.412 178.871 304.796 177.479 304.796H174.503C173.111 304.796 172.727 304.412 172.727 303.02V301.916C172.727 300.332 171.911 299.708 170.231 299.708C168.503 299.708 167.735 300.476 167.735 302.396V307.58ZM172.631 320.54V316.028C172.631 314.108 171.863 313.34 170.183 313.34C168.503 313.34 167.735 314.108 167.735 316.028V320.54C167.735 322.46 168.503 323.228 170.183 323.228C171.863 323.228 172.631 322.46 172.631 320.54ZM208.971 318.908C208.971 327.02 206.667 329.948 199.707 329.948C192.747 329.948 190.443 327.02 190.443 318.908V304.028C190.443 295.964 192.747 292.988 199.707 292.988C206.667 292.988 208.971 295.964 208.971 304.028V318.908ZM197.259 320.54C197.259 322.46 198.027 323.228 199.707 323.228C201.387 323.228 202.155 322.46 202.155 320.54V302.636C202.155 300.524 201.387 299.708 199.707 299.708C198.027 299.708 197.259 300.524 197.259 302.636V320.54ZM230.579 317.948V319.388C230.579 327.116 228.371 329.948 221.411 329.948C214.451 329.948 212.146 327.116 212.146 319.388V303.548C212.146 295.82 214.451 292.988 221.411 292.988C228.371 292.988 230.579 295.82 230.579 303.548V304.988C230.579 306.38 230.195 306.764 228.803 306.764H225.731C224.339 306.764 223.955 306.38 223.955 304.988V302.396C223.955 300.476 223.139 299.708 221.459 299.708C219.779 299.708 218.963 300.476 218.963 302.396V320.54C218.963 322.46 219.779 323.228 221.459 323.228C223.139 323.228 223.955 322.46 223.955 320.54V317.948C223.955 316.556 224.339 316.172 225.731 316.172H228.803C230.195 316.172 230.579 316.556 230.579 317.948ZM247.646 300.188H244.67C243.998 300.188 243.806 300.38 243.806 301.052V327.692C243.806 329.084 243.422 329.468 242.03 329.468H238.958C237.566 329.468 237.182 329.084 237.182 327.692V301.052C237.182 300.38 236.99 300.188 236.318 300.188H233.342C231.95 300.188 231.566 299.804 231.566 298.412V295.244C231.566 293.852 231.95 293.468 233.342 293.468H247.646C249.038 293.468 249.422 293.852 249.422 295.244V298.412C249.422 299.804 249.038 300.188 247.646 300.188ZM268.971 318.908C268.971 327.02 266.667 329.948 259.707 329.948C252.747 329.948 250.443 327.02 250.443 318.908V304.028C250.443 295.964 252.747 292.988 259.707 292.988C266.667 292.988 268.971 295.964 268.971 304.028V318.908ZM257.259 320.54C257.259 322.46 258.027 323.228 259.707 323.228C261.387 323.228 262.155 322.46 262.155 320.54V302.636C262.155 300.524 261.387 299.708 259.707 299.708C258.027 299.708 257.259 300.524 257.259 302.636V320.54ZM274.637 329.468C273.245 329.468 272.861 329.084 272.861 327.692V295.244C272.861 293.852 273.245 293.468 274.637 293.468H281.453C288.413 293.468 291.581 296.06 291.581 301.868V304.652C291.581 307.148 290.765 308.924 289.085 310.46C288.941 310.604 288.893 310.652 288.893 310.748C288.893 310.844 288.941 310.892 289.085 311.036C290.909 312.524 291.821 314.108 291.821 316.652V321.308C291.821 326.876 288.509 329.468 281.213 329.468H274.637ZM279.485 301.052V306.572C279.485 307.244 279.677 307.436 280.349 307.436H281.357C283.709 307.436 284.765 306.62 284.765 304.508V303.116C284.765 301.004 283.709 300.188 281.357 300.188H280.349C279.677 300.188 279.485 300.38 279.485 301.052ZM281.597 322.748C283.949 322.748 285.005 321.932 285.005 319.82V317.084C285.005 314.972 283.949 314.156 281.597 314.156H280.349C279.677 314.156 279.485 314.348 279.485 315.02V321.884C279.485 322.556 279.677 322.748 280.349 322.748H281.597ZM301.704 301.052V306.428C301.704 307.052 301.896 307.292 302.568 307.292H308.52C309.912 307.292 310.296 307.676 310.296 309.068V312.236C310.296 313.628 309.912 314.012 308.616 314.012H302.568C301.896 314.012 301.704 314.204 301.704 314.876V321.884C301.704 322.508 301.896 322.748 302.568 322.748H309.096C310.488 322.748 310.872 323.132 310.872 324.524V327.692C310.872 329.084 310.488 329.468 309.096 329.468H296.856C295.464 329.468 295.08 329.084 295.08 327.692V295.244C295.08 293.852 295.464 293.468 296.856 293.468H309.096C310.488 293.468 310.872 293.852 310.872 295.244V298.412C310.872 299.804 310.488 300.188 309.096 300.188H302.568C301.896 300.188 301.704 300.38 301.704 301.052ZM325.923 327.692V322.076C325.923 320.396 325.827 319.868 325.107 318.572L323.955 316.508C323.427 315.644 323.139 315.5 322.275 315.5H321.411C320.739 315.5 320.547 315.692 320.547 316.364V327.692C320.547 329.084 320.163 329.468 318.771 329.468H315.699C314.307 329.468 313.923 329.084 313.923 327.692V295.244C313.923 293.852 314.307 293.468 315.699 293.468H322.035C329.331 293.468 332.643 295.964 332.643 302.108V305.564C332.643 309.02 332.115 311.276 330.147 312.86C329.907 313.004 329.859 313.148 329.859 313.292C329.859 313.436 329.907 313.58 330.051 313.82L331.395 316.268C332.403 318.14 332.547 318.908 332.547 321.452V327.692C332.547 329.084 332.163 329.468 330.771 329.468H327.699C326.307 329.468 325.923 329.084 325.923 327.692ZM320.547 300.812V308.06C320.547 308.732 320.739 308.924 321.411 308.924H322.419C324.675 308.924 325.827 307.916 325.827 305.612V303.116C325.827 300.86 324.771 299.948 322.419 299.948H321.411C320.739 299.948 320.547 300.14 320.547 300.812ZM337.63 329.756C337.726 329.516 337.678 329.42 337.438 329.372C335.758 329.18 335.278 328.22 335.278 326.54V325.292C335.278 323.372 336.286 322.364 338.206 322.364H339.454C341.422 322.364 342.382 323.372 342.382 325.292V326.78C342.382 327.932 342.238 328.652 341.662 329.708L339.886 333.02C339.55 333.644 339.406 333.74 338.734 333.74H337.15C336.67 333.74 336.478 333.596 336.478 333.26C336.478 333.116 336.526 332.972 336.622 332.684L337.63 329.756ZM360.971 321.884C360.587 322.508 360.731 322.988 361.547 322.988H369.035C370.427 322.988 370.811 323.372 370.811 324.764V327.692C370.811 329.084 370.427 329.468 369.035 329.468H354.73C353.339 329.468 352.955 329.084 352.955 327.692V324.236C352.955 322.94 353.051 322.316 353.579 321.5L361.979 308.636C363.275 306.668 363.995 304.268 363.995 302.54C363.995 300.428 363.323 299.708 361.547 299.708C359.867 299.708 359.099 300.476 359.099 302.396V304.988C359.099 306.38 358.715 306.764 357.323 306.764H354.347C352.955 306.764 352.571 306.38 352.571 304.988V303.548C352.571 296.06 354.875 292.988 361.547 292.988C368.315 292.988 370.811 296.108 370.811 302.348C370.811 305.036 369.851 307.964 367.835 311.084L360.971 321.884ZM392.213 318.908C392.213 327.02 389.909 329.948 382.949 329.948C375.989 329.948 373.685 327.02 373.685 318.908V304.028C373.685 295.964 375.989 292.988 382.949 292.988C389.909 292.988 392.213 295.964 392.213 304.028V318.908ZM385.397 302.396C385.397 300.476 384.629 299.708 382.949 299.708C381.269 299.708 380.501 300.476 380.501 302.396V320.54C380.501 322.46 381.269 323.228 382.949 323.228C384.629 323.228 385.397 322.46 385.397 320.54V302.396ZM403.486 321.884C403.102 322.508 403.246 322.988 404.062 322.988H411.55C412.942 322.988 413.326 323.372 413.326 324.764V327.692C413.326 329.084 412.942 329.468 411.55 329.468H397.246C395.854 329.468 395.47 329.084 395.47 327.692V324.236C395.47 322.94 395.566 322.316 396.094 321.5L404.494 308.636C405.79 306.668 406.51 304.268 406.51 302.54C406.51 300.428 405.838 299.708 404.062 299.708C402.382 299.708 401.614 300.476 401.614 302.396V304.988C401.614 306.38 401.23 306.764 399.838 306.764H396.862C395.47 306.764 395.086 306.38 395.086 304.988V303.548C395.086 296.06 397.39 292.988 404.062 292.988C410.83 292.988 413.326 296.108 413.326 302.348C413.326 305.036 412.366 307.964 410.35 311.084L403.486 321.884ZM431.56 307.772C432.952 307.772 433.336 308.156 433.336 309.548V316.652C433.336 317.276 433.528 317.468 434.2 317.468H434.68C436.072 317.468 436.456 317.852 436.456 319.244V322.46C436.456 323.804 436.024 324.188 434.68 324.188H434.2C433.528 324.188 433.336 324.332 433.336 325.004V327.692C433.336 329.084 432.952 329.468 431.56 329.468H428.488C427.096 329.468 426.712 329.084 426.712 327.692V325.052C426.712 324.38 426.52 324.188 425.848 324.188H416.584C415.192 324.188 414.808 323.804 414.808 322.412V319.772C414.808 317.9 414.952 317.276 415.432 315.74L422.2 294.86C422.536 293.756 422.968 293.468 424.504 293.468H428.2C429.544 293.468 429.64 294.092 429.304 295.196L422.872 316.604C422.68 317.324 422.824 317.468 423.352 317.468H425.848C426.52 317.468 426.712 317.276 426.712 316.604V309.548C426.712 308.156 427.096 307.772 428.488 307.772H431.56Z" fill="#F67A38"/>
<path d="M491.836 293.512L495.932 297.224C498.076 299.144 498.556 300.296 498.556 302.44V303.016C498.556 307.048 497.02 309.288 492.38 309.288C487.74 309.288 486.204 307.4 486.204 302.248V301.608C486.204 300.68 486.46 300.424 487.388 300.424H489.564C490.492 300.424 490.748 300.68 490.748 301.608V303.016C490.748 304.296 491.26 304.808 492.38 304.808C493.5 304.808 494.012 304.328 494.012 303.176V302.568C494.012 301.672 493.82 301.224 492.636 300.168L488.796 296.744C486.652 294.856 486.204 293.768 486.204 291.624V290.92C486.204 286.888 487.74 284.648 492.38 284.648C497.02 284.648 498.556 286.536 498.556 291.688V292.328C498.556 293.256 498.3 293.512 497.372 293.512H495.196C494.268 293.512 494.012 293.256 494.012 292.328V290.92C494.012 289.64 493.5 289.128 492.38 289.128C491.26 289.128 490.748 289.608 490.748 290.76V291.304C490.748 292.232 490.94 292.68 491.836 293.512ZM504.214 307.784C504.214 308.712 503.958 308.968 503.03 308.968H500.982C500.054 308.968 499.798 308.712 499.798 307.784V299.592C499.798 298.184 499.862 297.608 500.246 296.328L503.158 286.568C503.542 285.224 503.862 284.968 505.526 284.968H506.678C508.342 284.968 508.662 285.224 509.046 286.568L511.958 296.328C512.342 297.576 512.406 298.184 512.406 299.592V307.784C512.406 308.712 512.15 308.968 511.222 308.968H509.174C508.246 308.968 507.99 308.712 507.99 307.784V303.56C507.99 303.112 507.862 302.984 507.414 302.984H504.79C504.342 302.984 504.214 303.112 504.214 303.56V307.784ZM507.51 298.504C507.862 298.504 508.054 298.376 508.054 298.088C508.054 297.928 508.022 297.768 507.99 297.608L506.518 291.432C506.454 291.112 506.39 291.048 506.102 291.048C505.814 291.048 505.75 291.112 505.686 291.432L504.214 297.608C504.182 297.768 504.15 297.928 504.15 298.088C504.15 298.376 504.342 298.504 504.694 298.504H507.51ZM522.409 292.872C522.569 293.16 522.633 293.224 522.825 293.224C523.017 293.224 523.081 293.128 523.081 292.904V286.152C523.081 285.224 523.337 284.968 524.265 284.968H526.217C527.145 284.968 527.401 285.224 527.401 286.152V307.784C527.401 308.712 527.145 308.968 526.217 308.968H524.265C523.337 308.968 523.081 308.712 523.081 307.784V303.4C523.081 301.896 522.857 301.352 522.313 300.328L519.337 294.792C519.177 294.504 519.113 294.44 518.921 294.44C518.729 294.44 518.665 294.536 518.665 294.76V307.784C518.665 308.712 518.409 308.968 517.481 308.968H515.529C514.601 308.968 514.345 308.712 514.345 307.784V286.152C514.345 285.224 514.601 284.968 515.529 284.968H516.777C517.961 284.968 518.409 285.16 519.081 286.472L522.409 292.872ZM536.911 308.968H535.407C534.479 308.968 534.223 308.712 534.223 307.784V305.672C534.223 304.744 534.479 304.488 535.407 304.488H536.975C538.095 304.488 538.607 303.976 538.607 302.696V289.864C538.607 289.416 538.479 289.288 538.031 289.288H536.463C535.535 289.288 535.279 289.032 535.279 288.104V286.152C535.279 285.224 535.535 284.968 536.463 284.968H541.839C542.767 284.968 543.023 285.224 543.023 286.152V301.928C543.023 307.08 541.487 308.968 536.911 308.968ZM557.658 301.928C557.658 307.336 556.122 309.288 551.482 309.288C546.842 309.288 545.306 307.336 545.306 301.928V292.008C545.306 286.632 546.842 284.648 551.482 284.648C556.122 284.648 557.658 286.632 557.658 292.008V301.928ZM549.85 303.016C549.85 304.296 550.362 304.808 551.482 304.808C552.602 304.808 553.114 304.296 553.114 303.016V291.08C553.114 289.672 552.602 289.128 551.482 289.128C550.362 289.128 549.85 289.672 549.85 291.08V303.016ZM565.055 293.512L569.151 297.224C571.295 299.144 571.775 300.296 571.775 302.44V303.016C571.775 307.048 570.239 309.288 565.599 309.288C560.959 309.288 559.423 307.4 559.423 302.248V301.608C559.423 300.68 559.679 300.424 560.607 300.424H562.783C563.711 300.424 563.967 300.68 563.967 301.608V303.016C563.967 304.296 564.479 304.808 565.599 304.808C566.719 304.808 567.231 304.328 567.231 303.176V302.568C567.231 301.672 567.039 301.224 565.855 300.168L562.015 296.744C559.871 294.856 559.423 293.768 559.423 291.624V290.92C559.423 286.888 560.959 284.648 565.599 284.648C570.239 284.648 571.775 286.536 571.775 291.688V292.328C571.775 293.256 571.519 293.512 570.591 293.512H568.415C567.487 293.512 567.231 293.256 567.231 292.328V290.92C567.231 289.64 566.719 289.128 565.599 289.128C564.479 289.128 563.967 289.608 563.967 290.76V291.304C563.967 292.232 564.159 292.68 565.055 293.512ZM577.077 282.888L578.869 279.528C579.125 279.08 579.253 279.016 579.893 279.016H582.965C583.413 279.016 583.541 279.176 583.541 279.336C583.541 279.496 583.509 279.592 583.317 279.848L580.981 283.24C580.661 283.72 580.469 283.784 579.797 283.784H577.461C577.013 283.784 576.885 283.656 576.885 283.4C576.885 283.272 576.949 283.144 577.077 282.888ZM578.261 290.024V293.608C578.261 294.024 578.389 294.184 578.837 294.184H582.805C583.733 294.184 583.989 294.44 583.989 295.368V297.48C583.989 298.408 583.733 298.664 582.869 298.664H578.837C578.389 298.664 578.261 298.792 578.261 299.24V303.912C578.261 304.328 578.389 304.488 578.837 304.488H583.189C584.117 304.488 584.373 304.744 584.373 305.672V307.784C584.373 308.712 584.117 308.968 583.189 308.968H575.029C574.101 308.968 573.845 308.712 573.845 307.784V286.152C573.845 285.224 574.101 284.968 575.029 284.968H583.189C584.117 284.968 584.373 285.224 584.373 286.152V288.264C584.373 289.192 584.117 289.448 583.189 289.448H578.837C578.389 289.448 578.261 289.576 578.261 290.024Z" fill="#EFB73B"/>
<path d="M499.508 333.208V333.928C499.508 337.792 498.404 339.208 494.924 339.208C491.444 339.208 490.292 337.792 490.292 333.928V326.008C490.292 322.144 491.444 320.728 494.924 320.728C498.404 320.728 499.508 322.144 499.508 326.008V326.728C499.508 327.424 499.316 327.616 498.62 327.616H497.084C496.388 327.616 496.196 327.424 496.196 326.728V325.432C496.196 324.472 495.788 324.088 494.948 324.088C494.108 324.088 493.7 324.472 493.7 325.432V334.504C493.7 335.464 494.108 335.848 494.948 335.848C495.788 335.848 496.196 335.464 496.196 334.504V333.208C496.196 332.512 496.388 332.32 497.084 332.32H498.62C499.316 332.32 499.508 332.512 499.508 333.208ZM510.103 333.688C510.103 337.744 508.951 339.208 505.471 339.208C501.991 339.208 500.839 337.744 500.839 333.688V326.248C500.839 322.216 501.991 320.728 505.471 320.728C508.951 320.728 510.103 322.216 510.103 326.248V333.688ZM504.247 334.504C504.247 335.464 504.631 335.848 505.471 335.848C506.311 335.848 506.695 335.464 506.695 334.504V325.552C506.695 324.496 506.311 324.088 505.471 324.088C504.631 324.088 504.247 324.496 504.247 325.552V334.504ZM515.65 327.376L518.722 330.16C520.33 331.6 520.69 332.464 520.69 334.072V334.504C520.69 337.528 519.538 339.208 516.058 339.208C512.578 339.208 511.426 337.792 511.426 333.928V333.448C511.426 332.752 511.618 332.56 512.314 332.56H513.946C514.642 332.56 514.834 332.752 514.834 333.448V334.504C514.834 335.464 515.218 335.848 516.058 335.848C516.898 335.848 517.282 335.488 517.282 334.624V334.168C517.282 333.496 517.138 333.16 516.25 332.368L513.37 329.8C511.762 328.384 511.426 327.568 511.426 325.96V325.432C511.426 322.408 512.578 320.728 516.058 320.728C519.538 320.728 520.69 322.144 520.69 326.008V326.488C520.69 327.184 520.498 327.376 519.802 327.376H518.17C517.474 327.376 517.282 327.184 517.282 326.488V325.432C517.282 324.472 516.898 324.088 516.058 324.088C515.218 324.088 514.834 324.448 514.834 325.312V325.72C514.834 326.416 514.978 326.752 515.65 327.376ZM529.206 324.328H527.718C527.382 324.328 527.286 324.424 527.286 324.76V338.08C527.286 338.776 527.094 338.968 526.398 338.968H524.862C524.166 338.968 523.974 338.776 523.974 338.08V324.76C523.974 324.424 523.878 324.328 523.542 324.328H522.054C521.358 324.328 521.166 324.136 521.166 323.44V321.856C521.166 321.16 521.358 320.968 522.054 320.968H529.206C529.902 320.968 530.094 321.16 530.094 321.856V323.44C530.094 324.136 529.902 324.328 529.206 324.328ZM533.16 338.08C533.16 338.776 532.968 338.968 532.272 338.968H530.736C530.04 338.968 529.848 338.776 529.848 338.08V331.936C529.848 330.88 529.896 330.448 530.184 329.488L532.368 322.168C532.656 321.16 532.896 320.968 534.144 320.968H535.008C536.256 320.968 536.496 321.16 536.784 322.168L538.968 329.488C539.256 330.424 539.304 330.88 539.304 331.936V338.08C539.304 338.776 539.112 338.968 538.416 338.968H536.88C536.184 338.968 535.992 338.776 535.992 338.08V334.912C535.992 334.576 535.896 334.48 535.56 334.48H533.592C533.256 334.48 533.16 334.576 533.16 334.912V338.08ZM535.632 331.12C535.896 331.12 536.04 331.024 536.04 330.808C536.04 330.688 536.016 330.568 535.992 330.448L534.888 325.816C534.84 325.576 534.792 325.528 534.576 325.528C534.36 325.528 534.312 325.576 534.264 325.816L533.16 330.448C533.136 330.568 533.112 330.688 533.112 330.808C533.112 331.024 533.256 331.12 533.52 331.12H535.632ZM550.837 338.08V335.272C550.837 334.432 550.789 334.168 550.429 333.52L549.853 332.488C549.589 332.056 549.445 331.984 549.013 331.984H548.581C548.245 331.984 548.149 332.08 548.149 332.416V338.08C548.149 338.776 547.957 338.968 547.261 338.968H545.725C545.029 338.968 544.837 338.776 544.837 338.08V321.856C544.837 321.16 545.029 320.968 545.725 320.968H548.893C552.541 320.968 554.197 322.216 554.197 325.288V327.016C554.197 328.744 553.933 329.872 552.949 330.664C552.829 330.736 552.805 330.808 552.805 330.88C552.805 330.952 552.829 331.024 552.901 331.144L553.573 332.368C554.077 333.304 554.149 333.688 554.149 334.96V338.08C554.149 338.776 553.957 338.968 553.261 338.968H551.725C551.029 338.968 550.837 338.776 550.837 338.08ZM548.149 324.64V328.264C548.149 328.6 548.245 328.696 548.581 328.696H549.085C550.213 328.696 550.789 328.192 550.789 327.04V325.792C550.789 324.664 550.261 324.208 549.085 324.208H548.581C548.245 324.208 548.149 324.304 548.149 324.64ZM559.375 321.856V338.08C559.375 338.776 559.183 338.968 558.487 338.968H556.951C556.255 338.968 556.063 338.776 556.063 338.08V321.856C556.063 321.16 556.255 320.968 556.951 320.968H558.487C559.183 320.968 559.375 321.16 559.375 321.856ZM570.524 333.208V333.928C570.524 337.792 569.42 339.208 565.94 339.208C562.46 339.208 561.308 337.792 561.308 333.928V326.008C561.308 322.144 562.46 320.728 565.94 320.728C569.42 320.728 570.524 322.144 570.524 326.008V326.728C570.524 327.424 570.332 327.616 569.636 327.616H568.1C567.404 327.616 567.212 327.424 567.212 326.728V325.432C567.212 324.472 566.804 324.088 565.964 324.088C565.124 324.088 564.716 324.472 564.716 325.432V334.504C564.716 335.464 565.124 335.848 565.964 335.848C566.804 335.848 567.212 335.464 567.212 334.504V333.208C567.212 332.512 567.404 332.32 568.1 332.32H569.636C570.332 332.32 570.524 332.512 570.524 333.208ZM574.785 338.08C574.785 338.776 574.593 338.968 573.897 338.968H572.361C571.665 338.968 571.473 338.776 571.473 338.08V331.936C571.473 330.88 571.521 330.448 571.809 329.488L573.993 322.168C574.281 321.16 574.521 320.968 575.769 320.968H576.633C577.881 320.968 578.121 321.16 578.409 322.168L580.593 329.488C580.881 330.424 580.929 330.88 580.929 331.936V338.08C580.929 338.776 580.737 338.968 580.041 338.968H578.505C577.809 338.968 577.617 338.776 577.617 338.08V334.912C577.617 334.576 577.521 334.48 577.185 334.48H575.217C574.881 334.48 574.785 334.576 574.785 334.912V338.08ZM577.257 331.12C577.521 331.12 577.665 331.024 577.665 330.808C577.665 330.688 577.641 330.568 577.617 330.448L576.513 325.816C576.465 325.576 576.417 325.528 576.201 325.528C575.985 325.528 575.937 325.576 575.889 325.816L574.785 330.448C574.761 330.568 574.737 330.688 574.737 330.808C574.737 331.024 574.881 331.12 575.145 331.12H577.257Z" fill="#EFB73B"/>
<path d="M2.38696 351.725C88.3447 352.362 174.319 352.553 260.285 352.286C303.094 352.155 345.912 351.701 388.721 351.888C431.166 352.075 473.603 352.617 516.048 352.856C562.912 353.119 609.85 353.031 656.614 351.362C659.783 351.251 659.808 348.857 656.614 348.972C572.659 351.972 488.24 350.171 404.169 349.59C361.417 349.291 318.666 349.689 275.914 349.845C232.923 350.004 189.924 350.052 146.932 349.984C98.7533 349.908 50.566 349.693 2.39526 349.335C-0.798462 349.311 -0.798462 351.701 2.39526 351.725L2.38696 351.725Z" fill="#84CCF5"/>
</svg>
