<svg width="347" height="104" viewBox="0 0 347 104" fill="none" xmlns="http://www.w3.org/2000/svg">
<path d="M15.8379 32.3555C15.8379 31.8633 15.7617 31.4238 15.6094 31.0371C15.4688 30.6387 15.2051 30.2812 14.8184 29.9648C14.4434 29.6367 13.9102 29.3203 13.2188 29.0156C12.5391 28.6992 11.6602 28.3711 10.582 28.0312C9.38672 27.6562 8.27344 27.2344 7.24219 26.7656C6.21094 26.2969 5.30273 25.752 4.51758 25.1309C3.74414 24.5098 3.14062 23.7949 2.70703 22.9863C2.27344 22.166 2.05664 21.2168 2.05664 20.1387C2.05664 19.084 2.2793 18.123 2.72461 17.2559C3.18164 16.3887 3.82617 15.6445 4.6582 15.0234C5.49023 14.3906 6.46875 13.9043 7.59375 13.5645C8.73047 13.2246 9.98438 13.0547 11.3555 13.0547C13.2539 13.0547 14.8945 13.4004 16.2773 14.0918C17.6719 14.7832 18.75 15.7207 19.5117 16.9043C20.2734 18.0879 20.6543 19.418 20.6543 20.8945H15.8379C15.8379 20.0977 15.668 19.3945 15.3281 18.7852C15 18.1758 14.4961 17.6953 13.8164 17.3438C13.1484 16.9922 12.3047 16.8164 11.2852 16.8164C10.3008 16.8164 9.48047 16.9629 8.82422 17.2559C8.17969 17.5488 7.69336 17.9473 7.36523 18.4512C7.04883 18.9551 6.89062 19.5176 6.89062 20.1387C6.89062 20.6074 7.00195 21.0293 7.22461 21.4043C7.44727 21.7676 7.78125 22.1133 8.22656 22.4414C8.67188 22.7578 9.22266 23.0566 9.87891 23.3379C10.5469 23.6074 11.3203 23.877 12.1992 24.1465C13.6055 24.5684 14.8359 25.0371 15.8906 25.5527C16.957 26.0684 17.8418 26.6543 18.5449 27.3105C19.2598 27.9668 19.793 28.7051 20.1445 29.5254C20.5078 30.3457 20.6895 31.2773 20.6895 32.3203C20.6895 33.4219 20.4727 34.4062 20.0391 35.2734C19.6055 36.1406 18.9844 36.8789 18.1758 37.4883C17.3672 38.0977 16.3945 38.5605 15.2578 38.877C14.1328 39.1934 12.873 39.3516 11.4785 39.3516C10.2363 39.3516 9.00586 39.1875 7.78711 38.8594C6.58008 38.5195 5.48438 38.0156 4.5 37.3477C3.51562 36.668 2.73047 35.8125 2.14453 34.7812C1.55859 33.7383 1.26562 32.5195 1.26562 31.125H6.11719C6.11719 31.9336 6.24609 32.625 6.50391 33.1992C6.77344 33.7617 7.14844 34.2246 7.62891 34.5879C8.12109 34.9395 8.69531 35.1973 9.35156 35.3613C10.0078 35.5254 10.7168 35.6074 11.4785 35.6074C12.4629 35.6074 13.2715 35.4727 13.9043 35.2031C14.5488 34.9219 15.0293 34.5352 15.3457 34.043C15.6738 33.5508 15.8379 32.9883 15.8379 32.3555ZM34.901 34.957V26.1855C34.901 25.541 34.7897 24.9844 34.567 24.5156C34.3444 24.0469 34.0045 23.6836 33.5475 23.4258C33.0905 23.168 32.5104 23.0391 31.8073 23.0391C31.1862 23.0391 30.6413 23.1445 30.1725 23.3555C29.7155 23.5664 29.3639 23.8652 29.1178 24.252C28.8717 24.627 28.7487 25.0605 28.7487 25.5527H24.0905C24.0905 24.7676 24.278 24.0234 24.653 23.3203C25.028 22.6055 25.5612 21.9727 26.2526 21.4219C26.9557 20.8594 27.7936 20.4199 28.7663 20.1035C29.7506 19.7871 30.8522 19.6289 32.0709 19.6289C33.5123 19.6289 34.7955 19.875 35.9205 20.3672C37.0573 20.8477 37.9479 21.5742 38.5924 22.5469C39.2487 23.5195 39.5768 24.7441 39.5768 26.2207V34.5176C39.5768 35.4668 39.6354 36.2812 39.7526 36.9609C39.8815 37.6289 40.069 38.209 40.3151 38.7012V39H35.5866C35.3639 38.5195 35.194 37.9102 35.0768 37.1719C34.9596 36.4219 34.901 35.6836 34.901 34.957ZM35.5514 27.416L35.5866 30.1758H32.651C31.9245 30.1758 31.2858 30.252 30.735 30.4043C30.1842 30.5449 29.733 30.7559 29.3815 31.0371C29.0299 31.3066 28.7663 31.6348 28.5905 32.0215C28.4147 32.3965 28.3268 32.8242 28.3268 33.3047C28.3268 33.7734 28.4323 34.1953 28.6432 34.5703C28.8659 34.9453 29.1823 35.2441 29.5924 35.4668C30.0143 35.6777 30.5065 35.7832 31.069 35.7832C31.8893 35.7832 32.6041 35.6191 33.2135 35.291C33.8229 34.9512 34.2975 34.541 34.6373 34.0605C34.9772 33.5801 35.1588 33.123 35.1823 32.6895L36.5182 34.6934C36.3541 35.1738 36.108 35.6836 35.7799 36.2227C35.4518 36.7617 35.0299 37.2656 34.5143 37.7344C33.9987 38.2031 33.3776 38.5898 32.651 38.8945C31.9245 39.1992 31.0807 39.3516 30.1198 39.3516C28.8893 39.3516 27.7877 39.1055 26.8151 38.6133C25.8424 38.1211 25.0748 37.4473 24.5123 36.5918C23.9498 35.7363 23.6686 34.7637 23.6686 33.6738C23.6686 32.666 23.8561 31.7754 24.2311 31.002C24.6061 30.2285 25.1627 29.5781 25.901 29.0508C26.6393 28.5117 27.5534 28.1074 28.6432 27.8379C29.7448 27.5566 31.0045 27.416 32.4225 27.416H35.5514ZM48.6731 24.041V39H44.0325V19.9805H48.3919L48.6731 24.041ZM47.9348 28.8047H46.5638C46.5755 27.4219 46.763 26.168 47.1263 25.043C47.4895 23.918 47.9993 22.9512 48.6555 22.1426C49.3235 21.334 50.1145 20.7129 51.0286 20.2793C51.9427 19.8457 52.9622 19.6289 54.0872 19.6289C55.0013 19.6289 55.8274 19.7578 56.5657 20.0156C57.304 20.2734 57.9368 20.6836 58.4641 21.2461C59.0032 21.8086 59.4134 22.5469 59.6946 23.4609C59.9876 24.3633 60.1341 25.4766 60.1341 26.8008V39H55.4583V26.7656C55.4583 25.8984 55.3294 25.2129 55.0716 24.709C54.8255 24.2051 54.4622 23.8477 53.9817 23.6367C53.513 23.4258 52.9329 23.3203 52.2415 23.3203C51.5266 23.3203 50.8997 23.4668 50.3606 23.7598C49.8333 24.041 49.388 24.4336 49.0247 24.9375C48.6731 25.4414 48.4036 26.0215 48.2161 26.6777C48.0286 27.334 47.9348 28.043 47.9348 28.8047ZM84.7076 31.2305V13.4062H89.5416V31.2305C89.5416 32.9297 89.1724 34.3887 88.4341 35.6074C87.6959 36.8145 86.688 37.7402 85.4107 38.3848C84.1334 39.0293 82.692 39.3516 81.0865 39.3516C79.4341 39.3516 77.9693 39.0762 76.692 38.5254C75.4146 37.9629 74.4127 37.1074 73.6861 35.959C72.9713 34.8105 72.6138 33.3516 72.6138 31.582H77.4654C77.4654 32.543 77.6119 33.3164 77.9048 33.9023C78.1978 34.4883 78.6138 34.9102 79.1529 35.168C79.7037 35.4258 80.3482 35.5547 81.0865 35.5547C81.8013 35.5547 82.4283 35.3906 82.9673 35.0625C83.5181 34.7227 83.9459 34.2305 84.2505 33.5859C84.5552 32.9414 84.7076 32.1562 84.7076 31.2305ZM93.5227 29.6836V29.3145C93.5227 27.9199 93.7219 26.6367 94.1203 25.4648C94.5188 24.2812 95.0988 23.2559 95.8605 22.3887C96.6223 21.5215 97.5539 20.8477 98.6555 20.3672C99.757 19.875 101.011 19.6289 102.417 19.6289C103.847 19.6289 105.113 19.875 106.214 20.3672C107.327 20.8477 108.265 21.5215 109.027 22.3887C109.788 23.2559 110.368 24.2812 110.767 25.4648C111.165 26.6367 111.364 27.9199 111.364 29.3145V29.6836C111.364 31.0664 111.165 32.3496 110.767 33.5332C110.368 34.7051 109.788 35.7305 109.027 36.6094C108.265 37.4766 107.333 38.1504 106.232 38.6309C105.13 39.1113 103.87 39.3516 102.452 39.3516C101.046 39.3516 99.7863 39.1113 98.673 38.6309C97.5598 38.1504 96.6223 37.4766 95.8605 36.6094C95.0988 35.7305 94.5188 34.7051 94.1203 33.5332C93.7219 32.3496 93.5227 31.0664 93.5227 29.6836ZM98.1633 29.3145V29.6836C98.1633 30.5156 98.2453 31.2949 98.4094 32.0215C98.5734 32.748 98.8254 33.3867 99.1652 33.9375C99.5051 34.4883 99.9445 34.9219 100.484 35.2383C101.034 35.543 101.691 35.6953 102.452 35.6953C103.202 35.6953 103.847 35.543 104.386 35.2383C104.925 34.9219 105.364 34.4883 105.704 33.9375C106.056 33.3867 106.314 32.748 106.478 32.0215C106.642 31.2949 106.724 30.5156 106.724 29.6836V29.3145C106.724 28.4941 106.642 27.7266 106.478 27.0117C106.314 26.2852 106.056 25.6465 105.704 25.0957C105.364 24.5332 104.919 24.0938 104.368 23.7773C103.829 23.4492 103.179 23.2852 102.417 23.2852C101.667 23.2852 101.023 23.4492 100.484 23.7773C99.9445 24.0938 99.5051 24.5332 99.1652 25.0957C98.8254 25.6465 98.5734 26.2852 98.4094 27.0117C98.2453 27.7266 98.1633 28.4941 98.1633 29.3145ZM125.558 33.7969C125.558 33.3984 125.453 33.041 125.242 32.7246C125.031 32.4082 124.633 32.1211 124.047 31.8633C123.473 31.5938 122.629 31.3418 121.515 31.1074C120.531 30.8965 119.623 30.6328 118.791 30.3164C117.959 30 117.244 29.6191 116.646 29.1738C116.049 28.7168 115.58 28.1836 115.24 27.5742C114.912 26.9531 114.748 26.2383 114.748 25.4297C114.748 24.6445 114.918 23.9062 115.258 23.2148C115.598 22.5117 116.09 21.8965 116.734 21.3691C117.379 20.8301 118.164 20.4082 119.09 20.1035C120.015 19.7871 121.058 19.6289 122.219 19.6289C123.836 19.6289 125.224 19.8926 126.385 20.4199C127.556 20.9473 128.453 21.6738 129.074 22.5996C129.695 23.5137 130.006 24.5449 130.006 25.6934H125.365C125.365 25.1895 125.248 24.7324 125.014 24.3223C124.791 23.9121 124.445 23.584 123.976 23.3379C123.508 23.0801 122.916 22.9512 122.201 22.9512C121.556 22.9512 121.012 23.0566 120.566 23.2676C120.133 23.4785 119.805 23.7539 119.582 24.0938C119.359 24.4336 119.248 24.8086 119.248 25.2188C119.248 25.5234 119.306 25.7988 119.424 26.0449C119.553 26.2793 119.758 26.4961 120.039 26.6953C120.32 26.8945 120.701 27.0762 121.181 27.2402C121.674 27.4043 122.277 27.5625 122.992 27.7148C124.41 27.9961 125.646 28.3711 126.701 28.8398C127.767 29.2969 128.599 29.9062 129.197 30.668C129.795 31.4297 130.094 32.4023 130.094 33.5859C130.094 34.4297 129.912 35.2031 129.549 35.9062C129.185 36.5977 128.658 37.2012 127.967 37.7168C127.275 38.2324 126.449 38.6367 125.488 38.9297C124.527 39.2109 123.443 39.3516 122.236 39.3516C120.49 39.3516 119.014 39.041 117.806 38.4199C116.599 37.7871 115.685 36.9902 115.064 36.0293C114.443 35.0566 114.133 34.0488 114.133 33.0059H118.58C118.615 33.7441 118.814 34.3359 119.178 34.7812C119.541 35.2266 119.998 35.5488 120.549 35.748C121.111 35.9355 121.703 36.0293 122.324 36.0293C123.027 36.0293 123.619 35.9355 124.099 35.748C124.58 35.5488 124.943 35.2852 125.189 34.957C125.435 34.6172 125.558 34.2305 125.558 33.7969ZM142.53 39.3516C141.088 39.3516 139.793 39.1172 138.645 38.6484C137.497 38.1797 136.518 37.5293 135.709 36.6973C134.913 35.8535 134.297 34.875 133.864 33.7617C133.442 32.6367 133.231 31.4297 133.231 30.1406V29.4375C133.231 27.9727 133.442 26.6426 133.864 25.4473C134.286 24.2402 134.883 23.2031 135.657 22.3359C136.43 21.4688 137.356 20.8008 138.434 20.332C139.512 19.8633 140.702 19.6289 142.002 19.6289C143.35 19.6289 144.54 19.8574 145.571 20.3145C146.602 20.7598 147.463 21.3926 148.155 22.2129C148.846 23.0332 149.368 24.0176 149.719 25.166C150.071 26.3027 150.247 27.5625 150.247 28.9453V30.8965H135.34V27.6973H145.676V27.3457C145.653 26.6074 145.512 25.9336 145.254 25.3242C144.997 24.7031 144.598 24.2109 144.059 23.8477C143.52 23.4727 142.823 23.2852 141.967 23.2852C141.276 23.2852 140.672 23.4375 140.157 23.7422C139.653 24.0352 139.231 24.457 138.891 25.0078C138.563 25.5469 138.317 26.1914 138.153 26.9414C137.989 27.6914 137.907 28.5234 137.907 29.4375V30.1406C137.907 30.9375 138.012 31.6758 138.223 32.3555C138.446 33.0352 138.768 33.627 139.19 34.1309C139.624 34.623 140.139 35.0098 140.737 35.291C141.346 35.5605 142.038 35.6953 142.811 35.6953C143.784 35.6953 144.663 35.5078 145.448 35.1328C146.245 34.7461 146.936 34.1777 147.522 33.4277L149.86 35.8535C149.461 36.4395 148.922 37.002 148.243 37.541C147.575 38.0801 146.766 38.5195 145.817 38.8594C144.868 39.1875 143.772 39.3516 142.53 39.3516ZM158.095 34.8164L158.06 38.0332C158.06 39.2871 157.749 40.5586 157.128 41.8477C156.507 43.1367 155.704 44.2031 154.72 45.0469L152.259 43.6934C152.575 43.166 152.868 42.6328 153.138 42.0938C153.419 41.5547 153.642 40.9688 153.806 40.3359C153.982 39.7148 154.069 39.0176 154.069 38.2441V34.8164H158.095ZM187.204 30.5801H192.038C191.909 32.291 191.434 33.8086 190.614 35.1328C189.793 36.4453 188.651 37.4766 187.186 38.2266C185.721 38.9766 183.946 39.3516 181.86 39.3516C180.254 39.3516 178.807 39.0703 177.518 38.5078C176.241 37.9336 175.145 37.1191 174.231 36.0645C173.329 34.998 172.637 33.7207 172.157 32.2324C171.676 30.7324 171.436 29.0508 171.436 27.1875V25.2363C171.436 23.373 171.682 21.6914 172.174 20.1914C172.666 18.6914 173.37 17.4141 174.284 16.3594C175.209 15.293 176.317 14.4727 177.606 13.8984C178.907 13.3242 180.36 13.0371 181.965 13.0371C184.051 13.0371 185.815 13.4238 187.256 14.1973C188.698 14.959 189.817 16.0078 190.614 17.3438C191.411 18.6797 191.891 20.2148 192.055 21.9492H187.221C187.127 20.8711 186.893 19.957 186.518 19.207C186.155 18.457 185.604 17.8887 184.866 17.502C184.139 17.1035 183.172 16.9043 181.965 16.9043C181.028 16.9043 180.202 17.0801 179.487 17.4316C178.784 17.7832 178.198 18.3105 177.729 19.0137C177.26 19.7051 176.909 20.5723 176.674 21.6152C176.44 22.6465 176.323 23.8418 176.323 25.2012V27.1875C176.323 28.4883 176.428 29.6543 176.639 30.6855C176.85 31.7168 177.178 32.5898 177.623 33.3047C178.069 34.0195 178.643 34.5645 179.346 34.9395C180.049 35.3145 180.887 35.502 181.86 35.502C183.043 35.502 184.004 35.3145 184.743 34.9395C185.493 34.5645 186.061 34.0137 186.448 33.2871C186.846 32.5605 187.098 31.6582 187.204 30.5801ZM194.964 29.6836V29.3145C194.964 27.9199 195.163 26.6367 195.562 25.4648C195.96 24.2812 196.54 23.2559 197.302 22.3887C198.064 21.5215 198.995 20.8477 200.097 20.3672C201.198 19.875 202.452 19.6289 203.858 19.6289C205.288 19.6289 206.554 19.875 207.655 20.3672C208.769 20.8477 209.706 21.5215 210.468 22.3887C211.23 23.2559 211.81 24.2812 212.208 25.4648C212.606 26.6367 212.806 27.9199 212.806 29.3145V29.6836C212.806 31.0664 212.606 32.3496 212.208 33.5332C211.81 34.7051 211.23 35.7305 210.468 36.6094C209.706 37.4766 208.774 38.1504 207.673 38.6309C206.571 39.1113 205.312 39.3516 203.894 39.3516C202.487 39.3516 201.228 39.1113 200.114 38.6309C199.001 38.1504 198.064 37.4766 197.302 36.6094C196.54 35.7305 195.96 34.7051 195.562 33.5332C195.163 32.3496 194.964 31.0664 194.964 29.6836ZM199.605 29.3145V29.6836C199.605 30.5156 199.687 31.2949 199.851 32.0215C200.015 32.748 200.267 33.3867 200.606 33.9375C200.946 34.4883 201.386 34.9219 201.925 35.2383C202.476 35.543 203.132 35.6953 203.894 35.6953C204.644 35.6953 205.288 35.543 205.827 35.2383C206.366 34.9219 206.806 34.4883 207.146 33.9375C207.497 33.3867 207.755 32.748 207.919 32.0215C208.083 31.2949 208.165 30.5156 208.165 29.6836V29.3145C208.165 28.4941 208.083 27.7266 207.919 27.0117C207.755 26.2852 207.497 25.6465 207.146 25.0957C206.806 24.5332 206.36 24.0938 205.81 23.7773C205.271 23.4492 204.62 23.2852 203.858 23.2852C203.108 23.2852 202.464 23.4492 201.925 23.7773C201.386 24.0938 200.946 24.5332 200.606 25.0957C200.267 25.6465 200.015 26.2852 199.851 27.0117C199.687 27.7266 199.605 28.4941 199.605 29.3145ZM227 33.7969C227 33.3984 226.894 33.041 226.683 32.7246C226.472 32.4082 226.074 32.1211 225.488 31.8633C224.914 31.5938 224.07 31.3418 222.957 31.1074C221.972 30.8965 221.064 30.6328 220.232 30.3164C219.4 30 218.685 29.6191 218.088 29.1738C217.49 28.7168 217.021 28.1836 216.681 27.5742C216.353 26.9531 216.189 26.2383 216.189 25.4297C216.189 24.6445 216.359 23.9062 216.699 23.2148C217.039 22.5117 217.531 21.8965 218.175 21.3691C218.82 20.8301 219.605 20.4082 220.531 20.1035C221.457 19.7871 222.5 19.6289 223.66 19.6289C225.277 19.6289 226.666 19.8926 227.826 20.4199C228.998 20.9473 229.894 21.6738 230.515 22.5996C231.136 23.5137 231.447 24.5449 231.447 25.6934H226.806C226.806 25.1895 226.689 24.7324 226.455 24.3223C226.232 23.9121 225.886 23.584 225.418 23.3379C224.949 23.0801 224.357 22.9512 223.642 22.9512C222.998 22.9512 222.453 23.0566 222.008 23.2676C221.574 23.4785 221.246 23.7539 221.023 24.0938C220.8 24.4336 220.689 24.8086 220.689 25.2188C220.689 25.5234 220.748 25.7988 220.865 26.0449C220.994 26.2793 221.199 26.4961 221.48 26.6953C221.761 26.8945 222.142 27.0762 222.623 27.2402C223.115 27.4043 223.718 27.5625 224.433 27.7148C225.851 27.9961 227.088 28.3711 228.142 28.8398C229.209 29.2969 230.041 29.9062 230.638 30.668C231.236 31.4297 231.535 32.4023 231.535 33.5859C231.535 34.4297 231.353 35.2031 230.99 35.9062C230.627 36.5977 230.099 37.2012 229.408 37.7168C228.716 38.2324 227.89 38.6367 226.929 38.9297C225.968 39.2109 224.884 39.3516 223.677 39.3516C221.931 39.3516 220.455 39.041 219.248 38.4199C218.041 37.7871 217.127 36.9902 216.506 36.0293C215.884 35.0566 215.574 34.0488 215.574 33.0059H220.021C220.056 33.7441 220.256 34.3359 220.619 34.7812C220.982 35.2266 221.439 35.5488 221.99 35.748C222.552 35.9355 223.144 36.0293 223.765 36.0293C224.468 36.0293 225.06 35.9355 225.541 35.748C226.021 35.5488 226.384 35.2852 226.631 34.957C226.877 34.6172 227 34.2305 227 33.7969ZM244.428 19.9805V23.3203H233.53V19.9805H244.428ZM236.448 15.3047H241.106V33.5156C241.106 34.0781 241.182 34.5117 241.334 34.8164C241.487 35.1211 241.715 35.3262 242.02 35.4316C242.325 35.5371 242.688 35.5898 243.11 35.5898C243.414 35.5898 243.696 35.5723 243.953 35.5371C244.211 35.502 244.428 35.4668 244.604 35.4316L244.621 38.9121C244.235 39.041 243.795 39.1465 243.303 39.2285C242.823 39.3105 242.278 39.3516 241.668 39.3516C240.625 39.3516 239.711 39.1758 238.926 38.8242C238.141 38.4609 237.532 37.8809 237.098 37.084C236.664 36.2754 236.448 35.209 236.448 33.8848V15.3047ZM258.358 34.957V26.1855C258.358 25.541 258.247 24.9844 258.024 24.5156C257.802 24.0469 257.462 23.6836 257.005 23.4258C256.548 23.168 255.968 23.0391 255.265 23.0391C254.644 23.0391 254.099 23.1445 253.63 23.3555C253.173 23.5664 252.821 23.8652 252.575 24.252C252.329 24.627 252.206 25.0605 252.206 25.5527H247.548C247.548 24.7676 247.735 24.0234 248.11 23.3203C248.485 22.6055 249.019 21.9727 249.71 21.4219C250.413 20.8594 251.251 20.4199 252.224 20.1035C253.208 19.7871 254.31 19.6289 255.528 19.6289C256.97 19.6289 258.253 19.875 259.378 20.3672C260.515 20.8477 261.405 21.5742 262.05 22.5469C262.706 23.5195 263.034 24.7441 263.034 26.2207V34.5176C263.034 35.4668 263.093 36.2812 263.21 36.9609C263.339 37.6289 263.526 38.209 263.772 38.7012V39H259.044C258.821 38.5195 258.651 37.9102 258.534 37.1719C258.417 36.4219 258.358 35.6836 258.358 34.957ZM259.009 27.416L259.044 30.1758H256.108C255.382 30.1758 254.743 30.252 254.192 30.4043C253.642 30.5449 253.19 30.7559 252.839 31.0371C252.487 31.3066 252.224 31.6348 252.048 32.0215C251.872 32.3965 251.784 32.8242 251.784 33.3047C251.784 33.7734 251.89 34.1953 252.101 34.5703C252.323 34.9453 252.64 35.2441 253.05 35.4668C253.472 35.6777 253.964 35.7832 254.526 35.7832C255.347 35.7832 256.061 35.6191 256.671 35.291C257.28 34.9512 257.755 34.541 258.095 34.0605C258.435 33.5801 258.616 33.123 258.64 32.6895L259.976 34.6934C259.811 35.1738 259.565 35.6836 259.237 36.2227C258.909 36.7617 258.487 37.2656 257.972 37.7344C257.456 38.2031 256.835 38.5898 256.108 38.8945C255.382 39.1992 254.538 39.3516 253.577 39.3516C252.347 39.3516 251.245 39.1055 250.272 38.6133C249.3 38.1211 248.532 37.4473 247.97 36.5918C247.407 35.7363 247.126 34.7637 247.126 33.6738C247.126 32.666 247.313 31.7754 247.688 31.002C248.063 30.2285 248.62 29.5781 249.358 29.0508C250.097 28.5117 251.011 28.1074 252.101 27.8379C253.202 27.5566 254.462 27.416 255.88 27.416H259.009ZM277.254 13.4062H286.553C288.498 13.4062 290.168 13.6992 291.563 14.2852C292.957 14.8711 294.03 15.7383 294.78 16.8867C295.53 18.0352 295.905 19.4473 295.905 21.123C295.905 22.4473 295.67 23.5957 295.201 24.5684C294.733 25.541 294.071 26.3555 293.215 27.0117C292.371 27.668 291.375 28.1836 290.227 28.5586L288.715 29.332H280.506L280.471 25.5176H286.606C287.602 25.5176 288.428 25.3418 289.084 24.9902C289.74 24.6387 290.233 24.1523 290.561 23.5312C290.901 22.9102 291.071 22.2012 291.071 21.4043C291.071 20.5488 290.906 19.8105 290.578 19.1895C290.25 18.5566 289.752 18.0703 289.084 17.7305C288.416 17.3906 287.573 17.2207 286.553 17.2207H282.088V39H277.254V13.4062ZM291.703 39L285.78 27.5391L290.895 27.5215L296.889 38.7539V39H291.703ZM305.071 19.9805V39H300.413V19.9805H305.071ZM300.097 15.0059C300.097 14.3145 300.331 13.7402 300.8 13.2832C301.28 12.8262 301.925 12.5977 302.733 12.5977C303.542 12.5977 304.181 12.8262 304.649 13.2832C305.13 13.7402 305.37 14.3145 305.37 15.0059C305.37 15.6855 305.13 16.2539 304.649 16.7109C304.181 17.168 303.542 17.3965 302.733 17.3965C301.925 17.3965 301.28 17.168 300.8 16.7109C300.331 16.2539 300.097 15.6855 300.097 15.0059ZM317.666 35.6953C318.322 35.6953 318.908 35.5664 319.423 35.3086C319.939 35.0508 320.349 34.6875 320.654 34.2188C320.97 33.75 321.14 33.2051 321.164 32.584H325.541C325.517 33.873 325.154 35.0273 324.451 36.0469C323.748 37.0664 322.81 37.875 321.638 38.4727C320.478 39.0586 319.177 39.3516 317.736 39.3516C316.271 39.3516 314.994 39.1055 313.904 38.6133C312.814 38.1211 311.906 37.4355 311.179 36.5566C310.464 35.6777 309.925 34.6582 309.562 33.498C309.21 32.3379 309.035 31.0957 309.035 29.7715V29.209C309.035 27.8848 309.21 26.6426 309.562 25.4824C309.925 24.3223 310.464 23.3027 311.179 22.4238C311.906 21.5449 312.814 20.8594 313.904 20.3672C314.994 19.875 316.265 19.6289 317.718 19.6289C319.253 19.6289 320.601 19.9277 321.761 20.5254C322.933 21.123 323.847 21.9668 324.503 23.0566C325.171 24.1465 325.517 25.4297 325.541 26.9062H321.164C321.14 26.2266 320.988 25.6172 320.707 25.0781C320.425 24.5391 320.027 24.1055 319.511 23.7773C318.996 23.4492 318.369 23.2852 317.63 23.2852C316.845 23.2852 316.189 23.4492 315.662 23.7773C315.146 24.1055 314.742 24.5566 314.449 25.1309C314.168 25.6934 313.968 26.3262 313.851 27.0293C313.746 27.7207 313.693 28.4473 313.693 29.209V29.7715C313.693 30.5449 313.746 31.2832 313.851 31.9863C313.968 32.6895 314.168 33.3223 314.449 33.8848C314.742 34.4355 315.146 34.875 315.662 35.2031C316.189 35.5312 316.857 35.6953 317.666 35.6953ZM339.471 34.957V26.1855C339.471 25.541 339.36 24.9844 339.137 24.5156C338.914 24.0469 338.574 23.6836 338.117 23.4258C337.66 23.168 337.08 23.0391 336.377 23.0391C335.756 23.0391 335.211 23.1445 334.742 23.3555C334.285 23.5664 333.934 23.8652 333.688 24.252C333.442 24.627 333.319 25.0605 333.319 25.5527H328.66C328.66 24.7676 328.848 24.0234 329.223 23.3203C329.598 22.6055 330.131 21.9727 330.822 21.4219C331.526 20.8594 332.363 20.4199 333.336 20.1035C334.32 19.7871 335.422 19.6289 336.641 19.6289C338.082 19.6289 339.365 19.875 340.49 20.3672C341.627 20.8477 342.518 21.5742 343.162 22.5469C343.819 23.5195 344.147 24.7441 344.147 26.2207V34.5176C344.147 35.4668 344.205 36.2812 344.322 36.9609C344.451 37.6289 344.639 38.209 344.885 38.7012V39H340.156C339.934 38.5195 339.764 37.9102 339.647 37.1719C339.529 36.4219 339.471 35.6836 339.471 34.957ZM340.121 27.416L340.156 30.1758H337.221C336.494 30.1758 335.856 30.252 335.305 30.4043C334.754 30.5449 334.303 30.7559 333.951 31.0371C333.6 31.3066 333.336 31.6348 333.16 32.0215C332.985 32.3965 332.897 32.8242 332.897 33.3047C332.897 33.7734 333.002 34.1953 333.213 34.5703C333.436 34.9453 333.752 35.2441 334.162 35.4668C334.584 35.6777 335.076 35.7832 335.639 35.7832C336.459 35.7832 337.174 35.6191 337.783 35.291C338.393 34.9512 338.867 34.541 339.207 34.0605C339.547 33.5801 339.729 33.123 339.752 32.6895L341.088 34.6934C340.924 35.1738 340.678 35.6836 340.35 36.2227C340.022 36.7617 339.6 37.2656 339.084 37.7344C338.569 38.2031 337.947 38.5898 337.221 38.8945C336.494 39.1992 335.651 39.3516 334.69 39.3516C333.459 39.3516 332.358 39.1055 331.385 38.6133C330.412 38.1211 329.645 37.4473 329.082 36.5918C328.52 35.7363 328.238 34.7637 328.238 33.6738C328.238 32.666 328.426 31.7754 328.801 31.002C329.176 30.2285 329.733 29.5781 330.471 29.0508C331.209 28.5117 332.123 28.1074 333.213 27.8379C334.315 27.5566 335.574 27.416 336.992 27.416H340.121Z" fill="white"/>
<path d="M21.3145 63.2656V89H18.0625V67.3262L11.5059 69.7168V66.7812L20.8047 63.2656H21.3145ZM43.3827 83.9551C43.3827 83.4863 43.2773 83.0527 43.0663 82.6543C42.8671 82.2441 42.4511 81.875 41.8183 81.5469C41.1972 81.207 40.2597 80.9141 39.0058 80.668C37.9511 80.4453 36.996 80.1816 36.1405 79.877C35.2968 79.5723 34.5761 79.2031 33.9784 78.7695C33.3925 78.3359 32.9413 77.8262 32.6249 77.2402C32.3085 76.6543 32.1503 75.9688 32.1503 75.1836C32.1503 74.4336 32.3144 73.7246 32.6425 73.0566C32.9823 72.3887 33.457 71.7969 34.0663 71.2812C34.6874 70.7656 35.4316 70.3613 36.2987 70.0684C37.1659 69.7754 38.1327 69.6289 39.1991 69.6289C40.7226 69.6289 42.0234 69.8984 43.1015 70.4375C44.1796 70.9766 45.0058 71.6973 45.58 72.5996C46.1542 73.4902 46.4413 74.4805 46.4413 75.5703H43.1894C43.1894 75.043 43.0312 74.5332 42.7148 74.041C42.4101 73.5371 41.9589 73.1211 41.3612 72.793C40.7753 72.4648 40.0546 72.3008 39.1991 72.3008C38.2968 72.3008 37.5644 72.4414 37.0019 72.7227C36.4511 72.9922 36.0468 73.3379 35.789 73.7598C35.5429 74.1816 35.4198 74.627 35.4198 75.0957C35.4198 75.4473 35.4784 75.7637 35.5956 76.0449C35.7245 76.3145 35.9472 76.5664 36.2636 76.8008C36.58 77.0234 37.0253 77.2344 37.5995 77.4336C38.1737 77.6328 38.9062 77.832 39.7968 78.0312C41.3554 78.3828 42.6386 78.8047 43.6464 79.2969C44.6542 79.7891 45.4042 80.3926 45.8964 81.1074C46.3886 81.8223 46.6347 82.6895 46.6347 83.709C46.6347 84.541 46.4589 85.3027 46.1073 85.9941C45.7675 86.6855 45.2695 87.2832 44.6132 87.7871C43.9687 88.2793 43.1952 88.666 42.2929 88.9473C41.4023 89.2168 40.4003 89.3516 39.287 89.3516C37.6112 89.3516 36.1933 89.0527 35.0331 88.4551C33.873 87.8574 32.9941 87.084 32.3964 86.1348C31.7987 85.1855 31.4999 84.1836 31.4999 83.1289H34.7695C34.8163 84.0195 35.0741 84.7285 35.5429 85.2559C36.0116 85.7715 36.5859 86.1406 37.2655 86.3633C37.9452 86.5742 38.6191 86.6797 39.287 86.6797C40.1777 86.6797 40.9218 86.5625 41.5195 86.3281C42.1288 86.0938 42.5917 85.7715 42.9081 85.3613C43.2245 84.9512 43.3827 84.4824 43.3827 83.9551ZM59.9491 69.9805V72.4766H49.6659V69.9805H59.9491ZM53.1463 65.3574H56.3983V84.2891C56.3983 84.9336 56.4979 85.4199 56.6971 85.748C56.8963 86.0762 57.1541 86.293 57.4705 86.3984C57.787 86.5039 58.1268 86.5566 58.4901 86.5566C58.7596 86.5566 59.0409 86.5332 59.3338 86.4863C59.6385 86.4277 59.867 86.3809 60.0194 86.3457L60.037 89C59.7791 89.082 59.4393 89.1582 59.0174 89.2285C58.6073 89.3105 58.1092 89.3516 57.5233 89.3516C56.7264 89.3516 55.994 89.1934 55.326 88.877C54.658 88.5605 54.1248 88.0332 53.7264 87.2949C53.3397 86.5449 53.1463 85.5371 53.1463 84.2715V65.3574Z" fill="#EFB73B"/>
<path d="M94.5407 63.4062V89H92.361L77.6481 67.1328V89H75.486V63.4062H77.6481L92.3962 85.2734V63.4062H94.5407ZM100.507 79.7891V79.209C100.507 77.8262 100.707 76.5488 101.105 75.377C101.504 74.2051 102.072 73.1914 102.81 72.3359C103.56 71.4805 104.457 70.8184 105.5 70.3496C106.543 69.8691 107.703 69.6289 108.98 69.6289C110.269 69.6289 111.435 69.8691 112.478 70.3496C113.521 70.8184 114.418 71.4805 115.168 72.3359C115.918 73.1914 116.492 74.2051 116.89 75.377C117.289 76.5488 117.488 77.8262 117.488 79.209V79.7891C117.488 81.1719 117.289 82.4492 116.89 83.6211C116.492 84.7812 115.918 85.7891 115.168 86.6445C114.429 87.5 113.539 88.168 112.496 88.6484C111.453 89.1172 110.293 89.3516 109.015 89.3516C107.726 89.3516 106.56 89.1172 105.517 88.6484C104.474 88.168 103.578 87.5 102.828 86.6445C102.078 85.7891 101.504 84.7812 101.105 83.6211C100.707 82.4492 100.507 81.1719 100.507 79.7891ZM102.599 79.209V79.7891C102.599 80.832 102.74 81.8223 103.021 82.7598C103.302 83.6855 103.713 84.5117 104.252 85.2383C104.791 85.9531 105.459 86.5156 106.255 86.9258C107.052 87.3359 107.972 87.541 109.015 87.541C110.046 87.541 110.955 87.3359 111.74 86.9258C112.537 86.5156 113.205 85.9531 113.744 85.2383C114.283 84.5117 114.687 83.6855 114.957 82.7598C115.238 81.8223 115.379 80.832 115.379 79.7891V79.209C115.379 78.1777 115.238 77.1992 114.957 76.2734C114.687 75.3477 114.277 74.5215 113.726 73.7949C113.187 73.0684 112.519 72.4941 111.722 72.0723C110.925 71.6504 110.011 71.4395 108.98 71.4395C107.949 71.4395 107.035 71.6504 106.238 72.0723C105.453 72.4941 104.785 73.0684 104.234 73.7949C103.695 74.5215 103.285 75.3477 103.004 76.2734C102.734 77.1992 102.599 78.1777 102.599 79.209ZM128.253 86.9785L134.353 69.9805H136.515L129.396 89H127.867L128.253 86.9785ZM122.734 69.9805L128.904 87.0312L129.238 89H127.691L120.554 69.9805H122.734ZM148.16 89.3516C146.917 89.3516 145.775 89.123 144.732 88.666C143.701 88.209 142.798 87.5645 142.025 86.7324C141.263 85.9004 140.671 84.916 140.249 83.7793C139.839 82.6309 139.634 81.377 139.634 80.0176V79.2617C139.634 77.7969 139.851 76.4727 140.285 75.2891C140.718 74.1055 141.316 73.0918 142.078 72.248C142.839 71.4043 143.706 70.7598 144.679 70.3145C145.664 69.8574 146.695 69.6289 147.773 69.6289C148.98 69.6289 150.052 69.8457 150.99 70.2793C151.927 70.7012 152.712 71.3047 153.345 72.0898C153.99 72.8633 154.476 73.7832 154.804 74.8496C155.132 75.9043 155.296 77.0703 155.296 78.3477V79.6309H140.9V77.8379H153.205V77.5918C153.181 76.5254 152.964 75.5293 152.554 74.6035C152.156 73.666 151.558 72.9043 150.761 72.3184C149.964 71.7324 148.968 71.4395 147.773 71.4395C146.882 71.4395 146.062 71.627 145.312 72.002C144.574 72.377 143.935 72.916 143.396 73.6191C142.869 74.3105 142.458 75.1367 142.165 76.0977C141.884 77.0469 141.744 78.1016 141.744 79.2617V80.0176C141.744 81.0723 141.896 82.0566 142.201 82.9707C142.517 83.873 142.962 84.6699 143.537 85.3613C144.122 86.0527 144.814 86.5918 145.611 86.9785C146.408 87.3652 147.287 87.5586 148.247 87.5586C149.372 87.5586 150.369 87.3535 151.236 86.9434C152.103 86.5215 152.882 85.8594 153.574 84.957L154.892 85.9766C154.482 86.5859 153.966 87.1484 153.345 87.6641C152.736 88.1797 152.003 88.5898 151.148 88.8945C150.292 89.1992 149.296 89.3516 148.16 89.3516ZM162.511 73.918V89H160.402V69.9805H162.423L162.511 73.918ZM162.124 78.3125L161.105 77.7852C161.175 76.6602 161.386 75.6055 161.738 74.6211C162.101 73.6367 162.605 72.7695 163.249 72.0195C163.894 71.2695 164.667 70.6836 165.57 70.2617C166.472 69.8398 167.497 69.6289 168.646 69.6289C169.572 69.6289 170.41 69.7578 171.16 70.0156C171.921 70.2617 172.566 70.6543 173.093 71.1934C173.632 71.7207 174.048 72.4121 174.341 73.2676C174.634 74.123 174.781 75.1484 174.781 76.3438V89H172.689V76.4141C172.689 75.1484 172.49 74.1582 172.091 73.4434C171.704 72.7285 171.16 72.2188 170.456 71.9141C169.765 71.6094 168.962 71.457 168.048 71.457C166.97 71.457 166.056 71.6797 165.306 72.125C164.568 72.5586 163.964 73.127 163.495 73.8301C163.038 74.5215 162.699 75.2656 162.476 76.0625C162.253 76.8477 162.136 77.5977 162.124 78.3125ZM174.763 76.6602L173.357 76.6953C173.415 75.7695 173.626 74.8848 173.99 74.041C174.365 73.1973 174.874 72.4473 175.519 71.791C176.163 71.123 176.931 70.5957 177.822 70.209C178.724 69.8223 179.738 69.6289 180.863 69.6289C181.847 69.6289 182.726 69.7637 183.499 70.0332C184.273 70.291 184.923 70.707 185.451 71.2812C185.99 71.8438 186.4 72.5645 186.681 73.4434C186.962 74.3223 187.103 75.377 187.103 76.6074V89H184.994V76.5898C184.994 75.2422 184.794 74.1992 184.396 73.4609C184.009 72.7109 183.47 72.1895 182.779 71.8965C182.087 71.6035 181.279 71.457 180.353 71.457C179.439 71.4688 178.636 71.6387 177.945 71.9668C177.253 72.2832 176.673 72.7051 176.204 73.2324C175.747 73.748 175.396 74.3047 175.15 74.9023C174.915 75.5 174.786 76.0859 174.763 76.6602ZM193.491 62H195.601V85.3086L195.46 89H193.491V62ZM208.837 79.3145V79.6836C208.837 81.1016 208.673 82.4023 208.345 83.5859C208.017 84.7695 207.542 85.7949 206.921 86.6621C206.3 87.5176 205.538 88.1797 204.636 88.6484C203.745 89.1172 202.72 89.3516 201.56 89.3516C200.423 89.3516 199.415 89.1758 198.536 88.8242C197.658 88.4609 196.908 87.9512 196.286 87.2949C195.665 86.627 195.167 85.8477 194.792 84.957C194.417 84.0547 194.154 83.0645 194.001 81.9863V77.293C194.177 76.1445 194.458 75.1016 194.845 74.1641C195.232 73.2266 195.73 72.418 196.339 71.7383C196.96 71.0586 197.699 70.5371 198.554 70.1738C199.421 69.8105 200.411 69.6289 201.525 69.6289C202.685 69.6289 203.716 69.8574 204.618 70.3145C205.533 70.7598 206.3 71.4102 206.921 72.2656C207.542 73.1094 208.017 74.1289 208.345 75.3242C208.673 76.5078 208.837 77.8379 208.837 79.3145ZM206.71 79.6836V79.3145C206.71 78.2012 206.605 77.1699 206.394 76.2207C206.183 75.2715 205.849 74.4453 205.392 73.7422C204.947 73.0273 204.372 72.4707 203.669 72.0723C202.966 71.6738 202.122 71.4746 201.138 71.4746C200.13 71.4746 199.269 71.6445 198.554 71.9844C197.851 72.3125 197.265 72.752 196.796 73.3027C196.339 73.8418 195.976 74.4336 195.706 75.0781C195.437 75.7227 195.238 76.3555 195.109 76.9766V82.4434C195.308 83.3223 195.654 84.1484 196.146 84.9219C196.638 85.6953 197.3 86.3223 198.132 86.8027C198.964 87.2715 199.978 87.5059 201.173 87.5059C202.134 87.5059 202.96 87.3066 203.652 86.9082C204.355 86.5098 204.929 85.959 205.374 85.2559C205.831 84.5527 206.165 83.7266 206.376 82.7773C206.599 81.8281 206.71 80.7969 206.71 79.6836ZM221.923 89.3516C220.681 89.3516 219.538 89.123 218.495 88.666C217.464 88.209 216.562 87.5645 215.788 86.7324C215.027 85.9004 214.435 84.916 214.013 83.7793C213.603 82.6309 213.398 81.377 213.398 80.0176V79.2617C213.398 77.7969 213.614 76.4727 214.048 75.2891C214.482 74.1055 215.079 73.0918 215.841 72.248C216.603 71.4043 217.47 70.7598 218.443 70.3145C219.427 69.8574 220.458 69.6289 221.536 69.6289C222.743 69.6289 223.816 69.8457 224.753 70.2793C225.691 70.7012 226.476 71.3047 227.109 72.0898C227.753 72.8633 228.239 73.7832 228.568 74.8496C228.896 75.9043 229.06 77.0703 229.06 78.3477V79.6309H214.663V77.8379H226.968V77.5918C226.945 76.5254 226.728 75.5293 226.318 74.6035C225.919 73.666 225.321 72.9043 224.525 72.3184C223.728 71.7324 222.732 71.4395 221.536 71.4395C220.646 71.4395 219.825 71.627 219.075 72.002C218.337 72.377 217.698 72.916 217.159 73.6191C216.632 74.3105 216.222 75.1367 215.929 76.0977C215.648 77.0469 215.507 78.1016 215.507 79.2617V80.0176C215.507 81.0723 215.659 82.0566 215.964 82.9707C216.28 83.873 216.726 84.6699 217.3 85.3613C217.886 86.0527 218.577 86.5918 219.374 86.9785C220.171 87.3652 221.05 87.5586 222.011 87.5586C223.136 87.5586 224.132 87.3535 224.999 86.9434C225.866 86.5215 226.646 85.8594 227.337 84.957L228.655 85.9766C228.245 86.5859 227.73 87.1484 227.109 87.6641C226.499 88.1797 225.767 88.5898 224.911 88.8945C224.056 89.1992 223.06 89.3516 221.923 89.3516ZM236.38 73.127V89H234.288V69.9805H236.327L236.38 73.127ZM243.112 69.8398L243.06 71.7734C242.825 71.7383 242.597 71.709 242.374 71.6855C242.151 71.6621 241.911 71.6504 241.653 71.6504C240.739 71.6504 239.937 71.8203 239.245 72.1602C238.566 72.4883 237.991 72.9512 237.523 73.5488C237.054 74.1348 236.696 74.8262 236.45 75.623C236.204 76.4082 236.064 77.252 236.028 78.1543L235.255 78.4531C235.255 77.2109 235.384 76.0566 235.642 74.9902C235.9 73.9238 236.292 72.9922 236.819 72.1953C237.359 71.3867 238.032 70.7598 238.841 70.3145C239.661 69.8574 240.622 69.6289 241.724 69.6289C241.993 69.6289 242.257 69.6523 242.515 69.6992C242.784 69.7344 242.984 69.7812 243.112 69.8398ZM273.046 87.1895V89H257.032V87.3652L265.417 77.8555C266.46 76.6719 267.292 75.6348 267.913 74.7441C268.534 73.8418 268.979 73.0215 269.249 72.2832C269.53 71.5332 269.671 70.8066 269.671 70.1035C269.671 69.0723 269.466 68.1641 269.056 67.3789C268.657 66.5938 268.06 65.9785 267.263 65.5332C266.466 65.0879 265.481 64.8652 264.31 64.8652C263.138 64.8652 262.118 65.1172 261.251 65.6211C260.384 66.125 259.716 66.8281 259.247 67.7305C258.79 68.6211 258.561 69.6348 258.561 70.7715H256.47C256.47 69.3652 256.78 68.0762 257.401 66.9043C258.034 65.7324 258.936 64.8008 260.108 64.1094C261.28 63.4062 262.681 63.0547 264.31 63.0547C265.856 63.0547 267.186 63.3301 268.3 63.8809C269.413 64.4199 270.269 65.1992 270.866 66.2188C271.476 67.2383 271.78 68.4688 271.78 69.9102C271.78 70.6836 271.64 71.4629 271.358 72.248C271.089 73.0332 270.714 73.8184 270.233 74.6035C269.765 75.377 269.226 76.1445 268.616 76.9062C268.019 77.668 267.392 78.418 266.735 79.1562L259.599 87.1895H273.046ZM293.497 74.0059V78.3125C293.497 80.1875 293.321 81.8223 292.97 83.2168C292.618 84.5996 292.102 85.748 291.423 86.6621C290.755 87.5645 289.934 88.2383 288.962 88.6836C288.001 89.1289 286.899 89.3516 285.657 89.3516C284.673 89.3516 283.77 89.2109 282.95 88.9297C282.13 88.6484 281.397 88.2207 280.753 87.6465C280.12 87.0605 279.581 86.3281 279.136 85.4492C278.69 84.5703 278.35 83.5391 278.116 82.3555C277.882 81.1602 277.765 79.8125 277.765 78.3125V74.0059C277.765 72.1191 277.94 70.4902 278.292 69.1191C278.655 67.748 279.171 66.6113 279.839 65.709C280.518 64.8066 281.345 64.1387 282.317 63.7051C283.29 63.2598 284.391 63.0371 285.622 63.0371C286.606 63.0371 287.509 63.1836 288.329 63.4766C289.161 63.7578 289.893 64.1797 290.526 64.7422C291.171 65.3047 291.71 66.0254 292.143 66.9043C292.589 67.7715 292.923 68.7969 293.145 69.9805C293.38 71.1641 293.497 72.5059 293.497 74.0059ZM291.405 78.5586V73.7422C291.405 72.582 291.323 71.5273 291.159 70.5781C291.007 69.6289 290.778 68.7969 290.474 68.082C290.169 67.3672 289.782 66.7695 289.313 66.2891C288.856 65.8086 288.317 65.4512 287.696 65.2168C287.087 64.9707 286.395 64.8477 285.622 64.8477C284.673 64.8477 283.835 65.041 283.108 65.4277C282.393 65.8027 281.796 66.3652 281.315 67.1152C280.835 67.8535 280.472 68.7793 280.225 69.8926C279.991 71.0059 279.874 72.2891 279.874 73.7422V78.5586C279.874 79.707 279.95 80.7559 280.102 81.7051C280.255 82.6426 280.489 83.4746 280.806 84.2012C281.122 84.9277 281.509 85.543 281.966 86.0469C282.434 86.5391 282.974 86.9141 283.583 87.1719C284.204 87.418 284.895 87.541 285.657 87.541C286.63 87.541 287.474 87.3477 288.188 86.9609C288.903 86.5625 289.501 85.9824 289.981 85.2207C290.462 84.4473 290.819 83.5039 291.054 82.3906C291.288 81.2656 291.405 79.9883 291.405 78.5586ZM315.143 87.1895V89H299.13V87.3652L307.514 77.8555C308.557 76.6719 309.389 75.6348 310.011 74.7441C310.632 73.8418 311.077 73.0215 311.346 72.2832C311.628 71.5332 311.768 70.8066 311.768 70.1035C311.768 69.0723 311.563 68.1641 311.153 67.3789C310.755 66.5938 310.157 65.9785 309.36 65.5332C308.563 65.0879 307.579 64.8652 306.407 64.8652C305.235 64.8652 304.216 65.1172 303.348 65.6211C302.481 66.125 301.813 66.8281 301.345 67.7305C300.888 68.6211 300.659 69.6348 300.659 70.7715H298.567C298.567 69.3652 298.878 68.0762 299.499 66.9043C300.132 65.7324 301.034 64.8008 302.206 64.1094C303.378 63.4062 304.778 63.0547 306.407 63.0547C307.954 63.0547 309.284 63.3301 310.397 63.8809C311.511 64.4199 312.366 65.1992 312.964 66.2188C313.573 67.2383 313.878 68.4688 313.878 69.9102C313.878 70.6836 313.737 71.4629 313.456 72.248C313.186 73.0332 312.811 73.8184 312.331 74.6035C311.862 75.377 311.323 76.1445 310.714 76.9062C310.116 77.668 309.489 78.418 308.833 79.1562L301.696 87.1895H315.143ZM323.255 76.3438L321.602 75.8691L322.85 63.4062H335.647V65.375H324.643L323.747 73.9883C324.192 73.6719 324.837 73.3613 325.68 73.0566C326.536 72.7402 327.497 72.582 328.563 72.582C329.7 72.582 330.731 72.7754 331.657 73.1621C332.594 73.5371 333.397 74.0879 334.065 74.8145C334.733 75.5293 335.249 76.3965 335.612 77.416C335.975 78.4238 336.157 79.5664 336.157 80.8438C336.157 82.0742 336.005 83.2051 335.7 84.2363C335.395 85.2676 334.932 86.1699 334.311 86.9434C333.69 87.7051 332.899 88.2969 331.938 88.7188C330.977 89.1406 329.835 89.3516 328.51 89.3516C327.491 89.3516 326.53 89.2109 325.628 88.9297C324.737 88.6367 323.94 88.1973 323.237 87.6113C322.534 87.0254 321.96 86.2871 321.514 85.3965C321.081 84.5059 320.811 83.4629 320.706 82.2676H322.727C322.868 83.416 323.178 84.3828 323.659 85.168C324.139 85.9531 324.784 86.5449 325.592 86.9434C326.413 87.3418 327.385 87.541 328.51 87.541C329.425 87.541 330.221 87.3945 330.901 87.1016C331.592 86.8086 332.167 86.3809 332.624 85.8184C333.092 85.2441 333.444 84.5469 333.678 83.7266C333.925 82.8945 334.048 81.9453 334.048 80.8789C334.048 79.9648 333.919 79.127 333.661 78.3652C333.403 77.5918 333.022 76.918 332.518 76.3438C332.026 75.7578 331.417 75.3066 330.69 74.9902C329.964 74.6738 329.132 74.5156 328.194 74.5156C326.975 74.5156 326.003 74.6797 325.276 75.0078C324.561 75.3359 323.887 75.7812 323.255 76.3438Z" fill="white"/>
</svg>
