<svg width="350" height="616" viewBox="0 0 350 616" fill="none" xmlns="http://www.w3.org/2000/svg">
<rect width="350" height="616" fill="white"/>
<path d="M278.673 178.951L302.359 207.531L287.471 225.49C271.025 239.105 255.231 245.306 240.183 246.613C257.67 244.356 268.392 232.03 268.392 215.496C268.392 198.963 254.994 185.517 238.464 185.517C226.845 185.517 216.767 192.159 211.813 201.855C211.813 181.012 228.665 164.962 249.473 164.962C260.931 164.962 271.711 170.815 278.622 178.891C278.639 178.908 278.656 178.934 278.673 178.951Z" fill="#84CCF5"/>
<path d="M240.183 246.613C255.231 245.306 271.025 239.105 287.471 225.49L248.804 272.139C238.472 274.362 228.479 274.243 218.833 272.512C210.822 256.352 194.181 245.247 174.957 245.247C170.664 245.247 166.497 245.798 162.525 246.842L162.5 246.74C148.62 237.621 135.985 228.332 124.721 222.69C101.043 210.831 78.1779 218.576 63.5949 226.745L47.8602 207.76C49.7063 206.08 64.7636 192.863 85.1814 188.274C95.8773 185.865 108.047 185.822 120.563 191.065C121.783 191.574 123.011 192.134 124.239 192.753C133.952 197.622 144.699 205.461 156.386 213.69C180.555 230.698 208.747 249.336 240.183 246.613Z" fill="#84CCF5"/>
<path d="M278.207 84.8803C279.545 84.6852 280.544 86.4412 280.011 88.0446L265.123 132.191L175.017 24.6749L215.124 14.5968C216.352 14.2575 217.453 15.6572 217.216 17.2521L210.593 50.8117C210.356 52.3981 211.432 53.7893 212.66 53.4754L244.603 50.642C245.806 50.3282 246.873 51.6685 246.678 53.2379L240.386 84.6089C240.2 86.1019 241.157 87.4083 242.317 87.2386L278.207 84.8803Z" fill="#F67A38"/>
<path d="M256.671 152.415L278.622 178.891C271.711 170.815 260.931 164.962 249.473 164.962C228.665 164.962 211.813 181.012 211.813 201.855C216.767 192.159 226.845 185.517 238.464 185.517C254.994 185.517 268.392 198.946 268.392 215.496C268.392 232.047 257.67 244.356 240.183 246.613C208.747 249.336 180.555 230.698 156.386 213.69L188.134 176.516L204.64 157.2L211.999 148.581C214.159 146.061 216.708 144.059 219.494 142.617C227.615 138.401 237.701 138.851 245.56 144.475L256.671 152.415Z" fill="#84E9B7"/>
<path d="M222.466 111.144L256.671 152.415L245.56 144.475C237.701 138.851 227.615 138.401 219.494 142.617L219.308 141.684C219.807 139.334 219.875 136.857 219.435 134.337C218.681 130.079 216.581 126.397 213.642 123.657L222.466 111.144Z" fill="#EFB73B"/>
<path d="M248.804 272.139L223.898 302.186L223.305 302.093C223.711 299.557 223.923 296.961 223.923 294.306C223.923 286.476 222.094 279.078 218.833 272.512C228.479 274.243 238.472 274.362 248.804 272.139Z" fill="#F9FFF2"/>
<path d="M169.089 380.215C169.089 381.572 169.055 382.344 169.055 382.344C169.055 384.966 167.784 387.29 165.82 388.732C164.516 389.691 162.906 390.251 161.17 390.251C160.171 390.251 159.206 390.064 158.325 389.716C157.597 389.436 156.919 389.055 156.318 388.58C105.684 349.438 134.257 321.588 134.257 321.588C130.378 315.794 127.702 309.126 126.585 301.949C126.195 299.455 125.992 296.91 125.992 294.306C125.992 282.421 130.209 271.52 137.23 263.028C143.666 255.24 152.465 249.48 162.525 246.842C166.497 245.798 170.664 245.247 174.957 245.247C194.181 245.247 210.822 256.352 218.833 272.512C222.094 279.078 223.923 286.476 223.923 294.306C223.923 296.961 223.711 299.557 223.305 302.093C222.187 309.143 219.562 315.7 215.768 321.409L216.005 321.588C216.005 321.588 244.578 349.438 193.944 388.58C192.606 389.623 190.921 390.251 189.091 390.251C187.262 390.251 185.577 389.623 184.239 388.571C182.393 387.129 181.207 384.872 181.207 382.344C181.207 382.344 181.173 381.572 181.173 380.215H180.852L174.957 387.986L169.41 380.215H169.089ZM212.05 294.306C212.05 291.761 211.796 289.275 211.305 286.866C207.866 269.908 192.902 257.149 174.957 257.149C157.012 257.149 142.074 269.882 138.618 286.815C138.127 289.241 137.865 291.744 137.865 294.306C137.865 304.044 141.608 312.918 147.739 319.543C154.514 326.873 164.202 331.462 174.957 331.462C185.712 331.462 195.528 326.813 202.303 319.399C208.358 312.79 212.05 303.976 212.05 294.306Z" fill="#F67A38"/>
<path d="M200.66 84.8379L222.466 111.144L213.642 123.657C210.28 120.518 205.825 118.618 201.066 118.499L201.092 117.312L200.66 84.8379Z" fill="#F9FFF2"/>
<path d="M219.435 134.337C219.875 136.857 219.807 139.334 219.308 141.684L219.494 142.617C216.708 144.059 214.159 146.061 211.999 148.581L204.64 157.2L203.903 156.564C199.584 157.327 195.35 156.58 191.742 154.697C188.82 153.179 186.314 150.922 184.501 148.123C183.146 146.027 182.173 143.635 181.715 141.014C181.554 140.098 181.461 139.19 181.436 138.282C181.309 134.609 182.257 131.071 184.019 128.043C185.628 125.269 187.923 122.911 190.709 121.239C192.665 120.052 194.867 119.212 197.247 118.788C198.534 118.559 199.813 118.465 201.066 118.499C205.825 118.618 210.28 120.518 213.642 123.657C216.581 126.397 218.681 130.079 219.435 134.337Z" fill="#EFB73B"/>
<path d="M211.305 286.866C211.796 289.275 212.05 291.761 212.05 294.306C212.05 303.976 208.358 312.79 202.303 319.399C203.522 317.609 204.149 315.709 204.411 313.893C204.987 309.915 201.701 306.318 197.713 306.81C197.137 306.886 196.552 306.92 195.96 306.92C187.991 306.92 181.571 300.269 181.944 292.21C182.274 285.05 188.151 279.163 195.299 278.832C200.346 278.603 206.749 280.02 211.305 286.866ZM201.252 292.872C201.252 289.945 198.881 287.57 195.96 287.57C193.038 287.57 190.667 289.945 190.667 292.872C190.667 295.799 193.038 298.174 195.96 298.174C198.881 298.174 201.252 295.799 201.252 292.872Z" fill="#EFB73B"/>
<path d="M204.64 157.2L188.134 176.516L187.491 175.965L181.419 169.322L191.742 154.697C195.35 156.58 199.584 157.327 203.903 156.564L204.64 157.2Z" fill="#F9FFF2"/>
<path d="M197.713 306.81C201.701 306.318 204.987 309.915 204.411 313.893C204.149 315.709 203.522 317.609 202.303 319.399C195.528 326.813 185.789 331.462 174.957 331.462C164.126 331.462 154.514 326.873 147.739 319.543L147.934 319.365C146.714 317.575 146.088 315.675 145.825 313.859C145.258 309.881 148.544 306.284 152.524 306.784C153.1 306.852 153.684 306.886 154.285 306.886C162.246 306.886 168.665 300.235 168.293 292.176C167.962 285.016 162.085 279.129 154.946 278.798C149.89 278.569 143.496 279.986 138.932 286.832L138.618 286.815C142.074 269.882 157.029 257.149 174.957 257.149C192.885 257.149 207.866 269.908 211.305 286.866C206.749 280.02 200.346 278.603 195.299 278.832C188.151 279.163 182.274 285.05 181.944 292.21C181.571 300.269 187.991 306.92 195.96 306.92C196.552 306.92 197.137 306.886 197.713 306.81ZM176.321 302.78C176.321 302.348 175.703 301.991 174.932 301.991C174.161 301.991 173.552 302.348 173.552 302.78C173.552 303.213 174.17 303.569 174.932 303.569C175.694 303.569 176.321 303.221 176.321 302.78Z" fill="#F9FFF2"/>
<path d="M200.66 84.8379L201.092 117.312L201.066 118.499C199.813 118.465 198.534 118.559 197.247 118.788C194.867 119.212 192.665 120.052 190.709 121.239L190.159 120.349L160.933 70.883L175.017 53.8996L200.66 84.8379Z" fill="#EFB73B"/>
<path d="M195.96 298.174C198.881 298.174 201.252 295.799 201.252 292.872C201.252 289.945 198.881 287.57 195.96 287.57C193.038 287.57 190.667 289.945 190.667 292.872C190.667 295.799 193.038 298.174 195.96 298.174Z" fill="#F9FFF2"/>
<path d="M191.742 154.697L181.419 169.322L172.493 159.55C170.875 157.777 168.928 156.504 166.827 155.732L183.13 148.64L184.501 148.123C186.314 150.922 188.82 153.179 191.742 154.697Z" fill="#EFB73B"/>
<path d="M190.159 120.349L190.709 121.239C187.923 122.911 185.628 125.269 184.019 128.043L183.511 127.738L136.264 101.957L135.621 101.423L160.933 70.883L190.159 120.349Z" fill="#F9FFF2"/>
<path d="M148.078 162.756L151.516 159.219C155.632 154.986 161.67 153.84 166.827 155.732C168.928 156.504 170.875 157.777 172.493 159.55L181.419 169.322L187.491 175.965L188.134 176.516L156.386 213.69C144.699 205.461 133.952 197.622 124.239 192.753C123.011 192.134 121.783 191.574 120.563 191.065L148.078 162.756Z" fill="#84E9B7"/>
<path d="M184.501 148.123L183.13 148.64L166.827 155.732C161.67 153.84 155.632 154.986 151.516 159.219L148.078 162.756L85.1645 188.197L85.1814 188.274C64.7636 192.863 49.7063 206.08 47.8602 207.76L47.6654 207.531L103.304 140.403L181.427 138.282C181.453 139.19 181.546 140.098 181.707 141.014C182.164 143.635 183.138 146.027 184.493 148.123L184.501 148.123Z" fill="#F9FFF2"/>
<path d="M183.511 127.738L184.019 128.043C182.257 131.071 181.309 134.609 181.436 138.282L103.313 140.403L135.621 101.423L136.264 101.957L183.511 127.738Z" fill="#EFB73B"/>
<path d="M175.017 24.6749L84.902 132.191L70.0141 88.0446C69.4806 86.4412 70.4799 84.6852 71.8179 84.8803L107.716 87.2386C108.868 87.4083 109.825 86.1019 109.639 84.6089L103.347 53.2379C103.152 51.6685 104.219 50.3282 105.421 50.642L137.365 53.4754C138.593 53.7893 139.669 52.3981 139.44 50.8117L132.817 17.2521C132.572 15.6572 133.673 14.2575 134.901 14.5968L175.017 24.6749Z" fill="#F67A38"/>
<path d="M168.293 292.176C168.665 300.235 162.246 306.886 154.285 306.886C153.684 306.886 153.1 306.852 152.524 306.784C148.544 306.284 145.258 309.881 145.825 313.859C146.088 315.675 146.714 317.575 147.934 319.365L147.739 319.543C141.608 312.918 137.865 304.044 137.865 294.306C137.865 291.744 138.127 289.241 138.618 286.815L138.932 286.832C143.496 279.986 149.89 278.569 154.946 278.798C162.085 279.129 167.962 285.016 168.293 292.176ZM159.578 292.838C159.578 289.911 157.207 287.536 154.285 287.536C151.364 287.536 148.993 289.911 148.993 292.838C148.993 295.765 151.355 298.14 154.285 298.14C157.216 298.14 159.578 295.765 159.578 292.838Z" fill="#EFB73B"/>
<path d="M162.5 246.74L162.525 246.842C152.465 249.48 143.666 255.24 137.23 263.028C132.216 259.796 127.423 256.912 122.858 254.621C108.064 247.207 95.4369 247.046 83.0981 250.269L63.5949 226.745C78.1779 218.576 101.043 210.831 124.721 222.69C135.985 228.332 148.62 237.621 162.5 246.74Z" fill="#F9FFF2"/>
<path d="M154.285 287.536C157.207 287.536 159.578 289.911 159.578 292.838C159.578 295.765 157.207 298.14 154.285 298.14C151.364 298.14 148.993 295.765 148.993 292.838C148.993 289.911 151.355 287.536 154.285 287.536Z" fill="#F9FFF2"/>
<path d="M148.078 162.756L120.563 191.065C108.047 185.822 95.8773 185.865 85.1814 188.274L85.1645 188.197L148.078 162.756Z" fill="#EFB73B"/>
<path d="M126.585 301.949L126.009 302.042L83.0981 250.269C95.4369 247.046 108.064 247.207 122.858 254.621C127.423 256.912 132.216 259.796 137.23 263.028C130.209 271.52 125.992 282.421 125.992 294.306C125.992 296.91 126.195 299.455 126.585 301.949Z" fill="#84CCF5"/>
<path d="M185.433 311.917C184.374 312.553 183.172 312.892 181.944 312.892C180.005 312.892 178.15 312.052 176.803 310.525C176.71 310.424 176.6 310.33 176.49 310.246C176.465 310.229 176.439 310.203 176.414 310.186C176.329 310.127 176.236 310.076 176.143 310.033C176.084 310 176.033 309.966 175.974 309.94C175.914 309.915 175.847 309.898 175.779 309.872C175.686 309.838 175.592 309.804 175.491 309.787C175.44 309.779 175.398 309.779 175.347 309.77C175.228 309.753 175.11 309.737 174.991 309.737C174.983 309.737 174.966 309.737 174.957 309.737C174.923 309.737 174.898 309.745 174.864 309.745C174.729 309.745 174.585 309.762 174.449 309.787C174.398 309.796 174.348 309.813 174.297 309.83C174.178 309.864 174.06 309.906 173.941 309.949C173.89 309.974 173.839 309.991 173.797 310.016C173.687 310.076 173.585 310.135 173.484 310.212C173.441 310.246 173.399 310.271 173.357 310.305C173.323 310.33 173.281 310.356 173.247 310.39C173.187 310.449 173.137 310.517 173.077 310.576C173.06 310.602 173.035 310.619 173.01 310.636C171.705 312.069 169.868 312.892 167.962 312.892C166.726 312.892 165.523 312.553 164.473 311.917C163.271 311.187 161.712 311.569 160.984 312.773C160.256 313.978 160.637 315.539 161.839 316.269C163.677 317.388 165.794 317.974 167.962 317.974C170.486 317.974 172.933 317.159 174.949 315.683C176.964 317.159 179.403 317.974 181.944 317.974C184.095 317.974 186.212 317.38 188.058 316.269C189.261 315.548 189.65 313.978 188.922 312.773C188.202 311.569 186.636 311.179 185.433 311.908V311.917Z" fill="#0E2C5E"/>
<path d="M174.932 306.114C177.176 306.114 178.861 304.681 178.861 302.78C178.861 300.88 177.176 299.446 174.932 299.446C172.688 299.446 171.011 300.88 171.011 302.78C171.011 304.681 172.696 306.114 174.932 306.114Z" fill="#0E2C5E"/>
<path d="M195.96 285.025C191.641 285.025 188.126 288.545 188.126 292.872C188.126 297.198 191.641 300.719 195.96 300.719C200.279 300.719 203.793 297.198 203.793 292.872C203.793 288.545 200.279 285.025 195.96 285.025ZM195.96 295.629C194.444 295.629 193.207 294.39 193.207 292.872C193.207 291.353 194.444 290.115 195.96 290.115C197.475 290.115 198.712 291.353 198.712 292.872C198.712 294.39 197.475 295.629 195.96 295.629Z" fill="#0E2C5E"/>
<path d="M162.119 292.838C162.119 288.512 158.604 284.991 154.285 284.991C149.966 284.991 146.452 288.512 146.452 292.838C146.452 297.164 149.966 300.685 154.285 300.685C158.604 300.685 162.119 297.164 162.119 292.838ZM151.533 292.838C151.533 291.319 152.77 290.081 154.285 290.081C155.801 290.081 157.038 291.319 157.038 292.838C157.038 294.356 155.801 295.595 154.285 295.595C152.77 295.595 151.533 294.356 151.533 292.838Z" fill="#0E2C5E"/>
<path d="M213.803 286.399C213.803 286.399 213.803 286.382 213.803 286.374C213.803 286.374 213.803 286.357 213.803 286.348C210.068 267.948 193.741 254.596 174.966 254.596C156.191 254.596 139.889 267.931 136.137 286.297C135.604 288.936 135.333 291.625 135.333 294.297C135.333 304.333 139.076 313.91 145.885 321.265C153.362 329.358 163.965 333.999 174.966 333.999C185.967 333.999 196.696 329.299 204.183 321.113C210.898 313.783 214.599 304.256 214.599 294.297C214.599 291.633 214.336 288.97 213.811 286.391L213.803 286.399ZM145.757 306.75C144.961 307.556 144.352 308.506 143.928 309.533C141.625 304.842 140.405 299.65 140.405 294.306C140.405 292.337 140.583 290.352 140.913 288.401C140.956 288.35 140.998 288.308 141.04 288.249C144.275 283.396 148.916 281.063 154.827 281.343C160.688 281.615 165.481 286.425 165.752 292.295C165.896 295.476 164.778 298.488 162.593 300.778C160.4 303.077 157.453 304.341 154.285 304.341C153.786 304.341 153.303 304.316 152.837 304.256C150.22 303.926 147.638 304.833 145.757 306.75ZM201.896 313.529C201.667 315.115 201.117 316.565 200.287 317.829C193.766 324.879 184.552 328.917 174.957 328.917C165.362 328.917 156.809 325.151 150.331 318.559C150.254 318.339 150.161 318.126 150.026 317.923C149.136 316.625 148.569 315.132 148.332 313.495C148.163 312.315 148.544 311.162 149.374 310.313C149.822 309.864 150.779 309.134 152.219 309.304C152.888 309.38 153.583 309.423 154.277 309.423C158.85 309.423 163.101 307.599 166.26 304.282C169.41 300.973 171.036 296.63 170.825 292.049C170.435 283.583 163.508 276.635 155.056 276.245C151.88 276.101 147.959 276.542 144.174 278.569C149.966 267.244 161.772 259.686 174.957 259.686C188.143 259.686 199.804 267.159 205.631 278.366C201.989 276.533 198.238 276.143 195.18 276.279C186.729 276.669 179.793 283.608 179.403 292.083C179.192 296.664 180.809 301.007 183.968 304.316C187.127 307.633 191.386 309.457 195.96 309.457C196.679 309.457 197.382 309.414 198.026 309.329C199.457 309.151 200.423 309.889 200.863 310.347C201.693 311.196 202.065 312.349 201.896 313.52V313.529ZM206.147 309.185C205.732 308.311 205.182 307.497 204.496 306.793C202.616 304.876 200.033 303.968 197.382 304.282C196.942 304.341 196.459 304.367 195.96 304.367C192.784 304.367 189.837 303.103 187.643 300.804C185.458 298.513 184.332 295.502 184.485 292.32C184.756 286.45 189.557 281.64 195.418 281.369C201.159 281.106 205.69 283.294 208.908 287.867C209.306 289.971 209.518 292.134 209.518 294.306C209.518 299.514 208.349 304.579 206.156 309.185H206.147Z" fill="#0E2C5E"/>
<path d="M225.507 304.138C225.625 304.036 225.744 303.934 225.845 303.807L305.654 207.522L280.62 177.313C280.62 177.313 280.612 177.305 280.603 177.297C280.603 177.297 280.595 177.28 280.587 177.271L280.57 177.246L175.017 49.9125L158.909 69.3391C158.909 69.3391 158.892 69.3645 158.884 69.373L44.3457 207.548L45.218 208.574C45.3111 208.947 45.489 209.304 45.7515 209.609C45.9971 209.889 46.2935 210.101 46.6068 210.245L124.044 303.671C124.137 303.79 124.247 303.883 124.357 303.976C125.517 310.161 127.762 315.989 131.064 321.35C128.414 324.625 123.053 332.794 123.722 344.636C124.594 359.889 135.028 375.346 154.726 390.582C154.726 390.582 154.743 390.59 154.743 390.599C154.743 390.599 154.751 390.599 154.76 390.607C155.259 390.997 155.801 391.345 156.377 391.634L160.307 400.482C160.73 401.432 161.653 401.992 162.627 401.992C162.974 401.992 163.321 401.924 163.66 401.771C164.939 401.203 165.515 399.693 164.947 398.412L162.415 392.719C163.415 392.601 164.388 392.338 165.303 391.939L169.69 396.681C170.189 397.224 170.867 397.495 171.553 397.495C172.171 397.495 172.789 397.275 173.281 396.817C174.305 395.858 174.373 394.255 173.416 393.22L169.334 388.809C169.902 388.088 170.359 387.299 170.723 386.459L172.874 389.479C172.874 389.479 172.916 389.521 172.942 389.547C173.018 389.648 173.111 389.742 173.204 389.835C173.255 389.886 173.297 389.928 173.357 389.979C173.374 389.996 173.391 390.013 173.408 390.03C173.526 390.124 173.653 390.2 173.789 390.268C173.814 390.276 173.839 390.285 173.856 390.302C174 390.37 174.144 390.42 174.288 390.463C174.331 390.471 174.373 390.488 174.415 390.497C174.585 390.531 174.763 390.556 174.94 390.556C175.11 390.556 175.279 390.531 175.449 390.497C175.491 390.497 175.525 390.48 175.567 390.471C175.72 390.429 175.872 390.378 176.016 390.31C176.033 390.31 176.05 390.302 176.058 390.293C176.185 390.234 176.304 390.157 176.414 390.081C176.439 390.064 176.456 390.047 176.473 390.03C176.533 389.988 176.583 389.937 176.634 389.886C176.727 389.801 176.812 389.716 176.888 389.623C176.914 389.598 176.939 389.581 176.956 389.547L179.42 386.298C179.751 387.12 180.191 387.901 180.733 388.613L176.465 393.228C175.508 394.255 175.576 395.867 176.6 396.825C177.091 397.283 177.71 397.504 178.328 397.504C179.014 397.504 179.691 397.232 180.191 396.69L184.679 391.837C185.67 392.304 186.72 392.601 187.813 392.728L185.281 398.42C184.713 399.701 185.281 401.211 186.568 401.779C186.907 401.932 187.254 402 187.601 402C188.575 402 189.498 401.44 189.921 400.49L193.859 391.634C194.427 391.345 194.969 391.006 195.468 390.607C215.175 375.371 225.608 359.906 226.48 344.653C227.175 332.48 221.484 324.192 218.926 321.113C222.119 315.87 224.312 310.186 225.473 304.163L225.507 304.138ZM123.46 294.984L87.6966 251.839C99.5527 249.523 110.206 251.126 121.715 256.895C125.153 258.617 128.947 260.797 133.503 263.673C126.999 272.504 123.443 283.269 123.443 294.306C123.443 294.535 123.451 294.764 123.46 294.993V294.984ZM136.747 259.702C131.81 256.572 127.711 254.214 123.993 252.348C110.723 245.697 97.9775 244.127 84.0382 247.427L67.5328 227.517C81.8617 220.111 102.432 214.377 123.587 224.972C131.649 229.01 140.592 235.059 150.06 241.472C152.261 242.965 154.523 244.484 156.801 246.011C149.128 248.895 142.294 253.552 136.747 259.711V259.702ZM163.093 244.085C159.621 241.794 156.199 239.487 152.897 237.247C143.285 230.741 134.206 224.599 125.856 220.417C102.313 208.625 79.6514 215.301 64.2131 223.513L51.4085 208.065C56.1764 204.129 69.1334 194.492 85.7404 190.759C97.6049 188.087 108.995 188.978 119.589 193.415C120.792 193.915 121.969 194.458 123.104 195.026C131.589 199.277 141.083 205.987 151.135 213.096L154.929 215.776C179.251 232.887 205.292 249.429 234.018 249.429C236.058 249.429 238.125 249.344 240.191 249.166C240.225 249.166 240.267 249.166 240.301 249.166H240.377C240.377 249.166 240.394 249.166 240.403 249.158C251.624 248.182 262.718 244.543 273.541 238.325L247.432 269.823C238.616 271.613 229.783 271.74 220.493 270.213C211.533 253.221 194.207 242.719 174.957 242.719C170.943 242.719 166.954 243.186 163.093 244.102V244.085ZM136.137 104.782L180.665 129.078C179.742 131.216 179.166 133.489 178.971 135.797L108.843 137.697L136.129 104.773L136.137 104.782ZM160.586 75.2943L187.296 120.51C185.755 121.706 184.374 123.114 183.206 124.684L139.44 100.803L160.578 75.3028L160.586 75.2943ZM243.164 140.098C236.634 136.874 229.14 136.365 222.238 138.706C222.314 137.111 222.212 135.5 221.933 133.896C221.238 129.952 219.511 126.38 216.919 123.42L222.627 115.327L243.164 140.098ZM264.098 165.361C259.406 163.452 254.427 162.417 249.473 162.417C226.929 162.417 209.272 179.74 209.272 201.855C209.272 201.906 209.281 201.949 209.289 201.991C209.289 202.084 209.298 202.169 209.315 202.263C209.331 202.347 209.348 202.424 209.365 202.5C209.382 202.577 209.408 202.661 209.442 202.738C209.467 202.814 209.501 202.89 209.543 202.967C209.577 203.043 209.619 203.111 209.662 203.179C209.704 203.247 209.746 203.315 209.797 203.374C209.848 203.442 209.899 203.51 209.958 203.569C210.009 203.628 210.068 203.688 210.128 203.739C210.187 203.79 210.246 203.849 210.314 203.891C210.39 203.942 210.458 203.993 210.542 204.036C210.585 204.061 210.619 204.095 210.661 204.112C210.686 204.129 210.712 204.129 210.746 204.146C210.83 204.188 210.915 204.214 211 204.248C211.076 204.273 211.152 204.299 211.228 204.316C211.305 204.333 211.389 204.35 211.474 204.358C211.559 204.366 211.652 204.383 211.737 204.383C211.77 204.383 211.796 204.392 211.821 204.392C211.872 204.392 211.914 204.383 211.965 204.375C212.05 204.375 212.143 204.366 212.228 204.35C212.312 204.333 212.389 204.316 212.473 204.299C212.55 204.282 212.626 204.256 212.702 204.231C212.787 204.197 212.863 204.163 212.939 204.129C213.007 204.095 213.083 204.061 213.151 204.019C213.219 203.976 213.286 203.925 213.354 203.883C213.422 203.84 213.481 203.781 213.549 203.722C213.608 203.662 213.667 203.611 213.718 203.544C213.769 203.484 213.82 203.425 213.871 203.357C213.921 203.281 213.972 203.204 214.015 203.128C214.04 203.085 214.065 203.052 214.091 203.009C218.799 193.788 228.149 188.053 238.481 188.053C253.58 188.053 265.868 200.362 265.868 215.488C265.868 230.614 255.934 241.981 239.937 244.068C211.228 246.545 185.755 231.097 160.154 213.197L213.947 150.227C215.861 147.987 218.13 146.189 220.679 144.865C228.217 140.946 237.193 141.591 244.104 146.536L254.96 154.29L264.124 165.344L264.098 165.361ZM119.92 188.079C114.059 185.822 107.987 184.533 101.746 184.236L137.839 169.645L119.92 188.079ZM153.337 160.992C156.606 157.632 161.552 156.504 165.955 158.116C167.751 158.778 169.317 159.83 170.621 161.263L179.556 171.036C179.556 171.036 179.573 171.053 179.581 171.07L184.679 176.652L155.962 210.271L154.065 208.93C143.852 201.711 134.206 194.899 125.382 190.471C125.23 190.395 125.06 190.318 124.908 190.242L153.345 160.983L153.337 160.992ZM183.604 151.211C184.891 152.831 186.407 154.265 188.092 155.452L181.156 165.276L174.356 157.836C173.763 157.183 173.128 156.597 172.459 156.055L183.595 151.211H183.604ZM188.007 172.758L184.679 169.119L192.606 157.887C194.799 158.761 197.094 159.261 199.432 159.38L187.999 172.758H188.007ZM213.117 119.984C210.288 117.973 207.036 116.667 203.615 116.175L203.293 91.9977L219.265 111.263L213.117 119.975V119.984ZM200.998 121.044C205.046 121.146 208.925 122.732 211.906 125.523C214.557 127.992 216.293 131.199 216.928 134.779C217.3 136.916 217.267 139.063 216.818 141.158C216.818 141.175 216.818 141.192 216.818 141.209C214.294 142.727 212.033 144.636 210.068 146.927L204.005 154.027C203.827 154.027 203.641 154.027 203.463 154.061C199.821 154.706 196.18 154.146 192.911 152.441C190.362 151.117 188.185 149.141 186.636 146.74C185.416 144.857 184.603 142.778 184.222 140.573C184.087 139.784 184.002 138.986 183.976 138.197C183.866 135.092 184.645 132.03 186.221 129.324C187.626 126.898 189.633 124.853 192.03 123.42C193.749 122.376 195.663 121.664 197.696 121.299C198.788 121.104 199.906 121.019 201.007 121.053L200.998 121.044ZM104.524 142.914L179.132 140.887C179.158 141.073 179.175 141.26 179.209 141.446C179.539 143.321 180.106 145.12 180.894 146.833L166.692 153.009C160.679 151.219 154.108 152.899 149.695 157.437L146.63 160.593L84.216 185.831C84.1483 185.856 84.0974 185.898 84.0297 185.924C75.2477 187.977 67.4481 191.565 61.2321 195.145L104.532 142.906L104.524 142.914ZM233.061 276.347C236.228 276.347 239.378 276.151 242.486 275.77L226.438 295.128C226.438 294.857 226.455 294.577 226.455 294.306C226.455 287.841 225.278 281.606 222.983 275.702C226.362 276.117 229.724 276.347 233.052 276.347H233.061ZM285.685 223.666C278.037 229.977 270.399 234.796 262.65 238.198C267.943 232.344 270.932 224.531 270.932 215.496C270.932 197.563 256.366 182.972 238.464 182.972C229.758 182.972 221.653 186.416 215.683 192.329C219.807 177.848 233.179 167.507 249.473 167.507C259.534 167.507 269.704 172.385 276.691 180.546L276.708 180.563C276.708 180.563 276.725 180.58 276.733 180.588L299.057 207.522L285.685 223.657V223.666ZM198.127 85.7711L198.534 116.056C197.958 116.116 197.374 116.183 196.798 116.285C194.994 116.608 193.283 117.159 191.657 117.889L164.033 71.129L175.017 57.8782L198.127 85.7626V85.7711ZM221.442 344.441C220.612 358.133 210.839 372.3 192.394 386.561C191.302 387.417 189.913 387.765 188.575 387.629L189.896 386.196C190.853 385.169 190.794 383.557 189.76 382.599C188.736 381.64 187.127 381.7 186.17 382.735L184.324 384.728C183.959 383.999 183.756 383.176 183.756 382.327V382.217C183.756 382.217 183.722 381.462 183.722 380.207C183.748 374.913 184.518 356.801 193.554 345.884C194.452 344.798 194.3 343.194 193.224 342.304C192.149 341.404 190.54 341.557 189.65 342.634C180.352 353.866 178.827 370.867 178.667 378.892L175.034 383.676L171.629 378.9C171.468 370.892 169.952 353.875 160.645 342.634C159.748 341.549 158.147 341.404 157.072 342.304C155.988 343.203 155.844 344.806 156.741 345.884C165.777 356.801 166.548 374.913 166.573 380.198C166.573 381.462 166.54 382.183 166.54 382.217V382.327C166.54 383.278 166.285 384.177 165.845 384.966L163.779 382.735C162.822 381.7 161.221 381.64 160.188 382.599C159.155 383.557 159.096 385.161 160.053 386.196L161.424 387.672C160.696 387.706 159.959 387.595 159.265 387.324C158.774 387.137 158.316 386.874 157.918 386.569C157.918 386.569 157.918 386.569 157.91 386.569C157.91 386.569 157.91 386.569 157.902 386.561C139.457 372.3 129.684 358.133 128.854 344.441C128.067 331.471 135.985 323.479 136.061 323.411L137.577 321.935L136.4 320.171C132.614 314.521 130.175 308.26 129.125 301.559C128.753 299.166 128.566 296.732 128.566 294.306C128.566 283.489 132.352 272.962 139.22 264.648C145.47 257.081 153.769 251.779 163.203 249.302C167.022 248.301 170.986 247.792 174.991 247.792C192.75 247.792 208.688 257.7 216.589 273.649C219.79 280.096 221.416 287.044 221.416 294.306C221.416 296.783 221.221 299.26 220.832 301.694C219.79 308.277 217.385 314.436 213.693 320.001C212.931 321.146 213.227 322.673 214.328 323.471C215.048 324.226 222.229 332.064 221.475 344.45L221.442 344.441Z" fill="#0E2C5E"/>
<path d="M83.9365 137.298L175.017 28.6366L266.08 137.298L282.416 88.8505C283 87.1029 282.661 85.1772 281.527 83.8284C280.62 82.7425 279.291 82.1911 277.961 82.3438L242.969 84.6428L249.168 53.7384L249.202 53.5518C249.413 51.8382 248.804 50.1246 247.601 49.0726C246.644 48.2328 245.425 47.8935 244.214 48.1225L213.168 50.8796L219.706 17.7526L219.722 17.6338C219.985 15.8863 219.384 14.1303 218.156 13.0444C217.106 12.1113 215.751 11.7889 214.497 12.1367L175.008 22.0621L135.578 12.1452C134.266 11.7804 132.911 12.1113 131.86 13.0444C130.633 14.1387 130.04 15.8948 130.311 17.6423L136.865 50.8796L105.811 48.1225C104.608 47.8935 103.389 48.2243 102.424 49.0726C101.229 50.1246 100.611 51.8382 100.823 53.5518L107.056 84.6428L72.0635 82.3438C70.7255 82.1911 69.4044 82.7425 68.4982 83.8284C67.3719 85.1772 67.0332 87.1029 67.6175 88.8589L83.9535 137.298H83.9365ZM214.607 17.3454L208.104 50.3112L208.087 50.43C207.824 52.1605 208.417 53.9081 209.619 54.9939C210.585 55.8677 211.821 56.224 213.049 55.9865L244.095 53.2294L237.905 84.0914L237.871 84.278C237.668 85.9153 238.193 87.5271 239.285 88.596C240.183 89.4697 241.368 89.9024 242.562 89.7582L277.521 87.4592L264.166 127.067L179.573 26.151L214.607 17.3454ZM107.471 89.7751C108.656 89.9193 109.842 89.4952 110.74 88.6214C111.832 87.5525 112.366 85.9322 112.162 84.295L105.938 53.2464L136.984 56.0034C138.203 56.241 139.44 55.8847 140.405 55.0109C141.608 53.925 142.201 52.1775 141.955 50.4554L135.426 17.3624L170.46 26.1595L85.8589 127.093L72.5039 87.4847L107.471 89.7836V89.7751Z" fill="#0E2C5E"/>
<path d="M1.57875 441V427H6.33875C7.95208 427 9.29208 427.293 10.3588 427.88C11.4254 428.453 12.2121 429.267 12.7188 430.32C13.2388 431.36 13.4988 432.587 13.4988 434C13.4988 435.4 13.2388 436.627 12.7188 437.68C12.2121 438.733 11.4254 439.553 10.3588 440.14C9.30542 440.713 7.95875 441 6.31875 441H1.57875ZM4.37875 438.6H6.17875C7.29875 438.6 8.17875 438.42 8.81875 438.06C9.47208 437.687 9.93875 437.16 10.2188 436.48C10.4988 435.787 10.6388 434.96 10.6388 434C10.6388 433.04 10.4988 432.22 10.2188 431.54C9.93875 430.847 9.47208 430.313 8.81875 429.94C8.17875 429.567 7.29875 429.38 6.17875 429.38H4.37875V438.6ZM15.3584 441V427H18.1584V441H15.3584ZM25.3458 441.24C24.3324 441.24 23.4258 441.067 22.6258 440.72C21.8391 440.373 21.2124 439.867 20.7458 439.2C20.2791 438.533 20.0391 437.727 20.0258 436.78H22.9858C22.9991 437.18 23.0991 437.54 23.2858 437.86C23.4858 438.18 23.7591 438.433 24.1058 438.62C24.4524 438.807 24.8591 438.9 25.3258 438.9C25.7391 438.9 26.0924 438.833 26.3858 438.7C26.6924 438.567 26.9258 438.38 27.0858 438.14C27.2591 437.9 27.3458 437.607 27.3458 437.26C27.3458 436.887 27.2458 436.567 27.0458 436.3C26.8591 436.033 26.5991 435.807 26.2658 435.62C25.9324 435.433 25.5458 435.267 25.1058 435.12C24.6791 434.96 24.2191 434.8 23.7258 434.64C22.6191 434.28 21.7724 433.8 21.1858 433.2C20.6124 432.6 20.3258 431.8 20.3258 430.8C20.3258 429.947 20.5258 429.22 20.9258 428.62C21.3391 428.02 21.9058 427.56 22.6258 427.24C23.3591 426.92 24.1858 426.76 25.1058 426.76C26.0524 426.76 26.8858 426.927 27.6058 427.26C28.3258 427.58 28.8924 428.047 29.3058 428.66C29.7324 429.273 29.9591 430 29.9858 430.84H26.9858C26.9724 430.533 26.8858 430.253 26.7258 430C26.5658 429.733 26.3458 429.52 26.0658 429.36C25.7858 429.2 25.4524 429.12 25.0658 429.12C24.7324 429.107 24.4258 429.16 24.1458 429.28C23.8791 429.387 23.6658 429.553 23.5058 429.78C23.3458 429.993 23.2658 430.267 23.2658 430.6C23.2658 430.933 23.3458 431.213 23.5058 431.44C23.6658 431.653 23.8858 431.84 24.1658 432C24.4591 432.16 24.7991 432.313 25.1858 432.46C25.5724 432.593 25.9924 432.733 26.4458 432.88C27.1524 433.12 27.7991 433.407 28.3858 433.74C28.9724 434.06 29.4391 434.48 29.7858 435C30.1458 435.52 30.3258 436.207 30.3258 437.06C30.3258 437.807 30.1324 438.5 29.7458 439.14C29.3591 439.767 28.7991 440.273 28.0658 440.66C27.3324 441.047 26.4258 441.24 25.3458 441.24ZM38.5347 441.24C37.1347 441.24 35.928 440.94 34.9147 440.34C33.9014 439.727 33.1214 438.88 32.5747 437.8C32.028 436.707 31.7547 435.447 31.7547 434.02C31.7547 432.593 32.028 431.333 32.5747 430.24C33.1214 429.147 33.9014 428.293 34.9147 427.68C35.928 427.067 37.1347 426.76 38.5347 426.76C40.228 426.76 41.6214 427.187 42.7147 428.04C43.808 428.893 44.488 430.093 44.7547 431.64H41.6747C41.5147 430.893 41.1614 430.32 40.6147 429.92C40.0814 429.507 39.3747 429.3 38.4947 429.3C37.6814 429.3 36.9814 429.493 36.3947 429.88C35.8214 430.253 35.3814 430.793 35.0747 431.5C34.768 432.207 34.6147 433.047 34.6147 434.02C34.6147 434.993 34.768 435.833 35.0747 436.54C35.3814 437.233 35.8214 437.773 36.3947 438.16C36.9814 438.533 37.6814 438.72 38.4947 438.72C39.3747 438.72 40.0814 438.533 40.6147 438.16C41.148 437.773 41.5014 437.24 41.6747 436.56H44.7547C44.488 438.013 43.808 439.16 42.7147 440C41.6214 440.827 40.228 441.24 38.5347 441.24ZM53.0994 441.24C51.7394 441.24 50.5394 440.933 49.4994 440.32C48.4594 439.707 47.6394 438.86 47.0394 437.78C46.4527 436.687 46.1594 435.427 46.1594 434C46.1594 432.573 46.4527 431.32 47.0394 430.24C47.6394 429.147 48.4594 428.293 49.4994 427.68C50.5394 427.067 51.7394 426.76 53.0994 426.76C54.4727 426.76 55.6794 427.067 56.7194 427.68C57.7727 428.293 58.586 429.147 59.1594 430.24C59.746 431.32 60.0394 432.573 60.0394 434C60.0394 435.427 59.746 436.687 59.1594 437.78C58.586 438.86 57.7727 439.707 56.7194 440.32C55.6794 440.933 54.4727 441.24 53.0994 441.24ZM53.0994 438.72C53.9394 438.72 54.666 438.527 55.2794 438.14C55.8927 437.753 56.366 437.213 56.6994 436.52C57.0327 435.813 57.1994 434.973 57.1994 434C57.1994 433.027 57.0327 432.193 56.6994 431.5C56.366 430.793 55.8927 430.247 55.2794 429.86C54.666 429.473 53.9394 429.28 53.0994 429.28C52.2727 429.28 51.5527 429.473 50.9394 429.86C50.3394 430.247 49.866 430.793 49.5194 431.5C49.186 432.193 49.0194 433.027 49.0194 434C49.0194 434.973 49.186 435.813 49.5194 436.52C49.866 437.213 50.3394 437.753 50.9394 438.14C51.5527 438.527 52.2727 438.72 53.0994 438.72ZM65.4733 441L60.3933 427H63.3933L67.2133 438.16L71.0533 427H74.0133L68.9333 441H65.4733ZM75.253 441V427H84.513V429.26H78.053V432.8H83.913V434.98H78.053V438.74H84.513V441H75.253ZM86.5522 441V427H91.8522C92.9855 427 93.9189 427.193 94.6522 427.58C95.3989 427.967 95.9522 428.487 96.3122 429.14C96.6855 429.78 96.8722 430.5 96.8722 431.3C96.8722 432.047 96.6922 432.747 96.3322 433.4C95.9855 434.053 95.4389 434.58 94.6922 434.98C93.9455 435.367 92.9922 435.56 91.8322 435.56H89.3522V441H86.5522ZM93.7922 441L90.9322 434.86H93.9722L96.9922 441H93.7922ZM89.3522 433.52H91.6922C92.4789 433.52 93.0589 433.327 93.4322 432.94C93.8189 432.553 94.0122 432.04 94.0122 431.4C94.0122 430.773 93.8255 430.273 93.4522 429.9C93.0789 429.527 92.4855 429.34 91.6722 429.34H89.3522V433.52ZM106.336 441V429.26H102.256V427H113.196V429.26H109.116V441H106.336ZM123.508 441V427H126.308V441H123.508ZM114.688 441V427H117.488V441H114.688ZM117.128 434.98V432.72H123.968V434.98H117.128ZM128.624 441V427H137.884V429.26H131.424V432.8H137.284V434.98H131.424V438.74H137.884V441H128.624ZM144.172 441V427H146.972V438.82H153.092V441H144.172ZM154.082 441L159.182 427H162.362L167.462 441H164.502L160.762 430.18L157.002 441H154.082ZM156.322 437.86L157.062 435.68H164.262L164.982 437.86H156.322ZM168.86 441V427H171.66L178 436.5V427H180.8V441H178L171.66 431.52V441H168.86ZM183.128 441V427H187.888C189.501 427 190.841 427.293 191.908 427.88C192.975 428.453 193.761 429.267 194.268 430.32C194.788 431.36 195.048 432.587 195.048 434C195.048 435.4 194.788 436.627 194.268 437.68C193.761 438.733 192.975 439.553 191.908 440.14C190.855 440.713 189.508 441 187.868 441H183.128ZM185.928 438.6H187.728C188.848 438.6 189.728 438.42 190.368 438.06C191.021 437.687 191.488 437.16 191.768 436.48C192.048 435.787 192.188 434.96 192.188 434C192.188 433.04 192.048 432.22 191.768 431.54C191.488 430.847 191.021 430.313 190.368 429.94C189.728 429.567 188.848 429.38 187.728 429.38H185.928V438.6ZM207.636 441.24C206.276 441.24 205.076 440.933 204.036 440.32C202.996 439.707 202.176 438.86 201.576 437.78C200.989 436.687 200.696 435.427 200.696 434C200.696 432.573 200.989 431.32 201.576 430.24C202.176 429.147 202.996 428.293 204.036 427.68C205.076 427.067 206.276 426.76 207.636 426.76C209.009 426.76 210.216 427.067 211.256 427.68C212.309 428.293 213.123 429.147 213.696 430.24C214.283 431.32 214.576 432.573 214.576 434C214.576 435.427 214.283 436.687 213.696 437.78C213.123 438.86 212.309 439.707 211.256 440.32C210.216 440.933 209.009 441.24 207.636 441.24ZM207.636 438.72C208.476 438.72 209.203 438.527 209.816 438.14C210.429 437.753 210.903 437.213 211.236 436.52C211.569 435.813 211.736 434.973 211.736 434C211.736 433.027 211.569 432.193 211.236 431.5C210.903 430.793 210.429 430.247 209.816 429.86C209.203 429.473 208.476 429.28 207.636 429.28C206.809 429.28 206.089 429.473 205.476 429.86C204.876 430.247 204.403 430.793 204.056 431.5C203.723 432.193 203.556 433.027 203.556 434C203.556 434.973 203.723 435.813 204.056 436.52C204.403 437.213 204.876 437.753 205.476 438.14C206.089 438.527 206.809 438.72 207.636 438.72ZM216.459 441V427H225.639V429.26H219.259V432.88H224.339V435.08H219.259V441H216.459ZM231.46 441V427H234.26V441H231.46ZM236.587 441V427H239.387L245.727 436.5V427H248.527V441H245.727L239.387 431.52V441H236.587ZM250.855 441V427H253.655L259.995 436.5V427H262.795V441H259.995L253.655 431.52V441H250.855ZM271.603 441.24C270.243 441.24 269.043 440.933 268.003 440.32C266.963 439.707 266.143 438.86 265.543 437.78C264.957 436.687 264.663 435.427 264.663 434C264.663 432.573 264.957 431.32 265.543 430.24C266.143 429.147 266.963 428.293 268.003 427.68C269.043 427.067 270.243 426.76 271.603 426.76C272.977 426.76 274.183 427.067 275.223 427.68C276.277 428.293 277.09 429.147 277.663 430.24C278.25 431.32 278.543 432.573 278.543 434C278.543 435.427 278.25 436.687 277.663 437.78C277.09 438.86 276.277 439.707 275.223 440.32C274.183 440.933 272.977 441.24 271.603 441.24ZM271.603 438.72C272.443 438.72 273.17 438.527 273.783 438.14C274.397 437.753 274.87 437.213 275.203 436.52C275.537 435.813 275.703 434.973 275.703 434C275.703 433.027 275.537 432.193 275.203 431.5C274.87 430.793 274.397 430.247 273.783 429.86C273.17 429.473 272.443 429.28 271.603 429.28C270.777 429.28 270.057 429.473 269.443 429.86C268.843 430.247 268.37 430.793 268.023 431.5C267.69 432.193 267.523 433.027 267.523 434C267.523 434.973 267.69 435.813 268.023 436.52C268.37 437.213 268.843 437.753 269.443 438.14C270.057 438.527 270.777 438.72 271.603 438.72ZM283.977 441L278.897 427H281.897L285.717 438.16L289.557 427H292.517L287.437 441H283.977ZM291.118 441L296.218 427H299.398L304.498 441H301.538L297.798 430.18L294.038 441H291.118ZM293.358 437.86L294.098 435.68H301.298L302.018 437.86H293.358ZM307.691 441V429.26H303.611V427H314.551V429.26H310.471V441H307.691ZM316.043 441V427H318.843V441H316.043ZM327.65 441.24C326.29 441.24 325.09 440.933 324.05 440.32C323.01 439.707 322.19 438.86 321.59 437.78C321.003 436.687 320.71 435.427 320.71 434C320.71 432.573 321.003 431.32 321.59 430.24C322.19 429.147 323.01 428.293 324.05 427.68C325.09 427.067 326.29 426.76 327.65 426.76C329.023 426.76 330.23 427.067 331.27 427.68C332.323 428.293 333.137 429.147 333.71 430.24C334.297 431.32 334.59 432.573 334.59 434C334.59 435.427 334.297 436.687 333.71 437.78C333.137 438.86 332.323 439.707 331.27 440.32C330.23 440.933 329.023 441.24 327.65 441.24ZM327.65 438.72C328.49 438.72 329.217 438.527 329.83 438.14C330.443 437.753 330.917 437.213 331.25 436.52C331.583 435.813 331.75 434.973 331.75 434C331.75 433.027 331.583 432.193 331.25 431.5C330.917 430.793 330.443 430.247 329.83 429.86C329.217 429.473 328.49 429.28 327.65 429.28C326.823 429.28 326.103 429.473 325.49 429.86C324.89 430.247 324.417 430.793 324.07 431.5C323.737 432.193 323.57 433.027 323.57 434C323.57 434.973 323.737 435.813 324.07 436.52C324.417 437.213 324.89 437.753 325.49 438.14C326.103 438.527 326.823 438.72 327.65 438.72ZM336.473 441V427H339.273L345.613 436.5V427H348.413V441H345.613L339.273 431.52V441H336.473Z" fill="#0E2C5E"/>
<path d="M348.732 460.244C303.079 459.606 257.418 459.415 211.761 459.682C189.024 459.813 166.284 460.267 143.547 460.08C121.004 459.893 98.4657 459.351 75.9227 459.112C51.0331 458.849 26.104 458.937 1.26722 460.606C-0.41581 460.718 -0.428993 463.111 1.26722 462.996C45.8566 459.997 90.6921 461.797 135.343 462.379C158.049 462.677 180.754 462.279 203.46 462.124C226.293 461.964 249.13 461.917 271.963 461.984C297.551 462.06 323.144 462.275 348.728 462.633C350.424 462.657 350.424 460.267 348.728 460.244H348.732Z" fill="#84CCF5"/>
<path d="M23.84 509.18C23.52 509.7 23.64 510.1 24.32 510.1H30.56C31.72 510.1 32.04 510.42 32.04 511.58V514.02C32.04 515.18 31.72 515.5 30.56 515.5H18.64C17.48 515.5 17.16 515.18 17.16 514.02V511.14C17.16 510.06 17.24 509.54 17.68 508.86L24.68 498.14C25.76 496.5 26.36 494.5 26.36 493.06C26.36 491.3 25.8 490.7 24.32 490.7C22.92 490.7 22.28 491.34 22.28 492.94V495.1C22.28 496.26 21.96 496.58 20.8 496.58H18.32C17.16 496.58 16.84 496.26 16.84 495.1V493.9C16.84 487.66 18.76 485.1 24.32 485.1C29.96 485.1 32.04 487.7 32.04 492.9C32.04 495.14 31.24 497.58 29.56 500.18L23.84 509.18ZM36.755 514.02V492.42C36.755 491.86 36.595 491.7 36.035 491.7H34.475C33.315 491.7 32.995 491.38 32.995 490.22V486.98C32.995 485.82 33.315 485.5 34.475 485.5H40.795C41.955 485.5 42.275 485.82 42.275 486.98V514.02C42.275 515.18 41.955 515.5 40.795 515.5H38.235C37.075 515.5 36.755 515.18 36.755 514.02ZM61.5628 502.02C61.5628 503.18 61.2428 503.5 60.1628 503.5H53.1628C52.0828 503.5 51.7628 503.18 51.7628 502.02V500.62C51.7628 499.46 52.0828 499.14 53.2428 499.14H60.0828C61.2428 499.14 61.5628 499.46 61.5628 500.62V502.02ZM76.8869 509.18C76.5669 509.7 76.6869 510.1 77.3669 510.1H83.6069C84.7669 510.1 85.0869 510.42 85.0869 511.58V514.02C85.0869 515.18 84.7669 515.5 83.6069 515.5H71.6869C70.5269 515.5 70.2069 515.18 70.2069 514.02V511.14C70.2069 510.06 70.2869 509.54 70.7269 508.86L77.7269 498.14C78.8069 496.5 79.4069 494.5 79.4069 493.06C79.4069 491.3 78.8469 490.7 77.3669 490.7C75.9669 490.7 75.3269 491.34 75.3269 492.94V495.1C75.3269 496.26 75.0069 496.58 73.8469 496.58H71.3669C70.2069 496.58 69.8869 496.26 69.8869 495.1V493.9C69.8869 487.66 71.8069 485.1 77.3669 485.1C83.0069 485.1 85.0869 487.7 85.0869 492.9C85.0869 495.14 84.2869 497.58 82.6069 500.18L76.8869 509.18ZM93.1619 497.26C93.1619 497.38 93.2019 497.42 93.2819 497.42C93.3619 497.42 93.4419 497.38 93.5619 497.3C94.3219 496.78 95.1619 496.46 96.8419 496.46C100.642 496.46 102.922 498.62 102.922 504.3V507.7C102.922 513.5 100.802 515.9 95.2019 515.9C89.4019 515.9 87.4819 513.46 87.4819 506.7V494.3C87.4819 487.54 89.4019 485.1 95.1219 485.1C100.642 485.1 102.762 487.5 102.762 493.3V493.46C102.762 494.62 102.442 494.94 101.282 494.94H98.8019C97.6419 494.94 97.3219 494.62 97.3219 493.46V492.54C97.3219 491.22 96.6419 490.7 95.2419 490.7C93.8019 490.7 93.1619 491.34 93.1619 492.94V497.26ZM97.2419 508.06V504.3C97.2419 502.7 96.6019 502.06 95.2019 502.06C93.8019 502.06 93.1619 502.7 93.1619 504.3V508.06C93.1619 509.66 93.8019 510.3 95.2019 510.3C96.6019 510.3 97.2419 509.66 97.2419 508.06ZM127.526 506.7C127.526 513.46 125.606 515.9 119.806 515.9C114.006 515.9 112.086 513.46 112.086 506.7V494.3C112.086 487.58 114.006 485.1 119.806 485.1C125.606 485.1 127.526 487.58 127.526 494.3V506.7ZM117.766 508.06C117.766 509.66 118.406 510.3 119.806 510.3C121.206 510.3 121.846 509.66 121.846 508.06V493.14C121.846 491.38 121.206 490.7 119.806 490.7C118.406 490.7 117.766 491.38 117.766 493.14V508.06ZM145.532 505.9V507.1C145.532 513.54 143.692 515.9 137.892 515.9C132.092 515.9 130.172 513.54 130.172 507.1V493.9C130.172 487.46 132.092 485.1 137.892 485.1C143.692 485.1 145.532 487.46 145.532 493.9V495.1C145.532 496.26 145.212 496.58 144.052 496.58H141.492C140.332 496.58 140.012 496.26 140.012 495.1V492.94C140.012 491.34 139.332 490.7 137.932 490.7C136.532 490.7 135.852 491.34 135.852 492.94V508.06C135.852 509.66 136.532 510.3 137.932 510.3C139.332 510.3 140.012 509.66 140.012 508.06V505.9C140.012 504.74 140.332 504.42 141.492 504.42H144.052C145.212 504.42 145.532 504.74 145.532 505.9ZM159.754 491.1H157.274C156.714 491.1 156.554 491.26 156.554 491.82V514.02C156.554 515.18 156.234 515.5 155.074 515.5H152.514C151.354 515.5 151.034 515.18 151.034 514.02V491.82C151.034 491.26 150.874 491.1 150.314 491.1H147.834C146.674 491.1 146.354 490.78 146.354 489.62V486.98C146.354 485.82 146.674 485.5 147.834 485.5H159.754C160.914 485.5 161.234 485.82 161.234 486.98V489.62C161.234 490.78 160.914 491.1 159.754 491.1ZM172.401 486.98C172.401 485.82 172.721 485.5 173.881 485.5H176.441C177.601 485.5 177.921 485.82 177.921 486.98V507.1C177.921 513.54 176.001 515.9 170.201 515.9C164.401 515.9 162.481 513.54 162.481 507.1V486.98C162.481 485.82 162.801 485.5 163.961 485.5H166.521C167.681 485.5 168.001 485.82 168.001 486.98V508.06C168.001 509.66 168.681 510.3 170.201 510.3C171.681 510.3 172.401 509.66 172.401 508.06V486.98ZM182.833 515.5C181.673 515.5 181.353 515.18 181.353 514.02V486.98C181.353 485.82 181.673 485.5 182.833 485.5H188.513C194.313 485.5 196.953 487.66 196.953 492.5V494.82C196.953 496.9 196.273 498.38 194.873 499.66C194.753 499.78 194.713 499.82 194.713 499.9C194.713 499.98 194.753 500.02 194.873 500.14C196.393 501.38 197.153 502.7 197.153 504.82V508.7C197.153 513.34 194.393 515.5 188.313 515.5H182.833ZM186.873 491.82V496.42C186.873 496.98 187.033 497.14 187.593 497.14H188.433C190.393 497.14 191.273 496.46 191.273 494.7V493.54C191.273 491.78 190.393 491.1 188.433 491.1H187.593C187.033 491.1 186.873 491.26 186.873 491.82ZM188.633 509.9C190.593 509.9 191.473 509.22 191.473 507.46V505.18C191.473 503.42 190.593 502.74 188.633 502.74H187.593C187.033 502.74 186.873 502.9 186.873 503.46V509.18C186.873 509.74 187.033 509.9 187.593 509.9H188.633ZM209.868 514.02V509.34C209.868 507.94 209.788 507.5 209.188 506.42L208.228 504.7C207.788 503.98 207.548 503.86 206.828 503.86H206.108C205.548 503.86 205.388 504.02 205.388 504.58V514.02C205.388 515.18 205.068 515.5 203.908 515.5H201.348C200.188 515.5 199.868 515.18 199.868 514.02V486.98C199.868 485.82 200.188 485.5 201.348 485.5H206.628C212.708 485.5 215.468 487.58 215.468 492.7V495.58C215.468 498.46 215.028 500.34 213.388 501.66C213.188 501.78 213.148 501.9 213.148 502.02C213.148 502.14 213.188 502.26 213.308 502.46L214.428 504.5C215.268 506.06 215.388 506.7 215.388 508.82V514.02C215.388 515.18 215.068 515.5 213.908 515.5H211.348C210.188 515.5 209.868 515.18 209.868 514.02ZM205.388 491.62V497.66C205.388 498.22 205.548 498.38 206.108 498.38H206.948C208.828 498.38 209.788 497.54 209.788 495.62V493.54C209.788 491.66 208.908 490.9 206.948 490.9H206.108C205.548 490.9 205.388 491.06 205.388 491.62ZM224.099 491.82V496.3C224.099 496.82 224.259 497.02 224.819 497.02H229.779C230.939 497.02 231.259 497.34 231.259 498.5V501.14C231.259 502.3 230.939 502.62 229.859 502.62H224.819C224.259 502.62 224.099 502.78 224.099 503.34V509.18C224.099 509.7 224.259 509.9 224.819 509.9H230.259C231.419 509.9 231.739 510.22 231.739 511.38V514.02C231.739 515.18 231.419 515.5 230.259 515.5H220.059C218.899 515.5 218.579 515.18 218.579 514.02V486.98C218.579 485.82 218.899 485.5 220.059 485.5H230.259C231.419 485.5 231.739 485.82 231.739 486.98V489.62C231.739 490.78 231.419 491.1 230.259 491.1H224.819C224.259 491.1 224.099 491.26 224.099 491.82Z" fill="#F67A38"/>
<path d="M261.752 487.408L264.824 490.192C266.432 491.632 266.792 492.496 266.792 494.104V494.536C266.792 497.56 265.64 499.24 262.16 499.24C258.68 499.24 257.528 497.824 257.528 493.96V493.48C257.528 492.784 257.72 492.592 258.416 492.592H260.048C260.744 492.592 260.936 492.784 260.936 493.48V494.536C260.936 495.496 261.32 495.88 262.16 495.88C263 495.88 263.384 495.52 263.384 494.656V494.2C263.384 493.528 263.24 493.192 262.352 492.4L259.472 489.832C257.864 488.416 257.528 487.6 257.528 485.992V485.464C257.528 482.44 258.68 480.76 262.16 480.76C265.64 480.76 266.792 482.176 266.792 486.04V486.52C266.792 487.216 266.6 487.408 265.904 487.408H264.272C263.576 487.408 263.384 487.216 263.384 486.52V485.464C263.384 484.504 263 484.12 262.16 484.12C261.32 484.12 260.936 484.48 260.936 485.344V485.752C260.936 486.448 261.08 486.784 261.752 487.408ZM271.035 498.112C271.035 498.808 270.843 499 270.147 499H268.611C267.915 499 267.723 498.808 267.723 498.112V491.968C267.723 490.912 267.771 490.48 268.059 489.52L270.243 482.2C270.531 481.192 270.771 481 272.019 481H272.883C274.131 481 274.371 481.192 274.659 482.2L276.843 489.52C277.131 490.456 277.179 490.912 277.179 491.968V498.112C277.179 498.808 276.987 499 276.291 499H274.755C274.059 499 273.867 498.808 273.867 498.112V494.944C273.867 494.608 273.771 494.512 273.435 494.512H271.467C271.131 494.512 271.035 494.608 271.035 494.944V498.112ZM273.507 491.152C273.771 491.152 273.915 491.056 273.915 490.84C273.915 490.72 273.891 490.6 273.867 490.48L272.763 485.848C272.715 485.608 272.667 485.56 272.451 485.56C272.235 485.56 272.187 485.608 272.139 485.848L271.035 490.48C271.011 490.6 270.987 490.72 270.987 490.84C270.987 491.056 271.131 491.152 271.395 491.152H273.507ZM284.682 486.928C284.802 487.144 284.85 487.192 284.994 487.192C285.138 487.192 285.186 487.12 285.186 486.952V481.888C285.186 481.192 285.378 481 286.074 481H287.538C288.234 481 288.426 481.192 288.426 481.888V498.112C288.426 498.808 288.234 499 287.538 499H286.074C285.378 499 285.186 498.808 285.186 498.112V494.824C285.186 493.696 285.018 493.288 284.61 492.52L282.378 488.368C282.258 488.152 282.21 488.104 282.066 488.104C281.922 488.104 281.874 488.176 281.874 488.344V498.112C281.874 498.808 281.682 499 280.986 499H279.522C278.826 499 278.634 498.808 278.634 498.112V481.888C278.634 481.192 278.826 481 279.522 481H280.458C281.346 481 281.682 481.144 282.186 482.128L284.682 486.928ZM295.558 499H294.43C293.734 499 293.542 498.808 293.542 498.112V496.528C293.542 495.832 293.734 495.64 294.43 495.64H295.606C296.446 495.64 296.83 495.256 296.83 494.296V484.672C296.83 484.336 296.734 484.24 296.398 484.24H295.222C294.526 484.24 294.334 484.048 294.334 483.352V481.888C294.334 481.192 294.526 481 295.222 481H299.254C299.95 481 300.142 481.192 300.142 481.888V493.72C300.142 497.584 298.99 499 295.558 499ZM311.119 493.72C311.119 497.776 309.967 499.24 306.487 499.24C303.007 499.24 301.854 497.776 301.854 493.72V486.28C301.854 482.248 303.007 480.76 306.487 480.76C309.967 480.76 311.119 482.248 311.119 486.28V493.72ZM305.263 494.536C305.263 495.496 305.647 495.88 306.487 495.88C307.327 495.88 307.711 495.496 307.711 494.536V485.584C307.711 484.528 307.327 484.12 306.487 484.12C305.647 484.12 305.263 484.528 305.263 485.584V494.536ZM316.666 487.408L319.738 490.192C321.346 491.632 321.706 492.496 321.706 494.104V494.536C321.706 497.56 320.554 499.24 317.074 499.24C313.594 499.24 312.442 497.824 312.442 493.96V493.48C312.442 492.784 312.634 492.592 313.33 492.592H314.962C315.658 492.592 315.85 492.784 315.85 493.48V494.536C315.85 495.496 316.234 495.88 317.074 495.88C317.914 495.88 318.298 495.52 318.298 494.656V494.2C318.298 493.528 318.154 493.192 317.266 492.4L314.386 489.832C312.778 488.416 312.442 487.6 312.442 485.992V485.464C312.442 482.44 313.594 480.76 317.074 480.76C320.554 480.76 321.706 482.176 321.706 486.04V486.52C321.706 487.216 321.514 487.408 320.818 487.408H319.186C318.49 487.408 318.298 487.216 318.298 486.52V485.464C318.298 484.504 317.914 484.12 317.074 484.12C316.234 484.12 315.85 484.48 315.85 485.344V485.752C315.85 486.448 315.994 486.784 316.666 487.408ZM325.683 479.44L327.027 476.92C327.219 476.584 327.315 476.536 327.795 476.536H330.099C330.435 476.536 330.531 476.656 330.531 476.776C330.531 476.896 330.507 476.968 330.363 477.16L328.611 479.704C328.371 480.064 328.227 480.112 327.723 480.112H325.971C325.635 480.112 325.539 480.016 325.539 479.824C325.539 479.728 325.587 479.632 325.683 479.44ZM326.571 484.792V487.48C326.571 487.792 326.667 487.912 327.003 487.912H329.979C330.675 487.912 330.867 488.104 330.867 488.8V490.384C330.867 491.08 330.675 491.272 330.027 491.272H327.003C326.667 491.272 326.571 491.368 326.571 491.704V495.208C326.571 495.52 326.667 495.64 327.003 495.64H330.267C330.963 495.64 331.155 495.832 331.155 496.528V498.112C331.155 498.808 330.963 499 330.267 499H324.147C323.451 499 323.259 498.808 323.259 498.112V481.888C323.259 481.192 323.451 481 324.147 481H330.267C330.963 481 331.155 481.192 331.155 481.888V483.472C331.155 484.168 330.963 484.36 330.267 484.36H327.003C326.667 484.36 326.571 484.456 326.571 484.792Z" fill="#EFB73B"/>
<path d="M265.34 515.2V515.8C265.34 519.02 264.42 520.2 261.52 520.2C258.62 520.2 257.66 519.02 257.66 515.8V509.2C257.66 505.98 258.62 504.8 261.52 504.8C264.42 504.8 265.34 505.98 265.34 509.2V509.8C265.34 510.38 265.18 510.54 264.6 510.54H263.32C262.74 510.54 262.58 510.38 262.58 509.8V508.72C262.58 507.92 262.24 507.6 261.54 507.6C260.84 507.6 260.5 507.92 260.5 508.72V516.28C260.5 517.08 260.84 517.4 261.54 517.4C262.24 517.4 262.58 517.08 262.58 516.28V515.2C262.58 514.62 262.74 514.46 263.32 514.46H264.6C265.18 514.46 265.34 514.62 265.34 515.2ZM274.169 515.6C274.169 518.98 273.209 520.2 270.309 520.2C267.409 520.2 266.449 518.98 266.449 515.6V509.4C266.449 506.04 267.409 504.8 270.309 504.8C273.209 504.8 274.169 506.04 274.169 509.4V515.6ZM269.289 516.28C269.289 517.08 269.609 517.4 270.309 517.4C271.009 517.4 271.329 517.08 271.329 516.28V508.82C271.329 507.94 271.009 507.6 270.309 507.6C269.609 507.6 269.289 507.94 269.289 508.82V516.28ZM278.792 510.34L281.352 512.66C282.692 513.86 282.992 514.58 282.992 515.92V516.28C282.992 518.8 282.032 520.2 279.132 520.2C276.232 520.2 275.272 519.02 275.272 515.8V515.4C275.272 514.82 275.432 514.66 276.012 514.66H277.372C277.952 514.66 278.112 514.82 278.112 515.4V516.28C278.112 517.08 278.432 517.4 279.132 517.4C279.832 517.4 280.152 517.1 280.152 516.38V516C280.152 515.44 280.032 515.16 279.292 514.5L276.892 512.36C275.552 511.18 275.272 510.5 275.272 509.16V508.72C275.272 506.2 276.232 504.8 279.132 504.8C282.032 504.8 282.992 505.98 282.992 509.2V509.6C282.992 510.18 282.832 510.34 282.252 510.34H280.892C280.312 510.34 280.152 510.18 280.152 509.6V508.72C280.152 507.92 279.832 507.6 279.132 507.6C278.432 507.6 278.112 507.9 278.112 508.62V508.96C278.112 509.54 278.232 509.82 278.792 510.34ZM290.088 507.8H288.848C288.568 507.8 288.488 507.88 288.488 508.16V519.26C288.488 519.84 288.328 520 287.748 520H286.468C285.888 520 285.728 519.84 285.728 519.26V508.16C285.728 507.88 285.648 507.8 285.368 507.8H284.128C283.548 507.8 283.388 507.64 283.388 507.06V505.74C283.388 505.16 283.548 505 284.128 505H290.088C290.668 505 290.828 505.16 290.828 505.74V507.06C290.828 507.64 290.668 507.8 290.088 507.8ZM293.384 519.26C293.384 519.84 293.224 520 292.644 520H291.364C290.784 520 290.624 519.84 290.624 519.26V514.14C290.624 513.26 290.664 512.9 290.904 512.1L292.724 506C292.964 505.16 293.164 505 294.204 505H294.924C295.964 505 296.164 505.16 296.404 506L298.224 512.1C298.464 512.88 298.504 513.26 298.504 514.14V519.26C298.504 519.84 298.344 520 297.764 520H296.484C295.904 520 295.744 519.84 295.744 519.26V516.62C295.744 516.34 295.664 516.26 295.384 516.26H293.744C293.464 516.26 293.384 516.34 293.384 516.62V519.26ZM295.444 513.46C295.664 513.46 295.784 513.38 295.784 513.2C295.784 513.1 295.764 513 295.744 512.9L294.824 509.04C294.784 508.84 294.744 508.8 294.564 508.8C294.384 508.8 294.344 508.84 294.304 509.04L293.384 512.9C293.364 513 293.344 513.1 293.344 513.2C293.344 513.38 293.464 513.46 293.684 513.46H295.444ZM308.114 519.26V516.92C308.114 516.22 308.074 516 307.774 515.46L307.294 514.6C307.074 514.24 306.954 514.18 306.594 514.18H306.234C305.954 514.18 305.874 514.26 305.874 514.54V519.26C305.874 519.84 305.714 520 305.134 520H303.854C303.274 520 303.114 519.84 303.114 519.26V505.74C303.114 505.16 303.274 505 303.854 505H306.494C309.534 505 310.914 506.04 310.914 508.6V510.04C310.914 511.48 310.694 512.42 309.874 513.08C309.774 513.14 309.754 513.2 309.754 513.26C309.754 513.32 309.774 513.38 309.834 513.48L310.394 514.5C310.814 515.28 310.874 515.6 310.874 516.66V519.26C310.874 519.84 310.714 520 310.134 520H308.854C308.274 520 308.114 519.84 308.114 519.26ZM305.874 508.06V511.08C305.874 511.36 305.954 511.44 306.234 511.44H306.654C307.594 511.44 308.074 511.02 308.074 510.06V509.02C308.074 508.08 307.634 507.7 306.654 507.7H306.234C305.954 507.7 305.874 507.78 305.874 508.06ZM315.229 505.74V519.26C315.229 519.84 315.069 520 314.489 520H313.209C312.629 520 312.469 519.84 312.469 519.26V505.74C312.469 505.16 312.629 505 313.209 505H314.489C315.069 505 315.229 505.16 315.229 505.74ZM324.52 515.2V515.8C324.52 519.02 323.6 520.2 320.7 520.2C317.8 520.2 316.84 519.02 316.84 515.8V509.2C316.84 505.98 317.8 504.8 320.7 504.8C323.6 504.8 324.52 505.98 324.52 509.2V509.8C324.52 510.38 324.36 510.54 323.78 510.54H322.5C321.92 510.54 321.76 510.38 321.76 509.8V508.72C321.76 507.92 321.42 507.6 320.72 507.6C320.02 507.6 319.68 507.92 319.68 508.72V516.28C319.68 517.08 320.02 517.4 320.72 517.4C321.42 517.4 321.76 517.08 321.76 516.28V515.2C321.76 514.62 321.92 514.46 322.5 514.46H323.78C324.36 514.46 324.52 514.62 324.52 515.2ZM328.071 519.26C328.071 519.84 327.911 520 327.331 520H326.051C325.471 520 325.311 519.84 325.311 519.26V514.14C325.311 513.26 325.351 512.9 325.591 512.1L327.411 506C327.651 505.16 327.851 505 328.891 505H329.611C330.651 505 330.851 505.16 331.091 506L332.911 512.1C333.151 512.88 333.191 513.26 333.191 514.14V519.26C333.191 519.84 333.031 520 332.451 520H331.171C330.591 520 330.431 519.84 330.431 519.26V516.62C330.431 516.34 330.351 516.26 330.071 516.26H328.431C328.151 516.26 328.071 516.34 328.071 516.62V519.26ZM330.131 513.46C330.351 513.46 330.471 513.38 330.471 513.2C330.471 513.1 330.451 513 330.431 512.9L329.511 509.04C329.471 508.84 329.431 508.8 329.251 508.8C329.071 508.8 329.031 508.84 328.991 509.04L328.071 512.9C328.051 513 328.031 513.1 328.031 513.2C328.031 513.38 328.151 513.46 328.371 513.46H330.131Z" fill="#EFB73B"/>
<path d="M1.26773 540.756C46.9206 541.394 92.5822 541.585 138.239 541.318C160.976 541.187 183.716 540.733 206.453 540.92C228.996 541.107 251.534 541.649 274.077 541.888C298.967 542.151 323.896 542.063 348.733 540.394C350.416 540.282 350.429 537.889 348.733 538.004C304.143 541.003 259.308 539.203 214.657 538.621C191.951 538.323 169.246 538.721 146.54 538.876C123.707 539.036 100.87 539.084 78.0369 539.016C52.4486 538.94 26.856 538.725 1.27213 538.367C-0.424072 538.343 -0.424072 540.733 1.27213 540.756L1.26773 540.756Z" fill="#84CCF5"/>
<path d="M63.0832 583V571.328H65.0841V583H63.0832ZM67.4147 583V571.328H69.4156L75.0349 579.765V571.328H77.0358V583H75.0349L69.4156 574.579V583H67.4147ZM82.7684 583L78.4831 571.328H80.6341L83.9856 580.949L87.3705 571.328H89.4882L85.2028 583H82.7684ZM90.9444 583V571.328H92.9454V583H90.9444ZM97.9938 583V572.945H94.5755V571.328H103.43V572.945H99.9947V583H97.9938ZM105.046 583V571.328H112.6V572.945H107.047V576.297H112.099V577.881H107.047V581.383H112.6V583H105.046ZM118.605 583.2C117.76 583.2 117.01 583.05 116.354 582.75C115.698 582.45 115.187 582.022 114.82 581.466C114.453 580.91 114.258 580.249 114.236 579.482H116.354C116.365 579.871 116.459 580.221 116.637 580.532C116.815 580.832 117.071 581.071 117.404 581.249C117.738 581.427 118.138 581.516 118.605 581.516C119.005 581.516 119.35 581.455 119.639 581.333C119.939 581.199 120.167 581.016 120.322 580.782C120.489 580.538 120.572 580.254 120.572 579.932C120.572 579.565 120.483 579.259 120.306 579.015C120.128 578.77 119.889 578.57 119.589 578.415C119.288 578.248 118.944 578.103 118.555 577.981C118.166 577.848 117.754 577.709 117.321 577.564C116.409 577.253 115.715 576.858 115.237 576.38C114.77 575.891 114.536 575.241 114.536 574.429C114.536 573.751 114.697 573.168 115.02 572.679C115.353 572.189 115.809 571.812 116.387 571.545C116.976 571.267 117.654 571.128 118.421 571.128C119.199 571.128 119.878 571.267 120.456 571.545C121.045 571.823 121.506 572.212 121.84 572.712C122.173 573.201 122.345 573.79 122.356 574.479H120.222C120.222 574.19 120.15 573.924 120.005 573.679C119.861 573.423 119.65 573.218 119.372 573.062C119.105 572.895 118.777 572.812 118.388 572.812C118.055 572.801 117.754 572.856 117.488 572.979C117.232 573.09 117.026 573.257 116.871 573.479C116.715 573.69 116.637 573.957 116.637 574.279C116.637 574.591 116.709 574.852 116.854 575.063C116.998 575.263 117.204 575.435 117.471 575.58C117.738 575.713 118.043 575.841 118.388 575.963C118.744 576.086 119.133 576.219 119.555 576.364C120.133 576.553 120.656 576.786 121.123 577.064C121.601 577.331 121.979 577.681 122.256 578.114C122.534 578.548 122.673 579.109 122.673 579.799C122.673 580.399 122.518 580.96 122.206 581.483C121.895 581.994 121.439 582.411 120.839 582.733C120.239 583.045 119.494 583.2 118.605 583.2ZM131.658 583V578.798L127.773 571.328H130.024L132.909 577.297H132.442L135.31 571.328H137.561L133.659 578.798V583H131.658ZM143.568 583.2C142.434 583.2 141.434 582.95 140.567 582.45C139.711 581.938 139.038 581.233 138.549 580.332C138.06 579.421 137.815 578.365 137.815 577.164C137.815 575.975 138.06 574.93 138.549 574.029C139.038 573.118 139.711 572.406 140.567 571.895C141.434 571.384 142.434 571.128 143.568 571.128C144.724 571.128 145.736 571.384 146.603 571.895C147.47 572.406 148.142 573.118 148.62 574.029C149.098 574.93 149.337 575.975 149.337 577.164C149.337 578.365 149.098 579.421 148.62 580.332C148.142 581.233 147.47 581.938 146.603 582.45C145.736 582.95 144.724 583.2 143.568 583.2ZM143.585 581.399C144.33 581.399 144.98 581.233 145.536 580.899C146.103 580.554 146.536 580.065 146.836 579.432C147.148 578.798 147.303 578.042 147.303 577.164C147.303 576.286 147.148 575.53 146.836 574.896C146.536 574.263 146.103 573.779 145.536 573.446C144.98 573.101 144.33 572.929 143.585 572.929C142.829 572.929 142.173 573.101 141.617 573.446C141.061 573.779 140.628 574.263 140.317 574.896C140.005 575.53 139.85 576.286 139.85 577.164C139.85 578.042 140.005 578.798 140.317 579.432C140.628 580.065 141.061 580.554 141.617 580.899C142.173 581.233 142.829 581.399 143.585 581.399ZM155.71 583.2C154.866 583.2 154.099 583.033 153.409 582.7C152.731 582.366 152.187 581.855 151.775 581.166C151.375 580.477 151.175 579.61 151.175 578.565V571.328H153.176V578.581C153.176 579.215 153.282 579.737 153.493 580.149C153.704 580.56 153.999 580.871 154.377 581.083C154.766 581.283 155.221 581.383 155.744 581.383C156.277 581.383 156.733 581.283 157.111 581.083C157.5 580.871 157.795 580.56 157.995 580.149C158.206 579.737 158.312 579.215 158.312 578.581V571.328H160.313V578.565C160.313 579.61 160.107 580.477 159.696 581.166C159.284 581.855 158.729 582.366 158.028 582.7C157.328 583.033 156.555 583.2 155.71 583.2Z" fill="#0E2C5E"/>
<g clip-path="url(#clip0_4162_829)">
<path d="M191.949 598.706L173.916 576.988L191.949 555.277L209.983 576.996L191.949 598.714V598.706ZM177.209 576.988L191.941 594.729L206.673 576.988L191.949 559.246L177.209 576.988Z" fill="#0E2C5E"/>
<path d="M191.949 590.586L180.66 576.988L191.949 563.398V590.586Z" fill="#0E2C5E"/>
<path d="M191.949 590.586L203.238 576.988L191.949 563.398V590.586Z" fill="#0E2C5E"/>
<path d="M206.256 568.65L208.624 561.655C208.707 561.405 208.549 561.122 208.34 561.155L202.638 561.53C202.454 561.555 202.304 561.347 202.329 561.114L203.329 556.136C203.363 555.886 203.188 555.678 202.996 555.728L197.927 556.178C197.735 556.228 197.56 556.011 197.602 555.753L198.652 550.434C198.694 550.184 198.519 549.958 198.319 550.008L191.949 551.609L206.256 568.65Z" fill="#0E2C5E"/>
<path d="M177.642 568.65L175.275 561.647C175.191 561.397 175.35 561.114 175.558 561.147L181.261 561.522C181.444 561.547 181.594 561.339 181.569 561.105L180.569 556.128C180.535 555.878 180.71 555.669 180.902 555.719L185.971 556.17C186.163 556.22 186.338 556.003 186.296 555.744L185.246 550.425C185.204 550.175 185.379 549.95 185.579 550L191.949 551.601L177.642 568.65Z" fill="#0E2C5E"/>
<path d="M206.256 585.358L208.624 592.353C208.707 592.603 208.549 592.887 208.34 592.853L202.638 592.478C202.454 592.453 202.304 592.662 202.329 592.895L203.329 597.872C203.363 598.122 203.188 598.331 202.996 598.281L197.927 597.831C197.735 597.781 197.56 597.997 197.602 598.256L198.652 603.575C198.694 603.825 198.519 604.05 198.319 604L191.949 602.399L206.256 585.358Z" fill="#0E2C5E"/>
<path d="M177.642 585.358L175.275 592.353C175.191 592.603 175.35 592.887 175.558 592.853L181.261 592.478C181.444 592.453 181.594 592.662 181.569 592.895L180.569 597.872C180.535 598.122 180.71 598.331 180.902 598.281L185.971 597.831C186.163 597.781 186.338 597.997 186.296 598.256L185.246 603.575C185.204 603.825 185.379 604.05 185.579 604L191.949 602.399L177.642 585.358Z" fill="#0E2C5E"/>
<path d="M223.364 573.644C223.214 574.203 222.913 574.637 222.472 574.928C222.021 575.22 221.446 575.37 220.746 575.37C219.779 575.37 219.02 575.053 218.495 574.428C218.028 573.878 217.769 573.111 217.711 572.152H224.789V571.418C224.789 570.56 224.614 569.793 224.272 569.151C223.931 568.5 223.439 567.992 222.813 567.625C222.196 567.258 221.463 567.075 220.637 567.075C219.812 567.075 219.003 567.283 218.353 567.692C217.703 568.1 217.186 568.667 216.811 569.392C216.444 570.109 216.252 570.943 216.252 571.877C216.252 572.811 216.444 573.661 216.819 574.378C217.194 575.095 217.728 575.654 218.395 576.062C219.062 576.462 219.845 576.662 220.721 576.662C221.796 576.662 222.688 576.404 223.38 575.895C224.072 575.387 224.547 574.645 224.781 573.694L224.814 573.561H223.38L223.355 573.636L223.364 573.644ZM220.629 568.375C221.429 568.375 222.08 568.625 222.572 569.126C223.038 569.601 223.289 570.243 223.305 571.018H217.744C217.803 570.618 217.903 570.259 218.053 569.943C218.286 569.442 218.628 569.051 219.07 568.784C219.512 568.517 220.037 568.375 220.629 568.375Z" fill="#0E2C5E"/>
<path d="M228.392 564.507H226.933V567.325H225.148V568.6H226.933V576.446H228.392V568.6H230.184V567.325H228.392V564.507Z" fill="#0E2C5E"/>
<path d="M235.787 567.083C235.02 567.083 234.353 567.25 233.811 567.583C233.377 567.85 233.019 568.184 232.744 568.592V562.814H231.26V576.429H232.744V571.485C232.744 570.926 232.852 570.41 233.069 569.959C233.277 569.509 233.594 569.142 234.011 568.867C234.42 568.6 234.936 568.459 235.553 568.459C236.004 568.459 236.404 568.542 236.737 568.717C237.071 568.884 237.329 569.167 237.521 569.551C237.713 569.943 237.804 570.493 237.804 571.168V576.446H239.288V570.893C239.288 569.759 239.005 568.834 238.455 568.142C237.896 567.442 237.004 567.091 235.795 567.091L235.787 567.083Z" fill="#0E2C5E"/>
<path d="M247.725 573.644C247.575 574.203 247.275 574.637 246.833 574.928C246.383 575.22 245.807 575.37 245.107 575.37C244.14 575.37 243.381 575.053 242.856 574.428C242.389 573.878 242.131 573.111 242.072 572.152H249.151V571.418C249.151 570.56 248.975 569.793 248.634 569.151C248.292 568.5 247.8 567.992 247.175 567.625C246.558 567.258 245.824 567.075 244.999 567.075C244.173 567.075 243.365 567.283 242.714 567.692C242.064 568.1 241.547 568.667 241.172 569.392C240.805 570.109 240.613 570.943 240.613 571.877C240.613 572.811 240.805 573.661 241.18 574.378C241.555 575.095 242.089 575.654 242.756 576.062C243.423 576.462 244.207 576.662 245.082 576.662C246.158 576.662 247.05 576.404 247.742 575.895C248.434 575.387 248.909 574.645 249.142 573.694L249.176 573.561H247.742L247.717 573.636L247.725 573.644ZM244.99 568.375C245.791 568.375 246.441 568.625 246.933 569.126C247.4 569.601 247.65 570.243 247.667 571.018H242.106C242.164 570.618 242.264 570.259 242.414 569.943C242.648 569.442 242.989 569.051 243.431 568.784C243.873 568.517 244.398 568.375 244.99 568.375Z" fill="#0E2C5E"/>
<path d="M254.937 567.141C254.07 567.058 253.303 567.241 252.711 567.683C252.436 567.892 252.22 568.133 252.061 568.409L251.994 567.325H250.594V576.446H252.078V571.26C252.078 570.435 252.311 569.768 252.778 569.292C253.237 568.809 253.87 568.567 254.662 568.567H255.471V567.241L255.388 567.225C255.238 567.191 255.087 567.158 254.946 567.15L254.937 567.141Z" fill="#0E2C5E"/>
<path d="M262.707 573.644C262.557 574.203 262.257 574.637 261.815 574.928C261.365 575.22 260.79 575.37 260.089 575.37C259.122 575.37 258.364 575.053 257.838 574.428C257.372 573.878 257.113 573.111 257.055 572.152H264.133V571.418C264.133 570.56 263.958 569.793 263.616 569.151C263.274 568.5 262.782 567.992 262.157 567.625C261.54 567.258 260.806 567.075 259.981 567.075C259.156 567.075 258.347 567.283 257.697 567.692C257.046 568.1 256.529 568.667 256.154 569.392C255.787 570.109 255.596 570.943 255.596 571.877C255.596 572.811 255.787 573.661 256.163 574.378C256.538 575.095 257.071 575.654 257.738 576.062C258.405 576.462 259.189 576.662 260.064 576.662C261.14 576.662 262.032 576.404 262.724 575.895C263.416 575.387 263.891 574.645 264.125 573.694L264.158 573.561H262.724L262.699 573.636L262.707 573.644ZM259.973 568.375C260.773 568.375 261.423 568.625 261.915 569.126C262.382 569.601 262.632 570.243 262.649 571.018H257.088C257.146 570.618 257.246 570.259 257.397 569.943C257.63 569.442 257.972 569.051 258.414 568.784C258.856 568.517 259.381 568.375 259.973 568.375Z" fill="#0E2C5E"/>
<path d="M271.836 572.16C271.836 573.186 271.603 573.978 271.144 574.511C270.686 575.045 270.044 575.312 269.219 575.312C268.552 575.312 268.001 575.103 267.593 574.695C267.176 574.286 266.967 573.561 266.967 572.544V567.3H265.467V572.944C265.467 574.045 265.759 574.945 266.326 575.629C266.901 576.312 267.735 576.662 268.81 576.662C269.527 576.662 270.186 576.496 270.769 576.171C271.244 575.904 271.611 575.57 271.87 575.162L272.011 576.437H273.312V567.316H271.828V572.152L271.836 572.16Z" fill="#0E2C5E"/>
<path d="M287.169 568C286.56 567.392 285.76 567.083 284.776 567.083C283.934 567.083 283.217 567.308 282.658 567.758C282.3 568.042 282.033 568.392 281.85 568.809C281.658 568.392 281.391 568.042 281.041 567.758C280.491 567.308 279.799 567.083 278.973 567.083C278.265 567.083 277.648 567.258 277.122 567.608C276.806 567.817 276.547 568.075 276.347 568.375L276.23 567.325H274.93V576.446H276.414V570.818C276.414 570.385 276.505 569.984 276.689 569.626C276.872 569.267 277.131 568.984 277.481 568.775C277.823 568.567 278.24 568.459 278.706 568.459C279.348 568.459 279.865 568.659 280.24 569.051C280.616 569.442 280.807 570.018 280.807 570.743V576.446H282.266V570.835C282.266 570.401 282.358 569.993 282.542 569.626C282.725 569.259 282.983 568.976 283.325 568.759C283.659 568.542 284.067 568.434 284.542 568.434C285.193 568.434 285.718 568.642 286.085 569.042C286.46 569.451 286.643 570.026 286.643 570.76V576.446H288.086V570.501C288.086 569.442 287.777 568.6 287.169 568Z" fill="#0E2C5E"/>
<path d="M223.588 588.41C223.046 588.776 222.388 588.96 221.629 588.96C220.962 588.96 220.37 588.801 219.87 588.476C219.37 588.159 218.978 587.701 218.703 587.117C218.427 586.534 218.294 585.858 218.294 585.083C218.294 584.308 218.427 583.591 218.703 583.007C218.978 582.423 219.37 581.982 219.87 581.665C220.37 581.348 220.962 581.19 221.629 581.19C222.379 581.19 223.021 581.373 223.538 581.732C224.063 582.09 224.422 582.599 224.614 583.249H226.673C226.548 582.449 226.264 581.757 225.806 581.165C225.347 580.581 224.772 580.122 224.072 579.797C223.371 579.472 222.579 579.314 221.696 579.314C220.62 579.314 219.67 579.555 218.844 580.031C218.019 580.506 217.385 581.181 216.935 582.04C216.485 582.899 216.26 583.916 216.26 585.075C216.26 586.234 216.477 587.259 216.927 588.118C217.369 588.977 217.986 589.644 218.786 590.11C219.586 590.586 220.528 590.819 221.612 590.819C222.496 590.819 223.296 590.652 224.013 590.335C224.73 590.01 225.322 589.552 225.798 588.96C226.273 588.368 226.581 587.693 226.723 586.917H224.697C224.514 587.534 224.147 588.026 223.605 588.393L223.588 588.41Z" fill="#0E2C5E"/>
<path d="M233.543 583.407C232.934 583.074 232.242 582.907 231.458 582.907C230.675 582.907 229.991 583.074 229.383 583.407C228.774 583.741 228.299 584.208 227.949 584.8C227.607 585.392 227.432 586.084 227.432 586.867C227.432 587.651 227.607 588.335 227.949 588.935C228.29 589.527 228.774 589.994 229.383 590.327C229.991 590.661 230.683 590.827 231.458 590.827C232.234 590.827 232.934 590.661 233.543 590.327C234.143 589.994 234.618 589.527 234.968 588.935C235.31 588.343 235.485 587.651 235.485 586.867C235.485 586.084 235.31 585.4 234.968 584.8C234.627 584.208 234.151 583.741 233.543 583.407ZM233.351 588.068C233.168 588.41 232.918 588.685 232.592 588.877C232.267 589.068 231.892 589.168 231.467 589.168C231.042 589.168 230.666 589.068 230.35 588.877C230.033 588.685 229.774 588.418 229.591 588.068C229.408 587.718 229.308 587.317 229.308 586.867C229.308 586.417 229.399 586 229.591 585.658C229.783 585.317 230.033 585.05 230.35 584.858C230.666 584.666 231.042 584.566 231.467 584.566C231.892 584.566 232.267 584.666 232.592 584.858C232.918 585.05 233.168 585.317 233.351 585.658C233.534 586 233.626 586.4 233.626 586.867C233.626 587.334 233.534 587.726 233.351 588.068Z" fill="#0E2C5E"/>
<path d="M240.395 586.35L239.036 586.034C238.386 585.883 238.061 585.6 238.061 585.183C238.061 584.908 238.161 584.691 238.369 584.525C238.57 584.366 238.853 584.283 239.22 584.283C239.587 584.283 239.87 584.374 240.07 584.566C240.27 584.758 240.379 585.008 240.379 585.333H242.146C242.138 584.85 242.013 584.416 241.771 584.049C241.529 583.682 241.196 583.399 240.771 583.199C240.345 582.999 239.853 582.89 239.295 582.89C238.736 582.89 238.203 582.982 237.752 583.174C237.302 583.366 236.952 583.632 236.694 583.991C236.435 584.349 236.302 584.766 236.302 585.258C236.302 585.858 236.469 586.325 236.794 586.667C237.127 587.009 237.627 587.251 238.311 587.409L239.67 587.726C240.004 587.801 240.237 587.901 240.354 588.043C240.479 588.185 240.537 588.351 240.537 588.526C240.537 588.801 240.42 589.018 240.195 589.185C239.97 589.352 239.628 589.427 239.178 589.427C238.761 589.427 238.436 589.327 238.203 589.135C237.969 588.943 237.844 588.685 237.836 588.36H236.068C236.068 589.102 236.343 589.702 236.902 590.16C237.461 590.619 238.203 590.844 239.136 590.844C239.753 590.844 240.304 590.744 240.779 590.544C241.254 590.344 241.629 590.06 241.888 589.694C242.155 589.327 242.288 588.885 242.288 588.376C242.288 587.801 242.129 587.351 241.804 587.034C241.488 586.717 241.012 586.492 240.379 586.35H240.395Z" fill="#0E2C5E"/>
<path d="M245.974 580.773H244.115V583.115H242.664V584.675H244.115V590.644H245.974V584.675H247.425V583.115H245.974V580.773Z" fill="#0E2C5E"/>
<path d="M253.244 583.249C252.76 583.007 252.169 582.89 251.493 582.89C250.818 582.89 250.234 582.999 249.717 583.224C249.2 583.449 248.809 583.757 248.525 584.158C248.242 584.558 248.108 585.033 248.108 585.583H249.692C249.692 585.183 249.842 584.883 250.134 584.658C250.426 584.441 250.851 584.333 251.401 584.333C251.718 584.333 251.993 584.383 252.227 584.474C252.46 584.566 252.644 584.725 252.769 584.933C252.894 585.141 252.961 585.417 252.961 585.767V585.933L250.701 586.117C249.809 586.192 249.117 586.425 248.634 586.842C248.15 587.251 247.908 587.801 247.908 588.493C247.908 589.185 248.142 589.76 248.6 590.194C249.059 590.627 249.692 590.844 250.484 590.844C251.076 590.844 251.602 590.719 252.06 590.477C252.519 590.235 252.835 589.919 252.994 589.535L253.127 590.644H254.761V586.075C254.761 585.375 254.628 584.783 254.361 584.316C254.094 583.841 253.719 583.491 253.236 583.249H253.244ZM252.969 587.601C252.969 588.176 252.802 588.635 252.46 588.96C252.118 589.285 251.66 589.443 251.085 589.443C250.676 589.443 250.359 589.36 250.143 589.185C249.917 589.01 249.809 588.76 249.809 588.426C249.809 588.118 249.934 587.876 250.176 587.684C250.418 587.493 250.835 587.376 251.41 587.326L252.977 587.201V587.601H252.969Z" fill="#0E2C5E"/>
<path d="M268.125 584.875C268.467 584.349 268.633 583.716 268.633 582.974C268.633 581.873 268.283 581.023 267.574 580.414C266.866 579.806 265.882 579.497 264.623 579.497H260.371V590.636H262.322V586.475H264.715L266.607 590.636H268.742L266.624 586.067C267.283 585.792 267.783 585.392 268.125 584.866V584.875ZM266.074 584.291C265.732 584.608 265.248 584.766 264.623 584.766H262.322V581.248H264.623C265.24 581.248 265.724 581.398 266.074 581.698C266.416 581.998 266.591 582.432 266.591 582.99C266.591 583.549 266.416 583.983 266.074 584.299V584.291Z" fill="#0E2C5E"/>
<path d="M270.926 579.372C270.609 579.372 270.343 579.48 270.126 579.689C269.909 579.906 269.801 580.164 269.801 580.481C269.801 580.798 269.909 581.064 270.126 581.281C270.343 581.498 270.609 581.606 270.926 581.606C271.243 581.606 271.51 581.498 271.727 581.281C271.943 581.064 272.052 580.798 272.052 580.481C272.052 580.164 271.943 579.897 271.727 579.689C271.51 579.472 271.243 579.372 270.926 579.372Z" fill="#0E2C5E"/>
<path d="M271.869 583.116H270.01V590.644H271.869V583.116Z" fill="#0E2C5E"/>
<path d="M277.988 588.852C277.68 589.077 277.288 589.185 276.821 589.185C276.421 589.185 276.079 589.093 275.795 588.902C275.512 588.71 275.287 588.443 275.128 588.101C274.978 587.759 274.903 587.342 274.903 586.867C274.903 586.392 274.987 585.975 275.145 585.633C275.303 585.292 275.537 585.025 275.837 584.833C276.137 584.641 276.479 584.55 276.862 584.55C277.313 584.55 277.68 584.658 277.98 584.875C278.28 585.091 278.488 585.417 278.597 585.842H280.456C280.356 584.941 279.972 584.216 279.322 583.682C278.663 583.149 277.83 582.882 276.796 582.882C276.054 582.882 275.403 583.049 274.837 583.391C274.27 583.732 273.828 584.199 273.511 584.8C273.194 585.4 273.027 586.084 273.027 586.859C273.027 587.634 273.186 588.36 273.494 588.952C273.803 589.543 274.245 590.01 274.812 590.336C275.378 590.669 276.045 590.827 276.804 590.827C277.463 590.827 278.055 590.702 278.572 590.452C279.088 590.202 279.514 589.86 279.847 589.418C280.181 588.977 280.381 588.46 280.464 587.868H278.588C278.488 588.285 278.28 588.601 277.971 588.826L277.988 588.852Z" fill="#0E2C5E"/>
<path d="M287.694 584.316C287.427 583.841 287.052 583.491 286.568 583.249C286.085 583.007 285.493 582.89 284.817 582.89C284.142 582.89 283.558 582.999 283.042 583.224C282.525 583.449 282.133 583.757 281.849 584.158C281.566 584.558 281.433 585.033 281.433 585.583H283.017C283.017 585.183 283.167 584.883 283.458 584.658C283.75 584.441 284.175 584.333 284.726 584.333C285.043 584.333 285.318 584.383 285.551 584.474C285.785 584.566 285.968 584.725 286.093 584.933C286.218 585.141 286.285 585.417 286.285 585.767V585.933L284.025 586.117C283.133 586.192 282.441 586.425 281.958 586.842C281.474 587.251 281.232 587.801 281.232 588.493C281.232 589.185 281.466 589.76 281.924 590.194C282.383 590.627 283.017 590.844 283.809 590.844C284.401 590.844 284.926 590.719 285.384 590.477C285.843 590.235 286.16 589.919 286.318 589.535L286.452 590.644H288.086V586.075C288.086 585.375 287.952 584.783 287.685 584.316H287.694ZM286.285 587.601C286.285 588.176 286.118 588.635 285.776 588.96C285.434 589.285 284.976 589.443 284.401 589.443C283.992 589.443 283.675 589.36 283.458 589.185C283.233 589.01 283.125 588.76 283.125 588.426C283.125 588.118 283.25 587.876 283.492 587.684C283.734 587.493 284.15 587.376 284.726 587.326L286.293 587.201V587.601H286.285Z" fill="#0E2C5E"/>
</g>
<defs>
<clipPath id="clip0_4162_829">
<rect width="114.17" height="54" fill="white" transform="translate(173.916 550)"/>
</clipPath>
</defs>
</svg>
