<svg width="350" height="616" viewBox="0 0 350 616" fill="none" xmlns="http://www.w3.org/2000/svg">
<rect width="350" height="616" fill="white"/>
<path d="M278.673 178.951L302.36 207.531L287.472 225.49C271.026 239.105 255.232 245.306 240.183 246.613C257.671 244.356 268.392 232.03 268.392 215.496C268.392 198.963 254.995 185.517 238.464 185.517C226.845 185.517 216.767 192.159 211.813 201.855C211.813 181.012 228.666 164.962 249.473 164.962C260.931 164.962 271.712 170.815 278.622 178.891C278.639 178.908 278.656 178.934 278.673 178.951Z" fill="#84CCF5"/>
<path d="M240.183 246.613C255.232 245.306 271.026 239.105 287.472 225.49L248.804 272.139C238.472 274.362 228.479 274.243 218.834 272.512C210.822 256.352 194.181 245.247 174.958 245.247C170.664 245.247 166.497 245.798 162.526 246.842L162.5 246.74C148.62 237.621 135.985 228.332 124.722 222.69C101.043 210.831 78.1781 218.576 63.5951 226.745L47.8604 207.76C49.7066 206.08 64.7638 192.863 85.1817 188.274C95.8775 185.865 108.047 185.822 120.564 191.065C121.783 191.574 123.011 192.134 124.239 192.753C133.952 197.622 144.699 205.461 156.386 213.69C180.555 230.698 208.747 249.336 240.183 246.613Z" fill="#84CCF5"/>
<path d="M278.207 84.8803C279.545 84.6852 280.544 86.4412 280.011 88.0446L265.123 132.191L175.017 24.6749L215.124 14.5968C216.352 14.2575 217.453 15.6572 217.216 17.2521L210.594 50.8117C210.356 52.3981 211.432 53.7893 212.66 53.4754L244.604 50.642C245.806 50.3282 246.873 51.6685 246.678 53.2379L240.386 84.6089C240.2 86.1019 241.157 87.4083 242.317 87.2386L278.207 84.8803Z" fill="#F67A38"/>
<path d="M256.671 152.415L278.622 178.891C271.712 170.815 260.931 164.962 249.473 164.962C228.666 164.962 211.813 181.012 211.813 201.855C216.767 192.159 226.845 185.517 238.464 185.517C254.995 185.517 268.392 198.946 268.392 215.496C268.392 232.047 257.671 244.356 240.183 246.613C208.747 249.336 180.555 230.698 156.386 213.69L188.135 176.516L204.64 157.2L211.999 148.581C214.159 146.061 216.708 144.059 219.494 142.617C227.615 138.401 237.702 138.851 245.561 144.475L256.671 152.415Z" fill="#84E9B7"/>
<path d="M222.467 111.144L256.671 152.415L245.561 144.475C237.702 138.851 227.615 138.401 219.494 142.617L219.308 141.684C219.807 139.334 219.875 136.857 219.435 134.337C218.681 130.079 216.581 126.397 213.642 123.657L222.467 111.144Z" fill="#EFB73B"/>
<path d="M248.804 272.139L223.898 302.186L223.305 302.093C223.711 299.557 223.923 296.961 223.923 294.306C223.923 286.476 222.094 279.078 218.834 272.512C228.479 274.243 238.472 274.362 248.804 272.139Z" fill="#F9FFF2"/>
<path d="M169.089 380.215C169.089 381.572 169.055 382.344 169.055 382.344C169.055 384.966 167.785 387.29 165.82 388.732C164.516 389.691 162.907 390.251 161.171 390.251C160.171 390.251 159.206 390.064 158.325 389.716C157.597 389.436 156.919 389.055 156.318 388.58C105.684 349.438 134.257 321.588 134.257 321.588C130.379 315.794 127.703 309.126 126.585 301.949C126.195 299.455 125.992 296.91 125.992 294.306C125.992 282.421 130.209 271.52 137.23 263.028C143.666 255.24 152.465 249.48 162.526 246.842C166.497 245.798 170.664 245.247 174.958 245.247C194.181 245.247 210.822 256.352 218.834 272.512C222.094 279.078 223.923 286.476 223.923 294.306C223.923 296.961 223.711 299.557 223.305 302.093C222.187 309.143 219.562 315.7 215.768 321.409L216.005 321.588C216.005 321.588 244.578 349.438 193.944 388.58C192.606 389.623 190.921 390.251 189.092 390.251C187.262 390.251 185.577 389.623 184.239 388.571C182.393 387.129 181.207 384.872 181.207 382.344C181.207 382.344 181.174 381.572 181.174 380.215H180.852L174.958 387.986L169.411 380.215H169.089ZM212.05 294.306C212.05 291.761 211.796 289.275 211.305 286.866C207.867 269.908 192.903 257.149 174.958 257.149C157.013 257.149 142.074 269.882 138.619 286.815C138.128 289.241 137.865 291.744 137.865 294.306C137.865 304.044 141.608 312.918 147.739 319.543C154.514 326.873 164.202 331.462 174.958 331.462C185.713 331.462 195.528 326.813 202.303 319.399C208.358 312.79 212.05 303.976 212.05 294.306Z" fill="#F67A38"/>
<path d="M200.66 84.8379L222.467 111.144L213.642 123.657C210.28 120.518 205.826 118.618 201.066 118.499L201.092 117.312L200.66 84.8379Z" fill="#F9FFF2"/>
<path d="M219.435 134.337C219.875 136.857 219.807 139.334 219.308 141.684L219.494 142.617C216.708 144.059 214.159 146.061 211.999 148.581L204.64 157.2L203.903 156.564C199.584 157.327 195.35 156.58 191.742 154.697C188.821 153.179 186.314 150.922 184.502 148.123C183.147 146.027 182.173 143.635 181.716 141.014C181.555 140.098 181.461 139.19 181.436 138.282C181.309 134.609 182.258 131.071 184.019 128.043C185.628 125.269 187.923 122.911 190.709 121.239C192.665 120.052 194.867 119.212 197.247 118.788C198.534 118.559 199.813 118.465 201.066 118.499C205.826 118.618 210.28 120.518 213.642 123.657C216.581 126.397 218.681 130.079 219.435 134.337Z" fill="#EFB73B"/>
<path d="M211.305 286.866C211.796 289.275 212.05 291.761 212.05 294.306C212.05 303.976 208.358 312.79 202.303 319.399C203.522 317.609 204.149 315.709 204.411 313.893C204.987 309.915 201.702 306.318 197.713 306.81C197.137 306.886 196.553 306.92 195.96 306.92C187.991 306.92 181.572 300.269 181.944 292.21C182.274 285.05 188.152 279.163 195.299 278.832C200.347 278.603 206.749 280.02 211.305 286.866ZM201.253 292.872C201.253 289.945 198.881 287.57 195.96 287.57C193.038 287.57 190.667 289.945 190.667 292.872C190.667 295.799 193.038 298.174 195.96 298.174C198.881 298.174 201.253 295.799 201.253 292.872Z" fill="#EFB73B"/>
<path d="M204.64 157.2L188.135 176.516L187.491 175.965L181.419 169.322L191.742 154.697C195.35 156.58 199.584 157.327 203.903 156.564L204.64 157.2Z" fill="#F9FFF2"/>
<path d="M197.713 306.81C201.702 306.318 204.987 309.915 204.411 313.893C204.149 315.709 203.522 317.609 202.303 319.399C195.528 326.813 185.789 331.462 174.958 331.462C164.126 331.462 154.514 326.873 147.739 319.543L147.934 319.365C146.715 317.575 146.088 315.675 145.826 313.859C145.258 309.881 148.544 306.284 152.524 306.784C153.1 306.852 153.684 306.886 154.286 306.886C162.246 306.886 168.665 300.235 168.293 292.176C167.962 285.016 162.085 279.129 154.946 278.798C149.89 278.569 143.497 279.986 138.932 286.832L138.619 286.815C142.074 269.882 157.029 257.149 174.958 257.149C192.886 257.149 207.867 269.908 211.305 286.866C206.749 280.02 200.347 278.603 195.299 278.832C188.152 279.163 182.274 285.05 181.944 292.21C181.572 300.269 187.991 306.92 195.96 306.92C196.553 306.92 197.137 306.886 197.713 306.81ZM176.321 302.78C176.321 302.348 175.703 301.991 174.932 301.991C174.162 301.991 173.552 302.348 173.552 302.78C173.552 303.213 174.17 303.569 174.932 303.569C175.694 303.569 176.321 303.221 176.321 302.78Z" fill="#F9FFF2"/>
<path d="M200.66 84.8379L201.092 117.312L201.066 118.499C199.813 118.465 198.534 118.559 197.247 118.788C194.867 119.212 192.665 120.052 190.709 121.239L190.159 120.349L160.934 70.883L175.017 53.8996L200.66 84.8379Z" fill="#EFB73B"/>
<path d="M195.96 298.174C198.881 298.174 201.253 295.799 201.253 292.872C201.253 289.945 198.881 287.57 195.96 287.57C193.038 287.57 190.667 289.945 190.667 292.872C190.667 295.799 193.038 298.174 195.96 298.174Z" fill="#F9FFF2"/>
<path d="M191.742 154.697L181.419 169.322L172.493 159.55C170.876 157.777 168.928 156.504 166.828 155.732L183.13 148.64L184.502 148.123C186.314 150.922 188.821 153.179 191.742 154.697Z" fill="#EFB73B"/>
<path d="M190.159 120.349L190.709 121.239C187.923 122.911 185.628 125.269 184.019 128.043L183.511 127.738L136.264 101.957L135.621 101.423L160.934 70.883L190.159 120.349Z" fill="#F9FFF2"/>
<path d="M148.078 162.756L151.516 159.219C155.632 154.986 161.67 153.84 166.828 155.732C168.928 156.504 170.876 157.777 172.493 159.55L181.419 169.322L187.491 175.965L188.135 176.516L156.386 213.69C144.699 205.461 133.952 197.622 124.239 192.753C123.011 192.134 121.783 191.574 120.564 191.065L148.078 162.756Z" fill="#84E9B7"/>
<path d="M184.502 148.123L183.13 148.64L166.828 155.732C161.67 153.84 155.632 154.986 151.516 159.219L148.078 162.756L85.1647 188.197L85.1817 188.274C64.7638 192.863 49.7066 206.08 47.8604 207.76L47.6656 207.531L103.305 140.403L181.428 138.282C181.453 139.19 181.546 140.098 181.707 141.014C182.164 143.635 183.138 146.027 184.493 148.123L184.502 148.123Z" fill="#F9FFF2"/>
<path d="M183.511 127.738L184.019 128.043C182.258 131.071 181.309 134.609 181.436 138.282L103.313 140.403L135.621 101.423L136.264 101.957L183.511 127.738Z" fill="#EFB73B"/>
<path d="M175.017 24.6749L84.9022 132.191L70.0144 88.0446C69.4808 86.4412 70.4801 84.6852 71.8182 84.8803L107.717 87.2386C108.868 87.4083 109.825 86.1019 109.639 84.6089L103.347 53.2379C103.152 51.6685 104.219 50.3282 105.422 50.642L137.365 53.4754C138.593 53.7893 139.669 52.3981 139.44 50.8117L132.818 17.2521C132.572 15.6572 133.673 14.2575 134.901 14.5968L175.017 24.6749Z" fill="#F67A38"/>
<path d="M168.293 292.176C168.665 300.235 162.246 306.886 154.286 306.886C153.684 306.886 153.1 306.852 152.524 306.784C148.544 306.284 145.258 309.881 145.826 313.859C146.088 315.675 146.715 317.575 147.934 319.365L147.739 319.543C141.608 312.918 137.865 304.044 137.865 294.306C137.865 291.744 138.128 289.241 138.619 286.815L138.932 286.832C143.497 279.986 149.89 278.569 154.946 278.798C162.085 279.129 167.962 285.016 168.293 292.176ZM159.579 292.838C159.579 289.911 157.207 287.536 154.286 287.536C151.364 287.536 148.993 289.911 148.993 292.838C148.993 295.765 151.356 298.14 154.286 298.14C157.216 298.14 159.579 295.765 159.579 292.838Z" fill="#EFB73B"/>
<path d="M162.5 246.74L162.526 246.842C152.465 249.48 143.666 255.24 137.23 263.028C132.216 259.796 127.423 256.912 122.859 254.621C108.064 247.207 95.4372 247.046 83.0984 250.269L63.5951 226.745C78.1781 218.576 101.043 210.831 124.722 222.69C135.985 228.332 148.62 237.621 162.5 246.74Z" fill="#F9FFF2"/>
<path d="M154.286 287.536C157.207 287.536 159.579 289.911 159.579 292.838C159.579 295.765 157.207 298.14 154.286 298.14C151.364 298.14 148.993 295.765 148.993 292.838C148.993 289.911 151.356 287.536 154.286 287.536Z" fill="#F9FFF2"/>
<path d="M148.078 162.756L120.564 191.065C108.047 185.822 95.8775 185.865 85.1817 188.274L85.1647 188.197L148.078 162.756Z" fill="#EFB73B"/>
<path d="M126.585 301.949L126.009 302.042L83.0984 250.269C95.4372 247.046 108.064 247.207 122.859 254.621C127.423 256.912 132.216 259.796 137.23 263.028C130.209 271.52 125.992 282.421 125.992 294.306C125.992 296.91 126.195 299.455 126.585 301.949Z" fill="#84CCF5"/>
<path d="M185.433 311.917C184.375 312.553 183.172 312.892 181.944 312.892C180.005 312.892 178.15 312.052 176.804 310.525C176.711 310.424 176.6 310.33 176.49 310.246C176.465 310.229 176.44 310.203 176.414 310.186C176.329 310.127 176.236 310.076 176.143 310.033C176.084 310 176.033 309.966 175.974 309.94C175.915 309.915 175.847 309.898 175.779 309.872C175.686 309.838 175.593 309.804 175.491 309.787C175.44 309.779 175.398 309.779 175.347 309.77C175.229 309.753 175.11 309.737 174.991 309.737C174.983 309.737 174.966 309.737 174.958 309.737C174.924 309.737 174.898 309.745 174.864 309.745C174.729 309.745 174.585 309.762 174.449 309.787C174.399 309.796 174.348 309.813 174.297 309.83C174.178 309.864 174.06 309.906 173.941 309.949C173.891 309.974 173.84 309.991 173.797 310.016C173.687 310.076 173.586 310.135 173.484 310.212C173.442 310.246 173.399 310.271 173.357 310.305C173.323 310.33 173.281 310.356 173.247 310.39C173.188 310.449 173.137 310.517 173.078 310.576C173.061 310.602 173.035 310.619 173.01 310.636C171.706 312.069 169.868 312.892 167.962 312.892C166.726 312.892 165.524 312.553 164.473 311.917C163.271 311.187 161.713 311.569 160.984 312.773C160.256 313.978 160.637 315.539 161.84 316.269C163.677 317.388 165.795 317.974 167.962 317.974C170.486 317.974 172.934 317.159 174.949 315.683C176.965 317.159 179.404 317.974 181.944 317.974C184.095 317.974 186.212 317.38 188.059 316.269C189.261 315.548 189.651 313.978 188.922 312.773C188.202 311.569 186.636 311.179 185.433 311.908V311.917Z" fill="#0E2C5E"/>
<path d="M174.932 306.114C177.176 306.114 178.862 304.681 178.862 302.78C178.862 300.88 177.176 299.446 174.932 299.446C172.688 299.446 171.011 300.88 171.011 302.78C171.011 304.681 172.696 306.114 174.932 306.114Z" fill="#0E2C5E"/>
<path d="M195.96 285.025C191.641 285.025 188.126 288.545 188.126 292.872C188.126 297.198 191.641 300.719 195.96 300.719C200.279 300.719 203.793 297.198 203.793 292.872C203.793 288.545 200.279 285.025 195.96 285.025ZM195.96 295.629C194.444 295.629 193.207 294.39 193.207 292.872C193.207 291.353 194.444 290.115 195.96 290.115C197.476 290.115 198.712 291.353 198.712 292.872C198.712 294.39 197.476 295.629 195.96 295.629Z" fill="#0E2C5E"/>
<path d="M162.119 292.838C162.119 288.512 158.605 284.991 154.286 284.991C149.967 284.991 146.452 288.512 146.452 292.838C146.452 297.164 149.967 300.685 154.286 300.685C158.605 300.685 162.119 297.164 162.119 292.838ZM151.533 292.838C151.533 291.319 152.77 290.081 154.286 290.081C155.802 290.081 157.038 291.319 157.038 292.838C157.038 294.356 155.802 295.595 154.286 295.595C152.77 295.595 151.533 294.356 151.533 292.838Z" fill="#0E2C5E"/>
<path d="M213.803 286.399C213.803 286.399 213.803 286.382 213.803 286.374C213.803 286.374 213.803 286.357 213.803 286.348C210.068 267.948 193.741 254.596 174.966 254.596C156.191 254.596 139.889 267.931 136.137 286.297C135.604 288.936 135.333 291.625 135.333 294.297C135.333 304.333 139.076 313.91 145.885 321.265C153.363 329.358 163.965 333.999 174.966 333.999C185.967 333.999 196.697 329.299 204.183 321.113C210.898 313.783 214.599 304.256 214.599 294.297C214.599 291.633 214.337 288.97 213.812 286.391L213.803 286.399ZM145.758 306.75C144.962 307.556 144.352 308.506 143.929 309.533C141.625 304.842 140.406 299.65 140.406 294.306C140.406 292.337 140.583 290.352 140.914 288.401C140.956 288.35 140.998 288.308 141.041 288.249C144.276 283.396 148.917 281.063 154.828 281.343C160.688 281.615 165.481 286.425 165.752 292.295C165.896 295.476 164.778 298.488 162.593 300.778C160.4 303.077 157.453 304.341 154.286 304.341C153.786 304.341 153.303 304.316 152.838 304.256C150.221 303.926 147.638 304.833 145.758 306.75ZM201.896 313.529C201.668 315.115 201.117 316.565 200.287 317.829C193.766 324.879 184.553 328.917 174.958 328.917C165.363 328.917 156.809 325.151 150.331 318.559C150.255 318.339 150.161 318.126 150.026 317.923C149.137 316.625 148.569 315.132 148.332 313.495C148.163 312.315 148.544 311.162 149.374 310.313C149.823 309.864 150.78 309.134 152.219 309.304C152.888 309.38 153.583 309.423 154.277 309.423C158.85 309.423 163.102 307.599 166.26 304.282C169.411 300.973 171.037 296.63 170.825 292.049C170.435 283.583 163.508 276.635 155.056 276.245C151.881 276.101 147.96 276.542 144.174 278.569C149.967 267.244 161.772 259.686 174.958 259.686C188.143 259.686 199.805 267.159 205.631 278.366C201.989 276.533 198.238 276.143 195.181 276.279C186.729 276.669 179.793 283.608 179.404 292.083C179.192 296.664 180.809 301.007 183.968 304.316C187.127 307.633 191.387 309.457 195.96 309.457C196.68 309.457 197.382 309.414 198.026 309.329C199.457 309.151 200.423 309.889 200.863 310.347C201.693 311.196 202.066 312.349 201.896 313.52V313.529ZM206.148 309.185C205.733 308.311 205.182 307.497 204.496 306.793C202.616 304.876 200.033 303.968 197.382 304.282C196.942 304.341 196.459 304.367 195.96 304.367C192.784 304.367 189.837 303.103 187.644 300.804C185.459 298.513 184.332 295.502 184.485 292.32C184.756 286.45 189.557 281.64 195.418 281.369C201.16 281.106 205.69 283.294 208.908 287.867C209.306 289.971 209.518 292.134 209.518 294.306C209.518 299.514 208.349 304.579 206.156 309.185H206.148Z" fill="#0E2C5E"/>
<path d="M225.507 304.138C225.625 304.036 225.744 303.934 225.846 303.807L305.654 207.522L280.621 177.313C280.621 177.313 280.612 177.305 280.604 177.297C280.604 177.297 280.595 177.28 280.587 177.271L280.57 177.246L175.017 49.9125L158.91 69.3391C158.91 69.3391 158.893 69.3645 158.884 69.373L44.3459 207.548L45.2182 208.574C45.3114 208.947 45.4892 209.304 45.7517 209.609C45.9973 209.889 46.2937 210.101 46.6071 210.245L124.044 303.671C124.137 303.79 124.247 303.883 124.358 303.976C125.518 310.161 127.762 315.989 131.065 321.35C128.414 324.625 123.053 332.794 123.722 344.636C124.595 359.889 135.028 375.346 154.726 390.582C154.726 390.582 154.743 390.59 154.743 390.599C154.743 390.599 154.751 390.599 154.76 390.607C155.26 390.997 155.802 391.345 156.377 391.634L160.307 400.482C160.73 401.432 161.653 401.992 162.627 401.992C162.974 401.992 163.322 401.924 163.66 401.771C164.939 401.203 165.515 399.693 164.948 398.412L162.416 392.719C163.415 392.601 164.389 392.338 165.303 391.939L169.69 396.681C170.19 397.224 170.867 397.495 171.553 397.495C172.171 397.495 172.79 397.275 173.281 396.817C174.305 395.858 174.373 394.255 173.416 393.22L169.334 388.809C169.902 388.088 170.359 387.299 170.723 386.459L172.874 389.479C172.874 389.479 172.917 389.521 172.942 389.547C173.018 389.648 173.111 389.742 173.205 389.835C173.255 389.886 173.298 389.928 173.357 389.979C173.374 389.996 173.391 390.013 173.408 390.03C173.526 390.124 173.653 390.2 173.789 390.268C173.814 390.276 173.84 390.285 173.857 390.302C174.001 390.37 174.145 390.42 174.289 390.463C174.331 390.471 174.373 390.488 174.416 390.497C174.585 390.531 174.763 390.556 174.941 390.556C175.11 390.556 175.279 390.531 175.449 390.497C175.491 390.497 175.525 390.48 175.567 390.471C175.72 390.429 175.872 390.378 176.016 390.31C176.033 390.31 176.05 390.302 176.058 390.293C176.186 390.234 176.304 390.157 176.414 390.081C176.44 390.064 176.457 390.047 176.473 390.03C176.533 389.988 176.584 389.937 176.634 389.886C176.728 389.801 176.812 389.716 176.888 389.623C176.914 389.598 176.939 389.581 176.956 389.547L179.421 386.298C179.751 387.12 180.191 387.901 180.733 388.613L176.465 393.228C175.508 394.255 175.576 395.867 176.6 396.825C177.092 397.283 177.71 397.504 178.328 397.504C179.014 397.504 179.692 397.232 180.191 396.69L184.68 391.837C185.67 392.304 186.721 392.601 187.813 392.728L185.281 398.42C184.713 399.701 185.281 401.211 186.568 401.779C186.907 401.932 187.254 402 187.601 402C188.575 402 189.498 401.44 189.922 400.49L193.86 391.634C194.427 391.345 194.969 391.006 195.469 390.607C215.175 375.371 225.608 359.906 226.481 344.653C227.175 332.48 221.484 324.192 218.927 321.113C222.119 315.87 224.313 310.186 225.473 304.163L225.507 304.138ZM123.46 294.984L87.6968 251.839C99.5529 249.523 110.206 251.126 121.715 256.895C125.154 258.617 128.948 260.797 133.504 263.673C127 272.504 123.443 283.269 123.443 294.306C123.443 294.535 123.451 294.764 123.46 294.993V294.984ZM136.747 259.702C131.81 256.572 127.711 254.214 123.993 252.348C110.723 245.697 97.9778 244.127 84.0384 247.427L67.533 227.517C81.862 220.111 102.432 214.377 123.587 224.972C131.649 229.01 140.592 235.059 150.06 241.472C152.262 242.965 154.523 244.484 156.801 246.011C149.128 248.895 142.294 253.552 136.747 259.711V259.702ZM163.093 244.085C159.621 241.794 156.2 239.487 152.897 237.247C143.285 230.741 134.207 224.599 125.856 220.417C102.314 208.625 79.6516 215.301 64.2133 223.513L51.4088 208.065C56.1766 204.129 69.1336 194.492 85.7406 190.759C97.6051 188.087 108.995 188.978 119.59 193.415C120.792 193.915 121.969 194.458 123.104 195.026C131.59 199.277 141.083 205.987 151.135 213.096L154.929 215.776C179.251 232.887 205.292 249.429 234.018 249.429C236.059 249.429 238.125 249.344 240.191 249.166C240.225 249.166 240.268 249.166 240.301 249.166H240.378C240.378 249.166 240.395 249.166 240.403 249.158C251.624 248.182 262.718 244.543 273.541 238.325L247.432 269.823C238.616 271.613 229.783 271.74 220.493 270.213C211.534 253.221 194.207 242.719 174.958 242.719C170.943 242.719 166.955 243.186 163.093 244.102V244.085ZM136.137 104.782L180.665 129.078C179.742 131.216 179.166 133.489 178.972 135.797L108.843 137.697L136.129 104.773L136.137 104.782ZM160.586 75.2943L187.296 120.51C185.755 121.706 184.375 123.114 183.206 124.684L139.44 100.803L160.578 75.3028L160.586 75.2943ZM243.164 140.098C236.635 136.874 229.14 136.365 222.238 138.706C222.314 137.111 222.213 135.5 221.933 133.896C221.239 129.952 219.511 126.38 216.92 123.42L222.627 115.327L243.164 140.098ZM264.098 165.361C259.407 163.452 254.427 162.417 249.473 162.417C226.93 162.417 209.272 179.74 209.272 201.855C209.272 201.906 209.281 201.949 209.289 201.991C209.289 202.084 209.298 202.169 209.315 202.263C209.332 202.347 209.349 202.424 209.366 202.5C209.383 202.577 209.408 202.661 209.442 202.738C209.467 202.814 209.501 202.89 209.543 202.967C209.577 203.043 209.62 203.111 209.662 203.179C209.704 203.247 209.747 203.315 209.798 203.374C209.848 203.442 209.899 203.51 209.958 203.569C210.009 203.628 210.068 203.688 210.128 203.739C210.187 203.79 210.246 203.849 210.314 203.891C210.39 203.942 210.458 203.993 210.543 204.036C210.585 204.061 210.619 204.095 210.661 204.112C210.687 204.129 210.712 204.129 210.746 204.146C210.831 204.188 210.915 204.214 211 204.248C211.076 204.273 211.152 204.299 211.229 204.316C211.305 204.333 211.39 204.35 211.474 204.358C211.559 204.366 211.652 204.383 211.737 204.383C211.771 204.383 211.796 204.392 211.822 204.392C211.872 204.392 211.915 204.383 211.965 204.375C212.05 204.375 212.143 204.366 212.228 204.35C212.313 204.333 212.389 204.316 212.474 204.299C212.55 204.282 212.626 204.256 212.702 204.231C212.787 204.197 212.863 204.163 212.939 204.129C213.007 204.095 213.083 204.061 213.151 204.019C213.219 203.976 213.287 203.925 213.354 203.883C213.422 203.84 213.481 203.781 213.549 203.722C213.608 203.662 213.668 203.611 213.718 203.544C213.769 203.484 213.82 203.425 213.871 203.357C213.922 203.281 213.973 203.204 214.015 203.128C214.04 203.085 214.066 203.052 214.091 203.009C218.8 193.788 228.149 188.053 238.481 188.053C253.58 188.053 265.868 200.362 265.868 215.488C265.868 230.614 255.935 241.981 239.937 244.068C211.229 246.545 185.755 231.097 160.154 213.197L213.947 150.227C215.861 147.987 218.131 146.189 220.68 144.865C228.217 140.946 237.194 141.591 244.104 146.536L254.961 154.29L264.124 165.344L264.098 165.361ZM119.92 188.079C114.06 185.822 107.988 184.533 101.746 184.236L137.84 169.645L119.92 188.079ZM153.337 160.992C156.606 157.632 161.552 156.504 165.955 158.116C167.751 158.778 169.317 159.83 170.622 161.263L179.556 171.036C179.556 171.036 179.573 171.053 179.581 171.07L184.68 176.652L155.962 210.271L154.065 208.93C143.852 201.711 134.207 194.899 125.382 190.471C125.23 190.395 125.06 190.318 124.908 190.242L153.346 160.983L153.337 160.992ZM183.604 151.211C184.891 152.831 186.407 154.265 188.092 155.452L181.157 165.276L174.356 157.836C173.764 157.183 173.128 156.597 172.459 156.055L183.596 151.211H183.604ZM188.008 172.758L184.68 169.119L192.606 157.887C194.8 158.761 197.095 159.261 199.432 159.38L187.999 172.758H188.008ZM213.117 119.984C210.289 117.973 207.037 116.667 203.615 116.175L203.294 91.9977L219.265 111.263L213.117 119.975V119.984ZM200.999 121.044C205.047 121.146 208.925 122.732 211.906 125.523C214.557 127.992 216.293 131.199 216.928 134.779C217.301 136.916 217.267 139.063 216.818 141.158C216.818 141.175 216.818 141.192 216.818 141.209C214.294 142.727 212.033 144.636 210.068 146.927L204.005 154.027C203.827 154.027 203.641 154.027 203.463 154.061C199.821 154.706 196.18 154.146 192.911 152.441C190.362 151.117 188.186 149.141 186.636 146.74C185.416 144.857 184.603 142.778 184.222 140.573C184.087 139.784 184.002 138.986 183.977 138.197C183.867 135.092 184.646 132.03 186.221 129.324C187.627 126.898 189.634 124.853 192.03 123.42C193.749 122.376 195.663 121.664 197.696 121.299C198.788 121.104 199.906 121.019 201.007 121.053L200.999 121.044ZM104.524 142.914L179.133 140.887C179.158 141.073 179.175 141.26 179.209 141.446C179.539 143.321 180.107 145.12 180.894 146.833L166.692 153.009C160.679 151.219 154.108 152.899 149.696 157.437L146.63 160.593L84.2162 185.831C84.1485 185.856 84.0977 185.898 84.0299 185.924C75.248 187.977 67.4484 191.565 61.2324 195.145L104.532 142.906L104.524 142.914ZM233.061 276.347C236.228 276.347 239.378 276.151 242.486 275.77L226.438 295.128C226.438 294.857 226.455 294.577 226.455 294.306C226.455 287.841 225.278 281.606 222.983 275.702C226.362 276.117 229.724 276.347 233.052 276.347H233.061ZM285.685 223.666C278.038 229.977 270.399 234.796 262.65 238.198C267.943 232.344 270.933 224.531 270.933 215.496C270.933 197.563 256.366 182.972 238.464 182.972C229.758 182.972 221.654 186.416 215.683 192.329C219.807 177.848 233.179 167.507 249.473 167.507C259.534 167.507 269.705 172.385 276.691 180.546L276.708 180.563C276.708 180.563 276.725 180.58 276.734 180.588L299.057 207.522L285.685 223.657V223.666ZM198.128 85.7711L198.534 116.056C197.958 116.116 197.374 116.183 196.798 116.285C194.994 116.608 193.284 117.159 191.658 117.889L164.033 71.129L175.017 57.8782L198.128 85.7626V85.7711ZM221.442 344.441C220.612 358.133 210.839 372.3 192.394 386.561C191.302 387.417 189.913 387.765 188.575 387.629L189.896 386.196C190.853 385.169 190.794 383.557 189.761 382.599C188.736 381.64 187.127 381.7 186.17 382.735L184.324 384.728C183.96 383.999 183.756 383.176 183.756 382.327V382.217C183.756 382.217 183.723 381.462 183.723 380.207C183.748 374.913 184.519 356.801 193.555 345.884C194.452 344.798 194.3 343.194 193.224 342.304C192.149 341.404 190.54 341.557 189.651 342.634C180.352 353.866 178.828 370.867 178.667 378.892L175.034 383.676L171.629 378.9C171.469 370.892 169.953 353.875 160.646 342.634C159.748 341.549 158.147 341.404 157.072 342.304C155.988 343.203 155.844 344.806 156.742 345.884C165.778 356.801 166.548 374.913 166.574 380.198C166.574 381.462 166.54 382.183 166.54 382.217V382.327C166.54 383.278 166.286 384.177 165.845 384.966L163.779 382.735C162.822 381.7 161.221 381.64 160.188 382.599C159.155 383.557 159.096 385.161 160.053 386.196L161.425 387.672C160.696 387.706 159.96 387.595 159.265 387.324C158.774 387.137 158.317 386.874 157.919 386.569C157.919 386.569 157.919 386.569 157.91 386.569C157.91 386.569 157.91 386.569 157.902 386.561C139.457 372.3 129.684 358.133 128.854 344.441C128.067 331.471 135.985 323.479 136.061 323.411L137.577 321.935L136.4 320.171C132.614 314.521 130.175 308.26 129.125 301.559C128.753 299.166 128.566 296.732 128.566 294.306C128.566 283.489 132.352 272.962 139.22 264.648C145.47 257.081 153.769 251.779 163.203 249.302C167.022 248.301 170.986 247.792 174.991 247.792C192.75 247.792 208.688 257.7 216.589 273.649C219.79 280.096 221.416 287.044 221.416 294.306C221.416 296.783 221.222 299.26 220.832 301.694C219.79 308.277 217.385 314.436 213.693 320.001C212.931 321.146 213.227 322.673 214.328 323.471C215.048 324.226 222.229 332.064 221.476 344.45L221.442 344.441Z" fill="#0E2C5E"/>
<path d="M83.9368 137.298L175.017 28.6366L266.08 137.298L282.416 88.8505C283 87.1029 282.662 85.1772 281.527 83.8284C280.621 82.7425 279.291 82.1911 277.961 82.3438L242.969 84.6428L249.168 53.7384L249.202 53.5518C249.414 51.8382 248.804 50.1246 247.601 49.0726C246.644 48.2328 245.425 47.8935 244.214 48.1225L213.168 50.8796L219.706 17.7526L219.723 17.6338C219.985 15.8863 219.384 14.1303 218.156 13.0444C217.106 12.1113 215.751 11.7889 214.498 12.1367L175.008 22.0621L135.578 12.1452C134.266 11.7804 132.911 12.1113 131.861 13.0444C130.633 14.1387 130.04 15.8948 130.311 17.6423L136.866 50.8796L105.811 48.1225C104.609 47.8935 103.389 48.2243 102.424 49.0726C101.23 50.1246 100.612 51.8382 100.823 53.5518L107.056 84.6428L72.0638 82.3438C70.7257 82.1911 69.4046 82.7425 68.4985 83.8284C67.3721 85.1772 67.0334 87.1029 67.6177 88.8589L83.9537 137.298H83.9368ZM214.608 17.3454L208.104 50.3112L208.087 50.43C207.824 52.1605 208.417 53.9081 209.62 54.9939C210.585 55.8677 211.822 56.224 213.049 55.9865L244.095 53.2294L237.905 84.0914L237.871 84.278C237.668 85.9153 238.193 87.5271 239.285 88.596C240.183 89.4697 241.369 89.9024 242.563 89.7582L277.521 87.4592L264.166 127.067L179.573 26.151L214.608 17.3454ZM107.471 89.7751C108.657 89.9193 109.842 89.4952 110.74 88.6214C111.832 87.5525 112.366 85.9322 112.163 84.295L105.938 53.2464L136.984 56.0034C138.204 56.241 139.44 55.8847 140.406 55.0109C141.608 53.925 142.201 52.1775 141.955 50.4554L135.426 17.3624L170.461 26.1595L85.8592 127.093L72.5041 87.4847L107.471 89.7836V89.7751Z" fill="#0E2C5E"/>
<path d="M1.57875 441V427H6.33875C7.95208 427 9.29208 427.293 10.3588 427.88C11.4254 428.453 12.2121 429.267 12.7188 430.32C13.2388 431.36 13.4988 432.587 13.4988 434C13.4988 435.4 13.2388 436.627 12.7188 437.68C12.2121 438.733 11.4254 439.553 10.3588 440.14C9.30542 440.713 7.95875 441 6.31875 441H1.57875ZM4.37875 438.6H6.17875C7.29875 438.6 8.17875 438.42 8.81875 438.06C9.47208 437.687 9.93875 437.16 10.2188 436.48C10.4988 435.787 10.6388 434.96 10.6388 434C10.6388 433.04 10.4988 432.22 10.2188 431.54C9.93875 430.847 9.47208 430.313 8.81875 429.94C8.17875 429.567 7.29875 429.38 6.17875 429.38H4.37875V438.6ZM15.3584 441V427H18.1584V441H15.3584ZM25.3458 441.24C24.3324 441.24 23.4258 441.067 22.6258 440.72C21.8391 440.373 21.2124 439.867 20.7458 439.2C20.2791 438.533 20.0391 437.727 20.0258 436.78H22.9858C22.9991 437.18 23.0991 437.54 23.2858 437.86C23.4858 438.18 23.7591 438.433 24.1058 438.62C24.4524 438.807 24.8591 438.9 25.3258 438.9C25.7391 438.9 26.0924 438.833 26.3858 438.7C26.6924 438.567 26.9258 438.38 27.0858 438.14C27.2591 437.9 27.3458 437.607 27.3458 437.26C27.3458 436.887 27.2458 436.567 27.0458 436.3C26.8591 436.033 26.5991 435.807 26.2658 435.62C25.9324 435.433 25.5458 435.267 25.1058 435.12C24.6791 434.96 24.2191 434.8 23.7258 434.64C22.6191 434.28 21.7724 433.8 21.1858 433.2C20.6124 432.6 20.3258 431.8 20.3258 430.8C20.3258 429.947 20.5258 429.22 20.9258 428.62C21.3391 428.02 21.9058 427.56 22.6258 427.24C23.3591 426.92 24.1858 426.76 25.1058 426.76C26.0524 426.76 26.8858 426.927 27.6058 427.26C28.3258 427.58 28.8924 428.047 29.3058 428.66C29.7324 429.273 29.9591 430 29.9858 430.84H26.9858C26.9724 430.533 26.8858 430.253 26.7258 430C26.5658 429.733 26.3458 429.52 26.0658 429.36C25.7858 429.2 25.4524 429.12 25.0658 429.12C24.7324 429.107 24.4258 429.16 24.1458 429.28C23.8791 429.387 23.6658 429.553 23.5058 429.78C23.3458 429.993 23.2658 430.267 23.2658 430.6C23.2658 430.933 23.3458 431.213 23.5058 431.44C23.6658 431.653 23.8858 431.84 24.1658 432C24.4591 432.16 24.7991 432.313 25.1858 432.46C25.5724 432.593 25.9924 432.733 26.4458 432.88C27.1524 433.12 27.7991 433.407 28.3858 433.74C28.9724 434.06 29.4391 434.48 29.7858 435C30.1458 435.52 30.3258 436.207 30.3258 437.06C30.3258 437.807 30.1324 438.5 29.7458 439.14C29.3591 439.767 28.7991 440.273 28.0658 440.66C27.3324 441.047 26.4258 441.24 25.3458 441.24ZM38.5347 441.24C37.1347 441.24 35.928 440.94 34.9147 440.34C33.9014 439.727 33.1214 438.88 32.5747 437.8C32.028 436.707 31.7547 435.447 31.7547 434.02C31.7547 432.593 32.028 431.333 32.5747 430.24C33.1214 429.147 33.9014 428.293 34.9147 427.68C35.928 427.067 37.1347 426.76 38.5347 426.76C40.228 426.76 41.6214 427.187 42.7147 428.04C43.808 428.893 44.488 430.093 44.7547 431.64H41.6747C41.5147 430.893 41.1614 430.32 40.6147 429.92C40.0814 429.507 39.3747 429.3 38.4947 429.3C37.6814 429.3 36.9814 429.493 36.3947 429.88C35.8214 430.253 35.3814 430.793 35.0747 431.5C34.768 432.207 34.6147 433.047 34.6147 434.02C34.6147 434.993 34.768 435.833 35.0747 436.54C35.3814 437.233 35.8214 437.773 36.3947 438.16C36.9814 438.533 37.6814 438.72 38.4947 438.72C39.3747 438.72 40.0814 438.533 40.6147 438.16C41.148 437.773 41.5014 437.24 41.6747 436.56H44.7547C44.488 438.013 43.808 439.16 42.7147 440C41.6214 440.827 40.228 441.24 38.5347 441.24ZM53.0994 441.24C51.7394 441.24 50.5394 440.933 49.4994 440.32C48.4594 439.707 47.6394 438.86 47.0394 437.78C46.4527 436.687 46.1594 435.427 46.1594 434C46.1594 432.573 46.4527 431.32 47.0394 430.24C47.6394 429.147 48.4594 428.293 49.4994 427.68C50.5394 427.067 51.7394 426.76 53.0994 426.76C54.4727 426.76 55.6794 427.067 56.7194 427.68C57.7727 428.293 58.586 429.147 59.1594 430.24C59.746 431.32 60.0394 432.573 60.0394 434C60.0394 435.427 59.746 436.687 59.1594 437.78C58.586 438.86 57.7727 439.707 56.7194 440.32C55.6794 440.933 54.4727 441.24 53.0994 441.24ZM53.0994 438.72C53.9394 438.72 54.666 438.527 55.2794 438.14C55.8927 437.753 56.366 437.213 56.6994 436.52C57.0327 435.813 57.1994 434.973 57.1994 434C57.1994 433.027 57.0327 432.193 56.6994 431.5C56.366 430.793 55.8927 430.247 55.2794 429.86C54.666 429.473 53.9394 429.28 53.0994 429.28C52.2727 429.28 51.5527 429.473 50.9394 429.86C50.3394 430.247 49.866 430.793 49.5194 431.5C49.186 432.193 49.0194 433.027 49.0194 434C49.0194 434.973 49.186 435.813 49.5194 436.52C49.866 437.213 50.3394 437.753 50.9394 438.14C51.5527 438.527 52.2727 438.72 53.0994 438.72ZM65.4733 441L60.3933 427H63.3933L67.2133 438.16L71.0533 427H74.0133L68.9333 441H65.4733ZM75.253 441V427H84.513V429.26H78.053V432.8H83.913V434.98H78.053V438.74H84.513V441H75.253ZM86.5522 441V427H91.8522C92.9855 427 93.9189 427.193 94.6522 427.58C95.3989 427.967 95.9522 428.487 96.3122 429.14C96.6855 429.78 96.8722 430.5 96.8722 431.3C96.8722 432.047 96.6922 432.747 96.3322 433.4C95.9855 434.053 95.4389 434.58 94.6922 434.98C93.9455 435.367 92.9922 435.56 91.8322 435.56H89.3522V441H86.5522ZM93.7922 441L90.9322 434.86H93.9722L96.9922 441H93.7922ZM89.3522 433.52H91.6922C92.4789 433.52 93.0589 433.327 93.4322 432.94C93.8189 432.553 94.0122 432.04 94.0122 431.4C94.0122 430.773 93.8255 430.273 93.4522 429.9C93.0789 429.527 92.4855 429.34 91.6722 429.34H89.3522V433.52ZM106.336 441V429.26H102.256V427H113.196V429.26H109.116V441H106.336ZM123.508 441V427H126.308V441H123.508ZM114.688 441V427H117.488V441H114.688ZM117.128 434.98V432.72H123.968V434.98H117.128ZM128.624 441V427H137.884V429.26H131.424V432.8H137.284V434.98H131.424V438.74H137.884V441H128.624ZM144.172 441V427H146.972V438.82H153.092V441H144.172ZM154.082 441L159.182 427H162.362L167.462 441H164.502L160.762 430.18L157.002 441H154.082ZM156.322 437.86L157.062 435.68H164.262L164.982 437.86H156.322ZM168.86 441V427H171.66L178 436.5V427H180.8V441H178L171.66 431.52V441H168.86ZM183.128 441V427H187.888C189.501 427 190.841 427.293 191.908 427.88C192.975 428.453 193.761 429.267 194.268 430.32C194.788 431.36 195.048 432.587 195.048 434C195.048 435.4 194.788 436.627 194.268 437.68C193.761 438.733 192.975 439.553 191.908 440.14C190.855 440.713 189.508 441 187.868 441H183.128ZM185.928 438.6H187.728C188.848 438.6 189.728 438.42 190.368 438.06C191.021 437.687 191.488 437.16 191.768 436.48C192.048 435.787 192.188 434.96 192.188 434C192.188 433.04 192.048 432.22 191.768 431.54C191.488 430.847 191.021 430.313 190.368 429.94C189.728 429.567 188.848 429.38 187.728 429.38H185.928V438.6ZM207.636 441.24C206.276 441.24 205.076 440.933 204.036 440.32C202.996 439.707 202.176 438.86 201.576 437.78C200.989 436.687 200.696 435.427 200.696 434C200.696 432.573 200.989 431.32 201.576 430.24C202.176 429.147 202.996 428.293 204.036 427.68C205.076 427.067 206.276 426.76 207.636 426.76C209.009 426.76 210.216 427.067 211.256 427.68C212.309 428.293 213.123 429.147 213.696 430.24C214.283 431.32 214.576 432.573 214.576 434C214.576 435.427 214.283 436.687 213.696 437.78C213.123 438.86 212.309 439.707 211.256 440.32C210.216 440.933 209.009 441.24 207.636 441.24ZM207.636 438.72C208.476 438.72 209.203 438.527 209.816 438.14C210.429 437.753 210.903 437.213 211.236 436.52C211.569 435.813 211.736 434.973 211.736 434C211.736 433.027 211.569 432.193 211.236 431.5C210.903 430.793 210.429 430.247 209.816 429.86C209.203 429.473 208.476 429.28 207.636 429.28C206.809 429.28 206.089 429.473 205.476 429.86C204.876 430.247 204.403 430.793 204.056 431.5C203.723 432.193 203.556 433.027 203.556 434C203.556 434.973 203.723 435.813 204.056 436.52C204.403 437.213 204.876 437.753 205.476 438.14C206.089 438.527 206.809 438.72 207.636 438.72ZM216.459 441V427H225.639V429.26H219.259V432.88H224.339V435.08H219.259V441H216.459ZM231.46 441V427H234.26V441H231.46ZM236.587 441V427H239.387L245.727 436.5V427H248.527V441H245.727L239.387 431.52V441H236.587ZM250.855 441V427H253.655L259.995 436.5V427H262.795V441H259.995L253.655 431.52V441H250.855ZM271.603 441.24C270.243 441.24 269.043 440.933 268.003 440.32C266.963 439.707 266.143 438.86 265.543 437.78C264.957 436.687 264.663 435.427 264.663 434C264.663 432.573 264.957 431.32 265.543 430.24C266.143 429.147 266.963 428.293 268.003 427.68C269.043 427.067 270.243 426.76 271.603 426.76C272.977 426.76 274.183 427.067 275.223 427.68C276.277 428.293 277.09 429.147 277.663 430.24C278.25 431.32 278.543 432.573 278.543 434C278.543 435.427 278.25 436.687 277.663 437.78C277.09 438.86 276.277 439.707 275.223 440.32C274.183 440.933 272.977 441.24 271.603 441.24ZM271.603 438.72C272.443 438.72 273.17 438.527 273.783 438.14C274.397 437.753 274.87 437.213 275.203 436.52C275.537 435.813 275.703 434.973 275.703 434C275.703 433.027 275.537 432.193 275.203 431.5C274.87 430.793 274.397 430.247 273.783 429.86C273.17 429.473 272.443 429.28 271.603 429.28C270.777 429.28 270.057 429.473 269.443 429.86C268.843 430.247 268.37 430.793 268.023 431.5C267.69 432.193 267.523 433.027 267.523 434C267.523 434.973 267.69 435.813 268.023 436.52C268.37 437.213 268.843 437.753 269.443 438.14C270.057 438.527 270.777 438.72 271.603 438.72ZM283.977 441L278.897 427H281.897L285.717 438.16L289.557 427H292.517L287.437 441H283.977ZM291.118 441L296.218 427H299.398L304.498 441H301.538L297.798 430.18L294.038 441H291.118ZM293.358 437.86L294.098 435.68H301.298L302.018 437.86H293.358ZM307.691 441V429.26H303.611V427H314.551V429.26H310.471V441H307.691ZM316.043 441V427H318.843V441H316.043ZM327.65 441.24C326.29 441.24 325.09 440.933 324.05 440.32C323.01 439.707 322.19 438.86 321.59 437.78C321.003 436.687 320.71 435.427 320.71 434C320.71 432.573 321.003 431.32 321.59 430.24C322.19 429.147 323.01 428.293 324.05 427.68C325.09 427.067 326.29 426.76 327.65 426.76C329.023 426.76 330.23 427.067 331.27 427.68C332.323 428.293 333.137 429.147 333.71 430.24C334.297 431.32 334.59 432.573 334.59 434C334.59 435.427 334.297 436.687 333.71 437.78C333.137 438.86 332.323 439.707 331.27 440.32C330.23 440.933 329.023 441.24 327.65 441.24ZM327.65 438.72C328.49 438.72 329.217 438.527 329.83 438.14C330.443 437.753 330.917 437.213 331.25 436.52C331.583 435.813 331.75 434.973 331.75 434C331.75 433.027 331.583 432.193 331.25 431.5C330.917 430.793 330.443 430.247 329.83 429.86C329.217 429.473 328.49 429.28 327.65 429.28C326.823 429.28 326.103 429.473 325.49 429.86C324.89 430.247 324.417 430.793 324.07 431.5C323.737 432.193 323.57 433.027 323.57 434C323.57 434.973 323.737 435.813 324.07 436.52C324.417 437.213 324.89 437.753 325.49 438.14C326.103 438.527 326.823 438.72 327.65 438.72ZM336.473 441V427H339.273L345.613 436.5V427H348.413V441H345.613L339.273 431.52V441H336.473Z" fill="#0E2C5E"/>
<path d="M348.732 460.244C303.079 459.606 257.418 459.415 211.761 459.682C189.024 459.813 166.284 460.267 143.547 460.08C121.004 459.893 98.4657 459.351 75.9227 459.112C51.0331 458.849 26.104 458.937 1.26722 460.606C-0.41581 460.718 -0.428993 463.111 1.26722 462.996C45.8566 459.997 90.6921 461.797 135.343 462.379C158.049 462.677 180.754 462.279 203.46 462.124C226.293 461.964 249.13 461.917 271.963 461.984C297.551 462.06 323.144 462.275 348.728 462.633C350.424 462.657 350.424 460.267 348.728 460.244H348.732Z" fill="#84CCF5"/>
<path d="M19.38 514.02V492.42C19.38 491.86 19.22 491.7 18.66 491.7H17.1C15.94 491.7 15.62 491.38 15.62 490.22V486.98C15.62 485.82 15.94 485.5 17.1 485.5H23.42C24.58 485.5 24.9 485.82 24.9 486.98V514.02C24.9 515.18 24.58 515.5 23.42 515.5H20.86C19.7 515.5 19.38 515.18 19.38 514.02ZM37.9063 503.74C37.9063 503.62 37.8663 503.58 37.7863 503.58C37.7063 503.58 37.6263 503.62 37.5063 503.7C36.7463 504.22 35.9063 504.54 34.2263 504.54C30.4263 504.54 28.1463 502.38 28.1463 496.7V493.3C28.1463 487.5 30.2663 485.1 35.8663 485.1C41.6663 485.1 43.5863 487.54 43.5863 494.3V506.7C43.5863 513.46 41.6663 515.9 35.9463 515.9C30.4263 515.9 28.3063 513.5 28.3063 507.7V507.54C28.3063 506.38 28.6263 506.06 29.7863 506.06H32.2663C33.4263 506.06 33.7463 506.38 33.7463 507.54V508.46C33.7463 509.78 34.4263 510.3 35.8263 510.3C37.2663 510.3 37.9063 509.66 37.9063 508.06V503.74ZM33.8263 492.94V496.7C33.8263 498.3 34.4663 498.94 35.8663 498.94C37.2663 498.94 37.9063 498.3 37.9063 496.7V492.94C37.9063 491.34 37.2663 490.7 35.8663 490.7C34.4663 490.7 33.8263 491.34 33.8263 492.94ZM62.43 502.02C62.43 503.18 62.11 503.5 61.03 503.5H54.03C52.95 503.5 52.63 503.18 52.63 502.02V500.62C52.63 499.46 52.95 499.14 54.11 499.14H60.95C62.11 499.14 62.43 499.46 62.43 500.62V502.02ZM77.7541 509.18C77.4341 509.7 77.5541 510.1 78.2341 510.1H84.4741C85.6341 510.1 85.9541 510.42 85.9541 511.58V514.02C85.9541 515.18 85.6341 515.5 84.4741 515.5H72.5541C71.3941 515.5 71.0741 515.18 71.0741 514.02V511.14C71.0741 510.06 71.1541 509.54 71.5941 508.86L78.5941 498.14C79.6741 496.5 80.2741 494.5 80.2741 493.06C80.2741 491.3 79.7141 490.7 78.2341 490.7C76.8341 490.7 76.1941 491.34 76.1941 492.94V495.1C76.1941 496.26 75.8741 496.58 74.7141 496.58H72.2341C71.0741 496.58 70.7541 496.26 70.7541 495.1V493.9C70.7541 487.66 72.6741 485.1 78.2341 485.1C83.8741 485.1 85.9541 487.7 85.9541 492.9C85.9541 495.14 85.1541 497.58 83.4741 500.18L77.7541 509.18ZM94.0291 497.26C94.0291 497.38 94.0691 497.42 94.1491 497.42C94.2291 497.42 94.3091 497.38 94.4291 497.3C95.1891 496.78 96.0291 496.46 97.7091 496.46C101.509 496.46 103.789 498.62 103.789 504.3V507.7C103.789 513.5 101.669 515.9 96.0691 515.9C90.2691 515.9 88.3491 513.46 88.3491 506.7V494.3C88.3491 487.54 90.2691 485.1 95.9891 485.1C101.509 485.1 103.629 487.5 103.629 493.3V493.46C103.629 494.62 103.309 494.94 102.149 494.94H99.6691C98.5091 494.94 98.1891 494.62 98.1891 493.46V492.54C98.1891 491.22 97.5091 490.7 96.1091 490.7C94.6691 490.7 94.0291 491.34 94.0291 492.94V497.26ZM98.1091 508.06V504.3C98.1091 502.7 97.4691 502.06 96.0691 502.06C94.6691 502.06 94.0291 502.7 94.0291 504.3V508.06C94.0291 509.66 94.6691 510.3 96.0691 510.3C97.4691 510.3 98.1091 509.66 98.1091 508.06ZM128.393 506.7C128.393 513.46 126.473 515.9 120.673 515.9C114.873 515.9 112.953 513.46 112.953 506.7V494.3C112.953 487.58 114.873 485.1 120.673 485.1C126.473 485.1 128.393 487.58 128.393 494.3V506.7ZM118.633 508.06C118.633 509.66 119.273 510.3 120.673 510.3C122.073 510.3 122.713 509.66 122.713 508.06V493.14C122.713 491.38 122.073 490.7 120.673 490.7C119.273 490.7 118.633 491.38 118.633 493.14V508.06ZM146.399 505.9V507.1C146.399 513.54 144.559 515.9 138.759 515.9C132.959 515.9 131.039 513.54 131.039 507.1V493.9C131.039 487.46 132.959 485.1 138.759 485.1C144.559 485.1 146.399 487.46 146.399 493.9V495.1C146.399 496.26 146.079 496.58 144.919 496.58H142.359C141.199 496.58 140.879 496.26 140.879 495.1V492.94C140.879 491.34 140.199 490.7 138.799 490.7C137.399 490.7 136.719 491.34 136.719 492.94V508.06C136.719 509.66 137.399 510.3 138.799 510.3C140.199 510.3 140.879 509.66 140.879 508.06V505.9C140.879 504.74 141.199 504.42 142.359 504.42H144.919C146.079 504.42 146.399 504.74 146.399 505.9ZM160.622 491.1H158.142C157.582 491.1 157.422 491.26 157.422 491.82V514.02C157.422 515.18 157.102 515.5 155.942 515.5H153.382C152.222 515.5 151.902 515.18 151.902 514.02V491.82C151.902 491.26 151.742 491.1 151.182 491.1H148.702C147.542 491.1 147.222 490.78 147.222 489.62V486.98C147.222 485.82 147.542 485.5 148.702 485.5H160.622C161.782 485.5 162.102 485.82 162.102 486.98V489.62C162.102 490.78 161.782 491.1 160.622 491.1ZM178.393 506.7C178.393 513.46 176.473 515.9 170.673 515.9C164.873 515.9 162.953 513.46 162.953 506.7V494.3C162.953 487.58 164.873 485.1 170.673 485.1C176.473 485.1 178.393 487.58 178.393 494.3V506.7ZM168.633 508.06C168.633 509.66 169.273 510.3 170.673 510.3C172.073 510.3 172.713 509.66 172.713 508.06V493.14C172.713 491.38 172.073 490.7 170.673 490.7C169.273 490.7 168.633 491.38 168.633 493.14V508.06ZM183.114 515.5C181.954 515.5 181.634 515.18 181.634 514.02V486.98C181.634 485.82 181.954 485.5 183.114 485.5H188.794C194.594 485.5 197.234 487.66 197.234 492.5V494.82C197.234 496.9 196.554 498.38 195.154 499.66C195.034 499.78 194.994 499.82 194.994 499.9C194.994 499.98 195.034 500.02 195.154 500.14C196.674 501.38 197.434 502.7 197.434 504.82V508.7C197.434 513.34 194.674 515.5 188.594 515.5H183.114ZM187.154 491.82V496.42C187.154 496.98 187.314 497.14 187.874 497.14H188.714C190.674 497.14 191.554 496.46 191.554 494.7V493.54C191.554 491.78 190.674 491.1 188.714 491.1H187.874C187.314 491.1 187.154 491.26 187.154 491.82ZM188.914 509.9C190.874 509.9 191.754 509.22 191.754 507.46V505.18C191.754 503.42 190.874 502.74 188.914 502.74H187.874C187.314 502.74 187.154 502.9 187.154 503.46V509.18C187.154 509.74 187.314 509.9 187.874 509.9H188.914ZM205.67 491.82V496.3C205.67 496.82 205.83 497.02 206.39 497.02H211.35C212.51 497.02 212.83 497.34 212.83 498.5V501.14C212.83 502.3 212.51 502.62 211.43 502.62H206.39C205.83 502.62 205.67 502.78 205.67 503.34V509.18C205.67 509.7 205.83 509.9 206.39 509.9H211.83C212.99 509.9 213.31 510.22 213.31 511.38V514.02C213.31 515.18 212.99 515.5 211.83 515.5H201.63C200.47 515.5 200.15 515.18 200.15 514.02V486.98C200.15 485.82 200.47 485.5 201.63 485.5H211.83C212.99 485.5 213.31 485.82 213.31 486.98V489.62C213.31 490.78 212.99 491.1 211.83 491.1H206.39C205.83 491.1 205.67 491.26 205.67 491.82ZM225.853 514.02V509.34C225.853 507.94 225.773 507.5 225.173 506.42L224.213 504.7C223.773 503.98 223.533 503.86 222.813 503.86H222.093C221.533 503.86 221.373 504.02 221.373 504.58V514.02C221.373 515.18 221.053 515.5 219.893 515.5H217.333C216.173 515.5 215.853 515.18 215.853 514.02V486.98C215.853 485.82 216.173 485.5 217.333 485.5H222.613C228.693 485.5 231.453 487.58 231.453 492.7V495.58C231.453 498.46 231.013 500.34 229.373 501.66C229.173 501.78 229.133 501.9 229.133 502.02C229.133 502.14 229.173 502.26 229.293 502.46L230.413 504.5C231.253 506.06 231.373 506.7 231.373 508.82V514.02C231.373 515.18 231.053 515.5 229.893 515.5H227.333C226.173 515.5 225.853 515.18 225.853 514.02ZM221.373 491.62V497.66C221.373 498.22 221.533 498.38 222.093 498.38H222.933C224.813 498.38 225.773 497.54 225.773 495.62V493.54C225.773 491.66 224.893 490.9 222.933 490.9H222.093C221.533 490.9 221.373 491.06 221.373 491.62Z" fill="#F67A38"/>
<path d="M262.252 487.408L265.324 490.192C266.932 491.632 267.292 492.496 267.292 494.104V494.536C267.292 497.56 266.14 499.24 262.66 499.24C259.18 499.24 258.028 497.824 258.028 493.96V493.48C258.028 492.784 258.22 492.592 258.916 492.592H260.548C261.244 492.592 261.436 492.784 261.436 493.48V494.536C261.436 495.496 261.82 495.88 262.66 495.88C263.5 495.88 263.884 495.52 263.884 494.656V494.2C263.884 493.528 263.74 493.192 262.852 492.4L259.972 489.832C258.364 488.416 258.028 487.6 258.028 485.992V485.464C258.028 482.44 259.18 480.76 262.66 480.76C266.14 480.76 267.292 482.176 267.292 486.04V486.52C267.292 487.216 267.1 487.408 266.404 487.408H264.772C264.076 487.408 263.884 487.216 263.884 486.52V485.464C263.884 484.504 263.5 484.12 262.66 484.12C261.82 484.12 261.436 484.48 261.436 485.344V485.752C261.436 486.448 261.58 486.784 262.252 487.408ZM271.535 498.112C271.535 498.808 271.343 499 270.647 499H269.111C268.415 499 268.223 498.808 268.223 498.112V491.968C268.223 490.912 268.271 490.48 268.559 489.52L270.743 482.2C271.031 481.192 271.271 481 272.519 481H273.383C274.631 481 274.871 481.192 275.159 482.2L277.343 489.52C277.631 490.456 277.679 490.912 277.679 491.968V498.112C277.679 498.808 277.487 499 276.791 499H275.255C274.559 499 274.367 498.808 274.367 498.112V494.944C274.367 494.608 274.271 494.512 273.935 494.512H271.967C271.631 494.512 271.535 494.608 271.535 494.944V498.112ZM274.007 491.152C274.271 491.152 274.415 491.056 274.415 490.84C274.415 490.72 274.391 490.6 274.367 490.48L273.263 485.848C273.215 485.608 273.167 485.56 272.951 485.56C272.735 485.56 272.687 485.608 272.639 485.848L271.535 490.48C271.511 490.6 271.487 490.72 271.487 490.84C271.487 491.056 271.631 491.152 271.895 491.152H274.007ZM285.182 486.928C285.302 487.144 285.35 487.192 285.494 487.192C285.638 487.192 285.686 487.12 285.686 486.952V481.888C285.686 481.192 285.878 481 286.574 481H288.038C288.734 481 288.926 481.192 288.926 481.888V498.112C288.926 498.808 288.734 499 288.038 499H286.574C285.878 499 285.686 498.808 285.686 498.112V494.824C285.686 493.696 285.518 493.288 285.11 492.52L282.878 488.368C282.758 488.152 282.71 488.104 282.566 488.104C282.422 488.104 282.374 488.176 282.374 488.344V498.112C282.374 498.808 282.182 499 281.486 499H280.022C279.326 499 279.134 498.808 279.134 498.112V481.888C279.134 481.192 279.326 481 280.022 481H280.958C281.846 481 282.182 481.144 282.686 482.128L285.182 486.928ZM296.058 499H294.93C294.234 499 294.042 498.808 294.042 498.112V496.528C294.042 495.832 294.234 495.64 294.93 495.64H296.106C296.946 495.64 297.33 495.256 297.33 494.296V484.672C297.33 484.336 297.234 484.24 296.898 484.24H295.722C295.026 484.24 294.834 484.048 294.834 483.352V481.888C294.834 481.192 295.026 481 295.722 481H299.754C300.45 481 300.642 481.192 300.642 481.888V493.72C300.642 497.584 299.49 499 296.058 499ZM311.619 493.72C311.619 497.776 310.467 499.24 306.987 499.24C303.507 499.24 302.354 497.776 302.354 493.72V486.28C302.354 482.248 303.507 480.76 306.987 480.76C310.467 480.76 311.619 482.248 311.619 486.28V493.72ZM305.763 494.536C305.763 495.496 306.147 495.88 306.987 495.88C307.827 495.88 308.211 495.496 308.211 494.536V485.584C308.211 484.528 307.827 484.12 306.987 484.12C306.147 484.12 305.763 484.528 305.763 485.584V494.536ZM317.166 487.408L320.238 490.192C321.846 491.632 322.206 492.496 322.206 494.104V494.536C322.206 497.56 321.054 499.24 317.574 499.24C314.094 499.24 312.942 497.824 312.942 493.96V493.48C312.942 492.784 313.134 492.592 313.83 492.592H315.462C316.158 492.592 316.35 492.784 316.35 493.48V494.536C316.35 495.496 316.734 495.88 317.574 495.88C318.414 495.88 318.798 495.52 318.798 494.656V494.2C318.798 493.528 318.654 493.192 317.766 492.4L314.886 489.832C313.278 488.416 312.942 487.6 312.942 485.992V485.464C312.942 482.44 314.094 480.76 317.574 480.76C321.054 480.76 322.206 482.176 322.206 486.04V486.52C322.206 487.216 322.014 487.408 321.318 487.408H319.686C318.99 487.408 318.798 487.216 318.798 486.52V485.464C318.798 484.504 318.414 484.12 317.574 484.12C316.734 484.12 316.35 484.48 316.35 485.344V485.752C316.35 486.448 316.494 486.784 317.166 487.408ZM326.183 479.44L327.527 476.92C327.719 476.584 327.815 476.536 328.295 476.536H330.599C330.935 476.536 331.031 476.656 331.031 476.776C331.031 476.896 331.007 476.968 330.863 477.16L329.111 479.704C328.871 480.064 328.727 480.112 328.223 480.112H326.471C326.135 480.112 326.039 480.016 326.039 479.824C326.039 479.728 326.087 479.632 326.183 479.44ZM327.071 484.792V487.48C327.071 487.792 327.167 487.912 327.503 487.912H330.479C331.175 487.912 331.367 488.104 331.367 488.8V490.384C331.367 491.08 331.175 491.272 330.527 491.272H327.503C327.167 491.272 327.071 491.368 327.071 491.704V495.208C327.071 495.52 327.167 495.64 327.503 495.64H330.767C331.463 495.64 331.655 495.832 331.655 496.528V498.112C331.655 498.808 331.463 499 330.767 499H324.647C323.951 499 323.759 498.808 323.759 498.112V481.888C323.759 481.192 323.951 481 324.647 481H330.767C331.463 481 331.655 481.192 331.655 481.888V483.472C331.655 484.168 331.463 484.36 330.767 484.36H327.503C327.167 484.36 327.071 484.456 327.071 484.792Z" fill="#EFB73B"/>
<path d="M265.84 515.2V515.8C265.84 519.02 264.92 520.2 262.02 520.2C259.12 520.2 258.16 519.02 258.16 515.8V509.2C258.16 505.98 259.12 504.8 262.02 504.8C264.92 504.8 265.84 505.98 265.84 509.2V509.8C265.84 510.38 265.68 510.54 265.1 510.54H263.82C263.24 510.54 263.08 510.38 263.08 509.8V508.72C263.08 507.92 262.74 507.6 262.04 507.6C261.34 507.6 261 507.92 261 508.72V516.28C261 517.08 261.34 517.4 262.04 517.4C262.74 517.4 263.08 517.08 263.08 516.28V515.2C263.08 514.62 263.24 514.46 263.82 514.46H265.1C265.68 514.46 265.84 514.62 265.84 515.2ZM274.669 515.6C274.669 518.98 273.709 520.2 270.809 520.2C267.909 520.2 266.949 518.98 266.949 515.6V509.4C266.949 506.04 267.909 504.8 270.809 504.8C273.709 504.8 274.669 506.04 274.669 509.4V515.6ZM269.789 516.28C269.789 517.08 270.109 517.4 270.809 517.4C271.509 517.4 271.829 517.08 271.829 516.28V508.82C271.829 507.94 271.509 507.6 270.809 507.6C270.109 507.6 269.789 507.94 269.789 508.82V516.28ZM279.292 510.34L281.852 512.66C283.192 513.86 283.492 514.58 283.492 515.92V516.28C283.492 518.8 282.532 520.2 279.632 520.2C276.732 520.2 275.772 519.02 275.772 515.8V515.4C275.772 514.82 275.932 514.66 276.512 514.66H277.872C278.452 514.66 278.612 514.82 278.612 515.4V516.28C278.612 517.08 278.932 517.4 279.632 517.4C280.332 517.4 280.652 517.1 280.652 516.38V516C280.652 515.44 280.532 515.16 279.792 514.5L277.392 512.36C276.052 511.18 275.772 510.5 275.772 509.16V508.72C275.772 506.2 276.732 504.8 279.632 504.8C282.532 504.8 283.492 505.98 283.492 509.2V509.6C283.492 510.18 283.332 510.34 282.752 510.34H281.392C280.812 510.34 280.652 510.18 280.652 509.6V508.72C280.652 507.92 280.332 507.6 279.632 507.6C278.932 507.6 278.612 507.9 278.612 508.62V508.96C278.612 509.54 278.732 509.82 279.292 510.34ZM290.588 507.8H289.348C289.068 507.8 288.988 507.88 288.988 508.16V519.26C288.988 519.84 288.828 520 288.248 520H286.968C286.388 520 286.228 519.84 286.228 519.26V508.16C286.228 507.88 286.148 507.8 285.868 507.8H284.628C284.048 507.8 283.888 507.64 283.888 507.06V505.74C283.888 505.16 284.048 505 284.628 505H290.588C291.168 505 291.328 505.16 291.328 505.74V507.06C291.328 507.64 291.168 507.8 290.588 507.8ZM293.884 519.26C293.884 519.84 293.724 520 293.144 520H291.864C291.284 520 291.124 519.84 291.124 519.26V514.14C291.124 513.26 291.164 512.9 291.404 512.1L293.224 506C293.464 505.16 293.664 505 294.704 505H295.424C296.464 505 296.664 505.16 296.904 506L298.724 512.1C298.964 512.88 299.004 513.26 299.004 514.14V519.26C299.004 519.84 298.844 520 298.264 520H296.984C296.404 520 296.244 519.84 296.244 519.26V516.62C296.244 516.34 296.164 516.26 295.884 516.26H294.244C293.964 516.26 293.884 516.34 293.884 516.62V519.26ZM295.944 513.46C296.164 513.46 296.284 513.38 296.284 513.2C296.284 513.1 296.264 513 296.244 512.9L295.324 509.04C295.284 508.84 295.244 508.8 295.064 508.8C294.884 508.8 294.844 508.84 294.804 509.04L293.884 512.9C293.864 513 293.844 513.1 293.844 513.2C293.844 513.38 293.964 513.46 294.184 513.46H295.944ZM308.614 519.26V516.92C308.614 516.22 308.574 516 308.274 515.46L307.794 514.6C307.574 514.24 307.454 514.18 307.094 514.18H306.734C306.454 514.18 306.374 514.26 306.374 514.54V519.26C306.374 519.84 306.214 520 305.634 520H304.354C303.774 520 303.614 519.84 303.614 519.26V505.74C303.614 505.16 303.774 505 304.354 505H306.994C310.034 505 311.414 506.04 311.414 508.6V510.04C311.414 511.48 311.194 512.42 310.374 513.08C310.274 513.14 310.254 513.2 310.254 513.26C310.254 513.32 310.274 513.38 310.334 513.48L310.894 514.5C311.314 515.28 311.374 515.6 311.374 516.66V519.26C311.374 519.84 311.214 520 310.634 520H309.354C308.774 520 308.614 519.84 308.614 519.26ZM306.374 508.06V511.08C306.374 511.36 306.454 511.44 306.734 511.44H307.154C308.094 511.44 308.574 511.02 308.574 510.06V509.02C308.574 508.08 308.134 507.7 307.154 507.7H306.734C306.454 507.7 306.374 507.78 306.374 508.06ZM315.729 505.74V519.26C315.729 519.84 315.569 520 314.989 520H313.709C313.129 520 312.969 519.84 312.969 519.26V505.74C312.969 505.16 313.129 505 313.709 505H314.989C315.569 505 315.729 505.16 315.729 505.74ZM325.02 515.2V515.8C325.02 519.02 324.1 520.2 321.2 520.2C318.3 520.2 317.34 519.02 317.34 515.8V509.2C317.34 505.98 318.3 504.8 321.2 504.8C324.1 504.8 325.02 505.98 325.02 509.2V509.8C325.02 510.38 324.86 510.54 324.28 510.54H323C322.42 510.54 322.26 510.38 322.26 509.8V508.72C322.26 507.92 321.92 507.6 321.22 507.6C320.52 507.6 320.18 507.92 320.18 508.72V516.28C320.18 517.08 320.52 517.4 321.22 517.4C321.92 517.4 322.26 517.08 322.26 516.28V515.2C322.26 514.62 322.42 514.46 323 514.46H324.28C324.86 514.46 325.02 514.62 325.02 515.2ZM328.571 519.26C328.571 519.84 328.411 520 327.831 520H326.551C325.971 520 325.811 519.84 325.811 519.26V514.14C325.811 513.26 325.851 512.9 326.091 512.1L327.911 506C328.151 505.16 328.351 505 329.391 505H330.111C331.151 505 331.351 505.16 331.591 506L333.411 512.1C333.651 512.88 333.691 513.26 333.691 514.14V519.26C333.691 519.84 333.531 520 332.951 520H331.671C331.091 520 330.931 519.84 330.931 519.26V516.62C330.931 516.34 330.851 516.26 330.571 516.26H328.931C328.651 516.26 328.571 516.34 328.571 516.62V519.26ZM330.631 513.46C330.851 513.46 330.971 513.38 330.971 513.2C330.971 513.1 330.951 513 330.931 512.9L330.011 509.04C329.971 508.84 329.931 508.8 329.751 508.8C329.571 508.8 329.531 508.84 329.491 509.04L328.571 512.9C328.551 513 328.531 513.1 328.531 513.2C328.531 513.38 328.651 513.46 328.871 513.46H330.631Z" fill="#EFB73B"/>
<path d="M1.26773 540.756C46.9206 541.394 92.5822 541.585 138.239 541.318C160.976 541.187 183.716 540.733 206.453 540.92C228.996 541.107 251.534 541.649 274.077 541.888C298.967 542.151 323.896 542.063 348.733 540.394C350.416 540.282 350.429 537.889 348.733 538.004C304.143 541.003 259.308 539.203 214.657 538.621C191.951 538.323 169.246 538.721 146.54 538.876C123.707 539.036 100.87 539.084 78.0369 539.016C52.4486 538.94 26.856 538.725 1.27213 538.367C-0.424072 538.343 -0.424072 540.733 1.27213 540.756L1.26773 540.756Z" fill="#84CCF5"/>
<path d="M63.0825 583V571.328H65.0834V583H63.0825ZM67.4139 583V571.328H69.4148L75.0341 579.765V571.328H77.035V583H75.0341L69.4148 574.579V583H67.4139ZM82.7676 583L78.4823 571.328H80.6333L83.9849 580.949L87.3698 571.328H89.4874L85.2021 583H82.7676ZM90.9437 583V571.328H92.9446V583H90.9437ZM97.9931 583V572.945H94.5748V571.328H103.429V572.945H99.994V583H97.9931ZM105.045 583V571.328H112.599V572.945H107.046V576.297H112.099V577.881H107.046V581.383H112.599V583H105.045ZM118.604 583.2C117.759 583.2 117.009 583.05 116.353 582.75C115.697 582.45 115.186 582.022 114.819 581.466C114.452 580.91 114.258 580.249 114.235 579.482H116.353C116.364 579.871 116.459 580.221 116.636 580.532C116.814 580.832 117.07 581.071 117.403 581.249C117.737 581.427 118.137 581.516 118.604 581.516C119.004 581.516 119.349 581.455 119.638 581.333C119.938 581.199 120.166 581.016 120.321 580.782C120.488 580.538 120.572 580.254 120.572 579.932C120.572 579.565 120.483 579.259 120.305 579.015C120.127 578.77 119.888 578.57 119.588 578.415C119.288 578.248 118.943 578.103 118.554 577.981C118.165 577.848 117.754 577.709 117.32 577.564C116.409 577.253 115.714 576.858 115.236 576.38C114.769 575.891 114.535 575.241 114.535 574.429C114.535 573.751 114.697 573.168 115.019 572.679C115.353 572.189 115.808 571.811 116.386 571.545C116.975 571.267 117.654 571.128 118.421 571.128C119.199 571.128 119.877 571.267 120.455 571.545C121.044 571.823 121.505 572.212 121.839 572.712C122.172 573.201 122.345 573.79 122.356 574.479H120.221C120.221 574.19 120.149 573.924 120.005 573.679C119.86 573.423 119.649 573.218 119.371 573.062C119.104 572.895 118.776 572.812 118.387 572.812C118.054 572.801 117.754 572.856 117.487 572.979C117.231 573.09 117.026 573.257 116.87 573.479C116.714 573.69 116.636 573.957 116.636 574.279C116.636 574.591 116.709 574.852 116.853 575.063C116.998 575.263 117.203 575.435 117.47 575.58C117.737 575.713 118.043 575.841 118.387 575.963C118.743 576.086 119.132 576.219 119.554 576.364C120.133 576.553 120.655 576.786 121.122 577.064C121.6 577.331 121.978 577.681 122.256 578.114C122.534 578.548 122.673 579.109 122.673 579.799C122.673 580.399 122.517 580.96 122.206 581.483C121.894 581.994 121.439 582.411 120.838 582.733C120.238 583.044 119.493 583.2 118.604 583.2ZM131.657 583V578.798L127.772 571.328H130.023L132.908 577.297H132.441L135.309 571.328H137.56L133.658 578.798V583H131.657ZM143.567 583.2C142.434 583.2 141.433 582.95 140.566 582.45C139.71 581.938 139.038 581.233 138.548 580.332C138.059 579.421 137.815 578.365 137.815 577.164C137.815 575.975 138.059 574.93 138.548 574.029C139.038 573.118 139.71 572.406 140.566 571.895C141.433 571.384 142.434 571.128 143.567 571.128C144.723 571.128 145.735 571.384 146.602 571.895C147.469 572.406 148.142 573.118 148.62 574.029C149.098 574.93 149.337 575.975 149.337 577.164C149.337 578.365 149.098 579.421 148.62 580.332C148.142 581.233 147.469 581.938 146.602 582.45C145.735 582.95 144.723 583.2 143.567 583.2ZM143.584 581.399C144.329 581.399 144.979 581.233 145.535 580.899C146.102 580.554 146.535 580.065 146.836 579.432C147.147 578.798 147.302 578.042 147.302 577.164C147.302 576.286 147.147 575.53 146.836 574.896C146.535 574.263 146.102 573.779 145.535 573.446C144.979 573.101 144.329 572.929 143.584 572.929C142.828 572.929 142.172 573.101 141.617 573.446C141.061 573.779 140.627 574.263 140.316 574.896C140.005 575.53 139.849 576.286 139.849 577.164C139.849 578.042 140.005 578.798 140.316 579.432C140.627 580.065 141.061 580.554 141.617 580.899C142.172 581.233 142.828 581.399 143.584 581.399ZM155.71 583.2C154.865 583.2 154.098 583.033 153.409 582.7C152.731 582.366 152.186 581.855 151.775 581.166C151.374 580.477 151.174 579.61 151.174 578.565V571.328H153.175V578.581C153.175 579.215 153.281 579.737 153.492 580.149C153.703 580.56 153.998 580.871 154.376 581.082C154.765 581.283 155.221 581.383 155.743 581.383C156.277 581.383 156.732 581.283 157.11 581.082C157.499 580.871 157.794 580.56 157.994 580.149C158.205 579.737 158.311 579.215 158.311 578.581V571.328H160.312V578.565C160.312 579.61 160.106 580.477 159.695 581.166C159.284 581.855 158.728 582.366 158.027 582.7C157.327 583.033 156.555 583.2 155.71 583.2Z" fill="#0E2C5E"/>
<g clip-path="url(#clip0_4162_829)">
<path d="M191.949 598.706L173.915 576.987L191.949 555.277L209.982 576.996L191.949 598.714V598.706ZM177.208 576.987L191.94 594.729L206.672 576.987L191.949 559.246L177.208 576.987Z" fill="#0E2C5E"/>
<path d="M191.949 590.586L180.66 576.988L191.949 563.398V590.586Z" fill="#0E2C5E"/>
<path d="M191.949 590.586L203.237 576.988L191.949 563.398V590.586Z" fill="#0E2C5E"/>
<path d="M206.255 568.65L208.623 561.656C208.706 561.405 208.548 561.122 208.34 561.155L202.637 561.53C202.454 561.555 202.304 561.347 202.329 561.114L203.329 556.136C203.362 555.886 203.187 555.678 202.996 555.728L197.926 556.178C197.735 556.228 197.56 556.011 197.601 555.753L198.652 550.434C198.694 550.184 198.518 549.958 198.318 550.008L191.949 551.609L206.255 568.65Z" fill="#0E2C5E"/>
<path d="M177.642 568.65L175.274 561.647C175.191 561.397 175.349 561.114 175.558 561.147L181.26 561.522C181.444 561.547 181.594 561.339 181.569 561.105L180.568 556.128C180.535 555.878 180.71 555.669 180.902 555.72L185.971 556.17C186.163 556.22 186.338 556.003 186.296 555.745L185.245 550.425C185.204 550.175 185.379 549.95 185.579 550L191.949 551.601L177.642 568.65Z" fill="#0E2C5E"/>
<path d="M206.255 585.358L208.623 592.353C208.706 592.603 208.548 592.886 208.34 592.853L202.637 592.478C202.454 592.453 202.304 592.661 202.329 592.895L203.329 597.872C203.362 598.122 203.187 598.331 202.996 598.281L197.926 597.83C197.735 597.78 197.56 597.997 197.601 598.256L198.652 603.575C198.694 603.825 198.518 604.05 198.318 604L191.949 602.399L206.255 585.358Z" fill="#0E2C5E"/>
<path d="M177.642 585.358L175.274 592.353C175.191 592.603 175.349 592.886 175.558 592.853L181.26 592.478C181.444 592.453 181.594 592.661 181.569 592.895L180.568 597.872C180.535 598.122 180.71 598.331 180.902 598.281L185.971 597.83C186.163 597.78 186.338 597.997 186.296 598.256L185.245 603.575C185.204 603.825 185.379 604.05 185.579 604L191.949 602.399L177.642 585.358Z" fill="#0E2C5E"/>
<path d="M223.363 573.644C223.213 574.203 222.913 574.637 222.471 574.928C222.021 575.22 221.446 575.37 220.745 575.37C219.778 575.37 219.019 575.053 218.494 574.428C218.027 573.878 217.769 573.111 217.71 572.152H224.789V571.418C224.789 570.56 224.614 569.793 224.272 569.151C223.93 568.5 223.438 567.992 222.813 567.625C222.196 567.258 221.462 567.075 220.637 567.075C219.811 567.075 219.003 567.283 218.352 567.692C217.702 568.1 217.185 568.667 216.81 569.392C216.443 570.109 216.251 570.943 216.251 571.877C216.251 572.811 216.443 573.661 216.818 574.378C217.194 575.095 217.727 575.654 218.394 576.062C219.061 576.462 219.845 576.662 220.72 576.662C221.796 576.662 222.688 576.404 223.38 575.895C224.072 575.387 224.547 574.645 224.78 573.694L224.814 573.561H223.38L223.355 573.636L223.363 573.644ZM220.628 568.375C221.429 568.375 222.079 568.625 222.571 569.126C223.038 569.601 223.288 570.243 223.305 571.018H217.744C217.802 570.618 217.902 570.26 218.052 569.943C218.286 569.442 218.628 569.051 219.069 568.784C219.511 568.517 220.037 568.375 220.628 568.375Z" fill="#0E2C5E"/>
<path d="M228.39 564.507H226.931V567.325H225.147V568.6H226.931V576.446H228.39V568.6H230.183V567.325H228.39V564.507Z" fill="#0E2C5E"/>
<path d="M235.785 567.083C235.018 567.083 234.351 567.25 233.809 567.583C233.376 567.85 233.017 568.184 232.742 568.592V562.814H231.258V576.429H232.742V571.485C232.742 570.927 232.851 570.41 233.067 569.959C233.276 569.509 233.593 569.142 234.01 568.867C234.418 568.6 234.935 568.459 235.552 568.459C236.002 568.459 236.402 568.542 236.736 568.717C237.069 568.884 237.328 569.167 237.52 569.551C237.711 569.943 237.803 570.493 237.803 571.168V576.446H239.287V570.893C239.287 569.759 239.004 568.834 238.453 568.142C237.895 567.442 237.003 567.091 235.794 567.091L235.785 567.083Z" fill="#0E2C5E"/>
<path d="M247.724 573.644C247.574 574.203 247.274 574.637 246.832 574.928C246.382 575.22 245.807 575.37 245.107 575.37C244.139 575.37 243.381 575.053 242.856 574.428C242.389 573.878 242.13 573.111 242.072 572.152H249.15V571.418C249.15 570.56 248.975 569.793 248.633 569.151C248.291 568.5 247.799 567.992 247.174 567.625C246.557 567.258 245.824 567.075 244.998 567.075C244.173 567.075 243.364 567.283 242.714 567.692C242.063 568.1 241.547 568.667 241.171 569.392C240.805 570.109 240.613 570.943 240.613 571.877C240.613 572.811 240.805 573.661 241.18 574.378C241.555 575.095 242.088 575.654 242.755 576.062C243.422 576.462 244.206 576.662 245.082 576.662C246.157 576.662 247.049 576.404 247.741 575.895C248.433 575.387 248.908 574.645 249.142 573.694L249.175 573.561H247.741L247.716 573.636L247.724 573.644ZM244.99 568.375C245.79 568.375 246.44 568.625 246.932 569.126C247.399 569.601 247.649 570.243 247.666 571.018H242.105C242.164 570.618 242.264 570.26 242.414 569.943C242.647 569.442 242.989 569.051 243.431 568.784C243.873 568.517 244.398 568.375 244.99 568.375Z" fill="#0E2C5E"/>
<path d="M254.936 567.142C254.069 567.058 253.302 567.242 252.71 567.684C252.435 567.892 252.218 568.134 252.06 568.409L251.993 567.325H250.592V576.446H252.076V571.26C252.076 570.435 252.31 569.768 252.777 569.293C253.235 568.809 253.869 568.567 254.661 568.567H255.47V567.242L255.386 567.225C255.236 567.192 255.086 567.158 254.944 567.15L254.936 567.142Z" fill="#0E2C5E"/>
<path d="M262.706 573.644C262.556 574.203 262.256 574.637 261.814 574.928C261.364 575.22 260.789 575.37 260.088 575.37C259.121 575.37 258.363 575.053 257.837 574.428C257.371 573.878 257.112 573.111 257.054 572.152H264.132V571.418C264.132 570.56 263.957 569.793 263.615 569.151C263.273 568.5 262.781 567.992 262.156 567.625C261.539 567.258 260.805 567.075 259.98 567.075C259.155 567.075 258.346 567.283 257.696 567.692C257.045 568.1 256.528 568.667 256.153 569.392C255.786 570.109 255.595 570.943 255.595 571.877C255.595 572.811 255.786 573.661 256.162 574.378C256.537 575.095 257.07 575.654 257.737 576.062C258.404 576.462 259.188 576.662 260.063 576.662C261.139 576.662 262.031 576.404 262.723 575.895C263.415 575.387 263.89 574.645 264.124 573.694L264.157 573.561H262.723L262.698 573.636L262.706 573.644ZM259.972 568.375C260.772 568.375 261.422 568.625 261.914 569.126C262.381 569.601 262.631 570.243 262.648 571.018H257.087C257.145 570.618 257.245 570.26 257.396 569.943C257.629 569.442 257.971 569.051 258.413 568.784C258.855 568.517 259.38 568.375 259.972 568.375Z" fill="#0E2C5E"/>
<path d="M271.835 572.16C271.835 573.186 271.602 573.978 271.143 574.511C270.685 575.045 270.043 575.312 269.218 575.312C268.551 575.312 268 575.103 267.592 574.695C267.175 574.286 266.967 573.561 266.967 572.544V567.3H265.466V572.944C265.466 574.045 265.758 574.945 266.325 575.629C266.9 576.312 267.734 576.662 268.809 576.662C269.526 576.662 270.185 576.496 270.768 576.171C271.243 575.904 271.61 575.57 271.869 575.162L272.011 576.437H273.311V567.316H271.827V572.152L271.835 572.16Z" fill="#0E2C5E"/>
<path d="M287.168 568C286.559 567.391 285.759 567.083 284.775 567.083C283.933 567.083 283.216 567.308 282.657 567.758C282.299 568.042 282.032 568.392 281.849 568.809C281.657 568.392 281.39 568.042 281.04 567.758C280.49 567.308 279.798 567.083 278.972 567.083C278.264 567.083 277.647 567.258 277.121 567.608C276.805 567.817 276.546 568.075 276.346 568.375L276.229 567.325H274.929V576.446H276.413V570.818C276.413 570.385 276.504 569.984 276.688 569.626C276.871 569.267 277.13 568.984 277.48 568.775C277.822 568.567 278.239 568.459 278.705 568.459C279.347 568.459 279.864 568.659 280.239 569.051C280.615 569.442 280.806 570.018 280.806 570.743V576.446H282.265V570.835C282.265 570.401 282.357 569.993 282.541 569.626C282.724 569.259 282.982 568.976 283.324 568.759C283.658 568.542 284.066 568.434 284.541 568.434C285.192 568.434 285.717 568.642 286.084 569.042C286.459 569.451 286.642 570.026 286.642 570.76V576.446H288.085V570.501C288.085 569.442 287.776 568.6 287.168 568Z" fill="#0E2C5E"/>
<path d="M223.588 588.41C223.046 588.777 222.388 588.96 221.629 588.96C220.962 588.96 220.37 588.802 219.87 588.477C219.37 588.16 218.978 587.701 218.703 587.118C218.427 586.534 218.294 585.859 218.294 585.083C218.294 584.308 218.427 583.591 218.703 583.007C218.978 582.424 219.37 581.982 219.87 581.665C220.37 581.348 220.962 581.19 221.629 581.19C222.379 581.19 223.021 581.373 223.538 581.732C224.063 582.09 224.422 582.599 224.614 583.249H226.673C226.548 582.449 226.264 581.757 225.806 581.165C225.347 580.581 224.772 580.123 224.072 579.798C223.371 579.472 222.579 579.314 221.696 579.314C220.62 579.314 219.67 579.556 218.844 580.031C218.019 580.506 217.385 581.181 216.935 582.04C216.485 582.899 216.26 583.916 216.26 585.075C216.26 586.234 216.477 587.259 216.927 588.118C217.369 588.977 217.986 589.644 218.786 590.111C219.586 590.586 220.528 590.819 221.612 590.819C222.496 590.819 223.296 590.653 224.013 590.336C224.73 590.011 225.322 589.552 225.798 588.96C226.273 588.368 226.581 587.693 226.723 586.917H224.697C224.514 587.534 224.147 588.026 223.605 588.393L223.588 588.41Z" fill="#0E2C5E"/>
<path d="M233.543 583.407C232.934 583.074 232.242 582.907 231.458 582.907C230.675 582.907 229.991 583.074 229.383 583.407C228.774 583.741 228.299 584.208 227.949 584.8C227.607 585.392 227.432 586.084 227.432 586.867C227.432 587.651 227.607 588.335 227.949 588.935C228.29 589.527 228.774 589.994 229.383 590.327C229.991 590.661 230.683 590.828 231.458 590.828C232.234 590.828 232.934 590.661 233.543 590.327C234.143 589.994 234.618 589.527 234.968 588.935C235.31 588.343 235.485 587.651 235.485 586.867C235.485 586.084 235.31 585.4 234.968 584.8C234.627 584.208 234.151 583.741 233.543 583.407ZM233.351 588.068C233.168 588.41 232.918 588.685 232.592 588.877C232.267 589.068 231.892 589.168 231.467 589.168C231.042 589.168 230.666 589.068 230.35 588.877C230.033 588.685 229.774 588.418 229.591 588.068C229.408 587.718 229.308 587.318 229.308 586.867C229.308 586.417 229.399 586 229.591 585.658C229.783 585.317 230.033 585.05 230.35 584.858C230.666 584.666 231.042 584.566 231.467 584.566C231.892 584.566 232.267 584.666 232.592 584.858C232.918 585.05 233.168 585.317 233.351 585.658C233.534 586 233.626 586.401 233.626 586.867C233.626 587.334 233.534 587.726 233.351 588.068Z" fill="#0E2C5E"/>
<path d="M240.396 586.351L239.037 586.034C238.387 585.884 238.061 585.6 238.061 585.183C238.061 584.908 238.161 584.691 238.37 584.525C238.57 584.366 238.853 584.283 239.22 584.283C239.587 584.283 239.871 584.375 240.071 584.566C240.271 584.758 240.379 585.008 240.379 585.333H242.147C242.138 584.85 242.013 584.416 241.771 584.049C241.53 583.683 241.196 583.399 240.771 583.199C240.346 582.999 239.854 582.891 239.295 582.891C238.737 582.891 238.203 582.982 237.753 583.174C237.303 583.366 236.953 583.633 236.694 583.991C236.436 584.35 236.302 584.766 236.302 585.258C236.302 585.859 236.469 586.326 236.794 586.667C237.128 587.009 237.628 587.251 238.312 587.409L239.671 587.726C240.004 587.801 240.237 587.901 240.354 588.043C240.479 588.185 240.538 588.351 240.538 588.527C240.538 588.802 240.421 589.018 240.196 589.185C239.971 589.352 239.629 589.427 239.179 589.427C238.762 589.427 238.437 589.327 238.203 589.135C237.97 588.943 237.845 588.685 237.836 588.36H236.069C236.069 589.102 236.344 589.702 236.903 590.161C237.461 590.619 238.203 590.844 239.137 590.844C239.754 590.844 240.304 590.744 240.779 590.544C241.255 590.344 241.63 590.061 241.888 589.694C242.155 589.327 242.288 588.885 242.288 588.376C242.288 587.801 242.13 587.351 241.805 587.034C241.488 586.717 241.013 586.492 240.379 586.351H240.396Z" fill="#0E2C5E"/>
<path d="M245.973 580.773H244.114V583.116H242.664V584.675H244.114V590.644H245.973V584.675H247.424V583.116H245.973V580.773Z" fill="#0E2C5E"/>
<path d="M253.244 583.249C252.76 583.007 252.168 582.891 251.493 582.891C250.817 582.891 250.234 582.999 249.717 583.224C249.2 583.449 248.808 583.758 248.525 584.158C248.241 584.558 248.108 585.033 248.108 585.584H249.692C249.692 585.183 249.842 584.883 250.134 584.658C250.426 584.441 250.851 584.333 251.401 584.333C251.718 584.333 251.993 584.383 252.226 584.475C252.46 584.566 252.643 584.725 252.768 584.933C252.893 585.142 252.96 585.417 252.96 585.767V585.934L250.701 586.117C249.809 586.192 249.117 586.426 248.633 586.842C248.149 587.251 247.908 587.801 247.908 588.493C247.908 589.185 248.141 589.76 248.6 590.194C249.058 590.628 249.692 590.844 250.484 590.844C251.076 590.844 251.601 590.719 252.06 590.477C252.518 590.236 252.835 589.919 252.993 589.535L253.127 590.644H254.761V586.075C254.761 585.375 254.627 584.783 254.361 584.316C254.094 583.841 253.719 583.491 253.235 583.249H253.244ZM252.968 587.601C252.968 588.176 252.802 588.635 252.46 588.96C252.118 589.285 251.659 589.444 251.084 589.444C250.676 589.444 250.359 589.36 250.142 589.185C249.917 589.01 249.809 588.76 249.809 588.427C249.809 588.118 249.934 587.876 250.175 587.685C250.417 587.493 250.834 587.376 251.409 587.326L252.977 587.201V587.601H252.968Z" fill="#0E2C5E"/>
<path d="M268.125 584.875C268.467 584.35 268.634 583.716 268.634 582.974C268.634 581.874 268.284 581.023 267.575 580.415C266.866 579.806 265.883 579.498 264.624 579.498H260.372V590.636H262.323V586.476H264.716L266.608 590.636H268.742L266.625 586.067C267.283 585.792 267.784 585.392 268.125 584.867V584.875ZM266.074 584.291C265.733 584.608 265.249 584.767 264.624 584.767H262.323V581.248H264.624C265.241 581.248 265.724 581.398 266.074 581.699C266.416 581.999 266.591 582.432 266.591 582.991C266.591 583.549 266.416 583.983 266.074 584.3V584.291Z" fill="#0E2C5E"/>
<path d="M270.927 579.372C270.61 579.372 270.343 579.48 270.126 579.689C269.91 579.906 269.801 580.164 269.801 580.481C269.801 580.798 269.91 581.065 270.126 581.281C270.343 581.498 270.61 581.606 270.927 581.606C271.244 581.606 271.51 581.498 271.727 581.281C271.944 581.065 272.052 580.798 272.052 580.481C272.052 580.164 271.944 579.897 271.727 579.689C271.51 579.472 271.244 579.372 270.927 579.372Z" fill="#0E2C5E"/>
<path d="M271.869 583.116H270.01V590.644H271.869V583.116Z" fill="#0E2C5E"/>
<path d="M277.988 588.852C277.68 589.077 277.288 589.185 276.821 589.185C276.421 589.185 276.079 589.094 275.796 588.902C275.512 588.71 275.287 588.443 275.129 588.101C274.979 587.76 274.904 587.343 274.904 586.868C274.904 586.392 274.987 585.975 275.145 585.634C275.304 585.292 275.537 585.025 275.837 584.833C276.138 584.641 276.479 584.55 276.863 584.55C277.313 584.55 277.68 584.658 277.98 584.875C278.28 585.092 278.489 585.417 278.597 585.842H280.456C280.356 584.942 279.973 584.216 279.322 583.683C278.664 583.149 277.83 582.882 276.796 582.882C276.054 582.882 275.404 583.049 274.837 583.391C274.27 583.733 273.828 584.2 273.511 584.8C273.195 585.4 273.028 586.084 273.028 586.859C273.028 587.635 273.186 588.36 273.495 588.952C273.803 589.544 274.245 590.011 274.812 590.336C275.379 590.669 276.046 590.828 276.805 590.828C277.463 590.828 278.055 590.703 278.572 590.452C279.089 590.202 279.514 589.861 279.848 589.419C280.181 588.977 280.381 588.46 280.465 587.868H278.589C278.489 588.285 278.28 588.602 277.972 588.827L277.988 588.852Z" fill="#0E2C5E"/>
<path d="M287.693 584.316C287.426 583.841 287.051 583.491 286.567 583.249C286.084 583.007 285.492 582.891 284.816 582.891C284.141 582.891 283.558 582.999 283.041 583.224C282.524 583.449 282.132 583.758 281.848 584.158C281.565 584.558 281.432 585.033 281.432 585.584H283.016C283.016 585.183 283.166 584.883 283.457 584.658C283.749 584.441 284.174 584.333 284.725 584.333C285.042 584.333 285.317 584.383 285.55 584.475C285.784 584.566 285.967 584.725 286.092 584.933C286.217 585.142 286.284 585.417 286.284 585.767V585.934L284.024 586.117C283.132 586.192 282.44 586.426 281.957 586.842C281.473 587.251 281.231 587.801 281.231 588.493C281.231 589.185 281.465 589.76 281.923 590.194C282.382 590.628 283.016 590.844 283.808 590.844C284.4 590.844 284.925 590.719 285.383 590.477C285.842 590.236 286.159 589.919 286.317 589.535L286.451 590.644H288.085V586.075C288.085 585.375 287.951 584.783 287.684 584.316H287.693ZM286.284 587.601C286.284 588.176 286.117 588.635 285.775 588.96C285.433 589.285 284.975 589.444 284.4 589.444C283.991 589.444 283.674 589.36 283.457 589.185C283.232 589.01 283.124 588.76 283.124 588.427C283.124 588.118 283.249 587.876 283.491 587.685C283.733 587.493 284.149 587.376 284.725 587.326L286.292 587.201V587.601H286.284Z" fill="#0E2C5E"/>
</g>
<defs>
<clipPath id="clip0_4162_829">
<rect width="114.17" height="54" fill="white" transform="translate(173.915 550)"/>
</clipPath>
</defs>
</svg>
