<svg width="669" height="127" viewBox="0 0 669 127" fill="none" xmlns="http://www.w3.org/2000/svg">
<g clip-path="url(#clip0_5_42)">
<path d="M274.974 72.8222C269.945 72.8222 268.494 71.3713 267.911 66.8241L260.465 3.8275C260.175 1.02045 261.237 0.24764 264.043 0.24764H271.106C273.912 0.24764 274.49 1.02045 274.685 3.8275L278.941 53.4719C279.036 54.6336 279.425 54.9228 280.297 54.9228C281.169 54.9228 281.553 54.6336 281.653 53.4719L285.909 3.8275C286.104 1.02045 286.682 0.24764 289.488 0.24764H296.551C299.357 0.24764 300.419 1.02045 300.13 3.8275L292.678 66.8241C292.1 71.3713 290.644 72.8222 285.615 72.8222H274.974Z" fill="#0E2C5E"/>
<path d="M316.089 69.2428C316.089 72.0498 315.317 72.8226 312.511 72.8226H306.32C303.514 72.8226 302.741 72.0498 302.741 69.2428V3.82303C302.741 1.01598 303.514 0.243164 306.32 0.243164H312.511C315.317 0.243164 316.089 1.01598 316.089 3.82303V69.2428Z" fill="#0E2C5E"/>
<path d="M357.449 23.4674V49.5934C357.449 66.0468 353.676 72.8177 335.099 72.8177H323.297C320.49 72.8177 319.718 72.0449 319.718 69.2378V3.82303C319.718 1.01598 320.49 0.243164 323.297 0.243164H335.099C353.676 0.243164 357.449 7.01898 357.449 23.4674ZM333.071 15.5349V57.5359C333.071 58.7924 333.46 59.276 334.81 59.276H335.872C341.29 59.276 343.707 56.7581 343.707 50.4709V22.5999C343.707 16.3077 341.29 13.7948 335.872 13.7948H334.81C333.455 13.7948 333.071 14.1837 333.071 15.5349Z" fill="#0E2C5E"/>
<path d="M385.202 0.243164C389.553 0.243164 390.909 1.69406 391.392 5.27392L399.905 69.2378C400.294 72.0449 399.517 72.8177 396.715 72.8177H390.041C387.141 72.8177 386.463 72.1396 386.074 69.2378L384.818 58.6877C384.723 57.7204 384.429 57.4312 383.268 57.4312H374.949C373.788 57.4312 373.499 57.7204 373.399 58.6877L372.143 69.2378C371.754 72.1396 371.081 72.8177 368.175 72.8177H361.501C358.695 72.8177 357.923 72.0449 358.311 69.2378L366.825 5.27392C367.308 1.69406 368.664 0.243164 373.015 0.243164H385.207L385.202 0.243164ZM379.111 18.6311C378.049 18.6311 377.466 18.8255 377.371 19.9873L375.148 42.5334C375.054 43.6951 375.343 43.9843 376.599 43.9843H381.628C382.884 43.9843 383.178 43.6951 383.078 42.5334L380.855 19.9873C380.761 18.8255 380.178 18.6311 379.116 18.6311H379.111Z" fill="#0E2C5E"/>
<path d="M61.8901 47.953C60.5344 47.953 60.1506 48.3419 60.1506 49.6931V69.2428C60.1506 72.0498 59.378 72.8226 56.5719 72.8226H50.3814C47.5752 72.8226 46.8026 72.0498 46.8026 69.2428V3.82801C46.8026 1.02096 47.5752 0.243164 50.3814 0.243164H63.1511C77.8548 0.243164 84.5288 5.56808 84.5288 18.6311V29.5651C84.5288 42.6281 77.8548 47.953 63.1511 47.953H61.8951H61.8901ZM60.1506 32.6663C60.1506 34.0225 60.5394 34.4064 61.8901 34.4064H63.9237C68.6638 34.4064 70.7921 32.4719 70.7921 27.5359V20.6653C70.7921 15.7293 68.6638 13.7948 63.9237 13.7948H61.8901C60.5344 13.7948 60.1506 14.1837 60.1506 15.5349V32.6614V32.6663Z" fill="#0E2C5E"/>
<path d="M114.23 0.243164H120.421C123.227 0.243164 123.999 1.01598 123.999 3.82303V52.5002C123.999 68.0811 119.354 73.7899 105.328 73.7899C91.3024 73.7899 86.6571 68.0811 86.6571 52.5002V3.82801C86.6571 1.02096 87.4296 0.243164 90.2358 0.243164H96.4263C99.2324 0.243164 100.005 1.01598 100.005 3.82303V54.8236C100.005 58.6926 101.65 60.2432 105.323 60.2432C108.997 60.2432 110.646 58.6926 110.646 54.8236V3.82801C110.651 1.02096 111.424 0.243164 114.23 0.243164Z" fill="#0E2C5E"/>
<path d="M145.073 46.6019C144.59 45.2457 144.201 44.8618 142.75 44.8618H142.362C141.006 44.8618 140.622 45.2507 140.622 46.6019V69.2477C140.622 72.0548 139.85 72.8276 137.043 72.8276H130.853C128.047 72.8276 127.274 72.0548 127.274 69.2477V3.82801C127.274 1.02096 128.047 0.24815 130.853 0.24815H143.623C158.326 0.24815 165 5.2789 165 17.6688V24.6341C165 33.7283 163.55 37.2135 158.421 41.5711C157.838 41.96 157.743 42.1495 157.743 42.6331C157.743 42.9223 157.838 43.2165 158.032 43.8896L166.545 69.148C167.418 71.6659 166.451 72.8276 163.934 72.8276H156.871C154.164 72.8276 153.581 72.4387 152.809 70.1203L145.068 46.6069L145.073 46.6019ZM140.622 29.954C140.622 31.3102 141.011 31.6941 142.362 31.6941H144.395C148.941 31.6941 151.264 29.6599 151.264 25.018V19.6981C151.264 15.1509 149.135 13.3112 144.395 13.3112H142.362C141.006 13.3112 140.622 13.7001 140.622 15.0512V29.954Z" fill="#0E2C5E"/>
<path d="M195.783 0.243164C200.135 0.243164 201.49 1.69406 201.974 5.27392L210.487 69.2378C210.876 72.0449 210.098 72.8177 207.297 72.8177H200.623C197.722 72.8177 197.044 72.1396 196.656 69.2378L195.4 58.6877C195.305 57.7204 195.011 57.4312 193.849 57.4312H185.531C184.369 57.4312 184.08 57.7204 183.981 58.6877L182.725 69.2378C182.336 72.1396 181.663 72.8177 178.757 72.8177H172.083C169.277 72.8177 168.504 72.0449 168.893 69.2378L177.406 5.27392C177.885 1.69904 179.241 0.243164 183.597 0.243164H195.788H195.783ZM189.688 18.6311C188.626 18.6311 188.043 18.8255 187.948 19.9873L185.725 42.5334C185.63 43.6951 185.919 43.9843 187.176 43.9843H192.205C193.461 43.9843 193.755 43.6951 193.655 42.5334L191.432 19.9873C191.337 18.8255 190.754 18.6311 189.693 18.6311H189.688Z" fill="#0E2C5E"/>
<path d="M250.965 20.8249C251.144 21.7772 251.244 22.7544 251.244 23.7566C251.244 26.1847 250.69 28.4832 249.708 30.5423C249.514 30.1385 249.265 29.7695 248.951 29.4504C248.094 28.5779 246.912 28.1641 245.716 28.3087C245.502 28.3386 245.277 28.3535 245.058 28.3535C243.608 28.3535 242.262 27.7752 241.265 26.7281C240.268 25.6861 239.755 24.31 239.825 22.8591C239.949 20.1817 242.137 17.9979 244.809 17.8732C247.431 17.7486 249.494 18.7458 250.965 20.8299V20.8249ZM248.632 23.1034C248.632 21.134 247.027 19.5285 245.058 19.5285C243.089 19.5285 241.484 21.134 241.484 23.1034C241.484 25.0728 243.084 26.6783 245.058 26.6783C247.032 26.6783 248.632 25.0728 248.632 23.1034Z" fill="#EFB73B"/>
<path d="M231.276 22.8392C231.341 24.29 230.833 25.6661 229.831 26.7082C228.834 27.7552 227.483 28.3336 226.038 28.3336C225.819 28.3336 225.599 28.3236 225.38 28.2937C224.184 28.1391 223.003 28.558 222.145 29.4305C221.791 29.7994 221.512 30.2282 221.313 30.6969C220.286 28.6028 219.703 26.2495 219.703 23.7566C219.703 22.8392 219.783 21.9417 219.937 21.0692C219.957 21.0442 219.982 21.0243 219.997 20.9944C221.467 18.7856 223.586 17.7187 226.282 17.8533C228.959 17.9779 231.142 20.1667 231.266 22.8392H231.276ZM229.612 23.0884C229.612 21.119 228.007 19.5136 226.038 19.5136C224.069 19.5136 222.464 21.119 222.464 23.0884C222.464 25.0579 224.069 26.6633 226.038 26.6633C228.007 26.6633 229.612 25.0579 229.612 23.0884Z" fill="#EFB73B"/>
<path d="M231.506 28.3136C232.946 26.8079 233.684 24.8235 233.594 22.7345C233.415 18.8704 230.255 15.7094 226.397 15.5348C224.951 15.475 223.162 15.6695 221.437 16.5919C224.054 11.4913 229.358 7.98623 235.478 7.98623C241.599 7.98623 246.837 11.4464 249.469 16.4971C247.809 15.6645 246.1 15.49 244.709 15.5498C240.846 15.7293 237.686 18.8903 237.512 22.7494C237.417 24.8385 238.155 26.8179 239.6 28.3286C241.036 29.8343 242.98 30.667 245.068 30.667C245.382 30.667 245.701 30.647 246.01 30.6072C246.658 30.5274 247.102 30.8614 247.301 31.0658C247.68 31.4547 247.854 31.9833 247.775 32.5167C247.67 33.2297 247.426 33.8779 247.062 34.4463C244.181 37.5674 240.054 39.5269 235.483 39.5269C230.913 39.5269 227.105 37.717 224.244 34.8053C224.214 34.7105 224.169 34.6158 224.114 34.526C223.71 33.9327 223.451 33.2546 223.341 32.5068C223.262 31.9733 223.436 31.4448 223.815 31.0559C224.014 30.8515 224.458 30.5124 225.106 30.5972C225.415 30.6371 225.734 30.657 226.048 30.657C228.136 30.657 230.075 29.8244 231.516 28.3186L231.506 28.3136ZM235.463 26.0999C234.442 26.0999 233.669 26.7531 233.669 27.6206C233.669 28.4882 234.442 29.1413 235.463 29.1413C236.485 29.1413 237.258 28.4882 237.258 27.6206C237.258 26.7531 236.485 26.0999 235.463 26.0999ZM241.454 33.7682C242.003 33.4341 242.177 32.7261 241.848 32.1777C241.514 31.6293 240.806 31.4547 240.258 31.7838C239.78 32.073 239.231 32.2226 238.668 32.2226C237.781 32.2226 236.934 31.8387 236.346 31.1706C236.336 31.1606 236.326 31.1506 236.316 31.1456C236.291 31.1207 236.271 31.0908 236.246 31.0658C236.231 31.0559 236.211 31.0409 236.196 31.0309C236.176 31.016 236.151 31.001 236.131 30.9861C236.086 30.9611 236.051 30.9312 236.007 30.9063L235.927 30.8714C235.887 30.8564 235.847 30.8365 235.797 30.8265C235.772 30.8166 235.737 30.8116 235.708 30.8066C235.663 30.7966 235.628 30.7916 235.583 30.7866C235.548 30.7866 235.513 30.7866 235.478 30.7866C235.438 30.7866 235.398 30.7866 235.369 30.7866C235.329 30.7866 235.289 30.7966 235.249 30.8066C235.219 30.8066 235.189 30.8166 235.154 30.8265C235.114 30.8365 235.075 30.8515 235.035 30.8714C235.005 30.8814 234.975 30.8963 234.95 30.9063C234.905 30.9312 234.87 30.9562 234.83 30.9811C234.805 31.001 234.785 31.016 234.761 31.0309L234.716 31.0658C234.691 31.0908 234.671 31.1157 234.641 31.1456C234.631 31.1556 234.621 31.1606 234.611 31.1706C234.023 31.8387 233.175 32.2226 232.293 32.2226C231.73 32.2226 231.177 32.073 230.703 31.7838C230.155 31.4498 229.437 31.6293 229.113 32.1777C228.779 32.7261 228.959 33.4391 229.507 33.7682C230.344 34.2768 231.311 34.541 232.298 34.541C233.455 34.541 234.566 34.172 235.488 33.499C236.41 34.172 237.522 34.541 238.678 34.541C239.665 34.541 240.627 34.2768 241.469 33.7682H241.454Z" fill="#F9FFF2"/>
<path d="M242.287 65.6379C242.72 65.1643 242.69 64.4363 242.227 63.9976C241.753 63.5588 241.021 63.5887 240.587 64.0574L239.745 64.9648C239.58 64.6308 239.486 64.2668 239.486 63.8729V63.8181C239.476 63.7134 239.052 53.1832 243.952 47.265C244.36 46.7714 244.29 46.0384 243.802 45.6346C243.309 45.2257 242.576 45.2955 242.167 45.7842C237.861 50.9844 237.223 58.9219 237.153 62.3123L235.498 64.4912L233.943 62.3223C233.878 58.9319 233.24 50.9944 228.929 45.7891C228.525 45.3005 227.792 45.2307 227.299 45.6396C226.806 46.0434 226.741 46.7763 227.144 47.2699C232.049 53.1882 231.625 63.7183 231.615 63.823V63.8779C231.615 64.3167 231.501 64.7255 231.296 65.0795L230.349 64.0624C229.916 63.5887 229.183 63.5638 228.715 64.0025C228.241 64.4413 228.216 65.1692 228.655 65.6429L229.278 66.316C229.243 66.316 229.213 66.326 229.173 66.326C228.625 66.326 228.106 66.1465 227.673 65.8074C219.254 59.3108 214.798 52.8491 214.42 46.6118C214.061 40.7035 217.674 37.0589 217.709 37.029L218.402 36.3509L217.864 35.5531C215.521 32.063 214.285 27.9846 214.285 23.7615C214.285 12.0746 223.79 2.57157 235.473 2.57157C247.156 2.57157 256.656 12.0796 256.656 23.7615C256.656 27.9497 255.435 32.0032 253.128 35.4734C252.784 35.9969 252.913 36.6849 253.417 37.0489C253.736 37.383 257.025 40.9578 256.681 46.6068C256.303 52.8442 251.842 59.3059 243.428 65.8024C243 66.1365 242.476 66.321 241.928 66.321C241.843 66.321 241.758 66.311 241.674 66.306L242.292 65.6429L242.287 65.6379ZM253.561 23.7566C253.561 22.53 253.437 21.3384 253.202 20.1767C253.202 20.1617 253.202 20.1518 253.192 20.1318C251.513 11.8852 244.206 5.66281 235.473 5.66281C225.5 5.66281 217.385 13.7798 217.385 23.7566C217.385 33.7333 225.495 41.8503 235.473 41.8503C240.687 41.8503 245.387 39.6266 248.692 36.0816C248.736 36.0467 248.776 36.0019 248.816 35.952C251.757 32.7311 253.556 28.4532 253.556 23.7566H253.561Z" fill="#F67A38"/>
<path d="M253.202 20.1767C253.437 21.3384 253.561 22.53 253.561 23.7566C253.561 28.4533 251.762 32.7312 248.821 35.952C248.781 35.9969 248.741 36.0468 248.697 36.0817C245.392 39.6266 240.692 41.8503 235.478 41.8503C225.505 41.8503 217.39 33.7383 217.39 23.7566C217.39 13.7748 225.5 5.66282 235.478 5.66282C244.206 5.66282 251.518 11.8852 253.197 20.1318C253.197 20.1468 253.207 20.1568 253.207 20.1767H253.202ZM251.244 23.7566C251.244 22.7544 251.144 21.7772 250.964 20.8249C249.494 18.7408 247.431 17.7436 244.809 17.8683C242.132 17.9929 239.949 20.1817 239.825 22.8541C239.755 24.305 240.268 25.6811 241.265 26.7232C242.267 27.7702 243.613 28.3486 245.058 28.3486C245.272 28.3486 245.497 28.3386 245.716 28.3037C246.912 28.1591 248.093 28.5679 248.951 29.4455C249.265 29.7646 249.514 30.1385 249.708 30.5374C250.69 28.4832 251.244 26.1797 251.244 23.7516V23.7566ZM247.77 32.5168C247.849 31.9833 247.675 31.4548 247.296 31.0659C247.097 30.8615 246.653 30.5224 246.005 30.6072C245.696 30.6471 245.377 30.667 245.063 30.667C242.975 30.667 241.031 29.8344 239.595 28.3286C238.155 26.8229 237.412 24.8385 237.507 22.7494C237.686 18.8854 240.846 15.7243 244.704 15.5498C246.095 15.49 247.804 15.6645 249.464 16.4971C246.832 11.4464 241.549 7.98624 235.473 7.98624C229.397 7.98624 224.049 11.4863 221.432 16.5919C223.157 15.6695 224.946 15.475 226.392 15.5349C230.255 15.7144 233.415 18.8754 233.589 22.7345C233.684 24.8236 232.946 26.8029 231.501 28.3137C230.06 29.8194 228.121 30.652 226.033 30.652C225.719 30.652 225.4 30.6321 225.091 30.5922C224.443 30.5124 223.999 30.8465 223.8 31.0509C223.421 31.4398 223.247 31.9683 223.327 32.5018C223.436 33.2497 223.695 33.9328 224.099 34.5211C224.159 34.6108 224.199 34.7006 224.229 34.8003C227.095 37.717 231.072 39.5219 235.468 39.5219C239.864 39.5219 244.161 37.5625 247.047 34.4413C247.416 33.8729 247.66 33.2248 247.76 32.5118L247.77 32.5168ZM229.831 26.7082C230.833 25.6662 231.341 24.2901 231.276 22.8392C231.152 20.1667 228.964 17.9779 226.292 17.8533C223.596 17.7237 221.477 18.7857 220.007 20.9944C219.987 21.0193 219.962 21.0443 219.947 21.0692C219.798 21.9417 219.713 22.8392 219.713 23.7566C219.713 26.2445 220.291 28.5979 221.323 30.6969C221.522 30.2282 221.796 29.7995 222.155 29.4305C223.013 28.558 224.194 28.1392 225.39 28.2937C225.604 28.3187 225.829 28.3336 226.048 28.3336C227.493 28.3336 228.844 27.7553 229.841 26.7082H229.831Z" fill="#0E2C5E"/>
<path d="M245.058 19.5285C247.027 19.5285 248.632 21.134 248.632 23.1034C248.632 25.0728 247.027 26.6783 245.058 26.6783C243.089 26.6783 241.484 25.0728 241.484 23.1034C241.484 21.134 243.084 19.5285 245.058 19.5285ZM246.314 23.1034C246.314 22.4054 245.751 21.847 245.058 21.847C244.365 21.847 243.802 22.4054 243.802 23.1034C243.802 23.8014 244.36 24.3598 245.058 24.3598C245.756 24.3598 246.314 23.7964 246.314 23.1034Z" fill="#0E2C5E"/>
<path d="M235.463 26.1C236.485 26.1 237.258 26.7531 237.258 27.6206C237.258 28.4882 236.485 29.1413 235.463 29.1413C234.442 29.1413 233.669 28.4882 233.669 27.6206C233.669 26.7531 234.442 26.1 235.463 26.1Z" fill="#0E2C5E"/>
<path d="M236.146 67.388C236.091 67.4229 236.037 67.4578 235.982 67.4827C235.972 67.4827 235.967 67.4827 235.962 67.4927C235.892 67.5226 235.827 67.5476 235.757 67.5675C235.738 67.5675 235.718 67.5775 235.703 67.5775C235.623 67.5924 235.548 67.6024 235.468 67.6024C235.389 67.6024 235.309 67.5924 235.234 67.5725L235.174 67.5625C235.105 67.5426 235.04 67.5176 234.975 67.4877C234.965 67.4877 234.95 67.4778 234.945 67.4778C234.885 67.4478 234.825 67.4079 234.771 67.3681C234.761 67.3681 234.756 67.3531 234.746 67.3481C234.721 67.3282 234.701 67.3032 234.676 67.2833C234.631 67.2434 234.596 67.2035 234.556 67.1537C234.546 67.1437 234.536 67.1287 234.531 67.1188L233.554 65.7526C233.39 66.1365 233.171 66.4905 232.916 66.8146L234.781 68.8239C235.214 69.2926 235.184 70.0255 234.721 70.4643C234.496 70.6687 234.212 70.7734 233.933 70.7734C233.619 70.7734 233.31 70.6438 233.081 70.4045L231.077 68.2406C230.668 68.4201 230.225 68.5397 229.761 68.5996L230.913 71.1872C231.177 71.7756 230.913 72.4586 230.325 72.7229C230.175 72.7877 230.011 72.8176 229.856 72.8176C229.412 72.8176 228.989 72.5633 228.794 72.1296L227.005 68.106C226.746 67.9714 226.497 67.8168 226.262 67.6323H226.252C217.261 60.687 212.501 53.6419 212.102 46.6866C211.793 41.2919 214.245 37.5675 215.451 36.0767C213.169 32.3772 211.967 28.1342 211.967 23.7516C211.967 10.7883 222.514 0.238178 235.473 0.238178C248.433 0.238178 258.979 10.7883 258.979 23.7516C258.979 28.0893 257.803 32.2924 255.565 35.962C256.731 37.368 259.323 41.1473 259.009 46.6866C258.605 53.6419 253.845 60.687 244.849 67.6323C244.615 67.8118 244.365 67.9664 244.111 68.106L242.317 72.1296C242.127 72.5633 241.704 72.8176 241.26 72.8176C241.101 72.8176 240.941 72.7877 240.787 72.7229C240.203 72.4586 239.939 71.7756 240.198 71.1872L241.355 68.5996C240.846 68.5397 240.368 68.3951 239.929 68.1907L237.876 70.4045C237.647 70.6488 237.337 70.7734 237.023 70.7734C236.739 70.7734 236.46 70.6687 236.236 70.4643C235.767 70.0255 235.743 69.2926 236.176 68.8239L238.125 66.7149C237.886 66.3958 237.681 66.0418 237.527 65.6629L236.4 67.1387C236.4 67.1387 236.381 67.1636 236.371 67.1736C236.336 67.2185 236.296 67.2534 236.256 67.2933C236.231 67.3132 236.211 67.3381 236.186 67.3531C236.176 67.3631 236.166 67.373 236.156 67.378L236.146 67.388ZM256.687 46.6069C257.03 40.9529 253.741 37.383 253.422 37.0489C252.918 36.685 252.789 35.9919 253.133 35.4734C255.44 32.0032 256.662 27.9497 256.662 23.7616C256.662 12.0747 247.157 2.57157 235.478 2.57157C223.8 2.57157 214.29 12.0796 214.29 23.7616C214.29 27.9846 215.526 32.063 217.869 35.5532L218.407 36.3509L217.714 37.029C217.679 37.0589 214.066 40.7036 214.425 46.6118C214.804 52.8492 219.264 59.3109 227.678 65.8075C228.112 66.1465 228.63 66.331 229.178 66.331C229.218 66.331 229.248 66.331 229.283 66.321L228.66 65.6479C228.221 65.1743 228.251 64.4463 228.72 64.0076C229.188 63.5688 229.921 63.5987 230.354 64.0674L231.302 65.0845C231.501 64.7305 231.621 64.3167 231.621 63.8829V63.8281C231.63 63.7234 232.054 53.1932 227.15 47.275C226.746 46.7814 226.811 46.0484 227.304 45.6446C227.798 45.2357 228.53 45.3055 228.934 45.7942C233.24 50.9994 233.878 58.9369 233.948 62.3273L235.503 64.4962L237.158 62.3174C237.223 58.927 237.866 50.9894 242.172 45.7892C242.581 45.3006 243.314 45.2308 243.807 45.6396C244.296 46.0435 244.365 46.7764 243.957 47.27C239.057 53.1882 239.481 63.7184 239.486 63.8231V63.8779C239.486 64.2718 239.58 64.6408 239.75 64.9699L240.592 64.0624C241.026 63.5888 241.759 63.5638 242.232 64.0026C242.701 64.4414 242.725 65.1693 242.292 65.6429L241.674 66.3061C241.759 66.316 241.843 66.321 241.928 66.321C242.476 66.321 243 66.1415 243.428 65.8025C251.847 59.3059 256.303 52.8492 256.682 46.6069H256.687Z" fill="#0E2C5E"/>
<path d="M235.922 30.8764L236.002 30.9113C236.046 30.9362 236.081 30.9611 236.126 30.9911C236.151 31.006 236.171 31.021 236.191 31.0359C236.206 31.0459 236.226 31.0609 236.241 31.0708C236.266 31.0958 236.286 31.1207 236.311 31.1506C236.321 31.1606 236.336 31.1656 236.341 31.1755C236.929 31.8436 237.776 32.2276 238.663 32.2276C239.226 32.2276 239.775 32.078 240.253 31.7888C240.801 31.4597 241.514 31.6342 241.843 32.1827C242.172 32.7311 241.998 33.4441 241.449 33.7732C240.607 34.2817 239.645 34.546 238.658 34.546C237.497 34.546 236.385 34.177 235.468 33.5039C234.546 34.177 233.435 34.546 232.278 34.546C231.291 34.546 230.324 34.2817 229.487 33.7732C228.939 33.4391 228.759 32.7311 229.093 32.1827C229.422 31.6342 230.135 31.4547 230.683 31.7888C231.157 32.078 231.71 32.2276 232.273 32.2276C233.161 32.2276 234.003 31.8436 234.591 31.1755C234.601 31.1656 234.616 31.1556 234.621 31.1506C234.646 31.1257 234.666 31.0958 234.696 31.0708L234.741 31.0359C234.741 31.0359 234.785 31.006 234.81 30.9861C234.85 30.9611 234.89 30.9362 234.93 30.9113C234.955 30.9013 234.985 30.8864 235.015 30.8764C235.055 30.8564 235.094 30.8415 235.134 30.8315C235.169 30.8215 235.199 30.8166 235.229 30.8116C235.269 30.8016 235.309 30.7966 235.349 30.7916C235.384 30.7916 235.423 30.7916 235.458 30.7916C235.493 30.7916 235.528 30.7916 235.563 30.7916C235.608 30.7916 235.643 30.8016 235.688 30.8116C235.717 30.8116 235.747 30.8215 235.777 30.8315C235.822 30.8415 235.867 30.8614 235.907 30.8764H235.922Z" fill="#0E2C5E"/>
<path d="M226.038 19.5136C228.007 19.5136 229.612 21.119 229.612 23.0884C229.612 25.0579 228.007 26.6633 226.038 26.6633C224.069 26.6633 222.464 25.0579 222.464 23.0884C222.464 21.119 224.069 19.5136 226.038 19.5136ZM227.294 23.0884C227.294 22.3954 226.736 21.832 226.038 21.832C225.34 21.832 224.782 22.3954 224.782 23.0884C224.782 23.7815 225.345 24.3449 226.038 24.3449C226.731 24.3449 227.294 23.7815 227.294 23.0884Z" fill="#0E2C5E"/>
<path d="M15.4264 64.9399C16.1691 64.9399 16.4532 64.7105 16.4532 63.9128V56.8279C16.4532 55.1676 16.9117 54.7139 18.5665 54.7139H22.3396C23.9944 54.7139 24.453 55.1726 24.453 56.7132V63.9128C24.453 64.7105 24.6822 64.9399 25.4797 64.9399H33.8234C34.5661 64.9399 34.8502 64.7105 34.8502 63.9128V56.1398C34.8502 54.4845 35.3088 54.0258 36.9635 54.0258H40.7367C42.3914 54.0258 42.85 54.4845 42.85 56.1398V70.7135C42.85 72.3689 42.3914 72.8276 40.7367 72.8276H2.11334C0.458555 72.8276 0 72.3689 0 70.7135V56.1398C0 54.4845 0.458555 54.0258 2.11334 54.0258H5.88646C7.54124 54.0258 7.9998 54.4845 7.9998 56.1398V63.9128C7.9998 64.7105 8.22907 64.9399 9.02656 64.9399H15.4264Z" fill="#EFB73B"/>
<path d="M7.9998 33.3344C7.9998 34.1322 8.22907 34.3615 9.02656 34.3615H40.7367C42.3914 34.3615 42.85 34.8202 42.85 36.4755V40.1352C42.85 41.7905 42.3914 42.2492 40.7367 42.2492H9.02656C8.22907 42.2492 7.9998 42.4785 7.9998 43.2763V46.8212C7.9998 48.4766 7.54124 48.9353 5.88646 48.9353H2.11334C0.458555 48.9353 0 48.4766 0 46.8212V29.7895C0 28.1342 0.458555 27.6755 2.11334 27.6755H5.88646C7.54124 27.6755 7.9998 28.1342 7.9998 29.7895V33.3344Z" fill="#EFB73B"/>
<path d="M25.3103 8.13581C24.5128 8.13581 24.2835 8.36516 24.2835 9.1629V13.8496C24.2835 14.6474 24.5128 14.8767 25.3103 14.8767H40.7367C42.3914 14.8767 42.85 15.3354 42.85 16.9907V20.6504C42.85 22.3057 42.3914 22.7644 40.7367 22.7644H2.11334C0.458555 22.7644 0 22.3057 0 20.6504V16.9907C0 15.3354 0.458555 14.8767 2.11334 14.8767H15.2569C15.9996 14.8767 16.2837 14.6474 16.2837 13.8496V9.1629C16.2837 8.36017 15.9996 8.13581 15.2569 8.13581H2.11334C0.458555 8.13581 0 7.67711 0 6.02179V2.36216C0 0.701865 0.458555 0.243164 2.11334 0.243164H40.7367C42.3914 0.243164 42.85 0.701865 42.85 2.35718V6.01681C42.85 7.67212 42.3914 8.13082 40.7367 8.13082H25.3103V8.13581Z" fill="#EFB73B"/>
</g>
<path d="M14.9531 109.17H20.0156C19.9323 110.732 19.5052 112.113 18.7344 113.31C17.974 114.498 16.9167 115.43 15.5625 116.107C14.2083 116.774 12.599 117.107 10.7344 117.107C9.24479 117.107 7.91146 116.852 6.73438 116.342C5.55729 115.831 4.55729 115.102 3.73438 114.154C2.92188 113.196 2.29688 112.045 1.85938 110.701C1.43229 109.347 1.21875 107.821 1.21875 106.123V104.732C1.21875 103.034 1.44271 101.508 1.89062 100.154C2.33854 98.8 2.97917 97.6438 3.8125 96.6855C4.64583 95.7271 5.64583 94.9928 6.8125 94.4823C7.97917 93.9719 9.28125 93.7167 10.7188 93.7167C12.6562 93.7167 14.2917 94.0657 15.625 94.7636C16.9583 95.4615 17.9896 96.4198 18.7188 97.6386C19.4583 98.8573 19.901 100.248 20.0469 101.81H14.9688C14.9271 100.925 14.7604 100.18 14.4688 99.5761C14.1771 98.9615 13.7292 98.498 13.125 98.1855C12.5208 97.873 11.7188 97.7167 10.7188 97.7167C9.98958 97.7167 9.34896 97.8521 8.79688 98.123C8.25521 98.3938 7.80208 98.8157 7.4375 99.3886C7.08333 99.9615 6.81771 100.691 6.64062 101.576C6.46354 102.451 6.375 103.493 6.375 104.701V106.123C6.375 107.321 6.45312 108.357 6.60938 109.232C6.76562 110.107 7.01562 110.831 7.35938 111.404C7.71354 111.977 8.16667 112.404 8.71875 112.685C9.27083 112.967 9.94271 113.107 10.7344 113.107C11.6406 113.107 12.3958 112.967 13 112.685C13.6042 112.394 14.0677 111.956 14.3906 111.373C14.7135 110.79 14.901 110.055 14.9531 109.17ZM22.2106 108.514V108.185C22.2106 106.946 22.3877 105.805 22.7419 104.764C23.096 103.712 23.6169 102.8 24.3044 102.029C24.9919 101.258 25.8356 100.659 26.8356 100.232C27.8356 99.7948 28.9815 99.5761 30.2731 99.5761C31.5856 99.5761 32.7419 99.7948 33.7419 100.232C34.7523 100.659 35.6012 101.258 36.2887 102.029C36.9762 102.8 37.4971 103.712 37.8512 104.764C38.2054 105.805 38.3825 106.946 38.3825 108.185V108.514C38.3825 109.743 38.2054 110.883 37.8512 111.935C37.4971 112.977 36.9762 113.889 36.2887 114.67C35.6012 115.441 34.7575 116.04 33.7575 116.467C32.7575 116.894 31.6065 117.107 30.3044 117.107C29.0127 117.107 27.8617 116.894 26.8512 116.467C25.8408 116.04 24.9919 115.441 24.3044 114.67C23.6169 113.889 23.096 112.977 22.7419 111.935C22.3877 110.883 22.2106 109.743 22.2106 108.514ZM27.1012 108.185V108.514C27.1012 109.18 27.1533 109.805 27.2575 110.389C27.3721 110.972 27.5544 111.482 27.8044 111.92C28.0544 112.357 28.3825 112.701 28.7887 112.951C29.2054 113.191 29.7106 113.31 30.3044 113.31C30.8981 113.31 31.3981 113.191 31.8044 112.951C32.2106 112.701 32.5387 112.357 32.7887 111.92C33.0387 111.482 33.2158 110.972 33.32 110.389C33.4346 109.805 33.4919 109.18 33.4919 108.514V108.185C33.4919 107.529 33.4346 106.915 33.32 106.342C33.2158 105.758 33.0387 105.243 32.7887 104.795C32.5387 104.347 32.2054 103.998 31.7887 103.748C31.3825 103.498 30.8773 103.373 30.2731 103.373C29.6898 103.373 29.195 103.498 28.7887 103.748C28.3825 103.998 28.0544 104.347 27.8044 104.795C27.5544 105.243 27.3721 105.758 27.2575 106.342C27.1533 106.915 27.1012 107.529 27.1012 108.185ZM46.0462 103.498V116.795H41.1556V99.8886H45.7494L46.0462 103.498ZM45.4056 107.748L44.1869 107.779C44.1869 106.508 44.3431 105.368 44.6556 104.357C44.9681 103.347 45.4108 102.488 45.9837 101.779C46.5671 101.06 47.2598 100.514 48.0619 100.139C48.8744 99.7636 49.7702 99.5761 50.7494 99.5761C51.541 99.5761 52.265 99.6907 52.9212 99.9198C53.5775 100.149 54.14 100.519 54.6087 101.029C55.0879 101.529 55.4525 102.196 55.7025 103.029C55.9525 103.852 56.0775 104.868 56.0775 106.076V116.795H51.1712V106.06C51.1712 105.352 51.0723 104.805 50.8744 104.42C50.6765 104.034 50.3848 103.764 49.9994 103.607C49.6244 103.451 49.166 103.373 48.6244 103.373C48.0515 103.373 47.5619 103.488 47.1556 103.717C46.7494 103.935 46.416 104.243 46.1556 104.639C45.8952 105.034 45.7025 105.498 45.5775 106.029C45.4629 106.56 45.4056 107.133 45.4056 107.748ZM65.6631 116.795H60.7569V98.4511C60.7569 97.149 61.0121 96.0553 61.5225 95.1698C62.0433 94.2844 62.7777 93.6125 63.7256 93.1542C64.6735 92.6959 65.7933 92.4667 67.085 92.4667C67.5329 92.4667 67.9496 92.498 68.335 92.5605C68.7308 92.6125 69.1162 92.6855 69.4912 92.7792V96.4198C69.2933 96.3678 69.0902 96.3313 68.8819 96.3105C68.6735 96.2896 68.4235 96.2792 68.1319 96.2792C67.611 96.2792 67.1631 96.3625 66.7881 96.5292C66.4235 96.6855 66.1423 96.9303 65.9444 97.2636C65.7569 97.5865 65.6631 97.9823 65.6631 98.4511V116.795ZM69.0069 99.8886V103.31H58.2881V99.8886H69.0069ZM79.03 117.107C77.6862 117.107 76.4831 116.894 75.4206 116.467C74.3581 116.04 73.4571 115.451 72.7175 114.701C71.9883 113.941 71.431 113.066 71.0456 112.076C70.6602 111.087 70.4675 110.029 70.4675 108.904V108.31C70.4675 107.05 70.6446 105.889 70.9987 104.826C71.3529 103.764 71.8685 102.842 72.5456 102.06C73.2331 101.269 74.0769 100.659 75.0769 100.232C76.0769 99.7948 77.2175 99.5761 78.4987 99.5761C79.6967 99.5761 80.7644 99.774 81.7019 100.17C82.6394 100.555 83.431 101.113 84.0769 101.842C84.7227 102.56 85.2123 103.43 85.5456 104.451C85.8894 105.462 86.0612 106.597 86.0612 107.857V109.857H72.4362V106.717H81.28V106.342C81.28 105.748 81.1706 105.227 80.9519 104.779C80.7435 104.331 80.431 103.988 80.0144 103.748C79.6081 103.498 79.0925 103.373 78.4675 103.373C77.8737 103.373 77.379 103.498 76.9831 103.748C76.5873 103.998 76.2696 104.352 76.03 104.81C75.8008 105.258 75.6342 105.784 75.53 106.389C75.4258 106.982 75.3737 107.623 75.3737 108.31V108.904C75.3737 109.56 75.4623 110.159 75.6394 110.701C75.8165 111.243 76.0769 111.706 76.4206 112.092C76.7644 112.477 77.181 112.779 77.6706 112.998C78.1602 113.217 78.7175 113.326 79.3425 113.326C80.1133 113.326 80.8477 113.18 81.5456 112.889C82.2435 112.587 82.8477 112.118 83.3581 111.482L85.6394 114.092C85.2956 114.592 84.8112 115.076 84.1862 115.545C83.5717 116.003 82.8321 116.378 81.9675 116.67C81.1029 116.962 80.1237 117.107 79.03 117.107ZM93.6469 103.826V116.795H88.7719V99.8886H93.35L93.6469 103.826ZM98.6937 99.7636L98.6156 104.31C98.4073 104.279 98.1365 104.253 97.8031 104.232C97.4698 104.201 97.1833 104.185 96.9437 104.185C96.3187 104.185 95.7771 104.264 95.3187 104.42C94.8708 104.566 94.4958 104.784 94.1937 105.076C93.9021 105.368 93.6833 105.732 93.5375 106.17C93.3917 106.597 93.3187 107.092 93.3187 107.654L92.3969 107.201C92.3969 106.087 92.5062 105.066 92.725 104.139C92.9437 103.212 93.2615 102.409 93.6781 101.732C94.0948 101.045 94.6052 100.514 95.2094 100.139C95.8135 99.7636 96.501 99.5761 97.2719 99.5761C97.5219 99.5761 97.7771 99.5917 98.0375 99.623C98.2979 99.6542 98.5167 99.7011 98.6937 99.7636ZM108.67 117.107C107.326 117.107 106.123 116.894 105.061 116.467C103.998 116.04 103.097 115.451 102.357 114.701C101.628 113.941 101.071 113.066 100.686 112.076C100.3 111.087 100.107 110.029 100.107 108.904V108.31C100.107 107.05 100.285 105.889 100.639 104.826C100.993 103.764 101.509 102.842 102.186 102.06C102.873 101.269 103.717 100.659 104.717 100.232C105.717 99.7948 106.857 99.5761 108.139 99.5761C109.337 99.5761 110.404 99.774 111.342 100.17C112.279 100.555 113.071 101.113 113.717 101.842C114.363 102.56 114.852 103.43 115.186 104.451C115.529 105.462 115.701 106.597 115.701 107.857V109.857H102.076V106.717H110.92V106.342C110.92 105.748 110.811 105.227 110.592 104.779C110.384 104.331 110.071 103.988 109.654 103.748C109.248 103.498 108.732 103.373 108.107 103.373C107.514 103.373 107.019 103.498 106.623 103.748C106.227 103.998 105.91 104.352 105.67 104.81C105.441 105.258 105.274 105.784 105.17 106.389C105.066 106.982 105.014 107.623 105.014 108.31V108.904C105.014 109.56 105.102 110.159 105.279 110.701C105.456 111.243 105.717 111.706 106.061 112.092C106.404 112.477 106.821 112.779 107.311 112.998C107.8 113.217 108.357 113.326 108.982 113.326C109.753 113.326 110.488 113.18 111.186 112.889C111.884 112.587 112.488 112.118 112.998 111.482L115.279 114.092C114.936 114.592 114.451 115.076 113.826 115.545C113.212 116.003 112.472 116.378 111.607 116.67C110.743 116.962 109.764 117.107 108.67 117.107ZM123.177 103.498V116.795H118.287V99.8886H122.881L123.177 103.498ZM122.537 107.748L121.318 107.779C121.318 106.508 121.474 105.368 121.787 104.357C122.099 103.347 122.542 102.488 123.115 101.779C123.698 101.06 124.391 100.514 125.193 100.139C126.006 99.7636 126.901 99.5761 127.881 99.5761C128.672 99.5761 129.396 99.6907 130.052 99.9198C130.709 100.149 131.271 100.519 131.74 101.029C132.219 101.529 132.584 102.196 132.834 103.029C133.084 103.852 133.209 104.868 133.209 106.076V116.795H128.302V106.06C128.302 105.352 128.204 104.805 128.006 104.42C127.808 104.034 127.516 103.764 127.131 103.607C126.756 103.451 126.297 103.373 125.756 103.373C125.183 103.373 124.693 103.488 124.287 103.717C123.881 103.935 123.547 104.243 123.287 104.639C123.026 105.034 122.834 105.498 122.709 106.029C122.594 106.56 122.537 107.133 122.537 107.748ZM143.779 113.31C144.3 113.31 144.753 113.212 145.138 113.014C145.524 112.816 145.82 112.54 146.029 112.185C146.247 111.821 146.357 111.383 146.357 110.873H150.951C150.951 112.102 150.633 113.185 149.997 114.123C149.372 115.06 148.529 115.795 147.466 116.326C146.404 116.847 145.206 117.107 143.872 117.107C142.56 117.107 141.414 116.894 140.435 116.467C139.456 116.029 138.638 115.42 137.982 114.639C137.326 113.857 136.831 112.951 136.497 111.92C136.175 110.878 136.013 109.753 136.013 108.545V108.139C136.013 106.941 136.175 105.821 136.497 104.779C136.831 103.738 137.326 102.826 137.982 102.045C138.638 101.264 139.451 100.659 140.419 100.232C141.399 99.7948 142.544 99.5761 143.857 99.5761C145.242 99.5761 146.466 99.8417 147.529 100.373C148.602 100.904 149.44 101.67 150.044 102.67C150.649 103.659 150.951 104.852 150.951 106.248H146.357C146.357 105.706 146.258 105.222 146.06 104.795C145.872 104.357 145.581 104.014 145.185 103.764C144.8 103.503 144.32 103.373 143.747 103.373C143.154 103.373 142.664 103.503 142.279 103.764C141.904 104.014 141.617 104.363 141.419 104.81C141.221 105.258 141.086 105.769 141.013 106.342C140.94 106.904 140.904 107.503 140.904 108.139V108.545C140.904 109.191 140.94 109.805 141.013 110.389C141.086 110.962 141.221 111.467 141.419 111.904C141.628 112.342 141.919 112.685 142.294 112.935C142.669 113.185 143.164 113.31 143.779 113.31ZM161.661 117.107C160.318 117.107 159.114 116.894 158.052 116.467C156.989 116.04 156.088 115.451 155.349 114.701C154.62 113.941 154.062 113.066 153.677 112.076C153.291 111.087 153.099 110.029 153.099 108.904V108.31C153.099 107.05 153.276 105.889 153.63 104.826C153.984 103.764 154.5 102.842 155.177 102.06C155.864 101.269 156.708 100.659 157.708 100.232C158.708 99.7948 159.849 99.5761 161.13 99.5761C162.328 99.5761 163.396 99.774 164.333 100.17C165.271 100.555 166.062 101.113 166.708 101.842C167.354 102.56 167.844 103.43 168.177 104.451C168.521 105.462 168.693 106.597 168.693 107.857V109.857H155.068V106.717H163.911V106.342C163.911 105.748 163.802 105.227 163.583 104.779C163.375 104.331 163.062 103.988 162.646 103.748C162.239 103.498 161.724 103.373 161.099 103.373C160.505 103.373 160.01 103.498 159.614 103.748C159.219 103.998 158.901 104.352 158.661 104.81C158.432 105.258 158.265 105.784 158.161 106.389C158.057 106.982 158.005 107.623 158.005 108.31V108.904C158.005 109.56 158.094 110.159 158.271 110.701C158.448 111.243 158.708 111.706 159.052 112.092C159.396 112.477 159.812 112.779 160.302 112.998C160.791 113.217 161.349 113.326 161.974 113.326C162.745 113.326 163.479 113.18 164.177 112.889C164.875 112.587 165.479 112.118 165.989 111.482L168.271 114.092C167.927 114.592 167.443 115.076 166.818 115.545C166.203 116.003 165.463 116.378 164.599 116.67C163.734 116.962 162.755 117.107 161.661 117.107Z" fill="#0E2C5E"/>
<defs>
<clipPath id="clip0_5_42">
<rect width="400" height="73.5517" fill="white" transform="translate(0 0.243164)"/>
</clipPath>
</defs>
</svg>
