<svg width="659" height="353" viewBox="0 0 659 353" fill="none" xmlns="http://www.w3.org/2000/svg">
<path d="M17.928 8.96826C30.216 8.96826 32.712 13.4483 32.712 24.3283V41.6083C32.712 52.4883 30.216 56.9683 17.928 56.9683H10.12C8.264 56.9683 7.752 56.4563 7.752 54.6003V11.3363C7.752 9.48026 8.264 8.96826 10.12 8.96826H17.928ZM17.736 17.9283C16.84 17.9283 16.584 18.1843 16.584 19.0803V46.8563C16.584 47.6883 16.84 48.0083 17.736 48.0083H18.44C22.024 48.0083 23.624 46.3443 23.624 42.1843V23.7523C23.624 19.5923 22.024 17.9283 18.44 17.9283H17.736ZM46.9115 11.3363V54.6003C46.9115 56.4563 46.3995 56.9683 44.5435 56.9683H40.4475C38.5915 56.9683 38.0795 56.4563 38.0795 54.6003V11.3363C38.0795 9.48026 38.5915 8.96826 40.4475 8.96826H44.5435C46.3995 8.96826 46.9115 9.48026 46.9115 11.3363ZM62.952 26.0563L71.144 33.4803C75.432 37.3203 76.392 39.6243 76.392 43.9123V45.0643C76.392 53.1283 73.32 57.6083 64.04 57.6083C54.76 57.6083 51.688 53.8323 51.688 43.5283V42.2483C51.688 40.3923 52.2 39.8803 54.056 39.8803H58.408C60.264 39.8803 60.776 40.3923 60.776 42.2483V45.0643C60.776 47.6243 61.8 48.6483 64.04 48.6483C66.28 48.6483 67.304 47.6883 67.304 45.3843V44.1683C67.304 42.3763 66.92 41.4803 64.552 39.3683L56.872 32.5203C52.584 28.7443 51.688 26.5683 51.688 22.2803V20.8723C51.688 12.8083 54.76 8.32826 64.04 8.32826C73.32 8.32826 76.392 12.1043 76.392 22.4083V23.6883C76.392 25.5443 75.88 26.0563 74.024 26.0563H69.672C67.816 26.0563 67.304 25.5443 67.304 23.6883V20.8723C67.304 18.3123 66.28 17.2883 64.04 17.2883C61.8 17.2883 60.776 18.2483 60.776 20.5523V21.6403C60.776 23.4963 61.16 24.3923 62.952 26.0563ZM105.108 41.6083V43.5283C105.108 53.8323 102.164 57.6083 92.884 57.6083C83.604 57.6083 80.532 53.8323 80.532 43.5283V22.4083C80.532 12.1043 83.604 8.32826 92.884 8.32826C102.164 8.32826 105.108 12.1043 105.108 22.4083V24.3283C105.108 26.1843 104.596 26.6963 102.74 26.6963H98.644C96.788 26.6963 96.276 26.1843 96.276 24.3283V20.8723C96.276 18.3123 95.188 17.2883 92.948 17.2883C90.708 17.2883 89.62 18.3123 89.62 20.8723V45.0643C89.62 47.6243 90.708 48.6483 92.948 48.6483C95.188 48.6483 96.276 47.6243 96.276 45.0643V41.6083C96.276 39.7523 96.788 39.2403 98.644 39.2403H102.74C104.596 39.2403 105.108 39.7523 105.108 41.6083ZM134.001 42.8883C134.001 53.7043 130.929 57.6083 121.649 57.6083C112.369 57.6083 109.297 53.7043 109.297 42.8883V23.0483C109.297 12.2963 112.369 8.32826 121.649 8.32826C130.929 8.32826 134.001 12.2963 134.001 23.0483V42.8883ZM118.385 45.0643C118.385 47.6243 119.409 48.6483 121.649 48.6483C123.889 48.6483 124.913 47.6243 124.913 45.0643V21.1923C124.913 18.3763 123.889 17.2883 121.649 17.2883C119.409 17.2883 118.385 18.3763 118.385 21.1923V45.0643ZM148.482 56.9683C144.77 56.9683 143.874 56.2643 143.17 52.9363L138.434 30.6643C137.73 27.2083 137.666 25.6723 137.666 22.4723V11.3363C137.666 9.48026 138.178 8.96826 140.034 8.96826H144.13C145.986 8.96826 146.498 9.48026 146.498 11.3363V25.0323C146.498 25.9283 146.562 26.7603 146.69 27.7203L149.378 43.8483C149.506 44.6163 149.698 44.8083 150.274 44.8083C150.85 44.8083 151.042 44.6163 151.17 43.8483L153.858 27.7203C153.986 26.7603 154.05 25.9283 154.05 25.0323V11.3363C154.05 9.48026 154.562 8.96826 156.418 8.96826H160.514C162.37 8.96826 162.882 9.48026 162.882 11.3363V22.4723C162.882 25.1603 162.946 26.8243 162.114 30.6643L157.378 52.9363C156.674 56.2643 155.778 56.9683 152.066 56.9683H148.482ZM176.299 19.0803V26.2483C176.299 27.0803 176.555 27.4003 177.451 27.4003H185.387C187.243 27.4003 187.755 27.9123 187.755 29.7683V33.9923C187.755 35.8483 187.243 36.3603 185.515 36.3603H177.451C176.555 36.3603 176.299 36.6163 176.299 37.5123V46.8563C176.299 47.6883 176.555 48.0083 177.451 48.0083H186.155C188.011 48.0083 188.523 48.5203 188.523 50.3763V54.6003C188.523 56.4563 188.011 56.9683 186.155 56.9683H169.835C167.979 56.9683 167.467 56.4563 167.467 54.6003V11.3363C167.467 9.48026 167.979 8.96826 169.835 8.96826H186.155C188.011 8.96826 188.523 9.48026 188.523 11.3363V15.5603C188.523 17.4163 188.011 17.9283 186.155 17.9283H177.451C176.555 17.9283 176.299 18.1843 176.299 19.0803ZM209.232 54.6003V47.1123C209.232 44.8723 209.104 44.1683 208.144 42.4403L206.608 39.6883C205.904 38.5363 205.52 38.3443 204.368 38.3443H203.216C202.32 38.3443 202.064 38.6003 202.064 39.4963V54.6003C202.064 56.4563 201.552 56.9683 199.696 56.9683H195.6C193.744 56.9683 193.232 56.4563 193.232 54.6003V11.3363C193.232 9.48026 193.744 8.96826 195.6 8.96826H204.048C213.776 8.96826 218.192 12.2963 218.192 20.4883V25.0963C218.192 29.7043 217.488 32.7123 214.864 34.8243C214.544 35.0163 214.48 35.2083 214.48 35.4003C214.48 35.5923 214.544 35.7843 214.736 36.1043L216.528 39.3683C217.872 41.8643 218.064 42.8883 218.064 46.2803V54.6003C218.064 56.4563 217.552 56.9683 215.696 56.9683H211.6C209.744 56.9683 209.232 56.4563 209.232 54.6003ZM202.064 18.7603V28.4243C202.064 29.3203 202.32 29.5763 203.216 29.5763H204.56C207.568 29.5763 209.104 28.2323 209.104 25.1603V21.8323C209.104 18.8243 207.696 17.6083 204.56 17.6083H203.216C202.32 17.6083 202.064 17.8643 202.064 18.7603ZM253.579 17.9283H249.611C248.715 17.9283 248.459 18.1843 248.459 19.0803V54.6003C248.459 56.4563 247.947 56.9683 246.091 56.9683H241.995C240.139 56.9683 239.627 56.4563 239.627 54.6003V19.0803C239.627 18.1843 239.371 17.9283 238.475 17.9283H234.507C232.651 17.9283 232.139 17.4163 232.139 15.5603V11.3363C232.139 9.48026 232.651 8.96826 234.507 8.96826H253.579C255.435 8.96826 255.947 9.48026 255.947 11.3363V15.5603C255.947 17.4163 255.435 17.9283 253.579 17.9283ZM274.973 54.6003V37.3203C274.973 36.4243 274.717 36.1683 273.821 36.1683H268.573C267.677 36.1683 267.421 36.4243 267.421 37.3203V54.6003C267.421 56.4563 266.909 56.9683 265.053 56.9683H260.957C259.101 56.9683 258.589 56.4563 258.589 54.6003V11.3363C258.589 9.48026 259.101 8.96826 260.957 8.96826H265.053C266.909 8.96826 267.421 9.48026 267.421 11.3363V26.0563C267.421 26.8883 267.677 27.2083 268.573 27.2083H273.821C274.717 27.2083 274.973 26.8883 274.973 26.0563V11.3363C274.973 9.48026 275.485 8.96826 277.341 8.96826H281.437C283.293 8.96826 283.805 9.48026 283.805 11.3363V54.6003C283.805 56.4563 283.293 56.9683 281.437 56.9683H277.341C275.485 56.9683 274.973 56.4563 274.973 54.6003ZM299.124 19.0803V26.2483C299.124 27.0803 299.38 27.4003 300.276 27.4003H308.212C310.068 27.4003 310.58 27.9123 310.58 29.7683V33.9923C310.58 35.8483 310.068 36.3603 308.34 36.3603H300.276C299.38 36.3603 299.124 36.6163 299.124 37.5123V46.8563C299.124 47.6883 299.38 48.0083 300.276 48.0083H308.98C310.836 48.0083 311.348 48.5203 311.348 50.3763V54.6003C311.348 56.4563 310.836 56.9683 308.98 56.9683H292.66C290.804 56.9683 290.292 56.4563 290.292 54.6003V11.3363C290.292 9.48026 290.804 8.96826 292.66 8.96826H308.98C310.836 8.96826 311.348 9.48026 311.348 11.3363V15.5603C311.348 17.4163 310.836 17.9283 308.98 17.9283H300.276C299.38 17.9283 299.124 18.1843 299.124 19.0803ZM336.092 46.9843C336.092 47.7523 336.348 48.0083 337.244 48.0083H345.244C347.1 48.0083 347.612 48.5203 347.612 50.3763V54.6003C347.612 56.4563 347.1 56.9683 345.244 56.9683H329.628C327.772 56.9683 327.26 56.4563 327.26 54.6003V11.3363C327.26 9.48026 327.772 8.96826 329.628 8.96826H333.724C335.58 8.96826 336.092 9.48026 336.092 11.3363V46.9843ZM358.95 54.6003C358.95 56.4563 358.438 56.9683 356.582 56.9683H352.486C350.63 56.9683 350.118 56.4563 350.118 54.6003V38.2163C350.118 35.4003 350.246 34.2483 351.014 31.6883L356.838 12.1683C357.606 9.48026 358.246 8.96826 361.574 8.96826H363.878C367.206 8.96826 367.846 9.48026 368.614 12.1683L374.438 31.6883C375.206 34.1843 375.334 35.4003 375.334 38.2163V54.6003C375.334 56.4563 374.822 56.9683 372.966 56.9683H368.87C367.014 56.9683 366.502 56.4563 366.502 54.6003V46.1523C366.502 45.2563 366.246 45.0003 365.35 45.0003H360.102C359.206 45.0003 358.95 45.2563 358.95 46.1523V54.6003ZM365.542 36.0403C366.246 36.0403 366.63 35.7843 366.63 35.2083C366.63 34.8883 366.566 34.5683 366.502 34.2483L363.558 21.8963C363.43 21.2563 363.302 21.1283 362.726 21.1283C362.15 21.1283 362.022 21.2563 361.894 21.8963L358.95 34.2483C358.886 34.5683 358.822 34.8883 358.822 35.2083C358.822 35.7843 359.206 36.0403 359.91 36.0403H365.542ZM395.98 24.7763C396.3 25.3523 396.428 25.4803 396.812 25.4803C397.196 25.4803 397.324 25.2883 397.324 24.8403V11.3363C397.324 9.48026 397.836 8.96826 399.692 8.96826H403.596C405.452 8.96826 405.964 9.48026 405.964 11.3363V54.6003C405.964 56.4563 405.452 56.9683 403.596 56.9683H399.692C397.836 56.9683 397.324 56.4563 397.324 54.6003V45.8323C397.324 42.8243 396.876 41.7363 395.788 39.6883L389.836 28.6163C389.516 28.0403 389.388 27.9123 389.004 27.9123C388.62 27.9123 388.492 28.1043 388.492 28.5523V54.6003C388.492 56.4563 387.98 56.9683 386.124 56.9683H382.22C380.364 56.9683 379.852 56.4563 379.852 54.6003V11.3363C379.852 9.48026 380.364 8.96826 382.22 8.96826H384.716C387.084 8.96826 387.98 9.35226 389.324 11.9763L395.98 24.7763ZM422.605 8.96826C434.893 8.96826 437.389 13.4483 437.389 24.3283V41.6083C437.389 52.4883 434.893 56.9683 422.605 56.9683H414.797C412.941 56.9683 412.429 56.4563 412.429 54.6003V11.3363C412.429 9.48026 412.941 8.96826 414.797 8.96826H422.605ZM422.413 17.9283C421.517 17.9283 421.261 18.1843 421.261 19.0803V46.8563C421.261 47.6883 421.517 48.0083 422.413 48.0083H423.117C426.701 48.0083 428.301 46.3443 428.301 42.1843V23.7523C428.301 19.5923 426.701 17.9283 423.117 17.9283H422.413ZM478.023 42.8883C478.023 53.7043 474.951 57.6083 465.671 57.6083C456.391 57.6083 453.319 53.7043 453.319 42.8883V23.0483C453.319 12.2963 456.391 8.32826 465.671 8.32826C474.951 8.32826 478.023 12.2963 478.023 23.0483V42.8883ZM462.407 45.0643C462.407 47.6243 463.431 48.6483 465.671 48.6483C467.911 48.6483 468.935 47.6243 468.935 45.0643V21.1923C468.935 18.3763 467.911 17.2883 465.671 17.2883C463.431 17.2883 462.407 18.3763 462.407 21.1923V45.0643ZM492.682 38.6643V54.6003C492.682 56.4563 492.17 56.9683 490.314 56.9683H486.218C484.362 56.9683 483.85 56.4563 483.85 54.6003V11.3363C483.85 9.48026 484.362 8.96826 486.218 8.96826H503.434C505.29 8.96826 505.802 9.48026 505.802 11.3363V15.5603C505.802 17.4163 505.29 17.9283 503.434 17.9283H493.834C492.938 17.9283 492.682 18.1843 492.682 19.0803V27.4003C492.682 28.2323 492.938 28.5523 493.834 28.5523H500.746C502.602 28.5523 503.114 29.0643 503.114 30.9203V35.1443C503.114 37.0003 502.602 37.5123 500.874 37.5123H493.834C492.938 37.5123 492.682 37.7683 492.682 38.6643Z" fill="#0E2C5E"/>
<path d="M30.408 104.184V217.752C30.408 222.624 29.064 223.968 24.192 223.968H13.44C8.568 223.968 7.224 222.624 7.224 217.752V104.184C7.224 99.3123 8.568 97.9683 13.44 97.9683H24.192C29.064 97.9683 30.408 99.3123 30.408 104.184ZM84.5906 139.464C85.4306 140.976 85.7666 141.312 86.7746 141.312C87.7826 141.312 88.1186 140.808 88.1186 139.632V104.184C88.1186 99.3123 89.4626 97.9683 94.3346 97.9683H104.583C109.455 97.9683 110.799 99.3123 110.799 104.184V217.752C110.799 222.624 109.455 223.968 104.583 223.968H94.3346C89.4626 223.968 88.1186 222.624 88.1186 217.752V194.736C88.1186 186.84 86.9426 183.984 84.0866 178.608L68.4626 149.544C67.6226 148.032 67.2866 147.696 66.2786 147.696C65.2706 147.696 64.9346 148.2 64.9346 149.376V217.752C64.9346 222.624 63.5906 223.968 58.7186 223.968H48.4706C43.5986 223.968 42.2546 222.624 42.2546 217.752V104.184C42.2546 99.3123 43.5986 97.9683 48.4706 97.9683H55.0226C61.2386 97.9683 63.5906 98.9763 67.1186 105.864L84.5906 139.464ZM165.067 139.464C165.907 140.976 166.243 141.312 167.251 141.312C168.259 141.312 168.595 140.808 168.595 139.632V104.184C168.595 99.3123 169.939 97.9683 174.811 97.9683H185.059C189.931 97.9683 191.275 99.3123 191.275 104.184V217.752C191.275 222.624 189.931 223.968 185.059 223.968H174.811C169.939 223.968 168.595 222.624 168.595 217.752V194.736C168.595 186.84 167.419 183.984 164.563 178.608L148.939 149.544C148.099 148.032 147.763 147.696 146.755 147.696C145.747 147.696 145.411 148.2 145.411 149.376V217.752C145.411 222.624 144.067 223.968 139.195 223.968H128.947C124.075 223.968 122.731 222.624 122.731 217.752V104.184C122.731 99.3123 124.075 97.9683 128.947 97.9683H135.499C141.715 97.9683 144.067 98.9763 147.595 105.864L165.067 139.464ZM266.375 187.008C266.375 215.4 258.311 225.648 233.951 225.648C209.59 225.648 201.526 215.4 201.526 187.008V134.928C201.526 106.704 209.59 96.2883 233.951 96.2883C258.311 96.2883 266.375 106.704 266.375 134.928V187.008ZM225.383 192.72C225.383 199.44 228.071 202.128 233.951 202.128C239.83 202.128 242.518 199.44 242.518 192.72V130.056C242.518 122.664 239.83 119.808 233.951 119.808C228.071 119.808 225.383 122.664 225.383 130.056V192.72ZM299.347 223.968C289.603 223.968 287.251 222.12 285.403 213.384L272.971 154.92C271.123 145.848 270.955 141.816 270.955 133.416V104.184C270.955 99.3123 272.299 97.9683 277.171 97.9683H287.923C292.795 97.9683 294.139 99.3123 294.139 104.184V140.136C294.139 142.488 294.307 144.672 294.643 147.192L301.699 189.528C302.035 191.544 302.539 192.048 304.051 192.048C305.563 192.048 306.067 191.544 306.403 189.528L313.459 147.192C313.795 144.672 313.963 142.488 313.963 140.136V104.184C313.963 99.3123 315.307 97.9683 320.179 97.9683H330.931C335.803 97.9683 337.147 99.3123 337.147 104.184V133.416C337.147 140.472 337.315 144.84 335.131 154.92L322.699 213.384C320.851 222.12 318.499 223.968 308.755 223.968H299.347ZM362.158 217.752C362.158 222.624 360.814 223.968 355.942 223.968H345.19C340.318 223.968 338.974 222.624 338.974 217.752V174.744C338.974 167.352 339.31 164.328 341.326 157.608L356.614 106.368C358.63 99.3123 360.31 97.9683 369.046 97.9683H375.094C383.83 97.9683 385.51 99.3123 387.526 106.368L402.814 157.608C404.83 164.16 405.166 167.352 405.166 174.744V217.752C405.166 222.624 403.822 223.968 398.95 223.968H388.198C383.326 223.968 381.982 222.624 381.982 217.752V195.576C381.982 193.224 381.31 192.552 378.958 192.552H365.182C362.83 192.552 362.158 193.224 362.158 195.576V217.752ZM379.462 169.032C381.31 169.032 382.318 168.36 382.318 166.848C382.318 166.008 382.15 165.168 381.982 164.328L374.254 131.904C373.918 130.224 373.582 129.888 372.07 129.888C370.558 129.888 370.222 130.224 369.886 131.904L362.158 164.328C361.99 165.168 361.822 166.008 361.822 166.848C361.822 168.36 362.83 169.032 364.678 169.032H379.462ZM456.46 121.488H446.044C443.692 121.488 443.02 122.16 443.02 124.512V217.752C443.02 222.624 441.676 223.968 436.804 223.968H426.052C421.18 223.968 419.836 222.624 419.836 217.752V124.512C419.836 122.16 419.164 121.488 416.812 121.488H406.396C401.524 121.488 400.18 120.144 400.18 115.272V104.184C400.18 99.3123 401.524 97.9683 406.396 97.9683H456.46C461.332 97.9683 462.676 99.3123 462.676 104.184V115.272C462.676 120.144 461.332 121.488 456.46 121.488ZM487.755 104.184V217.752C487.755 222.624 486.411 223.968 481.539 223.968H470.787C465.915 223.968 464.571 222.624 464.571 217.752V104.184C464.571 99.3123 465.915 97.9683 470.787 97.9683H481.539C486.411 97.9683 487.755 99.3123 487.755 104.184ZM562.77 187.008C562.77 215.4 554.706 225.648 530.346 225.648C505.986 225.648 497.922 215.4 497.922 187.008V134.928C497.922 106.704 505.986 96.2883 530.346 96.2883C554.706 96.2883 562.77 106.704 562.77 134.928V187.008ZM521.778 192.72C521.778 199.44 524.466 202.128 530.346 202.128C536.226 202.128 538.914 199.44 538.914 192.72V130.056C538.914 122.664 536.226 119.808 530.346 119.808C524.466 119.808 521.778 122.664 521.778 130.056V192.72ZM615.359 139.464C616.199 140.976 616.535 141.312 617.543 141.312C618.551 141.312 618.887 140.808 618.887 139.632V104.184C618.887 99.3123 620.231 97.9683 625.103 97.9683H635.351C640.223 97.9683 641.567 99.3123 641.567 104.184V217.752C641.567 222.624 640.223 223.968 635.351 223.968H625.103C620.231 223.968 618.887 222.624 618.887 217.752V194.736C618.887 186.84 617.711 183.984 614.855 178.608L599.231 149.544C598.391 148.032 598.055 147.696 597.047 147.696C596.039 147.696 595.703 148.2 595.703 149.376V217.752C595.703 222.624 594.359 223.968 589.487 223.968H579.239C574.367 223.968 573.023 222.624 573.023 217.752V104.184C573.023 99.3123 574.367 97.9683 579.239 97.9683H585.791C592.007 97.9683 594.359 98.9763 597.887 105.864L615.359 139.464Z" fill="#0E2C5E"/>
<path d="M656.613 271.212C570.655 270.575 484.681 270.383 398.715 270.65C355.906 270.782 313.088 271.236 270.279 271.049C227.834 270.861 185.397 270.32 142.952 270.081C96.0881 269.818 49.1502 269.905 2.386 271.574C-0.78291 271.686 -0.807732 274.08 2.386 273.964C86.3414 270.965 170.76 272.765 254.831 273.347C297.583 273.646 340.334 273.247 383.086 273.092C426.077 272.933 469.076 272.885 512.068 272.952C560.247 273.028 608.434 273.243 656.605 273.602C659.798 273.626 659.798 271.236 656.605 271.212H656.613Z" fill="#84CCF5"/>
<path d="M83.908 321.884C83.524 322.508 83.668 322.988 84.484 322.988H91.972C93.364 322.988 93.748 323.372 93.748 324.764V327.692C93.748 329.084 93.364 329.468 91.972 329.468H77.668C76.276 329.468 75.892 329.084 75.892 327.692V324.236C75.892 322.94 75.988 322.316 76.516 321.5L84.916 308.636C86.212 306.668 86.932 304.268 86.932 302.54C86.932 300.428 86.26 299.708 84.484 299.708C82.804 299.708 82.036 300.476 82.036 302.396V304.988C82.036 306.38 81.652 306.764 80.26 306.764H77.284C75.892 306.764 75.508 306.38 75.508 304.988V303.548C75.508 296.06 77.812 292.988 84.484 292.988C91.252 292.988 93.748 296.108 93.748 302.348C93.748 305.036 92.788 307.964 90.772 311.084L83.908 321.884ZM99.406 327.692V301.772C99.406 301.1 99.214 300.908 98.542 300.908H96.67C95.278 300.908 94.894 300.524 94.894 299.132V295.244C94.894 293.852 95.278 293.468 96.67 293.468H104.254C105.646 293.468 106.03 293.852 106.03 295.244V327.692C106.03 329.084 105.646 329.468 104.254 329.468H101.182C99.79 329.468 99.406 329.084 99.406 327.692ZM129.175 313.292C129.175 314.684 128.791 315.068 127.495 315.068H119.095C117.799 315.068 117.415 314.684 117.415 313.292V311.612C117.415 310.22 117.799 309.836 119.191 309.836H127.399C128.791 309.836 129.175 310.22 129.175 311.612V313.292ZM147.564 321.884C147.18 322.508 147.324 322.988 148.14 322.988H155.628C157.02 322.988 157.404 323.372 157.404 324.764V327.692C157.404 329.084 157.02 329.468 155.628 329.468H141.324C139.932 329.468 139.548 329.084 139.548 327.692V324.236C139.548 322.94 139.644 322.316 140.172 321.5L148.572 308.636C149.868 306.668 150.588 304.268 150.588 302.54C150.588 300.428 149.916 299.708 148.14 299.708C146.46 299.708 145.692 300.476 145.692 302.396V304.988C145.692 306.38 145.308 306.764 143.916 306.764H140.94C139.548 306.764 139.164 306.38 139.164 304.988V303.548C139.164 296.06 141.468 292.988 148.14 292.988C154.908 292.988 157.404 296.108 157.404 302.348C157.404 305.036 156.444 307.964 154.428 311.084L147.564 321.884ZM167.094 307.58C167.094 307.724 167.142 307.772 167.238 307.772C167.334 307.772 167.43 307.724 167.574 307.628C168.486 307.004 169.494 306.62 171.51 306.62C176.07 306.62 178.806 309.212 178.806 316.028V320.108C178.806 327.068 176.262 329.948 169.542 329.948C162.582 329.948 160.278 327.02 160.278 318.908V304.028C160.278 295.916 162.582 292.988 169.446 292.988C176.07 292.988 178.614 295.868 178.614 302.828V303.02C178.614 304.412 178.23 304.796 176.838 304.796H173.862C172.47 304.796 172.086 304.412 172.086 303.02V301.916C172.086 300.332 171.27 299.708 169.59 299.708C167.862 299.708 167.094 300.476 167.094 302.396V307.58ZM171.99 320.54V316.028C171.99 314.108 171.222 313.34 169.542 313.34C167.862 313.34 167.094 314.108 167.094 316.028V320.54C167.094 322.46 167.862 323.228 169.542 323.228C171.222 323.228 171.99 322.46 171.99 320.54ZM208.331 318.908C208.331 327.02 206.027 329.948 199.067 329.948C192.107 329.948 189.803 327.02 189.803 318.908V304.028C189.803 295.964 192.107 292.988 199.067 292.988C206.027 292.988 208.331 295.964 208.331 304.028V318.908ZM196.619 320.54C196.619 322.46 197.387 323.228 199.067 323.228C200.747 323.228 201.515 322.46 201.515 320.54V302.636C201.515 300.524 200.747 299.708 199.067 299.708C197.387 299.708 196.619 300.524 196.619 302.636V320.54ZM229.938 317.948V319.388C229.938 327.116 227.73 329.948 220.77 329.948C213.81 329.948 211.506 327.116 211.506 319.388V303.548C211.506 295.82 213.81 292.988 220.77 292.988C227.73 292.988 229.938 295.82 229.938 303.548V304.988C229.938 306.38 229.554 306.764 228.162 306.764H225.09C223.698 306.764 223.314 306.38 223.314 304.988V302.396C223.314 300.476 222.498 299.708 220.818 299.708C219.138 299.708 218.322 300.476 218.322 302.396V320.54C218.322 322.46 219.138 323.228 220.818 323.228C222.498 323.228 223.314 322.46 223.314 320.54V317.948C223.314 316.556 223.698 316.172 225.09 316.172H228.162C229.554 316.172 229.938 316.556 229.938 317.948ZM247.005 300.188H244.029C243.357 300.188 243.165 300.38 243.165 301.052V327.692C243.165 329.084 242.781 329.468 241.389 329.468H238.317C236.925 329.468 236.541 329.084 236.541 327.692V301.052C236.541 300.38 236.349 300.188 235.677 300.188H232.701C231.309 300.188 230.925 299.804 230.925 298.412V295.244C230.925 293.852 231.309 293.468 232.701 293.468H247.005C248.397 293.468 248.781 293.852 248.781 295.244V298.412C248.781 299.804 248.397 300.188 247.005 300.188ZM268.331 318.908C268.331 327.02 266.027 329.948 259.067 329.948C252.107 329.948 249.803 327.02 249.803 318.908V304.028C249.803 295.964 252.107 292.988 259.067 292.988C266.027 292.988 268.331 295.964 268.331 304.028V318.908ZM256.619 320.54C256.619 322.46 257.387 323.228 259.067 323.228C260.747 323.228 261.515 322.46 261.515 320.54V302.636C261.515 300.524 260.747 299.708 259.067 299.708C257.387 299.708 256.619 300.524 256.619 302.636V320.54ZM273.996 329.468C272.604 329.468 272.22 329.084 272.22 327.692V295.244C272.22 293.852 272.604 293.468 273.996 293.468H280.812C287.772 293.468 290.94 296.06 290.94 301.868V304.652C290.94 307.148 290.124 308.924 288.444 310.46C288.3 310.604 288.252 310.652 288.252 310.748C288.252 310.844 288.3 310.892 288.444 311.036C290.268 312.524 291.18 314.108 291.18 316.652V321.308C291.18 326.876 287.868 329.468 280.572 329.468H273.996ZM278.844 301.052V306.572C278.844 307.244 279.036 307.436 279.708 307.436H280.716C283.068 307.436 284.124 306.62 284.124 304.508V303.116C284.124 301.004 283.068 300.188 280.716 300.188H279.708C279.036 300.188 278.844 300.38 278.844 301.052ZM280.956 322.748C283.308 322.748 284.364 321.932 284.364 319.82V317.084C284.364 314.972 283.308 314.156 280.956 314.156H279.708C279.036 314.156 278.844 314.348 278.844 315.02V321.884C278.844 322.556 279.036 322.748 279.708 322.748H280.956ZM301.063 301.052V306.428C301.063 307.052 301.255 307.292 301.927 307.292H307.879C309.271 307.292 309.655 307.676 309.655 309.068V312.236C309.655 313.628 309.271 314.012 307.975 314.012H301.927C301.255 314.012 301.063 314.204 301.063 314.876V321.884C301.063 322.508 301.255 322.748 301.927 322.748H308.455C309.847 322.748 310.231 323.132 310.231 324.524V327.692C310.231 329.084 309.847 329.468 308.455 329.468H296.215C294.823 329.468 294.439 329.084 294.439 327.692V295.244C294.439 293.852 294.823 293.468 296.215 293.468H308.455C309.847 293.468 310.231 293.852 310.231 295.244V298.412C310.231 299.804 309.847 300.188 308.455 300.188H301.927C301.255 300.188 301.063 300.38 301.063 301.052ZM325.283 327.692V322.076C325.283 320.396 325.187 319.868 324.467 318.572L323.315 316.508C322.787 315.644 322.499 315.5 321.635 315.5H320.771C320.099 315.5 319.907 315.692 319.907 316.364V327.692C319.907 329.084 319.523 329.468 318.131 329.468H315.059C313.667 329.468 313.283 329.084 313.283 327.692V295.244C313.283 293.852 313.667 293.468 315.059 293.468H321.395C328.691 293.468 332.003 295.964 332.003 302.108V305.564C332.003 309.02 331.475 311.276 329.507 312.86C329.267 313.004 329.219 313.148 329.219 313.292C329.219 313.436 329.267 313.58 329.411 313.82L330.755 316.268C331.763 318.14 331.907 318.908 331.907 321.452V327.692C331.907 329.084 331.523 329.468 330.131 329.468H327.059C325.667 329.468 325.283 329.084 325.283 327.692ZM319.907 300.812V308.06C319.907 308.732 320.099 308.924 320.771 308.924H321.779C324.035 308.924 325.187 307.916 325.187 305.612V303.116C325.187 300.86 324.131 299.948 321.779 299.948H320.771C320.099 299.948 319.907 300.14 319.907 300.812ZM336.99 329.756C337.086 329.516 337.038 329.42 336.798 329.372C335.118 329.18 334.638 328.22 334.638 326.54V325.292C334.638 323.372 335.646 322.364 337.566 322.364H338.814C340.782 322.364 341.742 323.372 341.742 325.292V326.78C341.742 327.932 341.598 328.652 341.022 329.708L339.246 333.02C338.91 333.644 338.766 333.74 338.094 333.74H336.51C336.03 333.74 335.838 333.596 335.838 333.26C335.838 333.116 335.886 332.972 335.982 332.684L336.99 329.756ZM360.33 321.884C359.946 322.508 360.09 322.988 360.906 322.988H368.394C369.786 322.988 370.17 323.372 370.17 324.764V327.692C370.17 329.084 369.786 329.468 368.394 329.468H354.09C352.698 329.468 352.314 329.084 352.314 327.692V324.236C352.314 322.94 352.41 322.316 352.938 321.5L361.338 308.636C362.634 306.668 363.354 304.268 363.354 302.54C363.354 300.428 362.682 299.708 360.906 299.708C359.226 299.708 358.458 300.476 358.458 302.396V304.988C358.458 306.38 358.074 306.764 356.682 306.764H353.706C352.314 306.764 351.93 306.38 351.93 304.988V303.548C351.93 296.06 354.234 292.988 360.906 292.988C367.674 292.988 370.17 296.108 370.17 302.348C370.17 305.036 369.21 307.964 367.194 311.084L360.33 321.884ZM391.572 318.908C391.572 327.02 389.268 329.948 382.308 329.948C375.348 329.948 373.044 327.02 373.044 318.908V304.028C373.044 295.964 375.348 292.988 382.308 292.988C389.268 292.988 391.572 295.964 391.572 304.028V318.908ZM384.756 302.396C384.756 300.476 383.988 299.708 382.308 299.708C380.628 299.708 379.86 300.476 379.86 302.396V320.54C379.86 322.46 380.628 323.228 382.308 323.228C383.988 323.228 384.756 322.46 384.756 320.54V302.396ZM402.846 321.884C402.462 322.508 402.606 322.988 403.422 322.988H410.91C412.302 322.988 412.686 323.372 412.686 324.764V327.692C412.686 329.084 412.302 329.468 410.91 329.468H396.605C395.214 329.468 394.83 329.084 394.83 327.692V324.236C394.83 322.94 394.926 322.316 395.454 321.5L403.854 308.636C405.15 306.668 405.87 304.268 405.87 302.54C405.87 300.428 405.198 299.708 403.422 299.708C401.742 299.708 400.974 300.476 400.974 302.396V304.988C400.974 306.38 400.59 306.764 399.198 306.764H396.222C394.83 306.764 394.446 306.38 394.446 304.988V303.548C394.446 296.06 396.75 292.988 403.422 292.988C410.19 292.988 412.686 296.108 412.686 302.348C412.686 305.036 411.726 307.964 409.71 311.084L402.846 321.884ZM430.92 307.772C432.312 307.772 432.696 308.156 432.696 309.548V316.652C432.696 317.276 432.888 317.468 433.56 317.468H434.04C435.432 317.468 435.816 317.852 435.816 319.244V322.46C435.816 323.804 435.384 324.188 434.04 324.188H433.56C432.888 324.188 432.696 324.332 432.696 325.004V327.692C432.696 329.084 432.312 329.468 430.92 329.468H427.848C426.456 329.468 426.072 329.084 426.072 327.692V325.052C426.072 324.38 425.88 324.188 425.208 324.188H415.944C414.552 324.188 414.168 323.804 414.168 322.412V319.772C414.168 317.9 414.312 317.276 414.792 315.74L421.56 294.86C421.896 293.756 422.328 293.468 423.864 293.468H427.56C428.904 293.468 429 294.092 428.664 295.196L422.232 316.604C422.04 317.324 422.184 317.468 422.712 317.468H425.208C425.88 317.468 426.072 317.276 426.072 316.604V309.548C426.072 308.156 426.456 307.772 427.848 307.772H430.92Z" fill="#F67A38"/>
<path d="M490.836 293.512L494.932 297.224C497.076 299.144 497.556 300.296 497.556 302.44V303.016C497.556 307.048 496.02 309.288 491.38 309.288C486.74 309.288 485.204 307.4 485.204 302.248V301.608C485.204 300.68 485.46 300.424 486.388 300.424H488.564C489.492 300.424 489.748 300.68 489.748 301.608V303.016C489.748 304.296 490.26 304.808 491.38 304.808C492.5 304.808 493.012 304.328 493.012 303.176V302.568C493.012 301.672 492.82 301.224 491.636 300.168L487.796 296.744C485.652 294.856 485.204 293.768 485.204 291.624V290.92C485.204 286.888 486.74 284.648 491.38 284.648C496.02 284.648 497.556 286.536 497.556 291.688V292.328C497.556 293.256 497.3 293.512 496.372 293.512H494.196C493.268 293.512 493.012 293.256 493.012 292.328V290.92C493.012 289.64 492.5 289.128 491.38 289.128C490.26 289.128 489.748 289.608 489.748 290.76V291.304C489.748 292.232 489.94 292.68 490.836 293.512ZM503.214 307.784C503.214 308.712 502.958 308.968 502.03 308.968H499.982C499.054 308.968 498.798 308.712 498.798 307.784V299.592C498.798 298.184 498.862 297.608 499.246 296.328L502.158 286.568C502.542 285.224 502.862 284.968 504.526 284.968H505.678C507.342 284.968 507.662 285.224 508.046 286.568L510.958 296.328C511.342 297.576 511.406 298.184 511.406 299.592V307.784C511.406 308.712 511.15 308.968 510.222 308.968H508.174C507.246 308.968 506.99 308.712 506.99 307.784V303.56C506.99 303.112 506.862 302.984 506.414 302.984H503.79C503.342 302.984 503.214 303.112 503.214 303.56V307.784ZM506.51 298.504C506.862 298.504 507.054 298.376 507.054 298.088C507.054 297.928 507.022 297.768 506.99 297.608L505.518 291.432C505.454 291.112 505.39 291.048 505.102 291.048C504.814 291.048 504.75 291.112 504.686 291.432L503.214 297.608C503.182 297.768 503.15 297.928 503.15 298.088C503.15 298.376 503.342 298.504 503.694 298.504H506.51ZM521.409 292.872C521.569 293.16 521.633 293.224 521.825 293.224C522.017 293.224 522.081 293.128 522.081 292.904V286.152C522.081 285.224 522.337 284.968 523.265 284.968H525.217C526.145 284.968 526.401 285.224 526.401 286.152V307.784C526.401 308.712 526.145 308.968 525.217 308.968H523.265C522.337 308.968 522.081 308.712 522.081 307.784V303.4C522.081 301.896 521.857 301.352 521.313 300.328L518.337 294.792C518.177 294.504 518.113 294.44 517.921 294.44C517.729 294.44 517.665 294.536 517.665 294.76V307.784C517.665 308.712 517.409 308.968 516.481 308.968H514.529C513.601 308.968 513.345 308.712 513.345 307.784V286.152C513.345 285.224 513.601 284.968 514.529 284.968H515.777C516.961 284.968 517.409 285.16 518.081 286.472L521.409 292.872ZM535.911 308.968H534.407C533.479 308.968 533.223 308.712 533.223 307.784V305.672C533.223 304.744 533.479 304.488 534.407 304.488H535.975C537.095 304.488 537.607 303.976 537.607 302.696V289.864C537.607 289.416 537.479 289.288 537.031 289.288H535.463C534.535 289.288 534.279 289.032 534.279 288.104V286.152C534.279 285.224 534.535 284.968 535.463 284.968H540.839C541.767 284.968 542.023 285.224 542.023 286.152V301.928C542.023 307.08 540.487 308.968 535.911 308.968ZM556.658 301.928C556.658 307.336 555.122 309.288 550.482 309.288C545.842 309.288 544.306 307.336 544.306 301.928V292.008C544.306 286.632 545.842 284.648 550.482 284.648C555.122 284.648 556.658 286.632 556.658 292.008V301.928ZM548.85 303.016C548.85 304.296 549.362 304.808 550.482 304.808C551.602 304.808 552.114 304.296 552.114 303.016V291.08C552.114 289.672 551.602 289.128 550.482 289.128C549.362 289.128 548.85 289.672 548.85 291.08V303.016ZM564.055 293.512L568.151 297.224C570.295 299.144 570.775 300.296 570.775 302.44V303.016C570.775 307.048 569.239 309.288 564.599 309.288C559.959 309.288 558.423 307.4 558.423 302.248V301.608C558.423 300.68 558.679 300.424 559.607 300.424H561.783C562.711 300.424 562.967 300.68 562.967 301.608V303.016C562.967 304.296 563.479 304.808 564.599 304.808C565.719 304.808 566.231 304.328 566.231 303.176V302.568C566.231 301.672 566.039 301.224 564.855 300.168L561.015 296.744C558.871 294.856 558.423 293.768 558.423 291.624V290.92C558.423 286.888 559.959 284.648 564.599 284.648C569.239 284.648 570.775 286.536 570.775 291.688V292.328C570.775 293.256 570.519 293.512 569.591 293.512H567.415C566.487 293.512 566.231 293.256 566.231 292.328V290.92C566.231 289.64 565.719 289.128 564.599 289.128C563.479 289.128 562.967 289.608 562.967 290.76V291.304C562.967 292.232 563.159 292.68 564.055 293.512ZM576.077 282.888L577.869 279.528C578.125 279.08 578.253 279.016 578.893 279.016H581.965C582.413 279.016 582.541 279.176 582.541 279.336C582.541 279.496 582.509 279.592 582.317 279.848L579.981 283.24C579.661 283.72 579.469 283.784 578.797 283.784H576.461C576.013 283.784 575.885 283.656 575.885 283.4C575.885 283.272 575.949 283.144 576.077 282.888ZM577.261 290.024V293.608C577.261 294.024 577.389 294.184 577.837 294.184H581.805C582.733 294.184 582.989 294.44 582.989 295.368V297.48C582.989 298.408 582.733 298.664 581.869 298.664H577.837C577.389 298.664 577.261 298.792 577.261 299.24V303.912C577.261 304.328 577.389 304.488 577.837 304.488H582.189C583.117 304.488 583.373 304.744 583.373 305.672V307.784C583.373 308.712 583.117 308.968 582.189 308.968H574.029C573.101 308.968 572.845 308.712 572.845 307.784V286.152C572.845 285.224 573.101 284.968 574.029 284.968H582.189C583.117 284.968 583.373 285.224 583.373 286.152V288.264C583.373 289.192 583.117 289.448 582.189 289.448H577.837C577.389 289.448 577.261 289.576 577.261 290.024Z" fill="#EFB73B"/>
<path d="M498.508 333.208V333.928C498.508 337.792 497.404 339.208 493.924 339.208C490.444 339.208 489.292 337.792 489.292 333.928V326.008C489.292 322.144 490.444 320.728 493.924 320.728C497.404 320.728 498.508 322.144 498.508 326.008V326.728C498.508 327.424 498.316 327.616 497.62 327.616H496.084C495.388 327.616 495.196 327.424 495.196 326.728V325.432C495.196 324.472 494.788 324.088 493.948 324.088C493.108 324.088 492.7 324.472 492.7 325.432V334.504C492.7 335.464 493.108 335.848 493.948 335.848C494.788 335.848 495.196 335.464 495.196 334.504V333.208C495.196 332.512 495.388 332.32 496.084 332.32H497.62C498.316 332.32 498.508 332.512 498.508 333.208ZM509.103 333.688C509.103 337.744 507.951 339.208 504.471 339.208C500.991 339.208 499.839 337.744 499.839 333.688V326.248C499.839 322.216 500.991 320.728 504.471 320.728C507.951 320.728 509.103 322.216 509.103 326.248V333.688ZM503.247 334.504C503.247 335.464 503.631 335.848 504.471 335.848C505.311 335.848 505.695 335.464 505.695 334.504V325.552C505.695 324.496 505.311 324.088 504.471 324.088C503.631 324.088 503.247 324.496 503.247 325.552V334.504ZM514.65 327.376L517.722 330.16C519.33 331.6 519.69 332.464 519.69 334.072V334.504C519.69 337.528 518.538 339.208 515.058 339.208C511.578 339.208 510.426 337.792 510.426 333.928V333.448C510.426 332.752 510.618 332.56 511.314 332.56H512.946C513.642 332.56 513.834 332.752 513.834 333.448V334.504C513.834 335.464 514.218 335.848 515.058 335.848C515.898 335.848 516.282 335.488 516.282 334.624V334.168C516.282 333.496 516.138 333.16 515.25 332.368L512.37 329.8C510.762 328.384 510.426 327.568 510.426 325.96V325.432C510.426 322.408 511.578 320.728 515.058 320.728C518.538 320.728 519.69 322.144 519.69 326.008V326.488C519.69 327.184 519.498 327.376 518.802 327.376H517.17C516.474 327.376 516.282 327.184 516.282 326.488V325.432C516.282 324.472 515.898 324.088 515.058 324.088C514.218 324.088 513.834 324.448 513.834 325.312V325.72C513.834 326.416 513.978 326.752 514.65 327.376ZM528.206 324.328H526.718C526.382 324.328 526.286 324.424 526.286 324.76V338.08C526.286 338.776 526.094 338.968 525.398 338.968H523.862C523.166 338.968 522.974 338.776 522.974 338.08V324.76C522.974 324.424 522.878 324.328 522.542 324.328H521.054C520.358 324.328 520.166 324.136 520.166 323.44V321.856C520.166 321.16 520.358 320.968 521.054 320.968H528.206C528.902 320.968 529.094 321.16 529.094 321.856V323.44C529.094 324.136 528.902 324.328 528.206 324.328ZM532.16 338.08C532.16 338.776 531.968 338.968 531.272 338.968H529.736C529.04 338.968 528.848 338.776 528.848 338.08V331.936C528.848 330.88 528.896 330.448 529.184 329.488L531.368 322.168C531.656 321.16 531.896 320.968 533.144 320.968H534.008C535.256 320.968 535.496 321.16 535.784 322.168L537.968 329.488C538.256 330.424 538.304 330.88 538.304 331.936V338.08C538.304 338.776 538.112 338.968 537.416 338.968H535.88C535.184 338.968 534.992 338.776 534.992 338.08V334.912C534.992 334.576 534.896 334.48 534.56 334.48H532.592C532.256 334.48 532.16 334.576 532.16 334.912V338.08ZM534.632 331.12C534.896 331.12 535.04 331.024 535.04 330.808C535.04 330.688 535.016 330.568 534.992 330.448L533.888 325.816C533.84 325.576 533.792 325.528 533.576 325.528C533.36 325.528 533.312 325.576 533.264 325.816L532.16 330.448C532.136 330.568 532.112 330.688 532.112 330.808C532.112 331.024 532.256 331.12 532.52 331.12H534.632ZM549.837 338.08V335.272C549.837 334.432 549.789 334.168 549.429 333.52L548.853 332.488C548.589 332.056 548.445 331.984 548.013 331.984H547.581C547.245 331.984 547.149 332.08 547.149 332.416V338.08C547.149 338.776 546.957 338.968 546.261 338.968H544.725C544.029 338.968 543.837 338.776 543.837 338.08V321.856C543.837 321.16 544.029 320.968 544.725 320.968H547.893C551.541 320.968 553.197 322.216 553.197 325.288V327.016C553.197 328.744 552.933 329.872 551.949 330.664C551.829 330.736 551.805 330.808 551.805 330.88C551.805 330.952 551.829 331.024 551.901 331.144L552.573 332.368C553.077 333.304 553.149 333.688 553.149 334.96V338.08C553.149 338.776 552.957 338.968 552.261 338.968H550.725C550.029 338.968 549.837 338.776 549.837 338.08ZM547.149 324.64V328.264C547.149 328.6 547.245 328.696 547.581 328.696H548.085C549.213 328.696 549.789 328.192 549.789 327.04V325.792C549.789 324.664 549.261 324.208 548.085 324.208H547.581C547.245 324.208 547.149 324.304 547.149 324.64ZM558.375 321.856V338.08C558.375 338.776 558.183 338.968 557.487 338.968H555.951C555.255 338.968 555.063 338.776 555.063 338.08V321.856C555.063 321.16 555.255 320.968 555.951 320.968H557.487C558.183 320.968 558.375 321.16 558.375 321.856ZM569.524 333.208V333.928C569.524 337.792 568.42 339.208 564.94 339.208C561.46 339.208 560.308 337.792 560.308 333.928V326.008C560.308 322.144 561.46 320.728 564.94 320.728C568.42 320.728 569.524 322.144 569.524 326.008V326.728C569.524 327.424 569.332 327.616 568.636 327.616H567.1C566.404 327.616 566.212 327.424 566.212 326.728V325.432C566.212 324.472 565.804 324.088 564.964 324.088C564.124 324.088 563.716 324.472 563.716 325.432V334.504C563.716 335.464 564.124 335.848 564.964 335.848C565.804 335.848 566.212 335.464 566.212 334.504V333.208C566.212 332.512 566.404 332.32 567.1 332.32H568.636C569.332 332.32 569.524 332.512 569.524 333.208ZM573.785 338.08C573.785 338.776 573.593 338.968 572.897 338.968H571.361C570.665 338.968 570.473 338.776 570.473 338.08V331.936C570.473 330.88 570.521 330.448 570.809 329.488L572.993 322.168C573.281 321.16 573.521 320.968 574.769 320.968H575.633C576.881 320.968 577.121 321.16 577.409 322.168L579.593 329.488C579.881 330.424 579.929 330.88 579.929 331.936V338.08C579.929 338.776 579.737 338.968 579.041 338.968H577.505C576.809 338.968 576.617 338.776 576.617 338.08V334.912C576.617 334.576 576.521 334.48 576.185 334.48H574.217C573.881 334.48 573.785 334.576 573.785 334.912V338.08ZM576.257 331.12C576.521 331.12 576.665 331.024 576.665 330.808C576.665 330.688 576.641 330.568 576.617 330.448L575.513 325.816C575.465 325.576 575.417 325.528 575.201 325.528C574.985 325.528 574.937 325.576 574.889 325.816L573.785 330.448C573.761 330.568 573.737 330.688 573.737 330.808C573.737 331.024 573.881 331.12 574.145 331.12H576.257Z" fill="#EFB73B"/>
<path d="M2.38696 351.725C88.3447 352.362 174.319 352.553 260.285 352.286C303.094 352.155 345.912 351.701 388.721 351.888C431.166 352.075 473.603 352.617 516.048 352.856C562.912 353.119 609.85 353.031 656.614 351.362C659.783 351.251 659.808 348.857 656.614 348.972C572.659 351.972 488.24 350.171 404.169 349.59C361.417 349.291 318.666 349.689 275.914 349.845C232.923 350.004 189.924 350.052 146.932 349.984C98.7533 349.908 50.566 349.693 2.39526 349.335C-0.798462 349.311 -0.798462 351.701 2.39526 351.725L2.38696 351.725Z" fill="#84CCF5"/>
</svg>
