<svg width="350" height="112" viewBox="0 0 350 112" fill="none" xmlns="http://www.w3.org/2000/svg">
<g clip-path="url(#clip0_4165_1248)">
<path d="M240.603 63.5066C236.202 63.5066 234.933 62.2371 234.423 58.2583L227.907 3.1363C227.654 0.680132 228.583 0.00392151 231.039 0.00392151H237.219C239.674 0.00392151 240.18 0.680132 240.35 3.1363L244.075 46.5752C244.157 47.5917 244.498 47.8447 245.261 47.8447C246.024 47.8447 246.36 47.5917 246.447 46.5752L250.172 3.1363C250.342 0.680132 250.848 0.00392151 253.303 0.00392151H259.483C261.938 0.00392151 262.867 0.680132 262.614 3.1363L256.094 58.2583C255.588 62.2371 254.315 63.5066 249.914 63.5066H240.603Z" fill="#0E2C5E"/>
<path d="M276.58 60.3746C276.58 62.8308 275.904 63.507 273.448 63.507H268.032C265.576 63.507 264.9 62.8308 264.9 60.3746V3.13238C264.9 0.67621 265.576 0 268.032 0H273.448C275.904 0 276.58 0.67621 276.58 3.13238V60.3746Z" fill="#0E2C5E"/>
<path d="M312.769 20.3212V43.1815C312.769 57.5782 309.467 63.5027 293.213 63.5027H282.885C280.43 63.5027 279.754 62.8265 279.754 60.3703V3.13238C279.754 0.67621 280.43 0 282.885 0H293.213C309.467 0 312.769 5.92884 312.769 20.3212ZM291.438 13.3802V50.1312C291.438 51.2306 291.778 51.6537 292.96 51.6537H293.889C298.629 51.6537 300.745 49.4506 300.745 43.9493V19.5621C300.745 14.0564 298.629 11.8577 293.889 11.8577H292.96C291.774 11.8577 291.438 12.198 291.438 13.3802Z" fill="#0E2C5E"/>
<path d="M337.053 0C340.86 0 342.046 1.26953 342.469 4.40191L349.918 60.3703C350.258 62.8265 349.578 63.5027 347.127 63.5027H341.287C338.749 63.5027 338.156 62.9094 337.816 60.3703L336.717 51.1389C336.634 50.2926 336.377 50.0396 335.36 50.0396H328.081C327.065 50.0396 326.812 50.2926 326.725 51.1389L325.626 60.3703C325.286 62.9094 324.697 63.5027 322.154 63.5027H316.315C313.859 63.5027 313.183 62.8265 313.524 60.3703L320.973 4.40191C321.396 1.26953 322.582 0 326.389 0H337.057L337.053 0ZM331.723 16.0894C330.794 16.0894 330.284 16.2596 330.201 17.2761L328.256 37.004C328.173 38.0205 328.426 38.2735 329.525 38.2735H333.926C335.025 38.2735 335.282 38.0205 335.195 37.004L333.25 17.2761C333.167 16.2596 332.656 16.0894 331.727 16.0894H331.723Z" fill="#0E2C5E"/>
<path d="M54.1547 41.7461C52.9684 41.7461 52.6326 42.0864 52.6326 43.2687V60.3746C52.6326 62.8308 51.9566 63.507 49.5012 63.507H44.0845C41.6291 63.507 40.9531 62.8308 40.9531 60.3746V3.13674C40.9531 0.680572 41.6291 0 44.0845 0H55.2581C68.1238 0 73.9635 4.6593 73.9635 16.0894V25.6567C73.9635 37.0868 68.1238 41.7461 55.2581 41.7461H54.159H54.1547ZM52.6326 28.3703C52.6326 29.5569 52.9728 29.8928 54.1547 29.8928H55.934C60.0816 29.8928 61.9439 28.2001 61.9439 23.8811V17.8694C61.9439 13.5504 60.0816 11.8577 55.934 11.8577H54.1547C52.9684 11.8577 52.6326 12.198 52.6326 13.3802V28.3659V28.3703Z" fill="#0E2C5E"/>
<path d="M99.9527 0H105.369C107.825 0 108.501 0.67621 108.501 3.13238V45.7249C108.501 59.3582 104.436 64.3534 92.1635 64.3534C79.8909 64.3534 75.8262 59.3582 75.8262 45.7249V3.13674C75.8262 0.680573 76.5022 0 78.9576 0H84.3742C86.8296 0 87.5056 0.67621 87.5056 3.13238V47.7579C87.5056 51.1433 88.9448 52.5001 92.1591 52.5001C95.3733 52.5001 96.8169 51.1433 96.8169 47.7579V3.13674C96.8213 0.680573 97.4973 0 99.9527 0Z" fill="#0E2C5E"/>
<path d="M126.939 40.5639C126.516 39.3772 126.176 39.0413 124.907 39.0413H124.567C123.381 39.0413 123.045 39.3816 123.045 40.5639V60.379C123.045 62.8352 122.369 63.5114 119.913 63.5114H114.497C112.041 63.5114 111.365 62.8352 111.365 60.379V3.13674C111.365 0.680574 112.041 0.00436401 114.497 0.00436401H125.67C138.536 0.00436401 144.376 4.40627 144.376 15.2474V21.3421C144.376 29.2995 143.107 32.349 138.619 36.162C138.109 36.5022 138.026 36.668 138.026 37.0912C138.026 37.3442 138.109 37.6016 138.279 38.1906L145.728 60.2917C146.491 62.4949 145.645 63.5114 143.442 63.5114H137.262C134.894 63.5114 134.384 63.1711 133.708 61.1425L126.935 40.5682L126.939 40.5639ZM123.045 25.997C123.045 27.1836 123.385 27.5196 124.567 27.5196H126.346C130.324 27.5196 132.356 25.7396 132.356 21.678V17.023C132.356 13.0443 130.494 11.4345 126.346 11.4345H124.567C123.381 11.4345 123.045 11.7748 123.045 12.9571V25.997Z" fill="#0E2C5E"/>
<path d="M171.31 0C175.118 0 176.304 1.26953 176.727 4.40191L184.176 60.3703C184.516 62.8265 183.836 63.5027 181.385 63.5027H175.545C173.007 63.5027 172.414 62.9094 172.074 60.3703L170.975 51.1389C170.892 50.2926 170.634 50.0396 169.618 50.0396H162.339C161.323 50.0396 161.07 50.2926 160.983 51.1389L159.884 60.3703C159.544 62.9094 158.955 63.5027 156.412 63.5027H150.573C148.117 63.5027 147.441 62.8265 147.781 60.3703L155.23 4.40191C155.649 1.27389 156.835 0 160.647 0H171.315H171.31ZM165.977 16.0894C165.048 16.0894 164.537 16.2596 164.454 17.2761L162.509 37.004C162.426 38.0205 162.679 38.2735 163.778 38.2735H168.179C169.278 38.2735 169.535 38.0205 169.448 37.004L167.503 17.2761C167.42 16.2596 166.91 16.0894 165.981 16.0894H165.977Z" fill="#0E2C5E"/>
<path d="M219.593 18.009C219.75 18.8423 219.837 19.6973 219.837 20.5742C219.837 22.6988 219.353 24.71 218.494 26.5118C218.324 26.1584 218.106 25.8356 217.831 25.5564C217.081 24.7929 216.047 24.4308 215 24.5573C214.813 24.5835 214.617 24.5966 214.425 24.5966C213.156 24.5966 211.978 24.0905 211.106 23.1744C210.233 22.2626 209.784 21.0585 209.845 19.7889C209.954 17.4462 211.869 15.5354 214.207 15.4263C216.501 15.3172 218.306 16.1898 219.593 18.0133V18.009ZM217.552 20.0027C217.552 18.2795 216.147 16.8747 214.425 16.8747C212.702 16.8747 211.298 18.2795 211.298 20.0027C211.298 21.726 212.698 23.1307 214.425 23.1307C216.152 23.1307 217.552 21.726 217.552 20.0027Z" fill="#EFB73B"/>
<path d="M202.365 19.7715C202.422 21.041 201.977 22.2451 201.1 23.1569C200.228 24.0731 199.046 24.5791 197.781 24.5791C197.59 24.5791 197.398 24.5704 197.206 24.5442C196.159 24.409 195.125 24.7754 194.375 25.5389C194.066 25.8617 193.821 26.2369 193.647 26.647C192.749 24.8147 192.238 22.7555 192.238 20.5742C192.238 19.7715 192.308 18.9862 192.443 18.2227C192.461 18.2009 192.483 18.1835 192.496 18.1573C193.782 16.2246 195.636 15.291 197.995 15.4088C200.337 15.5179 202.247 17.4331 202.356 19.7715H202.365ZM200.908 19.9896C200.908 18.2664 199.504 16.8616 197.781 16.8616C196.059 16.8616 194.654 18.2664 194.654 19.9896C194.654 21.7129 196.059 23.1176 197.781 23.1176C199.504 23.1176 200.908 21.7129 200.908 19.9896Z" fill="#EFB73B"/>
<path d="M202.568 24.5617C203.828 23.2441 204.473 21.5078 204.395 19.6799C204.238 16.2988 201.473 13.5329 198.097 13.3802C196.833 13.3279 195.267 13.498 193.758 14.3051C196.047 9.84212 200.688 6.77518 206.044 6.77518C211.399 6.77518 215.983 9.80285 218.286 14.2222C216.833 13.4936 215.337 13.341 214.121 13.3933C210.741 13.5504 207.976 16.3163 207.823 19.693C207.74 21.5209 208.385 23.2529 209.65 24.5748C210.906 25.8923 212.607 26.6208 214.435 26.6208C214.709 26.6208 214.988 26.6034 215.259 26.5685C215.826 26.4987 216.214 26.791 216.388 26.9698C216.72 27.3101 216.873 27.7726 216.803 28.2394C216.711 28.8632 216.497 29.4304 216.179 29.9277C213.658 32.6587 210.047 34.3732 206.048 34.3732C202.049 34.3732 198.717 32.7896 196.213 30.2418C196.187 30.1589 196.148 30.076 196.1 29.9975C195.747 29.4784 195.52 28.885 195.424 28.2306C195.354 27.7638 195.507 27.3014 195.838 26.9611C196.013 26.7823 196.401 26.4856 196.968 26.5598C197.238 26.5947 197.517 26.6121 197.792 26.6121C199.619 26.6121 201.316 25.8835 202.576 24.566L202.568 24.5617ZM206.03 22.6247C205.136 22.6247 204.46 23.1962 204.46 23.9553C204.46 24.7144 205.136 25.2859 206.03 25.2859C206.924 25.2859 207.6 24.7144 207.6 23.9553C207.6 23.1962 206.924 22.6247 206.03 22.6247ZM211.273 29.3344C211.752 29.0421 211.905 28.4226 211.617 27.9427C211.325 27.4628 210.706 27.3101 210.226 27.5981C209.807 27.8511 209.328 27.982 208.835 27.982C208.058 27.982 207.317 27.6461 206.802 27.0615C206.794 27.0527 206.785 27.044 206.776 27.0396C206.754 27.0178 206.737 26.9917 206.715 26.9698C206.702 26.9611 206.685 26.948 206.672 26.9393C206.654 26.9262 206.632 26.9131 206.615 26.9C206.576 26.8782 206.545 26.8521 206.506 26.8302L206.436 26.7997C206.401 26.7866 206.366 26.7692 206.323 26.7604C206.301 26.7517 206.27 26.7474 206.244 26.743C206.205 26.7343 206.174 26.7299 206.135 26.7255C206.105 26.7255 206.074 26.7255 206.044 26.7255C206.009 26.7255 205.974 26.7255 205.948 26.7255C205.913 26.7255 205.878 26.7343 205.843 26.743C205.817 26.743 205.791 26.7517 205.76 26.7604C205.725 26.7692 205.69 26.7823 205.655 26.7997C205.629 26.8084 205.603 26.8215 205.581 26.8302C205.542 26.8521 205.511 26.8739 205.477 26.8957C205.455 26.9131 205.437 26.9262 205.415 26.9393L205.376 26.9698C205.354 26.9917 205.337 27.0135 205.311 27.0396C205.302 27.0484 205.293 27.0527 205.285 27.0615C204.77 27.6461 204.029 27.982 203.257 27.982C202.764 27.982 202.28 27.8511 201.865 27.5981C201.386 27.3058 200.758 27.4628 200.474 27.9427C200.182 28.4226 200.339 29.0465 200.819 29.3344C201.551 29.7794 202.397 30.0106 203.261 30.0106C204.273 30.0106 205.245 29.6878 206.052 29.0988C206.859 29.6878 207.832 30.0106 208.843 30.0106C209.707 30.0106 210.549 29.7794 211.286 29.3344H211.273Z" fill="#F9FFF2"/>
<path d="M212 57.2204C212.379 56.806 212.353 56.169 211.947 55.7851C211.533 55.4012 210.892 55.4274 210.512 55.8374L209.775 56.6314C209.631 56.3391 209.549 56.0207 209.549 55.676V55.628C209.54 55.5364 209.169 46.3225 213.456 41.1441C213.814 40.7122 213.753 40.0709 213.325 39.7175C212.894 39.3597 212.253 39.4208 211.895 39.8484C208.127 44.3986 207.569 51.3439 207.507 54.3105L206.06 56.217L204.699 54.3192C204.642 51.3526 204.084 44.4073 200.311 39.8527C199.958 39.4252 199.317 39.3641 198.885 39.7218C198.454 40.0752 198.397 40.7165 198.75 41.1484C203.042 46.3269 202.671 55.5408 202.662 55.6324V55.6804C202.662 56.0643 202.562 56.422 202.383 56.7318L201.554 55.8418C201.175 55.4274 200.534 55.4055 200.124 55.7895C199.71 56.1734 199.688 56.8103 200.072 57.2248L200.617 57.8137C200.586 57.8137 200.56 57.8224 200.525 57.8224C200.045 57.8224 199.592 57.6654 199.212 57.3687C191.846 51.6842 187.947 46.0302 187.616 40.5726C187.302 35.4028 190.464 32.2137 190.494 32.1876L191.1 31.5942L190.629 30.8962C188.58 27.8424 187.498 24.2737 187.498 20.5786C187.498 10.3525 195.815 2.03735 206.038 2.03735C216.261 2.03735 224.573 10.3569 224.573 20.5786C224.573 24.2432 223.505 27.79 221.485 30.8264C221.184 31.2845 221.298 31.8865 221.738 32.205C222.017 32.4973 224.896 35.6253 224.595 40.5682C224.263 46.0259 220.36 51.6798 212.998 57.3644C212.623 57.6567 212.165 57.8181 211.686 57.8181C211.611 57.8181 211.537 57.8094 211.463 57.805L212.004 57.2248L212 57.2204ZM221.865 20.5742C221.865 19.501 221.756 18.4583 221.551 17.4418C221.551 17.4288 221.551 17.42 221.542 17.4026C220.072 10.1868 213.679 4.74219 206.038 4.74219C197.311 4.74219 190.211 11.8446 190.211 20.5742C190.211 29.3039 197.307 36.4062 206.038 36.4062C210.6 36.4062 214.712 34.4605 217.604 31.3587C217.643 31.3281 217.678 31.2889 217.713 31.2452C220.286 28.427 221.86 24.6838 221.86 20.5742H221.865Z" fill="#F67A38"/>
<path d="M221.551 17.4418C221.755 18.4583 221.865 19.501 221.865 20.5742C221.865 24.6838 220.29 28.427 217.717 31.2453C217.682 31.2845 217.647 31.3281 217.608 31.3587C214.716 34.4605 210.604 36.4063 206.042 36.4063C197.315 36.4063 190.215 29.3082 190.215 20.5742C190.215 11.8402 197.311 4.74219 206.042 4.74219C213.678 4.74219 220.076 10.1868 221.546 17.4026C221.546 17.4157 221.555 17.4244 221.555 17.4418H221.551ZM219.837 20.5742C219.837 19.6973 219.749 18.8423 219.592 18.009C218.306 16.1854 216.5 15.3129 214.206 15.4219C211.864 15.531 209.954 17.4462 209.845 19.7846C209.784 21.0541 210.233 22.2582 211.105 23.17C211.982 24.0862 213.159 24.5922 214.424 24.5922C214.612 24.5922 214.808 24.5835 215 24.553C216.047 24.4264 217.08 24.7842 217.83 25.552C218.105 25.8312 218.323 26.1584 218.493 26.5074C219.352 24.71 219.837 22.6945 219.837 20.5699V20.5742ZM216.797 28.2394C216.867 27.7726 216.714 27.3101 216.382 26.9699C216.208 26.791 215.82 26.4943 215.253 26.5685C214.982 26.6034 214.703 26.6208 214.429 26.6208C212.601 26.6208 210.9 25.8923 209.644 24.5748C208.384 23.2573 207.734 21.5209 207.817 19.693C207.974 16.3119 210.739 13.546 214.115 13.3933C215.331 13.341 216.827 13.4937 218.28 14.2222C215.977 9.80285 211.354 6.77518 206.037 6.77518C200.721 6.77518 196.041 9.83776 193.752 14.3051C195.261 13.498 196.827 13.3279 198.091 13.3802C201.471 13.5373 204.236 16.3032 204.389 19.6799C204.472 21.5078 203.826 23.2398 202.562 24.5617C201.301 25.8792 199.605 26.6078 197.777 26.6078C197.503 26.6078 197.223 26.5903 196.953 26.5554C196.386 26.4856 195.998 26.7779 195.823 26.9568C195.492 27.2971 195.339 27.7595 195.409 28.2263C195.505 28.8807 195.732 29.4784 196.085 29.9932C196.137 30.0717 196.172 30.1502 196.198 30.2375C198.706 32.7896 202.187 34.3689 206.033 34.3689C209.88 34.3689 213.639 32.6544 216.164 29.9234C216.487 29.426 216.701 28.8589 216.788 28.235L216.797 28.2394ZM201.101 23.1569C201.977 22.2451 202.422 21.041 202.365 19.7715C202.256 17.4331 200.342 15.5179 198.004 15.4089C195.645 15.2954 193.791 16.2247 192.505 18.1573C192.487 18.1791 192.465 18.2009 192.452 18.2228C192.321 18.9862 192.247 19.7715 192.247 20.5742C192.247 22.7512 192.753 24.8104 193.656 26.647C193.83 26.2369 194.07 25.8617 194.384 25.5389C195.134 24.7755 196.168 24.409 197.215 24.5442C197.402 24.566 197.598 24.5791 197.79 24.5791C199.055 24.5791 200.237 24.0731 201.109 23.1569H201.101Z" fill="#0E2C5E"/>
<path d="M214.426 16.8747C216.149 16.8747 217.553 18.2795 217.553 20.0027C217.553 21.7259 216.149 23.1307 214.426 23.1307C212.703 23.1307 211.299 21.7259 211.299 20.0027C211.299 18.2795 212.699 16.8747 214.426 16.8747ZM215.525 20.0027C215.525 19.3919 215.032 18.9033 214.426 18.9033C213.82 18.9033 213.327 19.3919 213.327 20.0027C213.327 20.6135 213.815 21.1021 214.426 21.1021C215.036 21.1021 215.525 20.6091 215.525 20.0027Z" fill="#0E2C5E"/>
<path d="M206.029 22.6247C206.923 22.6247 207.599 23.1962 207.599 23.9553C207.599 24.7144 206.923 25.2859 206.029 25.2859C205.135 25.2859 204.459 24.7144 204.459 23.9553C204.459 23.1962 205.135 22.6247 206.029 22.6247Z" fill="#0E2C5E"/>
<path d="M206.627 58.7517C206.579 58.7823 206.531 58.8128 206.483 58.8346C206.475 58.8346 206.47 58.8346 206.466 58.8433C206.405 58.8695 206.348 58.8913 206.287 58.9088C206.27 58.9088 206.252 58.9175 206.239 58.9175C206.169 58.9306 206.104 58.9393 206.034 58.9393C205.964 58.9393 205.894 58.9306 205.829 58.9131L205.777 58.9044C205.716 58.887 205.659 58.8652 205.602 58.839C205.594 58.839 205.58 58.8303 205.576 58.8303C205.524 58.8041 205.471 58.7692 205.423 58.7343C205.415 58.7343 205.41 58.7212 205.402 58.7168C205.38 58.6994 205.362 58.6776 205.341 58.6601C205.301 58.6252 205.271 58.5903 205.236 58.5467C205.227 58.538 205.218 58.5249 205.214 58.5162L204.359 57.3208C204.215 57.6567 204.023 57.9665 203.801 58.25L205.432 60.0082C205.812 60.4183 205.785 61.0596 205.38 61.4435C205.184 61.6223 204.935 61.714 204.691 61.714C204.416 61.714 204.146 61.6005 203.945 61.3911L202.192 59.4977C201.834 59.6548 201.446 59.7595 201.04 59.8119L202.048 62.0761C202.279 62.5909 202.048 63.1885 201.533 63.4198C201.402 63.4765 201.258 63.5026 201.123 63.5026C200.735 63.5026 200.364 63.2802 200.194 62.9006L198.629 59.38C198.402 59.2622 198.184 59.1269 197.979 58.9655H197.97C190.102 52.8883 185.937 46.7239 185.588 40.638C185.318 35.9177 187.464 32.6588 188.519 31.3543C186.522 28.1172 185.471 24.4046 185.471 20.5699C185.471 9.22699 194.699 -0.00436401 206.038 -0.00436401C217.378 -0.00436401 226.606 9.22699 226.606 20.5699C226.606 24.3654 225.577 28.0431 223.619 31.254C224.639 32.4842 226.907 35.7911 226.632 40.638C226.279 46.7239 222.114 52.8883 214.242 58.9655C214.037 59.1226 213.819 59.2578 213.596 59.38L212.026 62.9006C211.861 63.2802 211.49 63.5026 211.102 63.5026C210.962 63.5026 210.823 63.4765 210.687 63.4198C210.177 63.1885 209.946 62.5909 210.173 62.0761L211.185 59.8119C210.74 59.7595 210.321 59.633 209.937 59.4541L208.141 61.3911C207.94 61.6049 207.67 61.714 207.395 61.714C207.146 61.714 206.902 61.6223 206.706 61.4435C206.296 61.0596 206.274 60.4183 206.653 60.0082L208.359 58.1628C208.149 57.8836 207.97 57.5738 207.835 57.2423L206.85 58.5336C206.85 58.5336 206.832 58.5554 206.823 58.5641C206.793 58.6034 206.758 58.6339 206.723 58.6688C206.701 58.6863 206.684 58.7081 206.662 58.7212C206.653 58.7299 206.645 58.7386 206.636 58.743L206.627 58.7517ZM224.6 40.5682C224.901 35.621 222.022 32.4973 221.743 32.205C221.303 31.8866 221.189 31.2802 221.49 30.8264C223.51 27.79 224.578 24.2432 224.578 20.5786C224.578 10.3526 216.261 2.03735 206.043 2.03735C195.824 2.03735 187.503 10.3569 187.503 20.5786C187.503 24.2738 188.585 27.8424 190.634 30.8962L191.105 31.5943L190.499 32.1876C190.469 32.2138 187.307 35.4029 187.621 40.5726C187.952 46.0303 191.856 51.6842 199.217 57.3688C199.597 57.6654 200.05 57.8269 200.53 57.8269C200.565 57.8269 200.591 57.8269 200.622 57.8181L200.077 57.2292C199.693 56.8147 199.719 56.1778 200.129 55.7939C200.539 55.4099 201.18 55.4361 201.559 55.8462L202.388 56.7362C202.562 56.4264 202.667 56.0643 202.667 55.6848V55.6368C202.676 55.5452 203.047 46.3313 198.755 41.1528C198.402 40.7209 198.459 40.0796 198.89 39.7262C199.322 39.3685 199.963 39.4296 200.316 39.8571C204.085 44.4117 204.643 51.357 204.704 54.3236L206.065 56.2214L207.512 54.3149C207.569 51.3483 208.132 44.403 211.9 39.8528C212.258 39.4252 212.899 39.3641 213.33 39.7219C213.758 40.0753 213.819 40.7166 213.461 41.1485C209.174 46.3269 209.545 55.5408 209.549 55.6324V55.6804C209.549 56.0251 209.632 56.3479 209.78 56.6359L210.517 55.8418C210.897 55.4274 211.538 55.4056 211.952 55.7895C212.362 56.1734 212.384 56.8104 212.005 57.2248L211.464 57.805C211.538 57.8138 211.612 57.8181 211.686 57.8181C212.166 57.8181 212.624 57.6611 212.999 57.3644C220.365 51.6799 224.264 46.0303 224.596 40.5682H224.6Z" fill="#0E2C5E"/>
<path d="M206.431 26.8041L206.501 26.8346C206.54 26.8564 206.57 26.8782 206.61 26.9044C206.631 26.9175 206.649 26.9306 206.666 26.9437C206.679 26.9524 206.697 26.9655 206.71 26.9742C206.732 26.996 206.749 27.0178 206.771 27.044C206.78 27.0527 206.793 27.0571 206.797 27.0658C207.312 27.6504 208.053 27.9863 208.829 27.9863C209.322 27.9863 209.802 27.8555 210.221 27.6024C210.7 27.3145 211.324 27.4672 211.612 27.9471C211.9 28.427 211.747 29.0508 211.267 29.3388C210.53 29.7838 209.689 30.015 208.825 30.015C207.809 30.015 206.836 29.6921 206.034 29.1032C205.227 29.6921 204.254 30.015 203.243 30.015C202.379 30.015 201.533 29.7838 200.8 29.3388C200.321 29.0465 200.164 28.427 200.456 27.9471C200.744 27.4672 201.367 27.3101 201.847 27.6024C202.261 27.8555 202.745 27.9863 203.238 27.9863C204.015 27.9863 204.752 27.6504 205.266 27.0658C205.275 27.0571 205.288 27.0484 205.292 27.044C205.314 27.0222 205.332 26.996 205.358 26.9742L205.397 26.9437C205.397 26.9437 205.436 26.9175 205.458 26.9C205.493 26.8782 205.528 26.8564 205.563 26.8346C205.585 26.8259 205.611 26.8128 205.637 26.8041C205.672 26.7866 205.707 26.7735 205.742 26.7648C205.772 26.7561 205.798 26.7517 205.825 26.7474C205.859 26.7386 205.894 26.7343 205.929 26.7299C205.96 26.7299 205.995 26.7299 206.025 26.7299C206.056 26.7299 206.086 26.7299 206.117 26.7299C206.156 26.7299 206.187 26.7386 206.226 26.7474C206.252 26.7474 206.278 26.7561 206.304 26.7648C206.344 26.7735 206.383 26.791 206.418 26.8041H206.431Z" fill="#0E2C5E"/>
<path d="M197.783 16.8616C199.506 16.8616 200.91 18.2664 200.91 19.9896C200.91 21.7129 199.506 23.1176 197.783 23.1176C196.061 23.1176 194.656 21.7129 194.656 19.9896C194.656 18.2664 196.061 16.8616 197.783 16.8616ZM198.882 19.9896C198.882 19.3832 198.394 18.8902 197.783 18.8902C197.173 18.8902 196.684 19.3832 196.684 19.9896C196.684 20.596 197.177 21.089 197.783 21.089C198.389 21.089 198.882 20.596 198.882 19.9896Z" fill="#0E2C5E"/>
<path d="M13.4981 56.6096C14.1479 56.6096 14.3965 56.409 14.3965 55.7109V49.5116C14.3965 48.0589 14.7978 47.6619 16.2457 47.6619H19.5472C20.9951 47.6619 21.3963 48.0632 21.3963 49.4113V55.7109C21.3963 56.409 21.597 56.6096 22.2948 56.6096H29.5955C30.2453 56.6096 30.4939 56.409 30.4939 55.7109V48.9096C30.4939 47.4612 30.8952 47.0598 32.3431 47.0598H35.6446C37.0925 47.0598 37.4938 47.4612 37.4938 48.9096V61.6616C37.4938 63.11 37.0925 63.5113 35.6446 63.5113H1.84917C0.401236 63.5113 0 63.11 0 61.6616V48.9096C0 47.4612 0.401236 47.0598 1.84917 47.0598H5.15065C6.59859 47.0598 6.99982 47.4612 6.99982 48.9096V55.7109C6.99982 56.409 7.20044 56.6096 7.89824 56.6096H13.4981Z" fill="#EFB73B"/>
<path d="M6.99982 28.9549C6.99982 29.6529 7.20044 29.8536 7.89824 29.8536H35.6446C37.0925 29.8536 37.4938 30.2549 37.4938 31.7033V34.9055C37.4938 36.3539 37.0925 36.7553 35.6446 36.7553H7.89824C7.20044 36.7553 6.99982 36.9559 6.99982 37.654V40.7558C6.99982 42.2042 6.59859 42.6056 5.15065 42.6056H1.84917C0.401236 42.6056 0 42.2042 0 40.7558V25.853C0 24.4046 0.401236 24.0033 1.84917 24.0033H5.15065C6.59859 24.0033 6.99982 24.4046 6.99982 25.853V28.9549Z" fill="#EFB73B"/>
<path d="M22.1465 6.90606C21.4487 6.90606 21.2481 7.10674 21.2481 7.80477V11.9056C21.2481 12.6037 21.4487 12.8044 22.1465 12.8044H35.6446C37.0925 12.8044 37.4938 13.2057 37.4938 14.6541V17.8563C37.4938 19.3047 37.0925 19.7061 35.6446 19.7061H1.84917C0.401236 19.7061 0 19.3047 0 17.8563V14.6541C0 13.2057 0.401236 12.8044 1.84917 12.8044H13.3498C13.9996 12.8044 14.2482 12.6037 14.2482 11.9056V7.80477C14.2482 7.10238 13.9996 6.90606 13.3498 6.90606H1.84917C0.401236 6.90606 0 6.5047 0 5.0563V1.85412C0 0.401363 0.401236 0 1.84917 0H35.6446C37.0925 0 37.4938 0.401363 37.4938 1.84976V5.05194C37.4938 6.50034 37.0925 6.9017 35.6446 6.9017H22.1465V6.90606Z" fill="#EFB73B"/>
</g>
<path d="M14.998 88.4632V91.9085H4.68945V88.4632H14.998ZM6.09766 80.4515V100.358H1.64062V80.4515H6.09766ZM18.0742 80.4515V100.358H13.6309V80.4515H18.0742ZM29.278 96.8304V90.4866C29.278 90.04 29.2097 89.6572 29.073 89.3382C28.9363 89.0192 28.7221 88.7685 28.4304 88.5862C28.1387 88.4039 27.7605 88.3128 27.2956 88.3128C26.9037 88.3128 26.5619 88.3811 26.2702 88.5179C25.9877 88.6546 25.7689 88.8506 25.614 89.1058C25.4682 89.361 25.3952 89.6754 25.3952 90.0491H21.1296C21.1296 89.3838 21.28 88.764 21.5808 88.1897C21.8816 87.6155 22.3099 87.1097 22.8659 86.6722C23.431 86.2347 24.1055 85.8974 24.8894 85.6604C25.6732 85.4144 26.5528 85.2913 27.528 85.2913C28.6856 85.2913 29.7155 85.4873 30.6179 85.8792C31.5293 86.262 32.2494 86.8408 32.778 87.6155C33.3067 88.3811 33.571 89.3473 33.571 90.514V96.7073C33.571 97.6006 33.6211 98.3024 33.7214 98.8128C33.8308 99.3141 33.9857 99.7516 34.1863 100.125V100.358H29.8796C29.6791 99.9293 29.5287 99.4007 29.4284 98.7718C29.3282 98.1338 29.278 97.4866 29.278 96.8304ZM29.8113 91.3343L29.8386 93.6858H27.7195C27.2455 93.6858 26.8353 93.7451 26.489 93.8636C26.1517 93.9821 25.8783 94.1461 25.6687 94.3558C25.459 94.5563 25.3041 94.7933 25.2038 95.0667C25.1127 95.331 25.0671 95.6227 25.0671 95.9417C25.0671 96.2425 25.14 96.5159 25.2859 96.762C25.4317 96.999 25.6322 97.1858 25.8874 97.3226C26.1426 97.4593 26.4389 97.5276 26.7761 97.5276C27.3321 97.5276 27.806 97.4183 28.198 97.1995C28.599 96.9808 28.9089 96.7164 29.1277 96.4065C29.3464 96.0875 29.4558 95.7913 29.4558 95.5179L30.4812 97.2952C30.3171 97.6598 30.1166 98.0381 29.8796 98.43C29.6426 98.8128 29.3418 99.1728 28.9773 99.5101C28.6127 99.8382 28.1706 100.107 27.6511 100.317C27.1407 100.526 26.5254 100.631 25.8054 100.631C24.8757 100.631 24.0326 100.444 23.2761 100.071C22.5196 99.6878 21.9135 99.1637 21.4577 98.4983C21.0111 97.833 20.7878 97.0673 20.7878 96.2015C20.7878 95.4267 20.9291 94.7386 21.2116 94.137C21.4942 93.5354 21.918 93.025 22.4831 92.6058C23.0573 92.1865 23.7774 91.872 24.6433 91.6624C25.5092 91.4436 26.5209 91.3343 27.6784 91.3343H29.8113ZM42.8334 97.3089C43.2892 97.3089 43.6857 97.2223 44.0229 97.0491C44.3601 96.8759 44.6199 96.6344 44.8022 96.3245C44.9936 96.0055 45.0893 95.6227 45.0893 95.1761H49.1088C49.1088 96.2516 48.8308 97.1995 48.2748 98.0198C47.728 98.8401 46.9897 99.4827 46.06 99.9476C45.1303 100.403 44.0821 100.631 42.9155 100.631C41.767 100.631 40.7644 100.444 39.9077 100.071C39.0509 99.6878 38.3354 99.1546 37.7612 98.471C37.187 97.7874 36.754 96.9944 36.4623 96.0921C36.1798 95.1806 36.0385 94.1963 36.0385 93.139V92.7835C36.0385 91.7353 36.1798 90.7555 36.4623 89.844C36.754 88.9326 37.187 88.1351 37.7612 87.4515C38.3354 86.7679 39.0463 86.2392 39.894 85.8655C40.7508 85.4827 41.7534 85.2913 42.9018 85.2913C44.114 85.2913 45.185 85.5237 46.1147 85.9886C47.0535 86.4534 47.7872 87.1233 48.3159 87.9983C48.8445 88.8642 49.1088 89.9078 49.1088 91.1292H45.0893C45.0893 90.6552 45.0027 90.2314 44.8295 89.8577C44.6655 89.4749 44.4103 89.1741 44.0639 88.9554C43.7267 88.7275 43.3074 88.6136 42.8061 88.6136C42.2866 88.6136 41.8582 88.7275 41.5209 88.9554C41.1928 89.1741 40.9422 89.4795 40.769 89.8714C40.5958 90.2633 40.4773 90.7099 40.4135 91.2112C40.3497 91.7034 40.3178 92.2275 40.3178 92.7835V93.139C40.3178 93.7041 40.3497 94.2418 40.4135 94.7522C40.4773 95.2535 40.5958 95.6956 40.769 96.0784C40.9513 96.4612 41.2065 96.762 41.5346 96.9808C41.8627 97.1995 42.2957 97.3089 42.8334 97.3089ZM55.8009 79.344V100.358H51.5216V79.344H55.8009ZM65.1935 85.5647L58.7541 93.0022L55.3498 96.4202L53.6408 93.5354L56.4025 89.9671L60.0529 85.5647H65.1935ZM60.6818 100.358L56.5119 93.5628L59.5744 91.1702L65.5763 100.358H60.6818ZM74.7704 96.8304V90.4866C74.7704 90.04 74.702 89.6572 74.5653 89.3382C74.4286 89.0192 74.2144 88.7685 73.9227 88.5862C73.6311 88.4039 73.2528 88.3128 72.788 88.3128C72.396 88.3128 72.0542 88.3811 71.7626 88.5179C71.48 88.6546 71.2613 88.8506 71.1063 89.1058C70.9605 89.361 70.8876 89.6754 70.8876 90.0491H66.622C66.622 89.3838 66.7723 88.764 67.0731 88.1897C67.3739 87.6155 67.8023 87.1097 68.3583 86.6722C68.9234 86.2347 69.5979 85.8974 70.3817 85.6604C71.1656 85.4144 72.0451 85.2913 73.0204 85.2913C74.1779 85.2913 75.2079 85.4873 76.1102 85.8792C77.0217 86.262 77.7417 86.8408 78.2704 87.6155C78.799 88.3811 79.0634 89.3473 79.0634 90.514V96.7073C79.0634 97.6006 79.1135 98.3024 79.2138 98.8128C79.3231 99.3141 79.4781 99.7516 79.6786 100.125V100.358H75.372C75.1714 99.9293 75.021 99.4007 74.9208 98.7718C74.8205 98.1338 74.7704 97.4866 74.7704 96.8304ZM75.3036 91.3343L75.3309 93.6858H73.2118C72.7378 93.6858 72.3277 93.7451 71.9813 93.8636C71.6441 93.9821 71.3707 94.1461 71.161 94.3558C70.9514 94.5563 70.7964 94.7933 70.6962 95.0667C70.605 95.331 70.5595 95.6227 70.5595 95.9417C70.5595 96.2425 70.6324 96.5159 70.7782 96.762C70.924 96.999 71.1246 97.1858 71.3798 97.3226C71.635 97.4593 71.9312 97.5276 72.2684 97.5276C72.8244 97.5276 73.2984 97.4183 73.6903 97.1995C74.0914 96.9808 74.4013 96.7164 74.62 96.4065C74.8388 96.0875 74.9481 95.7913 74.9481 95.5179L75.9735 97.2952C75.8095 97.6598 75.6089 98.0381 75.372 98.43C75.135 98.8128 74.8342 99.1728 74.4696 99.5101C74.105 99.8382 73.663 100.107 73.1434 100.317C72.633 100.526 72.0178 100.631 71.2977 100.631C70.368 100.631 69.525 100.444 68.7684 100.071C68.0119 99.6878 67.4058 99.1637 66.9501 98.4983C66.5035 97.833 66.2802 97.0673 66.2802 96.2015C66.2802 95.4267 66.4214 94.7386 66.704 94.137C66.9865 93.5354 67.4104 93.025 67.9755 92.6058C68.5497 92.1865 69.2697 91.872 70.1356 91.6624C71.0015 91.4436 72.0132 91.3343 73.1708 91.3343H75.3036ZM89.6656 85.5647V88.5589H80.8883V85.5647H89.6656ZM82.898 81.9007H87.1773V95.7229C87.1773 96.1331 87.2275 96.4476 87.3277 96.6663C87.428 96.8851 87.5921 97.04 87.8199 97.1311C88.0478 97.2132 88.3395 97.2542 88.6949 97.2542C88.9501 97.2542 89.1689 97.2451 89.3512 97.2269C89.5335 97.2086 89.7021 97.1858 89.857 97.1585V100.248C89.4924 100.367 89.1051 100.458 88.6949 100.522C88.2848 100.595 87.8382 100.631 87.3551 100.631C86.4345 100.631 85.637 100.481 84.9625 100.18C84.2971 99.8792 83.7867 99.4052 83.4313 98.7581C83.0758 98.1019 82.898 97.2496 82.898 96.2015V81.9007ZM96.1663 79.3577V100.358H91.9007V79.3577H96.1663ZM95.6058 92.4417L94.5394 92.469C94.5394 91.43 94.667 90.4775 94.9222 89.6116C95.1865 88.7366 95.5602 87.9756 96.0433 87.3284C96.5264 86.6813 97.1051 86.18 97.7796 85.8245C98.4632 85.469 99.2152 85.2913 100.035 85.2913C100.765 85.2913 101.43 85.3961 102.032 85.6058C102.633 85.8154 103.153 86.1481 103.59 86.6038C104.028 87.0595 104.365 87.6565 104.602 88.3948C104.839 89.1331 104.957 90.0309 104.957 91.0882V100.358H100.664V91.0608C100.664 90.4319 100.573 89.9397 100.391 89.5843C100.218 89.2288 99.9626 88.9782 99.6253 88.8323C99.2972 88.6865 98.8961 88.6136 98.4222 88.6136C97.8662 88.6136 97.4059 88.7138 97.0413 88.9144C96.6767 89.1058 96.3896 89.3746 96.18 89.721C95.9704 90.0673 95.82 90.4729 95.7288 90.9378C95.6468 91.4026 95.6058 91.9039 95.6058 92.4417ZM107.411 93.1116V92.8245C107.411 91.7399 107.566 90.7418 107.876 89.8304C108.186 88.9098 108.642 88.1123 109.243 87.4378C109.845 86.7633 110.583 86.2392 111.458 85.8655C112.333 85.4827 113.336 85.2913 114.466 85.2913C115.614 85.2913 116.626 85.4827 117.501 85.8655C118.385 86.2392 119.128 86.7633 119.73 87.4378C120.331 88.1123 120.787 88.9098 121.097 89.8304C121.407 90.7418 121.562 91.7399 121.562 92.8245V93.1116C121.562 94.1871 121.407 95.1852 121.097 96.1058C120.787 97.0172 120.331 97.8147 119.73 98.4983C119.128 99.1728 118.39 99.6969 117.515 100.071C116.64 100.444 115.633 100.631 114.493 100.631C113.363 100.631 112.356 100.444 111.472 100.071C110.588 99.6969 109.845 99.1728 109.243 98.4983C108.642 97.8147 108.186 97.0172 107.876 96.1058C107.566 95.1852 107.411 94.1871 107.411 93.1116ZM111.69 92.8245V93.1116C111.69 93.695 111.736 94.2418 111.827 94.7522C111.927 95.2627 112.087 95.7093 112.306 96.0921C112.524 96.4749 112.812 96.7757 113.167 96.9944C113.532 97.2041 113.974 97.3089 114.493 97.3089C115.013 97.3089 115.45 97.2041 115.806 96.9944C116.161 96.7757 116.448 96.4749 116.667 96.0921C116.886 95.7093 117.041 95.2627 117.132 94.7522C117.232 94.2418 117.282 93.695 117.282 93.1116V92.8245C117.282 92.2503 117.232 91.7125 117.132 91.2112C117.041 90.7008 116.886 90.2496 116.667 89.8577C116.448 89.4658 116.157 89.1604 115.792 88.9417C115.437 88.7229 114.995 88.6136 114.466 88.6136C113.955 88.6136 113.522 88.7229 113.167 88.9417C112.812 89.1604 112.524 89.4658 112.306 89.8577C112.087 90.2496 111.927 90.7008 111.827 91.2112C111.736 91.7125 111.69 92.2503 111.69 92.8245ZM128.267 88.7229V100.358H123.988V85.5647H128.008L128.267 88.7229ZM127.707 92.4417L126.64 92.469C126.64 91.3571 126.777 90.359 127.051 89.4749C127.324 88.5908 127.711 87.8388 128.213 87.219C128.723 86.5901 129.329 86.1116 130.031 85.7835C130.742 85.4554 131.526 85.2913 132.383 85.2913C133.075 85.2913 133.709 85.3916 134.283 85.5921C134.857 85.7926 135.349 86.1162 135.76 86.5628C136.179 87.0003 136.498 87.5836 136.717 88.3128C136.935 89.0328 137.045 89.9215 137.045 90.9788V100.358H132.752V90.9651C132.752 90.3453 132.665 89.8668 132.492 89.5296C132.319 89.1923 132.064 88.9554 131.726 88.8186C131.398 88.6819 130.997 88.6136 130.523 88.6136C130.022 88.6136 129.594 88.7138 129.238 88.9144C128.883 89.1058 128.591 89.3746 128.363 89.721C128.135 90.0673 127.967 90.4729 127.857 90.9378C127.757 91.4026 127.707 91.9039 127.707 92.4417ZM155.2 96.8304V90.4866C155.2 90.04 155.132 89.6572 154.995 89.3382C154.859 89.0192 154.644 88.7685 154.353 88.5862C154.061 88.4039 153.683 88.3128 153.218 88.3128C152.826 88.3128 152.484 88.3811 152.193 88.5179C151.91 88.6546 151.691 88.8506 151.536 89.1058C151.39 89.361 151.318 89.6754 151.318 90.0491H147.052C147.052 89.3838 147.202 88.764 147.503 88.1897C147.804 87.6155 148.232 87.1097 148.788 86.6722C149.353 86.2347 150.028 85.8974 150.812 85.6604C151.596 85.4144 152.475 85.2913 153.45 85.2913C154.608 85.2913 155.638 85.4873 156.54 85.8792C157.452 86.262 158.172 86.8408 158.7 87.6155C159.229 88.3811 159.493 89.3473 159.493 90.514V96.7073C159.493 97.6006 159.543 98.3024 159.644 98.8128C159.753 99.3141 159.908 99.7516 160.109 100.125V100.358H155.802C155.601 99.9293 155.451 99.4007 155.351 98.7718C155.251 98.1338 155.2 97.4866 155.2 96.8304ZM155.734 91.3343L155.761 93.6858H153.642C153.168 93.6858 152.758 93.7451 152.411 93.8636C152.074 93.9821 151.801 94.1461 151.591 94.3558C151.381 94.5563 151.226 94.7933 151.126 95.0667C151.035 95.331 150.989 95.6227 150.989 95.9417C150.989 96.2425 151.062 96.5159 151.208 96.762C151.354 96.999 151.555 97.1858 151.81 97.3226C152.065 97.4593 152.361 97.5276 152.698 97.5276C153.254 97.5276 153.728 97.4183 154.12 97.1995C154.521 96.9808 154.831 96.7164 155.05 96.4065C155.269 96.0875 155.378 95.7913 155.378 95.5179L156.404 97.2952C156.239 97.6598 156.039 98.0381 155.802 98.43C155.565 98.8128 155.264 99.1728 154.9 99.5101C154.535 99.8382 154.093 100.107 153.573 100.317C153.063 100.526 152.448 100.631 151.728 100.631C150.798 100.631 149.955 100.444 149.198 100.071C148.442 99.6878 147.836 99.1637 147.38 98.4983C146.933 97.833 146.71 97.0673 146.71 96.2015C146.71 95.4267 146.851 94.7386 147.134 94.137C147.417 93.5354 147.84 93.025 148.405 92.6058C148.98 92.1865 149.7 91.872 150.566 91.6624C151.432 91.4436 152.443 91.3343 153.601 91.3343H155.734ZM166.76 88.7229V100.358H162.48V85.5647H166.5L166.76 88.7229ZM166.199 92.4417L165.133 92.469C165.133 91.3571 165.269 90.359 165.543 89.4749C165.816 88.5908 166.204 87.8388 166.705 87.219C167.215 86.5901 167.822 86.1116 168.523 85.7835C169.234 85.4554 170.018 85.2913 170.875 85.2913C171.568 85.2913 172.201 85.3916 172.775 85.5921C173.35 85.7926 173.842 86.1162 174.252 86.5628C174.671 87.0003 174.99 87.5836 175.209 88.3128C175.428 89.0328 175.537 89.9215 175.537 90.9788V100.358H171.244V90.9651C171.244 90.3453 171.157 89.8668 170.984 89.5296C170.811 89.1923 170.556 88.9554 170.219 88.8186C169.891 88.6819 169.49 88.6136 169.016 88.6136C168.514 88.6136 168.086 88.7138 167.73 88.9144C167.375 89.1058 167.083 89.3746 166.855 89.721C166.628 90.0673 166.459 90.4729 166.35 90.9378C166.249 91.4026 166.199 91.9039 166.199 92.4417ZM187.219 97.0491V79.3577H191.512V100.358H187.657L187.219 97.0491ZM178.005 93.139V92.8519C178.005 91.7308 178.128 90.7099 178.374 89.7894C178.629 88.8597 178.998 88.0621 179.481 87.3968C179.973 86.7223 180.579 86.2028 181.299 85.8382C182.02 85.4736 182.844 85.2913 183.774 85.2913C184.631 85.2913 185.378 85.4827 186.016 85.8655C186.654 86.2392 187.197 86.7679 187.643 87.4515C188.099 88.1259 188.468 88.9235 188.751 89.844C189.033 90.7555 189.247 91.7444 189.393 92.8108V93.303C189.256 94.3239 189.042 95.2763 188.751 96.1604C188.468 97.0446 188.099 97.8239 187.643 98.4983C187.197 99.1637 186.65 99.6878 186.003 100.071C185.365 100.444 184.613 100.631 183.747 100.631C182.817 100.631 181.992 100.444 181.272 100.071C180.561 99.6969 179.964 99.1728 179.481 98.4983C178.998 97.8239 178.629 97.0309 178.374 96.1194C178.128 95.208 178.005 94.2145 178.005 93.139ZM182.27 92.8519V93.139C182.27 93.7223 182.311 94.2646 182.393 94.7659C182.484 95.2672 182.63 95.7093 182.831 96.0921C183.031 96.4749 183.296 96.7757 183.624 96.9944C183.952 97.2041 184.353 97.3089 184.827 97.3089C185.465 97.3089 185.989 97.1631 186.399 96.8714C186.809 96.5706 187.119 96.1559 187.329 95.6272C187.538 95.0986 187.648 94.4834 187.657 93.7815V92.346C187.657 91.7627 187.598 91.2386 187.479 90.7737C187.361 90.3089 187.183 89.917 186.946 89.5979C186.718 89.2789 186.431 89.0374 186.085 88.8733C185.738 88.7002 185.328 88.6136 184.854 88.6136C184.389 88.6136 183.993 88.7229 183.665 88.9417C183.337 89.1513 183.068 89.4476 182.858 89.8304C182.658 90.2132 182.507 90.6644 182.407 91.1839C182.316 91.6943 182.27 92.2503 182.27 92.8519ZM213.551 93.6858H217.981C217.908 95.053 217.534 96.2607 216.859 97.3089C216.194 98.3479 215.269 99.1637 214.084 99.7561C212.899 100.339 211.491 100.631 209.859 100.631C208.556 100.631 207.389 100.408 206.359 99.9612C205.33 99.5146 204.455 98.8766 203.734 98.0472C203.024 97.2086 202.477 96.2015 202.094 95.0257C201.72 93.8408 201.533 92.5055 201.533 91.0198V89.803C201.533 88.3173 201.729 86.9821 202.121 85.7972C202.513 84.6123 203.074 83.6006 203.803 82.762C204.532 81.9235 205.407 81.2809 206.428 80.8343C207.449 80.3877 208.588 80.1644 209.846 80.1644C211.541 80.1644 212.972 80.4697 214.139 81.0804C215.305 81.691 216.208 82.5296 216.846 83.596C217.493 84.6624 217.88 85.8792 218.008 87.2464H213.565C213.528 86.4716 213.382 85.82 213.127 85.2913C212.872 84.7535 212.48 84.3479 211.951 84.0745C211.423 83.8011 210.721 83.6644 209.846 83.6644C209.208 83.6644 208.647 83.7828 208.164 84.0198C207.69 84.2568 207.294 84.6259 206.975 85.1272C206.665 85.6285 206.432 86.2666 206.277 87.0413C206.122 87.8069 206.045 88.7184 206.045 89.7757V91.0198C206.045 92.068 206.113 92.9749 206.25 93.7405C206.387 94.5061 206.606 95.1396 206.906 95.6409C207.216 96.1422 207.613 96.5159 208.096 96.762C208.579 97.0081 209.167 97.1311 209.859 97.1311C210.652 97.1311 211.313 97.0081 211.842 96.762C212.371 96.5068 212.776 96.124 213.059 95.6136C213.341 95.1032 213.505 94.4606 213.551 93.6858ZM219.901 93.1116V92.8245C219.901 91.7399 220.056 90.7418 220.366 89.8304C220.676 88.9098 221.132 88.1123 221.733 87.4378C222.335 86.7633 223.073 86.2392 223.948 85.8655C224.823 85.4827 225.826 85.2913 226.956 85.2913C228.104 85.2913 229.116 85.4827 229.991 85.8655C230.875 86.2392 231.618 86.7633 232.22 87.4378C232.821 88.1123 233.277 88.9098 233.587 89.8304C233.897 90.7418 234.052 91.7399 234.052 92.8245V93.1116C234.052 94.1871 233.897 95.1852 233.587 96.1058C233.277 97.0172 232.821 97.8147 232.22 98.4983C231.618 99.1728 230.88 99.6969 230.005 100.071C229.13 100.444 228.123 100.631 226.983 100.631C225.853 100.631 224.846 100.444 223.962 100.071C223.078 99.6969 222.335 99.1728 221.733 98.4983C221.132 97.8147 220.676 97.0172 220.366 96.1058C220.056 95.1852 219.901 94.1871 219.901 93.1116ZM224.18 92.8245V93.1116C224.18 93.695 224.226 94.2418 224.317 94.7522C224.417 95.2627 224.577 95.7093 224.796 96.0921C225.014 96.4749 225.302 96.7757 225.657 96.9944C226.022 97.2041 226.464 97.3089 226.983 97.3089C227.503 97.3089 227.94 97.2041 228.296 96.9944C228.651 96.7757 228.938 96.4749 229.157 96.0921C229.376 95.7093 229.531 95.2627 229.622 94.7522C229.722 94.2418 229.772 93.695 229.772 93.1116V92.8245C229.772 92.2503 229.722 91.7125 229.622 91.2112C229.531 90.7008 229.376 90.2496 229.157 89.8577C228.938 89.4658 228.647 89.1604 228.282 88.9417C227.927 88.7229 227.485 88.6136 226.956 88.6136C226.445 88.6136 226.012 88.7229 225.657 88.9417C225.302 89.1604 225.014 89.4658 224.796 89.8577C224.577 90.2496 224.417 90.7008 224.317 91.2112C224.226 91.7125 224.18 92.2503 224.18 92.8245ZM240.757 88.7229V100.358H236.478V85.5647H240.498L240.757 88.7229ZM240.197 92.4417L239.13 92.469C239.13 91.3571 239.267 90.359 239.541 89.4749C239.814 88.5908 240.201 87.8388 240.703 87.219C241.213 86.5901 241.819 86.1116 242.521 85.7835C243.232 85.4554 244.016 85.2913 244.873 85.2913C245.565 85.2913 246.199 85.3916 246.773 85.5921C247.347 85.7926 247.839 86.1162 248.25 86.5628C248.669 87.0003 248.988 87.5836 249.207 88.3128C249.425 89.0328 249.535 89.9215 249.535 90.9788V100.358H245.242V90.9651C245.242 90.3453 245.155 89.8668 244.982 89.5296C244.809 89.1923 244.554 88.9554 244.216 88.8186C243.888 88.6819 243.487 88.6136 243.013 88.6136C242.512 88.6136 242.084 88.7138 241.728 88.9144C241.373 89.1058 241.081 89.3746 240.853 89.721C240.625 90.0673 240.457 90.4729 240.347 90.9378C240.247 91.4026 240.197 91.9039 240.197 92.4417ZM257.922 100.358H253.629V84.3069C253.629 83.1676 253.852 82.2106 254.299 81.4358C254.755 80.6611 255.397 80.0732 256.227 79.6722C257.056 79.2711 258.036 79.0706 259.166 79.0706C259.558 79.0706 259.923 79.0979 260.26 79.1526C260.606 79.1982 260.944 79.262 261.272 79.344V82.5296C261.099 82.484 260.921 82.4521 260.739 82.4339C260.556 82.4157 260.337 82.4065 260.082 82.4065C259.627 82.4065 259.235 82.4795 258.906 82.6253C258.587 82.762 258.341 82.9762 258.168 83.2679C258.004 83.5504 257.922 83.8968 257.922 84.3069V100.358ZM260.848 85.5647V88.5589H251.469V85.5647H260.848ZM269.618 100.631C268.442 100.631 267.39 100.444 266.46 100.071C265.53 99.6969 264.742 99.1819 264.095 98.5257C263.457 97.8603 262.969 97.0947 262.632 96.2288C262.295 95.3629 262.126 94.4378 262.126 93.4534V92.9339C262.126 91.831 262.281 90.8147 262.591 89.8851C262.901 88.9554 263.352 88.1487 263.944 87.4651C264.546 86.7724 265.284 86.2392 266.159 85.8655C267.034 85.4827 268.032 85.2913 269.153 85.2913C270.201 85.2913 271.136 85.4645 271.956 85.8108C272.776 86.1481 273.469 86.6357 274.034 87.2737C274.599 87.9026 275.028 88.6637 275.319 89.5569C275.62 90.441 275.77 91.4345 275.77 92.5374V94.2874H263.849V91.5394H271.587V91.2112C271.587 90.6917 271.491 90.236 271.3 89.844C271.117 89.4521 270.844 89.1513 270.479 88.9417C270.124 88.7229 269.673 88.6136 269.126 88.6136C268.606 88.6136 268.173 88.7229 267.827 88.9417C267.481 89.1604 267.203 89.4703 266.993 89.8714C266.793 90.2633 266.647 90.7236 266.556 91.2522C266.464 91.7718 266.419 92.3323 266.419 92.9339V93.4534C266.419 94.0276 266.496 94.5517 266.651 95.0257C266.806 95.4996 267.034 95.9052 267.335 96.2425C267.636 96.5797 268 96.844 268.429 97.0354C268.857 97.2269 269.345 97.3226 269.892 97.3226C270.566 97.3226 271.209 97.195 271.819 96.9397C272.43 96.6754 272.959 96.2653 273.405 95.7093L275.401 97.9925C275.101 98.43 274.677 98.8538 274.13 99.264C273.592 99.665 272.945 99.9931 272.188 100.248C271.432 100.504 270.575 100.631 269.618 100.631ZM282.408 89.0101V100.358H278.142V85.5647H282.148L282.408 89.0101ZM286.824 85.4554L286.756 89.4339C286.573 89.4065 286.336 89.3838 286.045 89.3655C285.753 89.3382 285.502 89.3245 285.293 89.3245C284.746 89.3245 284.272 89.3929 283.871 89.5296C283.479 89.6572 283.151 89.8486 282.886 90.1038C282.631 90.359 282.44 90.678 282.312 91.0608C282.185 91.4345 282.121 91.8675 282.121 92.3597L281.314 91.9632C281.314 90.9879 281.41 90.0947 281.601 89.2835C281.793 88.4723 282.071 87.7705 282.435 87.178C282.8 86.5765 283.246 86.1116 283.775 85.7835C284.304 85.4554 284.905 85.2913 285.58 85.2913C285.799 85.2913 286.022 85.305 286.25 85.3323C286.478 85.3597 286.669 85.4007 286.824 85.4554ZM295.553 100.631C294.377 100.631 293.325 100.444 292.395 100.071C291.465 99.6969 290.677 99.1819 290.03 98.5257C289.392 97.8603 288.904 97.0947 288.567 96.2288C288.23 95.3629 288.061 94.4378 288.061 93.4534V92.9339C288.061 91.831 288.216 90.8147 288.526 89.8851C288.836 88.9554 289.287 88.1487 289.879 87.4651C290.481 86.7724 291.219 86.2392 292.094 85.8655C292.969 85.4827 293.967 85.2913 295.088 85.2913C296.136 85.2913 297.071 85.4645 297.891 85.8108C298.711 86.1481 299.404 86.6357 299.969 87.2737C300.534 87.9026 300.963 88.6637 301.254 89.5569C301.555 90.441 301.705 91.4345 301.705 92.5374V94.2874H289.784V91.5394H297.522V91.2112C297.522 90.6917 297.426 90.236 297.235 89.844C297.052 89.4521 296.779 89.1513 296.414 88.9417C296.059 88.7229 295.608 88.6136 295.061 88.6136C294.541 88.6136 294.108 88.7229 293.762 88.9417C293.416 89.1604 293.138 89.4703 292.928 89.8714C292.728 90.2633 292.582 90.7236 292.491 91.2522C292.399 91.7718 292.354 92.3323 292.354 92.9339V93.4534C292.354 94.0276 292.431 94.5517 292.586 95.0257C292.741 95.4996 292.969 95.9052 293.27 96.2425C293.571 96.5797 293.935 96.844 294.364 97.0354C294.792 97.2269 295.28 97.3226 295.827 97.3226C296.501 97.3226 297.144 97.195 297.754 96.9397C298.365 96.6754 298.894 96.2653 299.34 95.7093L301.336 97.9925C301.036 98.43 300.612 98.8538 300.065 99.264C299.527 99.665 298.88 99.9931 298.123 100.248C297.367 100.504 296.51 100.631 295.553 100.631ZM308.247 88.7229V100.358H303.968V85.5647H307.987L308.247 88.7229ZM307.687 92.4417L306.62 92.469C306.62 91.3571 306.757 90.359 307.03 89.4749C307.304 88.5908 307.691 87.8388 308.193 87.219C308.703 86.5901 309.309 86.1116 310.011 85.7835C310.722 85.4554 311.506 85.2913 312.362 85.2913C313.055 85.2913 313.689 85.3916 314.263 85.5921C314.837 85.7926 315.329 86.1162 315.739 86.5628C316.159 87.0003 316.478 87.5836 316.696 88.3128C316.915 89.0328 317.025 89.9215 317.025 90.9788V100.358H312.732V90.9651C312.732 90.3453 312.645 89.8668 312.472 89.5296C312.299 89.1923 312.043 88.9554 311.706 88.8186C311.378 88.6819 310.977 88.6136 310.503 88.6136C310.002 88.6136 309.573 88.7138 309.218 88.9144C308.862 89.1058 308.571 89.3746 308.343 89.721C308.115 90.0673 307.946 90.4729 307.837 90.9378C307.737 91.4026 307.687 91.9039 307.687 92.4417ZM326.273 97.3089C326.729 97.3089 327.125 97.2223 327.463 97.0491C327.8 96.8759 328.06 96.6344 328.242 96.3245C328.433 96.0055 328.529 95.6227 328.529 95.1761H332.549C332.549 96.2516 332.271 97.1995 331.715 98.0198C331.168 98.8401 330.43 99.4827 329.5 99.9476C328.57 100.403 327.522 100.631 326.355 100.631C325.207 100.631 324.204 100.444 323.348 100.071C322.491 99.6878 321.775 99.1546 321.201 98.471C320.627 97.7874 320.194 96.9944 319.902 96.0921C319.62 95.1806 319.478 94.1963 319.478 93.139V92.7835C319.478 91.7353 319.62 90.7555 319.902 89.844C320.194 88.9326 320.627 88.1351 321.201 87.4515C321.775 86.7679 322.486 86.2392 323.334 85.8655C324.191 85.4827 325.193 85.2913 326.342 85.2913C327.554 85.2913 328.625 85.5237 329.555 85.9886C330.493 86.4534 331.227 87.1233 331.756 87.9983C332.284 88.8642 332.549 89.9078 332.549 91.1292H328.529C328.529 90.6552 328.443 90.2314 328.269 89.8577C328.105 89.4749 327.85 89.1741 327.504 88.9554C327.167 88.7275 326.747 88.6136 326.246 88.6136C325.726 88.6136 325.298 88.7275 324.961 88.9554C324.633 89.1741 324.382 89.4795 324.209 89.8714C324.036 90.2633 323.917 90.7099 323.853 91.2112C323.79 91.7034 323.758 92.2275 323.758 92.7835V93.139C323.758 93.7041 323.79 94.2418 323.853 94.7522C323.917 95.2535 324.036 95.6956 324.209 96.0784C324.391 96.4612 324.646 96.762 324.974 96.9808C325.303 97.1995 325.736 97.3089 326.273 97.3089ZM341.92 100.631C340.745 100.631 339.692 100.444 338.762 100.071C337.833 99.6969 337.044 99.1819 336.397 98.5257C335.759 97.8603 335.271 97.0947 334.934 96.2288C334.597 95.3629 334.428 94.4378 334.428 93.4534V92.9339C334.428 91.831 334.583 90.8147 334.893 89.8851C335.203 88.9554 335.654 88.1487 336.247 87.4651C336.848 86.7724 337.586 86.2392 338.461 85.8655C339.336 85.4827 340.335 85.2913 341.456 85.2913C342.504 85.2913 343.438 85.4645 344.258 85.8108C345.079 86.1481 345.771 86.6357 346.336 87.2737C346.902 87.9026 347.33 88.6637 347.622 89.5569C347.922 90.441 348.073 91.4345 348.073 92.5374V94.2874H336.151V91.5394H343.889V91.2112C343.889 90.6917 343.794 90.236 343.602 89.844C343.42 89.4521 343.146 89.1513 342.782 88.9417C342.426 88.7229 341.975 88.6136 341.428 88.6136C340.909 88.6136 340.476 88.7229 340.129 88.9417C339.783 89.1604 339.505 89.4703 339.295 89.8714C339.095 90.2633 338.949 90.7236 338.858 91.2522C338.767 91.7718 338.721 92.3323 338.721 92.9339V93.4534C338.721 94.0276 338.799 94.5517 338.954 95.0257C339.109 95.4996 339.336 95.9052 339.637 96.2425C339.938 96.5797 340.303 96.844 340.731 97.0354C341.159 97.2269 341.647 97.3226 342.194 97.3226C342.868 97.3226 343.511 97.195 344.122 96.9397C344.732 96.6754 345.261 96.2653 345.708 95.7093L347.704 97.9925C347.403 98.43 346.979 98.8538 346.432 99.264C345.894 99.665 345.247 99.9931 344.491 100.248C343.734 100.504 342.878 100.631 341.92 100.631Z" fill="#0E2C5E"/>
<defs>
<clipPath id="clip0_4165_1248">
<rect width="350" height="64.3577" fill="white"/>
</clipPath>
</defs>
</svg>
