<svg width="454" height="132" viewBox="0 0 454 132" fill="none" xmlns="http://www.w3.org/2000/svg">
<path d="M2.1 34.2431V30.0851C3.892 28.6571 5.628 27.2291 7.308 25.8011C9.016 24.3731 10.542 22.9591 11.886 21.5591C13.23 20.1311 14.294 18.7451 15.078 17.4011C15.862 16.0571 16.254 14.7551 16.254 13.4951C16.254 12.7111 16.114 11.9971 15.834 11.3531C15.554 10.6811 15.106 10.1491 14.49 9.75713C13.902 9.33713 13.118 9.12713 12.138 9.12713C11.158 9.12713 10.332 9.35113 9.66 9.79913C8.988 10.2471 8.484 10.8491 8.148 11.6051C7.812 12.3331 7.644 13.1591 7.644 14.0831H2.142C2.226 11.9271 2.716 10.1211 3.612 8.66513C4.508 7.20913 5.712 6.13113 7.224 5.43113C8.736 4.70313 10.43 4.33913 12.306 4.33913C14.378 4.33913 16.128 4.73113 17.556 5.51513C18.984 6.27113 20.062 7.30713 20.79 8.62313C21.546 9.93913 21.924 11.4511 21.924 13.1591C21.924 14.4471 21.686 15.7071 21.21 16.9391C20.762 18.1711 20.118 19.3751 19.278 20.5511C18.466 21.6991 17.542 22.8051 16.506 23.8691C15.47 24.9331 14.392 25.9551 13.272 26.9351C12.152 27.8871 11.06 28.7831 9.996 29.6231H22.638V34.2431H2.1ZM27.0122 34.2431V13.0751H32.0102L32.4302 16.5191C33.0742 15.3431 33.9842 14.3911 35.1602 13.6631C36.3642 12.9351 37.7922 12.5711 39.4442 12.5711C41.2082 12.5711 42.6922 12.9351 43.8962 13.6631C45.1002 14.3911 46.0102 15.4551 46.6262 16.8551C47.2702 18.2551 47.5922 19.9771 47.5922 22.0211V34.2431H41.9642V22.5671C41.9642 20.8871 41.6002 19.5991 40.8722 18.7031C40.1722 17.8071 39.0802 17.3591 37.5962 17.3591C36.6442 17.3591 35.7902 17.5831 35.0342 18.0311C34.3062 18.4791 33.7322 19.1231 33.3122 19.9631C32.8922 20.7751 32.6822 21.7691 32.6822 22.9451V34.2431H27.0122ZM62.3421 34.7471C60.4101 34.7471 58.6741 34.2711 57.1341 33.3191C55.6221 32.3671 54.4321 31.0511 53.5641 29.3711C52.6961 27.6911 52.2621 25.8011 52.2621 23.7011C52.2621 21.5451 52.6961 19.6411 53.5641 17.9891C54.4601 16.3091 55.6781 14.9931 57.2181 14.0411C58.7861 13.0611 60.5361 12.5711 62.4681 12.5711C63.9801 12.5711 65.3101 12.8511 66.4581 13.4111C67.6061 13.9711 68.5301 14.7691 69.2301 15.8051V4.00313H74.9001V34.2431H69.8601L69.2301 31.3451C68.8101 31.9331 68.2781 32.4931 67.6341 33.0251C67.0181 33.5571 66.2761 33.9771 65.4081 34.2851C64.5401 34.5931 63.5181 34.7471 62.3421 34.7471ZM63.6861 29.7911C64.8061 29.7911 65.7861 29.5391 66.6261 29.0351C67.4941 28.5031 68.1661 27.7751 68.6421 26.8511C69.1181 25.9271 69.3561 24.8631 69.3561 23.6591C69.3561 22.4551 69.1181 21.3911 68.6421 20.4671C68.1661 19.5431 67.4941 18.8291 66.6261 18.3251C65.7861 17.7931 64.8061 17.5271 63.6861 17.5271C62.6221 17.5271 61.6561 17.7931 60.7881 18.3251C59.9201 18.8291 59.2341 19.5431 58.7301 20.4671C58.2541 21.3911 58.0161 22.4411 58.0161 23.6171C58.0161 24.8491 58.2541 25.9271 58.7301 26.8511C59.2341 27.7751 59.9061 28.5031 60.7461 29.0351C61.6141 29.5391 62.5941 29.7911 63.6861 29.7911ZM90.4664 34.2431V4.84313H109.786V9.42113H96.1364V17.1071H108.526V21.5171H96.1364V29.6651H109.786V34.2431H90.4664ZM124.235 34.7471C122.303 34.7471 120.567 34.2711 119.027 33.3191C117.515 32.3671 116.325 31.0511 115.457 29.3711C114.589 27.6911 114.155 25.8011 114.155 23.7011C114.155 21.5451 114.589 19.6411 115.457 17.9891C116.353 16.3091 117.571 14.9931 119.111 14.0411C120.679 13.0611 122.429 12.5711 124.361 12.5711C125.873 12.5711 127.203 12.8511 128.351 13.4111C129.499 13.9711 130.423 14.7691 131.123 15.8051V4.00313H136.793V34.2431H131.753L131.123 31.3451C130.703 31.9331 130.171 32.4931 129.527 33.0251C128.911 33.5571 128.169 33.9771 127.301 34.2851C126.433 34.5931 125.411 34.7471 124.235 34.7471ZM125.579 29.7911C126.699 29.7911 127.679 29.5391 128.519 29.0351C129.387 28.5031 130.059 27.7751 130.535 26.8511C131.011 25.9271 131.249 24.8631 131.249 23.6591C131.249 22.4551 131.011 21.3911 130.535 20.4671C130.059 19.5431 129.387 18.8291 128.519 18.3251C127.679 17.7931 126.699 17.5271 125.579 17.5271C124.515 17.5271 123.549 17.7931 122.681 18.3251C121.813 18.8291 121.127 19.5431 120.623 20.4671C120.147 21.3911 119.909 22.4411 119.909 23.6171C119.909 24.8491 120.147 25.9271 120.623 26.8511C121.127 27.7751 121.799 28.5031 122.639 29.0351C123.507 29.5391 124.487 29.7911 125.579 29.7911ZM142.474 34.2431V13.0751H148.144V34.2431H142.474ZM145.33 10.1771C144.322 10.1771 143.482 9.88313 142.81 9.29513C142.166 8.67913 141.844 7.90913 141.844 6.98513C141.844 6.06113 142.166 5.30513 142.81 4.71713C143.482 4.10113 144.322 3.79313 145.33 3.79313C146.366 3.79313 147.206 4.10113 147.85 4.71713C148.522 5.30513 148.858 6.06113 148.858 6.98513C148.858 7.90913 148.522 8.67913 147.85 9.29513C147.206 9.88313 146.366 10.1771 145.33 10.1771ZM163.408 34.2431C161.924 34.2431 160.622 34.0191 159.502 33.5711C158.41 33.0951 157.556 32.3251 156.94 31.2611C156.324 30.1691 156.016 28.6851 156.016 26.8091V17.8211H152.404V13.0751H156.016L156.646 7.32113H161.686V13.0751H167.272V17.8211H161.686V26.8931C161.686 27.8451 161.896 28.5031 162.316 28.8671C162.736 29.2311 163.45 29.4131 164.458 29.4131H167.23V34.2431H163.408ZM172.169 34.2431V13.0751H177.839V34.2431H172.169ZM175.025 10.1771C174.017 10.1771 173.177 9.88313 172.505 9.29513C171.861 8.67913 171.539 7.90913 171.539 6.98513C171.539 6.06113 171.861 5.30513 172.505 4.71713C173.177 4.10113 174.017 3.79313 175.025 3.79313C176.061 3.79313 176.901 4.10113 177.545 4.71713C178.217 5.30513 178.553 6.06113 178.553 6.98513C178.553 7.90913 178.217 8.67913 177.545 9.29513C176.901 9.88313 176.061 10.1771 175.025 10.1771ZM193.565 34.7471C191.549 34.7471 189.729 34.2851 188.105 33.3611C186.509 32.4091 185.235 31.1071 184.283 29.4551C183.359 27.7751 182.897 25.8571 182.897 23.7011C182.897 21.4891 183.359 19.5571 184.283 17.9051C185.235 16.2251 186.523 14.9231 188.147 13.9991C189.771 13.0471 191.591 12.5711 193.607 12.5711C195.651 12.5711 197.471 13.0471 199.067 13.9991C200.691 14.9231 201.965 16.2251 202.889 17.9051C203.841 19.5571 204.317 21.4751 204.317 23.6591C204.317 25.8431 203.841 27.7751 202.889 29.4551C201.965 31.1071 200.691 32.4091 199.067 33.3611C197.443 34.2851 195.609 34.7471 193.565 34.7471ZM193.565 29.8331C194.517 29.8331 195.357 29.6091 196.085 29.1611C196.841 28.7131 197.429 28.0271 197.849 27.1031C198.297 26.1791 198.521 25.0311 198.521 23.6591C198.521 22.2871 198.297 21.1531 197.849 20.2571C197.429 19.3331 196.841 18.6471 196.085 18.1991C195.357 17.7231 194.531 17.4851 193.607 17.4851C192.711 17.4851 191.885 17.7231 191.129 18.1991C190.373 18.6471 189.771 19.3331 189.323 20.2571C188.903 21.1531 188.693 22.2871 188.693 23.6591C188.693 25.0311 188.903 26.1791 189.323 27.1031C189.771 28.0271 190.359 28.7131 191.087 29.1611C191.843 29.6091 192.669 29.8331 193.565 29.8331ZM209.204 34.2431V13.0751H214.202L214.622 16.5191C215.266 15.3431 216.176 14.3911 217.352 13.6631C218.556 12.9351 219.984 12.5711 221.636 12.5711C223.4 12.5711 224.884 12.9351 226.088 13.6631C227.292 14.3911 228.202 15.4551 228.818 16.8551C229.462 18.2551 229.784 19.9771 229.784 22.0211V34.2431H224.156V22.5671C224.156 20.8871 223.792 19.5991 223.064 18.7031C222.364 17.8071 221.272 17.3591 219.788 17.3591C218.836 17.3591 217.982 17.5831 217.226 18.0311C216.498 18.4791 215.924 19.1231 215.504 19.9631C215.084 20.7751 214.874 21.7691 214.874 22.9451V34.2431H209.204Z" fill="#84CCF5"/>
<g clip-path="url(#clip0_2_529)">
<path d="M312.095 130.619C306.387 130.619 304.741 128.973 304.079 123.812L295.627 52.3104C295.299 49.1244 296.504 48.2472 299.689 48.2472H307.705C310.89 48.2472 311.547 49.1244 311.767 52.3104L316.599 108.657C316.706 109.975 317.147 110.304 318.137 110.304C319.127 110.304 319.563 109.975 319.676 108.657L324.507 52.3104C324.728 49.1244 325.384 48.2472 328.569 48.2472H336.585C339.77 48.2472 340.975 49.1244 340.647 52.3104L332.19 123.812C331.533 128.973 329.882 130.619 324.173 130.619H312.095Z" fill="#F9FFF2"/>
<path d="M358.761 126.558C358.761 129.744 357.885 130.621 354.7 130.621H347.673C344.488 130.621 343.612 129.744 343.612 126.558V52.3063C343.612 49.1203 344.488 48.2431 347.673 48.2431H354.7C357.885 48.2431 358.761 49.1203 358.761 52.3063V126.558Z" fill="#F9FFF2"/>
<path d="M405.705 74.6026V104.256C405.705 122.93 401.422 130.615 380.338 130.615H366.942C363.757 130.615 362.88 129.738 362.88 126.552V52.3063C362.88 49.1203 363.757 48.2431 366.942 48.2431H380.338C401.422 48.2431 405.705 55.9337 405.705 74.6026ZM378.035 65.5992V113.27C378.035 114.696 378.477 115.245 380.01 115.245H381.215C387.364 115.245 390.108 112.388 390.108 105.252V73.618C390.108 66.4764 387.364 63.6242 381.215 63.6242H380.01C378.471 63.6242 378.035 64.0656 378.035 65.5992Z" fill="#F9FFF2"/>
<path d="M437.204 48.2431C442.143 48.2431 443.681 49.8899 444.23 53.953L453.893 126.552C454.334 129.738 453.451 130.615 450.272 130.615H442.697C439.405 130.615 438.635 129.846 438.194 126.552L436.768 114.578C436.661 113.48 436.327 113.152 435.009 113.152H425.567C424.249 113.152 423.921 113.48 423.808 114.578L422.382 126.552C421.941 129.846 421.177 130.615 417.879 130.615H410.304C407.119 130.615 406.242 129.738 406.683 126.552L416.346 53.953C416.895 49.8899 418.433 48.2431 423.372 48.2431H437.21H437.204ZM430.291 69.1134C429.086 69.1134 428.424 69.3341 428.316 70.6527L425.793 96.2426C425.686 97.5611 426.014 97.8893 427.44 97.8893H433.148C434.573 97.8893 434.907 97.5611 434.794 96.2426L432.271 70.6527C432.163 69.3341 431.501 69.1134 430.296 69.1134H430.291Z" fill="#F9FFF2"/>
<path d="M70.2451 102.394C68.7064 102.394 68.2708 102.835 68.2708 104.369V126.558C68.2708 129.744 67.3939 130.621 64.2089 130.621H57.1827C53.9977 130.621 53.1208 129.744 53.1208 126.558V52.3119C53.1208 49.1259 53.9977 48.2431 57.1827 48.2431H71.6764C88.3651 48.2431 95.94 54.2869 95.94 69.1134V81.5235C95.94 96.35 88.3651 102.394 71.6764 102.394H70.2508H70.2451ZM68.2708 85.0434C68.2708 86.5826 68.712 87.0184 70.2451 87.0184H72.5533C77.9332 87.0184 80.3488 84.8227 80.3488 79.2203V71.4223C80.3488 65.8199 77.9332 63.6242 72.5533 63.6242H70.2451C68.7064 63.6242 68.2708 64.0656 68.2708 65.5992V85.0377V85.0434Z" fill="#F9FFF2"/>
<path d="M129.651 48.2431H136.677C139.862 48.2431 140.739 49.1203 140.739 52.3063V107.555C140.739 125.239 135.467 131.719 119.548 131.719C103.628 131.719 98.3557 125.239 98.3557 107.555V52.3119C98.3557 49.1259 99.2326 48.2431 102.418 48.2431H109.444C112.629 48.2431 113.506 49.1203 113.506 52.3063V110.192C113.506 114.583 115.372 116.343 119.542 116.343C123.711 116.343 125.584 114.583 125.584 110.192V52.3119C125.589 49.1259 126.466 48.2431 129.651 48.2431Z" fill="#F9FFF2"/>
<path d="M164.658 100.86C164.109 99.321 163.668 98.8852 162.021 98.8852H161.58C160.041 98.8852 159.606 99.3266 159.606 100.86V126.563C159.606 129.749 158.729 130.626 155.544 130.626H148.518C145.333 130.626 144.456 129.749 144.456 126.563V52.3119C144.456 49.1259 145.333 48.2488 148.518 48.2488H163.011C179.7 48.2488 187.275 53.9587 187.275 68.0212V75.9268C187.275 86.2488 185.629 90.2044 179.808 95.1503C179.146 95.5917 179.038 95.8068 179.038 96.3557C179.038 96.6839 179.146 97.0178 179.366 97.7817L189.029 126.45C190.019 129.308 188.921 130.626 186.064 130.626H178.048C174.976 130.626 174.314 130.185 173.438 127.554L164.652 100.866L164.658 100.86ZM159.606 81.9649C159.606 83.5042 160.047 83.9399 161.58 83.9399H163.888C169.048 83.9399 171.684 81.631 171.684 76.3625V70.3244C171.684 65.1635 169.268 63.0753 163.888 63.0753H161.58C160.041 63.0753 159.606 63.5167 159.606 65.0503V81.9649Z" fill="#F9FFF2"/>
<path d="M222.214 48.2431C227.153 48.2431 228.691 49.8899 229.24 53.953L238.903 126.552C239.344 129.738 238.461 130.615 235.282 130.615H227.707C224.415 130.615 223.645 129.846 223.204 126.552L221.778 114.578C221.671 113.48 221.337 113.152 220.019 113.152H210.577C209.259 113.152 208.931 113.48 208.818 114.578L207.392 126.552C206.951 129.846 206.187 130.615 202.889 130.615H195.314C192.129 130.615 191.252 129.738 191.693 126.552L201.356 53.953C201.899 49.8956 203.438 48.2431 208.382 48.2431H222.22H222.214ZM215.295 69.1134C214.09 69.1134 213.428 69.3341 213.321 70.6527L210.798 96.2426C210.69 97.5611 211.018 97.8893 212.444 97.8893H218.152C219.578 97.8893 219.911 97.5611 219.798 96.2426L217.275 70.6527C217.168 69.3341 216.506 69.1134 215.301 69.1134H215.295Z" fill="#F9FFF2"/>
<path d="M287.385 70.8677C287.651 72.1862 287.792 73.5387 287.792 74.9308C287.792 80.2616 285.75 85.117 282.412 88.7727C282.367 88.8236 282.322 88.8802 282.271 88.9198C278.52 92.9433 273.185 95.4672 267.268 95.4672C255.948 95.4672 246.738 86.2601 246.738 74.9308C246.738 63.6016 255.942 54.3944 267.268 54.3944C277.174 54.3944 285.473 61.4568 287.379 70.8168C287.379 70.8337 287.391 70.8451 287.391 70.8677H287.385ZM285.162 74.9308C285.162 73.7934 285.048 72.6842 284.845 71.6034C283.176 69.2379 280.834 68.1061 277.858 68.2476C274.82 68.3891 272.342 70.8734 272.201 73.9066C272.122 75.5533 272.704 77.1152 273.836 78.2979C274.973 79.4863 276.5 80.1427 278.141 80.1427C278.384 80.1427 278.639 80.1314 278.888 80.0918C280.246 79.9277 281.586 80.3917 282.559 81.3877C282.916 81.7499 283.199 82.1743 283.419 82.627C284.534 80.2955 285.162 77.6811 285.162 74.9252V74.9308ZM281.219 84.8737C281.309 84.2681 281.111 83.6683 280.681 83.2269C280.455 82.9949 279.951 82.6101 279.216 82.7063C278.865 82.7515 278.503 82.7742 278.147 82.7742C275.776 82.7742 273.57 81.8291 271.941 80.1201C270.306 78.4111 269.463 76.1588 269.57 73.7877C269.774 69.402 273.361 65.8142 277.739 65.6162C279.318 65.5483 281.258 65.7463 283.142 66.6914C280.155 60.9588 274.158 57.0315 267.262 57.0315C260.366 57.0315 254.296 61.0041 251.326 66.7989C253.283 65.752 255.314 65.5313 256.955 65.5992C261.339 65.8029 264.926 69.3907 265.124 73.7708C265.231 76.1419 264.394 78.3885 262.754 80.1031C261.119 81.8121 258.918 82.7572 256.548 82.7572C256.191 82.7572 255.829 82.7346 255.478 82.6893C254.743 82.5987 254.239 82.9779 254.013 83.2099C253.583 83.6513 253.385 84.2512 253.476 84.8567C253.6 85.7055 253.894 86.4808 254.353 87.1486C254.42 87.2504 254.466 87.3523 254.5 87.4655C257.753 90.776 262.267 92.8245 267.257 92.8245C272.246 92.8245 277.123 90.6005 280.398 87.058C280.817 86.4129 281.094 85.6772 281.207 84.868L281.219 84.8737ZM260.858 78.281C261.995 77.0982 262.572 75.5363 262.499 73.8896C262.358 70.8564 259.874 68.3721 256.842 68.2306C253.781 68.0835 251.377 69.2888 249.708 71.7958C249.685 71.8241 249.657 71.8524 249.64 71.8807C249.47 72.871 249.374 73.8896 249.374 74.9308C249.374 77.7547 250.031 80.4257 251.202 82.8081C251.428 82.2762 251.739 81.7895 252.146 81.3707C253.119 80.3804 254.46 79.9051 255.818 80.0805C256.061 80.1088 256.316 80.1258 256.565 80.1258C258.205 80.1258 259.738 79.4693 260.87 78.281H260.858Z" fill="#F9FFF2"/>
<path d="M278.203 70.5847C280.189 70.5847 281.807 72.2032 281.807 74.1895C281.807 76.1758 280.189 77.7943 278.203 77.7943C276.218 77.7943 274.6 76.1758 274.6 74.1895C274.6 72.2032 276.212 70.5847 278.203 70.5847ZM279.47 74.1895C279.47 73.4878 278.899 72.9219 278.203 72.9219C277.507 72.9219 276.936 73.4878 276.936 74.1895C276.936 74.8912 277.502 75.4571 278.203 75.4571C278.905 75.4571 279.47 74.8856 279.47 74.1895Z" fill="#F9FFF2"/>
<path d="M267.251 77.5906C268.411 77.5906 269.288 78.3319 269.288 79.3166C269.288 80.3012 268.411 81.0425 267.251 81.0425C266.091 81.0425 265.214 80.3012 265.214 79.3166C265.214 78.3319 266.091 77.5906 267.251 77.5906Z" fill="#F9FFF2"/>
<path d="M268.026 124.452C267.964 124.492 267.902 124.532 267.839 124.56C267.828 124.56 267.822 124.56 267.817 124.571C267.737 124.605 267.664 124.634 267.585 124.656C267.562 124.656 267.539 124.667 267.522 124.667C267.432 124.684 267.347 124.696 267.257 124.696C267.166 124.696 267.076 124.684 266.991 124.662L266.923 124.651C266.844 124.628 266.77 124.6 266.697 124.566C266.685 124.566 266.668 124.554 266.663 124.554C266.595 124.52 266.527 124.475 266.465 124.43C266.453 124.43 266.448 124.413 266.436 124.407C266.408 124.385 266.385 124.356 266.357 124.334C266.306 124.288 266.267 124.243 266.221 124.186C266.21 124.175 266.199 124.158 266.193 124.147L265.084 122.596C264.898 123.032 264.649 123.434 264.36 123.802L266.476 126.082C266.968 126.614 266.934 127.446 266.408 127.944C266.153 128.176 265.831 128.295 265.514 128.295C265.158 128.295 264.807 128.148 264.547 127.876L262.273 125.42C261.809 125.624 261.305 125.76 260.779 125.828L262.086 128.765C262.386 129.432 262.086 130.208 261.418 130.508C261.249 130.581 261.062 130.615 260.887 130.615C260.383 130.615 259.902 130.326 259.682 129.834L257.651 125.267C257.357 125.115 257.074 124.939 256.808 124.73H256.796C246.591 116.847 241.188 108.851 240.736 100.956C240.385 94.8334 243.168 90.6062 244.537 88.9141C241.946 84.7152 240.583 79.8994 240.583 74.9252C240.583 60.2118 252.554 48.2375 267.262 48.2375C281.971 48.2375 293.942 60.2118 293.942 74.9252C293.942 79.8485 292.606 84.619 290.066 88.784C291.39 90.3798 294.332 94.6693 293.975 100.956C293.517 108.851 288.115 116.847 277.903 124.73C277.638 124.933 277.355 125.109 277.066 125.267L275.03 129.834C274.815 130.326 274.334 130.615 273.83 130.615C273.649 130.615 273.468 130.581 273.293 130.508C272.631 130.208 272.331 129.432 272.625 128.765L273.938 125.828C273.361 125.76 272.818 125.596 272.32 125.364L269.989 127.876C269.729 128.153 269.378 128.295 269.022 128.295C268.699 128.295 268.382 128.176 268.128 127.944C267.596 127.446 267.568 126.614 268.06 126.082L270.272 123.688C270 123.326 269.768 122.925 269.593 122.494L268.314 124.17C268.314 124.17 268.292 124.198 268.281 124.209C268.241 124.26 268.196 124.3 268.15 124.345C268.122 124.368 268.1 124.396 268.071 124.413C268.06 124.424 268.049 124.435 268.037 124.441L268.026 124.452ZM291.339 100.866C291.73 94.4486 287.996 90.3968 287.634 90.0176C287.062 89.6045 286.915 88.8179 287.306 88.2294C289.925 84.2908 291.311 79.69 291.311 74.9365C291.311 61.6719 280.523 50.8859 267.268 50.8859C254.013 50.8859 243.219 61.6775 243.219 74.9365C243.219 79.7296 244.622 84.3587 247.281 88.3199L247.892 89.2254L247.106 89.995C247.066 90.029 242.965 94.1657 243.372 100.872C243.802 107.951 248.865 115.285 258.414 122.659C258.907 123.043 259.495 123.253 260.117 123.253C260.162 123.253 260.196 123.253 260.236 123.241L259.529 122.477C259.031 121.94 259.065 121.114 259.597 120.616C260.129 120.118 260.96 120.152 261.452 120.684L262.527 121.838C262.753 121.436 262.889 120.967 262.889 120.474V120.412C262.901 120.293 263.381 108.341 257.815 101.624C257.357 101.064 257.43 100.232 257.99 99.7737C258.55 99.3097 259.382 99.3889 259.84 99.9435C264.728 105.851 265.452 114.861 265.531 118.709L267.296 121.17L269.174 118.697C269.248 114.849 269.978 105.84 274.866 99.9378C275.329 99.3832 276.161 99.304 276.721 99.768C277.275 100.226 277.355 101.058 276.891 101.619C271.33 108.336 271.811 120.287 271.816 120.406V120.469C271.816 120.916 271.924 121.334 272.116 121.708L273.072 120.678C273.564 120.14 274.396 120.112 274.933 120.61C275.465 121.108 275.493 121.934 275.001 122.472L274.3 123.224C274.396 123.236 274.492 123.241 274.588 123.241C275.211 123.241 275.805 123.038 276.291 122.653C285.846 115.279 290.904 107.951 291.334 100.866H291.339Z" fill="#F9FFF2"/>
<path d="M267.771 83.0118L267.862 83.0514C267.913 83.0797 267.952 83.108 268.003 83.142C268.032 83.159 268.054 83.1759 268.077 83.1929C268.094 83.2042 268.116 83.2212 268.133 83.2325C268.162 83.2608 268.184 83.2891 268.213 83.3231C268.224 83.3344 268.241 83.3401 268.247 83.3514C268.914 84.1097 269.876 84.5454 270.883 84.5454C271.522 84.5454 272.144 84.3756 272.687 84.0474C273.31 83.6739 274.119 83.872 274.492 84.4945C274.865 85.117 274.668 85.9262 274.045 86.2997C273.089 86.8769 271.997 87.1768 270.877 87.1768C269.559 87.1768 268.298 86.7581 267.257 85.9941C266.21 86.7581 264.948 87.1768 263.636 87.1768C262.516 87.1768 261.418 86.8769 260.468 86.2997C259.846 85.9205 259.642 85.117 260.021 84.4945C260.394 83.872 261.203 83.6683 261.826 84.0474C262.363 84.3756 262.991 84.5454 263.63 84.5454C264.637 84.5454 265.593 84.1097 266.261 83.3514C266.272 83.3401 266.289 83.3287 266.295 83.3231C266.323 83.2948 266.346 83.2608 266.38 83.2325L266.431 83.1929C266.431 83.1929 266.482 83.159 266.51 83.1363C266.555 83.108 266.6 83.0797 266.646 83.0514C266.674 83.0401 266.708 83.0232 266.742 83.0118C266.787 82.9892 266.832 82.9722 266.878 82.9609C266.917 82.9496 266.951 82.9439 266.985 82.9383C267.03 82.927 267.076 82.9213 267.121 82.9156C267.16 82.9156 267.206 82.9156 267.245 82.9156C267.285 82.9156 267.324 82.9156 267.364 82.9156C267.415 82.9156 267.455 82.927 267.505 82.9383C267.539 82.9383 267.573 82.9496 267.607 82.9609C267.658 82.9722 267.709 82.9949 267.754 83.0118H267.771Z" fill="#F9FFF2"/>
<path d="M256.231 70.5677C258.216 70.5677 259.834 72.1862 259.834 74.1725C259.834 76.1588 258.216 77.7773 256.231 77.7773C254.245 77.7773 252.627 76.1588 252.627 74.1725C252.627 72.1862 254.245 70.5677 256.231 70.5677ZM257.498 74.1725C257.498 73.4765 256.932 72.9049 256.231 72.9049C255.529 72.9049 254.964 73.4765 254.964 74.1725C254.964 74.8686 255.535 75.4401 256.231 75.4401C256.927 75.4401 257.498 74.8686 257.498 74.1725Z" fill="#F9FFF2"/>
<path d="M17.509 121.674C18.3519 121.674 18.6743 121.414 18.6743 120.508V112.467C18.6743 110.582 19.1948 110.067 21.073 110.067H25.3555C27.2337 110.067 27.7541 110.588 27.7541 112.337V120.508C27.7541 121.414 28.0144 121.674 28.9195 121.674H38.3896C39.2325 121.674 39.555 121.414 39.555 120.508V111.686C39.555 109.807 40.0755 109.286 41.9536 109.286H46.2361C48.1143 109.286 48.6348 109.807 48.6348 111.686V128.227C48.6348 130.106 48.1143 130.626 46.2361 130.626H2.39864C0.52046 130.626 0 130.106 0 128.227V111.686C0 109.807 0.52046 109.286 2.39864 109.286H6.68113C8.55931 109.286 9.07977 109.807 9.07977 111.686V120.508C9.07977 121.414 9.34 121.674 10.2452 121.674H17.509Z" fill="#F9FFF2"/>
<path d="M9.07977 85.8017C9.07977 86.7072 9.34 86.9675 10.2452 86.9675H46.2361C48.1143 86.9675 48.6348 87.4881 48.6348 89.3669V93.5206C48.6348 95.3993 48.1143 95.92 46.2361 95.92H10.2452C9.34 95.92 9.07977 96.1803 9.07977 97.0857V101.109C9.07977 102.988 8.55931 103.509 6.68113 103.509H2.39864C0.52046 103.509 0 102.988 0 101.109V81.7782C0 79.8994 0.52046 79.3788 2.39864 79.3788H6.68113C8.55931 79.3788 9.07977 79.8994 9.07977 81.7782V85.8017Z" fill="#F9FFF2"/>
<path d="M28.7272 57.2013C27.822 57.2013 27.5618 57.4616 27.5618 58.367V63.6865C27.5618 64.5919 27.822 64.8522 28.7272 64.8522H46.2361C48.1143 64.8522 48.6348 65.3728 48.6348 67.2516V71.4053C48.6348 73.2841 48.1143 73.8047 46.2361 73.8047H2.39864C0.52046 73.8047 0 73.2841 0 71.4053V67.2516C0 65.3728 0.52046 64.8522 2.39864 64.8522H17.3166C18.1595 64.8522 18.482 64.5919 18.482 63.6865V58.367C18.482 57.4559 18.1595 57.2013 17.3166 57.2013H2.39864C0.52046 57.2013 0 56.6807 0 54.8019V50.6482C0 48.7638 0.52046 48.2431 2.39864 48.2431H46.2361C48.1143 48.2431 48.6348 48.7638 48.6348 50.6425V54.7962C48.6348 56.675 48.1143 57.1956 46.2361 57.1956H28.7272V57.2013Z" fill="#F9FFF2"/>
</g>
<defs>
<clipPath id="clip0_2_529">
<rect width="454" height="83.4811" fill="white" transform="translate(0 48.2431)"/>
</clipPath>
</defs>
</svg>
