<svg width="454" height="132" viewBox="0 0 454 132" fill="none" xmlns="http://www.w3.org/2000/svg">
<path d="M12.6 34.7471C10.696 34.7471 8.946 34.3971 7.35 33.6971C5.754 32.9971 4.48 31.9331 3.528 30.5051C2.576 29.0771 2.072 27.2711 2.016 25.0871H7.56C7.588 26.0111 7.798 26.8511 8.19 27.6071C8.582 28.3351 9.156 28.9231 9.912 29.3711C10.668 29.7911 11.564 30.0011 12.6 30.0011C13.58 30.0011 14.42 29.8051 15.12 29.4131C15.82 29.0211 16.352 28.5031 16.716 27.8591C17.08 27.2151 17.262 26.4731 17.262 25.6331C17.262 24.6531 17.01 23.8411 16.506 23.1971C16.03 22.5251 15.358 22.0211 14.49 21.6851C13.65 21.3491 12.684 21.1811 11.592 21.1811H9.408V16.5191H11.592C12.964 16.5191 14.112 16.1971 15.036 15.5531C15.988 14.9091 16.464 13.9431 16.464 12.6551C16.464 11.5911 16.114 10.7371 15.414 10.0931C14.742 9.44913 13.79 9.12713 12.558 9.12713C11.214 9.12713 10.164 9.51913 9.408 10.3031C8.652 11.0871 8.232 12.0531 8.148 13.2011H2.604C2.688 11.3531 3.15 9.77113 3.99 8.45513C4.858 7.11113 6.02 6.08913 7.476 5.38913C8.932 4.68913 10.626 4.33913 12.558 4.33913C14.602 4.33913 16.324 4.70313 17.724 5.43113C19.152 6.13113 20.23 7.08313 20.958 8.28713C21.686 9.49113 22.05 10.7931 22.05 12.1931C22.05 13.3411 21.826 14.3631 21.378 15.2591C20.958 16.1551 20.384 16.8971 19.656 17.4851C18.928 18.0731 18.13 18.4931 17.262 18.7451C18.354 18.9691 19.306 19.4031 20.118 20.0471C20.958 20.6631 21.602 21.4611 22.05 22.4411C22.526 23.4211 22.764 24.5551 22.764 25.8431C22.764 27.4391 22.372 28.9231 21.588 30.2951C20.832 31.6391 19.684 32.7171 18.144 33.5291C16.632 34.3411 14.784 34.7471 12.6 34.7471ZM28.0786 34.2431V13.0751H33.1186L33.6646 16.9811C34.1686 16.0571 34.7986 15.2731 35.5546 14.6291C36.3386 13.9851 37.2206 13.4811 38.2006 13.1171C39.2086 12.7531 40.3146 12.5711 41.5186 12.5711V18.5771H39.5866C38.7466 18.5771 37.9626 18.6751 37.2346 18.8711C36.5346 19.0671 35.9186 19.3891 35.3866 19.8371C34.8546 20.2571 34.4486 20.8451 34.1686 21.6011C33.8886 22.3571 33.7486 23.3091 33.7486 24.4571V34.2431H28.0786ZM54.3441 34.7471C52.4121 34.7471 50.6761 34.2711 49.1361 33.3191C47.6241 32.3671 46.4341 31.0511 45.5661 29.3711C44.6981 27.6911 44.2641 25.8011 44.2641 23.7011C44.2641 21.5451 44.6981 19.6411 45.5661 17.9891C46.4621 16.3091 47.6801 14.9931 49.2201 14.0411C50.7881 13.0611 52.5381 12.5711 54.4701 12.5711C55.9821 12.5711 57.3121 12.8511 58.4601 13.4111C59.6081 13.9711 60.5321 14.7691 61.2321 15.8051V4.00313H66.9021V34.2431H61.8621L61.2321 31.3451C60.8121 31.9331 60.2801 32.4931 59.6361 33.0251C59.0201 33.5571 58.2781 33.9771 57.4101 34.2851C56.5421 34.5931 55.5201 34.7471 54.3441 34.7471ZM55.6881 29.7911C56.8081 29.7911 57.7881 29.5391 58.6281 29.0351C59.4961 28.5031 60.1681 27.7751 60.6441 26.8511C61.1201 25.9271 61.3581 24.8631 61.3581 23.6591C61.3581 22.4551 61.1201 21.3911 60.6441 20.4671C60.1681 19.5431 59.4961 18.8291 58.6281 18.3251C57.7881 17.7931 56.8081 17.5271 55.6881 17.5271C54.6241 17.5271 53.6581 17.7931 52.7901 18.3251C51.9221 18.8291 51.2361 19.5431 50.7321 20.4671C50.2561 21.3911 50.0181 22.4411 50.0181 23.6171C50.0181 24.8491 50.2561 25.9271 50.7321 26.8511C51.2361 27.7751 51.9081 28.5031 52.7481 29.0351C53.6161 29.5391 54.5961 29.7911 55.6881 29.7911ZM82.4683 34.2431V4.84313H101.788V9.42113H88.1383V17.1071H100.528V21.5171H88.1383V29.6651H101.788V34.2431H82.4683ZM116.237 34.7471C114.305 34.7471 112.569 34.2711 111.029 33.3191C109.517 32.3671 108.327 31.0511 107.459 29.3711C106.591 27.6911 106.157 25.8011 106.157 23.7011C106.157 21.5451 106.591 19.6411 107.459 17.9891C108.355 16.3091 109.573 14.9931 111.113 14.0411C112.681 13.0611 114.431 12.5711 116.363 12.5711C117.875 12.5711 119.205 12.8511 120.353 13.4111C121.501 13.9711 122.425 14.7691 123.125 15.8051V4.00313H128.795V34.2431H123.755L123.125 31.3451C122.705 31.9331 122.173 32.4931 121.529 33.0251C120.913 33.5571 120.171 33.9771 119.303 34.2851C118.435 34.5931 117.413 34.7471 116.237 34.7471ZM117.581 29.7911C118.701 29.7911 119.681 29.5391 120.521 29.0351C121.389 28.5031 122.061 27.7751 122.537 26.8511C123.013 25.9271 123.251 24.8631 123.251 23.6591C123.251 22.4551 123.013 21.3911 122.537 20.4671C122.061 19.5431 121.389 18.8291 120.521 18.3251C119.681 17.7931 118.701 17.5271 117.581 17.5271C116.517 17.5271 115.551 17.7931 114.683 18.3251C113.815 18.8291 113.129 19.5431 112.625 20.4671C112.149 21.3911 111.911 22.4411 111.911 23.6171C111.911 24.8491 112.149 25.9271 112.625 26.8511C113.129 27.7751 113.801 28.5031 114.641 29.0351C115.509 29.5391 116.489 29.7911 117.581 29.7911ZM134.476 34.2431V13.0751H140.146V34.2431H134.476ZM137.332 10.1771C136.324 10.1771 135.484 9.88313 134.812 9.29513C134.168 8.67913 133.846 7.90913 133.846 6.98513C133.846 6.06113 134.168 5.30513 134.812 4.71713C135.484 4.10113 136.324 3.79313 137.332 3.79313C138.368 3.79313 139.208 4.10113 139.852 4.71713C140.524 5.30513 140.86 6.06113 140.86 6.98513C140.86 7.90913 140.524 8.67913 139.852 9.29513C139.208 9.88313 138.368 10.1771 137.332 10.1771ZM155.41 34.2431C153.926 34.2431 152.624 34.0191 151.504 33.5711C150.412 33.0951 149.558 32.3251 148.942 31.2611C148.326 30.1691 148.018 28.6851 148.018 26.8091V17.8211H144.406V13.0751H148.018L148.648 7.32113H153.688V13.0751H159.274V17.8211H153.688V26.8931C153.688 27.8451 153.898 28.5031 154.318 28.8671C154.738 29.2311 155.452 29.4131 156.46 29.4131H159.232V34.2431H155.41ZM164.171 34.2431V13.0751H169.841V34.2431H164.171ZM167.027 10.1771C166.019 10.1771 165.179 9.88313 164.507 9.29513C163.863 8.67913 163.541 7.90913 163.541 6.98513C163.541 6.06113 163.863 5.30513 164.507 4.71713C165.179 4.10113 166.019 3.79313 167.027 3.79313C168.063 3.79313 168.903 4.10113 169.547 4.71713C170.219 5.30513 170.555 6.06113 170.555 6.98513C170.555 7.90913 170.219 8.67913 169.547 9.29513C168.903 9.88313 168.063 10.1771 167.027 10.1771ZM185.567 34.7471C183.551 34.7471 181.731 34.2851 180.107 33.3611C178.511 32.4091 177.237 31.1071 176.285 29.4551C175.361 27.7751 174.899 25.8571 174.899 23.7011C174.899 21.4891 175.361 19.5571 176.285 17.9051C177.237 16.2251 178.525 14.9231 180.149 13.9991C181.773 13.0471 183.593 12.5711 185.609 12.5711C187.653 12.5711 189.473 13.0471 191.069 13.9991C192.693 14.9231 193.967 16.2251 194.891 17.9051C195.843 19.5571 196.319 21.4751 196.319 23.6591C196.319 25.8431 195.843 27.7751 194.891 29.4551C193.967 31.1071 192.693 32.4091 191.069 33.3611C189.445 34.2851 187.611 34.7471 185.567 34.7471ZM185.567 29.8331C186.519 29.8331 187.359 29.6091 188.087 29.1611C188.843 28.7131 189.431 28.0271 189.851 27.1031C190.299 26.1791 190.523 25.0311 190.523 23.6591C190.523 22.2871 190.299 21.1531 189.851 20.2571C189.431 19.3331 188.843 18.6471 188.087 18.1991C187.359 17.7231 186.533 17.4851 185.609 17.4851C184.713 17.4851 183.887 17.7231 183.131 18.1991C182.375 18.6471 181.773 19.3331 181.325 20.2571C180.905 21.1531 180.695 22.2871 180.695 23.6591C180.695 25.0311 180.905 26.1791 181.325 27.1031C181.773 28.0271 182.361 28.7131 183.089 29.1611C183.845 29.6091 184.671 29.8331 185.567 29.8331ZM201.206 34.2431V13.0751H206.204L206.624 16.5191C207.268 15.3431 208.178 14.3911 209.354 13.6631C210.558 12.9351 211.986 12.5711 213.638 12.5711C215.402 12.5711 216.886 12.9351 218.09 13.6631C219.294 14.3911 220.204 15.4551 220.82 16.8551C221.464 18.2551 221.786 19.9771 221.786 22.0211V34.2431H216.158V22.5671C216.158 20.8871 215.794 19.5991 215.066 18.7031C214.366 17.8071 213.274 17.3591 211.79 17.3591C210.838 17.3591 209.984 17.5831 209.228 18.0311C208.5 18.4791 207.926 19.1231 207.506 19.9631C207.086 20.7751 206.876 21.7691 206.876 22.9451V34.2431H201.206Z" fill="#84CCF5"/>
<g clip-path="url(#clip0_2_529)">
<path d="M312.095 130.619C306.387 130.619 304.741 128.973 304.079 123.812L295.627 52.3104C295.299 49.1244 296.504 48.2472 299.689 48.2472H307.705C310.89 48.2472 311.547 49.1244 311.767 52.3104L316.599 108.657C316.706 109.975 317.147 110.304 318.137 110.304C319.127 110.304 319.563 109.975 319.676 108.657L324.507 52.3104C324.728 49.1244 325.384 48.2472 328.569 48.2472H336.585C339.77 48.2472 340.975 49.1244 340.647 52.3104L332.19 123.812C331.533 128.973 329.882 130.619 324.173 130.619H312.095Z" fill="#F9FFF2"/>
<path d="M358.761 126.558C358.761 129.744 357.885 130.621 354.7 130.621H347.673C344.488 130.621 343.612 129.744 343.612 126.558V52.3063C343.612 49.1203 344.488 48.2431 347.673 48.2431H354.7C357.885 48.2431 358.761 49.1203 358.761 52.3063V126.558Z" fill="#F9FFF2"/>
<path d="M405.705 74.6026V104.256C405.705 122.93 401.422 130.615 380.338 130.615H366.942C363.757 130.615 362.88 129.738 362.88 126.552V52.3063C362.88 49.1203 363.757 48.2431 366.942 48.2431H380.338C401.422 48.2431 405.705 55.9337 405.705 74.6026ZM378.035 65.5992V113.27C378.035 114.696 378.477 115.245 380.01 115.245H381.215C387.364 115.245 390.108 112.388 390.108 105.252V73.618C390.108 66.4764 387.364 63.6242 381.215 63.6242H380.01C378.471 63.6242 378.035 64.0656 378.035 65.5992Z" fill="#F9FFF2"/>
<path d="M437.204 48.2431C442.143 48.2431 443.681 49.8899 444.23 53.953L453.893 126.552C454.334 129.738 453.451 130.615 450.272 130.615H442.697C439.405 130.615 438.635 129.846 438.194 126.552L436.768 114.578C436.661 113.48 436.327 113.152 435.009 113.152H425.567C424.249 113.152 423.921 113.48 423.808 114.578L422.382 126.552C421.941 129.846 421.177 130.615 417.879 130.615H410.304C407.119 130.615 406.242 129.738 406.683 126.552L416.346 53.953C416.895 49.8899 418.433 48.2431 423.372 48.2431H437.21H437.204ZM430.291 69.1134C429.086 69.1134 428.424 69.3341 428.316 70.6527L425.793 96.2426C425.686 97.5611 426.014 97.8893 427.44 97.8893H433.148C434.573 97.8893 434.907 97.5611 434.794 96.2426L432.271 70.6527C432.163 69.3341 431.501 69.1134 430.296 69.1134H430.291Z" fill="#F9FFF2"/>
<path d="M70.2451 102.394C68.7064 102.394 68.2708 102.835 68.2708 104.369V126.558C68.2708 129.744 67.3939 130.621 64.2089 130.621H57.1827C53.9977 130.621 53.1208 129.744 53.1208 126.558V52.3119C53.1208 49.1259 53.9977 48.2431 57.1827 48.2431H71.6764C88.3651 48.2431 95.94 54.2869 95.94 69.1134V81.5235C95.94 96.35 88.3651 102.394 71.6764 102.394H70.2508H70.2451ZM68.2708 85.0434C68.2708 86.5826 68.712 87.0184 70.2451 87.0184H72.5533C77.9332 87.0184 80.3488 84.8227 80.3488 79.2203V71.4223C80.3488 65.8199 77.9332 63.6242 72.5533 63.6242H70.2451C68.7064 63.6242 68.2708 64.0656 68.2708 65.5992V85.0377V85.0434Z" fill="#F9FFF2"/>
<path d="M129.651 48.2431H136.677C139.862 48.2431 140.739 49.1203 140.739 52.3063V107.555C140.739 125.239 135.467 131.719 119.548 131.719C103.628 131.719 98.3557 125.239 98.3557 107.555V52.3119C98.3557 49.1259 99.2326 48.2431 102.418 48.2431H109.444C112.629 48.2431 113.506 49.1203 113.506 52.3063V110.192C113.506 114.583 115.372 116.343 119.542 116.343C123.711 116.343 125.584 114.583 125.584 110.192V52.3119C125.589 49.1259 126.466 48.2431 129.651 48.2431Z" fill="#F9FFF2"/>
<path d="M164.658 100.86C164.109 99.321 163.668 98.8852 162.021 98.8852H161.58C160.041 98.8852 159.606 99.3266 159.606 100.86V126.563C159.606 129.749 158.729 130.626 155.544 130.626H148.518C145.333 130.626 144.456 129.749 144.456 126.563V52.3119C144.456 49.1259 145.333 48.2488 148.518 48.2488H163.011C179.7 48.2488 187.275 53.9587 187.275 68.0212V75.9268C187.275 86.2488 185.629 90.2044 179.808 95.1503C179.146 95.5917 179.038 95.8068 179.038 96.3557C179.038 96.6839 179.146 97.0178 179.366 97.7817L189.029 126.45C190.019 129.308 188.921 130.626 186.064 130.626H178.048C174.976 130.626 174.314 130.185 173.438 127.554L164.652 100.866L164.658 100.86ZM159.606 81.9649C159.606 83.5042 160.047 83.9399 161.58 83.9399H163.888C169.048 83.9399 171.684 81.631 171.684 76.3625V70.3244C171.684 65.1635 169.268 63.0753 163.888 63.0753H161.58C160.041 63.0753 159.606 63.5167 159.606 65.0503V81.9649Z" fill="#F9FFF2"/>
<path d="M222.214 48.2431C227.153 48.2431 228.691 49.8899 229.24 53.953L238.903 126.552C239.344 129.738 238.461 130.615 235.282 130.615H227.707C224.415 130.615 223.645 129.846 223.204 126.552L221.778 114.578C221.671 113.48 221.337 113.152 220.019 113.152H210.577C209.259 113.152 208.931 113.48 208.818 114.578L207.392 126.552C206.951 129.846 206.187 130.615 202.889 130.615H195.314C192.129 130.615 191.252 129.738 191.693 126.552L201.356 53.953C201.899 49.8956 203.438 48.2431 208.382 48.2431H222.22H222.214ZM215.295 69.1134C214.09 69.1134 213.428 69.3341 213.321 70.6527L210.798 96.2426C210.69 97.5611 211.018 97.8893 212.444 97.8893H218.152C219.578 97.8893 219.911 97.5611 219.798 96.2426L217.275 70.6527C217.168 69.3341 216.506 69.1134 215.301 69.1134H215.295Z" fill="#F9FFF2"/>
<path d="M287.385 70.8677C287.651 72.1862 287.792 73.5387 287.792 74.9308C287.792 80.2616 285.75 85.117 282.412 88.7727C282.367 88.8236 282.322 88.8802 282.271 88.9198C278.52 92.9433 273.185 95.4672 267.268 95.4672C255.948 95.4672 246.738 86.2601 246.738 74.9308C246.738 63.6016 255.942 54.3944 267.268 54.3944C277.174 54.3944 285.473 61.4568 287.379 70.8168C287.379 70.8337 287.391 70.8451 287.391 70.8677H287.385ZM285.162 74.9308C285.162 73.7934 285.048 72.6842 284.845 71.6034C283.176 69.2379 280.834 68.1061 277.858 68.2476C274.82 68.3891 272.342 70.8734 272.201 73.9066C272.122 75.5533 272.704 77.1152 273.836 78.2979C274.973 79.4863 276.5 80.1427 278.141 80.1427C278.384 80.1427 278.639 80.1314 278.888 80.0918C280.246 79.9277 281.586 80.3917 282.559 81.3877C282.916 81.7499 283.199 82.1743 283.419 82.627C284.534 80.2955 285.162 77.6811 285.162 74.9252V74.9308ZM281.219 84.8737C281.309 84.2681 281.111 83.6683 280.681 83.2269C280.455 82.9949 279.951 82.6101 279.216 82.7063C278.865 82.7515 278.503 82.7742 278.147 82.7742C275.776 82.7742 273.57 81.8291 271.941 80.1201C270.306 78.4111 269.463 76.1588 269.57 73.7877C269.774 69.402 273.361 65.8142 277.739 65.6162C279.318 65.5483 281.258 65.7463 283.142 66.6914C280.155 60.9588 274.158 57.0315 267.262 57.0315C260.366 57.0315 254.296 61.0041 251.326 66.7989C253.283 65.752 255.314 65.5313 256.955 65.5992C261.339 65.8029 264.926 69.3907 265.124 73.7708C265.231 76.1419 264.394 78.3885 262.754 80.1031C261.119 81.8121 258.918 82.7572 256.548 82.7572C256.191 82.7572 255.829 82.7346 255.478 82.6893C254.743 82.5987 254.239 82.9779 254.013 83.2099C253.583 83.6513 253.385 84.2512 253.476 84.8567C253.6 85.7055 253.894 86.4808 254.353 87.1486C254.42 87.2504 254.466 87.3523 254.5 87.4655C257.753 90.776 262.267 92.8245 267.257 92.8245C272.246 92.8245 277.123 90.6005 280.398 87.058C280.817 86.4129 281.094 85.6772 281.207 84.868L281.219 84.8737ZM260.858 78.281C261.995 77.0982 262.572 75.5364 262.499 73.8896C262.358 70.8564 259.874 68.3721 256.842 68.2306C253.781 68.0835 251.377 69.2888 249.708 71.7958C249.685 71.8241 249.657 71.8524 249.64 71.8807C249.47 72.871 249.374 73.8896 249.374 74.9308C249.374 77.7547 250.031 80.4257 251.202 82.8081C251.428 82.2762 251.739 81.7895 252.146 81.3707C253.119 80.3804 254.46 79.9051 255.818 80.0805C256.061 80.1088 256.316 80.1258 256.565 80.1258C258.205 80.1258 259.738 79.4693 260.87 78.281H260.858Z" fill="#F9FFF2"/>
<path d="M278.203 70.5847C280.189 70.5847 281.807 72.2032 281.807 74.1895C281.807 76.1758 280.189 77.7943 278.203 77.7943C276.218 77.7943 274.6 76.1758 274.6 74.1895C274.6 72.2032 276.212 70.5847 278.203 70.5847ZM279.47 74.1895C279.47 73.4878 278.899 72.9219 278.203 72.9219C277.507 72.9219 276.936 73.4878 276.936 74.1895C276.936 74.8912 277.502 75.4571 278.203 75.4571C278.905 75.4571 279.47 74.8856 279.47 74.1895Z" fill="#F9FFF2"/>
<path d="M267.251 77.5906C268.411 77.5906 269.288 78.3319 269.288 79.3166C269.288 80.3012 268.411 81.0425 267.251 81.0425C266.091 81.0425 265.214 80.3012 265.214 79.3166C265.214 78.3319 266.091 77.5906 267.251 77.5906Z" fill="#F9FFF2"/>
<path d="M268.026 124.452C267.964 124.492 267.902 124.532 267.839 124.56C267.828 124.56 267.822 124.56 267.817 124.571C267.737 124.605 267.664 124.634 267.585 124.656C267.562 124.656 267.539 124.667 267.522 124.667C267.432 124.684 267.347 124.696 267.257 124.696C267.166 124.696 267.076 124.684 266.991 124.662L266.923 124.651C266.844 124.628 266.77 124.6 266.697 124.566C266.685 124.566 266.668 124.554 266.663 124.554C266.595 124.52 266.527 124.475 266.465 124.43C266.453 124.43 266.448 124.413 266.436 124.407C266.408 124.385 266.385 124.356 266.357 124.334C266.306 124.288 266.267 124.243 266.221 124.186C266.21 124.175 266.199 124.158 266.193 124.147L265.084 122.596C264.898 123.032 264.649 123.434 264.36 123.802L266.476 126.082C266.968 126.614 266.934 127.446 266.408 127.944C266.153 128.176 265.831 128.295 265.514 128.295C265.158 128.295 264.807 128.148 264.547 127.876L262.273 125.42C261.809 125.624 261.305 125.76 260.779 125.828L262.086 128.765C262.386 129.432 262.086 130.208 261.418 130.508C261.249 130.581 261.062 130.615 260.887 130.615C260.383 130.615 259.902 130.326 259.682 129.834L257.651 125.267C257.357 125.115 257.074 124.939 256.808 124.73H256.796C246.591 116.847 241.188 108.851 240.736 100.956C240.385 94.8334 243.168 90.6062 244.537 88.9141C241.946 84.7152 240.583 79.8994 240.583 74.9252C240.583 60.2118 252.554 48.2375 267.262 48.2375C281.971 48.2375 293.942 60.2118 293.942 74.9252C293.942 79.8485 292.606 84.619 290.066 88.784C291.39 90.3798 294.332 94.6693 293.975 100.956C293.517 108.851 288.115 116.847 277.903 124.73C277.638 124.933 277.355 125.109 277.066 125.267L275.03 129.834C274.815 130.326 274.334 130.615 273.83 130.615C273.649 130.615 273.468 130.581 273.293 130.508C272.631 130.208 272.331 129.432 272.625 128.765L273.938 125.828C273.361 125.76 272.818 125.596 272.32 125.364L269.989 127.876C269.729 128.153 269.378 128.295 269.022 128.295C268.699 128.295 268.382 128.176 268.128 127.944C267.596 127.446 267.568 126.614 268.06 126.082L270.272 123.688C270 123.326 269.768 122.925 269.593 122.494L268.314 124.17C268.314 124.17 268.292 124.198 268.281 124.209C268.241 124.26 268.196 124.3 268.15 124.345C268.122 124.368 268.1 124.396 268.071 124.413C268.06 124.424 268.049 124.435 268.037 124.441L268.026 124.452ZM291.339 100.866C291.73 94.4486 287.996 90.3968 287.634 90.0176C287.062 89.6045 286.915 88.8179 287.306 88.2294C289.925 84.2908 291.311 79.69 291.311 74.9365C291.311 61.6719 280.523 50.8859 267.268 50.8859C254.013 50.8859 243.219 61.6775 243.219 74.9365C243.219 79.7296 244.622 84.3587 247.281 88.3199L247.892 89.2254L247.106 89.995C247.066 90.029 242.965 94.1657 243.372 100.872C243.802 107.951 248.865 115.285 258.414 122.659C258.907 123.043 259.495 123.253 260.117 123.253C260.162 123.253 260.196 123.253 260.236 123.241L259.529 122.477C259.031 121.94 259.065 121.114 259.597 120.616C260.129 120.118 260.96 120.152 261.452 120.684L262.527 121.838C262.753 121.436 262.889 120.967 262.889 120.474V120.412C262.901 120.293 263.381 108.341 257.815 101.624C257.357 101.064 257.43 100.232 257.99 99.7737C258.55 99.3097 259.382 99.3889 259.84 99.9435C264.728 105.851 265.452 114.861 265.531 118.709L267.296 121.17L269.174 118.697C269.248 114.849 269.978 105.84 274.866 99.9378C275.329 99.3832 276.161 99.304 276.721 99.768C277.275 100.226 277.355 101.058 276.891 101.619C271.33 108.336 271.811 120.287 271.816 120.406V120.469C271.816 120.916 271.924 121.334 272.116 121.708L273.072 120.678C273.564 120.14 274.396 120.112 274.933 120.61C275.465 121.108 275.493 121.934 275.001 122.472L274.3 123.224C274.396 123.236 274.492 123.241 274.588 123.241C275.211 123.241 275.805 123.038 276.291 122.653C285.846 115.279 290.904 107.951 291.334 100.866H291.339Z" fill="#F9FFF2"/>
<path d="M267.771 83.0118L267.862 83.0514C267.913 83.0797 267.952 83.108 268.003 83.142C268.032 83.159 268.054 83.1759 268.077 83.1929C268.094 83.2042 268.116 83.2212 268.133 83.2325C268.162 83.2608 268.184 83.2891 268.213 83.3231C268.224 83.3344 268.241 83.3401 268.247 83.3514C268.914 84.1097 269.876 84.5454 270.883 84.5454C271.522 84.5454 272.144 84.3756 272.687 84.0474C273.31 83.6739 274.119 83.872 274.492 84.4945C274.865 85.117 274.668 85.9262 274.045 86.2997C273.089 86.8769 271.997 87.1768 270.877 87.1768C269.559 87.1768 268.298 86.7581 267.257 85.9941C266.21 86.7581 264.948 87.1768 263.636 87.1768C262.516 87.1768 261.418 86.8769 260.468 86.2997C259.846 85.9205 259.642 85.117 260.021 84.4945C260.394 83.872 261.203 83.6683 261.826 84.0474C262.363 84.3756 262.991 84.5454 263.63 84.5454C264.637 84.5454 265.593 84.1097 266.261 83.3514C266.272 83.3401 266.289 83.3287 266.295 83.3231C266.323 83.2948 266.346 83.2608 266.38 83.2325L266.431 83.1929C266.431 83.1929 266.482 83.159 266.51 83.1363C266.555 83.108 266.6 83.0797 266.646 83.0514C266.674 83.0401 266.708 83.0232 266.742 83.0118C266.787 82.9892 266.832 82.9722 266.878 82.9609C266.917 82.9496 266.951 82.9439 266.985 82.9383C267.03 82.927 267.076 82.9213 267.121 82.9156C267.16 82.9156 267.206 82.9156 267.245 82.9156C267.285 82.9156 267.324 82.9156 267.364 82.9156C267.415 82.9156 267.455 82.927 267.505 82.9383C267.539 82.9383 267.573 82.9496 267.607 82.9609C267.658 82.9722 267.709 82.9949 267.754 83.0118H267.771Z" fill="#F9FFF2"/>
<path d="M256.231 70.5677C258.216 70.5677 259.834 72.1862 259.834 74.1725C259.834 76.1588 258.216 77.7773 256.231 77.7773C254.245 77.7773 252.627 76.1588 252.627 74.1725C252.627 72.1862 254.245 70.5677 256.231 70.5677ZM257.498 74.1725C257.498 73.4765 256.932 72.9049 256.231 72.9049C255.529 72.9049 254.964 73.4765 254.964 74.1725C254.964 74.8686 255.535 75.4401 256.231 75.4401C256.927 75.4401 257.498 74.8686 257.498 74.1725Z" fill="#F9FFF2"/>
<path d="M17.509 121.674C18.3519 121.674 18.6743 121.414 18.6743 120.508V112.467C18.6743 110.582 19.1948 110.067 21.073 110.067H25.3555C27.2337 110.067 27.7541 110.588 27.7541 112.337V120.508C27.7541 121.414 28.0144 121.674 28.9195 121.674H38.3896C39.2325 121.674 39.555 121.414 39.555 120.508V111.686C39.555 109.807 40.0755 109.286 41.9536 109.286H46.2361C48.1143 109.286 48.6348 109.807 48.6348 111.686V128.227C48.6348 130.106 48.1143 130.626 46.2361 130.626H2.39864C0.52046 130.626 0 130.106 0 128.227V111.686C0 109.807 0.52046 109.286 2.39864 109.286H6.68113C8.55931 109.286 9.07977 109.807 9.07977 111.686V120.508C9.07977 121.414 9.34 121.674 10.2452 121.674H17.509Z" fill="#F9FFF2"/>
<path d="M9.07977 85.8017C9.07977 86.7072 9.34 86.9675 10.2452 86.9675H46.2361C48.1143 86.9675 48.6348 87.4881 48.6348 89.3669V93.5206C48.6348 95.3993 48.1143 95.92 46.2361 95.92H10.2452C9.34 95.92 9.07977 96.1803 9.07977 97.0857V101.109C9.07977 102.988 8.55931 103.509 6.68113 103.509H2.39864C0.52046 103.509 0 102.988 0 101.109V81.7782C0 79.8994 0.52046 79.3788 2.39864 79.3788H6.68113C8.55931 79.3788 9.07977 79.8994 9.07977 81.7782V85.8017Z" fill="#F9FFF2"/>
<path d="M28.7272 57.2013C27.822 57.2013 27.5618 57.4616 27.5618 58.367V63.6865C27.5618 64.5919 27.822 64.8522 28.7272 64.8522H46.2361C48.1143 64.8522 48.6348 65.3728 48.6348 67.2516V71.4053C48.6348 73.2841 48.1143 73.8047 46.2361 73.8047H2.39864C0.52046 73.8047 0 73.2841 0 71.4053V67.2516C0 65.3728 0.52046 64.8522 2.39864 64.8522H17.3166C18.1595 64.8522 18.482 64.5919 18.482 63.6865V58.367C18.482 57.4559 18.1595 57.2013 17.3166 57.2013H2.39864C0.52046 57.2013 0 56.6807 0 54.8019V50.6482C0 48.7638 0.52046 48.2431 2.39864 48.2431H46.2361C48.1143 48.2431 48.6348 48.7638 48.6348 50.6425V54.7962C48.6348 56.675 48.1143 57.1956 46.2361 57.1956H28.7272V57.2013Z" fill="#F9FFF2"/>
</g>
<defs>
<clipPath id="clip0_2_529">
<rect width="454" height="83.4811" fill="white" transform="translate(0 48.2431)"/>
</clipPath>
</defs>
</svg>
