<svg width="310" height="92" viewBox="0 0 310 92" fill="none" xmlns="http://www.w3.org/2000/svg">
<path d="M4.96 26V8.56L0.992 9.616V6.16L6.816 3.6H9.44V26H4.96ZM20.3603 26.384C18.8883 26.384 17.6083 26.1493 16.5203 25.68C15.4323 25.2107 14.5789 24.56 13.9603 23.728C13.3416 22.896 12.9896 21.9573 12.9043 20.912H17.1923C17.2989 21.3173 17.4803 21.6907 17.7363 22.032C17.9923 22.352 18.3336 22.608 18.7603 22.8C19.1869 22.992 19.6989 23.088 20.2963 23.088C20.8723 23.088 21.3416 23.0133 21.7043 22.864C22.0669 22.6933 22.3336 22.4693 22.5043 22.192C22.6963 21.9147 22.7923 21.6267 22.7923 21.328C22.7923 20.88 22.6643 20.5387 22.4083 20.304C22.1523 20.048 21.7789 19.8453 21.2883 19.696C20.7976 19.5467 20.2003 19.3973 19.4963 19.248C18.7283 19.0987 17.9709 18.9173 17.2243 18.704C16.4989 18.4693 15.8483 18.1813 15.2723 17.84C14.6963 17.4987 14.2376 17.0613 13.8963 16.528C13.5549 15.9947 13.3843 15.3333 13.3843 14.544C13.3843 13.584 13.6403 12.7307 14.1523 11.984C14.6643 11.216 15.4109 10.608 16.3923 10.16C17.3736 9.712 18.5576 9.488 19.9443 9.488C21.8856 9.488 23.4216 9.92533 24.5523 10.8C25.6829 11.6747 26.3549 12.88 26.5683 14.416H22.5043C22.3763 13.9253 22.0883 13.5413 21.6403 13.264C21.2136 12.9653 20.6376 12.816 19.9123 12.816C19.1443 12.816 18.5576 12.9547 18.1523 13.232C17.7469 13.5093 17.5443 13.872 17.5443 14.32C17.5443 14.6187 17.6723 14.8853 17.9283 15.12C18.2056 15.3547 18.5896 15.5573 19.0803 15.728C19.5709 15.8773 20.1683 16.0267 20.8723 16.176C22.1096 16.432 23.1976 16.7307 24.1363 17.072C25.0749 17.392 25.8109 17.8613 26.3443 18.48C26.8776 19.0773 27.1443 19.952 27.1443 21.104C27.1443 22.128 26.8669 23.0453 26.3123 23.856C25.7576 24.6453 24.9683 25.264 23.9443 25.712C22.9416 26.16 21.7469 26.384 20.3603 26.384ZM37.5635 26C36.4328 26 35.4408 25.8293 34.5875 25.488C33.7555 25.1253 33.1048 24.5387 32.6355 23.728C32.1662 22.896 31.9315 21.7653 31.9315 20.336V13.488H29.1795V9.872H31.9315L32.4115 5.488H36.2515V9.872H40.5075V13.488H36.2515V20.4C36.2515 21.1253 36.4115 21.6267 36.7315 21.904C37.0515 22.1813 37.5955 22.32 38.3635 22.32H40.4755V26H37.5635ZM51.7705 26V3.6H66.4905V7.088H56.0905V12.944H65.5305V16.304H56.0905V22.512H66.4905V26H51.7705ZM77.4988 26.384C76.0268 26.384 74.7041 26.0213 73.5308 25.296C72.3788 24.5707 71.4721 23.568 70.8108 22.288C70.1494 21.008 69.8188 19.568 69.8188 17.968C69.8188 16.3253 70.1494 14.8747 70.8108 13.616C71.4934 12.336 72.4214 11.3333 73.5948 10.608C74.7894 9.86133 76.1228 9.488 77.5948 9.488C78.7468 9.488 79.7601 9.70133 80.6348 10.128C81.5094 10.5547 82.2134 11.1627 82.7468 11.952V2.96H87.0668V26H83.2268L82.7468 23.792C82.4268 24.24 82.0214 24.6667 81.5308 25.072C81.0614 25.4773 80.4961 25.7973 79.8348 26.032C79.1734 26.2667 78.3948 26.384 77.4988 26.384ZM78.5228 22.608C79.3761 22.608 80.1228 22.416 80.7628 22.032C81.4241 21.6267 81.9361 21.072 82.2988 20.368C82.6614 19.664 82.8428 18.8533 82.8428 17.936C82.8428 17.0187 82.6614 16.208 82.2988 15.504C81.9361 14.8 81.4241 14.256 80.7628 13.872C80.1228 13.4667 79.3761 13.264 78.5228 13.264C77.7121 13.264 76.9761 13.4667 76.3148 13.872C75.6534 14.256 75.1308 14.8 74.7468 15.504C74.3841 16.208 74.2028 17.008 74.2028 17.904C74.2028 18.8427 74.3841 19.664 74.7468 20.368C75.1308 21.072 75.6428 21.6267 76.2828 22.032C76.9441 22.416 77.6908 22.608 78.5228 22.608ZM91.3955 26V9.872H95.7155V26H91.3955ZM93.5715 7.664C92.8035 7.664 92.1635 7.44 91.6515 6.992C91.1608 6.52267 90.9155 5.936 90.9155 5.232C90.9155 4.528 91.1608 3.952 91.6515 3.504C92.1635 3.03467 92.8035 2.8 93.5715 2.8C94.3608 2.8 95.0008 3.03467 95.4915 3.504C96.0035 3.952 96.2595 4.528 96.2595 5.232C96.2595 5.936 96.0035 6.52267 95.4915 6.992C95.0008 7.44 94.3608 7.664 93.5715 7.664ZM107.345 26C106.214 26 105.222 25.8293 104.369 25.488C103.537 25.1253 102.886 24.5387 102.417 23.728C101.947 22.896 101.713 21.7653 101.713 20.336V13.488H98.9608V9.872H101.713L102.193 5.488H106.033V9.872H110.289V13.488H106.033V20.4C106.033 21.1253 106.193 21.6267 106.513 21.904C106.833 22.1813 107.377 22.32 108.145 22.32H110.257V26H107.345ZM114.021 26V9.872H118.341V26H114.021ZM116.197 7.664C115.429 7.664 114.789 7.44 114.277 6.992C113.786 6.52267 113.541 5.936 113.541 5.232C113.541 4.528 113.786 3.952 114.277 3.504C114.789 3.03467 115.429 2.8 116.197 2.8C116.986 2.8 117.626 3.03467 118.117 3.504C118.629 3.952 118.885 4.528 118.885 5.232C118.885 5.936 118.629 6.52267 118.117 6.992C117.626 7.44 116.986 7.664 116.197 7.664ZM130.322 26.384C128.786 26.384 127.399 26.032 126.162 25.328C124.946 24.6027 123.975 23.6107 123.25 22.352C122.546 21.072 122.194 19.6107 122.194 17.968C122.194 16.2827 122.546 14.8107 123.25 13.552C123.975 12.272 124.956 11.28 126.194 10.576C127.431 9.85067 128.818 9.488 130.354 9.488C131.911 9.488 133.298 9.85067 134.514 10.576C135.751 11.28 136.722 12.272 137.426 13.552C138.151 14.8107 138.514 16.272 138.514 17.936C138.514 19.6 138.151 21.072 137.426 22.352C136.722 23.6107 135.751 24.6027 134.514 25.328C133.276 26.032 131.879 26.384 130.322 26.384ZM130.322 22.64C131.047 22.64 131.687 22.4693 132.242 22.128C132.818 21.7867 133.266 21.264 133.586 20.56C133.927 19.856 134.098 18.9813 134.098 17.936C134.098 16.8907 133.927 16.0267 133.586 15.344C133.266 14.64 132.818 14.1173 132.242 13.776C131.687 13.4133 131.058 13.232 130.354 13.232C129.671 13.232 129.042 13.4133 128.466 13.776C127.89 14.1173 127.431 14.64 127.09 15.344C126.77 16.0267 126.61 16.8907 126.61 17.936C126.61 18.9813 126.77 19.856 127.09 20.56C127.431 21.264 127.879 21.7867 128.434 22.128C129.01 22.4693 129.639 22.64 130.322 22.64ZM142.237 26V9.872H146.045L146.365 12.496C146.856 11.6 147.549 10.8747 148.445 10.32C149.362 9.76533 150.45 9.488 151.709 9.488C153.053 9.488 154.184 9.76533 155.101 10.32C156.018 10.8747 156.712 11.6853 157.181 12.752C157.672 13.8187 157.917 15.1307 157.917 16.688V26H153.629V17.104C153.629 15.824 153.352 14.8427 152.797 14.16C152.264 13.4773 151.432 13.136 150.301 13.136C149.576 13.136 148.925 13.3067 148.349 13.648C147.794 13.9893 147.357 14.48 147.037 15.12C146.717 15.7387 146.557 16.496 146.557 17.392V26H142.237Z" fill="#84E9B7"/>
<g clip-path="url(#clip0_3989_1078)">
<path d="M213.105 91.2489C209.207 91.2489 208.083 90.1245 207.631 86.6005L201.86 37.7781C201.636 35.6027 202.459 35.0037 204.633 35.0037H210.107C212.282 35.0037 212.73 35.6027 212.88 37.7781L216.179 76.2525C216.253 77.1528 216.554 77.377 217.23 77.377C217.906 77.377 218.203 77.1528 218.281 76.2525L221.58 37.7781C221.73 35.6027 222.178 35.0037 224.353 35.0037H229.827C232.001 35.0037 232.824 35.6027 232.6 37.7781L226.825 86.6005C226.377 90.1245 225.249 91.2489 221.352 91.2489H213.105Z" fill="#F9FFF2"/>
<path d="M244.969 88.4746C244.969 90.6501 244.37 91.249 242.196 91.249H237.398C235.223 91.249 234.625 90.6501 234.625 88.4746V37.7744C234.625 35.5989 235.223 35 237.398 35H242.196C244.37 35 244.969 35.5989 244.969 37.7744V88.4746Z" fill="#F9FFF2"/>
<path d="M277.023 52.9988V73.2464C277.023 85.9978 274.099 91.2452 259.702 91.2452H250.555C248.38 91.2452 247.781 90.6463 247.781 88.4708V37.7744C247.781 35.5989 248.38 35 250.555 35H259.702C274.099 35 277.023 40.2513 277.023 52.9988ZM258.13 46.8511V79.4019C258.13 80.3756 258.431 80.7504 259.478 80.7504H260.301C264.5 80.7504 266.373 78.7991 266.373 73.9265V52.3264C266.373 47.45 264.5 45.5025 260.301 45.5025H259.478C258.427 45.5025 258.13 45.8039 258.13 46.8511Z" fill="#F9FFF2"/>
<path d="M298.531 35C301.903 35 302.954 36.1244 303.329 38.8988L309.926 88.4708C310.228 90.6463 309.625 91.2452 307.454 91.2452H302.282C300.034 91.2452 299.508 90.7197 299.207 88.4708L298.233 80.2945C298.16 79.5448 297.932 79.3207 297.032 79.3207H290.585C289.685 79.3207 289.461 79.5448 289.384 80.2945L288.41 88.4708C288.109 90.7197 287.587 91.2452 285.335 91.2452H280.163C277.988 91.2452 277.39 90.6463 277.691 88.4708L284.289 38.8988C284.663 36.1244 285.714 35 289.086 35H298.535H298.531ZM293.811 49.2506C292.988 49.2506 292.536 49.4013 292.462 50.3017L290.74 67.7749C290.666 68.6752 290.89 68.8994 291.864 68.8994H295.761C296.735 68.8994 296.963 68.6752 296.885 67.7749L295.162 50.3017C295.089 49.4013 294.637 49.2506 293.814 49.2506H293.811Z" fill="#F9FFF2"/>
<path d="M47.9648 71.9751C46.9141 71.9751 46.6166 72.2765 46.6166 73.3237V88.4746C46.6166 90.6501 46.0179 91.249 43.8431 91.249H39.0455C36.8707 91.249 36.272 90.6501 36.272 88.4746V37.7783C36.272 35.6028 36.8707 35 39.0455 35H48.9421C60.3374 35 65.5097 39.1268 65.5097 49.2506V57.7245C65.5097 67.8483 60.3374 71.9751 48.9421 71.9751H47.9686H47.9648ZM46.6166 60.1279C46.6166 61.179 46.9179 61.4765 47.9648 61.4765H49.5408C53.2143 61.4765 54.8638 59.9772 54.8638 56.1518V50.8272C54.8638 47.0018 53.2143 45.5025 49.5408 45.5025H47.9648C46.9141 45.5025 46.6166 45.8039 46.6166 46.8511V60.1241V60.1279Z" fill="#F9FFF2"/>
<path d="M88.5284 35H93.326C95.5008 35 96.0995 35.5989 96.0995 37.7744V75.4992C96.0995 87.5743 92.4994 91.9987 81.6293 91.9987C70.7593 91.9987 67.1592 87.5743 67.1592 75.4992V37.7783C67.1592 35.6028 67.7579 35 69.9327 35H74.7303C76.9051 35 77.5038 35.5989 77.5038 37.7744V77.2998C77.5038 80.2983 78.7786 81.5 81.6255 81.5C84.4724 81.5 85.751 80.2983 85.751 77.2998V37.7783C85.7549 35.6028 86.3536 35 88.5284 35Z" fill="#F9FFF2"/>
<path d="M112.431 70.928C112.057 69.8769 111.755 69.5794 110.631 69.5794H110.33C109.279 69.5794 108.982 69.8808 108.982 70.928V88.4785C108.982 90.654 108.383 91.2529 106.208 91.2529H101.411C99.2359 91.2529 98.6372 90.654 98.6372 88.4785V37.7782C98.6372 35.6028 99.2359 35.0038 101.411 35.0038H111.307C122.703 35.0038 127.875 38.9027 127.875 48.5049V53.9029C127.875 60.951 126.751 63.6519 122.776 67.0291C122.324 67.3305 122.251 67.4774 122.251 67.8522C122.251 68.0763 122.324 68.3043 122.475 68.8259L129.072 88.4012C129.748 90.3526 128.999 91.2529 127.048 91.2529H121.575C119.477 91.2529 119.025 90.9515 118.426 89.1547L112.428 70.9318L112.431 70.928ZM108.982 58.0259C108.982 59.0769 109.283 59.3744 110.33 59.3744H111.906C115.429 59.3744 117.229 57.7979 117.229 54.2005V50.0775C117.229 46.5535 115.58 45.1277 111.906 45.1277H110.33C109.279 45.1277 108.982 45.4291 108.982 46.4762V58.0259Z" fill="#F9FFF2"/>
<path d="M151.732 35C155.104 35 156.155 36.1244 156.53 38.8988L163.127 88.4708C163.429 90.6463 162.826 91.2452 160.655 91.2452H155.483C153.235 91.2452 152.709 90.7197 152.408 88.4708L151.435 80.2945C151.361 79.5448 151.133 79.3207 150.233 79.3207H143.786C142.886 79.3207 142.662 79.5448 142.585 80.2945L141.611 88.4708C141.31 90.7197 140.789 91.2452 138.537 91.2452H133.364C131.19 91.2452 130.591 90.6463 130.892 88.4708L137.49 38.8988C137.861 36.1283 138.911 35 142.287 35H151.736H151.732ZM147.008 49.2506C146.185 49.2506 145.733 49.4013 145.66 50.3017L143.937 67.7749C143.863 68.6752 144.088 68.8994 145.061 68.8994H148.959C149.932 68.8994 150.16 68.6752 150.083 67.7749L148.36 50.3017C148.286 49.4013 147.834 49.2506 147.012 49.2506H147.008Z" fill="#F9FFF2"/>
<path d="M196.232 50.4485C196.414 51.3488 196.51 52.2724 196.51 53.2229C196.51 56.8629 195.116 60.1782 192.837 62.6744C192.806 62.7092 192.775 62.7478 192.74 62.7749C190.179 65.5222 186.536 67.2456 182.496 67.2456C174.766 67.2456 168.478 60.9587 168.478 53.2229C168.478 45.4871 174.762 39.2003 182.496 39.2003C189.26 39.2003 194.926 44.0226 196.228 50.4137C196.228 50.4253 196.236 50.4331 196.236 50.4485H196.232ZM194.714 53.2229C194.714 52.4462 194.637 51.6889 194.498 50.9508C193.358 49.3357 191.759 48.5629 189.727 48.6595C187.653 48.7561 185.961 50.4524 185.864 52.5235C185.81 53.648 186.208 54.7144 186.98 55.522C187.757 56.3335 188.8 56.7817 189.92 56.7817C190.086 56.7817 190.26 56.774 190.43 56.7469C191.357 56.6349 192.273 56.9517 192.937 57.6318C193.18 57.8791 193.373 58.1689 193.524 58.478C194.285 56.886 194.714 55.1008 194.714 53.219V53.2229ZM192.022 60.0121C192.083 59.5986 191.948 59.189 191.655 58.8876C191.5 58.7292 191.156 58.4664 190.654 58.5321C190.415 58.563 190.167 58.5785 189.924 58.5785C188.305 58.5785 186.799 57.9332 185.686 56.7662C184.57 55.5993 183.995 54.0614 184.068 52.4424C184.207 49.4477 186.656 46.9979 189.646 46.8627C190.724 46.8163 192.049 46.9515 193.335 47.5968C191.295 43.6826 187.201 41.0009 182.492 41.0009C177.783 41.0009 173.638 43.7135 171.61 47.6703C172.947 46.9554 174.334 46.8047 175.454 46.8511C178.448 46.9902 180.897 49.44 181.032 52.4308C181.105 54.0498 180.533 55.5838 179.413 56.7547C178.297 57.9216 176.794 58.5669 175.176 58.5669C174.932 58.5669 174.685 58.5514 174.446 58.5205C173.943 58.4587 173.6 58.7176 173.445 58.876C173.152 59.1774 173.016 59.587 173.078 60.0005C173.163 60.5801 173.364 61.1094 173.677 61.5654C173.723 61.635 173.754 61.7045 173.777 61.7818C175.998 64.0423 179.081 65.441 182.488 65.441C185.895 65.441 189.225 63.9225 191.461 61.5036C191.747 61.0631 191.937 60.5607 192.014 60.0082L192.022 60.0121ZM178.119 55.5104C178.896 54.7028 179.29 53.6364 179.239 52.5119C179.143 50.4408 177.447 48.7445 175.377 48.6479C173.287 48.5474 171.645 49.3704 170.506 51.0822C170.49 51.1015 170.471 51.1209 170.459 51.1402C170.343 51.8164 170.278 52.5119 170.278 53.2229C170.278 55.1511 170.726 56.9749 171.525 58.6017C171.68 58.2385 171.892 57.9061 172.17 57.6202C172.835 56.944 173.75 56.6194 174.677 56.7392C174.843 56.7585 175.017 56.7701 175.187 56.7701C176.307 56.7701 177.354 56.3219 178.127 55.5104H178.119Z" fill="#F9FFF2"/>
<path d="M189.963 50.2553C191.318 50.2553 192.423 51.3604 192.423 52.7167C192.423 54.073 191.318 55.1781 189.963 55.1781C188.607 55.1781 187.502 54.073 187.502 52.7167C187.502 51.3604 188.603 50.2553 189.963 50.2553ZM190.828 52.7167C190.828 52.2376 190.438 51.8512 189.963 51.8512C189.487 51.8512 189.097 52.2376 189.097 52.7167C189.097 53.1959 189.484 53.5823 189.963 53.5823C190.442 53.5823 190.828 53.192 190.828 52.7167Z" fill="#F9FFF2"/>
<path d="M182.484 55.039C183.276 55.039 183.875 55.5452 183.875 56.2175C183.875 56.8899 183.276 57.3961 182.484 57.3961C181.692 57.3961 181.094 56.8899 181.094 56.2175C181.094 55.5452 181.692 55.039 182.484 55.039Z" fill="#F9FFF2"/>
<path d="M183.013 87.0372C182.971 87.0643 182.929 87.0913 182.886 87.1107C182.878 87.1107 182.874 87.1107 182.871 87.1184C182.816 87.1416 182.766 87.1609 182.712 87.1763C182.697 87.1763 182.681 87.1841 182.67 87.1841C182.608 87.1957 182.55 87.2034 182.488 87.2034C182.426 87.2034 182.365 87.1957 182.307 87.1802L182.26 87.1725C182.206 87.157 182.156 87.1377 182.106 87.1145C182.098 87.1145 182.086 87.1068 182.083 87.1068C182.036 87.0836 181.99 87.0527 181.947 87.0218C181.94 87.0218 181.936 87.0102 181.928 87.0063C181.909 86.9909 181.893 86.9715 181.874 86.9561C181.839 86.9252 181.812 86.8943 181.781 86.8556C181.774 86.8479 181.766 86.8363 181.762 86.8286L181.005 85.7698C180.877 86.0674 180.707 86.3417 180.51 86.5929L181.955 88.1501C182.291 88.5133 182.268 89.0813 181.909 89.4214C181.735 89.5798 181.515 89.6609 181.298 89.6609C181.055 89.6609 180.816 89.5605 180.638 89.375L179.085 87.698C178.768 87.8371 178.424 87.9298 178.065 87.9762L178.958 89.9816C179.162 90.4376 178.958 90.967 178.502 91.1718C178.386 91.222 178.258 91.2452 178.139 91.2452C177.795 91.2452 177.466 91.0481 177.316 90.7119L175.929 87.5937C175.728 87.4893 175.535 87.3695 175.354 87.2266H175.346C168.377 81.8439 164.688 76.384 164.379 70.9937C164.14 66.8128 166.04 63.9263 166.975 62.771C165.206 59.9039 164.275 56.6155 164.275 53.219C164.275 43.1725 172.449 34.9962 182.492 34.9962C192.535 34.9962 200.709 43.1725 200.709 53.219C200.709 56.5808 199.797 59.8382 198.063 62.6821C198.967 63.7718 200.976 66.7007 200.732 70.9937C200.419 76.384 196.73 81.8439 189.758 87.2266C189.576 87.3657 189.383 87.4855 189.186 87.5937L187.796 90.7119C187.649 91.0481 187.321 91.2452 186.977 91.2452C186.853 91.2452 186.73 91.222 186.61 91.1718C186.158 90.967 185.953 90.4376 186.154 89.9816L187.05 87.9762C186.656 87.9298 186.285 87.8178 185.945 87.6593L184.354 89.375C184.176 89.5643 183.937 89.6609 183.693 89.6609C183.473 89.6609 183.257 89.5798 183.083 89.4214C182.72 89.0813 182.701 88.5133 183.037 88.1501L184.547 86.5156C184.362 86.2683 184.203 85.9939 184.083 85.7003L183.211 86.844C183.211 86.844 183.195 86.8634 183.187 86.8711C183.16 86.9059 183.129 86.9329 183.098 86.9638C183.079 86.9793 183.064 86.9986 183.044 87.0102C183.037 87.0179 183.029 87.0256 183.021 87.0295L183.013 87.0372ZM198.932 70.9319C199.199 66.55 196.649 63.7834 196.402 63.5245C196.012 63.2424 195.911 62.7053 196.178 62.3034C197.967 59.614 198.913 56.4726 198.913 53.2268C198.913 44.1694 191.546 36.8045 182.496 36.8045C173.445 36.8045 166.075 44.1733 166.075 53.2268C166.075 56.4996 167.033 59.6604 168.848 62.3653L169.266 62.9835L168.729 63.509C168.702 63.5322 165.901 66.3568 166.179 70.9357C166.473 75.7697 169.93 80.7775 176.451 85.8123C176.787 86.0751 177.188 86.2181 177.613 86.2181C177.644 86.2181 177.667 86.2181 177.694 86.2103L177.212 85.6887C176.872 85.3216 176.895 84.7574 177.258 84.4174C177.621 84.0774 178.189 84.1006 178.525 84.4638L179.259 85.252C179.413 84.9777 179.506 84.657 179.506 84.3208V84.2783C179.514 84.1972 179.842 76.0363 176.041 71.4496C175.728 71.0671 175.778 70.4991 176.161 70.1861C176.543 69.8692 177.111 69.9233 177.424 70.302C180.761 74.3361 181.256 80.4877 181.31 83.1152L182.515 84.7961L183.798 83.1075C183.848 80.4799 184.346 74.3284 187.684 70.2982C188 69.9195 188.568 69.8654 188.951 70.1822C189.329 70.4952 189.383 71.0632 189.067 71.4458C185.269 76.0324 185.598 84.1933 185.602 84.2744V84.3169C185.602 84.6222 185.675 84.9081 185.806 85.1632L186.459 84.4599C186.795 84.0928 187.363 84.0735 187.73 84.4135C188.093 84.7536 188.112 85.3177 187.776 85.6848L187.297 86.1987C187.363 86.2065 187.429 86.2103 187.494 86.2103C187.919 86.2103 188.325 86.0712 188.657 85.8085C195.181 80.7736 198.635 75.7697 198.928 70.9319H198.932Z" fill="#F9FFF2"/>
<path d="M182.839 58.7407L182.901 58.7678C182.936 58.7871 182.963 58.8064 182.998 58.8296C183.017 58.8412 183.033 58.8528 183.048 58.8644C183.06 58.8721 183.075 58.8837 183.087 58.8914C183.106 58.9108 183.121 58.9301 183.141 58.9533C183.148 58.961 183.16 58.9649 183.164 58.9726C183.62 59.4904 184.276 59.7879 184.964 59.7879C185.401 59.7879 185.825 59.672 186.196 59.4479C186.621 59.1928 187.174 59.3281 187.429 59.7531C187.683 60.1782 187.548 60.7307 187.123 60.9858C186.471 61.3799 185.725 61.5847 184.96 61.5847C184.06 61.5847 183.199 61.2987 182.488 60.7771C181.773 61.2987 180.912 61.5847 180.016 61.5847C179.251 61.5847 178.502 61.3799 177.853 60.9858C177.428 60.7269 177.289 60.1782 177.547 59.7531C177.802 59.3281 178.355 59.189 178.78 59.4479C179.147 59.672 179.575 59.7879 180.012 59.7879C180.699 59.7879 181.352 59.4904 181.808 58.9726C181.816 58.9649 181.827 58.9571 181.831 58.9533C181.851 58.9339 181.866 58.9108 181.889 58.8914L181.924 58.8644C181.924 58.8644 181.959 58.8412 181.978 58.8257C182.009 58.8064 182.04 58.7871 182.071 58.7678C182.09 58.7601 182.113 58.7485 182.136 58.7407C182.167 58.7253 182.198 58.7137 182.229 58.706C182.256 58.6982 182.279 58.6944 182.303 58.6905C182.333 58.6828 182.364 58.6789 182.395 58.675C182.422 58.675 182.453 58.675 182.48 58.675C182.507 58.675 182.534 58.675 182.561 58.675C182.596 58.675 182.623 58.6828 182.658 58.6905C182.681 58.6905 182.704 58.6982 182.727 58.706C182.762 58.7137 182.797 58.7291 182.828 58.7407H182.839Z" fill="#F9FFF2"/>
<path d="M174.96 50.2437C176.315 50.2437 177.42 51.3488 177.42 52.7051C177.42 54.0614 176.315 55.1665 174.96 55.1665C173.604 55.1665 172.499 54.0614 172.499 52.7051C172.499 51.3488 173.604 50.2437 174.96 50.2437ZM175.825 52.7051C175.825 52.2298 175.439 51.8396 174.96 51.8396C174.481 51.8396 174.094 52.2298 174.094 52.7051C174.094 53.1804 174.485 53.5707 174.96 53.5707C175.435 53.5707 175.825 53.1804 175.825 52.7051Z" fill="#F9FFF2"/>
<path d="M11.9555 85.1399C12.531 85.1399 12.7512 84.9622 12.7512 84.3439V78.8531C12.7512 77.5664 13.1066 77.2148 14.389 77.2148H17.3132C18.5957 77.2148 18.951 77.5703 18.951 78.7642V84.3439C18.951 84.9622 19.1287 85.1399 19.7468 85.1399H26.2132C26.7887 85.1399 27.0089 84.9622 27.0089 84.3439V78.3199C27.0089 77.037 27.3643 76.6815 28.6468 76.6815H31.5709C32.8534 76.6815 33.2088 77.037 33.2088 78.3199V89.6145C33.2088 90.8974 32.8534 91.2529 31.5709 91.2529H1.63784C0.35538 91.2529 0 90.8974 0 89.6145V78.3199C0 77.037 0.35538 76.6815 1.63784 76.6815H4.562C5.84446 76.6815 6.19984 77.037 6.19984 78.3199V84.3439C6.19984 84.9622 6.37753 85.1399 6.99559 85.1399H11.9555Z" fill="#F9FFF2"/>
<path d="M6.19984 60.6457C6.19984 61.264 6.37753 61.4417 6.99559 61.4417H31.5709C32.8534 61.4417 33.2088 61.7972 33.2088 63.0801V65.9163C33.2088 67.1992 32.8534 67.5546 31.5709 67.5546H6.99559C6.37753 67.5546 6.19984 67.7324 6.19984 68.3506V71.098C6.19984 72.3808 5.84446 72.7363 4.562 72.7363H1.63784C0.35538 72.7363 0 72.3808 0 71.098V57.8984C0 56.6155 0.35538 56.26 1.63784 56.26H4.562C5.84446 56.26 6.19984 56.6155 6.19984 57.8984V60.6457Z" fill="#F9FFF2"/>
<path d="M19.6155 41.1168C18.9974 41.1168 18.8197 41.2945 18.8197 41.9128V45.545C18.8197 46.1632 18.9974 46.341 19.6155 46.341H31.5709C32.8534 46.341 33.2088 46.6965 33.2088 47.9794V50.8156C33.2088 52.0984 32.8534 52.4539 31.5709 52.4539H1.63784C0.35538 52.4539 0 52.0984 0 50.8156V47.9794C0 46.6965 0.35538 46.341 1.63784 46.341H11.8241C12.3997 46.341 12.6199 46.1632 12.6199 45.545V41.9128C12.6199 41.2907 12.3997 41.1168 11.8241 41.1168H1.63784C0.35538 41.1168 0 40.7613 0 39.4784V36.6422C0 35.3555 0.35538 35 1.63784 35H31.5709C32.8534 35 33.2088 35.3555 33.2088 36.6384V39.4746C33.2088 40.7574 32.8534 41.1129 31.5709 41.1129H19.6155V41.1168Z" fill="#F9FFF2"/>
</g>
<defs>
<clipPath id="clip0_3989_1078">
<rect width="310" height="57.0025" fill="white" transform="translate(0 35)"/>
</clipPath>
</defs>
</svg>
