<svg width="188" height="131" viewBox="0 0 188 131" fill="none" xmlns="http://www.w3.org/2000/svg">
<path d="M78.5862 56.4452L86.4587 65.9718L81.5106 71.9582C76.0445 76.4967 70.7952 78.5638 65.7936 78.9992C71.6059 78.247 75.1692 74.1383 75.1692 68.6271C75.1692 63.1158 70.7164 58.6338 65.2223 58.6338C61.3606 58.6338 58.0112 60.848 56.3646 64.0801C56.3646 57.1323 61.9657 51.7822 68.8813 51.7822C72.6895 51.7822 76.2725 53.7334 78.5693 56.4254C78.5749 56.431 78.5805 56.4395 78.5862 56.4452Z" fill="#84CCF5"/>
<path d="M65.7936 78.9992C70.7952 78.5638 76.0445 76.4967 81.5106 71.9582L68.6589 87.5079C65.2251 88.2488 61.9038 88.2092 58.6979 87.6323C56.0353 82.2455 50.5045 78.5439 44.1153 78.5439C42.6883 78.5439 41.3034 78.7278 39.9834 79.0756L39.9749 79.0416C35.3617 76.0018 31.1623 72.9054 27.4188 71.025C19.5491 67.0718 11.9496 69.6535 7.10276 72.3767L1.87315 66.0482C2.48675 65.4883 7.49117 61.0827 14.2773 59.5529C17.8322 58.7498 21.8768 58.7356 26.0368 60.4832C26.4421 60.6528 26.8503 60.8395 27.2584 61.0459C30.4868 62.669 34.0586 65.2819 37.9428 68.0248C45.9757 73.6944 55.3457 79.9069 65.7936 78.9992Z" fill="#84CCF5"/>
<path d="M78.4314 25.0884C78.8761 25.0233 79.2082 25.6087 79.0309 26.1431L74.0827 40.8587L44.135 5.01989L57.4651 1.66054C57.8732 1.54743 58.2391 2.014 58.1603 2.54562L55.9593 13.7322C55.8805 14.2609 56.2379 14.7247 56.646 14.6201L67.2629 13.6756C67.6626 13.571 68.0172 14.0178 67.9525 14.5409L65.8612 24.9979C65.7993 25.4956 66.1173 25.931 66.5029 25.8745L78.4314 25.0884Z" fill="#F67A38"/>
<path d="M71.2737 47.6L78.5693 56.4254C76.2725 53.7334 72.6895 51.7822 68.8813 51.7822C61.9657 51.7822 56.3646 57.1323 56.3646 64.0801C58.0112 60.848 61.3606 58.6338 65.2223 58.6338C70.7164 58.6338 75.1692 63.1102 75.1692 68.6271C75.1692 74.144 71.6059 78.247 65.7936 78.9992C55.3457 79.9069 45.9757 73.6944 37.9428 68.0248L48.4948 55.6336L53.9806 49.1948L56.4265 46.3219C57.1442 45.482 57.9914 44.8147 58.9175 44.334C61.6167 42.9286 64.9689 43.0784 67.5809 44.9532L71.2737 47.6Z" fill="#84E9B7"/>
<path d="M59.9054 33.843L71.2737 47.6L67.5809 44.9532C64.9689 43.0784 61.6167 42.9286 58.9175 44.334L58.8555 44.0229C59.0216 43.2396 59.0441 42.4139 58.8978 41.5741C58.6473 40.1546 57.9492 38.9273 56.9726 38.014L59.9054 33.843Z" fill="#EFB73B"/>
<path d="M68.6589 87.5079L60.3811 97.5237L60.1841 97.4926C60.3192 96.6472 60.3895 95.7819 60.3895 94.8968C60.3895 92.2868 59.7816 89.821 58.6979 87.6323C61.9038 88.2092 65.2251 88.2488 68.6589 87.5079Z" fill="#F9FFF2"/>
<path d="M42.1647 123.533C42.1647 123.986 42.1535 124.243 42.1535 124.243C42.1535 125.117 41.7313 125.892 41.0783 126.372C40.6448 126.692 40.11 126.879 39.533 126.879C39.2009 126.879 38.88 126.816 38.5873 126.7C38.3453 126.607 38.1201 126.48 37.9202 126.321C21.0915 113.274 30.5881 103.991 30.5881 103.991C29.299 102.059 28.4096 99.8368 28.038 97.4446C27.9086 96.6132 27.841 95.7649 27.841 94.8968C27.841 90.9351 29.2427 87.3015 31.5761 84.4709C33.7152 81.875 36.6396 79.955 39.9834 79.0756C41.3034 78.7278 42.6883 78.5439 44.1153 78.5439C50.5045 78.5439 56.0353 82.2455 58.6979 87.6323C59.7816 89.821 60.3895 92.2868 60.3895 94.8968C60.3895 95.7819 60.3192 96.6472 60.1841 97.4926C59.8125 99.8425 58.94 102.028 57.679 103.931L57.7578 103.991C57.7578 103.991 67.2544 113.274 50.4257 126.321C49.981 126.669 49.4209 126.879 48.8129 126.879C48.2049 126.879 47.6448 126.669 47.2001 126.319C46.5865 125.838 46.1925 125.086 46.1925 124.243C46.1925 124.243 46.1812 123.986 46.1812 123.533H46.0743L44.1153 126.124L42.2717 123.533H42.1647ZM56.4434 94.8968C56.4434 94.0485 56.359 93.2199 56.1957 92.4168C55.053 86.7642 50.0795 82.5113 44.1153 82.5113C38.1511 82.5113 33.186 86.7557 32.0377 92.3999C31.8744 93.2086 31.7871 94.0428 31.7871 94.8968C31.7871 98.143 33.0312 101.101 35.069 103.309C37.3207 105.752 40.5407 107.282 44.1153 107.282C47.6899 107.282 50.952 105.733 53.2038 103.261C55.2162 101.058 56.4434 98.1204 56.4434 94.8968Z" fill="#F67A38"/>
<path d="M52.6577 25.0742L59.9054 33.843L56.9726 38.014C55.8551 36.9677 54.3746 36.3343 52.7928 36.2947L52.8013 35.8988L52.6577 25.0742Z" fill="#F9FFF2"/>
<path d="M58.8978 41.5741C59.0441 42.4139 59.0216 43.2396 58.8555 44.0229L58.9175 44.334C57.9914 44.8147 57.1442 45.482 56.4265 46.3219L53.9806 49.1948L53.7357 48.9828C52.3002 49.2373 50.8929 48.9884 49.6939 48.3607C48.7228 47.8545 47.8897 47.1023 47.2874 46.1692C46.837 45.4707 46.5133 44.6733 46.3614 43.7995C46.3079 43.4941 46.2769 43.1915 46.2685 42.889C46.2263 41.6646 46.5415 40.4854 47.1269 39.4759C47.6617 38.5512 48.4245 37.7651 49.3505 37.2081C50.0007 36.8122 50.7325 36.5322 51.5234 36.3908C51.9512 36.3145 52.3762 36.2834 52.7928 36.2947C54.3746 36.3343 55.8551 36.9677 56.9726 38.014C57.9492 38.9273 58.6473 40.1546 58.8978 41.5741Z" fill="#EFB73B"/>
<path d="M56.1957 92.4168C56.359 93.2199 56.4434 94.0485 56.4434 94.8968C56.4434 98.1204 55.2162 101.058 53.2038 103.261C53.6091 102.665 53.8173 102.031 53.9046 101.426C54.096 100.1 53.0039 98.9009 51.6782 99.0649C51.4868 99.0903 51.2926 99.1016 51.0956 99.1016C48.447 99.1016 46.3135 96.8847 46.4373 94.1983C46.5471 91.8117 48.5005 89.8493 50.876 89.739C52.5536 89.6626 54.6814 90.1349 56.1957 92.4168ZM52.8547 94.4189C52.8547 93.4433 52.0666 92.6516 51.0956 92.6516C50.1245 92.6516 49.3364 93.4433 49.3364 94.4189C49.3364 95.3945 50.1245 96.1862 51.0956 96.1862C52.0666 96.1862 52.8547 95.3945 52.8547 94.4189Z" fill="#EFB73B"/>
<path d="M53.9806 49.1948L48.4948 55.6336L48.2809 55.4498L46.2628 53.2357L49.6939 48.3607C50.8929 48.9884 52.3002 49.2373 53.7357 48.9828L53.9806 49.1948Z" fill="#F9FFF2"/>
<path d="M51.6782 99.0649C53.0039 98.9009 54.096 100.1 53.9046 101.426C53.8173 102.031 53.6091 102.665 53.2038 103.261C50.952 105.733 47.7152 107.282 44.1153 107.282C40.5154 107.282 37.3207 105.752 35.069 103.309L35.1338 103.25C34.7284 102.653 34.5202 102.02 34.4329 101.415C34.2443 100.089 35.3364 98.8895 36.6593 99.0564C36.8507 99.079 37.0449 99.0903 37.2447 99.0903C39.8905 99.0903 42.024 96.8734 41.9002 94.187C41.7904 91.8004 39.837 89.838 37.4643 89.7277C35.7839 89.6513 33.6589 90.1236 32.1418 92.4055L32.0377 92.3999C33.186 86.7557 38.1567 82.5113 44.1153 82.5113C50.0739 82.5113 55.053 86.7642 56.1957 92.4168C54.6814 90.1349 52.5536 89.6626 50.876 89.739C48.5005 89.8493 46.5471 91.8117 46.4373 94.1983C46.3135 96.8847 48.447 99.1016 51.0956 99.1016C51.2926 99.1016 51.4868 99.0903 51.6782 99.0649ZM44.5684 97.7217C44.5684 97.5775 44.363 97.4587 44.1068 97.4587C43.8507 97.4587 43.648 97.5775 43.648 97.7217C43.648 97.8659 43.8535 97.9847 44.1068 97.9847C44.3601 97.9847 44.5684 97.8687 44.5684 97.7217Z" fill="#F9FFF2"/>
<path d="M52.6577 25.0742L52.8013 35.8988L52.7928 36.2947C52.3762 36.2834 51.9512 36.3145 51.5234 36.3908C50.7325 36.5322 50.0007 36.8122 49.3505 37.2081L49.1675 36.9111L39.4542 20.4226L44.135 14.7615L52.6577 25.0742Z" fill="#EFB73B"/>
<path d="M51.0956 96.1862C52.0666 96.1862 52.8547 95.3945 52.8547 94.4189C52.8547 93.4433 52.0666 92.6516 51.0956 92.6516C50.1245 92.6516 49.3364 93.4433 49.3364 94.4189C49.3364 95.3945 50.1245 96.1862 51.0956 96.1862Z" fill="#F9FFF2"/>
<path d="M49.6939 48.3607L46.2628 53.2357L43.2962 49.9781C42.7586 49.3871 42.1113 48.963 41.4132 48.7056L46.8314 46.3417L47.2874 46.1692C47.8897 47.1023 48.7228 47.8545 49.6939 48.3607Z" fill="#EFB73B"/>
<path d="M49.1675 36.9111L49.3505 37.2081C48.4245 37.7651 47.6617 38.5512 47.1269 39.4759L46.9581 39.3741L31.2552 30.7806L31.0413 30.6025L39.4542 20.4226L49.1675 36.9111Z" fill="#F9FFF2"/>
<path d="M35.1816 51.047L36.3243 49.8678C37.6923 48.4568 39.6991 48.0751 41.4132 48.7056C42.1113 48.963 42.7586 49.3871 43.2962 49.9781L46.2628 53.2357L48.2809 55.4498L48.4948 55.6336L37.9428 68.0248C34.0586 65.2819 30.4868 62.669 27.2584 61.0459C26.8503 60.8395 26.4421 60.6528 26.0368 60.4832L35.1816 51.047Z" fill="#84E9B7"/>
<path d="M47.2874 46.1692L46.8314 46.3417L41.4132 48.7056C39.6991 48.0751 37.6923 48.4568 36.3243 49.8678L35.1816 51.047L14.2716 59.5274L14.2773 59.5529C7.49117 61.0827 2.48675 65.4883 1.87315 66.0482L1.80842 65.9718L20.3006 43.5959L46.2657 42.889C46.2741 43.1915 46.3051 43.4941 46.3585 43.7995C46.5105 44.6733 46.8342 45.4707 47.2846 46.1692L47.2874 46.1692Z" fill="#F9FFF2"/>
<path d="M46.9581 39.3741L47.1269 39.4759C46.5415 40.4854 46.2263 41.6646 46.2685 42.889L20.3034 43.5959L31.0413 30.6025L31.2552 30.7806L46.9581 39.3741Z" fill="#EFB73B"/>
<path d="M44.135 5.01989L14.1844 40.8587L9.23625 26.1431C9.05893 25.6087 9.39106 25.0233 9.83577 25.0884L21.767 25.8745C22.1498 25.931 22.4679 25.4956 22.406 24.9979L20.3147 14.5409C20.2499 14.0178 20.6046 13.571 21.0043 13.6756L31.6211 14.6201C32.0292 14.7247 32.3867 14.2609 32.3107 13.7322L30.1096 2.54562C30.028 2.014 30.3939 1.54743 30.802 1.66054L44.135 5.01989Z" fill="#F67A38"/>
<path d="M41.9002 94.187C42.024 96.8734 39.8905 99.0903 37.2447 99.0903C37.0449 99.0903 36.8507 99.079 36.6593 99.0564C35.3364 98.8895 34.2443 100.089 34.4329 101.415C34.5202 102.02 34.7284 102.653 35.1338 103.25L35.069 103.309C33.0312 101.101 31.7871 98.143 31.7871 94.8968C31.7871 94.0428 31.8744 93.2086 32.0377 92.3999L32.1418 92.4055C33.6589 90.1236 35.7839 89.6513 37.4643 89.7277C39.837 89.838 41.7904 91.8004 41.9002 94.187ZM39.0039 94.4076C39.0039 93.432 38.2158 92.6402 37.2447 92.6402C36.2737 92.6402 35.4856 93.432 35.4856 94.4076C35.4856 95.3831 36.2709 96.1749 37.2447 96.1749C38.2186 96.1749 39.0039 95.3831 39.0039 94.4076Z" fill="#EFB73B"/>
<path d="M39.9749 79.0416L39.9834 79.0756C36.6396 79.955 33.7152 81.875 31.5761 84.4709C29.9098 83.3935 28.3167 82.4321 26.7996 81.6686C21.8824 79.1972 17.6858 79.1434 13.5849 80.218L7.10276 72.3767C11.9496 69.6535 19.5491 67.0718 27.4188 71.025C31.1623 72.9054 35.3617 76.0018 39.9749 79.0416Z" fill="#F9FFF2"/>
<path d="M37.2447 92.6402C38.2158 92.6402 39.0039 93.432 39.0039 94.4076C39.0039 95.3831 38.2158 96.1749 37.2447 96.1749C36.2737 96.1749 35.4856 95.3831 35.4856 94.4076C35.4856 93.432 36.2709 92.6402 37.2447 92.6402Z" fill="#F9FFF2"/>
<path d="M35.1816 51.047L26.0368 60.4832C21.8768 58.7356 17.8322 58.7498 14.2773 59.5529L14.2716 59.5274L35.1816 51.047Z" fill="#EFB73B"/>
<path d="M28.038 97.4446L27.8467 97.4757L13.5849 80.218C17.6858 79.1434 21.8824 79.1972 26.7996 81.6686C28.3167 82.4321 29.9098 83.3935 31.5761 84.4709C29.2427 87.3015 27.841 90.9351 27.841 94.8968C27.841 95.7649 27.9086 96.6132 28.038 97.4446Z" fill="#84CCF5"/>
<path d="M47.597 100.767C47.2452 100.979 46.8455 101.092 46.4373 101.092C45.7928 101.092 45.1764 100.812 44.7289 100.303C44.6979 100.269 44.6613 100.238 44.6247 100.21C44.6163 100.204 44.6078 100.196 44.5994 100.19C44.5712 100.171 44.5403 100.154 44.5093 100.139C44.4896 100.128 44.4727 100.117 44.453 100.108C44.4333 100.1 44.4108 100.094 44.3883 100.086C44.3573 100.074 44.3264 100.063 44.2926 100.057C44.2757 100.055 44.2616 100.055 44.2447 100.052C44.2053 100.046 44.1659 100.04 44.1265 100.04C44.1237 100.04 44.1181 100.04 44.1153 100.04C44.104 100.04 44.0956 100.043 44.0843 100.043C44.0393 100.043 43.9914 100.049 43.9464 100.057C43.9295 100.06 43.9126 100.066 43.8957 100.072C43.8563 100.083 43.8169 100.097 43.7775 100.111C43.7606 100.12 43.7437 100.125 43.7297 100.134C43.6931 100.154 43.6593 100.173 43.6255 100.199C43.6115 100.21 43.5974 100.219 43.5833 100.23C43.572 100.238 43.558 100.247 43.5467 100.258C43.527 100.278 43.5101 100.301 43.4904 100.32C43.4848 100.329 43.4763 100.335 43.4679 100.34C43.0344 100.818 42.4237 101.092 41.7904 101.092C41.3794 101.092 40.9798 100.979 40.6307 100.767C40.2311 100.524 39.7132 100.651 39.4711 101.053C39.2291 101.454 39.3557 101.975 39.7554 102.218C40.3662 102.591 41.0698 102.786 41.7904 102.786C42.6291 102.786 43.4426 102.515 44.1125 102.023C44.7823 102.515 45.593 102.786 46.4373 102.786C47.1523 102.786 47.8559 102.588 48.4695 102.218C48.8692 101.977 48.9987 101.454 48.7566 101.053C48.5174 100.651 47.9967 100.521 47.597 100.764V100.767Z" fill="#0E2C5E"/>
<path d="M44.1068 98.833C44.8527 98.833 45.4128 98.3551 45.4128 97.7217C45.4128 97.0883 44.8527 96.6104 44.1068 96.6104C43.3609 96.6104 42.8036 97.0883 42.8036 97.7217C42.8036 98.3551 43.3638 98.833 44.1068 98.833Z" fill="#0E2C5E"/>
<path d="M51.0956 91.8032C49.6601 91.8032 48.492 92.9767 48.492 94.4189C48.492 95.861 49.6601 97.0345 51.0956 97.0345C52.531 97.0345 53.6991 95.861 53.6991 94.4189C53.6991 92.9767 52.531 91.8032 51.0956 91.8032ZM51.0956 95.3379C50.5918 95.3379 50.1808 94.9251 50.1808 94.4189C50.1808 93.9127 50.5918 93.4999 51.0956 93.4999C51.5994 93.4999 52.0103 93.9127 52.0103 94.4189C52.0103 94.9251 51.5994 95.3379 51.0956 95.3379Z" fill="#0E2C5E"/>
<path d="M39.8483 94.4076C39.8483 92.9654 38.6802 91.7919 37.2447 91.7919C35.8093 91.7919 34.6412 92.9654 34.6412 94.4076C34.6412 95.8497 35.8093 97.0232 37.2447 97.0232C38.6802 97.0232 39.8483 95.8497 39.8483 94.4076ZM36.33 94.4076C36.33 93.9014 36.7409 93.4886 37.2447 93.4886C37.7486 93.4886 38.1595 93.9014 38.1595 94.4076C38.1595 94.9137 37.7486 95.3266 37.2447 95.3266C36.7409 95.3266 36.33 94.9137 36.33 94.4076Z" fill="#0E2C5E"/>
<path d="M57.026 92.2613C57.026 92.2613 57.026 92.2557 57.026 92.2528C57.026 92.2528 57.026 92.2472 57.026 92.2444C55.7848 86.111 50.3581 81.6601 44.1181 81.6601C37.878 81.6601 32.4598 86.1053 31.213 92.2274C31.0356 93.1068 30.9456 94.0032 30.9456 94.8939C30.9456 98.2392 32.1896 101.432 34.4526 103.883C36.9379 106.581 40.4619 108.128 44.1181 108.128C47.7743 108.128 51.3405 106.561 53.8286 103.832C56.0606 101.389 57.2906 98.2137 57.2906 94.8939C57.2906 94.006 57.2033 93.1181 57.0288 92.2585L57.026 92.2613ZM34.4104 99.0451C34.1458 99.3137 33.9432 99.6304 33.8024 99.9726C33.0368 98.4088 32.6315 96.6782 32.6315 94.8968C32.6315 94.2407 32.6906 93.579 32.8004 92.9287C32.8145 92.9117 32.8286 92.8976 32.8426 92.8778C33.9178 91.2603 35.4603 90.4827 37.4249 90.576C39.3726 90.6665 40.9657 92.2698 41.0558 94.2266C41.1036 95.287 40.7321 96.2908 40.0059 97.0543C39.2769 97.8207 38.2974 98.242 37.2447 98.242C37.0787 98.242 36.9182 98.2335 36.7634 98.2137C35.8937 98.1034 35.0352 98.406 34.4104 99.0451ZM53.0686 101.304C52.9926 101.833 52.8097 102.317 52.5339 102.738C50.3666 105.088 47.3043 106.434 44.1153 106.434C40.9263 106.434 38.0835 105.178 35.9303 102.981C35.905 102.908 35.874 102.837 35.829 102.769C35.5334 102.337 35.3449 101.839 35.266 101.293C35.2098 100.9 35.3364 100.515 35.6122 100.233C35.7614 100.083 36.0795 99.8397 36.558 99.8962C36.7803 99.9217 37.0111 99.9358 37.2419 99.9358C38.7618 99.9358 40.1748 99.3278 41.2246 98.2222C42.2717 97.1194 42.8121 95.6716 42.7417 94.1446C42.6123 91.3225 40.3099 89.0066 37.5009 88.8765C36.4454 88.8284 35.1422 88.9755 33.8841 89.6513C35.8093 85.8763 39.7329 83.3568 44.1153 83.3568C48.4977 83.3568 52.3734 85.848 54.3099 89.5835C53.0996 88.9727 51.8527 88.8426 50.8366 88.8878C48.0276 89.0179 45.7224 91.331 45.593 94.1559C45.5226 95.6829 46.0602 97.1307 47.11 98.2335C48.1599 99.3391 49.5757 99.9471 51.0956 99.9471C51.3348 99.9471 51.5684 99.933 51.7823 99.9047C52.258 99.8453 52.5789 100.091 52.7253 100.244C53.0011 100.527 53.1249 100.911 53.0686 101.302V101.304ZM54.4816 99.8566C54.3437 99.5654 54.1607 99.2939 53.9327 99.0592C53.3079 98.4201 52.4494 98.1176 51.5684 98.2222C51.4221 98.242 51.2616 98.2505 51.0956 98.2505C50.0401 98.2505 49.0606 97.8291 48.3316 97.0628C47.6054 96.2993 47.2311 95.2955 47.2817 94.2351C47.3718 92.2783 48.9677 90.675 50.9154 90.5845C52.8238 90.4968 54.3296 91.2264 55.3992 92.7505C55.5315 93.4518 55.6018 94.1729 55.6018 94.8968C55.6018 96.633 55.2134 98.3212 54.4844 99.8566H54.4816Z" fill="#0E2C5E"/>
<path d="M60.9159 98.1741C60.9553 98.1402 60.9947 98.1063 61.0284 98.0638L87.5536 65.969L79.2335 55.8994C79.2335 55.8994 79.2307 55.8966 79.2279 55.8938C79.2279 55.8938 79.2251 55.8881 79.2223 55.8853L79.2167 55.8768L44.135 13.4324L38.7815 19.9079C38.7815 19.9079 38.7759 19.9164 38.7731 19.9193L0.705078 65.9775L0.994986 66.3196C1.02595 66.4441 1.08505 66.5628 1.17231 66.6646C1.25393 66.7579 1.35245 66.8286 1.45659 66.8767L27.1937 98.0186C27.2246 98.0582 27.2612 98.0893 27.2978 98.1204C27.6834 100.182 28.4293 102.124 29.527 103.912C28.646 105.003 26.8643 107.726 27.0867 111.674C27.3766 116.758 30.8442 121.91 37.3911 126.989C37.3911 126.989 37.3967 126.992 37.3967 126.994C37.3967 126.994 37.3995 126.994 37.4024 126.997C37.5684 127.127 37.7486 127.243 37.9399 127.339L39.2459 130.289C39.3867 130.605 39.6935 130.792 40.0172 130.792C40.1326 130.792 40.248 130.769 40.3605 130.719C40.7856 130.529 40.9769 130.026 40.7884 129.599L39.9468 127.701C40.2789 127.662 40.6026 127.574 40.9066 127.441L42.3646 129.022C42.5306 129.203 42.7558 129.293 42.9838 129.293C43.1893 129.293 43.3947 129.22 43.558 129.067C43.8985 128.748 43.9211 128.213 43.603 127.868L42.2463 126.398C42.4349 126.157 42.5869 125.894 42.708 125.615L43.4229 126.621C43.4229 126.621 43.4369 126.635 43.4454 126.644C43.4707 126.678 43.5017 126.709 43.5326 126.74C43.5495 126.757 43.5636 126.771 43.5833 126.788C43.5889 126.794 43.5946 126.799 43.6002 126.805C43.6396 126.836 43.6818 126.862 43.7269 126.884C43.7353 126.887 43.7437 126.89 43.7494 126.895C43.7972 126.918 43.8451 126.935 43.8929 126.949C43.907 126.952 43.9211 126.958 43.9351 126.961C43.9914 126.972 44.0505 126.98 44.1096 126.98C44.1659 126.98 44.2222 126.972 44.2785 126.961C44.2926 126.961 44.3039 126.955 44.3179 126.952C44.3686 126.938 44.4193 126.921 44.4671 126.898C44.4727 126.898 44.4784 126.895 44.4812 126.893C44.5234 126.873 44.5628 126.847 44.5994 126.822C44.6078 126.816 44.6135 126.811 44.6191 126.805C44.6388 126.791 44.6557 126.774 44.6726 126.757C44.7035 126.729 44.7317 126.7 44.757 126.669C44.7655 126.661 44.7739 126.655 44.7795 126.644L45.5986 125.561C45.7084 125.835 45.8547 126.095 46.0349 126.333L44.6163 127.871C44.2982 128.213 44.3207 128.75 44.6613 129.07C44.8246 129.223 45.03 129.296 45.2355 129.296C45.4635 129.296 45.6887 129.206 45.8547 129.025L47.3465 127.407C47.6758 127.563 48.0248 127.662 48.3879 127.704L47.5463 129.602C47.3577 130.029 47.5463 130.532 47.9741 130.721C48.0867 130.772 48.2021 130.795 48.3175 130.795C48.6412 130.795 48.948 130.608 49.0887 130.292L50.3975 127.339C50.5861 127.243 50.7663 127.13 50.9323 126.997C57.482 121.919 60.9496 116.764 61.2395 111.679C61.4703 107.622 59.5789 104.859 58.7289 103.832C59.79 102.085 60.519 100.19 60.9046 98.1826L60.9159 98.1741ZM26.9994 95.123L15.1132 80.7411C19.0537 79.9691 22.5945 80.5036 26.4196 82.4264C27.5624 83.0005 28.8233 83.7272 30.3376 84.6858C28.176 87.6295 26.9938 91.2179 26.9938 94.8968C26.9938 94.9731 26.9966 95.0495 26.9994 95.1258V95.123ZM31.4156 83.3624C29.7747 82.319 28.4124 81.5329 27.1768 80.9108C22.7662 78.6938 18.5302 78.1707 13.8973 79.2707L8.41156 72.634C13.1739 70.1654 20.0107 68.2538 27.0417 71.7857C29.7212 73.1317 32.6935 75.1478 35.8402 77.2856C36.572 77.7833 37.3235 78.2895 38.0807 78.7984C35.5306 79.7599 33.2592 81.3123 31.4156 83.3653V83.3624ZM40.172 78.1566C39.018 77.3931 37.8808 76.6239 36.7831 75.8774C33.5885 73.7085 30.5712 71.6612 27.796 70.2672C19.9713 66.3366 12.4393 68.562 7.30822 71.2993L3.05249 66.15C4.63713 64.8379 8.94353 61.6256 14.463 60.3814C18.4064 59.4906 22.192 59.7876 25.7132 61.2665C26.1128 61.4333 26.5041 61.6143 26.8812 61.8037C29.7015 63.2204 32.8567 65.4572 36.1977 67.8268L37.4586 68.7204C45.5423 74.4239 54.1973 79.938 63.7446 79.938C64.4229 79.938 65.1097 79.9098 65.7964 79.8504C65.8077 79.8504 65.8218 79.8504 65.833 79.8504H65.8584C65.8584 79.8504 65.864 79.8504 65.8668 79.8475C69.5962 79.5224 73.2834 78.3092 76.8805 76.2365L68.203 86.7359C65.2729 87.3326 62.3372 87.375 59.2496 86.866C56.2717 81.202 50.5129 77.7013 44.1153 77.7013C42.7811 77.7013 41.4554 77.8568 40.172 78.1622V78.1566ZM31.213 31.7222L46.0123 39.8209C45.7055 40.5335 45.5141 41.2913 45.4494 42.0605L22.1414 42.6939L31.2101 31.7194L31.213 31.7222ZM39.3388 21.893L48.2162 36.9649C47.7039 37.3636 47.2451 37.833 46.8567 38.3561L32.3107 30.396L39.336 21.8958L39.3388 21.893ZM66.7844 43.4941C64.6143 42.4196 62.1233 42.2499 59.8294 43.0304C59.8547 42.4988 59.821 41.9615 59.7281 41.427C59.4973 40.1121 58.9231 38.9217 58.0618 37.9348L59.9589 35.2371L66.7844 43.4941ZM73.7422 51.9151C72.1829 51.2789 70.5279 50.9339 68.8813 50.9339C61.3887 50.9339 55.5202 56.7081 55.5202 64.0801C55.5202 64.097 55.523 64.1112 55.5258 64.1253C55.5258 64.1564 55.5286 64.1847 55.5343 64.2158C55.5399 64.2441 55.5455 64.2695 55.5512 64.295C55.5568 64.3204 55.5652 64.3487 55.5765 64.3742C55.5849 64.3996 55.5962 64.425 55.6103 64.4505C55.6215 64.4759 55.6356 64.4986 55.6497 64.5212C55.6637 64.5438 55.6778 64.5664 55.6947 64.5862C55.7116 64.6089 55.7285 64.6315 55.7482 64.6513C55.7651 64.6711 55.7848 64.6909 55.8045 64.7078C55.8242 64.7248 55.8439 64.7446 55.8664 64.7587C55.8917 64.7757 55.9142 64.7927 55.9424 64.8068C55.9565 64.8153 55.9677 64.8266 55.9818 64.8322C55.9902 64.8379 55.9987 64.8379 56.0099 64.8436C56.0381 64.8577 56.0662 64.8662 56.0944 64.8775C56.1197 64.886 56.145 64.8945 56.1704 64.9001C56.1957 64.9058 56.2239 64.9114 56.252 64.9143C56.2801 64.9171 56.3111 64.9227 56.3393 64.9227C56.3505 64.9227 56.359 64.9256 56.3674 64.9256C56.3843 64.9256 56.3984 64.9227 56.4152 64.9199C56.4434 64.9199 56.4744 64.9171 56.5025 64.9114C56.5307 64.9058 56.556 64.9001 56.5841 64.8945C56.6095 64.8888 56.6348 64.8803 56.6601 64.8718C56.6883 64.8605 56.7136 64.8492 56.7389 64.8379C56.7615 64.8266 56.7868 64.8153 56.8093 64.8011C56.8318 64.787 56.8543 64.77 56.8769 64.7559C56.8994 64.7418 56.9191 64.722 56.9416 64.7022C56.9613 64.6824 56.981 64.6654 56.9979 64.6428C57.0148 64.623 57.0317 64.6032 57.0485 64.5806C57.0654 64.5551 57.0823 64.5297 57.0964 64.5042C57.1048 64.4901 57.1133 64.4788 57.1217 64.4646C58.6867 61.3909 61.794 59.4793 65.2279 59.4793C70.2464 59.4793 74.3304 63.5824 74.3304 68.6242C74.3304 73.6661 71.0289 77.4553 65.712 78.1509C56.1704 78.9766 47.7039 73.8273 39.1953 67.8608L57.0739 46.8704C57.71 46.1239 58.4643 45.5244 59.3115 45.0833C61.8165 43.7769 64.8001 43.9918 67.0968 45.6404L70.7052 48.2249L73.7506 51.9095L73.7422 51.9151ZM25.8229 59.4878C23.8752 58.7356 21.8571 58.3058 19.7827 58.2068L31.7787 53.3431L25.8229 59.4878ZM36.9295 50.4588C38.0159 49.3391 39.6597 48.963 41.1233 49.5002C41.72 49.7208 42.2407 50.0714 42.6742 50.5493L45.6436 53.8069C45.6436 53.8069 45.6493 53.8125 45.6521 53.8182L47.3465 55.6789L37.802 66.8852L37.1716 66.4384C33.7771 64.032 30.5712 61.7613 27.6384 60.2852C27.5877 60.2598 27.5314 60.2343 27.4807 60.2089L36.9323 50.456L36.9295 50.4588ZM46.989 47.1985C47.4168 47.7386 47.9207 48.2164 48.4808 48.6123L46.1756 51.8869L43.9154 49.4069C43.7184 49.1892 43.5073 48.9941 43.285 48.8131L46.9862 47.1985H46.989ZM48.4526 54.3809L47.3465 53.1678L49.981 49.4239C50.71 49.7151 51.4727 49.882 52.2496 49.9216L48.4498 54.3809H48.4526ZM56.798 36.7896C55.8579 36.1194 54.7771 35.6839 53.64 35.5199L53.5331 27.4608L58.8415 33.8826L56.798 36.7867V36.7896ZM52.7703 37.143C54.1157 37.177 55.4048 37.7057 56.3955 38.6361C57.2765 39.4589 57.8535 40.5278 58.0646 41.7211C58.1885 42.4337 58.1772 43.1491 58.028 43.8476C58.028 43.8532 58.028 43.8589 58.028 43.8646C57.1893 44.3707 56.4378 45.007 55.7848 45.7705L53.7695 48.1373C53.7104 48.1373 53.6485 48.1373 53.5893 48.1486C52.3791 48.3635 51.1688 48.1769 50.0823 47.6085C49.2351 47.1674 48.5117 46.5085 47.9967 45.7082C47.5914 45.0805 47.3211 44.3877 47.1945 43.6525C47.1495 43.3895 47.1213 43.1237 47.1129 42.8607C47.0763 41.8258 47.3352 40.8049 47.8587 39.9029C48.326 39.0942 48.993 38.4127 49.7896 37.9348C50.361 37.587 50.9971 37.3494 51.6726 37.2279C52.0357 37.1628 52.4072 37.1345 52.7731 37.1458L52.7703 37.143ZM20.7059 44.4329L45.5029 43.7571C45.5113 43.8193 45.517 43.8815 45.5282 43.9437C45.638 44.5687 45.8266 45.1681 46.0883 45.7393L41.3682 47.7979C39.3698 47.2013 37.1856 47.7612 35.7192 49.274L34.7003 50.3259L13.9564 58.7385C13.9339 58.7469 13.917 58.7611 13.8945 58.7696C10.9757 59.4539 8.38342 60.65 6.31747 61.8433L20.7087 44.4301L20.7059 44.4329ZM63.4265 88.9104C64.4792 88.9104 65.5262 88.8454 66.5592 88.7182L61.2255 95.1711C61.2255 95.0806 61.2311 94.9873 61.2311 94.8968C61.2311 92.742 60.8399 90.6636 60.0771 88.6955C61.2001 88.8341 62.3176 88.9104 63.4237 88.9104H63.4265ZM80.9167 71.3502C78.3751 73.454 75.8363 75.0602 73.2609 76.1941C75.02 74.243 76.0136 71.6386 76.0136 68.6271C76.0136 62.6492 71.1724 57.7855 65.2223 57.7855C62.3288 57.7855 59.6352 58.9336 57.6509 60.9045C59.0216 56.0776 63.4659 52.6306 68.8813 52.6306C72.2251 52.6306 75.6055 54.2565 77.9275 56.9768L77.9332 56.9824C77.9332 56.9824 77.9388 56.9881 77.9416 56.9909L85.361 65.969L80.9167 71.3474V71.3502ZM51.8161 25.3853L51.9512 35.4803C51.7598 35.5001 51.5656 35.5227 51.3742 35.5567C50.7747 35.6641 50.2062 35.8479 49.6657 36.0911L40.4844 20.5046L44.135 16.0877L51.8161 25.3824V25.3853ZM59.5648 111.609C59.289 116.173 56.0409 120.895 49.9106 125.648C49.5475 125.934 49.0859 126.05 48.6412 126.005L49.0803 125.527C49.3983 125.185 49.3787 124.647 49.0353 124.328C48.6947 124.008 48.1599 124.028 47.8419 124.373L47.2283 125.038C47.1072 124.794 47.0397 124.52 47.0397 124.237V124.201C47.0397 124.201 47.0284 123.949 47.0284 123.53C47.0369 121.766 47.293 115.729 50.2962 112.089C50.5946 111.727 50.5439 111.193 50.1865 110.896C49.829 110.596 49.2942 110.647 48.9987 111.006C45.9082 114.75 45.4016 120.417 45.3481 123.092L44.1406 124.687L43.0091 123.095C42.9556 120.426 42.4518 114.753 39.3585 111.006C39.0602 110.644 38.5282 110.596 38.1708 110.896C37.8105 111.196 37.7626 111.73 38.061 112.089C41.0642 115.729 41.3203 121.766 41.3288 123.528C41.3288 123.949 41.3175 124.189 41.3175 124.201V124.237C41.3175 124.554 41.2331 124.854 41.0867 125.117L40.3999 124.373C40.0819 124.028 39.5499 124.008 39.2065 124.328C38.8632 124.647 38.8435 125.182 39.1615 125.527L39.6175 126.019C39.3754 126.03 39.1305 125.993 38.8997 125.903C38.7365 125.841 38.5845 125.753 38.4522 125.651C38.4522 125.651 38.4522 125.651 38.4494 125.651C38.4494 125.651 38.4494 125.651 38.4466 125.648C32.3163 120.895 29.0682 116.173 28.7924 111.609C28.5306 107.285 31.1623 104.621 31.1876 104.599L31.6914 104.107L31.3002 103.519C30.0421 101.635 29.2315 99.5484 28.8824 97.3145C28.7586 96.5171 28.6967 95.7055 28.6967 94.8968C28.6967 91.2914 29.9548 87.7822 32.2375 85.011C34.3147 82.4887 37.073 80.7213 40.2086 79.8956C41.478 79.5619 42.7952 79.3923 44.1265 79.3923C50.0288 79.3923 55.326 82.6951 57.952 88.0112C59.016 90.1603 59.5564 92.4762 59.5564 94.8968C59.5564 95.7225 59.4916 96.5482 59.3622 97.3597C59.016 99.5541 58.2166 101.607 56.9894 103.462C56.7361 103.844 56.8346 104.353 57.2005 104.619C57.4398 104.87 59.8266 107.483 59.5761 111.612L59.5648 111.609Z" fill="#0E2C5E"/>
<path d="M13.8635 42.561L44.135 6.34045L74.4008 42.561L79.8302 26.4117C80.0244 25.8292 79.9119 25.1873 79.5347 24.7377C79.2335 24.3758 78.7916 24.192 78.3497 24.2429L66.7196 25.0092L68.78 14.7077L68.7912 14.6455C68.8616 14.0743 68.6589 13.5031 68.2592 13.1525C67.9412 12.8725 67.5359 12.7594 67.1334 12.8358L56.8149 13.7548L58.9878 2.71246L58.9935 2.67287C59.0807 2.09035 58.8809 1.50501 58.4727 1.14306C58.1237 0.832008 57.6734 0.724554 57.2568 0.840492L44.1322 4.14895L31.0272 0.843319C30.5909 0.721727 30.1406 0.832008 29.7916 1.14306C29.3834 1.50784 29.1864 2.09318 29.2765 2.67569L31.455 13.7548L21.1337 12.8358C20.7341 12.7594 20.3287 12.8697 20.0079 13.1525C19.611 13.5031 19.4055 14.0743 19.4759 14.6455L21.5475 25.0092L9.91739 24.2429C9.47268 24.192 9.0336 24.3758 8.73243 24.7377C8.35808 25.1873 8.2455 25.8292 8.43971 26.4146L13.8691 42.561H13.8635ZM57.2934 2.57672L55.1318 13.5653L55.1261 13.6049C55.0389 14.1818 55.2359 14.7643 55.6356 15.1262C55.9565 15.4175 56.3674 15.5363 56.7755 15.4571L67.094 14.5381L65.0365 24.8254L65.0252 24.8876C64.9577 25.4333 65.1322 25.9706 65.4953 26.3269C65.7936 26.6182 66.1877 26.7624 66.5845 26.7143L78.2034 25.948L73.7647 39.1507L45.6492 5.51192L57.2934 2.57672ZM21.6854 26.72C22.0795 26.768 22.4735 26.6266 22.7719 26.3354C23.1349 25.9791 23.3123 25.439 23.2447 24.8932L21.176 14.5437L31.4944 15.4627C31.8997 15.5419 32.3107 15.4231 32.6315 15.1319C33.0312 14.7699 33.2282 14.1874 33.1466 13.6134L30.9765 2.58238L42.6207 5.51475L14.5024 39.1592L10.0638 25.9565L21.6854 26.7228V26.72Z" fill="#0E2C5E"/>
<path d="M98.2586 18.5474C98.2586 18.8514 98.3514 18.9697 98.6805 18.9697H101.592C102.272 18.9697 102.461 19.1583 102.461 19.8397V21.3911C102.461 22.0724 102.272 22.2611 101.639 22.2611H98.6833C98.3542 22.2611 98.2614 22.354 98.2614 22.6834V26.1128C98.2614 26.4168 98.3542 26.5351 98.6833 26.5351H101.876C102.556 26.5351 102.745 26.7237 102.745 27.4051V28.9565C102.745 29.6378 102.556 29.8265 101.876 29.8265H95.8903C95.2097 29.8265 95.0212 29.6378 95.0212 28.9565V13.0739C95.0212 12.3926 95.2097 12.2039 95.8903 12.2039H101.876C102.556 12.2039 102.745 12.3926 102.745 13.0739V14.6253C102.745 15.3067 102.556 15.4953 101.876 15.4953H98.6833C98.3542 15.4953 98.2614 15.5882 98.2614 15.9176V18.5502L98.2586 18.5474Z" fill="#0E2C5E"/>
<path d="M111.236 15.4924C110.907 15.4924 110.814 15.5853 110.814 15.9147V28.9564C110.814 29.6377 110.626 29.8264 109.945 29.8264H108.443C107.762 29.8264 107.574 29.6377 107.574 28.9564V15.9147C107.574 15.5853 107.481 15.4924 107.152 15.4924H105.698C105.017 15.4924 104.829 15.3038 104.829 14.6224V13.071C104.829 12.3897 105.017 12.201 105.698 12.201H112.693C113.374 12.201 113.562 12.3897 113.562 13.071V14.6224C113.562 15.3038 113.374 15.4924 112.693 15.4924H111.236Z" fill="#0E2C5E"/>
<path d="M121.587 22.6101C121.587 22.2807 121.494 22.1878 121.165 22.1878H119.241C118.912 22.1878 118.819 22.2807 118.819 22.6101V28.9536C118.819 29.6349 118.63 29.8236 117.95 29.8236H116.448C115.767 29.8236 115.579 29.6349 115.579 28.9536V13.071C115.579 12.3897 115.767 12.201 116.448 12.201H117.95C118.63 12.201 118.819 12.3897 118.819 13.071V18.4741C118.819 18.7782 118.912 18.8964 119.241 18.8964H121.165C121.494 18.8964 121.587 18.7782 121.587 18.4741V13.071C121.587 12.3897 121.775 12.201 122.456 12.201H123.958C124.638 12.201 124.827 12.3897 124.827 13.071V28.9536C124.827 29.6349 124.638 29.8236 123.958 29.8236H122.456C121.775 29.8236 121.587 29.6349 121.587 28.9536V22.6101Z" fill="#0E2C5E"/>
<path d="M103.389 60.468C102.624 60.468 102.407 60.6876 102.407 61.4507V72.4904C102.407 74.0756 101.971 74.512 100.388 74.512H96.8945C95.311 74.512 94.8751 74.0756 94.8751 72.4904V35.5504C94.8751 33.9652 95.311 33.5288 96.8945 33.5288H104.1C112.398 33.5288 116.164 36.5358 116.164 43.9126V50.0871C116.164 57.4638 112.398 60.4708 104.1 60.4708H103.392L103.389 60.468ZM102.407 51.8355C102.407 52.6014 102.627 52.8182 103.389 52.8182H104.536C107.211 52.8182 108.412 51.7257 108.412 48.9383V45.0585C108.412 42.2711 107.211 41.1787 104.536 41.1787H103.389C102.624 41.1787 102.407 41.3983 102.407 42.1613V51.8355Z" fill="#0E2C5E"/>
<path d="M136.418 33.5288C138.001 33.5288 138.437 33.9652 138.437 35.5504V63.0386C138.437 71.8372 135.816 75.061 127.901 75.061C119.986 75.061 117.365 71.8372 117.365 63.0386V35.5504C117.365 33.9652 117.801 33.5288 119.384 33.5288H122.878C124.461 33.5288 124.897 33.9652 124.897 35.5504V64.3507C124.897 66.5355 125.825 67.4112 127.898 67.4112C129.971 67.4112 130.902 66.5355 130.902 64.3507V35.5504C130.902 33.9652 131.338 33.5288 132.921 33.5288H136.418Z" fill="#0E2C5E"/>
<path d="M150.329 59.705C150.056 58.9392 149.837 58.7224 149.018 58.7224H148.799C148.034 58.7224 147.817 58.942 147.817 59.705V72.4932C147.817 74.0784 147.381 74.5148 145.798 74.5148H142.304C140.721 74.5148 140.285 74.0784 140.285 72.4932V35.5504C140.285 33.9652 140.721 33.5288 142.304 33.5288H149.51C157.808 33.5288 161.574 36.3697 161.574 43.3664V47.2997C161.574 52.4353 160.755 54.4033 157.861 56.8641C157.532 57.0837 157.479 57.1907 157.479 57.4638C157.479 57.6271 157.532 57.7933 157.642 58.1734L162.446 72.4369C162.938 73.8588 162.392 74.5148 160.972 74.5148H156.986C155.459 74.5148 155.13 74.2952 154.694 72.986L150.326 59.7078L150.329 59.705ZM147.817 50.3039C147.817 51.0697 148.037 51.2865 148.799 51.2865H149.946C152.512 51.2865 153.822 50.1378 153.822 47.5165V44.5123C153.822 41.9445 152.621 40.9056 149.946 40.9056H148.799C148.034 40.9056 147.817 41.1252 147.817 41.8882V50.3039Z" fill="#0E2C5E"/>
<path d="M178.945 33.5288C181.4 33.5288 182.165 34.3482 182.438 36.3697L187.242 72.4904C187.461 74.0756 187.023 74.512 185.442 74.512H181.676C180.039 74.512 179.656 74.1291 179.437 72.4904L178.728 66.5327C178.675 65.9865 178.509 65.8232 177.853 65.8232H173.159C172.504 65.8232 172.341 65.9865 172.284 66.5327L171.576 72.4904C171.356 74.1291 170.976 74.512 169.337 74.512H165.571C163.987 74.512 163.551 74.0756 163.771 72.4904L168.575 36.3697C168.847 34.3482 169.612 33.5288 172.068 33.5288H178.947H178.945ZM175.505 43.9126C174.906 43.9126 174.577 44.0224 174.523 44.6784L173.269 57.4103C173.215 58.0664 173.378 58.2297 174.087 58.2297H176.925C177.634 58.2297 177.8 58.0664 177.744 57.4103L176.489 44.6784C176.436 44.0224 176.107 43.9126 175.508 43.9126H175.505Z" fill="#0E2C5E"/>
<path d="M103.088 118.82C100.25 118.82 99.4314 118.001 99.1023 115.433L94.9003 79.8587C94.7371 78.2736 95.3362 77.8372 96.9197 77.8372H100.905C102.489 77.8372 102.815 78.2736 102.925 79.8587L105.327 107.893C105.38 108.549 105.6 108.713 106.092 108.713C106.584 108.713 106.801 108.549 106.857 107.893L109.259 79.8587C109.368 78.2736 109.695 77.8372 111.278 77.8372H115.264C116.847 77.8372 117.446 78.2736 117.283 79.8587L113.078 115.433C112.752 118.001 111.931 118.82 109.093 118.82H103.088Z" fill="#0E2C5E"/>
<path d="M126.289 116.799C126.289 118.384 125.853 118.82 124.27 118.82H120.777C119.193 118.82 118.757 118.384 118.757 116.799V79.8559C118.757 78.2708 119.193 77.8344 120.777 77.8344H124.27C125.853 77.8344 126.289 78.2708 126.289 79.8559V116.799Z" fill="#0E2C5E"/>
<path d="M149.629 105.703C149.629 114.994 147.499 118.818 137.017 118.818H130.356C128.773 118.818 128.337 118.381 128.337 116.796V79.8531C128.337 78.2679 128.773 77.8315 130.356 77.8315H137.017C147.499 77.8315 149.629 81.6579 149.629 90.9464V105.703ZM135.872 86.4668V110.185C135.872 110.895 136.091 111.168 136.854 111.168H137.453C140.51 111.168 141.874 109.746 141.874 106.195V90.4565C141.874 86.9032 140.51 85.4842 137.453 85.4842H136.854C136.089 85.4842 135.872 85.7038 135.872 86.4668Z" fill="#0E2C5E"/>
<path d="M165.289 77.8344C167.745 77.8344 168.51 78.6537 168.783 80.6752L173.587 116.796C173.806 118.381 173.367 118.818 171.787 118.818H168.02C166.383 118.818 166.001 118.435 165.782 116.796L165.073 110.838C165.019 110.292 164.853 110.129 164.198 110.129H159.504C158.848 110.129 158.685 110.292 158.629 110.838L157.92 116.796C157.701 118.435 157.321 118.818 155.681 118.818H151.915C150.332 118.818 149.896 118.381 150.115 116.796L154.919 80.6752C155.192 78.6537 155.957 77.8344 158.412 77.8344H165.292H165.289ZM161.849 88.2153C161.25 88.2153 160.921 88.3251 160.868 88.9811L159.613 101.713C159.56 102.369 159.723 102.532 160.432 102.532H163.27C163.979 102.532 164.145 102.369 164.088 101.713L162.834 88.9811C162.78 88.3251 162.451 88.2153 161.852 88.2153H161.849Z" fill="#0E2C5E"/>
</svg>
