<svg width="156" height="232" viewBox="0 0 156 232" fill="none" xmlns="http://www.w3.org/2000/svg">
<g clip-path="url(#clip0_3994_1286)">
<path d="M84.2262 178.421C83.5942 178.799 82.8763 179.001 82.1433 179.001C80.9856 179.001 79.8784 178.502 79.0746 177.593C79.0189 177.533 78.9532 177.477 78.8875 177.427C78.8723 177.417 78.8572 177.401 78.842 177.391C78.7914 177.356 78.7358 177.326 78.6802 177.3C78.6448 177.28 78.6145 177.26 78.5791 177.245C78.5437 177.23 78.5033 177.22 78.4628 177.205C78.4072 177.184 78.3516 177.164 78.2909 177.154C78.2606 177.149 78.2353 177.149 78.205 177.144C78.1342 177.134 78.0634 177.124 77.9927 177.124C77.9876 177.124 77.9775 177.124 77.9724 177.124C77.9522 177.124 77.937 177.129 77.9168 177.129C77.8359 177.129 77.75 177.139 77.6691 177.154C77.6388 177.159 77.6084 177.169 77.5781 177.179C77.5073 177.2 77.4365 177.225 77.3658 177.25C77.3354 177.265 77.3051 177.275 77.2798 177.29C77.2141 177.326 77.1534 177.361 77.0928 177.406C77.0675 177.427 77.0422 177.442 77.0169 177.462C76.9967 177.477 76.9714 177.492 76.9512 177.512C76.9158 177.548 76.8855 177.588 76.8501 177.623C76.84 177.639 76.8248 177.649 76.8096 177.659C76.0311 178.512 74.934 179.001 73.7965 179.001C73.0584 179.001 72.3405 178.799 71.7136 178.421C70.9957 177.987 70.0655 178.214 69.6307 178.93C69.196 179.647 69.4235 180.576 70.1413 181.01C71.2384 181.676 72.5023 182.024 73.7965 182.024C75.3031 182.024 76.7642 181.54 77.9674 180.661C79.1706 181.54 80.6266 182.024 82.1433 182.024C83.4274 182.024 84.6913 181.671 85.7934 181.01C86.5113 180.581 86.7439 179.647 86.3091 178.93C85.8794 178.214 84.9441 177.982 84.2262 178.416V178.421Z" fill="#F9FFF2"/>
<path d="M77.9569 174.969C79.2967 174.969 80.3027 174.116 80.3027 172.986C80.3027 171.855 79.2967 171.002 77.9569 171.002C76.6172 171.002 75.6162 171.855 75.6162 172.986C75.6162 174.116 76.6223 174.969 77.9569 174.969Z" fill="#F9FFF2"/>
<path d="M90.2723 163.044C88.0378 163.044 86.2178 164.861 86.2178 167.091C86.2178 169.322 88.0378 171.139 90.2723 171.139C92.5069 171.139 94.3269 169.322 94.3269 167.091C94.3269 164.861 92.5069 163.044 90.2723 163.044ZM90.2723 168.509C89.4887 168.509 88.8467 167.873 88.8467 167.086C88.8467 166.299 89.4837 165.663 90.2723 165.663C91.061 165.663 91.698 166.299 91.698 167.086C91.698 167.873 91.061 168.509 90.2723 168.509Z" fill="#F9FFF2"/>
<path d="M69.6712 167.071C69.6712 164.84 67.8512 163.024 65.6166 163.024C63.382 163.024 61.562 164.84 61.562 167.071C61.562 169.302 63.382 171.118 65.6166 171.118C67.8512 171.118 69.6712 169.302 69.6712 167.071ZM64.196 167.071C64.196 166.289 64.833 165.648 65.6216 165.648C66.4103 165.648 67.0473 166.284 67.0473 167.071C67.0473 167.858 66.4103 168.494 65.6216 168.494C64.833 168.494 64.196 167.858 64.196 167.071Z" fill="#F9FFF2"/>
<path d="M101.162 163.241C101.162 163.241 101.162 163.231 101.162 163.226C101.162 163.226 101.162 163.216 101.162 163.21C98.9329 152.264 89.1857 144.321 77.9775 144.321C66.7693 144.321 57.0373 152.254 54.7977 163.18C54.4792 164.75 54.3174 166.349 54.3174 167.939C54.3174 173.909 56.5519 179.607 60.6166 183.982C65.0807 188.796 71.4103 191.557 77.9775 191.557C84.5447 191.557 90.9501 188.761 95.4192 183.891C99.4283 179.531 101.638 173.864 101.638 167.939C101.638 166.354 101.481 164.77 101.167 163.236L101.162 163.241ZM60.5408 175.347C60.0656 175.827 59.7016 176.392 59.4488 177.003C58.0737 174.212 57.3457 171.123 57.3457 167.944C57.3457 166.773 57.4518 165.592 57.649 164.432C57.6743 164.401 57.6996 164.376 57.7248 164.341C59.6561 161.454 62.4265 160.066 65.9553 160.233C69.4538 160.394 72.3152 163.256 72.477 166.748C72.563 168.641 71.8956 170.432 70.5913 171.795C69.2819 173.162 67.5226 173.914 65.6318 173.914C65.3335 173.914 65.0453 173.899 64.7673 173.864C63.2051 173.667 61.6631 174.207 60.5408 175.347ZM94.0542 179.38C93.9177 180.323 93.5891 181.186 93.0937 181.938C89.2009 186.132 83.7004 188.534 77.9724 188.534C72.2445 188.534 67.1383 186.293 63.2708 182.372C63.2253 182.241 63.1697 182.115 63.0888 181.994C62.558 181.222 62.2193 180.333 62.0777 179.359C61.9766 178.658 62.2041 177.972 62.6995 177.467C62.9675 177.199 63.5388 176.765 64.3982 176.866C64.7976 176.912 65.2122 176.937 65.6267 176.937C68.3567 176.937 70.8946 175.852 72.7804 173.879C74.661 171.911 75.6317 169.327 75.5053 166.602C75.2728 161.565 71.1373 157.432 66.0918 157.2C64.196 157.114 61.8552 157.377 59.5954 158.583C63.0534 151.846 70.1009 147.349 77.9724 147.349C85.844 147.349 92.8055 151.795 96.2837 158.462C94.1098 157.372 91.8702 157.139 90.0452 157.22C84.9997 157.452 80.8592 161.58 80.6266 166.622C80.5002 169.347 81.4658 171.931 83.3516 173.899C85.2373 175.872 87.7803 176.957 90.5103 176.957C90.94 176.957 91.3596 176.932 91.7438 176.882C92.5982 176.776 93.1746 177.215 93.4375 177.487C93.9329 177.992 94.1553 178.678 94.0542 179.375V179.38ZM96.5921 176.796C96.3444 176.276 96.0158 175.792 95.6063 175.373C94.484 174.232 92.942 173.692 91.3596 173.879C91.0967 173.914 90.8085 173.929 90.5103 173.929C88.6144 173.929 86.8551 173.177 85.5457 171.81C84.2414 170.447 83.569 168.656 83.66 166.763C83.8217 163.271 86.6883 160.41 90.1867 160.248C93.6144 160.092 96.3191 161.394 98.2403 164.114C98.4779 165.365 98.6042 166.652 98.6042 167.944C98.6042 171.043 97.9066 174.055 96.5972 176.796H96.5921Z" fill="#F9FFF2"/>
<path d="M108.149 173.793C108.22 173.733 108.291 173.672 108.351 173.596L155.995 116.318L141.051 98.3472C141.051 98.3472 141.046 98.3421 141.041 98.3371C141.041 98.3371 141.035 98.327 141.03 98.322L141.02 98.3068L78.0076 22.5581L68.3919 34.1147C68.3919 34.1147 68.3818 34.1298 68.3767 34.1349L0 116.333L0.520725 116.944C0.576336 117.166 0.682503 117.378 0.839226 117.559C0.985838 117.726 1.16278 117.852 1.34984 117.938L47.5781 173.516C47.6337 173.586 47.6994 173.642 47.7651 173.697C48.4577 177.376 49.7975 180.843 51.7691 184.033C50.1867 185.981 46.9866 190.84 47.3859 197.885C47.9067 206.959 54.1351 216.154 65.8944 225.217C65.8944 225.217 65.9045 225.222 65.9045 225.228C65.9045 225.228 65.9096 225.228 65.9146 225.233C66.2129 225.465 66.5365 225.672 66.8802 225.843L69.226 231.107C69.4788 231.672 70.0299 232.005 70.6113 232.005C70.8186 232.005 71.0258 231.965 71.2281 231.874C71.9914 231.536 72.3352 230.637 71.9965 229.875L70.4849 226.489C71.0814 226.419 71.6628 226.262 72.2088 226.025L74.8276 228.846C75.1259 229.169 75.5303 229.33 75.9399 229.33C76.3089 229.33 76.678 229.199 76.9712 228.927C77.5829 228.356 77.6234 227.403 77.0521 226.787L74.6153 224.163C74.954 223.734 75.227 223.264 75.4444 222.765L76.7285 224.561C76.7285 224.561 76.7538 224.587 76.769 224.602C76.8145 224.662 76.8701 224.718 76.9257 224.773C76.956 224.804 76.9813 224.829 77.0167 224.859C77.0268 224.869 77.0369 224.879 77.047 224.889C77.1178 224.945 77.1936 224.99 77.2745 225.031C77.2897 225.036 77.3049 225.041 77.315 225.051C77.4009 225.091 77.4869 225.122 77.5728 225.147C77.5981 225.152 77.6234 225.162 77.6486 225.167C77.7497 225.187 77.8559 225.202 77.9621 225.202C78.0632 225.202 78.1643 225.187 78.2654 225.167C78.2907 225.167 78.3109 225.157 78.3362 225.152C78.4272 225.127 78.5182 225.096 78.6041 225.056C78.6143 225.056 78.6244 225.051 78.6294 225.046C78.7053 225.011 78.776 224.965 78.8418 224.92C78.8569 224.91 78.867 224.9 78.8771 224.889C78.9125 224.864 78.9429 224.834 78.9732 224.804C79.0288 224.753 79.0794 224.703 79.1249 224.647C79.14 224.632 79.1552 224.622 79.1653 224.602L80.6365 222.669C80.8336 223.158 81.0965 223.623 81.4201 224.047L78.8721 226.792C78.3008 227.403 78.3412 228.361 78.953 228.932C79.2462 229.204 79.6153 229.335 79.9843 229.335C80.3938 229.335 80.7983 229.174 81.0965 228.851L83.776 225.964C84.3675 226.242 84.9944 226.419 85.6466 226.494L84.1349 229.88C83.7962 230.642 84.1349 231.541 84.9034 231.879C85.1056 231.97 85.3129 232.01 85.5202 232.01C86.1016 232.01 86.6526 231.677 86.9054 231.112L89.2562 225.843C89.595 225.672 89.9185 225.47 90.2168 225.233C101.981 216.169 108.21 206.969 108.73 197.895C109.145 190.654 105.748 185.723 104.221 183.891C106.127 180.772 107.436 177.391 108.129 173.808L108.149 173.793ZM47.2292 168.348L25.8795 142.681C32.9573 141.303 39.3172 142.257 46.1878 145.689C48.2403 146.713 50.5052 148.01 53.2251 149.721C49.3424 154.975 47.2191 161.379 47.2191 167.944C47.2191 168.08 47.2242 168.217 47.2292 168.353V168.348ZM55.1614 147.359C52.214 145.497 49.7671 144.094 47.5477 142.984C39.6256 139.027 32.017 138.094 23.6955 140.057L13.8422 128.213C22.3962 123.807 34.6762 120.396 47.3051 126.699C52.118 129.101 57.4567 132.699 63.1088 136.514C64.4232 137.402 65.7731 138.306 67.133 139.214C62.5527 140.93 58.4728 143.701 55.1614 147.364V147.359ZM70.8893 138.069C68.8165 136.706 66.7741 135.333 64.8024 134.001C59.0643 130.13 53.6447 126.477 48.6599 123.989C34.6054 116.974 21.0767 120.946 11.8604 125.831L4.21635 116.641C7.06264 114.299 14.7977 108.566 24.7117 106.346C31.7945 104.756 38.5943 105.286 44.9188 107.926C45.6367 108.223 46.3394 108.546 47.0169 108.884C52.0826 111.413 57.7499 115.405 63.7509 119.634L66.0157 121.228C80.5354 131.407 96.0813 141.248 113.23 141.248C114.448 141.248 115.682 141.197 116.915 141.091C116.936 141.091 116.961 141.091 116.981 141.091H117.027C117.027 141.091 117.037 141.091 117.042 141.086C123.74 140.506 130.363 138.341 136.824 134.642L121.238 153.38C115.975 154.445 110.702 154.52 105.156 153.612C99.8072 143.504 89.4635 137.256 77.9722 137.256C75.5759 137.256 73.1947 137.534 70.8893 138.079V138.069ZM54.7974 55.1992L81.3797 69.6525C80.8286 70.9242 80.4848 72.2767 80.3685 73.6494L38.5033 74.7798L54.7924 55.1941L54.7974 55.1992ZM69.3929 37.6574L85.3382 64.5555C84.4181 65.2671 83.594 66.1048 82.8963 67.0384L56.7691 52.8324L69.3878 37.6624L69.3929 37.6574ZM118.69 76.208C114.792 74.2903 110.318 73.9875 106.197 75.3803C106.243 74.4316 106.182 73.4727 106.015 72.519C105.601 70.1723 104.57 68.0477 103.023 66.2865L106.43 61.4721L118.69 76.208ZM131.187 91.2366C128.386 90.1011 125.414 89.4855 122.456 89.4855C108.998 89.4855 98.4574 99.7905 98.4574 112.947C98.4574 112.977 98.4625 113.002 98.4675 113.028C98.4675 113.083 98.4726 113.134 98.4827 113.189C98.4928 113.24 98.5029 113.285 98.513 113.33C98.5231 113.376 98.5383 113.426 98.5585 113.472C98.5737 113.517 98.5939 113.563 98.6192 113.608C98.6394 113.653 98.6647 113.694 98.69 113.734C98.7152 113.774 98.7405 113.815 98.7708 113.85C98.8012 113.891 98.8315 113.931 98.8669 113.966C98.8972 114.002 98.9326 114.037 98.968 114.067C99.0034 114.097 99.0388 114.133 99.0792 114.158C99.1247 114.188 99.1652 114.219 99.2157 114.244C99.241 114.259 99.2612 114.279 99.2865 114.289C99.3017 114.299 99.3168 114.299 99.3371 114.309C99.3876 114.335 99.4382 114.35 99.4887 114.37C99.5342 114.385 99.5797 114.4 99.6252 114.41C99.6707 114.42 99.7213 114.431 99.7719 114.436C99.8224 114.441 99.878 114.451 99.9286 114.451C99.9488 114.451 99.964 114.456 99.9791 114.456C100.009 114.456 100.035 114.451 100.065 114.446C100.116 114.446 100.171 114.441 100.222 114.431C100.272 114.42 100.318 114.41 100.368 114.4C100.414 114.39 100.459 114.375 100.505 114.36C100.555 114.34 100.601 114.32 100.646 114.299C100.687 114.279 100.732 114.259 100.773 114.234C100.813 114.209 100.854 114.178 100.894 114.153C100.935 114.128 100.97 114.092 101.01 114.057C101.046 114.022 101.081 113.992 101.112 113.951C101.142 113.916 101.172 113.88 101.203 113.84C101.233 113.795 101.263 113.749 101.289 113.704C101.304 113.679 101.319 113.658 101.334 113.633C104.145 108.148 109.726 104.736 115.894 104.736C124.908 104.736 132.244 112.059 132.244 121.057C132.244 130.055 126.314 136.817 116.764 138.059C99.6252 139.532 84.4181 130.342 69.135 119.694L101.248 82.2336C102.391 80.9013 103.746 79.8314 105.267 79.0441C109.767 76.7126 115.126 77.0962 119.251 80.0383L125.732 84.6509L131.202 91.2265L131.187 91.2366ZM45.116 104.751C41.6175 103.409 37.9927 102.642 34.2667 102.465L55.8136 93.7851L45.116 104.751ZM65.0653 88.6376C67.0168 86.6392 69.9692 85.968 72.5981 86.9268C73.6699 87.3205 74.6052 87.9463 75.3837 88.7991L80.7174 94.6127C80.7174 94.6127 80.7275 94.6228 80.7325 94.6329L83.776 97.9536L66.6325 117.953L65.5001 117.156C59.403 112.861 53.6447 108.809 48.3768 106.174C48.2858 106.129 48.1847 106.084 48.0937 106.038L65.0704 88.6326L65.0653 88.6376ZM83.1339 82.819C83.9024 83.7829 84.8073 84.6357 85.8134 85.3422L81.6729 91.1861L77.6133 86.7603C77.2594 86.3717 76.8802 86.0235 76.4808 85.7005L83.1289 82.819H83.1339ZM85.7628 95.6372L83.776 93.4722L88.508 86.7906C89.8174 87.3104 91.1875 87.6081 92.5828 87.6788L85.7578 95.6372H85.7628ZM100.753 64.2426C99.0641 63.0466 97.1227 62.2694 95.0803 61.9767L94.8882 47.594L104.423 59.0548L100.753 64.2376V64.2426ZM93.5181 64.8734C95.9347 64.934 98.2501 65.8777 100.03 67.538C101.612 69.0066 102.648 70.9142 103.028 73.0438C103.25 74.3155 103.23 75.5923 102.962 76.8388C102.962 76.8489 102.962 76.859 102.962 76.8691C101.455 77.7724 100.106 78.9079 98.9326 80.2705L95.3128 84.4944C95.2067 84.4944 95.0954 84.4944 94.9893 84.5146C92.8154 84.8981 90.6415 84.5651 88.69 83.5507C87.1683 82.7634 85.869 81.5876 84.9438 80.1594C84.2158 79.0391 83.7305 77.8027 83.503 76.4906C83.4221 76.0213 83.3716 75.5469 83.3564 75.0776C83.2907 73.2305 83.7558 71.4087 84.6961 69.7989C85.5353 68.3555 86.7335 67.1393 88.1642 66.2865C89.1905 65.6657 90.3331 65.2418 91.5464 65.0248C92.1986 64.9088 92.8659 64.8583 93.5232 64.8785L93.5181 64.8734ZM35.9249 77.8834L80.4646 76.6773C80.4798 76.7883 80.4899 76.8994 80.5101 77.0104C80.7073 78.1257 81.046 79.1955 81.5162 80.2149L73.0379 83.8888C69.4485 82.824 65.5254 83.8232 62.8914 86.5231L61.0613 88.4004L23.8017 103.414C23.7612 103.429 23.7309 103.454 23.6904 103.469C18.4478 104.691 13.7916 106.825 10.0808 108.955L35.93 77.8784L35.9249 77.8834ZM112.659 157.261C114.549 157.261 116.43 157.145 118.285 156.917L108.705 168.434C108.705 168.272 108.715 168.106 108.715 167.944C108.715 164.099 108.012 160.389 106.642 156.877C108.66 157.124 110.667 157.261 112.653 157.261H112.659ZM144.074 125.922C139.509 129.676 134.949 132.543 130.323 134.566C133.482 131.084 135.267 126.436 135.267 121.062C135.267 110.393 126.571 101.713 115.884 101.713C110.687 101.713 105.849 103.762 102.284 107.28C104.747 98.6651 112.729 92.5134 122.456 92.5134C128.462 92.5134 134.534 95.4152 138.705 100.27L138.715 100.28C138.715 100.28 138.725 100.29 138.73 100.295L152.057 116.318L144.074 125.916V125.922ZM91.8043 43.8899L92.0469 61.9061C91.7031 61.9414 91.3543 61.9818 91.0105 62.0423C89.9337 62.2341 88.9125 62.5621 87.9418 62.9961L71.4505 35.1795L78.0076 27.2968L91.8043 43.8848V43.8899ZM105.722 197.769C105.227 205.914 99.3927 214.342 88.3816 222.825C87.7295 223.335 86.9003 223.542 86.1016 223.461L86.8902 222.608C87.4615 221.998 87.4261 221.039 86.8093 220.469C86.1976 219.898 85.2371 219.934 84.6658 220.549L83.5637 221.735C83.3463 221.301 83.2249 220.812 83.2249 220.307V220.242C83.2249 220.242 83.2047 219.792 83.2047 219.046C83.2199 215.896 83.6799 205.122 89.0742 198.627C89.6101 197.981 89.5191 197.027 88.8771 196.498C88.235 195.963 87.2745 196.053 86.7436 196.694C81.1926 203.376 80.2826 213.489 80.1865 218.263L78.0177 221.11L75.9854 218.268C75.8893 213.504 74.9843 203.381 69.4283 196.694C68.8924 196.048 67.9369 195.963 67.2948 196.498C66.6477 197.032 66.5618 197.986 67.0976 198.627C72.492 205.122 72.952 215.896 72.9672 219.04C72.9672 219.792 72.9469 220.221 72.9469 220.242V220.307C72.9469 220.872 72.7953 221.407 72.5324 221.877L71.2988 220.549C70.7275 219.934 69.772 219.898 69.1553 220.469C68.5385 221.039 68.5031 221.993 69.0744 222.608L69.8934 223.486C69.4586 223.507 69.0188 223.441 68.6042 223.28C68.311 223.169 68.038 223.012 67.8004 222.83C67.8004 222.83 67.8004 222.83 67.7953 222.83C67.7953 222.83 67.7953 222.83 67.7903 222.825C56.7792 214.342 50.9451 205.914 50.4496 197.769C49.9795 190.053 54.7064 185.299 54.7519 185.259L55.6569 184.381L54.9541 183.331C52.6943 179.97 51.2383 176.246 50.6114 172.259C50.389 170.836 50.2777 169.387 50.2777 167.944C50.2777 161.51 52.5376 155.247 56.6376 150.301C60.3687 145.8 65.3231 142.646 70.9551 141.172C73.2351 140.577 75.6011 140.274 77.9924 140.274C88.594 140.274 98.1086 146.168 102.825 155.656C104.736 159.491 105.707 163.624 105.707 167.944C105.707 169.418 105.591 170.891 105.358 172.34C104.736 176.256 103.301 179.92 101.096 183.23C100.641 183.911 100.818 184.82 101.476 185.294C101.905 185.743 106.192 190.406 105.742 197.774L105.722 197.769Z" fill="#F9FFF2"/>
<path d="M23.635 74.5426L78.0077 9.90132L132.37 74.5426L142.123 45.7217C142.471 44.6821 142.269 43.5366 141.592 42.7342C141.051 42.0882 140.257 41.7602 139.463 41.851L118.574 43.2186L122.274 24.8341L122.295 24.723C122.421 23.7036 122.057 22.6842 121.339 22.0585C120.768 21.5589 120.04 21.357 119.317 21.4932L100.783 23.1334L104.686 3.4266L104.696 3.35595C104.853 2.31636 104.494 1.27172 103.761 0.625763C103.134 0.0706425 102.325 -0.121126 101.577 0.0857821L78.0027 5.99025L54.4639 0.0908287C53.6803 -0.126173 52.8714 0.0706425 52.2445 0.625763C51.5114 1.27677 51.1576 2.3214 51.3193 3.36099L55.2324 23.1334L36.6935 21.4932C35.9757 21.357 35.2477 21.5538 34.6713 22.0585C33.9585 22.6842 33.5894 23.7036 33.7158 24.723L37.4367 43.2186L16.5471 41.851C15.7483 41.7602 14.9596 42.0882 14.4187 42.7342C13.7463 43.5366 13.544 44.6821 13.8929 45.7268L23.6451 74.5426H23.635ZM101.643 3.18436L97.7599 22.7953L97.7498 22.8659C97.593 23.8954 97.9469 24.935 98.6648 25.581C99.2412 26.1007 99.9793 26.3127 100.712 26.1714L119.246 24.5313L115.55 42.8906L115.53 43.0016C115.409 43.9756 115.722 44.9345 116.375 45.5703C116.91 46.0901 117.618 46.3475 118.331 46.2617L139.2 44.8941L131.228 68.4564L80.7276 8.42268L101.643 3.18436ZM37.6844 46.2718C38.3922 46.3576 39.1 46.1053 39.6359 45.5855C40.2881 44.9496 40.6066 43.9857 40.4852 43.0117L36.7694 24.5414L55.3031 26.1815C56.0311 26.3228 56.7692 26.1108 57.3456 25.591C58.0635 24.9451 58.4174 23.9055 58.2708 22.8811L54.3729 3.19446L75.2878 8.42773L24.7826 68.4716L16.81 44.9092L37.6844 46.2769V46.2718Z" fill="#F9FFF2"/>
</g>
<defs>
<clipPath id="clip0_3994_1286">
<rect width="156" height="232" fill="white"/>
</clipPath>
</defs>
</svg>
