<svg width="567" height="325" viewBox="0 0 567 325" fill="none" xmlns="http://www.w3.org/2000/svg">
<path d="M108.729 293.094L0.299988 162.804L108.729 32.5142L217.157 162.804L108.729 293.094ZM20.1285 162.804L108.729 269.268L197.329 162.804L108.729 56.3394L20.1285 162.804Z" fill="#0F2841"/>
<path d="M108.729 244.372L40.8473 162.804L108.729 81.2444V244.372Z" fill="#E93334"/>
<path d="M108.729 244.372L176.601 162.804L108.729 81.2444V244.372Z" fill="#AA2222"/>
<path d="M194.763 112.75L208.98 70.7686C209.486 69.2447 208.535 67.5815 207.252 67.7644L172.979 70.011C171.88 70.1678 170.963 68.9225 171.138 67.5118L177.142 37.6694C177.334 36.1803 176.305 34.9002 175.161 35.1963L144.659 37.8958C143.49 38.2006 142.46 36.8769 142.687 35.3617L149.014 3.44677C149.241 1.92286 148.194 0.599241 147.016 0.921439L108.72 10.509L194.763 112.759V112.75Z" fill="#0F2841"/>
<path d="M22.6856 112.75L8.46877 70.7686C7.96258 69.2447 8.91387 67.5815 10.1968 67.7644L44.4691 70.011C45.5688 70.1678 46.4851 68.9225 46.3106 67.5118L40.3062 37.6694C40.1142 36.1803 41.144 34.9002 42.2873 35.1963L72.7894 37.8958C73.9589 38.2006 74.9887 36.8769 74.7618 35.3617L68.4344 3.44677C68.2075 1.92286 69.2548 0.599241 70.433 0.921439L108.729 10.509L22.6856 112.75Z" fill="#0F2841"/>
<path d="M194.763 212.98L208.98 254.961C209.486 256.485 208.535 258.148 207.252 257.965L172.979 255.719C171.88 255.562 170.963 256.807 171.138 258.218L177.142 288.06C177.334 289.549 176.305 290.829 175.161 290.533L144.659 287.834C143.49 287.529 142.46 288.853 142.687 290.368L149.014 322.283C149.241 323.807 148.194 325.13 147.016 324.808L108.72 315.221L194.763 212.971V212.98Z" fill="#0F2841"/>
<path d="M22.6856 212.98L8.46877 254.961C7.96258 256.485 8.91387 258.148 10.1968 257.965L44.4691 255.719C45.5688 255.562 46.4851 256.807 46.3106 258.218L40.3062 288.06C40.1142 289.549 41.144 290.829 42.2873 290.533L72.7894 287.834C73.9589 287.529 74.9887 288.853 74.7618 290.368L68.4344 322.283C68.2075 323.807 69.2548 325.13 70.433 324.808L108.729 315.221L22.6856 212.98Z" fill="#0F2841"/>
<path d="M280.169 148.035C279.497 150.517 278.162 152.415 276.207 153.704C274.234 155.001 271.66 155.663 268.562 155.663C264.276 155.663 260.925 154.27 258.612 151.518C256.561 149.08 255.392 145.701 255.148 141.469H286.461V138.239C286.461 134.442 285.693 131.072 284.166 128.224C282.639 125.368 280.466 123.104 277.717 121.502C274.967 119.899 271.721 119.081 268.073 119.081C264.425 119.081 260.855 119.995 257.967 121.789C255.087 123.592 252.791 126.108 251.159 129.287C249.527 132.456 248.707 136.149 248.707 140.267C248.707 144.386 249.545 148.148 251.203 151.292C252.861 154.444 255.209 156.935 258.176 158.711C261.143 160.479 264.608 161.376 268.474 161.376C273.222 161.376 277.184 160.235 280.239 157.997C283.302 155.742 285.388 152.476 286.444 148.27L286.592 147.695H280.265L280.169 148.035ZM268.073 124.802C271.616 124.802 274.505 125.917 276.661 128.12C278.72 130.227 279.811 133.04 279.907 136.479H255.322C255.567 134.729 256.029 133.144 256.692 131.734C257.731 129.53 259.249 127.798 261.196 126.605C263.151 125.412 265.463 124.802 268.082 124.802H268.073Z" fill="#0F2841"/>
<path d="M302.424 107.699H295.957V120.135H288.058V125.777H295.957V160.4H302.424V125.777H310.331V120.135H302.424V107.699Z" fill="#0F2841"/>
<path d="M335.116 119.081C331.73 119.081 328.789 119.83 326.363 121.301C324.443 122.468 322.863 123.957 321.65 125.742V100.219H315.096V160.322H321.65V138.482C321.65 136.018 322.13 133.745 323.073 131.734C324.006 129.731 325.403 128.12 327.227 126.927C329.042 125.734 331.337 125.133 334.06 125.133C336.041 125.133 337.804 125.516 339.314 126.265C340.789 126.996 341.95 128.242 342.77 129.948C343.608 131.69 344.027 134.102 344.027 137.106V160.409H350.581V135.887C350.581 130.872 349.342 126.779 346.898 123.731C344.428 120.648 340.466 119.09 335.134 119.09L335.116 119.081Z" fill="#0F2841"/>
<path d="M387.943 148.035C387.271 150.517 385.936 152.415 383.981 153.704C382.009 155.001 379.434 155.663 376.336 155.663C372.051 155.663 368.699 154.27 366.387 151.518C364.336 149.08 363.166 145.701 362.922 141.469H394.236V138.239C394.236 134.442 393.468 131.072 391.94 128.224C390.413 125.368 388.24 123.104 385.491 121.502C382.742 119.899 379.495 119.081 375.847 119.081C372.199 119.081 368.629 119.995 365.741 121.789C362.861 123.592 360.565 126.108 358.933 129.287C357.301 132.456 356.481 136.149 356.481 140.267C356.481 144.386 357.319 148.148 358.977 151.292C360.635 154.444 362.983 156.935 365.95 158.711C368.917 160.479 372.382 161.376 376.248 161.376C380.996 161.376 384.958 160.235 388.013 157.997C391.076 155.742 393.162 152.476 394.218 148.27L394.366 147.695H388.039L387.943 148.035ZM375.847 124.802C379.39 124.802 382.279 125.917 384.435 128.12C386.494 130.227 387.585 133.04 387.681 136.479H363.096C363.341 134.729 363.803 133.144 364.467 131.734C365.505 129.53 367.024 127.798 368.97 126.605C370.925 125.412 373.238 124.802 375.856 124.802H375.847Z" fill="#0F2841"/>
<path d="M419.876 119.325C416.028 118.976 412.633 119.76 410.023 121.737C408.819 122.651 407.85 123.714 407.135 124.924L406.829 120.134H400.633V160.4H407.187V137.507C407.187 133.858 408.225 130.924 410.276 128.808C412.319 126.692 415.129 125.621 418.62 125.621H422.181V119.751L421.831 119.664C421.168 119.499 420.514 119.386 419.885 119.325H419.876Z" fill="#0F2841"/>
<path d="M454.245 148.035C453.573 150.517 452.238 152.415 450.283 153.704C448.31 155.001 445.736 155.663 442.637 155.663C438.352 155.663 435.001 154.27 432.688 151.518C430.637 149.08 429.468 145.701 429.224 141.469H460.537V138.239C460.537 134.442 459.769 131.072 458.242 128.224C456.715 125.368 454.542 123.104 451.792 121.502C449.043 119.899 445.797 119.081 442.149 119.081C438.501 119.081 434.931 119.995 432.042 121.789C429.162 123.592 426.867 126.108 425.235 129.287C423.603 132.456 422.783 136.149 422.783 140.267C422.783 144.386 423.621 148.148 425.279 151.292C426.937 154.444 429.285 156.935 432.252 158.711C435.219 160.479 438.684 161.376 442.55 161.376C447.298 161.376 451.26 160.235 454.315 157.997C457.378 155.742 459.464 152.476 460.52 148.27L460.668 147.695H454.341L454.245 148.035ZM442.149 124.802C445.692 124.802 448.581 125.917 450.736 128.12C452.796 130.227 453.887 133.04 453.983 136.479H429.398C429.642 134.729 430.105 133.144 430.768 131.734C431.807 129.53 433.325 127.798 435.272 126.605C437.227 125.412 439.539 124.802 442.157 124.802H442.149Z" fill="#0F2841"/>
<path d="M494.635 141.487C494.635 146.015 493.605 149.507 491.572 151.875C489.556 154.226 486.684 155.411 483.045 155.411C480.087 155.411 477.66 154.496 475.836 152.703C474.012 150.909 473.087 147.713 473.087 143.202V120.065H466.454V144.996C466.454 149.855 467.737 153.843 470.268 156.839C472.817 159.861 476.517 161.393 481.256 161.393C484.415 161.393 487.33 160.662 489.914 159.225C492.017 158.049 493.658 156.56 494.801 154.784L495.421 160.418H501.189V120.152H494.635V141.504V141.487Z" fill="#0F2841"/>
<path d="M562.464 123.113C559.776 120.439 556.215 119.081 551.869 119.081C548.143 119.081 544.983 120.082 542.496 122.068C540.925 123.322 539.721 124.872 538.918 126.692C538.08 124.863 536.884 123.322 535.348 122.068C532.913 120.082 529.841 119.081 526.219 119.081C523.095 119.081 520.337 119.856 518.024 121.397C516.619 122.329 515.476 123.452 514.603 124.767L514.097 120.143H508.328V160.409H514.883V135.565C514.883 133.641 515.293 131.864 516.096 130.288C516.89 128.721 518.068 127.458 519.587 126.535C521.105 125.612 522.929 125.142 525.006 125.142C527.843 125.142 530.129 126.021 531.796 127.763C533.463 129.513 534.318 132.03 534.318 135.243V160.418H540.785V135.652C540.785 133.728 541.195 131.943 541.998 130.332C542.801 128.738 543.962 127.449 545.454 126.491C546.947 125.542 548.753 125.063 550.822 125.063C553.711 125.063 556.006 125.969 557.647 127.754C559.296 129.557 560.134 132.099 560.134 135.321V160.409H566.522V134.181C566.522 129.522 565.161 125.803 562.473 123.121L562.464 123.113Z" fill="#0F2841"/>
<path d="M281.181 213.215C278.773 214.826 275.884 215.636 272.515 215.636C269.548 215.636 266.956 214.93 264.73 213.52C262.505 212.109 260.785 210.106 259.572 207.528C258.359 204.951 257.748 201.955 257.748 198.55C257.748 195.146 258.359 191.958 259.572 189.398C260.785 186.838 262.505 184.87 264.73 183.477C266.956 182.083 269.548 181.387 272.515 181.387C275.84 181.387 278.659 182.188 280.981 183.773C283.293 185.366 284.882 187.596 285.737 190.469H294.84C294.299 186.925 293.016 183.869 291 181.282C288.975 178.705 286.418 176.693 283.311 175.256C280.204 173.82 276.704 173.105 272.794 173.105C268.029 173.105 263.823 174.159 260.183 176.267C256.544 178.374 253.716 181.335 251.718 185.149C249.719 188.963 248.716 193.421 248.716 198.542C248.716 203.662 249.693 208.173 251.648 211.961C253.603 215.749 256.343 218.683 259.878 220.773C263.404 222.855 267.575 223.899 272.384 223.899C276.294 223.899 279.837 223.177 283.005 221.749C286.173 220.312 288.8 218.292 290.895 215.688C292.981 213.084 294.342 210.08 294.971 206.675H285.999C285.187 209.409 283.581 211.586 281.181 213.197V213.215Z" fill="#E93334"/>
<path d="M325.211 191.149C322.532 189.668 319.468 188.928 316.003 188.928C312.539 188.928 309.528 189.668 306.831 191.149C304.134 192.629 302.022 194.684 300.495 197.305C298.968 199.926 298.2 202.965 298.2 206.422C298.2 209.88 298.968 212.919 300.495 215.54C302.022 218.161 304.134 220.216 306.831 221.696C309.528 223.177 312.582 223.917 316.003 223.917C319.425 223.917 322.532 223.177 325.211 221.696C327.881 220.216 329.985 218.161 331.512 215.54C333.039 212.919 333.807 209.88 333.807 206.422C333.807 202.965 333.039 199.935 331.512 197.305C329.985 194.684 327.881 192.629 325.211 191.149ZM324.364 211.734C323.553 213.258 322.436 214.451 320.996 215.296C319.556 216.149 317.889 216.576 316.003 216.576C314.118 216.576 312.46 216.149 311.046 215.296C309.633 214.443 308.507 213.258 307.678 211.734C306.849 210.21 306.43 208.434 306.43 206.414C306.43 204.393 306.849 202.565 307.678 201.067C308.507 199.569 309.633 198.385 311.046 197.532C312.46 196.678 314.11 196.251 316.003 196.251C317.897 196.251 319.556 196.678 320.996 197.532C322.436 198.385 323.561 199.561 324.364 201.067C325.176 202.565 325.577 204.35 325.577 206.414C325.577 208.478 325.176 210.202 324.364 211.734Z" fill="#E93334"/>
<path d="M355.521 204.132L349.517 202.722C346.637 202.051 345.197 200.797 345.197 198.951C345.197 197.741 345.642 196.774 346.549 196.06C347.448 195.346 348.705 194.98 350.328 194.98C351.952 194.98 353.208 195.398 354.107 196.225C355.006 197.053 355.451 198.193 355.451 199.621H363.271C363.227 197.471 362.677 195.581 361.621 193.97C360.565 192.359 359.09 191.096 357.205 190.199C355.32 189.302 353.138 188.858 350.669 188.858C348.199 188.858 345.834 189.276 343.861 190.104C341.88 190.94 340.318 192.133 339.175 193.7C338.031 195.267 337.455 197.131 337.455 199.282C337.455 201.929 338.188 204.002 339.646 205.508C341.103 207.015 343.346 208.103 346.357 208.774L352.362 210.184C353.845 210.498 354.858 210.968 355.399 211.595C355.94 212.222 356.21 212.936 356.21 213.746C356.21 214.956 355.704 215.923 354.692 216.637C353.68 217.351 352.187 217.708 350.206 217.708C348.365 217.708 346.924 217.281 345.895 216.428C344.856 215.575 344.324 214.434 344.28 212.997H336.46C336.46 216.271 337.682 218.919 340.135 220.939C342.587 222.959 345.877 223.969 350.014 223.969C352.754 223.969 355.181 223.534 357.301 222.654C359.413 221.783 361.054 220.521 362.224 218.884C363.393 217.247 363.978 215.305 363.978 213.058C363.978 210.498 363.271 208.53 361.857 207.137C360.443 205.752 358.34 204.742 355.556 204.106L355.521 204.132Z" fill="#E93334"/>
<path d="M380.202 179.506H371.972V189.868H365.566V196.73H371.972V223.107H380.202V196.73H386.608V189.868H380.202V179.506Z" fill="#E93334"/>
<path d="M412.362 190.435C410.207 189.381 407.615 188.858 404.604 188.858C401.593 188.858 399.018 189.355 396.749 190.339C394.48 191.323 392.726 192.707 391.486 194.475C390.247 196.251 389.636 198.341 389.636 200.762H396.644C396.644 199.012 397.299 197.653 398.599 196.696C399.9 195.729 401.767 195.25 404.193 195.25C405.59 195.25 406.803 195.468 407.833 195.894C408.863 196.321 409.665 196.992 410.224 197.915C410.783 198.838 411.071 200.057 411.071 201.581V202.321L401.087 203.131C397.133 203.444 394.087 204.507 391.949 206.327C389.811 208.138 388.746 210.576 388.746 213.624C388.746 216.672 389.767 219.223 391.818 221.122C393.86 223.029 396.636 223.978 400.144 223.978C402.753 223.978 405.075 223.438 407.126 222.367C409.168 221.296 410.556 219.903 411.271 218.196L411.882 223.107H419.1V202.922C419.1 199.822 418.515 197.235 417.346 195.154C416.176 193.064 414.509 191.497 412.354 190.443L412.362 190.435ZM411.149 209.644C411.149 212.205 410.399 214.199 408.889 215.636C407.379 217.072 405.345 217.786 402.788 217.786C400.991 217.786 399.594 217.403 398.608 216.646C397.622 215.888 397.124 214.765 397.124 213.284C397.124 211.935 397.665 210.855 398.739 210.019C399.821 209.192 401.636 208.66 404.202 208.434L411.149 207.894V209.644Z" fill="#E93334"/>
<path d="M478.21 197.636C479.711 195.328 480.471 192.533 480.471 189.259C480.471 184.417 478.908 180.647 475.784 177.956C472.66 175.265 468.313 173.915 462.737 173.915H443.92V223.098H452.552V204.733H463.138L471.499 223.098H480.942L471.569 202.913C474.492 201.703 476.709 199.944 478.21 197.627V197.636ZM469.142 195.05C467.615 196.443 465.477 197.131 462.737 197.131H452.552V181.587H462.737C465.477 181.587 467.615 182.249 469.142 183.573C470.67 184.896 471.438 186.795 471.438 189.259C471.438 191.723 470.67 193.656 469.142 195.041V195.05Z" fill="#E93334"/>
<path d="M490.586 173.314C489.189 173.314 488.011 173.785 487.042 174.725C486.073 175.666 485.594 176.833 485.594 178.226C485.594 179.619 486.073 180.795 487.042 181.761C488.011 182.728 489.189 183.207 490.586 183.207C491.982 183.207 493.16 182.719 494.129 181.761C495.098 180.795 495.578 179.619 495.578 178.226C495.578 176.833 495.098 175.666 494.129 174.725C493.16 173.785 491.982 173.314 490.586 173.314Z" fill="#E93334"/>
<path d="M494.775 189.868H486.545V223.107H494.775V189.868Z" fill="#E93334"/>
<path d="M521.838 215.165C520.468 216.149 518.749 216.646 516.68 216.646C514.926 216.646 513.408 216.228 512.133 215.4C510.859 214.573 509.873 213.398 509.201 211.865C508.529 210.341 508.189 208.521 508.189 206.414C508.189 204.306 508.546 202.486 509.271 200.963C509.986 199.439 511.016 198.263 512.343 197.427C513.669 196.6 515.188 196.182 516.89 196.182C518.871 196.182 520.52 196.669 521.847 197.627C523.173 198.594 524.081 200.013 524.579 201.903H532.808C532.363 197.915 530.688 194.736 527.782 192.385C524.884 190.034 521.166 188.85 516.619 188.85C513.338 188.85 510.449 189.599 507.953 191.105C505.457 192.612 503.502 194.684 502.088 197.331C500.674 199.979 499.967 203.009 499.967 206.414C499.967 209.819 500.657 213.041 502.027 215.662C503.397 218.283 505.344 220.329 507.857 221.783C510.37 223.238 513.32 223.969 516.689 223.969C519.613 223.969 522.222 223.421 524.509 222.323C526.804 221.226 528.68 219.702 530.138 217.752C531.595 215.801 532.512 213.528 532.87 210.925H524.579C524.125 212.762 523.217 214.181 521.847 215.165H521.838Z" fill="#E93334"/>
<path d="M564.759 195.146C563.59 193.056 561.923 191.488 559.767 190.435C557.612 189.381 555.02 188.858 552.009 188.858C548.998 188.858 546.423 189.355 544.154 190.339C541.885 191.323 540.131 192.707 538.892 194.475C537.652 196.251 537.041 198.341 537.041 200.762H544.049C544.049 199.012 544.704 197.653 546.004 196.696C547.305 195.729 549.172 195.25 551.599 195.25C552.995 195.25 554.208 195.468 555.238 195.894C556.268 196.321 557.071 196.992 557.629 197.915C558.188 198.838 558.476 200.057 558.476 201.581V202.321L548.492 203.131C544.538 203.444 541.492 204.507 539.354 206.327C537.216 208.138 536.151 210.576 536.151 213.624C536.151 216.672 537.172 219.223 539.223 221.122C541.265 223.029 544.041 223.978 547.549 223.978C550.159 223.978 552.48 223.438 554.531 222.367C556.573 221.296 557.961 219.903 558.676 218.196L559.287 223.107H566.505V202.922C566.505 199.822 565.92 197.235 564.751 195.154L564.759 195.146ZM558.554 209.644C558.554 212.205 557.804 214.199 556.294 215.636C554.784 217.072 552.751 217.786 550.193 217.786C548.396 217.786 546.999 217.403 546.013 216.646C545.027 215.888 544.529 214.765 544.529 213.284C544.529 211.935 545.07 210.855 546.144 210.019C547.226 209.192 549.041 208.66 551.607 208.434L558.554 207.894V209.644Z" fill="#E93334"/>
</svg>
