<svg width="74" height="428" viewBox="0 0 74 428" fill="none" xmlns="http://www.w3.org/2000/svg">
<g clip-path="url(#clip0_4072_1123)">
<path d="M33.6738 179.591L6.59947 157.142L33.6738 134.694L33.6738 138.799L11.5508 157.144L33.6738 175.488L33.6738 179.593L33.6738 179.591Z" fill="#0F2841"/>
<path d="M23.25 139.595L14.5269 136.651C14.2107 136.545 13.8632 136.745 13.9028 137.009L14.3688 144.105C14.402 144.334 14.142 144.523 13.8487 144.486L7.64906 143.241C7.33908 143.202 7.07487 143.414 7.1352 143.652L7.69483 149.968C7.75724 150.209 7.48263 150.423 7.16849 150.377L0.536163 149.069C0.219942 149.021 -0.0567518 149.239 0.0119013 149.482L2.00285 157.412L23.25 139.597L23.25 139.595Z" fill="#0F2841"/>
<path d="M23.2734 174.956L14.5503 177.9C14.2341 178.006 13.8867 177.807 13.9262 177.543L14.3922 170.446C14.4255 170.217 14.1654 170.028 13.8721 170.066L7.6725 171.31C7.36251 171.35 7.09831 171.138 7.15864 170.899L7.71826 164.583C7.78068 164.342 7.50606 164.128 7.19192 164.174L0.5596 165.483C0.243379 165.531 -0.0333141 165.312 0.035339 165.069L2.02629 157.139L23.2734 174.954L23.2734 174.956Z" fill="#0F2841"/>
<path d="M0.0252458 130.589L22.1482 112.244L0.0252474 93.8998L0.0252476 89.7946L27.0996 112.244L0.0252456 134.694L0.0252458 130.589Z" fill="#E93334"/>
<path d="M10.4252 130.059L19.1483 133.003C19.4645 133.109 19.8119 132.909 19.7724 132.645L19.3064 125.549C19.2731 125.32 19.5332 125.131 19.8265 125.168L26.0261 126.413C26.3361 126.452 26.6003 126.24 26.54 126.002L25.9803 119.686C25.9179 119.445 26.1925 119.231 26.5067 119.277L33.139 120.585C33.4552 120.633 33.7319 120.415 33.6633 120.172L31.6723 112.242L10.4252 130.057L10.4252 130.059Z" fill="#E93334"/>
<path d="M10.4252 94.4316L19.1483 91.4878C19.4645 91.3818 19.8119 91.5813 19.7724 91.8451L19.3064 98.9419C19.2731 99.1704 19.5332 99.3595 19.8265 99.3221L26.0261 98.0777C26.3361 98.0382 26.6003 98.2501 26.54 98.489L25.9803 104.805C25.9179 105.046 26.1925 105.26 26.5067 105.214L33.139 103.905C33.4552 103.857 33.7319 104.075 33.6633 104.319L31.6723 112.248L10.4252 94.4337L10.4252 94.4316Z" fill="#E93334"/>
<path d="M33.6738 89.7967L6.59947 67.347L33.6738 44.8973L33.6738 49.0025L11.5508 67.347L33.6738 85.6915L33.6738 89.7967Z" fill="#0F2841"/>
<path d="M23.2734 49.5323L14.5503 46.5884C14.2341 46.4825 13.8867 46.6819 13.9262 46.9457L14.3922 54.0426C14.4255 54.2711 14.1654 54.4601 13.8721 54.4227L7.6725 53.1783C7.36252 53.1388 7.09831 53.3507 7.15864 53.5897L7.71826 59.9053C7.78068 60.1463 7.50606 60.3603 7.19192 60.3146L0.5596 59.0057C0.243379 58.958 -0.0333143 59.1761 0.0353388 59.4192L2.02628 67.3491L23.2734 49.5343L23.2734 49.5323Z" fill="#0F2841"/>
<path d="M23.2734 85.1617L14.5503 88.1055C14.2341 88.2115 13.8867 88.0121 13.9262 87.7482L14.3922 80.6514C14.4255 80.4229 14.1654 80.2338 13.8721 80.2712L7.6725 81.5157C7.36251 81.5551 7.09831 81.3432 7.15864 81.1043L7.71826 74.7886C7.78068 74.5476 7.50606 74.3337 7.19192 74.3794L0.5596 75.6882C0.243379 75.736 -0.0333141 75.5178 0.035339 75.2748L2.02629 67.3449L23.2734 85.1596L23.2734 85.1617Z" fill="#0F2841"/>
<path d="M0.0253717 40.7942L22.1484 22.4497L0.0253733 4.10518L0.0253735 -1.18337e-06L27.0977 22.4497L0.0232925 44.8994L0.0232927 40.7942L0.0253717 40.7942Z" fill="#0F2841"/>
<path d="M10.4252 40.2624L19.1483 43.2062C19.4645 43.3122 19.8119 43.1127 19.7724 42.8489L19.3064 35.7521C19.2731 35.5235 19.5332 35.3345 19.8265 35.3719L26.0261 36.6163C26.3361 36.6558 26.6003 36.4439 26.54 36.205L25.9803 29.8893C25.9179 29.6483 26.1925 29.4343 26.5067 29.48L33.139 30.7889C33.4552 30.8366 33.7319 30.6185 33.6633 30.3754L31.6723 22.4455L10.4252 40.2603L10.4252 40.2624Z" fill="#0F2841"/>
<path d="M10.4252 4.63495L19.1483 1.6911C19.4645 1.58515 19.8119 1.78459 19.7724 2.04844L19.3064 9.14525C19.2731 9.37377 19.5332 9.56283 19.8265 9.52543L26.0261 8.281C26.3361 8.24153 26.6003 8.45343 26.54 8.69235L25.9803 15.008C25.9179 15.249 26.1925 15.463 26.5067 15.4173L33.139 14.1084C33.4552 14.0607 33.7319 14.2788 33.6633 14.5219L31.6723 22.4518L10.4252 4.63495Z" fill="#0F2841"/>
<path d="M-0.000144834 310.182L22.1229 291.838L-0.000143231 273.493L-0.000143051 269.388L27.0742 291.838L-0.000145014 314.287L-0.000144834 310.182Z" fill="#0F2841"/>
<path d="M10.4017 309.65L19.1249 312.594C19.4411 312.7 19.7885 312.501 19.749 312.237L19.283 305.14C19.2497 304.912 19.5097 304.722 19.8031 304.76L26.0027 306.004C26.3127 306.044 26.5769 305.832 26.5165 305.593L25.9569 299.277C25.8945 299.036 26.1691 298.822 26.4832 298.868L33.1156 300.177C33.4318 300.225 33.7085 300.007 33.6398 299.763L31.6489 291.834L10.4017 309.648L10.4017 309.65Z" fill="#0F2841"/>
<path d="M10.4017 274.023L19.1249 271.079C19.4411 270.973 19.7885 271.173 19.749 271.436L19.283 278.533C19.2497 278.762 19.5097 278.951 19.8031 278.913L26.0027 277.669C26.3127 277.629 26.5769 277.841 26.5165 278.08L25.9569 284.396C25.8945 284.637 26.1691 284.851 26.4832 284.805L33.1156 283.496C33.4318 283.449 33.7085 283.667 33.6398 283.91L31.6489 291.84L10.4017 274.025L10.4017 274.023Z" fill="#0F2841"/>
<path d="M33.6504 269.388L6.57603 246.938L33.6504 224.491L33.6504 228.596L11.5274 246.94L33.6504 265.283L33.6504 269.388Z" fill="#0F2841"/>
<path d="M23.248 229.126L14.5249 226.182C14.2087 226.076 13.8613 226.275 13.9008 226.539L14.3668 233.636C14.4001 233.864 14.14 234.053 13.8467 234.016L7.64711 232.772C7.33713 232.732 7.07292 232.944 7.13325 233.183L7.69288 239.499C7.75529 239.74 7.48067 239.954 7.16653 239.908L0.53421 238.599C0.217988 238.551 -0.0587049 238.769 0.00994817 239.012L2.00089 246.942L23.248 229.128L23.248 229.126Z" fill="#0F2841"/>
<path d="M23.248 264.753L14.5249 267.697C14.2087 267.803 13.8613 267.603 13.9008 267.34L14.3668 260.243C14.4001 260.014 14.14 259.825 13.8467 259.863L7.64711 261.107C7.33713 261.146 7.07292 260.935 7.13325 260.696L7.69288 254.38C7.75529 254.139 7.48067 253.925 7.16653 253.971L0.53421 255.28C0.217989 255.327 -0.0587047 255.109 0.00994838 254.866L2.00089 246.936L23.248 264.751L23.248 264.753Z" fill="#0F2841"/>
<path d="M-0.000144834 220.385L22.1229 202.041L-0.000143231 183.696L-0.000143051 179.591L27.0742 202.041L-0.000145014 224.491L-0.000144834 220.385Z" fill="#0F2841"/>
<path d="M10.4017 219.856L19.1249 222.8C19.4411 222.906 19.7885 222.706 19.749 222.442L19.283 215.345C19.2497 215.117 19.5097 214.928 19.8031 214.965L26.0027 216.21C26.3127 216.249 26.5769 216.037 26.5165 215.798L25.9569 209.483C25.8945 209.242 26.1691 209.028 26.4832 209.073L33.1156 210.382C33.4318 210.43 33.7085 210.212 33.6398 209.969L31.6489 202.039L10.4017 219.854L10.4017 219.856Z" fill="#0F2841"/>
<path d="M10.4017 184.226L19.1249 181.282C19.4411 181.176 19.7885 181.376 19.749 181.64L19.283 188.736C19.2497 188.965 19.5097 189.154 19.8031 189.117L26.0027 187.872C26.3127 187.833 26.5769 188.045 26.5165 188.284L25.9569 194.599C25.8945 194.84 26.1691 195.054 26.4832 195.008L33.1156 193.7C33.4318 193.652 33.7085 193.87 33.6398 194.113L31.6489 202.043L10.4017 184.228L10.4017 184.226Z" fill="#0F2841"/>
</g>
<g clip-path="url(#clip1_4072_1123)">
<path d="M40.4082 247.956L67.0313 270.446L40.4082 292.934L40.4082 288.821L62.1625 270.444L40.4082 252.067L40.4082 247.954L40.4082 247.956Z" fill="#0F2841"/>
<path d="M50.6348 288.422L59.2125 291.371C59.5235 291.478 59.8651 291.278 59.8262 291.013L59.368 283.904C59.3353 283.675 59.591 283.486 59.8794 283.523L65.9757 284.77C66.2805 284.809 66.5403 284.597 66.481 284.358L65.9307 278.031C65.8693 277.789 66.1394 277.575 66.4483 277.621L72.9701 278.932C73.281 278.98 73.5531 278.761 73.4856 278.518L71.5278 270.574L50.6348 288.42L50.6348 288.422Z" fill="#0F2841"/>
<path d="M50.6348 252.731L59.2125 249.782C59.5235 249.676 59.8651 249.876 59.8262 250.14L59.368 257.25C59.3353 257.479 59.591 257.668 59.8794 257.631L65.9757 256.384C66.2805 256.344 66.5403 256.557 66.481 256.796L65.9307 263.123C65.8693 263.364 66.1394 263.579 66.4483 263.533L72.9701 262.222C73.281 262.174 73.5531 262.392 73.4856 262.636L71.5278 270.58L50.6348 252.733L50.6348 252.731Z" fill="#0F2841"/>
<path d="M73.4962 297.178L51.7419 315.555L73.4962 333.933L73.4962 338.045L46.873 315.555L73.4962 293.065L73.4962 297.178Z" fill="#0F2841"/>
<path d="M63.2694 297.709L54.6916 294.76C54.3807 294.654 54.0391 294.853 54.0779 295.118L54.5362 302.227C54.5689 302.456 54.3132 302.645 54.0247 302.608L47.9285 301.361C47.6236 301.322 47.3638 301.534 47.4232 301.773L47.9735 308.1C48.0348 308.342 47.7648 308.556 47.4559 308.51L40.9341 307.199C40.6232 307.151 40.3511 307.37 40.4186 307.613L42.3763 315.557L63.2694 297.711L63.2694 297.709Z" fill="#0F2841"/>
<path d="M63.2694 333.4L54.6916 336.349C54.3807 336.455 54.0391 336.255 54.0779 335.991L54.5362 328.881C54.5689 328.652 54.3132 328.463 54.0247 328.501L47.9285 329.747C47.6236 329.787 47.3638 329.574 47.4232 329.335L47.9735 323.008C48.0348 322.767 47.7648 322.552 47.4559 322.598L40.9341 323.909C40.6232 323.957 40.3511 323.739 40.4186 323.495L42.3764 315.551L63.2694 333.398L63.2694 333.4Z" fill="#0F2841"/>
<path d="M40.4082 338.043L67.0313 360.533L40.4082 383.023L40.4082 378.91L62.1625 360.533L40.4082 342.155L40.4082 338.043Z" fill="#E93334"/>
<path d="M50.6348 378.379L59.2125 381.328C59.5235 381.435 59.8651 381.235 59.8262 380.97L59.368 373.861C59.3353 373.632 59.591 373.443 59.8794 373.48L65.9757 374.727C66.2805 374.766 66.5403 374.554 66.481 374.315L65.9307 367.988C65.8693 367.746 66.1394 367.532 66.4483 367.578L72.9701 368.889C73.281 368.937 73.5531 368.718 73.4856 368.475L71.5278 360.531L50.6348 378.377L50.6348 378.379Z" fill="#0F2841"/>
<path d="M50.6348 342.686L59.2125 339.737C59.5235 339.631 59.8651 339.831 59.8262 340.095L59.368 347.205C59.3353 347.434 59.591 347.623 59.8794 347.585L65.9757 346.339C66.2805 346.299 66.5403 346.512 66.481 346.751L65.9307 353.078C65.8693 353.319 66.1394 353.534 66.4483 353.488L72.9701 352.177C73.281 352.129 73.5531 352.347 73.4856 352.591L71.5278 360.535L50.6348 342.688L50.6348 342.686Z" fill="#E93334"/>
<path d="M73.4961 387.133L51.7418 405.51L73.4961 423.887L73.4961 428L46.875 405.51L73.4981 383.02L73.4981 387.133L73.4961 387.133Z" fill="#0F2841"/>
<path d="M63.2694 387.666L54.6916 384.717C54.3807 384.611 54.0391 384.81 54.0779 385.075L54.5362 392.184C54.5689 392.413 54.3132 392.602 54.0247 392.565L47.9285 391.318C47.6236 391.279 47.3638 391.491 47.4232 391.73L47.9735 398.057C48.0348 398.299 47.7648 398.513 47.4559 398.467L40.9341 397.156C40.6232 397.108 40.3511 397.327 40.4186 397.57L42.3763 405.514L63.2694 387.668L63.2694 387.666Z" fill="#0F2841"/>
<path d="M63.2694 423.357L54.6916 426.306C54.3807 426.412 54.0391 426.212 54.0779 425.948L54.5362 418.838C54.5689 418.609 54.3132 418.42 54.0247 418.458L47.9285 419.704C47.6236 419.744 47.3638 419.531 47.4232 419.292L47.9735 412.965C48.0348 412.724 47.7648 412.509 47.4559 412.555L40.9341 413.866C40.6232 413.914 40.3511 413.696 40.4186 413.452L42.3764 405.508L63.2694 423.357Z" fill="#0F2841"/>
<path d="M73.5196 117.264L51.7653 135.641L73.5196 154.018L73.5196 158.131L46.8965 135.641L73.5196 113.151L73.5196 117.264Z" fill="#0F2841"/>
<path d="M63.2909 117.797L54.7131 114.848C54.4022 114.741 54.0605 114.941 54.0994 115.206L54.5577 122.315C54.5904 122.544 54.3347 122.733 54.0462 122.696L47.9499 121.449C47.6451 121.41 47.3853 121.622 47.4447 121.861L47.995 128.188C48.0563 128.43 47.7863 128.644 47.4774 128.598L40.9556 127.287C40.6446 127.239 40.3726 127.458 40.4401 127.701L42.3978 135.645L63.2909 117.799L63.2909 117.797Z" fill="#0F2841"/>
<path d="M63.2909 153.488L54.7131 156.437C54.4022 156.543 54.0605 156.343 54.0994 156.079L54.5577 148.97C54.5904 148.741 54.3347 148.551 54.0462 148.589L47.9499 149.835C47.6451 149.875 47.3853 149.663 47.4447 149.423L47.995 143.096C48.0563 142.855 47.7863 142.641 47.4774 142.686L40.9556 143.998C40.6446 144.045 40.3726 143.827 40.4401 143.583L42.3978 135.639L63.2909 153.486L63.2909 153.488Z" fill="#0F2841"/>
<path d="M40.4316 158.131L67.0548 180.621L40.4316 203.109L40.4316 198.996L62.1859 180.619L40.4316 162.244L40.4316 158.131Z" fill="#0F2841"/>
<path d="M50.6602 198.465L59.2379 201.414C59.5489 201.521 59.8905 201.321 59.8516 201.056L59.3934 193.947C59.3607 193.718 59.6164 193.529 59.9048 193.566L66.0011 194.813C66.3059 194.852 66.5657 194.64 66.5064 194.401L65.9561 188.074C65.8947 187.832 66.1648 187.618 66.4737 187.664L72.9954 188.975C73.3064 189.023 73.5785 188.804 73.511 188.561L71.5532 180.617L50.6602 198.463L50.6602 198.465Z" fill="#0F2841"/>
<path d="M50.6602 162.774L59.2379 159.825C59.5489 159.719 59.8905 159.919 59.8516 160.183L59.3934 167.293C59.3607 167.522 59.6164 167.711 59.9048 167.673L66.0011 166.427C66.3059 166.387 66.5657 166.6 66.5064 166.839L65.9561 173.166C65.8947 173.407 66.1648 173.622 66.4737 173.576L72.9954 172.265C73.3064 172.217 73.5785 172.435 73.511 172.679L71.5532 180.623L50.6602 162.776L50.6602 162.774Z" fill="#0F2841"/>
<path d="M73.5196 207.221L51.7653 225.598L73.5196 243.976L73.5196 248.088L46.8965 225.598L73.5196 203.109L73.5196 207.221Z" fill="#0F2841"/>
<path d="M63.2909 207.752L54.7131 204.803C54.4022 204.697 54.0605 204.896 54.0994 205.161L54.5577 212.27C54.5904 212.499 54.3347 212.688 54.0462 212.651L47.9499 211.404C47.6451 211.365 47.3853 211.577 47.4447 211.816L47.995 218.143C48.0563 218.385 47.7863 218.599 47.4774 218.553L40.9556 217.242C40.6446 217.194 40.3726 217.413 40.4401 217.656L42.3978 225.6L63.2909 207.754L63.2909 207.752Z" fill="#0F2841"/>
<path d="M63.2909 243.445L54.7131 246.394C54.4022 246.5 54.0605 246.3 54.0994 246.036L54.5577 238.926C54.5904 238.697 54.3347 238.508 54.0462 238.546L47.9499 239.792C47.6451 239.832 47.3853 239.619 47.4447 239.38L47.995 233.053C48.0563 232.812 47.7863 232.597 47.4774 232.643L40.9556 233.954C40.6446 234.002 40.3726 233.784 40.4401 233.54L42.3978 225.596L63.2909 243.443L63.2909 243.445Z" fill="#0F2841"/>
</g>
<defs>
<clipPath id="clip0_4072_1123">
<rect width="314.285" height="33.6734" fill="white" transform="translate(33.6738) rotate(90)"/>
</clipPath>
<clipPath id="clip1_4072_1123">
<rect width="314.846" height="33.1122" fill="white" transform="translate(40.4082 428) rotate(-90)"/>
</clipPath>
</defs>
</svg>
