<svg width="178" height="64" viewBox="0 0 178 64" fill="none" xmlns="http://www.w3.org/2000/svg">
<g clip-path="url(#clip0_3989_1001)">
<path d="M21.3718 57.726L0 31.9883L21.3718 6.25067L42.7435 31.9883L21.3718 57.726ZM3.9083 31.9883L21.3718 53.0195L38.8352 31.9883L21.3718 10.9571L3.9083 31.9883Z" fill="white"/>
<path d="M21.3651 48.1013L7.98535 31.9882L21.3651 15.8768V48.1013Z" fill="white"/>
<path d="M21.3691 48.1013L34.7471 31.9882L21.3691 15.8768V48.1013Z" fill="white"/>
<path d="M38.3247 22.1004L41.1269 13.8074C41.2267 13.5063 41.0392 13.1778 40.7863 13.2139L34.0311 13.6577C33.8143 13.6887 33.6337 13.4427 33.6681 13.164L34.8516 7.26888C34.8895 6.97472 34.6865 6.72185 34.4611 6.78034L28.449 7.3136C28.2185 7.37381 28.0155 7.11234 28.0603 6.81303L29.3074 0.50849C29.3521 0.207455 29.1457 -0.0540156 28.9135 0.00963178L21.3652 1.90357L38.3247 22.1022V22.1004Z" fill="white"/>
<path d="M4.40518 22.1004L1.60297 13.8074C1.5032 13.5063 1.6907 13.1778 1.94357 13.2139L8.69881 13.6577C8.91556 13.6887 9.09618 13.4427 9.06177 13.164L7.87827 7.26888C7.84043 6.97472 8.04341 6.72185 8.26876 6.78034L14.2809 7.3136C14.5114 7.37381 14.7144 7.11234 14.6696 6.81303L13.4225 0.50849C13.3778 0.207455 13.5842 -0.0540156 13.8164 0.00963178L21.3647 1.90357L4.40518 22.1022V22.1004Z" fill="white"/>
<path d="M38.3247 41.8995L41.1269 50.1926C41.2267 50.4937 41.0392 50.8222 40.7863 50.7861L34.0311 50.3423C33.8143 50.3113 33.6337 50.5573 33.6681 50.836L34.8516 56.7311C34.8895 57.0253 34.6865 57.2781 34.4611 57.2197L28.449 56.6864C28.2185 56.6262 28.0155 56.8877 28.0603 57.187L29.3074 63.4915C29.3521 63.7925 29.1457 64.054 28.9135 63.9904L21.3652 62.0964L38.3247 41.8978V41.8995Z" fill="white"/>
<path d="M4.40518 41.8995L1.60297 50.1926C1.5032 50.4937 1.6907 50.8222 1.94357 50.7861L8.69881 50.3423C8.91556 50.3113 9.09618 50.5573 9.06177 50.836L7.87827 56.7311C7.84043 57.0253 8.04341 57.2781 8.26876 57.2197L14.2809 56.6864C14.5114 56.6262 14.7144 56.8877 14.6696 57.187L13.4225 63.4915C13.3778 63.7925 13.5842 64.054 13.8164 63.9904L21.3647 62.0964L4.40518 41.8978V41.8995Z" fill="white"/>
<path d="M66.9167 26.5427C66.6561 27.5038 66.1389 28.245 65.3854 28.7419C64.6198 29.2469 63.6261 29.4994 62.4246 29.4994C60.763 29.4994 59.4679 28.9577 58.576 27.8907C57.7818 26.9418 57.3298 25.6345 57.2361 23.9932H69.3522V22.7429C69.3522 21.2686 69.0549 19.9613 68.4643 18.8576C67.8738 17.7499 67.0348 16.8743 65.9678 16.2511C64.9049 15.628 63.6505 15.3104 62.2373 15.3104C60.8241 15.3104 59.4435 15.6647 58.3276 16.3611C57.2117 17.0575 56.3238 18.039 55.6926 19.269C55.0613 20.4989 54.7437 21.9284 54.7437 23.5289C54.7437 25.1295 55.0695 26.5875 55.7089 27.8052C56.3523 29.027 57.2605 29.9963 58.409 30.6805C59.5575 31.3687 60.8974 31.7149 62.3961 31.7149C64.2329 31.7149 65.7642 31.2751 66.9493 30.4035C68.1345 29.532 68.9408 28.2613 69.3481 26.6282L69.4051 26.4042H66.9575L66.9208 26.5386L66.9167 26.5427ZM62.2373 17.534C63.6098 17.534 64.7257 17.9657 65.5606 18.821C66.3588 19.6396 66.7823 20.731 66.8149 22.0628H57.2972C57.3909 21.3826 57.5701 20.7677 57.8266 20.222C58.2298 19.3667 58.8163 18.6988 59.5697 18.2345C60.3272 17.7702 61.2232 17.534 62.2332 17.534H62.2373Z" fill="white"/>
<path d="M75.5305 10.8997H73.0258V15.7217H69.9673V17.9128H73.0258V31.3402H75.5305V17.9128H78.585V15.7217H75.5305V10.8997Z" fill="white"/>
<path d="M88.1797 15.3144C86.8683 15.3144 85.7321 15.6036 84.7913 16.1778C84.0501 16.6299 83.4351 17.2082 82.9668 17.9006V8H80.4336V31.3117H82.9668V22.8407C82.9668 21.8836 83.1541 21.0039 83.5166 20.222C83.879 19.4482 84.4207 18.821 85.1253 18.3567C85.8258 17.8965 86.7177 17.6603 87.7684 17.6603C88.534 17.6603 89.2183 17.8069 89.8006 18.1001C90.3708 18.3852 90.8188 18.8658 91.1365 19.5296C91.4582 20.2057 91.6252 21.1424 91.6252 22.3031V31.3402H94.1624V21.8307C94.1624 19.8839 93.6819 18.2997 92.737 17.1145C91.7799 15.9213 90.2486 15.3144 88.1838 15.3144H88.1797Z" fill="white"/>
<path d="M108.624 26.5427C108.364 27.5038 107.846 28.245 107.093 28.7419C106.327 29.2469 105.334 29.4994 104.132 29.4994C102.471 29.4994 101.175 28.9577 100.284 27.8907C99.4894 26.9418 99.0373 25.6345 98.9436 23.9932H111.06V22.7429C111.06 21.2686 110.762 19.9613 110.172 18.8576C109.581 17.7499 108.742 16.8743 107.675 16.2511C106.612 15.628 105.358 15.3104 103.945 15.3104C102.532 15.3104 101.151 15.6647 100.035 16.3611C98.9192 17.0575 98.0314 18.039 97.4001 19.269C96.7688 20.4989 96.4512 21.9284 96.4512 23.5289C96.4512 25.1295 96.777 26.5875 97.4164 27.8052C98.0599 29.027 98.9681 29.9963 100.117 30.6805C101.265 31.3687 102.605 31.7149 104.104 31.7149C105.94 31.7149 107.472 31.2751 108.657 30.4035C109.842 29.532 110.648 28.2613 111.056 26.6282L111.113 26.4042H108.665L108.628 26.5386L108.624 26.5427ZM103.945 17.534C105.317 17.534 106.433 17.9657 107.268 18.821C108.066 19.6396 108.49 20.731 108.522 22.0628H99.0088C99.1025 21.3826 99.2816 20.7677 99.5382 20.222C99.9414 19.3667 100.528 18.6988 101.281 18.2345C102.039 17.7702 102.935 17.534 103.945 17.534Z" fill="white"/>
<path d="M120.981 15.4081C119.49 15.2737 118.179 15.5792 117.169 16.3408C116.701 16.6951 116.33 17.1064 116.049 17.5788L115.931 15.7217H113.532V31.3402H116.065V22.4578C116.065 21.0406 116.469 19.9043 117.259 19.0816C118.049 18.259 119.136 17.8436 120.488 17.8436H121.865V15.567L121.73 15.5344C121.474 15.4692 121.221 15.4285 120.977 15.4041L120.981 15.4081Z" fill="white"/>
<path d="M134.286 26.5427C134.026 27.5038 133.508 28.245 132.755 28.7419C131.989 29.2469 130.996 29.4994 129.794 29.4994C128.133 29.4994 126.838 28.9577 125.946 27.8907C125.151 26.9418 124.699 25.6345 124.606 23.9932H136.722V22.7429C136.722 21.2686 136.424 19.9613 135.834 18.8576C135.243 17.7499 134.404 16.8743 133.337 16.2511C132.274 15.628 131.02 15.3104 129.607 15.3104C128.194 15.3104 126.813 15.6647 125.697 16.3611C124.581 17.0575 123.693 18.039 123.062 19.269C122.431 20.4989 122.113 21.9284 122.113 23.5289C122.113 25.1295 122.439 26.5875 123.078 27.8052C123.722 29.027 124.63 29.9963 125.779 30.6805C126.927 31.3687 128.267 31.7149 129.766 31.7149C131.603 31.7149 133.134 31.2751 134.319 30.4035C135.504 29.532 136.31 28.2613 136.718 26.6282L136.775 26.4042H134.327L134.29 26.5386L134.286 26.5427ZM129.607 17.534C130.979 17.534 132.095 17.9657 132.93 18.821C133.728 19.6396 134.152 20.731 134.185 22.0628H124.671C124.765 21.3826 124.944 20.7677 125.2 20.222C125.604 19.3667 126.19 18.6988 126.943 18.2345C127.701 17.7702 128.597 17.534 129.607 17.534Z" fill="white"/>
<path d="M149.917 24.0054C149.917 25.7607 149.518 27.1169 148.732 28.0332C147.954 28.9455 146.842 29.4057 145.433 29.4057C144.288 29.4057 143.352 29.0514 142.643 28.355C141.934 27.6586 141.576 26.4164 141.576 24.6693V15.6932H139.01V25.3616C139.01 27.2472 139.507 28.7907 140.489 29.9555C141.474 31.1284 142.908 31.723 144.74 31.723C145.962 31.723 147.09 31.438 148.092 30.88C148.907 30.4239 149.542 29.8456 149.982 29.1573L150.222 31.3443H152.454V15.7258H149.921V24.0095L149.917 24.0054Z" fill="white"/>
<path d="M176.165 16.8783C175.127 15.8398 173.746 15.3144 172.064 15.3144C170.622 15.3144 169.4 15.7054 168.435 16.4711C167.824 16.9557 167.364 17.5585 167.051 18.2671C166.725 17.5585 166.265 16.9598 165.67 16.4711C164.725 15.7013 163.536 15.3104 162.135 15.3104C160.925 15.3104 159.858 15.6117 158.962 16.2063C158.421 16.5647 157.977 17.0046 157.639 17.5137L157.443 15.7176H155.211V31.3362H157.745V21.7003C157.745 20.955 157.903 20.2667 158.213 19.6559C158.522 19.049 158.975 18.5562 159.565 18.1979C160.152 17.8395 160.86 17.6562 161.662 17.6562C162.762 17.6562 163.646 17.9983 164.289 18.6703C164.937 19.3463 165.263 20.3238 165.263 21.5741V31.3362H167.767V21.7288C167.767 20.9835 167.926 20.2871 168.236 19.664C168.545 19.0409 168.997 18.544 169.576 18.1734C170.154 17.8069 170.85 17.6195 171.653 17.6195C172.773 17.6195 173.66 17.9698 174.296 18.6621C174.935 19.3626 175.257 20.3482 175.257 21.5985V31.3321H177.729V21.1587C177.729 19.3504 177.204 17.9087 176.161 16.8702L176.165 16.8783Z" fill="white"/>
<path d="M67.3036 51.8256C66.371 52.4528 65.2551 52.7663 63.9519 52.7663C62.8034 52.7663 61.7974 52.4935 60.9381 51.9437C60.0788 51.3939 59.4109 50.6201 58.9425 49.6223C58.4742 48.6204 58.238 47.4597 58.238 46.1402C58.238 44.8206 58.4742 43.5826 58.9425 42.5889C59.4109 41.5951 60.0788 40.8335 60.9381 40.2919C61.8015 39.7543 62.8034 39.4814 63.9519 39.4814C65.2388 39.4814 66.3303 39.791 67.2263 40.4059C68.1222 41.025 68.7372 41.8884 69.0671 43.0043H72.5899C72.3822 41.6318 71.8853 40.4426 71.1034 39.4407C70.3215 38.4429 69.3277 37.661 68.1304 37.103C66.929 36.5451 65.5728 36.2681 64.0578 36.2681C62.2129 36.2681 60.5879 36.6754 59.1787 37.494C57.7696 38.3126 56.6782 39.4611 55.9044 40.9394C55.1306 42.4178 54.7437 44.1487 54.7437 46.132C54.7437 48.1154 55.1224 49.8666 55.8799 51.3369C56.6374 52.8071 57.6963 53.9474 59.0647 54.7538C60.429 55.5642 62.0418 55.9674 63.9071 55.9674C65.4221 55.9674 66.7905 55.6905 68.0163 55.1325C69.2422 54.5746 70.2604 53.7927 71.0708 52.7826C71.8813 51.7726 72.4066 50.6079 72.651 49.2883H69.1811C68.8675 50.3472 68.2444 51.1943 67.3159 51.8174L67.3036 51.8256Z" fill="white"/>
<path d="M84.3473 43.2649C83.3129 42.6906 82.1237 42.4015 80.7838 42.4015C79.4439 42.4015 78.2791 42.6906 77.2365 43.2649C76.1939 43.8391 75.3753 44.6333 74.7848 45.6515C74.1943 46.6696 73.897 47.8466 73.897 49.1865C73.897 50.5264 74.1943 51.7034 74.7848 52.7215C75.3753 53.7397 76.1939 54.5339 77.2365 55.1081C78.2791 55.6823 79.4643 55.9715 80.7838 55.9715C82.1033 55.9715 83.3088 55.6823 84.3473 55.1081C85.3818 54.5339 86.1963 53.7397 86.7868 52.7215C87.3774 51.7034 87.6747 50.5264 87.6747 49.1865C87.6747 47.8466 87.3774 46.6696 86.7868 45.6515C86.1963 44.6333 85.3818 43.8391 84.3473 43.2649ZM84.0215 51.2513C83.7079 51.8418 83.2722 52.302 82.7183 52.636C82.1603 52.9659 81.5169 53.1329 80.7879 53.1329C80.0589 53.1329 79.4195 52.97 78.8697 52.636C78.3198 52.3061 77.8881 51.8459 77.5664 51.2513C77.2447 50.6608 77.0818 49.9725 77.0818 49.1906C77.0818 48.4086 77.2447 47.7 77.5664 47.1176C77.8881 46.5352 78.3239 46.0791 78.8697 45.7492C79.4195 45.4193 80.0548 45.2523 80.7879 45.2523C81.5209 45.2523 82.1644 45.4193 82.7183 45.7492C83.2762 46.0791 83.7079 46.5352 84.0215 47.1176C84.3351 47.7 84.4899 48.3923 84.4899 49.1906C84.4899 49.9888 84.331 50.6608 84.0215 51.2513Z" fill="white"/>
<path d="M96.0765 48.3028L93.7551 47.7529C92.6392 47.4923 92.0854 47.0036 92.0854 46.2909C92.0854 45.8225 92.2605 45.4478 92.6067 45.1668C92.9528 44.8899 93.4416 44.7473 94.0687 44.7473C94.6959 44.7473 95.1806 44.9103 95.5308 45.232C95.877 45.5537 96.0521 45.9936 96.0521 46.5515H99.0781C99.0618 45.7166 98.8459 44.9876 98.4387 44.3604C98.0314 43.7333 97.4612 43.2486 96.7282 42.8984C95.9992 42.5522 95.1521 42.3771 94.195 42.3771C93.2379 42.3771 92.3257 42.54 91.56 42.8576C90.7943 43.1794 90.1916 43.6437 89.7477 44.2546C89.3038 44.8655 89.0838 45.5863 89.0838 46.4212C89.0838 47.4475 89.3649 48.2539 89.931 48.8363C90.497 49.4187 91.3604 49.8422 92.5293 50.1029L94.8507 50.6527C95.4249 50.7748 95.8159 50.9581 96.0236 51.2025C96.2313 51.4468 96.3372 51.7238 96.3372 52.0373C96.3372 52.5057 96.1417 52.8804 95.7507 53.1614C95.3598 53.4424 94.7814 53.5768 94.0158 53.5768C93.3031 53.5768 92.7451 53.4139 92.346 53.0799C91.9469 52.7501 91.7351 52.3061 91.7188 51.7482H88.6929C88.6929 53.0189 89.1653 54.0452 90.1142 54.8271C91.0631 55.609 92.3379 56 93.9384 56C95.0014 56 95.9381 55.829 96.7567 55.4909C97.5753 55.1529 98.2106 54.6642 98.6627 54.0289C99.1147 53.3935 99.3428 52.6401 99.3428 51.7726C99.3428 50.783 99.0699 50.0173 98.5201 49.4757C97.9703 48.9381 97.1599 48.5471 96.0806 48.3028H96.0765Z" fill="white"/>
<path d="M105.627 38.7524H102.446V42.7721H99.9658V45.4315H102.446V55.662H105.627V45.4315H108.107V42.7721H105.627V38.7524Z" fill="white"/>
<path d="M118.077 42.9921C117.242 42.5848 116.24 42.3812 115.075 42.3812C113.91 42.3812 112.913 42.5726 112.033 42.9554C111.153 43.3382 110.477 43.8717 109.997 44.56C109.516 45.2483 109.28 46.0587 109.28 46.9995H111.992C111.992 46.3194 112.245 45.794 112.75 45.4193C113.255 45.0447 113.976 44.8573 114.916 44.8573C115.454 44.8573 115.926 44.9388 116.326 45.1058C116.725 45.2727 117.034 45.5334 117.25 45.8877C117.466 46.242 117.576 46.7185 117.576 47.309V47.5982L113.715 47.9118C112.184 48.034 111.007 48.4453 110.18 49.1499C109.353 49.8544 108.942 50.7993 108.942 51.9804C108.942 53.1614 109.337 54.1511 110.131 54.8882C110.921 55.6294 111.996 55.996 113.353 55.996C114.363 55.996 115.263 55.7883 116.053 55.3688C116.843 54.9534 117.38 54.4117 117.657 53.7519L117.894 55.6579H120.687V47.8303C120.687 46.6289 120.459 45.623 120.007 44.8166C119.555 44.0061 118.912 43.3993 118.077 42.988V42.9921ZM117.608 50.4409C117.608 51.4305 117.315 52.2084 116.733 52.7623C116.15 53.3202 115.364 53.5972 114.371 53.5972C113.674 53.5972 113.137 53.4506 112.754 53.1533C112.371 52.856 112.18 52.4243 112.18 51.85C112.18 51.3287 112.387 50.9052 112.807 50.5834C113.226 50.2617 113.931 50.0581 114.921 49.9685L117.608 49.7608V50.4409Z" fill="white"/>
<path d="M143.56 45.7818C144.142 44.8858 144.435 43.8025 144.435 42.5318C144.435 40.6543 143.828 39.1923 142.623 38.1456C141.413 37.103 139.731 36.5817 137.573 36.5817H130.291V55.6579H133.631V48.5349H137.728L140.965 55.6579H144.619L140.99 47.8303C142.122 47.362 142.977 46.6778 143.56 45.7818ZM140.049 44.7759C139.459 45.3134 138.632 45.5863 137.569 45.5863H133.626V39.5588H137.569C138.628 39.5588 139.454 39.8154 140.049 40.3285C140.64 40.8417 140.937 41.5788 140.937 42.5359C140.937 43.493 140.64 44.2423 140.049 44.7799V44.7759Z" fill="white"/>
<path d="M148.349 36.3496C147.811 36.3496 147.351 36.5329 146.98 36.8994C146.606 37.266 146.418 37.718 146.418 38.2556C146.418 38.7932 146.606 39.2534 146.98 39.624C147.355 39.9987 147.811 40.186 148.349 40.186C148.886 40.186 149.343 39.9987 149.717 39.624C150.092 39.2493 150.279 38.7932 150.279 38.2556C150.279 37.718 150.092 37.2619 149.717 36.8994C149.343 36.5329 148.886 36.3496 148.349 36.3496Z" fill="white"/>
<path d="M149.97 42.7721H146.785V55.662H149.97V42.7721Z" fill="white"/>
<path d="M160.445 52.5831C159.915 52.9659 159.247 53.1573 158.449 53.1573C157.769 53.1573 157.182 52.9944 156.69 52.6727C156.197 52.351 155.814 51.8948 155.553 51.3043C155.293 50.7138 155.162 50.0092 155.162 49.1906C155.162 48.372 155.301 47.6674 155.582 47.0769C155.859 46.4864 156.254 46.0302 156.771 45.7085C157.284 45.3868 157.871 45.2239 158.53 45.2239C159.296 45.2239 159.935 45.4112 160.449 45.7859C160.962 46.1606 161.312 46.7104 161.507 47.4434H164.692C164.517 45.8958 163.87 44.6659 162.75 43.7496C161.626 42.8373 160.188 42.3812 158.433 42.3812C157.162 42.3812 156.046 42.6703 155.081 43.2527C154.116 43.8351 153.358 44.6415 152.812 45.6678C152.263 46.6941 151.99 47.8711 151.99 49.1906C151.99 50.5101 152.254 51.7604 152.784 52.7786C153.313 53.7967 154.067 54.5868 155.04 55.1529C156.014 55.719 157.154 56 158.457 56C159.589 56 160.595 55.7883 161.483 55.3606C162.371 54.933 163.096 54.3425 163.662 53.585C164.228 52.8275 164.578 51.9437 164.717 50.9337H161.507C161.332 51.6464 160.982 52.1962 160.449 52.579L160.445 52.5831Z" fill="white"/>
<path d="M177.053 44.8207C176.601 44.0102 175.957 43.4034 175.122 42.9921C174.287 42.5807 173.285 42.3812 172.121 42.3812C170.956 42.3812 169.958 42.5726 169.078 42.9554C168.199 43.3382 167.523 43.8717 167.042 44.56C166.562 45.2483 166.325 46.0587 166.325 46.9995H169.038C169.038 46.3194 169.29 45.794 169.795 45.4193C170.3 45.0447 171.021 44.8573 171.962 44.8573C172.499 44.8573 172.972 44.9388 173.371 45.1058C173.77 45.2727 174.08 45.5334 174.295 45.8877C174.511 46.242 174.621 46.7185 174.621 47.309V47.5982L170.76 47.9118C169.229 48.034 168.052 48.4453 167.225 49.1499C166.399 49.8544 165.987 50.7993 165.987 51.9804C165.987 53.1614 166.382 54.1511 167.177 54.8882C167.967 55.6294 169.042 55.996 170.398 55.996C171.408 55.996 172.308 55.7883 173.098 55.3688C173.888 54.9534 174.426 54.4117 174.703 53.7519L174.939 55.6579H177.733V47.8303C177.733 46.6289 177.505 45.623 177.053 44.8166V44.8207ZM174.654 50.445C174.654 51.4346 174.361 52.2125 173.778 52.7664C173.196 53.3243 172.41 53.6012 171.416 53.6012C170.72 53.6012 170.182 53.4546 169.799 53.1573C169.416 52.86 169.225 52.4283 169.225 51.8541C169.225 51.3328 169.433 50.9092 169.852 50.5875C170.272 50.2658 170.976 50.0621 171.966 49.9725L174.654 49.7648V50.445Z" fill="white"/>
</g>
<defs>
<clipPath id="clip0_3989_1001">
<rect width="177.733" height="64" fill="white"/>
</clipPath>
</defs>
</svg>
