<svg width="178" height="64" viewBox="0 0 178 64" fill="none" xmlns="http://www.w3.org/2000/svg">
<g clip-path="url(#clip0_4158_756)">
<path d="M21.3718 57.726L0 31.9883L21.3718 6.25067L42.7435 31.9883L21.3718 57.726ZM3.9083 31.9883L21.3718 53.0195L38.8352 31.9883L21.3718 10.9571L3.9083 31.9883Z" fill="#0F2841"/>
<path d="M21.3641 48.1013L7.98438 31.9882L21.3641 15.8768V48.1013Z" fill="#0F2841"/>
<path d="M21.3691 48.1013L34.7471 31.9882L21.3691 15.8768V48.1013Z" fill="#0F2841"/>
<path d="M38.3247 22.1004L41.1269 13.8074C41.2267 13.5063 41.0392 13.1778 40.7863 13.2139L34.0311 13.6577C33.8143 13.6887 33.6337 13.4427 33.6681 13.164L34.8516 7.26888C34.8895 6.97472 34.6865 6.72185 34.4611 6.78034L28.449 7.3136C28.2185 7.37381 28.0155 7.11234 28.0603 6.81303L29.3074 0.50849C29.3521 0.207455 29.1457 -0.0540156 28.9135 0.00963178L21.3652 1.90357L38.3247 22.1022V22.1004Z" fill="#0F2841"/>
<path d="M4.40567 22.1004L1.60346 13.8074C1.50369 13.5063 1.69119 13.1778 1.94406 13.2139L8.6993 13.6577C8.91604 13.6887 9.09667 13.4427 9.06226 13.164L7.87876 7.26888C7.84092 6.97472 8.0439 6.72185 8.26925 6.78034L14.2814 7.3136C14.5119 7.37381 14.7149 7.11234 14.6701 6.81303L13.423 0.50849C13.3783 0.207455 13.5847 -0.0540156 13.8169 0.00963178L21.3652 1.90357L4.40567 22.1022V22.1004Z" fill="#0F2841"/>
<path d="M38.3247 41.8995L41.1269 50.1926C41.2267 50.4937 41.0392 50.8222 40.7863 50.7861L34.0311 50.3423C33.8143 50.3113 33.6337 50.5573 33.6681 50.836L34.8516 56.7311C34.8895 57.0253 34.6865 57.2781 34.4611 57.2197L28.449 56.6864C28.2185 56.6262 28.0155 56.8877 28.0603 57.187L29.3074 63.4915C29.3521 63.7925 29.1457 64.054 28.9135 63.9904L21.3652 62.0964L38.3247 41.8978V41.8995Z" fill="#0F2841"/>
<path d="M4.40567 41.8995L1.60346 50.1926C1.50369 50.4937 1.69119 50.8222 1.94406 50.7861L8.6993 50.3423C8.91604 50.3113 9.09667 50.5573 9.06226 50.836L7.87876 56.7311C7.84092 57.0253 8.0439 57.2781 8.26925 57.2197L14.2814 56.6864C14.5119 56.6262 14.7149 56.8877 14.6701 57.187L13.423 63.4915C13.3783 63.7925 13.5847 64.054 13.8169 63.9904L21.3652 62.0964L4.40567 41.8978V41.8995Z" fill="#0F2841"/>
<path d="M66.9172 26.5427C66.6566 27.5038 66.1394 28.245 65.3859 28.7419C64.6203 29.2469 63.6265 29.4994 62.4251 29.4994C60.7635 29.4994 59.4684 28.9577 58.5765 27.8907C57.7823 26.9418 57.3303 25.6345 57.2366 23.9932H69.3527V22.7429C69.3527 21.2686 69.0554 19.9613 68.4648 18.8576C67.8743 17.7499 67.0353 16.8743 65.9683 16.2511C64.9053 15.628 63.651 15.3104 62.2378 15.3104C60.8246 15.3104 59.444 15.6647 58.3281 16.3611C57.2122 17.0575 56.3243 18.039 55.6931 19.269C55.0618 20.4989 54.7441 21.9284 54.7441 23.5289C54.7441 25.1295 55.07 26.5875 55.7094 27.8052C56.3528 29.027 57.261 29.9963 58.4095 30.6805C59.558 31.3687 60.8979 31.7149 62.3966 31.7149C64.2334 31.7149 65.7647 31.2751 66.9498 30.4035C68.1349 29.532 68.9413 28.2613 69.3486 26.6282L69.4056 26.4042H66.958L66.9213 26.5386L66.9172 26.5427ZM62.2378 17.534C63.6103 17.534 64.7262 17.9657 65.561 18.821C66.3593 19.6396 66.7828 20.731 66.8154 22.0628H57.2977C57.3913 21.3826 57.5705 20.7677 57.8271 20.222C58.2303 19.3667 58.8168 18.6988 59.5702 18.2345C60.3277 17.7702 61.2237 17.534 62.2337 17.534H62.2378Z" fill="#0F2841"/>
<path d="M75.53 10.8997H73.0253V15.7217H69.9668V17.9128H73.0253V31.3402H75.53V17.9128H78.5845V15.7217H75.53V10.8997Z" fill="#0F2841"/>
<path d="M88.1797 15.3144C86.8683 15.3144 85.7321 15.6036 84.7913 16.1778C84.0501 16.6299 83.4351 17.2082 82.9668 17.9006V8H80.4336V31.3117H82.9668V22.8407C82.9668 21.8836 83.1541 21.0039 83.5166 20.222C83.879 19.4482 84.4207 18.821 85.1253 18.3567C85.8258 17.8965 86.7177 17.6603 87.7684 17.6603C88.534 17.6603 89.2183 17.8069 89.8006 18.1001C90.3708 18.3852 90.8188 18.8658 91.1365 19.5296C91.4582 20.2057 91.6252 21.1424 91.6252 22.3031V31.3402H94.1624V21.8307C94.1624 19.8839 93.6819 18.2997 92.737 17.1145C91.7799 15.9213 90.2486 15.3144 88.1838 15.3144H88.1797Z" fill="#0F2841"/>
<path d="M108.624 26.5427C108.364 27.5038 107.846 28.245 107.093 28.7419C106.327 29.2469 105.334 29.4994 104.132 29.4994C102.471 29.4994 101.175 28.9577 100.284 27.8907C99.4894 26.9418 99.0373 25.6345 98.9436 23.9932H111.06V22.7429C111.06 21.2686 110.762 19.9613 110.172 18.8576C109.581 17.7499 108.742 16.8743 107.675 16.2511C106.612 15.628 105.358 15.3104 103.945 15.3104C102.532 15.3104 101.151 15.6647 100.035 16.3611C98.9192 17.0575 98.0314 18.039 97.4001 19.269C96.7688 20.4989 96.4512 21.9284 96.4512 23.5289C96.4512 25.1295 96.777 26.5875 97.4164 27.8052C98.0599 29.027 98.9681 29.9963 100.117 30.6805C101.265 31.3687 102.605 31.7149 104.104 31.7149C105.94 31.7149 107.472 31.2751 108.657 30.4035C109.842 29.532 110.648 28.2613 111.056 26.6282L111.113 26.4042H108.665L108.628 26.5386L108.624 26.5427ZM103.945 17.534C105.317 17.534 106.433 17.9657 107.268 18.821C108.066 19.6396 108.49 20.731 108.522 22.0628H99.0088C99.1025 21.3826 99.2816 20.7677 99.5382 20.222C99.9414 19.3667 100.528 18.6988 101.281 18.2345C102.039 17.7702 102.935 17.534 103.945 17.534Z" fill="#0F2841"/>
<path d="M120.982 15.4081C119.491 15.2737 118.18 15.5792 117.17 16.3408C116.702 16.6951 116.331 17.1064 116.05 17.5788L115.932 15.7217H113.533V31.3402H116.066V22.4578C116.066 21.0406 116.47 19.9043 117.26 19.0816C118.05 18.259 119.137 17.8436 120.489 17.8436H121.866V15.567L121.731 15.5344C121.475 15.4692 121.222 15.4285 120.978 15.4041L120.982 15.4081Z" fill="#0F2841"/>
<path d="M134.286 26.5427C134.026 27.5038 133.508 28.245 132.755 28.7419C131.989 29.2469 130.996 29.4994 129.794 29.4994C128.133 29.4994 126.838 28.9577 125.946 27.8907C125.151 26.9418 124.699 25.6345 124.606 23.9932H136.722V22.7429C136.722 21.2686 136.424 19.9613 135.834 18.8576C135.243 17.7499 134.404 16.8743 133.337 16.2511C132.274 15.628 131.02 15.3104 129.607 15.3104C128.194 15.3104 126.813 15.6647 125.697 16.3611C124.581 17.0575 123.693 18.039 123.062 19.269C122.431 20.4989 122.113 21.9284 122.113 23.5289C122.113 25.1295 122.439 26.5875 123.078 27.8052C123.722 29.027 124.63 29.9963 125.779 30.6805C126.927 31.3687 128.267 31.7149 129.766 31.7149C131.603 31.7149 133.134 31.2751 134.319 30.4035C135.504 29.532 136.31 28.2613 136.718 26.6282L136.775 26.4042H134.327L134.29 26.5386L134.286 26.5427ZM129.607 17.534C130.979 17.534 132.095 17.9657 132.93 18.821C133.728 19.6396 134.152 20.731 134.185 22.0628H124.671C124.765 21.3826 124.944 20.7677 125.2 20.222C125.604 19.3667 126.19 18.6988 126.943 18.2345C127.701 17.7702 128.597 17.534 129.607 17.534Z" fill="#0F2841"/>
<path d="M149.918 24.0054C149.918 25.7607 149.519 27.1169 148.733 28.0332C147.955 28.9455 146.843 29.4057 145.434 29.4057C144.29 29.4057 143.353 29.0514 142.645 28.355C141.936 27.6586 141.577 26.4164 141.577 24.6693V15.6932H139.012V25.3616C139.012 27.2472 139.509 28.7907 140.49 29.9555C141.476 31.1284 142.909 31.723 144.742 31.723C145.964 31.723 147.092 31.438 148.094 30.88C148.908 30.4239 149.544 29.8456 149.983 29.1573L150.224 31.3443H152.455V15.7258H149.922V24.0095L149.918 24.0054Z" fill="#0F2841"/>
<path d="M176.165 16.8783C175.126 15.8398 173.745 15.3144 172.063 15.3144C170.622 15.3144 169.4 15.7054 168.435 16.4711C167.824 16.9557 167.364 17.5585 167.05 18.2671C166.724 17.5585 166.264 16.9598 165.669 16.4711C164.725 15.7013 163.535 15.3104 162.134 15.3104C160.925 15.3104 159.858 15.6117 158.962 16.2063C158.42 16.5647 157.976 17.0046 157.638 17.5137L157.443 15.7176H155.211V31.3362H157.744V21.7003C157.744 20.955 157.903 20.2667 158.212 19.6559C158.522 19.049 158.974 18.5562 159.565 18.1979C160.151 17.8395 160.86 17.6562 161.662 17.6562C162.762 17.6562 163.645 17.9983 164.289 18.6703C164.936 19.3463 165.262 20.3238 165.262 21.5741V31.3362H167.767V21.7288C167.767 20.9835 167.926 20.2871 168.235 19.664C168.545 19.0409 168.997 18.544 169.575 18.1734C170.153 17.8069 170.85 17.6195 171.652 17.6195C172.772 17.6195 173.66 17.9698 174.295 18.6621C174.935 19.3626 175.256 20.3482 175.256 21.5985V31.3321H177.728V21.1587C177.728 19.3504 177.203 17.9087 176.161 16.8702L176.165 16.8783Z" fill="#0F2841"/>
<path d="M67.3041 51.8256C66.3715 52.4528 65.2556 52.7663 63.9524 52.7663C62.8039 52.7663 61.7979 52.4935 60.9386 51.9437C60.0793 51.3939 59.4114 50.6201 58.943 49.6223C58.4747 48.6204 58.2385 47.4597 58.2385 46.1402C58.2385 44.8206 58.4747 43.5826 58.943 42.5889C59.4114 41.5951 60.0793 40.8335 60.9386 40.2919C61.802 39.7543 62.8039 39.4814 63.9524 39.4814C65.2393 39.4814 66.3308 39.791 67.2267 40.4059C68.1227 41.025 68.7377 41.8884 69.0676 43.0043H72.5904C72.3827 41.6318 71.8858 40.4426 71.1039 39.4407C70.3219 38.4429 69.3282 37.661 68.1309 37.103C66.9294 36.5451 65.5733 36.2681 64.0582 36.2681C62.2133 36.2681 60.5884 36.6754 59.1792 37.494C57.7701 38.3126 56.6786 39.4611 55.9048 40.9394C55.131 42.4178 54.7441 44.1487 54.7441 46.132C54.7441 48.1154 55.1229 49.8666 55.8804 51.3369C56.6379 52.8071 57.6968 53.9474 59.0652 54.7538C60.4295 55.5642 62.0423 55.9674 63.9076 55.9674C65.4226 55.9674 66.791 55.6905 68.0168 55.1325C69.2427 54.5746 70.2609 53.7927 71.0713 52.7826C71.8818 51.7726 72.4071 50.6079 72.6515 49.2883H69.1816C68.868 50.3472 68.2449 51.1943 67.3163 51.8174L67.3041 51.8256Z" fill="#0F2841"/>
<path d="M84.3488 43.2649C83.3144 42.6906 82.1251 42.4015 80.7853 42.4015C79.4454 42.4015 78.2806 42.6906 77.238 43.2649C76.1954 43.8391 75.3768 44.6333 74.7863 45.6515C74.1957 46.6696 73.8984 47.8466 73.8984 49.1865C73.8984 50.5264 74.1957 51.7034 74.7863 52.7215C75.3768 53.7397 76.1954 54.5339 77.238 55.1081C78.2806 55.6823 79.4657 55.9715 80.7853 55.9715C82.1048 55.9715 83.3103 55.6823 84.3488 55.1081C85.3832 54.5339 86.1978 53.7397 86.7883 52.7215C87.3788 51.7034 87.6761 50.5264 87.6761 49.1865C87.6761 47.8466 87.3788 46.6696 86.7883 45.6515C86.1978 44.6333 85.3832 43.8391 84.3488 43.2649ZM84.023 51.2513C83.7094 51.8418 83.2736 52.302 82.7197 52.636C82.1618 52.9659 81.5183 53.1329 80.7893 53.1329C80.0603 53.1329 79.4209 52.97 78.8711 52.636C78.3213 52.3061 77.8896 51.8459 77.5679 51.2513C77.2461 50.6608 77.0832 49.9725 77.0832 49.1906C77.0832 48.4086 77.2461 47.7 77.5679 47.1176C77.8896 46.5352 78.3254 46.0791 78.8711 45.7492C79.4209 45.4193 80.0563 45.2523 80.7893 45.2523C81.5224 45.2523 82.1659 45.4193 82.7197 45.7492C83.2777 46.0791 83.7094 46.5352 84.023 47.1176C84.3366 47.7 84.4913 48.3923 84.4913 49.1906C84.4913 49.9888 84.3325 50.6608 84.023 51.2513Z" fill="#0F2841"/>
<path d="M96.077 48.3028L93.7556 47.7529C92.6397 47.4923 92.0859 47.0036 92.0859 46.2909C92.0859 45.8225 92.261 45.4478 92.6072 45.1668C92.9533 44.8899 93.442 44.7473 94.0692 44.7473C94.6964 44.7473 95.1811 44.9103 95.5313 45.232C95.8775 45.5537 96.0526 45.9936 96.0526 46.5515H99.0786C99.0623 45.7166 98.8464 44.9876 98.4392 44.3604C98.0319 43.7333 97.4617 43.2486 96.7287 42.8984C95.9997 42.5522 95.1525 42.3771 94.1955 42.3771C93.2384 42.3771 92.3261 42.54 91.5605 42.8576C90.7948 43.1794 90.1921 43.6437 89.7482 44.2546C89.3043 44.8655 89.0843 45.5863 89.0843 46.4212C89.0843 47.4475 89.3653 48.2539 89.9314 48.8363C90.4975 49.4187 91.3609 49.8422 92.5298 50.1029L94.8512 50.6527C95.4254 50.7748 95.8164 50.9581 96.0241 51.2025C96.2318 51.4468 96.3377 51.7238 96.3377 52.0373C96.3377 52.5057 96.1422 52.8804 95.7512 53.1614C95.3602 53.4424 94.7819 53.5768 94.0163 53.5768C93.3036 53.5768 92.7456 53.4139 92.3465 53.0799C91.9474 52.7501 91.7356 52.3061 91.7193 51.7482H88.6934C88.6934 53.0189 89.1658 54.0452 90.1147 54.8271C91.0636 55.609 92.3384 56 93.9389 56C95.0019 56 95.9386 55.829 96.7572 55.4909C97.5758 55.1529 98.2111 54.6642 98.6632 54.0289C99.1152 53.3935 99.3433 52.6401 99.3433 51.7726C99.3433 50.783 99.0704 50.0173 98.5206 49.4757C97.9708 48.9381 97.1604 48.5471 96.0811 48.3028H96.077Z" fill="#0F2841"/>
<path d="M105.628 38.7524H102.447V42.7721H99.9668V45.4315H102.447V55.662H105.628V45.4315H108.108V42.7721H105.628V38.7524Z" fill="#0F2841"/>
<path d="M118.078 42.9921C117.243 42.5848 116.242 42.3812 115.077 42.3812C113.912 42.3812 112.914 42.5726 112.034 42.9554C111.155 43.3382 110.479 43.8717 109.998 44.56C109.518 45.2483 109.281 46.0587 109.281 46.9995H111.994C111.994 46.3194 112.246 45.794 112.751 45.4193C113.256 45.0447 113.977 44.8573 114.918 44.8573C115.455 44.8573 115.928 44.9388 116.327 45.1058C116.726 45.2727 117.036 45.5334 117.252 45.8877C117.467 46.242 117.577 46.7185 117.577 47.309V47.5982L113.716 47.9118C112.185 48.034 111.008 48.4453 110.181 49.1499C109.355 49.8544 108.943 50.7993 108.943 51.9804C108.943 53.1614 109.338 54.1511 110.133 54.8882C110.923 55.6294 111.998 55.996 113.354 55.996C114.364 55.996 115.264 55.7883 116.054 55.3688C116.844 54.9534 117.382 54.4117 117.659 53.7519L117.895 55.6579H120.689V47.8303C120.689 46.6289 120.461 45.623 120.009 44.8166C119.557 44.0061 118.913 43.3993 118.078 42.988V42.9921ZM117.61 50.4409C117.61 51.4305 117.317 52.2084 116.734 52.7623C116.152 53.3202 115.366 53.5972 114.372 53.5972C113.676 53.5972 113.138 53.4506 112.755 53.1533C112.373 52.856 112.181 52.4243 112.181 51.85C112.181 51.3287 112.389 50.9052 112.808 50.5834C113.228 50.2617 113.932 50.0581 114.922 49.9685L117.61 49.7608V50.4409Z" fill="#0F2841"/>
<path d="M143.56 45.7818C144.142 44.8858 144.435 43.8025 144.435 42.5318C144.435 40.6543 143.828 39.1923 142.623 38.1456C141.413 37.103 139.731 36.5817 137.573 36.5817H130.291V55.6579H133.631V48.5349H137.728L140.965 55.6579H144.619L140.99 47.8303C142.122 47.362 142.977 46.6778 143.56 45.7818ZM140.049 44.7759C139.459 45.3134 138.632 45.5863 137.569 45.5863H133.626V39.5588H137.569C138.628 39.5588 139.454 39.8154 140.049 40.3285C140.64 40.8417 140.937 41.5788 140.937 42.5359C140.937 43.493 140.64 44.2423 140.049 44.7799V44.7759Z" fill="#0F2841"/>
<path d="M148.35 36.3496C147.813 36.3496 147.353 36.5329 146.982 36.8994C146.607 37.266 146.42 37.718 146.42 38.2556C146.42 38.7932 146.607 39.2534 146.982 39.624C147.357 39.9987 147.813 40.186 148.35 40.186C148.888 40.186 149.344 39.9987 149.719 39.624C150.093 39.2493 150.281 38.7932 150.281 38.2556C150.281 37.718 150.093 37.2619 149.719 36.8994C149.344 36.5329 148.888 36.3496 148.35 36.3496Z" fill="#0F2841"/>
<path d="M149.97 42.7721H146.785V55.662H149.97V42.7721Z" fill="#0F2841"/>
<path d="M160.445 52.5831C159.916 52.9659 159.248 53.1573 158.449 53.1573C157.769 53.1573 157.183 52.9944 156.69 52.6727C156.197 52.351 155.814 51.8948 155.554 51.3043C155.293 50.7138 155.163 50.0092 155.163 49.1906C155.163 48.372 155.301 47.6674 155.582 47.0769C155.859 46.4864 156.254 46.0302 156.772 45.7085C157.285 45.3868 157.871 45.2239 158.531 45.2239C159.297 45.2239 159.936 45.4112 160.449 45.7859C160.962 46.1606 161.312 46.7104 161.508 47.4434H164.693C164.518 45.8958 163.87 44.6659 162.75 43.7496C161.626 42.8373 160.188 42.3812 158.433 42.3812C157.162 42.3812 156.047 42.6703 155.081 43.2527C154.116 43.8351 153.359 44.6415 152.813 45.6678C152.263 46.6941 151.99 47.8711 151.99 49.1906C151.99 50.5101 152.255 51.7604 152.784 52.7786C153.314 53.7967 154.067 54.5868 155.041 55.1529C156.014 55.719 157.154 56 158.458 56C159.59 56 160.596 55.7883 161.484 55.3606C162.371 54.933 163.096 54.3425 163.662 53.585C164.228 52.8275 164.579 51.9437 164.717 50.9337H161.508C161.333 51.6464 160.983 52.1962 160.449 52.579L160.445 52.5831Z" fill="#0F2841"/>
<path d="M177.054 44.8207C176.602 44.0102 175.958 43.4034 175.123 42.9921C174.288 42.5807 173.286 42.3812 172.122 42.3812C170.957 42.3812 169.959 42.5726 169.079 42.9554C168.2 43.3382 167.524 43.8717 167.043 44.56C166.563 45.2483 166.326 46.0587 166.326 46.9995H169.039C169.039 46.3194 169.291 45.794 169.796 45.4193C170.301 45.0447 171.022 44.8573 171.963 44.8573C172.5 44.8573 172.973 44.9388 173.372 45.1058C173.771 45.2727 174.081 45.5334 174.296 45.8877C174.512 46.242 174.622 46.7185 174.622 47.309V47.5982L170.761 47.9118C169.23 48.034 168.053 48.4453 167.226 49.1499C166.4 49.8544 165.988 50.7993 165.988 51.9804C165.988 53.1614 166.383 54.1511 167.177 54.8882C167.968 55.6294 169.043 55.996 170.399 55.996C171.409 55.996 172.309 55.7883 173.099 55.3688C173.889 54.9534 174.427 54.4117 174.704 53.7519L174.94 55.6579H177.734V47.8303C177.734 46.6289 177.506 45.623 177.054 44.8166V44.8207ZM174.655 50.445C174.655 51.4346 174.362 52.2125 173.779 52.7664C173.197 53.3243 172.411 53.6012 171.417 53.6012C170.721 53.6012 170.183 53.4546 169.8 53.1573C169.417 52.86 169.226 52.4283 169.226 51.8541C169.226 51.3328 169.434 50.9092 169.853 50.5875C170.273 50.2658 170.977 50.0621 171.967 49.9725L174.655 49.7648V50.445Z" fill="#0F2841"/>
</g>
<defs>
<clipPath id="clip0_4158_756">
<rect width="177.733" height="64" fill="white"/>
</clipPath>
</defs>
</svg>
