<svg width="64" height="64" viewBox="0 0 64 64" fill="none" xmlns="http://www.w3.org/2000/svg">
<rect width="64" height="64" rx="32" fill="#E93334"/>
<path d="M48.0234 48H41.3864V37.6063C41.3864 35.1276 41.3422 31.9382 37.9343 31.9382C34.4778 31.9382 33.9481 34.6376 33.9481 37.4275V48H27.3133V26.6255H33.6854V29.5456H33.7737C35.0738 27.3251 37.4884 25.9986 40.0598 26.0935C46.7874 26.0935 48.0256 30.519 48.0256 36.2731L48.0234 48ZM19.8242 23.7031C17.6965 23.7031 15.9727 21.9793 15.9727 19.8516C15.9727 17.7238 17.6965 16 19.8242 16C21.952 16 23.6758 17.7238 23.6758 19.8516C23.6758 21.9793 21.952 23.7031 19.8242 23.7031ZM23.1416 48H16.498V26.6255H23.1416V48Z" fill="white"/>
</svg>
