<svg width="64" height="64" viewBox="0 0 64 64" fill="none" xmlns="http://www.w3.org/2000/svg">
<rect width="64" height="64" rx="32" fill="#E93334"/>
<g clip-path="url(#clip0_4072_971)">
<path d="M49.4669 44.0138C49.0283 41.2007 43.8199 43.3652 43.4961 40.283C43.0401 35.908 49.5457 26.4853 49.0338 22.8224C48.5777 19.5357 46.3508 18.8411 44.4193 18.8007C42.5435 18.7733 42.0491 19.0686 41.4169 19.4394C41.0461 19.6494 40.5233 20.0705 39.7938 19.3771C39.3093 18.9144 38.979 18.5972 38.4726 18.186C38.2101 17.976 37.7944 17.7135 37.0933 17.6118C36.4054 17.5035 35.4932 17.6117 34.9233 17.8513C34.3415 18.1017 33.8985 18.5349 33.426 18.945C32.9524 19.3552 31.7504 20.6939 30.6391 20.1974C30.1491 19.9874 28.5085 19.166 27.324 18.6607C25.0446 17.6752 21.7535 19.2699 20.5613 21.383C18.7949 24.5155 15.3157 36.8432 14.7786 38.4674C13.6007 42.1128 16.2891 45.0868 19.9007 44.915C21.433 44.8417 22.4524 44.2894 23.4149 42.5296C23.9738 41.5146 29.2205 27.8208 29.6132 27.1547C29.8986 26.6822 30.8436 26.0555 31.6421 26.4591C32.446 26.8747 32.6046 27.7289 32.4854 28.5328C32.2852 29.8377 28.5949 38.2005 28.4461 39.1411C28.2066 40.7522 28.9711 41.6403 30.6457 41.7322C31.7865 41.7891 32.9305 41.3855 33.8307 39.676C34.3382 38.7233 40.1711 27.0355 40.683 26.2546C41.2529 25.4003 41.7079 25.1138 42.2963 25.1488C42.7458 25.1707 43.4568 25.2855 43.2807 26.6286C43.1046 27.951 38.4113 36.5194 37.9213 38.615C37.2596 41.4293 38.7974 44.2664 41.3382 45.5144C42.9569 46.3107 50.0433 47.6669 49.468 44.0149L49.4669 44.0138Z" fill="white"/>
</g>
<defs>
<clipPath id="clip0_4072_971">
<rect width="35" height="35" fill="white" transform="translate(14.5 14.5)"/>
</clipPath>
</defs>
</svg>
