<svg width="30" height="61" viewBox="0 0 30 61" fill="none" xmlns="http://www.w3.org/2000/svg">
<path d="M-2.35478e-07 57.1256C0.000886714 56.1156 0.40183 55.1472 1.11469 54.4334L20.5509 34.9482C21.1391 34.3586 21.6058 33.6586 21.9242 32.8881C22.2426 32.1176 22.4065 31.2918 22.4065 30.4579C22.4065 29.6239 22.2426 28.7981 21.9242 28.0277C21.6058 27.2572 21.1391 26.5572 20.5509 25.9675L1.14002 6.50771C0.447806 5.7892 0.0647792 4.82687 0.0734374 3.82798C0.0820955 2.8291 0.481747 1.87358 1.18631 1.16724C1.89088 0.460891 2.84399 0.0602312 3.84036 0.0515511C4.83673 0.0428711 5.79664 0.426865 6.51334 1.12083L25.9242 20.5654C28.5342 23.1871 30 26.7399 30 30.4439C30 34.1479 28.5342 37.7007 25.9242 40.3224L6.48801 59.8203C5.95655 60.3535 5.27929 60.7166 4.54192 60.8637C3.80454 61.0109 3.04021 60.9354 2.34562 60.6469C1.65103 60.3584 1.05742 59.8699 0.63988 59.2431C0.222345 58.6162 -0.000341028 57.8793 -2.35478e-07 57.1256Z" fill="#0F2841"/>
</svg>
