<svg width="30" height="62" viewBox="0 0 30 62" fill="none" xmlns="http://www.w3.org/2000/svg">
<path d="M30 4.59461C29.9991 5.60466 29.5982 6.57301 28.8853 7.28678L9.44915 26.772C8.86085 27.3616 8.39418 28.0617 8.07579 28.8321C7.7574 29.6026 7.59353 30.4284 7.59353 31.2623C7.59353 32.0963 7.7574 32.9221 8.07579 33.6926C8.39418 34.463 8.86085 35.1631 9.44915 35.7527L28.86 55.2125C29.5522 55.931 29.9352 56.8933 29.9266 57.8922C29.9179 58.8911 29.5183 59.8466 28.8137 60.553C28.1091 61.2593 27.156 61.66 26.1596 61.6687C25.1633 61.6773 24.2034 61.2934 23.4867 60.5994L4.07583 41.1548C1.46584 38.5331 0 34.9803 0 31.2763C0 27.5723 1.46584 24.0195 4.07583 21.3978L23.512 1.8999C24.0434 1.36676 24.7207 1.00364 25.4581 0.856501C26.1955 0.709361 26.9598 0.784808 27.6544 1.0733C28.349 1.36178 28.9426 1.85035 29.3601 2.47716C29.7777 3.10398 30.0003 3.84087 30 4.59461Z" fill="#0F2841"/>
</svg>
