<svg width="733" height="114" viewBox="0 0 733 114" fill="none" xmlns="http://www.w3.org/2000/svg">
<g clip-path="url(#clip0_3109_648)">
<path d="M108.148 84.5838C100.144 84.5838 93.9707 82.2631 89.6292 77.6217C85.3556 72.9121 83.2188 66.0182 83.2188 56.9401C83.2188 47.9304 85.2877 41.0706 89.4257 36.361C93.6315 31.6513 99.5332 29.2965 107.131 29.2965C110.658 29.2965 114.389 29.6719 118.324 30.4227C119.273 30.6275 120.053 31.1394 120.664 31.9584C121.342 32.7093 121.681 33.5966 121.681 34.6204C121.681 35.4395 121.308 36.0879 120.562 36.5657C119.884 37.0435 119.138 37.18 118.324 36.9753C114.864 36.0879 111.303 35.6443 107.64 35.6443C96.7859 35.6443 91.359 42.7429 91.359 56.9401C91.359 64.3118 92.7836 69.704 95.6326 73.1168C98.4817 76.5296 102.823 78.236 108.657 78.236C112.456 78.236 115.915 77.7241 119.036 76.7003C119.782 76.4272 120.494 76.5296 121.173 77.0074C121.851 77.4852 122.19 78.1336 122.19 78.9527C122.19 79.9766 121.885 80.898 121.274 81.7171C120.664 82.5362 119.85 83.0822 118.832 83.3552C115.644 84.1743 112.083 84.5838 108.148 84.5838ZM140.116 82.4338C139.369 83.1846 138.454 83.56 137.368 83.56C136.283 83.56 135.333 83.1846 134.519 82.4338C133.773 81.683 133.4 80.7615 133.4 79.6694V10.6626C133.4 9.57047 133.773 8.64901 134.519 7.8982C135.333 7.14738 136.283 6.77197 137.368 6.77197C138.454 6.77197 139.369 7.14738 140.116 7.8982C140.862 8.64901 141.235 9.57047 141.235 10.6626V38.3063C141.235 38.3745 141.269 38.4086 141.337 38.4086C141.404 38.4086 141.472 38.3745 141.54 38.3063C146.424 32.2997 152.089 29.2965 158.533 29.2965C164.706 29.2965 169.183 31.037 171.964 34.518C174.746 37.9308 176.136 43.6985 176.136 51.8209V79.6694C176.136 80.7615 175.763 81.683 175.017 82.4338C174.339 83.1846 173.457 83.56 172.371 83.56C171.286 83.56 170.37 83.1846 169.624 82.4338C168.878 81.683 168.505 80.7615 168.505 79.6694V53.1519C168.505 46.2581 167.589 41.6508 165.757 39.3301C163.994 36.9411 160.907 35.7467 156.498 35.7467C152.97 35.7467 149.545 37.4531 146.221 40.8659C142.897 44.2104 141.235 47.6573 141.235 51.2066V79.6694C141.235 80.7615 140.862 81.683 140.116 82.4338ZM206.695 35.2347C197.266 35.2347 192.11 40.8659 191.228 52.1281C191.228 52.6741 191.533 52.9472 192.144 52.9472H219.516C220.058 52.9472 220.33 52.6741 220.33 52.1281C219.923 40.8659 215.378 35.2347 206.695 35.2347ZM208.831 84.5838C200.488 84.5838 194.145 82.2973 189.804 77.7241C185.462 73.0827 183.291 66.1547 183.291 56.9401C183.291 47.4526 185.36 40.4904 189.498 36.0538C193.704 31.5489 199.436 29.2965 206.695 29.2965C220.058 29.2965 227.147 37.2483 227.961 53.1519C228.029 54.7901 227.452 56.1893 226.231 57.3497C225.078 58.4418 223.687 58.9878 222.059 58.9878H191.94C191.398 58.9878 191.126 59.295 191.126 59.9093C191.737 72.4001 197.876 78.6456 209.544 78.6456C213.41 78.6456 217.379 77.9289 221.449 76.4955C222.195 76.2225 222.907 76.3249 223.586 76.8027C224.264 77.2122 224.603 77.8265 224.603 78.6456C224.603 80.9663 223.552 82.3996 221.449 82.9457C217.107 84.0378 212.902 84.5838 208.831 84.5838ZM258.504 84.5838C250.499 84.5838 244.326 82.2631 239.985 77.6217C235.711 72.9121 233.575 66.0182 233.575 56.9401C233.575 47.9304 235.643 41.0706 239.781 36.361C243.987 31.6513 249.889 29.2965 257.487 29.2965C261.014 29.2965 264.745 29.6719 268.679 30.4227C269.629 30.6275 270.409 31.1394 271.02 31.9584C271.698 32.7093 272.037 33.5966 272.037 34.6204C272.037 35.4395 271.664 36.0879 270.918 36.5657C270.24 37.0435 269.493 37.18 268.679 36.9753C265.22 36.0879 261.658 35.6443 257.995 35.6443C247.142 35.6443 241.715 42.7429 241.715 56.9401C241.715 64.3118 243.139 69.704 245.988 73.1168C248.837 76.5296 253.179 78.236 259.013 78.236C262.812 78.236 266.271 77.7241 269.392 76.7003C270.138 76.4272 270.85 76.5296 271.528 77.0074C272.207 77.4852 272.546 78.1336 272.546 78.9527C272.546 79.9766 272.241 80.898 271.63 81.7171C271.02 82.5362 270.206 83.0822 269.188 83.3552C266 84.1743 262.439 84.5838 258.504 84.5838ZM290.37 82.4338C289.624 83.1846 288.708 83.56 287.622 83.56C286.537 83.56 285.621 83.1846 284.875 82.4338C284.129 81.683 283.756 80.7615 283.756 79.6694V10.6626C283.756 9.57047 284.129 8.64901 284.875 7.8982C285.621 7.14738 286.537 6.77197 287.622 6.77197C288.708 6.77197 289.624 7.14738 290.37 7.8982C291.116 8.64901 291.489 9.57047 291.489 10.6626V53.971C291.489 54.0393 291.523 54.0734 291.591 54.0734L291.794 53.971L313.773 33.5966C316.079 31.4124 318.861 30.3203 322.117 30.3203C322.999 30.3203 323.575 30.7298 323.847 31.5489C324.186 32.368 324.05 33.0505 323.44 33.5966L299.833 55.302C299.426 55.7115 299.392 56.1211 299.731 56.5306L323.745 80.1813C324.288 80.7274 324.389 81.4441 324.05 82.3314C323.711 83.1505 323.134 83.56 322.32 83.56C319.132 83.56 316.419 82.4338 314.18 80.1813L291.794 57.8616C291.727 57.7933 291.659 57.7592 291.591 57.7592C291.523 57.7592 291.489 57.7933 291.489 57.8616V79.6694C291.489 80.7615 291.116 81.683 290.37 82.4338ZM339.155 82.4338C338.409 83.1846 337.493 83.56 336.408 83.56C335.322 83.56 334.372 83.1846 333.558 82.4338C332.812 81.683 332.439 80.7615 332.439 79.6694V34.1085C332.439 33.0847 332.812 32.1973 333.558 31.4465C334.305 30.6957 335.186 30.3203 336.204 30.3203C337.222 30.3203 338.103 30.6957 338.85 31.4465C339.596 32.1973 339.969 33.0847 339.969 34.1085L340.071 37.4872C340.071 37.5554 340.105 37.5896 340.172 37.5896C340.308 37.5896 340.376 37.5213 340.376 37.3848C344.243 31.9926 348.855 29.2965 354.214 29.2965C357.47 29.2965 360.082 30.0131 362.049 31.4465C364.084 32.8799 365.746 35.2689 367.035 38.6134C367.035 38.7499 367.069 38.8182 367.137 38.8182C367.273 38.8182 367.341 38.7499 367.341 38.6134C371.139 32.4021 376.091 29.2965 382.197 29.2965C387.623 29.2965 391.524 30.8663 393.898 34.0061C396.34 37.1459 397.561 42.4016 397.561 49.7733V79.6694C397.561 80.7615 397.188 81.683 396.442 82.4338C395.764 83.1846 394.882 83.56 393.796 83.56C392.711 83.56 391.795 83.1846 391.049 82.4338C390.303 81.683 389.93 80.7615 389.93 79.6694V51.8209C389.93 45.4731 389.184 41.173 387.691 38.9206C386.267 36.5999 383.723 35.4395 380.06 35.4395C377.55 35.4395 375.074 36.8046 372.632 39.5349C370.19 42.1968 368.969 44.9612 368.969 47.828V79.6694C368.969 80.7615 368.595 81.683 367.849 82.4338C367.103 83.1846 366.187 83.56 365.102 83.56C364.017 83.56 363.101 83.1846 362.355 82.4338C361.608 81.683 361.235 80.7615 361.235 79.6694V51.8209C361.235 45.4731 360.489 41.173 358.997 38.9206C357.572 36.5999 355.062 35.4395 351.467 35.4395C348.957 35.4395 346.447 36.8046 343.937 39.5349C341.495 42.1968 340.274 44.9612 340.274 47.828V79.6694C340.274 80.7615 339.901 81.683 339.155 82.4338ZM420.622 82.3314L402.815 34.2109C402.476 33.2553 402.577 32.368 403.12 31.5489C403.73 30.7298 404.545 30.3203 405.562 30.3203C406.783 30.3203 407.868 30.6957 408.818 31.4465C409.836 32.1291 410.548 33.0505 410.955 34.2109L424.895 74.0383C424.895 74.1065 424.929 74.1407 424.997 74.1407C425.133 74.1407 425.2 74.1065 425.2 74.0383L440.565 34.0061C440.972 32.914 441.651 32.0267 442.6 31.3441C443.618 30.6616 444.737 30.3203 445.958 30.3203C446.908 30.3203 447.62 30.7298 448.095 31.5489C448.638 32.2997 448.739 33.1188 448.4 34.0061L420.418 102.399C419.943 103.491 419.197 104.378 418.179 105.061C417.23 105.743 416.144 106.084 414.923 106.084C413.974 106.084 413.261 105.675 412.787 104.856C412.312 104.105 412.244 103.286 412.583 102.399L420.622 83.9695C420.825 83.4235 420.825 82.8774 420.622 82.3314Z" fill="#202022"/>
<path d="M463.696 42.9891C462.136 42.9891 460.779 42.443 459.626 41.3509C458.473 40.1906 457.896 38.8255 457.896 37.2556C457.896 35.6857 458.473 34.3206 459.626 33.1602C460.779 31.9999 462.136 31.4197 463.696 31.4197H467.767C468.309 31.4197 468.581 31.1126 468.581 30.4983V17.8026C468.581 16.2328 469.157 14.8676 470.31 13.7073C471.464 12.5469 472.82 11.9668 474.381 11.9668H479.265C480.825 11.9668 482.182 12.5469 483.335 13.7073C484.488 14.8676 485.065 16.2328 485.065 17.8026V30.4983C485.065 31.1126 485.37 31.4197 485.98 31.4197H495.952C497.512 31.4197 498.835 31.9999 499.921 33.1602C501.074 34.3206 501.65 35.6857 501.65 37.2556C501.65 38.8255 501.074 40.1906 499.921 41.3509C498.835 42.443 497.512 42.9891 495.952 42.9891H485.98C485.37 42.9891 485.065 43.2962 485.065 43.9105V61.4182C485.065 65.7183 485.438 68.4485 486.184 69.6089C486.998 70.7692 488.762 71.3494 491.475 71.3494C492.9 71.3494 494.019 71.2812 494.833 71.1447C496.325 70.9399 497.648 71.2812 498.801 72.1685C499.955 73.0558 500.531 74.2162 500.531 75.6496V76.4686C500.531 78.175 499.988 79.6767 498.903 80.9735C497.818 82.2704 496.427 83.0212 494.731 83.226C492.628 83.499 490.186 83.6355 487.405 83.6355C480.486 83.6355 475.602 82.168 472.752 79.233C469.971 76.2297 468.581 70.8716 468.581 63.1587V43.9105C468.581 43.2962 468.309 42.9891 467.767 42.9891H463.696ZM518.349 82.6117C516.789 82.6117 515.432 82.0315 514.279 80.8711C513.126 79.7108 512.549 78.3457 512.549 76.7758V35.2079C512.549 33.638 513.126 32.2729 514.279 31.1126C515.432 29.9522 516.789 29.372 518.349 29.372H524.047C525.608 29.372 526.964 29.9522 528.118 31.1126C529.271 32.2729 529.847 33.638 529.847 35.2079V76.7758C529.847 78.3457 529.271 79.7108 528.118 80.8711C526.964 82.0315 525.608 82.6117 524.047 82.6117H518.349ZM518.349 19.1336C516.789 19.1336 515.432 18.5535 514.279 17.3931C513.126 16.2328 512.549 14.8676 512.549 13.2978V11.6596C512.549 10.0897 513.126 8.72461 514.279 7.56426C515.432 6.40391 516.789 5.82373 518.349 5.82373H524.047C525.608 5.82373 526.964 6.40391 528.118 7.56426C529.271 8.72461 529.847 10.0897 529.847 11.6596V13.2978C529.847 14.8676 529.271 16.2328 528.118 17.3931C526.964 18.5535 525.608 19.1336 524.047 19.1336H518.349ZM564.297 83.6355C555.546 83.6355 548.83 81.3148 544.149 76.6734C539.469 72.032 537.128 65.1381 537.128 55.9918C537.128 47.0503 539.367 40.2247 543.844 35.5151C548.389 30.7371 554.867 28.3482 563.279 28.3482C566.06 28.3482 569.757 28.6553 574.37 29.2696C576.066 29.5427 577.423 30.3276 578.44 31.6245C579.526 32.8531 580.068 34.3206 580.068 36.027V37.0508C580.068 38.4842 579.492 39.6445 578.338 40.5319C577.185 41.4192 575.896 41.7264 574.472 41.4533C571.691 40.9755 568.808 40.7366 565.823 40.7366C561.956 40.7366 559.073 41.9652 557.174 44.4225C555.342 46.8114 554.426 50.6679 554.426 55.9918C554.426 61.4523 555.41 65.377 557.377 67.766C559.412 70.0867 562.567 71.247 566.84 71.247C570.029 71.247 572.878 70.974 575.388 70.428C576.812 70.0867 578.067 70.3597 579.152 71.247C580.306 72.1344 580.882 73.2947 580.882 74.7281V75.7519C580.882 77.4583 580.34 78.9941 579.254 80.3592C578.169 81.6561 576.812 82.441 575.184 82.714C571.453 83.3283 567.824 83.6355 564.297 83.6355ZM594.971 82.6117C593.411 82.6117 592.054 82.0315 590.901 80.8711C589.816 79.7108 589.273 78.3457 589.273 76.7758V11.6596C589.273 10.0897 589.816 8.72461 590.901 7.56426C592.054 6.40391 593.411 5.82373 594.971 5.82373H599.957C601.517 5.82373 602.84 6.40391 603.926 7.56426C605.079 8.72461 605.655 10.0897 605.655 11.6596V49.4393C605.655 49.5075 605.689 49.5417 605.757 49.5417L605.961 49.4393L618.68 33.8769C621.122 30.8737 624.242 29.372 628.041 29.372H635.367C636.453 29.372 637.233 29.8839 637.708 30.9078C638.25 31.9316 638.149 32.8872 637.402 33.7745L620.003 54.3537C619.663 54.7632 619.663 55.2069 620.003 55.6847L637.606 78.1068C638.284 79.0624 638.352 80.0521 637.809 81.0759C637.335 82.0997 636.521 82.6117 635.367 82.6117H628.041C624.242 82.6117 621.156 81.0759 618.782 78.0044L605.961 61.2134C605.893 61.1452 605.825 61.111 605.757 61.111C605.689 61.111 605.655 61.1452 605.655 61.2134V76.7758C605.655 78.3457 605.079 79.7108 603.926 80.8711C602.84 82.0315 601.517 82.6117 599.957 82.6117H594.971ZM662.113 39.508C659.061 39.508 656.754 40.3271 655.194 41.9652C653.634 43.5351 652.65 46.2654 652.243 50.156C652.243 50.702 652.481 50.975 652.956 50.975H670.152C670.762 50.975 671.068 50.6679 671.068 50.0536C670.796 43.0232 667.812 39.508 662.113 39.508ZM664.657 83.6355C655.432 83.6355 648.309 81.2807 643.289 76.571C638.337 71.8614 635.861 65.0016 635.861 55.9918C635.861 47.0503 638.066 40.2247 642.475 35.5151C646.952 30.7371 653.397 28.3482 661.808 28.3482C677.953 28.3482 686.161 37.2215 686.432 54.968C686.432 56.6061 685.788 58.0054 684.499 59.1657C683.278 60.2578 681.854 60.8039 680.226 60.8039H653.057C652.379 60.8039 652.108 61.111 652.243 61.7253C652.786 65.4794 654.211 68.1755 656.517 69.8137C658.891 71.3836 662.419 72.1685 667.099 72.1685C670.152 72.1685 673.442 71.7248 676.969 70.8375C678.394 70.4962 679.649 70.7693 680.734 71.6566C681.888 72.5439 682.464 73.7043 682.464 75.1376V75.3424C682.464 77.0488 681.921 78.6187 680.836 80.0521C679.818 81.4172 678.496 82.2363 676.868 82.5093C672.933 83.2601 668.863 83.6355 664.657 83.6355ZM694.032 42.9891C692.472 42.9891 691.115 42.443 689.962 41.3509C688.809 40.1906 688.232 38.8255 688.232 37.2556C688.232 35.6857 688.809 34.3206 689.962 33.1602C691.115 31.9999 692.472 31.4197 694.032 31.4197H698.102C698.645 31.4197 698.916 31.1126 698.916 30.4983V17.8026C698.916 16.2328 699.493 14.8676 700.646 13.7073C701.799 12.5469 703.156 11.9668 704.716 11.9668H709.6C711.16 11.9668 712.517 12.5469 713.67 13.7073C714.824 14.8676 715.4 16.2328 715.4 17.8026V30.4983C715.4 31.1126 715.705 31.4197 716.316 31.4197H726.288C727.848 31.4197 729.171 31.9999 730.256 33.1602C731.409 34.3206 731.986 35.6857 731.986 37.2556C731.986 38.8255 731.409 40.1906 730.256 41.3509C729.171 42.443 727.848 42.9891 726.288 42.9891H716.316C715.705 42.9891 715.4 43.2962 715.4 43.9105V61.4182C715.4 65.7183 715.773 68.4485 716.519 69.6089C717.333 70.7692 719.097 71.3494 721.811 71.3494C723.235 71.3494 724.354 71.2812 725.168 71.1447C726.661 70.9399 727.984 71.2812 729.137 72.1685C730.29 73.0558 730.867 74.2162 730.867 75.6496V76.4686C730.867 78.175 730.324 79.6767 729.239 80.9735C728.153 82.2704 726.763 83.0212 725.067 83.226C722.964 83.499 720.522 83.6355 717.74 83.6355C710.821 83.6355 705.937 82.168 703.088 79.233C700.307 76.2297 698.916 70.8716 698.916 63.1587V43.9105C698.916 43.2962 698.645 42.9891 698.102 42.9891H694.032Z" fill="#6E3DD9"/>
<path fill-rule="evenodd" clip-rule="evenodd" d="M45.2314 0.135742C44.1907 0.135742 43.3635 0.990979 43.192 2.0238C42.2983 7.40801 37.6461 11.5117 32.0412 11.5117C26.4363 11.5117 21.7841 7.40801 20.8904 2.0238C20.7189 0.990979 19.8917 0.135742 18.851 0.135742H1.89213C0.85145 0.135742 0.0078125 0.984607 0.0078125 2.03174V112C0.0078125 113.047 0.85145 113.896 1.89213 113.896H18.851C19.8917 113.896 20.7189 113.04 20.8904 112.008C21.7841 106.623 26.4363 102.52 32.0412 102.52C37.6461 102.52 42.2983 106.623 43.192 112.008C43.3635 113.04 44.1907 113.896 45.2314 113.896H62.1903C63.231 113.896 64.0746 113.047 64.0746 112V2.03174C64.0746 0.984609 63.231 0.135742 62.1903 0.135742H45.2314ZM32.0412 36.1597C43.4886 36.1597 52.7687 45.4973 52.7687 57.0157C52.7687 68.534 43.4886 77.8716 32.0412 77.8716C20.5938 77.8716 11.3137 68.534 11.3137 57.0157C11.3137 45.4973 20.5938 36.1597 32.0412 36.1597Z" fill="#6E3DD9"/>
<path fill-rule="evenodd" clip-rule="evenodd" d="M45.4741 49.4552C46.502 50.6372 46.3829 52.434 45.2082 53.4683L30.1337 66.7402C28.9637 67.7703 27.1866 67.6562 26.1561 66.485L20.5031 60.0597C19.4684 58.8836 19.5771 57.0862 20.746 56.0451C21.9146 55.004 23.701 55.1134 24.7358 56.2895L28.526 60.5976L41.4857 49.1877C42.6604 48.1532 44.4462 48.2731 45.4741 49.4552Z" fill="#6E3DD9"/>
</g>
<defs>
<clipPath id="clip0_3109_648">
<rect width="733" height="113.76" fill="white" transform="translate(0.0078125 0.135742)"/>
</clipPath>
</defs>
</svg>
