<svg width="97" height="94" viewBox="0 0 97 94" fill="none" xmlns="http://www.w3.org/2000/svg">
<rect x="0.550964" y="0.43396" width="96" height="93" rx="46.5" fill="#E93334"/>
<path d="M25.0986 30.4411L21.061 35.3592C21.0311 35.3963 21.0232 35.4458 21.0413 35.4899L24.3322 43.4442C24.3495 43.4852 24.3865 43.5153 24.4306 43.523L30.463 44.6225C30.4961 44.6287 30.5252 44.6465 30.5449 44.6727L33.9483 49.1532C33.9939 49.2128 34.0805 49.2228 34.1395 49.1757L38.0095 46.0134C38.0528 45.9778 38.0685 45.9199 38.0489 45.8681L37.1077 43.3761C37.0983 43.3522 37.0825 43.3305 37.0605 43.3158L30.9344 38.9962C30.8337 38.925 30.8785 38.7696 31.0021 38.7603L34.9736 38.4743C35.0043 38.472 35.035 38.4805 35.0602 38.4982L42.3793 43.6174C42.4037 43.6344 42.4218 43.6591 42.4296 43.6877L43.9547 48.9259C43.9657 48.9638 43.9932 48.9947 44.0302 49.0102L50.7182 51.8067C50.7261 51.8098 50.7331 51.8137 50.7402 51.8183L60.0526 57.9743C60.0974 58.0044 60.1194 58.0578 60.1076 58.1104L58.2458 66.4057C58.2364 66.449 58.2497 66.4946 58.2812 66.5255L61.1668 69.3607C61.1904 69.3839 61.2227 69.3978 61.2565 69.3986L65.9135 69.5308C66.0119 69.5339 66.0787 69.4341 66.0378 69.3468L64.8598 66.8108C64.8559 66.8015 64.8504 66.793 64.8441 66.7845L62.7399 64.1356C62.684 64.0661 62.7147 63.9624 62.7997 63.9331L65.9418 62.8305C66.0016 62.8097 66.0677 62.8329 66.1 62.8862L67.9138 65.8567C67.9209 65.8675 67.9256 65.8799 67.9288 65.8923L68.855 69.5926C68.8613 69.6166 68.8739 69.6383 68.892 69.6553L71.802 72.3977C71.8673 72.4595 71.9751 72.4394 72.0136 72.359L74.4822 67.2128C74.4964 67.1827 74.4987 67.1479 74.4885 67.117L73.0563 62.8475C73.0382 62.7942 73.0579 62.7354 73.1035 62.7022L75.997 60.6154C76.0662 60.5652 76.0694 60.4639 76.0033 60.4098L72.5779 57.6318C72.5472 57.6063 72.5291 57.5691 72.5299 57.5297L72.6251 51.08C72.6251 51.0506 72.6361 51.0228 72.6542 51.0003L75.3911 47.6773C75.4312 47.6285 75.4304 47.5582 75.3879 47.5103L71.1181 42.6602C71.1142 42.6556 71.1103 42.6509 71.1071 42.6463L60.2186 26.2188C60.2013 26.1925 60.1753 26.1732 60.1446 26.1647L57.5667 25.4302C57.4919 25.4085 57.414 25.4557 57.3999 25.5307L56.7341 28.9914C56.7215 29.0556 56.6625 29.1012 56.5964 29.0973L49.1113 28.6597C49.0704 28.6574 49.0326 28.6365 49.0098 28.6033L46.5153 25.0243C46.4995 25.0019 46.4767 24.9849 46.4508 24.9756L41.6529 23.2839C41.6215 23.2731 41.5876 23.2738 41.5569 23.2862L36.9787 25.1766C36.9456 25.1897 36.9094 25.1905 36.8764 25.1766L25.2899 20.4441C25.2222 20.4162 25.1443 20.4479 25.116 20.5152L23.3021 24.8874C23.284 24.9307 23.2439 24.9617 23.1967 24.9671L20.1663 25.3567C20.0962 25.366 20.0459 25.4271 20.0514 25.4959L20.2434 27.9345C20.2434 27.9345 23.5051 27.667 23.7129 27.5641C23.9206 27.4621 25.0986 30.4403 25.0986 30.4411Z" fill="white"/>
</svg>
