<svg width="57" height="56" viewBox="0 0 57 56" fill="none" xmlns="http://www.w3.org/2000/svg">
<rect width="57" height="56" rx="28" fill="#E93334"/>
<path d="M39.576 17.9945C37.5493 17.0648 35.355 16.39 33.0692 16.0001C33.0492 15.9994 33.0292 16.0031 33.0108 16.0109C32.9924 16.0187 32.9759 16.0303 32.9625 16.0451C32.6882 16.5399 32.3682 17.1848 32.1549 17.6796C29.7304 17.3197 27.2648 17.3197 24.8404 17.6796C24.6271 17.1698 24.3071 16.5399 24.0175 16.0451C24.0023 16.0151 23.9566 16.0001 23.9108 16.0001C21.6251 16.39 19.446 17.0648 17.404 17.9945C17.3888 17.9945 17.3735 18.0095 17.3583 18.0245C13.2134 24.1279 12.0705 30.0664 12.6343 35.9448C12.6343 35.9748 12.6496 36.0048 12.6801 36.0198C15.423 37.9993 18.0593 39.199 20.665 39.9938C20.7108 40.0088 20.7565 39.9938 20.7717 39.9638C21.3813 39.139 21.9298 38.2692 22.4022 37.3545C22.4327 37.2945 22.4022 37.2345 22.3413 37.2195C21.4727 36.8896 20.6498 36.4997 19.8422 36.0498C19.7812 36.0198 19.7812 35.9299 19.8269 35.8849C19.9946 35.7649 20.1622 35.6299 20.3298 35.51C20.3603 35.48 20.406 35.48 20.4365 35.495C25.6785 37.8493 31.332 37.8493 36.5131 35.495C36.5436 35.48 36.5893 35.48 36.6198 35.51C36.7874 35.6449 36.955 35.7649 37.1226 35.8999C37.1836 35.9448 37.1836 36.0348 37.1074 36.0648C36.315 36.5297 35.4769 36.9046 34.6083 37.2345C34.5473 37.2495 34.5321 37.3245 34.5473 37.3695C35.035 38.2842 35.5836 39.154 36.1779 39.9788C36.2236 39.9938 36.2693 40.0088 36.315 39.9938C38.936 39.199 41.5723 37.9993 44.3152 36.0198C44.3457 36.0048 44.3609 35.9748 44.3609 35.9448C45.0314 29.1516 43.2485 23.2582 39.637 18.0245C39.6218 18.0095 39.6065 17.9945 39.576 17.9945ZM23.1946 32.3608C21.6251 32.3608 20.3146 30.9362 20.3146 29.1816C20.3146 27.4271 21.5946 26.0024 23.1946 26.0024C24.8099 26.0024 26.09 27.4421 26.0747 29.1816C26.0747 30.9362 24.7947 32.3608 23.1946 32.3608ZM33.8159 32.3608C32.2463 32.3608 30.9358 30.9362 30.9358 29.1816C30.9358 27.4271 32.2158 26.0024 33.8159 26.0024C35.4312 26.0024 36.7112 27.4421 36.696 29.1816C36.696 30.9362 35.4312 32.3608 33.8159 32.3608Z" fill="white"/>
</svg>
