<svg width="69" height="64" viewBox="0 0 69 64" fill="none" xmlns="http://www.w3.org/2000/svg">
<path d="M20.6121 24.1776C21.1388 24.1781 21.6438 24.3872 22.016 24.7589L32.1774 34.8947C32.4848 35.2014 32.8499 35.4448 33.2517 35.6108C33.6535 35.7769 34.0841 35.8623 34.519 35.8623C34.9539 35.8623 35.3846 35.7769 35.7863 35.6108C36.1881 35.4448 36.5532 35.2014 36.8607 34.8947L47.0087 24.7721C47.3834 24.4112 47.8853 24.2114 48.4062 24.2159C48.9271 24.2204 49.4254 24.4289 49.7937 24.7963C50.1621 25.1637 50.371 25.6607 50.3755 26.1803C50.3801 26.6999 50.1798 27.2005 49.8179 27.5743L39.6778 37.6968C38.3106 39.0578 36.4579 39.8223 34.5263 39.8223C32.5947 39.8223 30.742 39.0578 29.3748 37.6968L19.2069 27.5611C18.9288 27.2839 18.7395 26.9307 18.6627 26.5462C18.586 26.1617 18.6253 25.7631 18.7758 25.4008C18.9262 25.0386 19.181 24.7291 19.5079 24.5113C19.8348 24.2936 20.219 24.1775 20.6121 24.1776Z" fill="#0F2841"/>
</svg>
