<svg width="1364" height="283" viewBox="0 0 1364 283" fill="none" xmlns="http://www.w3.org/2000/svg">
<path d="M996.126 162.272H1014.24L1095.21 64.5933L1176.22 162.272H1194.33L1095.21 42.7275L996.126 162.272Z" fill="#AA2222"/>
<path d="M1263.45 148.436L1220.03 96.1014L1263.45 43.7312V148.436Z" fill="#E93334"/>
<path d="M1263.45 148.436L1306.87 96.1014L1263.45 43.7312V148.436Z" fill="#AA2222"/>
<path d="M1073.84 42.7275L987.643 281.781H1030.74L1050.32 226.507H1139.45L1158.71 281.781H1202.81L1116.62 42.7275H1073.84ZM1062.42 191.199L1089.84 114.024C1090.91 110.762 1091.95 107.429 1092.95 104.059C1093.92 100.69 1094.64 97.8937 1095.07 95.7071C1095.28 98.1088 1095.93 100.941 1097.03 104.203C1098.11 107.464 1099.11 110.726 1099.97 114.024L1127.39 191.199H1062.42Z" fill="#0F2841"/>
<path d="M1318.65 43.7312L1271.93 130.728C1270.61 133.345 1269.5 135.567 1268.5 137.431C1267.53 139.295 1266.71 141.087 1266.06 142.844C1265.42 144.6 1264.52 146.428 1263.45 148.4C1262.16 145.568 1260.84 142.736 1259.55 139.905C1258.22 137.073 1256.72 134.026 1254.97 130.764L1207.93 43.767H1161.22L1241.86 188.619V282.785H1283.67V188.619L1364 43.767H1318.61L1318.65 43.7312Z" fill="#0F2841"/>
<path d="M1095.21 259.915L1014.24 162.272H996.126L1095.21 281.781L1194.33 162.272H1176.22L1095.21 259.915Z" fill="#E93334"/>
<path d="M774.729 60.0409V78.7164L843.958 162.165L774.729 245.649V264.324L859.422 162.165L774.729 60.0409Z" fill="#0F2841"/>
<path d="M774.729 98.2522V226.113L816.539 175.714L827.743 162.165L774.729 98.2522Z" fill="#E93334"/>
<path d="M962.335 100.116C952.205 82.1217 938.209 68.0703 920.382 57.926C902.52 47.7817 881.866 42.7275 858.348 42.7275H774.765L841.989 122.914L853.086 90.0077C853.48 88.8248 852.728 87.4985 851.726 87.6419L824.951 89.3983C824.091 89.5059 823.376 88.538 823.519 87.4268L824.736 81.2973H854.411C870.948 81.2973 885.123 84.5592 896.864 91.1189C908.605 97.6428 917.662 106.963 923.962 119.078C930.262 131.194 933.448 145.747 933.448 162.738C933.448 179.729 930.405 193.601 924.32 205.574C918.235 217.582 909.393 226.83 897.867 233.354C886.34 239.878 872.595 243.175 856.737 243.175H824.772L823.519 236.974C823.376 235.863 824.091 234.895 824.951 235.003L851.726 236.759C852.728 236.902 853.48 235.612 853.086 234.393L841.989 201.487L774.765 281.638L775.23 281.745H860.639C883.727 281.745 904.024 276.727 921.528 266.69C939.032 256.653 952.778 242.638 962.657 224.679C972.573 206.685 977.512 186.038 977.512 162.702C977.512 139.367 972.465 118.075 962.335 100.08V100.116Z" fill="#0F2841"/>
<path d="M71.0189 108.361C69.5155 113.989 66.4729 118.29 62.07 121.194C57.5955 124.133 51.7966 125.638 44.8164 125.638C35.1157 125.638 27.5628 122.484 22.3366 116.247C17.6831 110.727 15.07 103.056 14.4973 93.485H85.2299V86.1725C85.2299 77.5696 83.4759 69.9345 80.0395 63.4823C76.5673 56.9943 71.6991 51.8684 65.4706 48.248C59.2779 44.5918 51.9398 42.7637 43.7067 42.7637C35.4737 42.7637 27.4196 44.8427 20.9048 48.9291C14.3899 53.0155 9.23532 58.7149 5.54835 65.9198C1.86138 73.0889 0 81.4768 0 90.7966C0 100.116 1.89718 108.683 5.65574 115.781C9.4143 122.914 14.7121 128.578 21.4059 132.592C28.0997 136.607 35.939 138.65 44.6732 138.65C55.4119 138.65 64.3251 136.069 71.2337 130.979C78.1423 125.889 82.8674 118.469 85.2299 108.934L85.552 107.644H71.2695L71.0547 108.433L71.0189 108.361ZM43.7067 55.7039C51.725 55.7039 58.2398 58.2489 63.1081 63.2314C67.7615 67.9989 70.2314 74.3794 70.4462 82.1578H14.8911C15.4638 78.179 16.4661 74.5944 17.9695 71.4042C20.332 66.3858 23.7326 62.4787 28.1355 59.7903C32.5384 57.066 37.7646 55.7039 43.6709 55.7039H43.7067Z" fill="#0F2841"/>
<path d="M121.276 16.9549H106.672V45.1295H88.8453V57.9263H106.672V136.392H121.276V57.9263H139.138V45.1295H121.276V16.9549Z" fill="#0F2841"/>
<path d="M195.123 42.7278C187.499 42.7278 180.841 44.4125 175.364 47.7462C171.033 50.3987 167.453 53.7682 164.732 57.8188V0H149.949V136.213H164.732V86.7102C164.732 81.1183 165.806 75.9566 167.954 71.4042C170.066 66.8877 173.216 63.1956 177.333 60.5072C181.413 57.8187 186.604 56.4208 192.761 56.4208C197.235 56.4208 201.208 57.2811 204.609 58.9658C207.938 60.6147 210.551 63.4465 212.412 67.3178C214.31 71.2608 215.24 76.7452 215.24 83.52V136.356H230.024V80.7599C230.024 69.3968 227.232 60.1129 221.684 53.1947C216.099 46.2048 207.15 42.6561 195.123 42.6561V42.7278Z" fill="#0F2841"/>
<path d="M314.431 108.361C312.927 113.989 309.885 118.29 305.482 121.194C301.007 124.133 295.208 125.638 288.228 125.638C278.527 125.638 270.974 122.484 265.748 116.247C261.095 110.727 258.482 103.056 257.909 93.485H328.642V86.1725C328.642 77.5696 326.888 69.9345 323.451 63.4823C319.979 56.9943 315.111 51.8684 308.882 48.248C302.69 44.5918 295.351 42.7637 287.118 42.7637C278.885 42.7637 270.831 44.8427 264.316 48.9291C257.802 53.0155 252.647 58.7149 248.96 65.9198C245.273 73.0889 243.412 81.4768 243.412 90.7966C243.412 100.116 245.309 108.683 249.067 115.781C252.826 122.914 258.124 128.578 264.818 132.592C271.511 136.607 279.351 138.65 288.085 138.65C298.824 138.65 307.737 136.069 314.645 130.979C321.554 125.889 326.279 118.469 328.642 108.934L328.964 107.644H314.681L314.466 108.433L314.431 108.361ZM287.118 55.7039C295.137 55.7039 301.651 58.2489 306.52 63.2314C311.173 67.9989 313.643 74.3794 313.858 82.1578H258.339C258.911 78.179 259.914 74.5944 261.417 71.4042C263.78 66.3858 267.18 62.4787 271.583 59.7903C275.986 57.066 281.212 55.7039 287.118 55.7039Z" fill="#0F2841"/>
<path d="M386.559 43.3013C377.61 42.4769 370.201 44.305 364.294 48.7498C361.574 50.8289 359.39 53.2305 357.779 55.9906L357.099 45.1295H343.103V136.392H357.887V84.4878C357.887 76.2075 360.249 69.5761 364.867 64.7728C369.485 59.9695 375.82 57.532 383.696 57.532H391.75V44.2333L390.962 44.0182C389.459 43.6598 387.991 43.373 386.559 43.2655V43.3013Z" fill="#0F2841"/>
<path d="M464.2 108.361C462.697 113.989 459.654 118.29 455.251 121.194C450.777 124.133 444.978 125.638 437.998 125.638C428.297 125.638 420.744 122.484 415.518 116.247C410.865 110.727 408.251 103.056 407.679 93.485H478.411V86.1725C478.411 77.5696 476.657 69.9345 473.221 63.4823C469.749 56.9943 464.881 51.8684 458.652 48.248C452.459 44.5918 445.121 42.7637 436.888 42.7637C428.655 42.7637 420.601 44.8427 414.086 48.9291C407.571 53.0155 402.417 58.7149 398.73 65.9198C395.043 73.0889 393.181 81.4768 393.181 90.7966C393.181 100.116 395.079 108.683 398.837 115.781C402.596 122.914 407.894 128.578 414.587 132.592C421.281 136.607 429.12 138.65 437.855 138.65C448.593 138.65 457.507 136.069 464.415 130.979C471.324 125.889 476.049 118.469 478.411 108.934L478.733 107.644H464.451L464.236 108.433L464.2 108.361ZM436.888 55.7039C444.906 55.7039 451.421 58.2489 456.29 63.2314C460.943 67.9989 463.413 74.3794 463.628 82.1578H408.108C408.681 78.179 409.683 74.5944 411.187 71.4042C413.549 66.3858 416.95 62.4787 421.353 59.7903C425.756 57.066 430.982 55.7039 436.888 55.7039Z" fill="#0F2841"/>
<path d="M555.408 93.5208C555.408 103.773 553.081 111.695 548.5 117.071C543.954 122.376 537.474 125.101 529.241 125.101C522.583 125.101 517.071 123.022 512.954 118.971C508.838 114.885 506.726 107.644 506.726 97.428V44.9861H491.763V101.479C491.763 112.483 494.663 121.516 500.39 128.327C506.153 135.173 514.494 138.65 525.196 138.65C532.32 138.65 538.906 137.001 544.741 133.739C549.502 131.087 553.189 127.717 555.766 123.667L557.162 136.428H570.192V45.1295H555.408V93.5208Z" fill="#0F2841"/>
<path d="M713.196 51.9042C707.147 45.8464 699.093 42.7637 689.285 42.7637C680.873 42.7637 673.749 45.0578 668.129 49.5384C664.586 52.3702 661.865 55.8831 660.039 60.0412C658.142 55.9189 655.458 52.4061 651.985 49.5743C646.473 45.0578 639.528 42.7995 631.367 42.7995C624.315 42.7995 618.087 44.5559 612.861 48.0329C609.675 50.1478 607.097 52.6928 605.129 55.668L603.983 45.1653H590.953V136.428H605.737V80.1146C605.737 75.7415 606.668 71.7268 608.493 68.1423C610.283 64.5935 612.968 61.7259 616.368 59.611C619.769 57.4961 623.921 56.4566 628.611 56.4566C635.018 56.4566 640.173 58.464 643.931 62.407C647.69 66.3858 649.623 72.0853 649.623 79.3619V136.428H664.228V80.2939C664.228 75.9207 665.158 71.8702 666.984 68.2498C668.774 64.6294 671.422 61.6901 674.787 59.5393C678.152 57.3886 682.233 56.3132 686.922 56.3132C693.437 56.3132 698.627 58.3564 702.35 62.407C706.073 66.4934 707.97 72.2645 707.97 79.577V136.464H722.396V76.9961C722.396 66.4575 719.317 57.998 713.268 51.9401L713.196 51.9042Z" fill="#0F2841"/>
<path d="M73.7752 258.446C68.2985 262.138 61.7478 263.966 54.0875 263.966C47.3579 263.966 41.4516 262.353 36.3686 259.127C31.3214 255.901 27.4196 251.348 24.6275 245.47C21.8713 239.591 20.4752 232.745 20.4752 224.966C20.4752 217.188 21.8713 209.911 24.6275 204.104C27.3838 198.261 31.2856 193.781 36.3686 190.59C41.4158 187.436 47.3221 185.823 54.0875 185.823C61.6404 185.823 68.0479 187.651 73.3099 191.271C78.5719 194.892 82.1872 199.982 84.1202 206.542H104.81C103.593 198.476 100.658 191.487 96.076 185.608C91.4942 179.729 85.6594 175.141 78.6077 171.879C71.5559 168.617 63.5734 166.968 54.696 166.968C43.8499 166.968 34.3282 169.37 26.0236 174.173C17.7547 178.976 11.3473 185.751 6.80121 194.426C2.25514 203.136 0 213.316 0 224.966C0 236.616 2.21934 246.939 6.65803 255.578C11.0967 264.217 17.3252 270.92 25.3435 275.688C33.3617 280.455 42.8476 282.821 53.7653 282.821C62.6427 282.821 70.6968 281.172 77.8917 277.91C85.0867 274.648 91.0646 270.024 95.8254 264.109C100.586 258.159 103.665 251.313 105.097 243.534H84.6929C82.8674 249.771 79.2162 254.754 73.7394 258.41L73.7752 258.446Z" fill="#E93334"/>
<path d="M173.86 208.119C167.775 204.749 160.795 203.065 152.92 203.065C145.045 203.065 138.208 204.749 132.087 208.119C125.966 211.488 121.133 216.184 117.661 222.17C114.189 228.156 112.435 235.075 112.435 242.961C112.435 250.847 114.189 257.765 117.661 263.751C121.133 269.737 125.93 274.433 132.087 277.802C138.208 281.172 145.152 282.857 152.92 282.857C160.688 282.857 167.775 281.172 173.86 277.802C179.946 274.433 184.707 269.737 188.179 263.751C191.651 257.765 193.405 250.847 193.405 242.961C193.405 235.075 191.651 228.156 188.179 222.17C184.707 216.184 179.91 211.488 173.86 208.119ZM171.927 255.076C170.102 258.553 167.525 261.278 164.267 263.213C161.01 265.149 157.215 266.117 152.92 266.117C148.624 266.117 144.866 265.149 141.644 263.213C138.422 261.278 135.881 258.553 133.984 255.076C132.087 251.599 131.156 247.549 131.156 242.961C131.156 238.372 132.087 234.178 133.984 230.773C135.881 227.332 138.422 224.644 141.644 222.708C144.866 220.772 148.624 219.804 152.92 219.804C157.215 219.804 161.01 220.772 164.267 222.708C167.525 224.644 170.102 227.332 171.927 230.773C173.753 234.214 174.684 238.265 174.684 242.961C174.684 247.656 173.753 251.599 171.927 255.076Z" fill="#E93334"/>
<path d="M242.767 237.727L229.129 234.501C222.578 232.96 219.321 230.092 219.321 225.898C219.321 223.138 220.359 220.952 222.4 219.303C224.44 217.654 227.304 216.829 230.991 216.829C234.677 216.829 237.541 217.761 239.582 219.661C241.622 221.561 242.66 224.142 242.66 227.404H260.45C260.343 222.493 259.09 218.191 256.692 214.499C254.294 210.807 250.929 207.94 246.669 205.896C242.374 203.853 237.434 202.814 231.814 202.814C226.194 202.814 220.825 203.746 216.35 205.645C211.84 207.545 208.296 210.27 205.683 213.854C203.07 217.439 201.781 221.668 201.781 226.579C201.781 232.601 203.428 237.333 206.757 240.774C210.086 244.215 215.169 246.689 222.006 248.23L235.644 251.456C239.009 252.173 241.3 253.248 242.553 254.682C243.77 256.116 244.378 257.765 244.378 259.593C244.378 262.353 243.233 264.575 240.942 266.189C238.651 267.837 235.25 268.662 230.74 268.662C226.552 268.662 223.294 267.694 220.932 265.758C218.569 263.823 217.352 261.206 217.245 257.944H199.454C199.454 265.4 202.246 271.458 207.795 276.046C213.379 280.634 220.86 282.964 230.239 282.964C236.467 282.964 241.98 281.96 246.777 279.953C251.573 277.946 255.296 275.078 257.981 271.35C260.63 267.622 261.954 263.177 261.954 258.087C261.954 252.245 260.343 247.764 257.121 244.574C253.9 241.419 249.139 239.089 242.803 237.656L242.767 237.727Z" fill="#E93334"/>
<path d="M298.859 181.557H280.138V205.215H265.605V220.844H280.138V281.029H298.859V220.844H313.428V205.215H298.859V181.557Z" fill="#E93334"/>
<path d="M371.954 206.506C367.05 204.104 361.18 202.885 354.343 202.885C347.506 202.885 341.635 203.997 336.481 206.255C331.326 208.513 327.317 211.668 324.525 215.682C321.697 219.733 320.301 224.5 320.301 230.02H336.23C336.23 226.042 337.698 222.923 340.669 220.736C343.64 218.55 347.864 217.439 353.376 217.439C356.527 217.439 359.319 217.94 361.645 218.908C363.972 219.876 365.798 221.417 367.086 223.497C368.375 225.576 369.019 228.372 369.019 231.849V233.533L346.325 235.361C337.34 236.078 330.396 238.516 325.563 242.638C320.695 246.796 318.297 252.316 318.297 259.306C318.297 266.296 320.623 272.067 325.277 276.404C329.93 280.742 336.23 282.928 344.213 282.928C350.155 282.928 355.417 281.71 360.07 279.236C364.724 276.763 367.874 273.608 369.485 269.737L370.881 280.957H387.275V234.895C387.275 227.834 385.951 221.919 383.302 217.152C380.653 212.384 376.859 208.8 371.954 206.398V206.506ZM369.198 250.345C369.198 256.188 367.48 260.74 364.079 264.002C360.643 267.264 356.025 268.913 350.191 268.913C346.11 268.913 342.924 268.052 340.669 266.296C338.414 264.575 337.304 261.995 337.304 258.625C337.304 255.542 338.521 253.069 340.991 251.169C343.461 249.269 347.578 248.087 353.412 247.549L369.198 246.33V250.345Z" fill="#E93334"/>
<path d="M521.653 222.923C525.089 217.654 526.772 211.273 526.772 203.817C526.772 192.777 523.228 184.174 516.104 178.044C509.017 171.915 499.101 168.832 486.43 168.832H443.654V281.029H463.27V239.125H487.324L506.332 281.029H527.774L506.475 234.967C513.133 232.207 518.145 228.192 521.581 222.923H521.653ZM501.034 217.009C497.562 220.199 492.694 221.776 486.465 221.776H463.305V186.325H486.465C492.694 186.325 497.562 187.83 501.034 190.841C504.507 193.852 506.26 198.19 506.26 203.817C506.26 209.445 504.507 213.854 501.034 217.009Z" fill="#E93334"/>
<path d="M549.752 167.434C546.567 167.434 543.918 168.51 541.698 170.66C539.515 172.811 538.405 175.464 538.405 178.654C538.405 181.844 539.515 184.497 541.698 186.719C543.882 188.906 546.567 190.017 549.752 190.017C552.938 190.017 555.587 188.906 557.807 186.719C559.99 184.533 561.1 181.844 561.1 178.654C561.1 175.464 559.99 172.811 557.807 170.66C555.623 168.51 552.938 167.434 549.752 167.434Z" fill="#E93334"/>
<path d="M559.238 205.215H540.553V281.029H559.238V205.215Z" fill="#E93334"/>
<path d="M620.807 262.927C617.693 265.185 613.791 266.296 609.066 266.296C605.093 266.296 601.621 265.364 598.721 263.464C595.822 261.564 593.602 258.876 592.063 255.399C590.524 251.922 589.772 247.764 589.772 242.961C589.772 238.157 590.596 233.999 592.242 230.522C593.889 227.045 596.215 224.357 599.222 222.457C602.229 220.557 605.701 219.625 609.567 219.625C614.078 219.625 617.8 220.736 620.843 222.923C623.85 225.11 625.926 228.372 627.036 232.673H645.721C644.683 223.568 640.889 216.327 634.302 210.951C627.716 205.574 619.268 202.885 608.923 202.885C601.477 202.885 594.891 204.606 589.235 208.011C583.58 211.452 579.105 216.184 575.883 222.206C572.662 228.228 571.051 235.146 571.051 242.925C571.051 250.703 572.626 258.052 575.74 264.038C578.854 270.024 583.293 274.684 588.985 278.018C594.712 281.351 601.406 283 609.066 283C615.724 283 621.63 281.745 626.857 279.236C632.083 276.727 636.343 273.25 639.672 268.805C643.001 264.36 645.077 259.163 645.864 253.212H627C625.962 257.406 623.921 260.632 620.807 262.891V262.927Z" fill="#E93334"/>
<path d="M718.351 217.259C715.702 212.492 711.908 208.907 707.004 206.506C702.1 204.104 696.229 202.885 689.392 202.885C682.555 202.885 676.684 203.997 671.53 206.255C666.375 208.513 662.366 211.668 659.574 215.682C656.746 219.733 655.35 224.5 655.35 230.02H671.279C671.279 226.042 672.747 222.923 675.718 220.736C678.689 218.55 682.913 217.439 688.426 217.439C691.576 217.439 694.368 217.94 696.694 218.908C699.021 219.876 700.847 221.417 702.135 223.497C703.424 225.611 704.068 228.372 704.068 231.849V233.533L681.374 235.361C672.389 236.078 665.445 238.516 660.612 242.638C655.744 246.796 653.346 252.316 653.346 259.306C653.346 266.296 655.672 272.067 660.326 276.404C664.979 280.742 671.279 282.928 679.262 282.928C685.204 282.928 690.466 281.71 695.119 279.236C699.773 276.763 702.923 273.608 704.534 269.737L705.93 280.957H722.324V234.895C722.324 227.834 721 221.919 718.351 217.152V217.259ZM704.247 250.345C704.247 256.188 702.529 260.74 699.128 264.002C695.692 267.264 691.074 268.913 685.24 268.913C681.159 268.913 677.973 268.052 675.718 266.296C673.463 264.575 672.353 261.995 672.353 258.625C672.353 255.542 673.57 253.069 676.04 251.169C678.51 249.269 682.627 248.087 688.461 247.549L704.247 246.33V250.345Z" fill="#E93334"/>
</svg>
