<svg width="180" height="103" viewBox="0 0 180 103" fill="none" xmlns="http://www.w3.org/2000/svg">
<g clip-path="url(#clip0_2246_4230)">
<path d="M34.4696 92.8985L0 51.4792L34.4696 10.06L68.9392 51.4792L34.4696 92.8985ZM6.30352 51.4792L34.4696 85.3244L62.6357 51.4792L34.4696 17.6341L6.30352 51.4792Z" fill="#0F2841"/>
<path d="M34.4696 77.4099L12.89 51.4793L34.4696 25.5514V77.4099Z" fill="#E93334"/>
<path d="M34.4696 77.4099L56.0464 51.4793L34.4696 25.5514V77.4099Z" fill="#AA2222"/>
<path d="M61.82 35.5671L66.3396 22.2211C66.5005 21.7367 66.1981 21.2079 65.7902 21.2661L54.895 21.9803C54.5455 22.0301 54.2541 21.6343 54.3096 21.1858L56.2184 11.6988C56.2795 11.2255 55.9521 10.8185 55.5886 10.9126L45.892 11.7708C45.5202 11.8677 45.1928 11.4469 45.265 10.9652L47.2764 0.819435C47.3486 0.334984 47.0156 -0.0857975 46.6411 0.0166295L34.4668 3.06452L61.82 35.5699V35.5671Z" fill="#0F2841"/>
<path d="M7.11642 35.5671L2.59686 22.2211C2.43595 21.7367 2.73836 21.2079 3.1462 21.2661L14.0414 21.9803C14.391 22.0301 14.6823 21.6343 14.6268 21.1858L12.718 11.6988C12.657 11.2255 12.9844 10.8185 13.3478 10.9126L23.0445 11.7708C23.4162 11.8677 23.7436 11.4469 23.6715 10.9652L21.66 0.819435C21.5879 0.334984 21.9208 -0.0857975 22.2954 0.0166295L34.4696 3.06452L7.11642 35.5671Z" fill="#0F2841"/>
<path d="M61.82 67.4302L66.3396 80.7761C66.5005 81.2606 66.1981 81.7893 65.7902 81.7312L54.895 81.017C54.5455 80.9671 54.2541 81.363 54.3096 81.8115L56.2184 91.2984C56.2795 91.7718 55.9521 92.1787 55.5886 92.0846L45.892 91.2264C45.5202 91.1296 45.1928 91.5503 45.265 92.032L47.2764 102.178C47.3486 102.662 47.0156 103.083 46.6411 102.981L34.4668 99.9327L61.82 67.4274V67.4302Z" fill="#0F2841"/>
<path d="M7.11642 67.4302L2.59686 80.7761C2.43595 81.2606 2.73836 81.7893 3.1462 81.7312L14.0414 81.017C14.391 80.9671 14.6823 81.363 14.6268 81.8115L12.718 91.2984C12.657 91.7718 12.9844 92.1787 13.3478 92.0846L23.0445 91.2265C23.4162 91.1296 23.7436 91.5503 23.6715 92.032L21.66 102.178C21.5879 102.662 21.9208 103.083 22.2954 102.981L34.4696 99.9327L7.11642 67.4302Z" fill="#0F2841"/>
<path d="M88.9707 46.7842C88.7571 47.5732 88.3326 48.1767 87.7111 48.5864C87.0841 48.9988 86.2656 49.2092 85.2807 49.2092C83.9184 49.2092 82.8531 48.7663 82.1178 47.8915C81.4658 47.1164 81.0941 46.0423 81.0164 44.6969H90.9711V43.6699C90.9711 42.4629 90.7269 41.3916 90.2414 40.4863C89.7559 39.5783 89.065 38.8586 88.1911 38.3492C87.3171 37.8398 86.285 37.5796 85.1253 37.5796C83.9656 37.5796 82.8309 37.8703 81.9125 38.4406C80.997 39.0136 80.2673 39.8136 79.7485 40.8241C79.2296 41.8317 78.9688 43.0055 78.9688 44.3149C78.9688 45.6243 79.2352 46.8202 79.7623 47.8195C80.2895 48.8217 81.0358 49.6134 81.9791 50.1781C82.9224 50.7401 84.0239 51.0252 85.2529 51.0252C86.7622 51.0252 88.0218 50.6626 88.9929 49.9511C89.9667 49.2341 90.6298 48.196 90.9655 46.859L91.0127 46.6762H89.0012L88.9707 46.7842ZM85.1253 39.3984C86.2517 39.3984 87.1701 39.7527 87.8554 40.4531C88.5101 41.123 88.8569 42.0172 88.8875 43.1107H81.0719C81.1495 42.5542 81.2966 42.0504 81.5075 41.602C81.8376 40.9016 82.3204 40.3507 82.9391 39.9714C83.5605 39.5922 84.2958 39.3984 85.1281 39.3984H85.1253Z" fill="#0F2841"/>
<path d="M96.0455 33.9615H93.9896V37.9146H91.4788V39.7084H93.9896V50.7152H96.0455V39.7084H98.5591V37.9146H96.0455V33.9615Z" fill="#0F2841"/>
<path d="M106.439 37.5796C105.362 37.5796 104.427 37.8177 103.656 38.2855C103.045 38.6565 102.543 39.1299 102.158 39.6974V31.5835H100.074V50.6903H102.158V43.7474C102.158 42.964 102.31 42.2414 102.61 41.602C102.907 40.9653 103.351 40.4531 103.93 40.0739C104.508 39.6946 105.237 39.5036 106.103 39.5036C106.733 39.5036 107.293 39.6254 107.773 39.8635C108.242 40.096 108.611 40.4919 108.872 41.0345C109.138 41.5881 109.271 42.3549 109.271 43.31V50.718H111.355V42.9224C111.355 41.3279 110.961 40.0268 110.184 39.0579C109.399 38.0779 108.139 37.5824 106.444 37.5824L106.439 37.5796Z" fill="#0F2841"/>
<path d="M123.232 46.7842C123.019 47.5732 122.594 48.1767 121.973 48.5864C121.346 48.9988 120.527 49.2092 119.542 49.2092C118.18 49.2092 117.115 48.7663 116.379 47.8915C115.727 47.1164 115.356 46.0423 115.278 44.6969H125.233V43.6699C125.233 42.4629 124.988 41.3916 124.503 40.4863C124.017 39.5783 123.327 38.8586 122.453 38.3492C121.579 37.8398 120.547 37.5796 119.387 37.5796C118.227 37.5796 117.092 37.8703 116.174 38.4406C115.258 39.0136 114.529 39.8136 114.01 40.8241C113.491 41.8317 113.23 43.0055 113.23 44.3149C113.23 45.6243 113.497 46.8202 114.024 47.8195C114.551 48.8217 115.297 49.6134 116.241 50.1781C117.184 50.7401 118.285 51.0252 119.514 51.0252C121.024 51.0252 122.283 50.6626 123.254 49.9511C124.228 49.2341 124.891 48.196 125.227 46.859L125.274 46.6762H123.263L123.232 46.7842ZM119.387 39.3984C120.513 39.3984 121.432 39.7527 122.117 40.4531C122.772 41.123 123.118 42.0172 123.149 43.1107H115.333C115.411 42.5542 115.558 42.0504 115.769 41.602C116.099 40.9016 116.582 40.3507 117.201 39.9714C117.822 39.5922 118.557 39.3984 119.39 39.3984H119.387Z" fill="#0F2841"/>
<path d="M133.384 37.6571C132.16 37.5464 131.081 37.7956 130.252 38.424C129.869 38.7146 129.561 39.0524 129.333 39.4372L129.236 37.9146H127.266V50.7152H129.35V43.4373C129.35 42.2774 129.68 41.3445 130.332 40.6718C130.981 39.9991 131.875 39.6586 132.984 39.6586H134.116V37.7928L134.005 37.7651C133.795 37.7125 133.586 37.6765 133.387 37.6571H133.384Z" fill="#0F2841"/>
<path d="M144.31 46.7842C144.096 47.5732 143.672 48.1767 143.05 48.5864C142.423 48.9988 141.605 49.2092 140.62 49.2092C139.257 49.2092 138.192 48.7663 137.457 47.8915C136.805 47.1164 136.433 46.0423 136.355 44.6969H146.31V43.6699C146.31 42.4629 146.066 41.3916 145.58 40.4863C145.095 39.5783 144.404 38.8586 143.53 38.3492C142.656 37.8398 141.624 37.5796 140.464 37.5796C139.305 37.5796 138.17 37.8703 137.251 38.4406C136.336 39.0136 135.606 39.8136 135.087 40.8241C134.569 41.8317 134.308 43.0055 134.308 44.3149C134.308 45.6243 134.574 46.8202 135.101 47.8195C135.628 48.8217 136.375 49.6134 137.318 50.1781C138.261 50.7401 139.363 51.0252 140.592 51.0252C142.101 51.0252 143.361 50.6626 144.332 49.9511C145.306 49.2341 145.969 48.196 146.304 46.859L146.352 46.6762H144.34L144.31 46.7842ZM140.464 39.3984C141.591 39.3984 142.509 39.7527 143.194 40.4531C143.849 41.123 144.196 42.0172 144.226 43.1107H136.411C136.488 42.5542 136.636 42.0504 136.846 41.602C137.177 40.9016 137.659 40.3507 138.278 39.9714C138.899 39.5922 139.635 39.3984 140.467 39.3984H140.464Z" fill="#0F2841"/>
<path d="M157.15 44.7025C157.15 46.142 156.822 47.2521 156.176 48.005C155.535 48.7525 154.622 49.129 153.465 49.129C152.525 49.129 151.753 48.8383 151.174 48.268C150.594 47.6978 150.3 46.6818 150.3 45.2478V37.8925H148.191V45.8181C148.191 47.3628 148.599 48.6307 149.403 49.583C150.214 50.5436 151.39 51.0308 152.897 51.0308C153.901 51.0308 154.828 50.7983 155.649 50.3415C156.317 49.9678 156.839 49.4944 157.202 48.9297L157.399 50.7207H159.233V37.9201H157.15V44.708V44.7025Z" fill="#0F2841"/>
<path d="M178.713 38.8613C177.858 38.0115 176.726 37.5796 175.344 37.5796C174.16 37.5796 173.155 37.898 172.365 38.5291C171.865 38.9278 171.482 39.4205 171.227 39.9991C170.961 39.4178 170.581 38.9278 170.092 38.5291C169.318 37.898 168.342 37.5796 167.19 37.5796C166.197 37.5796 165.32 37.826 164.585 38.316C164.139 38.6122 163.775 38.9693 163.498 39.3873L163.337 37.9174H161.503V50.718H163.586V42.82C163.586 42.2082 163.717 41.6435 163.972 41.1424C164.225 40.6441 164.599 40.2427 165.082 39.9493C165.565 39.6558 166.144 39.5064 166.805 39.5064C167.706 39.5064 168.433 39.786 168.963 40.3396C169.493 40.896 169.765 41.6961 169.765 42.7176V50.7207H171.821V42.8477C171.821 42.2359 171.951 41.6684 172.207 41.1563C172.462 40.6497 172.831 40.24 173.305 39.9354C173.78 39.6337 174.354 39.4814 175.012 39.4814C175.93 39.4814 176.66 39.7693 177.181 40.3368C177.706 40.9099 177.972 41.7182 177.972 42.7425V50.718H180.003V42.3798C180.003 40.8988 179.57 39.7167 178.715 38.8641L178.713 38.8613Z" fill="#0F2841"/>
<path d="M89.2925 67.5049C88.5268 68.0171 87.6084 68.2745 86.5375 68.2745C85.5942 68.2745 84.7702 68.0503 84.0627 67.6018C83.3552 67.1534 82.8087 66.5166 82.423 65.6972C82.0374 64.8778 81.8432 63.9255 81.8432 62.8431C81.8432 61.7607 82.0374 60.7475 82.423 59.9336C82.8087 59.1198 83.3552 58.4941 84.0627 58.0512C84.7702 57.6083 85.5942 57.3868 86.5375 57.3868C87.5946 57.3868 88.4907 57.6415 89.2287 58.1453C89.9639 58.6519 90.4689 59.3606 90.7408 60.2741H93.6345C93.4625 59.1474 93.0547 58.1758 92.4138 57.3536C91.7701 56.5342 90.9572 55.8947 89.9695 55.4379C88.9818 54.9812 87.8692 54.7542 86.6263 54.7542C85.1114 54.7542 83.7742 55.0891 82.6172 55.759C81.4603 56.429 80.5614 57.3702 79.926 58.5827C79.2907 59.7952 78.9716 61.2126 78.9716 62.8403C78.9716 64.4681 79.2824 65.9021 79.9038 67.1063C80.5253 68.3105 81.3965 69.2434 82.5201 69.9078C83.641 70.5694 84.9672 70.9016 86.4959 70.9016C87.7388 70.9016 88.8653 70.6719 89.8724 70.2179C90.8795 69.7611 91.7146 69.1188 92.3805 68.2911C93.0436 67.4634 93.4764 66.5083 93.6761 65.4259H90.824C90.566 66.2952 90.0555 66.9873 89.2925 67.4994V67.5049Z" fill="#E93334"/>
<path d="M103.29 60.4901C102.438 60.0195 101.464 59.7841 100.363 59.7841C99.2611 59.7841 98.3039 60.0195 97.4466 60.4901C96.5893 60.9607 95.9179 61.614 95.4324 62.4472C94.9468 63.2805 94.7027 64.2466 94.7027 65.3457C94.7027 66.4447 94.9468 67.4108 95.4324 68.2441C95.9179 69.0773 96.5893 69.7306 97.4466 70.2012C98.3039 70.6719 99.275 70.9072 100.363 70.9072C101.45 70.9072 102.438 70.6719 103.29 70.2012C104.139 69.7306 104.807 69.0773 105.293 68.2441C105.778 67.4108 106.022 66.4447 106.022 65.3457C106.022 64.2466 105.778 63.2833 105.293 62.4472C104.807 61.614 104.139 60.9607 103.29 60.4901ZM103.02 67.0343C102.762 67.5188 102.407 67.898 101.95 68.1665C101.492 68.4378 100.962 68.5735 100.363 68.5735C99.7633 68.5735 99.2361 68.4378 98.7867 68.1665C98.3372 67.8953 97.9793 67.5188 97.7157 67.0343C97.4522 66.5499 97.319 65.9851 97.319 65.3429C97.319 64.7006 97.4522 64.1193 97.7157 63.6432C97.9793 63.167 98.3372 62.7905 98.7867 62.5192C99.2361 62.2479 99.7605 62.1123 100.363 62.1123C100.965 62.1123 101.492 62.2479 101.95 62.5192C102.407 62.7905 102.765 63.1642 103.02 63.6432C103.278 64.1193 103.406 64.6868 103.406 65.3429C103.406 65.999 103.278 66.5471 103.02 67.0343Z" fill="#E93334"/>
<path d="M112.925 64.6176L111.016 64.1691C110.101 63.956 109.643 63.5573 109.643 62.9704C109.643 62.5857 109.785 62.2784 110.073 62.0514C110.359 61.8244 110.758 61.7081 111.274 61.7081C111.79 61.7081 112.19 61.841 112.476 62.104C112.761 62.367 112.903 62.7296 112.903 63.1836H115.389C115.375 62.4998 115.2 61.8991 114.865 61.387C114.529 60.8748 114.06 60.4734 113.461 60.1883C112.861 59.9032 112.168 59.762 111.383 59.762C110.597 59.762 109.846 59.8949 109.219 60.1579C108.589 60.4236 108.092 60.8029 107.729 61.3012C107.365 61.7995 107.182 62.3919 107.182 63.0756C107.182 63.9172 107.415 64.5761 107.878 65.055C108.342 65.5339 109.055 65.8799 110.012 66.0931L111.921 66.5415C112.392 66.6412 112.714 66.7907 112.886 66.99C113.058 67.1893 113.144 67.4163 113.144 67.6738C113.144 68.0586 112.983 68.3659 112.662 68.5929C112.34 68.8199 111.865 68.9334 111.236 68.9334C110.65 68.9334 110.192 68.7977 109.865 68.5264C109.535 68.2551 109.366 67.8925 109.352 67.4357H106.866C106.866 68.4766 107.254 69.3182 108.034 69.9604C108.813 70.6026 109.859 70.9238 111.175 70.9238C112.046 70.9238 112.817 70.7853 113.491 70.5058C114.163 70.2289 114.684 69.8275 115.056 69.3071C115.428 68.7866 115.614 68.1693 115.614 67.4551C115.614 66.6412 115.389 66.0156 114.939 65.5726C114.49 65.1325 113.821 64.8114 112.936 64.6093L112.925 64.6176Z" fill="#E93334"/>
<path d="M120.771 56.7888H118.155V60.0831H116.119V62.2645H118.155V70.6497H120.771V62.2645H122.808V60.0831H120.771V56.7888Z" fill="#E93334"/>
<path d="M130.995 60.2631C130.31 59.9281 129.486 59.762 128.529 59.762C127.571 59.762 126.753 59.9198 126.032 60.2326C125.31 60.5454 124.753 60.9856 124.359 61.5475C123.965 62.1123 123.77 62.7767 123.77 63.5463H125.998C125.998 62.9898 126.206 62.558 126.62 62.2535C127.033 61.9462 127.627 61.7939 128.398 61.7939C128.842 61.7939 129.228 61.8631 129.555 61.9988C129.883 62.1344 130.138 62.3476 130.315 62.641C130.493 62.9345 130.584 63.322 130.584 63.8065V64.0418L127.411 64.2992C126.154 64.3989 125.185 64.7366 124.506 65.3152C123.826 65.891 123.487 66.6661 123.487 67.635C123.487 68.6039 123.812 69.415 124.464 70.0185C125.113 70.6248 125.996 70.9265 127.111 70.9265C127.94 70.9265 128.678 70.7549 129.33 70.4144C129.98 70.0739 130.421 69.631 130.648 69.0884L130.843 70.6497H133.137V64.2328C133.137 63.2473 132.951 62.4251 132.579 61.7635C132.208 61.0991 131.678 60.6008 130.992 60.2658L130.995 60.2631ZM130.609 66.3699C130.609 67.1838 130.371 67.8177 129.891 68.2745C129.411 68.7313 128.764 68.9583 127.952 68.9583C127.38 68.9583 126.936 68.8365 126.623 68.5956C126.309 68.3548 126.151 67.9977 126.151 67.5271C126.151 67.098 126.323 66.7547 126.664 66.489C127.008 66.226 127.585 66.0571 128.401 65.9851L130.609 65.8135V66.3699Z" fill="#E93334"/>
<path d="M151.928 62.5524C152.405 61.8188 152.647 60.9302 152.647 59.8893C152.647 58.3502 152.15 57.1515 151.157 56.2961C150.164 55.4407 148.782 55.0116 147.009 55.0116H141.027V70.6469H143.771V64.8086H147.137L149.795 70.6469H152.797L149.817 64.23C150.746 63.8452 151.451 63.286 151.928 62.5497V62.5524ZM149.046 61.7303C148.56 62.1732 147.88 62.3919 147.009 62.3919H143.771V57.4505H147.009C147.88 57.4505 148.56 57.6609 149.046 58.0816C149.531 58.5024 149.775 59.1059 149.775 59.8893C149.775 60.6728 149.531 61.2873 149.046 61.7275V61.7303Z" fill="#E93334"/>
<path d="M155.862 54.8206C155.418 54.8206 155.044 54.9701 154.736 55.269C154.428 55.568 154.275 55.939 154.275 56.3819C154.275 56.8248 154.428 57.1986 154.736 57.5058C155.044 57.8131 155.418 57.9654 155.862 57.9654C156.306 57.9654 156.681 57.8103 156.989 57.5058C157.297 57.1986 157.449 56.8248 157.449 56.3819C157.449 55.939 157.297 55.568 156.989 55.269C156.681 54.9701 156.306 54.8206 155.862 54.8206Z" fill="#E93334"/>
<path d="M157.194 60.0831H154.578V70.6497H157.194V60.0831Z" fill="#E93334"/>
<path d="M165.798 68.125C165.362 68.4378 164.815 68.5956 164.158 68.5956C163.6 68.5956 163.118 68.4627 162.712 68.1998C162.307 67.9368 161.994 67.563 161.78 67.0758C161.567 66.5914 161.458 66.0128 161.458 65.3429C161.458 64.6729 161.572 64.0944 161.802 63.6099C162.03 63.1255 162.357 62.7517 162.779 62.486C163.201 62.223 163.684 62.0901 164.225 62.0901C164.854 62.0901 165.379 62.2451 165.8 62.5497C166.222 62.8569 166.511 63.3082 166.669 63.9089H169.285C169.144 62.641 168.611 61.6306 167.687 60.8831C166.766 60.1357 165.584 59.7592 164.139 59.7592C163.095 59.7592 162.177 59.9973 161.384 60.4762C160.59 60.9551 159.969 61.614 159.519 62.4555C159.07 63.2971 158.845 64.2605 158.845 65.3429C158.845 66.4253 159.064 67.4495 159.5 68.2828C159.935 69.1161 160.554 69.7666 161.353 70.2289C162.152 70.6912 163.09 70.9238 164.161 70.9238C165.09 70.9238 165.92 70.7494 166.647 70.4005C167.376 70.0517 167.973 69.5673 168.436 68.9472C168.899 68.3271 169.191 67.6046 169.305 66.7768H166.669C166.525 67.361 166.236 67.8122 165.8 68.125H165.798Z" fill="#E93334"/>
<path d="M179.442 61.7607C179.071 61.0963 178.541 60.598 177.855 60.2631C177.17 59.9281 176.346 59.762 175.389 59.762C174.432 59.762 173.613 59.9198 172.892 60.2326C172.171 60.5454 171.613 60.9856 171.219 61.5475C170.825 62.1123 170.631 62.7767 170.631 63.5463H172.859C172.859 62.9898 173.067 62.558 173.48 62.2535C173.893 61.9462 174.487 61.7939 175.258 61.7939C175.702 61.7939 176.088 61.8631 176.415 61.9988C176.743 62.1344 176.998 62.3476 177.176 62.641C177.353 62.9345 177.445 63.322 177.445 63.8065V64.0418L174.271 64.2992C173.014 64.3989 172.046 64.7366 171.366 65.3152C170.686 65.891 170.348 66.6661 170.348 67.635C170.348 68.6039 170.672 69.415 171.324 70.0185C171.974 70.6248 172.856 70.9265 173.971 70.9265C174.801 70.9265 175.539 70.7549 176.191 70.4144C176.84 70.0739 177.281 69.631 177.509 69.0884L177.703 70.6497H179.997V64.2328C179.997 63.2473 179.811 62.4251 179.44 61.7635L179.442 61.7607ZM177.47 66.3699C177.47 67.1838 177.231 67.8177 176.751 68.2745C176.271 68.7313 175.625 68.9583 174.812 68.9583C174.24 68.9583 173.796 68.8365 173.483 68.5956C173.169 68.3548 173.011 67.9977 173.011 67.5271C173.011 67.098 173.183 66.7547 173.524 66.489C173.868 66.226 174.446 66.0571 175.261 65.9851L177.47 65.8135V66.3699Z" fill="#E93334"/>
</g>
<defs>
<clipPath id="clip0_2246_4230">
<rect width="180" height="103" fill="white"/>
</clipPath>
</defs>
</svg>
