<svg width="344" height="272" viewBox="0 0 344 272" fill="none" xmlns="http://www.w3.org/2000/svg">
<mask id="mask0_3056_257" style="mask-type:alpha" maskUnits="userSpaceOnUse" x="0" y="0" width="344" height="134">
<rect width="344" height="133.542" fill="#D9D9D9"/>
</mask>
<g mask="url(#mask0_3056_257)">
<path d="M470.051 76.5729H478.598L516.807 30.4802L555.032 76.5729H563.579L516.807 20.1622L470.051 76.5729Z" fill="#AA2222"/>
<path d="M596.196 70.0438L575.707 45.3483L596.196 20.6358V70.0438Z" fill="#E93334"/>
<path d="M596.196 70.0438L616.685 45.3483L596.196 20.6358V70.0438Z" fill="#AA2222"/>
<path d="M506.722 20.1622L466.048 132.967H486.385L495.625 106.884H537.684L546.772 132.967H567.582L526.908 20.1622H506.722ZM501.334 90.2231L514.273 53.8056C514.78 52.2664 515.269 50.6933 515.742 49.1034C516.198 47.5134 516.536 46.194 516.739 45.1622C516.84 46.2955 517.144 47.6318 517.668 49.171C518.175 50.7103 518.648 52.2495 519.053 53.8056L531.992 90.2231H501.334Z" fill="#0F2841"/>
<path d="M622.242 20.6358L600.199 61.6879C599.574 62.9227 599.05 63.9714 598.577 64.851C598.121 65.7305 597.733 66.5763 597.429 67.4051C597.125 68.2339 596.702 69.0966 596.196 70.0269C595.588 68.6906 594.963 67.3543 594.355 66.0181C593.73 64.6818 593.02 63.2441 592.192 61.7048L569.997 20.6528H547.954L586.01 89.0052V133.44H605.739V89.0052L643.643 20.6528H622.225L622.242 20.6358Z" fill="#0F2841"/>
<path d="M516.807 122.649L478.598 76.5729H470.051L516.807 132.967L563.579 76.5729H555.032L516.807 122.649Z" fill="#E93334"/>
<path d="M365.579 28.3321V37.1446L398.246 76.5221L365.579 115.917V124.729L405.543 76.5221L365.579 28.3321Z" fill="#0F2841"/>
<path d="M365.579 46.3632V106.698L385.308 82.9159L390.595 76.5221L365.579 46.3632Z" fill="#E93334"/>
<path d="M454.106 47.2427C449.326 38.7515 442.721 32.121 434.309 27.3341C425.881 22.5472 416.134 20.1622 405.037 20.1622H365.595L397.317 58.0005L402.554 42.4728C402.739 41.9146 402.385 41.2887 401.912 41.3564L389.277 42.1852C388.872 42.236 388.534 41.7793 388.601 41.2549L389.176 38.3625H403.179C410.982 38.3625 417.671 39.9017 423.212 42.9971C428.752 46.0756 433.026 50.4734 435.998 56.1906C438.971 61.9078 440.475 68.7752 440.475 76.7928C440.475 84.8104 439.039 91.3564 436.167 97.0059C433.296 102.672 429.124 107.036 423.685 110.115C418.246 113.193 411.759 114.749 404.277 114.749H389.193L388.601 111.823C388.534 111.299 388.872 110.842 389.277 110.893L401.912 111.722C402.385 111.789 402.739 111.18 402.554 110.605L397.317 95.0776L365.595 132.899L365.815 132.95H406.118C417.013 132.95 426.59 130.582 434.85 125.846C443.11 121.109 449.596 114.496 454.258 106.021C458.937 97.5302 461.268 87.7874 461.268 76.7759C461.268 65.7644 458.886 55.717 454.106 47.2258V47.2427Z" fill="#0F2841"/>
<path d="M33.5124 51.1332C32.8029 53.7889 31.3672 55.8186 29.2895 57.1887C27.1781 58.5757 24.4417 59.2862 21.1479 59.2862C16.5704 59.2862 13.0063 57.7977 10.5402 54.8545C8.34431 52.2496 7.11124 48.6299 6.84098 44.1136H40.2182V40.663C40.2182 36.6035 39.3905 33.0007 37.769 29.956C36.1305 26.8944 33.8333 24.4756 30.8942 22.7672C27.972 21.0419 24.5093 20.1793 20.6243 20.1793C16.7393 20.1793 12.9387 21.1603 9.86453 23.0886C6.79031 25.0169 4.35796 27.7063 2.61815 31.1062C0.878348 34.4891 0 38.4472 0 42.845C0 47.2429 0.89524 51.2855 2.66883 54.6346C4.44242 58.0006 6.94233 60.6732 10.101 62.5676C13.2597 64.4621 16.9589 65.4262 21.0804 65.4262C26.1478 65.4262 30.3537 64.2083 33.6137 61.8065C36.8737 59.4046 39.1034 55.9032 40.2182 51.4039L40.3702 50.795H33.6306L33.5293 51.1671L33.5124 51.1332ZM20.6243 26.2855C24.4079 26.2855 27.4822 27.4864 29.7794 29.8376C31.9753 32.0873 33.1408 35.0981 33.2421 38.7686H7.02679C7.29705 36.891 7.77 35.1996 8.47944 33.6942C9.59427 31.3261 11.1989 29.4824 13.2766 28.2138C15.3542 26.9283 17.8203 26.2855 20.6074 26.2855H20.6243Z" fill="#0F2841"/>
<path d="M57.2278 8.00067H50.3361V21.2957H41.9242V27.3342H50.3361V64.3606H57.2278V27.3342H65.6565V21.2957H57.2278V8.00067Z" fill="#0F2841"/>
<path d="M92.0746 20.1624C88.4767 20.1624 85.3349 20.9574 82.7505 22.5304C80.7067 23.7821 79.0176 25.3721 77.7338 27.2835V0H70.7577V64.276H77.7338V40.9168C77.7338 38.2781 78.2406 35.8423 79.2541 33.6942C80.2506 31.5629 81.7371 29.8207 83.6796 28.5521C85.6052 27.2835 88.0544 26.6238 90.9597 26.6238C93.0711 26.6238 94.9461 27.0298 96.5508 27.8247C98.1216 28.6028 99.3547 29.9391 100.233 31.7659C101.128 33.6265 101.567 36.2145 101.567 39.4113V64.3437H108.544V38.1089C108.544 32.7469 107.226 28.366 104.608 25.1015C101.973 21.8031 97.75 20.1285 92.0746 20.1285V20.1624Z" fill="#0F2841"/>
<path d="M148.373 51.1332C147.664 53.7889 146.228 55.8186 144.15 57.1887C142.039 58.5757 139.303 59.2862 136.009 59.2862C131.431 59.2862 127.867 57.7977 125.401 54.8545C123.205 52.2496 121.972 48.6299 121.702 44.1136H155.079V40.663C155.079 36.6035 154.251 33.0007 152.63 29.956C150.991 26.8944 148.694 24.4756 145.755 22.7672C142.833 21.0419 139.37 20.1793 135.485 20.1793C131.6 20.1793 127.8 21.1603 124.725 23.0886C121.651 25.0169 119.219 27.7063 117.479 31.1062C115.739 34.4891 114.861 38.4472 114.861 42.845C114.861 47.2429 115.756 51.2855 117.53 54.6346C119.303 58.0006 121.803 60.6732 124.962 62.5676C128.121 64.4621 131.82 65.4262 135.941 65.4262C141.009 65.4262 145.215 64.2083 148.475 61.8065C151.735 59.4046 153.964 55.9032 155.079 51.4039L155.231 50.795H148.492L148.39 51.1671L148.373 51.1332ZM135.485 26.2855C139.269 26.2855 142.343 27.4864 144.64 29.8376C146.836 32.0873 148.002 35.0981 148.103 38.7686H121.905C122.175 36.891 122.648 35.1996 123.357 33.6942C124.472 31.3261 126.077 29.4824 128.154 28.2138C130.232 26.9283 132.698 26.2855 135.485 26.2855Z" fill="#0F2841"/>
<path d="M182.409 20.433C178.186 20.044 174.69 20.9066 171.903 23.004C170.619 23.9851 169.589 25.1184 168.829 26.4208L168.508 21.2957H161.903V64.3606H168.879V39.868C168.879 35.9607 169.994 32.8315 172.173 30.5649C174.352 28.2984 177.342 27.1482 181.058 27.1482H184.859V20.8728L184.487 20.7713C183.777 20.6021 183.085 20.4668 182.409 20.4161V20.433Z" fill="#0F2841"/>
<path d="M219.047 51.1332C218.337 53.7889 216.901 55.8186 214.824 57.1887C212.712 58.5757 209.976 59.2862 206.682 59.2862C202.105 59.2862 198.54 57.7977 196.074 54.8545C193.878 52.2496 192.645 48.6299 192.375 44.1136H225.752V40.663C225.752 36.6035 224.925 33.0007 223.303 29.956C221.665 26.8944 219.367 24.4756 216.428 22.7672C213.506 21.0419 210.043 20.1793 206.158 20.1793C202.273 20.1793 198.473 21.1603 195.399 23.0886C192.324 25.0169 189.892 27.7063 188.152 31.1062C186.413 34.4891 185.534 38.4472 185.534 42.845C185.534 47.2429 186.429 51.2855 188.203 54.6346C189.977 58.0006 192.477 60.6732 195.635 62.5676C198.794 64.4621 202.493 65.4262 206.615 65.4262C211.682 65.4262 215.888 64.2083 219.148 61.8065C222.408 59.4046 224.638 55.9032 225.752 51.4039L225.904 50.795H219.165L219.063 51.1671L219.047 51.1332ZM206.158 26.2855C209.942 26.2855 213.016 27.4864 215.314 29.8376C217.509 32.0873 218.675 35.0981 218.776 38.7686H192.578C192.848 36.891 193.321 35.1996 194.031 33.6942C195.145 31.3261 196.75 29.4824 198.828 28.2138C200.905 26.9283 203.371 26.2855 206.158 26.2855Z" fill="#0F2841"/>
<path d="M262.086 44.1306C262.086 48.9682 260.988 52.7063 258.826 55.2435C256.68 57.7469 253.623 59.0324 249.738 59.0324C246.596 59.0324 243.995 58.0514 242.053 56.14C240.11 54.2117 239.113 50.795 239.113 45.9743V21.228H232.053V47.8856C232.053 53.0784 233.421 57.341 236.124 60.5548C238.843 63.7855 242.779 65.4262 247.829 65.4262C251.191 65.4262 254.299 64.6481 257.052 63.1089C259.299 61.8572 261.038 60.2672 262.255 58.3558L262.913 64.3775H269.062V21.2957H262.086V44.1306Z" fill="#0F2841"/>
<path d="M336.543 24.4925C333.688 21.6339 329.887 20.1793 325.259 20.1793C321.29 20.1793 317.928 21.2618 315.276 23.3762C313.604 24.7124 312.32 26.3701 311.459 28.3322C310.564 26.387 309.297 24.7293 307.658 23.3931C305.057 21.2618 301.78 20.1962 297.929 20.1962C294.601 20.1962 291.662 21.025 289.196 22.6657C287.693 23.6637 286.477 24.8647 285.548 26.2686L285.007 21.3126H278.859V64.3775H285.835V37.8044C285.835 35.7408 286.274 33.8464 287.135 32.1549C287.98 30.4804 289.247 29.1272 290.852 28.1292C292.456 27.1312 294.416 26.6407 296.628 26.6407C299.652 26.6407 302.084 27.5879 303.858 29.4486C305.631 31.3261 306.544 34.0155 306.544 37.4492V64.3775H313.435V37.889C313.435 35.8254 313.874 33.9141 314.736 32.2057C315.58 30.4973 316.83 29.1103 318.418 28.0954C320.006 27.0805 321.932 26.5731 324.144 26.5731C327.219 26.5731 329.668 27.5372 331.424 29.4486C333.181 31.3768 334.076 34.1001 334.076 37.5507V64.3944H340.884V36.3329C340.884 31.3599 339.431 27.368 336.576 24.5095L336.543 24.4925Z" fill="#0F2841"/>
<path d="M34.813 121.955C32.2286 123.697 29.1375 124.56 25.5228 124.56C22.3472 124.56 19.5601 123.799 17.1616 122.277C14.7799 120.754 12.9387 118.606 11.6212 115.832C10.3206 113.058 9.66183 109.827 9.66183 106.157C9.66183 102.486 10.3206 99.0527 11.6212 96.3125C12.9219 93.5554 14.763 91.4411 17.1616 89.9357C19.5432 88.4472 22.3303 87.686 25.5228 87.686C29.0868 87.686 32.1104 88.5487 34.5934 90.257C37.0764 91.9654 38.7825 94.3673 39.6946 97.4627H49.4578C48.8835 93.6569 47.4984 90.3585 45.3363 87.5845C43.1742 84.8105 40.4209 82.6454 37.0933 81.1062C33.7657 79.5669 29.999 78.7888 25.8099 78.7888C20.6919 78.7888 16.1988 79.9221 12.28 82.1887C8.37809 84.4553 5.35455 87.6522 3.20935 91.7455C1.06415 95.8558 0 100.66 0 106.157C0 111.654 1.04726 116.526 3.14178 120.602C5.23631 124.679 8.1754 127.842 11.9591 130.091C15.7427 132.341 20.2189 133.457 25.3708 133.457C29.5598 133.457 33.3603 132.679 36.7555 131.14C40.1507 129.601 42.9715 127.419 45.218 124.628C47.4646 121.82 48.9172 118.589 49.5929 114.919H39.9648C39.1034 117.862 37.3805 120.213 34.7961 121.938L34.813 121.955Z" fill="#E93334"/>
<path d="M82.0411 98.207C79.1696 96.617 75.8758 95.822 72.1597 95.822C68.4436 95.822 65.2174 96.617 62.329 98.207C59.4405 99.797 57.1602 102.013 55.5218 104.838C53.8833 107.662 53.0556 110.927 53.0556 114.648C53.0556 118.369 53.8833 121.634 55.5218 124.459C57.1602 127.283 59.4236 129.499 62.329 131.089C65.2174 132.679 68.4943 133.474 72.1597 133.474C75.8251 133.474 79.1696 132.679 82.0411 131.089C84.9126 129.499 87.1592 127.283 88.7976 124.459C90.4361 121.634 91.2638 118.369 91.2638 114.648C91.2638 110.927 90.4361 107.662 88.7976 104.838C87.1592 102.013 84.8957 99.797 82.0411 98.207ZM81.129 120.365C80.2675 122.006 79.0513 123.292 77.5142 124.205C75.9771 125.118 74.1867 125.575 72.1597 125.575C70.1327 125.575 68.3591 125.118 66.8389 124.205C65.3187 123.292 64.1194 122.006 63.2242 120.365C62.3289 118.725 61.8898 116.813 61.8898 114.648C61.8898 112.483 62.3289 110.504 63.2242 108.897C64.1194 107.273 65.3187 106.005 66.8389 105.091C68.3591 104.178 70.1327 103.721 72.1597 103.721C74.1867 103.721 75.9771 104.178 77.5142 105.091C79.0513 106.005 80.2675 107.273 81.129 108.897C81.9904 110.521 82.4296 112.432 82.4296 114.648C82.4296 116.864 81.9904 118.725 81.129 120.365Z" fill="#E93334"/>
<path d="M114.557 112.179L108.121 110.656C105.03 109.929 103.493 108.576 103.493 106.597C103.493 105.294 103.983 104.262 104.946 103.484C105.909 102.706 107.26 102.317 109 102.317C110.739 102.317 112.091 102.757 113.054 103.654C114.016 104.55 114.506 105.768 114.506 107.307H122.901C122.851 104.99 122.259 102.96 121.128 101.218C119.996 99.4756 118.408 98.1224 116.398 97.1583C114.371 96.1941 112.04 95.7036 109.388 95.7036C106.736 95.7036 104.203 96.1434 102.091 97.0398C99.9628 97.9363 98.2906 99.2219 97.0575 100.913C95.8244 102.605 95.2163 104.601 95.2163 106.918C95.2163 109.76 95.9933 111.992 97.5642 113.616C99.1351 115.24 101.534 116.407 104.76 117.135L111.196 118.657C112.783 118.995 113.864 119.503 114.456 120.179C115.03 120.856 115.317 121.634 115.317 122.497C115.317 123.799 114.776 124.848 113.695 125.609C112.614 126.387 111.01 126.776 108.881 126.776C106.905 126.776 105.368 126.319 104.253 125.406C103.138 124.492 102.564 123.258 102.513 121.718H94.1184C94.1184 125.237 95.4359 128.095 98.0541 130.26C100.689 132.425 104.219 133.525 108.645 133.525C111.584 133.525 114.185 133.051 116.449 132.104C118.712 131.157 120.469 129.804 121.736 128.045C122.986 126.285 123.611 124.188 123.611 121.786C123.611 119.029 122.851 116.915 121.33 115.409C119.81 113.921 117.564 112.821 114.574 112.145L114.557 112.179Z" fill="#E93334"/>
<path d="M141.026 85.6731H132.191V96.8369H125.334V104.212H132.191V132.612H141.026V104.212H147.9V96.8369H141.026V85.6731Z" fill="#E93334"/>
<path d="M175.518 97.4458C173.204 96.3125 170.433 95.7374 167.207 95.7374C163.981 95.7374 161.211 96.2618 158.778 97.3274C156.346 98.393 154.454 99.8815 153.137 101.776C151.802 103.687 151.143 105.937 151.143 108.542H158.66C158.66 106.664 159.353 105.193 160.755 104.161C162.157 103.129 164.15 102.605 166.751 102.605C168.237 102.605 169.555 102.842 170.653 103.298C171.751 103.755 172.612 104.482 173.22 105.463C173.829 106.444 174.133 107.764 174.133 109.405V110.2L163.423 111.062C159.184 111.4 155.907 112.551 153.626 114.496C151.329 116.458 150.198 119.063 150.198 122.361C150.198 125.66 151.295 128.383 153.491 130.43C155.687 132.476 158.66 133.508 162.427 133.508C165.231 133.508 167.714 132.933 169.91 131.766C172.106 130.599 173.592 129.11 174.352 127.283L175.011 132.578H182.747V110.842C182.747 107.51 182.122 104.719 180.872 102.469C179.622 100.22 177.832 98.5283 175.518 97.3951V97.4458ZM174.217 118.133C174.217 120.89 173.406 123.038 171.802 124.577C170.18 126.116 168.001 126.894 165.248 126.894C163.322 126.894 161.819 126.488 160.755 125.66C159.69 124.848 159.167 123.63 159.167 122.04C159.167 120.585 159.741 119.418 160.907 118.522C162.072 117.625 164.015 117.067 166.768 116.813L174.217 116.238V118.133Z" fill="#E93334"/>
<path d="M246.157 105.193C247.779 102.706 248.573 99.6955 248.573 96.1772C248.573 90.9675 246.9 86.9079 243.539 84.0155C240.194 81.1231 235.516 79.6684 229.536 79.6684H209.351V132.612H218.607V112.838H229.958L238.928 132.612H249.046L238.995 110.876C242.137 109.574 244.502 107.679 246.123 105.193H246.157ZM236.428 102.402C234.789 103.907 232.492 104.651 229.553 104.651H218.624V87.9228H229.553C232.492 87.9228 234.789 88.6332 236.428 90.0541C238.066 91.4749 238.894 93.5216 238.894 96.1772C238.894 98.8328 238.066 100.913 236.428 102.402Z" fill="#E93334"/>
<path d="M259.417 79.0087C257.913 79.0087 256.664 79.5162 255.616 80.5311C254.586 81.546 254.062 82.7976 254.062 84.303C254.062 85.8085 254.586 87.0602 255.616 88.1089C256.647 89.1407 257.913 89.665 259.417 89.665C260.92 89.665 262.17 89.1407 263.217 88.1089C264.248 87.0771 264.771 85.8085 264.771 84.303C264.771 82.7976 264.248 81.546 263.217 80.5311C262.187 79.5162 260.92 79.0087 259.417 79.0087Z" fill="#E93334"/>
<path d="M263.893 96.8369H255.076V132.612H263.893V96.8369Z" fill="#E93334"/>
<path d="M292.946 124.07C291.477 125.135 289.635 125.66 287.406 125.66C285.531 125.66 283.892 125.22 282.524 124.323C281.156 123.427 280.109 122.158 279.382 120.518C278.656 118.877 278.301 116.915 278.301 114.648C278.301 112.382 278.69 110.419 279.467 108.779C280.244 107.138 281.342 105.869 282.761 104.973C284.179 104.076 285.818 103.637 287.642 103.637C289.771 103.637 291.527 104.161 292.963 105.193C294.382 106.225 295.362 107.764 295.885 109.794H304.702C304.213 105.497 302.422 102.08 299.314 99.5432C296.206 97.006 292.22 95.7374 287.338 95.7374C283.825 95.7374 280.717 96.5493 278.048 98.1562C275.379 99.78 273.268 102.013 271.747 104.854C270.227 107.696 269.467 110.961 269.467 114.631C269.467 118.302 270.21 121.769 271.68 124.594C273.149 127.419 275.244 129.618 277.93 131.191C280.632 132.764 283.791 133.542 287.406 133.542C290.548 133.542 293.335 132.95 295.801 131.766C298.267 130.582 300.277 128.941 301.848 126.844C303.419 124.746 304.398 122.294 304.77 119.486H295.868C295.378 121.465 294.416 122.987 292.946 124.053V124.07Z" fill="#E93334"/>
<path d="M338.975 102.52C337.725 100.271 335.934 98.5791 333.62 97.4458C331.306 96.3125 328.536 95.7374 325.31 95.7374C322.084 95.7374 319.313 96.2618 316.881 97.3274C314.449 98.393 312.557 99.8815 311.239 101.776C309.905 103.687 309.246 105.937 309.246 108.542H316.763C316.763 106.664 317.455 105.193 318.857 104.161C320.259 103.129 322.253 102.605 324.854 102.605C326.34 102.605 327.658 102.842 328.756 103.298C329.854 103.755 330.715 104.482 331.323 105.463C331.931 106.461 332.235 107.764 332.235 109.405V110.2L321.526 111.062C317.286 111.4 314.01 112.551 311.729 114.496C309.432 116.458 308.3 119.063 308.3 122.361C308.3 125.66 309.398 128.383 311.594 130.43C313.79 132.476 316.763 133.508 320.53 133.508C323.334 133.508 325.817 132.933 328.012 131.766C330.208 130.599 331.695 129.11 332.455 127.283L333.114 132.578H340.85V110.842C340.85 107.51 340.225 104.719 338.975 102.469V102.52ZM332.32 118.133C332.32 120.89 331.509 123.038 329.904 124.577C328.283 126.116 326.104 126.894 323.35 126.894C321.425 126.894 319.922 126.488 318.857 125.66C317.793 124.848 317.27 123.63 317.27 122.04C317.27 120.585 317.844 119.418 319.009 118.522C320.175 117.625 322.117 117.067 324.871 116.813L332.32 116.238V118.133Z" fill="#E93334"/>
</g>
<mask id="mask1_3056_257" style="mask-type:alpha" maskUnits="userSpaceOnUse" x="35" y="158" width="274" height="114">
<rect x="35.3572" y="158.542" width="273.286" height="112.529" fill="#D9D9D9"/>
</mask>
<g mask="url(#mask1_3056_257)">
<path d="M139.677 215.62H147.996L185.186 170.756L222.393 215.62H230.712L185.186 160.713L139.677 215.62Z" fill="#AA2222"/>
<path d="M262.46 209.265L242.517 185.228L262.46 161.174V209.265Z" fill="#E93334"/>
<path d="M262.46 209.265L282.403 185.228L262.46 161.174V209.265Z" fill="#AA2222"/>
<path d="M175.371 160.713L135.781 270.511H155.576L164.569 245.124H205.508L214.353 270.511H234.608L195.018 160.713H175.371ZM170.126 228.907L182.72 193.46C183.213 191.962 183.69 190.43 184.15 188.883C184.594 187.335 184.923 186.051 185.12 185.047C185.219 186.15 185.515 187.451 186.025 188.949C186.518 190.447 186.978 191.945 187.373 193.46L199.967 228.907H170.126Z" fill="#0F2841"/>
<path d="M287.812 161.174L266.356 201.132C265.748 202.334 265.238 203.355 264.778 204.211C264.334 205.067 263.956 205.89 263.66 206.697C263.364 207.504 262.953 208.343 262.46 209.249C261.868 207.948 261.26 206.647 260.668 205.347C260.059 204.046 259.369 202.647 258.563 201.149L236.959 161.191H215.504L252.546 227.721V270.972H271.749V227.721L308.643 161.191H287.796L287.812 161.174Z" fill="#0F2841"/>
<path d="M185.186 260.468L147.996 215.62H139.677L185.186 270.511L230.712 215.62H222.393L185.186 260.468Z" fill="#E93334"/>
<path d="M37.9885 168.665V177.243L69.7857 215.571L37.9885 253.916V262.493L76.8883 215.571L37.9885 168.665Z" fill="#0F2841"/>
<path d="M37.9885 186.216V244.943L57.1918 221.794L62.3379 215.571L37.9885 186.216Z" fill="#E93334"/>
<path d="M124.157 187.072C119.504 178.807 113.075 172.353 104.888 167.694C96.6835 163.034 87.1969 160.713 76.3951 160.713H38.0049L68.8814 197.543L73.9782 182.429C74.1591 181.886 73.8138 181.277 73.3535 181.342L61.0555 182.149C60.6609 182.199 60.3321 181.754 60.3978 181.244L60.9568 178.428H74.5865C82.1823 178.428 88.6931 179.926 94.0858 182.939C99.4785 185.936 103.638 190.216 106.532 195.781C109.425 201.346 110.889 208.03 110.889 215.834C110.889 223.638 109.491 230.01 106.696 235.509C103.901 241.024 99.8402 245.272 94.5461 248.268C89.2521 251.265 82.9387 252.78 75.6552 252.78H60.9732L60.3978 249.931C60.3321 249.421 60.6609 248.976 61.0555 249.026L73.3535 249.832C73.8138 249.898 74.1591 249.306 73.9782 248.746L68.8814 233.632L38.0049 270.445L38.2187 270.495H77.4473C88.0518 270.495 97.374 268.19 105.414 263.58C113.453 258.97 119.767 252.533 124.305 244.284C128.859 236.019 131.128 226.536 131.128 215.818C131.128 205.1 128.81 195.32 124.157 187.055V187.072Z" fill="#0F2841"/>
<path d="M-285.228 190.859C-285.919 193.444 -287.316 195.419 -289.338 196.753C-291.394 198.103 -294.057 198.794 -297.263 198.794C-301.719 198.794 -305.188 197.345 -307.588 194.481C-309.725 191.945 -310.926 188.422 -311.189 184.026H-278.701V180.667C-278.701 176.716 -279.507 173.209 -281.085 170.246C-282.68 167.266 -284.916 164.911 -287.777 163.249C-290.621 161.569 -293.991 160.73 -297.773 160.73C-301.554 160.73 -305.253 161.685 -308.246 163.561C-311.238 165.438 -313.606 168.056 -315.299 171.365C-316.992 174.658 -317.847 178.511 -317.847 182.791C-317.847 187.072 -316.976 191.007 -315.25 194.267C-313.523 197.543 -311.09 200.144 -308.016 201.988C-304.941 203.832 -301.34 204.771 -297.329 204.771C-292.396 204.771 -288.303 203.585 -285.13 201.247C-281.956 198.91 -279.786 195.502 -278.701 191.122L-278.553 190.529H-285.113L-285.212 190.892L-285.228 190.859ZM-297.773 166.673C-294.09 166.673 -291.098 167.842 -288.862 170.131C-286.724 172.32 -285.59 175.251 -285.491 178.824H-311.008C-310.745 176.996 -310.284 175.35 -309.594 173.884C-308.509 171.579 -306.947 169.785 -304.925 168.55C-302.902 167.299 -300.502 166.673 -297.789 166.673H-297.773Z" fill="#0F2841"/>
<path d="M-262.145 148.876H-268.853V161.816H-277.04V167.694H-268.853V203.734H-262.145V167.694H-253.941V161.816H-262.145V148.876Z" fill="#0F2841"/>
<path d="M-228.227 160.713C-231.729 160.713 -234.787 161.487 -237.302 163.018C-239.292 164.236 -240.936 165.784 -242.185 167.645V141.088H-248.975V203.651H-242.185V180.914C-242.185 178.346 -241.692 175.975 -240.705 173.884C-239.735 171.81 -238.289 170.114 -236.398 168.879C-234.524 167.645 -232.14 167.002 -229.312 167.002C-227.257 167.002 -225.432 167.398 -223.87 168.171C-222.341 168.929 -221.141 170.229 -220.286 172.007C-219.414 173.818 -218.987 176.337 -218.987 179.449V203.717H-212.197V178.181C-212.197 172.962 -213.479 168.698 -216.027 165.521C-218.592 162.31 -222.702 160.68 -228.227 160.68V160.713Z" fill="#0F2841"/>
<path d="M-173.428 190.859C-174.119 193.444 -175.516 195.419 -177.539 196.753C-179.594 198.103 -182.257 198.794 -185.463 198.794C-189.919 198.794 -193.388 197.345 -195.788 194.481C-197.926 191.945 -199.126 188.422 -199.389 184.026H-166.901V180.667C-166.901 176.716 -167.707 173.209 -169.285 170.246C-170.88 167.266 -173.116 164.911 -175.977 163.249C-178.821 161.569 -182.191 160.73 -185.973 160.73C-189.754 160.73 -193.454 161.685 -196.446 163.561C-199.438 165.438 -201.806 168.056 -203.499 171.365C-205.193 174.658 -206.048 178.511 -206.048 182.791C-206.048 187.072 -205.176 191.007 -203.45 194.267C-201.724 197.543 -199.29 200.144 -196.216 201.988C-193.141 203.832 -189.541 204.771 -185.529 204.771C-180.597 204.771 -176.503 203.585 -173.33 201.247C-170.156 198.91 -167.986 195.502 -166.901 191.122L-166.753 190.529H-173.313L-173.412 190.892L-173.428 190.859ZM-185.973 166.673C-182.29 166.673 -179.298 167.842 -177.062 170.131C-174.924 172.32 -173.79 175.251 -173.691 178.824H-199.192C-198.928 176.996 -198.468 175.35 -197.778 173.884C-196.692 171.579 -195.131 169.785 -193.108 168.55C-191.086 167.299 -188.686 166.673 -185.973 166.673Z" fill="#0F2841"/>
<path d="M-140.299 160.977C-144.41 160.598 -147.813 161.438 -150.526 163.479C-151.775 164.434 -152.778 165.537 -153.518 166.805L-153.83 161.816H-160.259V203.734H-153.469V179.894C-153.469 176.091 -152.384 173.045 -150.263 170.839C-148.142 168.632 -145.232 167.513 -141.615 167.513H-137.915V161.405L-138.277 161.306C-138.968 161.141 -139.642 161.01 -140.299 160.96V160.977Z" fill="#0F2841"/>
<path d="M-104.638 190.859C-105.329 193.444 -106.726 195.419 -108.749 196.753C-110.804 198.103 -113.467 198.794 -116.673 198.794C-121.129 198.794 -124.598 197.345 -126.998 194.481C-129.136 191.945 -130.336 188.422 -130.599 184.026H-98.1113V180.667C-98.1113 176.716 -98.9169 173.209 -100.495 170.246C-102.09 167.266 -104.326 164.911 -107.187 163.249C-110.031 161.569 -113.402 160.73 -117.183 160.73C-120.965 160.73 -124.664 161.685 -127.656 163.561C-130.648 165.438 -133.016 168.056 -134.709 171.365C-136.403 174.658 -137.258 178.511 -137.258 182.791C-137.258 187.072 -136.386 191.007 -134.66 194.267C-132.934 197.543 -130.5 200.144 -127.426 201.988C-124.351 203.832 -120.751 204.771 -116.739 204.771C-111.807 204.771 -107.713 203.585 -104.54 201.247C-101.367 198.91 -99.1964 195.502 -98.1113 191.122L-97.9633 190.529H-104.523L-104.622 190.892L-104.638 190.859ZM-117.183 166.673C-113.5 166.673 -110.508 167.842 -108.272 170.131C-106.135 172.32 -105 175.251 -104.902 178.824H-130.402C-130.139 176.996 -129.678 175.35 -128.988 173.884C-127.903 171.579 -126.341 169.785 -124.318 168.55C-122.296 167.299 -119.896 166.673 -117.183 166.673Z" fill="#0F2841"/>
<path d="M-62.7464 184.043C-62.7464 188.751 -63.815 192.39 -65.9195 194.859C-68.0075 197.296 -70.9834 198.547 -74.7648 198.547C-77.8229 198.547 -80.3548 197.592 -82.2456 195.732C-84.1363 193.855 -85.1063 190.529 -85.1063 185.837V161.75H-91.9787V187.698C-91.9787 192.752 -90.647 196.901 -88.0164 200.029C-85.3694 203.174 -81.5386 204.771 -76.6227 204.771C-73.3509 204.771 -70.3257 204.013 -67.6458 202.515C-65.4592 201.297 -63.7657 199.749 -62.5819 197.889L-61.9407 203.75H-55.9561V161.816H-62.7464V184.043Z" fill="#0F2841"/>
<path d="M9.72629 164.928C6.94772 162.146 3.2485 160.73 -1.25638 160.73C-5.12006 160.73 -8.39188 161.783 -10.9731 163.841C-12.6008 165.142 -13.8503 166.755 -14.6888 168.665C-15.5602 166.772 -16.7933 165.158 -18.3881 163.858C-20.92 161.783 -24.1096 160.746 -27.8582 160.746C-31.0971 160.746 -33.9579 161.553 -36.3583 163.15C-37.8215 164.121 -39.0053 165.29 -39.9096 166.657L-40.4357 161.833H-46.4203V203.75H-39.6301V177.885C-39.6301 175.876 -39.2026 174.033 -38.3641 172.386C-37.5421 170.756 -36.309 169.439 -34.7471 168.468C-33.1852 167.496 -31.278 167.019 -29.1242 167.019C-26.1812 167.019 -23.8137 167.941 -22.0874 169.752C-20.3611 171.579 -19.4732 174.197 -19.4732 177.539V203.75H-12.7652V177.967C-12.7652 175.959 -12.3377 174.098 -11.4992 172.436C-10.6772 170.773 -9.46057 169.423 -7.9151 168.435C-6.36963 167.447 -4.4953 166.953 -2.34152 166.953C0.650787 166.953 3.03473 167.891 4.7446 169.752C6.4545 171.629 7.32587 174.279 7.32587 177.638V203.766H13.9517V176.453C13.9517 171.612 12.5377 167.727 9.75916 164.944L9.72629 164.928Z" fill="#0F2841"/>
<path d="M-283.962 259.793C-286.478 261.489 -289.486 262.329 -293.005 262.329C-296.096 262.329 -298.809 261.588 -301.143 260.106C-303.461 258.624 -305.253 256.533 -306.536 253.833C-307.802 251.133 -308.443 247.989 -308.443 244.416C-308.443 240.843 -307.802 237.501 -306.536 234.834C-305.27 232.15 -303.478 230.092 -301.143 228.627C-298.825 227.178 -296.112 226.437 -293.005 226.437C-289.536 226.437 -286.593 227.277 -284.176 228.94C-281.759 230.603 -280.099 232.941 -279.211 235.953H-269.708C-270.267 232.249 -271.615 229.039 -273.719 226.339C-275.824 223.638 -278.504 221.531 -281.743 220.033C-284.982 218.535 -288.648 217.777 -292.725 217.777C-297.707 217.777 -302.08 218.88 -305.895 221.087C-309.693 223.293 -312.636 226.404 -314.724 230.389C-316.812 234.389 -317.847 239.065 -317.847 244.416C-317.847 249.767 -316.828 254.508 -314.789 258.476C-312.751 262.444 -309.89 265.523 -306.207 267.712C-302.524 269.902 -298.167 270.989 -293.153 270.989C-289.075 270.989 -285.376 270.231 -282.071 268.733C-278.767 267.235 -276.021 265.111 -273.834 262.395C-271.648 259.662 -270.234 256.517 -269.576 252.944H-278.948C-279.786 255.809 -281.463 258.097 -283.979 259.777L-283.962 259.793Z" fill="#E93334"/>
<path d="M-237.993 236.678C-240.788 235.13 -243.994 234.356 -247.611 234.356C-251.228 234.356 -254.368 235.13 -257.18 236.678C-259.991 238.226 -262.211 240.382 -263.805 243.132C-265.4 245.881 -266.206 249.059 -266.206 252.681C-266.206 256.303 -265.4 259.48 -263.805 262.23C-262.211 264.979 -260.007 267.136 -257.18 268.684C-254.368 270.231 -251.179 271.005 -247.611 271.005C-244.043 271.005 -240.788 270.231 -237.993 268.684C-235.198 267.136 -233.011 264.979 -231.416 262.23C-229.821 259.48 -229.016 256.303 -229.016 252.681C-229.016 249.059 -229.821 245.881 -231.416 243.132C-233.011 240.382 -235.214 238.226 -237.993 236.678ZM-238.881 258.246C-239.719 259.843 -240.903 261.094 -242.399 261.983C-243.895 262.872 -245.638 263.317 -247.611 263.317C-249.584 263.317 -251.31 262.872 -252.79 261.983C-254.269 261.094 -255.437 259.843 -256.308 258.246C-257.18 256.649 -257.607 254.788 -257.607 252.681C-257.607 250.573 -257.18 248.647 -256.308 247.083C-255.437 245.503 -254.269 244.268 -252.79 243.379C-251.31 242.49 -249.584 242.045 -247.611 242.045C-245.638 242.045 -243.895 242.49 -242.399 243.379C-240.903 244.268 -239.719 245.503 -238.881 247.083C-238.042 248.664 -237.615 250.524 -237.615 252.681C-237.615 254.838 -238.042 256.649 -238.881 258.246Z" fill="#E93334"/>
<path d="M-206.343 250.277L-212.608 248.795C-215.616 248.087 -217.112 246.77 -217.112 244.844C-217.112 243.576 -216.636 242.572 -215.698 241.815C-214.761 241.057 -213.446 240.679 -211.753 240.679C-210.059 240.679 -208.744 241.107 -207.807 241.979C-206.87 242.852 -206.393 244.037 -206.393 245.535H-198.222C-198.271 243.28 -198.846 241.304 -199.948 239.608C-201.049 237.913 -202.595 236.596 -204.551 235.657C-206.524 234.719 -208.793 234.241 -211.374 234.241C-213.956 234.241 -216.422 234.669 -218.477 235.542C-220.549 236.414 -222.176 237.666 -223.376 239.312C-224.577 240.959 -225.169 242.901 -225.169 245.157C-225.169 247.923 -224.412 250.096 -222.883 251.677C-221.354 253.257 -219.02 254.393 -215.879 255.101L-209.615 256.583C-208.07 256.912 -207.018 257.406 -206.442 258.065C-205.883 258.723 -205.604 259.48 -205.604 260.32C-205.604 261.588 -206.13 262.609 -207.182 263.35C-208.234 264.107 -209.796 264.486 -211.868 264.486C-213.791 264.486 -215.287 264.041 -216.373 263.152C-217.458 262.263 -218.017 261.061 -218.066 259.563H-226.237C-226.237 262.987 -224.955 265.77 -222.406 267.877C-219.842 269.984 -216.405 271.055 -212.098 271.055C-209.237 271.055 -206.705 270.594 -204.502 269.672C-202.299 268.75 -200.589 267.433 -199.356 265.72C-198.139 264.008 -197.531 261.967 -197.531 259.629C-197.531 256.945 -198.271 254.887 -199.751 253.422C-201.23 251.973 -203.417 250.903 -206.327 250.244L-206.343 250.277Z" fill="#E93334"/>
<path d="M-180.58 224.478H-189.179V235.344H-195.854V242.523H-189.179V270.166H-180.58V242.523H-173.889V235.344H-180.58V224.478Z" fill="#E93334"/>
<path d="M-147.007 235.937C-149.26 234.834 -151.956 234.274 -155.096 234.274C-158.237 234.274 -160.933 234.785 -163.301 235.822C-165.668 236.859 -167.509 238.308 -168.792 240.152C-170.091 242.012 -170.732 244.202 -170.732 246.737H-163.416C-163.416 244.91 -162.742 243.478 -161.377 242.473C-160.012 241.469 -158.072 240.959 -155.54 240.959C-154.093 240.959 -152.811 241.189 -151.742 241.634C-150.674 242.078 -149.835 242.786 -149.243 243.741C-148.651 244.696 -148.355 245.98 -148.355 247.577V248.351L-158.779 249.191C-162.906 249.52 -166.096 250.639 -168.315 252.533C-170.551 254.443 -171.653 256.978 -171.653 260.188C-171.653 263.399 -170.584 266.05 -168.447 268.042C-166.309 270.034 -163.416 271.038 -159.749 271.038C-157.02 271.038 -154.603 270.478 -152.466 269.342C-150.328 268.206 -148.882 266.758 -148.142 264.979L-147.501 270.133H-139.97V248.976C-139.97 245.733 -140.579 243.017 -141.795 240.827C-143.012 238.637 -144.755 236.991 -147.007 235.888V235.937ZM-148.273 256.072C-148.273 258.756 -149.062 260.847 -150.624 262.345C-152.203 263.843 -154.324 264.601 -157.004 264.601C-158.878 264.601 -160.341 264.206 -161.377 263.399C-162.413 262.609 -162.922 261.423 -162.922 259.876C-162.922 258.46 -162.363 257.324 -161.229 256.451C-160.094 255.579 -158.204 255.035 -155.524 254.788L-148.273 254.228V256.072Z" fill="#E93334"/>
<path d="M-78.2504 243.477C-76.672 241.057 -75.8993 238.127 -75.8993 234.702C-75.8993 229.631 -77.527 225.68 -80.7988 222.865C-84.0541 220.049 -88.6083 218.633 -94.4285 218.633H-114.076V270.166H-105.066V250.919H-94.0175L-85.2872 270.166H-75.4389L-85.2214 249.009C-82.1634 247.742 -79.8616 245.898 -78.2833 243.477H-78.2504ZM-87.7205 240.761C-89.3153 242.226 -91.5513 242.951 -94.412 242.951H-105.049V226.668H-94.412C-91.5513 226.668 -89.3153 227.359 -87.7205 228.742C-86.1257 230.125 -85.3201 232.117 -85.3201 234.702C-85.3201 237.287 -86.1257 239.312 -87.7205 240.761Z" fill="#E93334"/>
<path d="M-65.3441 217.991C-66.8073 217.991 -68.024 218.485 -69.0433 219.473C-70.0462 220.461 -70.5559 221.679 -70.5559 223.145C-70.5559 224.61 -70.0462 225.828 -69.0433 226.849C-68.0404 227.853 -66.8073 228.364 -65.3441 228.364C-63.8808 228.364 -62.6641 227.853 -61.6448 226.849C-60.6419 225.845 -60.1322 224.61 -60.1322 223.145C-60.1322 221.679 -60.6419 220.461 -61.6448 219.473C-62.6477 218.485 -63.8808 217.991 -65.3441 217.991Z" fill="#E93334"/>
<path d="M-60.9872 235.344H-69.5694V270.166H-60.9872V235.344Z" fill="#E93334"/>
<path d="M-32.7083 261.851C-34.1387 262.889 -35.9308 263.399 -38.101 263.399C-39.926 263.399 -41.5208 262.971 -42.8526 262.098C-44.1843 261.226 -45.2036 259.991 -45.9106 258.394C-46.6176 256.797 -46.9628 254.887 -46.9628 252.681C-46.9628 250.475 -46.5847 248.565 -45.8284 246.968C-45.0721 245.371 -44.0034 244.136 -42.6224 243.263C-41.2413 242.391 -39.6465 241.963 -37.8708 241.963C-35.7993 241.963 -34.0894 242.473 -32.6919 243.477C-31.3109 244.482 -30.3573 245.98 -29.8476 247.956H-21.2653C-21.7421 243.774 -23.4848 240.448 -26.51 237.979C-29.5352 235.509 -33.4153 234.274 -38.1668 234.274C-41.5866 234.274 -44.6117 235.064 -47.2094 236.628C-49.8072 238.209 -51.8623 240.382 -53.342 243.148C-54.8217 245.914 -55.5616 249.092 -55.5616 252.664C-55.5616 256.237 -54.8382 259.612 -53.4078 262.362C-51.9774 265.111 -49.9387 267.251 -47.3246 268.783C-44.694 270.314 -41.6194 271.071 -38.101 271.071C-35.043 271.071 -32.3302 270.495 -29.9298 269.342C-27.5294 268.19 -25.5729 266.593 -24.0439 264.551C-22.5148 262.51 -21.5612 260.123 -21.1996 257.39H-29.864C-30.3408 259.316 -31.278 260.798 -32.7083 261.835V261.851Z" fill="#E93334"/>
<path d="M12.0938 240.876C10.8772 238.686 9.1344 237.04 6.88196 235.937C4.62952 234.834 1.9332 234.274 -1.20709 234.274C-4.34735 234.274 -7.04373 234.785 -9.41125 235.822C-11.7788 236.859 -13.6201 238.308 -14.9026 240.152C-16.2014 242.012 -16.8426 244.202 -16.8426 246.737H-9.52634C-9.52634 244.91 -8.8522 243.478 -7.48761 242.473C-6.12299 241.469 -4.18292 240.959 -1.651 240.959C-0.204163 240.959 1.07825 241.189 2.14694 241.634C3.21561 242.078 4.05408 242.786 4.64597 243.741C5.23785 244.712 5.53375 245.98 5.53375 247.577V248.351L-4.88989 249.191C-9.01663 249.52 -12.2062 250.639 -14.4258 252.533C-16.6618 254.443 -17.7633 256.978 -17.7633 260.188C-17.7633 263.399 -16.6946 266.05 -14.5573 268.042C-12.42 270.034 -9.52628 271.038 -5.85992 271.038C-3.13068 271.038 -0.713867 270.478 1.42349 269.342C3.56085 268.206 5.00769 266.758 5.74756 264.979L6.38873 270.133H13.9188V248.976C13.9188 245.733 13.3105 243.017 12.0938 240.827V240.876ZM5.616 256.072C5.616 258.756 4.82681 260.847 3.26492 262.345C1.68655 263.843 -0.434357 264.601 -3.11426 264.601C-4.98856 264.601 -6.45181 264.206 -7.48761 263.399C-8.52341 262.609 -9.03311 261.423 -9.03311 259.876C-9.03311 258.46 -8.47409 257.324 -7.33963 256.451C-6.2052 255.579 -4.31448 255.035 -1.63455 254.788L5.616 254.228V256.072Z" fill="#E93334"/>
</g>
</svg>
