<svg width="403" height="403" viewBox="0 0 403 403" fill="none" xmlns="http://www.w3.org/2000/svg">
<circle cx="201.3" cy="201.869" r="201" fill="white"/>
<path d="M200.938 322.699L95.0158 201.451L200.938 80.2032L306.861 201.451L200.938 322.699ZM114.386 201.451L200.938 300.527L287.491 201.451L200.938 102.375L114.386 201.451Z" fill="#0F2841"/>
<path d="M200.939 277.358L134.626 201.451L200.939 125.552V277.358Z" fill="#E93334"/>
<path d="M200.938 277.358L267.242 201.451L200.938 125.552V277.358Z" fill="#AA2222"/>
<path d="M284.984 154.871L298.873 115.803C299.367 114.385 298.438 112.837 297.184 113.007L263.704 115.098C262.63 115.244 261.735 114.085 261.905 112.772L267.771 85.0007C267.959 83.615 266.953 82.4237 265.836 82.6992L236.039 85.2114C234.896 85.495 233.89 84.2633 234.112 82.8532L240.293 53.1531C240.515 51.735 239.491 50.5032 238.34 50.8031L200.93 59.7252L284.984 154.879V154.871Z" fill="#0F2841"/>
<path d="M116.884 154.871L102.996 115.803C102.501 114.385 103.431 112.837 104.684 113.007L138.164 115.098C139.238 115.244 140.134 114.085 139.963 112.772L134.097 85.0007C133.91 83.615 134.916 82.4237 136.033 82.6993L165.83 85.2114C166.972 85.495 167.978 84.2633 167.757 82.8532L161.576 53.1531C161.354 51.735 162.377 50.5032 163.528 50.8031L200.938 59.7252L116.884 154.871Z" fill="#0F2841"/>
<path d="M284.984 248.145L298.873 287.212C299.367 288.631 298.438 290.178 297.184 290.008L263.704 287.918C262.63 287.772 261.735 288.93 261.905 290.243L267.771 318.015C267.959 319.4 266.953 320.592 265.836 320.316L236.039 317.804C234.896 317.52 233.89 318.752 234.112 320.162L240.293 349.862C240.515 351.28 239.491 352.512 238.34 352.212L200.93 343.29L284.984 248.136V248.145Z" fill="#0F2841"/>
<path d="M116.884 248.145L102.996 287.213C102.501 288.631 103.431 290.178 104.684 290.008L138.164 287.918C139.238 287.772 140.134 288.93 139.963 290.243L134.097 318.015C133.91 319.4 134.916 320.592 136.033 320.316L165.83 317.804C166.972 317.52 167.978 318.752 167.757 320.162L161.576 349.862C161.354 351.28 162.377 352.512 163.528 352.212L200.938 343.29L116.884 248.145Z" fill="#0F2841"/>
</svg>
