<svg width="89" height="136" viewBox="0 0 89 136" fill="none" xmlns="http://www.w3.org/2000/svg">
<path d="M44.8101 122.134L0.909668 68.0434L44.8101 13.9525L88.7105 68.0434L44.8101 122.134ZM8.93782 68.0434L44.8101 112.243L80.6824 68.0434L44.8101 23.8438L8.93782 68.0434Z" fill="#0F2841"/>
<path d="M44.8101 101.907L17.3264 68.0435L44.8101 34.1833V101.907Z" fill="#E93334"/>
<path d="M44.8101 101.907L72.2903 68.0435L44.8101 34.1833V101.907Z" fill="#AA2222"/>
<path d="M79.6435 47.2633L85.3996 29.8343C85.6045 29.2017 85.2194 28.5112 84.7 28.5871L70.8238 29.5198C70.3786 29.5849 70.0076 29.0679 70.0783 28.4822L72.5093 16.0929C72.5871 15.4747 72.1701 14.9432 71.7072 15.0662L59.3576 16.1869C58.8841 16.3134 58.4671 15.7639 58.559 15.1348L61.1208 1.88506C61.2127 1.2524 60.7886 0.702886 60.3116 0.836649L44.8065 4.81701L79.6435 47.2669V47.2633Z" fill="#0F2841"/>
<path d="M9.97313 47.2633L4.21703 29.8343C4.01209 29.2017 4.39724 28.5112 4.91667 28.5871L18.7928 29.5198C19.238 29.5849 19.609 29.0679 19.5384 28.4822L17.1073 16.0929C17.0296 15.4747 17.4465 14.9432 17.9094 15.0662L30.259 16.1869C30.7325 16.3134 31.1495 15.7639 31.0576 15.1348L28.4958 1.88506C28.404 1.2524 28.828 0.702886 29.305 0.836649L44.8101 4.81701L9.97313 47.2633Z" fill="#0F2841"/>
<path d="M79.6435 88.8742L85.3996 106.303C85.6045 106.936 85.2194 107.626 84.7 107.55L70.8238 106.618C70.3786 106.553 70.0076 107.07 70.0783 107.655L72.5093 120.045C72.5871 120.663 72.1701 121.194 71.7072 121.071L59.3576 119.951C58.8841 119.824 58.4671 120.374 58.559 121.003L61.1208 134.252C61.2127 134.885 60.7886 135.435 60.3116 135.301L44.8065 131.321L79.6435 88.8706V88.8742Z" fill="#0F2841"/>
<path d="M9.97313 88.8744L4.21703 106.303C4.01209 106.936 4.39724 107.627 4.91667 107.551L18.7928 106.618C19.238 106.553 19.609 107.07 19.5384 107.655L17.1073 120.045C17.0296 120.663 17.4465 121.194 17.9094 121.072L30.259 119.951C30.7325 119.824 31.1495 120.374 31.0576 121.003L28.4958 134.253C28.404 134.885 28.828 135.435 29.305 135.301L44.8101 131.321L9.97313 88.8744Z" fill="#0F2841"/>
</svg>
