<svg width="333" height="232" viewBox="0 0 333 232" fill="none" xmlns="http://www.w3.org/2000/svg">
<path d="M138.991 99.3167L153.041 116.319L144.21 127.002C134.455 135.102 125.087 138.791 116.161 139.568C126.534 138.226 132.893 130.893 132.893 121.057C132.893 111.222 124.946 103.223 115.141 103.223C108.249 103.223 102.272 107.174 99.3332 112.942C99.3332 100.543 109.329 90.9949 121.671 90.9949C128.468 90.9949 134.862 94.4771 138.961 99.2814C138.971 99.2915 138.981 99.3066 138.991 99.3167Z" fill="#84CCF5"/>
<path d="M116.161 139.568C125.087 138.791 134.455 135.102 144.21 127.002L121.274 154.753C115.146 156.075 109.219 156.005 103.497 154.975C98.7455 145.361 88.875 138.755 77.4724 138.755C74.9256 138.755 72.4542 139.083 70.0984 139.704L70.0833 139.644C61.8503 134.219 54.3557 128.693 47.6749 125.337C33.6301 118.282 20.0676 122.889 11.4177 127.749L2.08462 116.455C3.17967 115.456 12.1109 107.593 24.2217 104.863C30.566 103.43 37.7843 103.404 45.2085 106.523C45.9319 106.826 46.6602 107.159 47.3886 107.527C53.1502 110.424 59.5246 115.087 66.4566 119.982C80.7927 130.101 97.5148 141.188 116.161 139.568Z" fill="#84CCF5"/>
<path d="M138.715 43.3555C139.509 43.2394 140.101 44.2841 139.785 45.2379L130.954 71.5001L77.5075 7.54013L101.297 1.54483C102.026 1.34296 102.679 2.17564 102.538 3.1244L98.6099 23.0885C98.4692 24.0323 99.1072 24.8599 99.8355 24.6732L118.783 22.9876C119.496 22.8009 120.129 23.5983 120.014 24.5319L116.281 43.194C116.171 44.0822 116.739 44.8594 117.427 44.7584L138.715 43.3555Z" fill="#F67A38"/>
<path d="M125.941 83.5311L138.961 99.2814C134.862 94.4771 128.468 90.9949 121.671 90.9949C109.329 90.9949 99.3332 100.543 99.3332 112.942C102.272 107.174 108.249 103.223 115.141 103.223C124.946 103.223 132.893 111.211 132.893 121.057C132.893 130.903 126.534 138.226 116.161 139.568C97.5148 141.188 80.7927 130.101 66.4566 119.982L85.2884 97.8683L95.0786 86.3773L99.4437 81.25C100.725 79.7512 102.237 78.5602 103.889 77.7023C108.706 75.1942 114.689 75.4616 119.351 78.8075L125.941 83.5311Z" fill="#84E9B7"/>
<path d="M105.652 58.9796L125.941 83.5311L119.351 78.8075C114.689 75.4616 108.706 75.1942 103.889 77.7023L103.779 77.1472C104.075 75.7493 104.115 74.2757 103.854 72.7769C103.407 70.2435 102.161 68.0533 100.418 66.4233L105.652 58.9796Z" fill="#EFB73B"/>
<path d="M121.274 154.753L106.501 172.628L106.15 172.572C106.391 171.064 106.516 169.519 106.516 167.94C106.516 163.282 105.431 158.881 103.497 154.975C109.219 156.005 115.146 156.075 121.274 154.753Z" fill="#F9FFF2"/>
<path d="M73.9913 219.046C73.9913 219.854 73.9712 220.313 73.9712 220.313C73.9712 221.872 73.2178 223.255 72.0524 224.113C71.2788 224.683 70.3244 225.016 69.2946 225.016C68.7019 225.016 68.1293 224.905 67.6069 224.698C67.1749 224.532 66.773 224.305 66.4164 224.022C36.3828 200.737 53.331 184.169 53.331 184.169C51.0304 180.723 49.4431 176.756 48.78 172.487C48.549 171.003 48.4284 169.489 48.4284 167.94C48.4284 160.869 50.9299 154.385 55.0941 149.333C58.9118 144.7 64.1308 141.274 70.0984 139.704C72.4542 139.083 74.9256 138.755 77.4724 138.755C88.875 138.755 98.7455 145.361 103.497 154.975C105.431 158.881 106.516 163.282 106.516 167.94C106.516 169.519 106.391 171.064 106.15 172.572C105.487 176.766 103.929 180.667 101.679 184.063L101.82 184.169C101.82 184.169 118.768 200.737 88.7343 224.022C87.9407 224.643 86.9411 225.016 85.856 225.016C84.771 225.016 83.7714 224.643 82.9778 224.017C81.8827 223.159 81.1795 221.817 81.1795 220.313C81.1795 220.313 81.1594 219.854 81.1594 219.046H80.9685L77.4724 223.669L74.1822 219.046H73.9913ZM99.4739 167.94C99.4739 166.426 99.3232 164.947 99.0318 163.514C96.9924 153.426 88.1165 145.836 77.4724 145.836C66.8283 145.836 57.9674 153.411 55.9179 163.484C55.6266 164.927 55.4709 166.416 55.4709 167.94C55.4709 173.733 57.6911 179.012 61.3279 182.953C65.3464 187.313 71.0929 190.044 77.4724 190.044C83.8518 190.044 89.6737 187.278 93.6922 182.867C97.2838 178.936 99.4739 173.693 99.4739 167.94Z" fill="#F67A38"/>
<path d="M92.7177 43.3303L105.652 58.9796L100.418 66.4233C98.424 64.556 95.7818 63.4256 92.9588 63.355L92.9739 62.6485L92.7177 43.3303Z" fill="#F9FFF2"/>
<path d="M103.854 72.7769C104.115 74.2757 104.075 75.7493 103.779 77.1472L103.889 77.7023C102.237 78.5602 100.725 79.7512 99.4437 81.25L95.0786 86.3773L94.6416 85.9988C92.0798 86.453 89.5682 86.0089 87.4283 84.8886C85.6953 83.9853 84.2084 82.6429 83.1335 80.9775C82.3298 79.731 81.7521 78.3079 81.4809 76.7485C81.3854 76.2035 81.3302 75.6635 81.3151 75.1235C81.2398 72.9384 81.8023 70.834 82.8472 69.0323C83.8016 67.3821 85.1628 65.9792 86.8155 64.985C87.9758 64.2785 89.2818 63.7789 90.6934 63.5266C91.4569 63.3903 92.2154 63.3348 92.9588 63.355C95.7818 63.4256 98.424 64.556 100.418 66.4233C102.161 68.0533 103.407 70.2435 103.854 72.7769Z" fill="#EFB73B"/>
<path d="M99.0318 163.514C99.3232 164.947 99.4739 166.426 99.4739 167.94C99.4739 173.693 97.2838 178.936 93.6922 182.867C94.4155 181.803 94.7872 180.672 94.943 179.592C95.2845 177.225 93.3355 175.086 90.9696 175.378C90.6281 175.424 90.2815 175.444 89.9298 175.444C85.203 175.444 81.3955 171.487 81.6165 166.693C81.8124 162.434 85.2985 158.932 89.538 158.735C92.5318 158.598 96.3294 159.441 99.0318 163.514ZM93.0693 167.087C93.0693 165.346 91.6628 163.933 89.9298 163.933C88.1968 163.933 86.7904 165.346 86.7904 167.087C86.7904 168.828 88.1968 170.241 89.9298 170.241C91.6628 170.241 93.0693 168.828 93.0693 167.087Z" fill="#EFB73B"/>
<path d="M95.0786 86.3773L85.2884 97.8683L84.9067 97.5403L81.3051 93.5889L87.4283 84.8886C89.5682 86.0089 92.0798 86.453 94.6416 85.9988L95.0786 86.3773Z" fill="#F9FFF2"/>
<path d="M90.9696 175.378C93.3355 175.086 95.2845 177.225 94.943 179.592C94.7872 180.672 94.4155 181.803 93.6922 182.867C89.6737 187.278 83.897 190.044 77.4724 190.044C71.0477 190.044 65.3464 187.313 61.3279 182.953L61.4434 182.847C60.7201 181.782 60.3484 180.652 60.1927 179.572C59.8561 177.205 61.8051 175.065 64.166 175.363C64.5076 175.404 64.8542 175.424 65.2108 175.424C69.9326 175.424 73.7402 171.467 73.5191 166.673C73.3232 162.414 69.8372 158.911 65.6026 158.715C62.6038 158.578 58.8113 159.421 56.1038 163.494L55.9179 163.484C57.9674 153.411 66.8383 145.836 77.4724 145.836C88.1064 145.836 96.9924 153.426 99.0318 163.514C96.3294 159.441 92.5318 158.598 89.538 158.735C85.2985 158.932 81.8124 162.434 81.6165 166.693C81.3955 171.487 85.203 175.444 89.9298 175.444C90.2815 175.444 90.6281 175.424 90.9696 175.378ZM78.2811 172.981C78.2811 172.724 77.9144 172.512 77.4573 172.512C77.0002 172.512 76.6385 172.724 76.6385 172.981C76.6385 173.239 77.0052 173.451 77.4573 173.451C77.9094 173.451 78.2811 173.244 78.2811 172.981Z" fill="#F9FFF2"/>
<path d="M92.7177 43.3303L92.9739 62.6485L92.9588 63.355C92.2154 63.3348 91.4569 63.3903 90.6934 63.5266C89.2818 63.7789 87.9758 64.2785 86.8155 64.985L86.489 64.4551L69.154 35.0287L77.5075 24.9255L92.7177 43.3303Z" fill="#EFB73B"/>
<path d="M89.9298 170.241C91.6628 170.241 93.0693 168.828 93.0693 167.087C93.0693 165.346 91.6628 163.933 89.9298 163.933C88.1968 163.933 86.7904 165.346 86.7904 167.087C86.7904 168.828 88.1968 170.241 89.9298 170.241Z" fill="#F9FFF2"/>
<path d="M87.4283 84.8886L81.3051 93.5889L76.0106 87.7752C75.0512 86.7205 73.8959 85.9635 72.6501 85.5043L82.3197 81.2854L83.1335 80.9775C84.2084 82.6429 85.6953 83.9853 87.4283 84.8886Z" fill="#EFB73B"/>
<path d="M86.489 64.4551L86.8155 64.985C85.1628 65.9792 83.8016 67.3821 82.8472 69.0323L82.5458 68.8507L54.5215 53.5142L54.1397 53.1963L69.154 35.0287L86.489 64.4551Z" fill="#F9FFF2"/>
<path d="M61.5288 89.6828L63.5682 87.5784C66.0095 85.0602 69.591 84.3789 72.6501 85.5043C73.8959 85.9635 75.0512 86.7205 76.0106 87.7752L81.3051 93.5889L84.9067 97.5403L85.2884 97.8683L66.4566 119.982C59.5246 115.087 53.1502 110.424 47.3886 107.527C46.6602 107.159 45.9319 106.826 45.2085 106.523L61.5288 89.6828Z" fill="#84E9B7"/>
<path d="M83.1335 80.9775L82.3197 81.2854L72.6501 85.5043C69.591 84.3789 66.0095 85.0602 63.5682 87.5784L61.5288 89.6828L24.2117 104.817L24.2217 104.863C12.1109 107.593 3.17967 115.456 2.08462 116.455L1.96908 116.319L34.9713 76.3852L81.3101 75.1235C81.3251 75.6635 81.3804 76.2035 81.4758 76.7485C81.7471 78.3079 82.3248 79.731 83.1285 80.9775L83.1335 80.9775Z" fill="#F9FFF2"/>
<path d="M82.5458 68.8507L82.8472 69.0323C81.8023 70.834 81.2398 72.9384 81.3151 75.1235L34.9763 76.3852L54.1397 53.1963L54.5215 53.5142L82.5458 68.8507Z" fill="#EFB73B"/>
<path d="M77.5075 7.54013L24.056 71.5001L15.2252 45.2379C14.9088 44.2841 15.5015 43.2394 16.2952 43.3555L37.5884 44.7584C38.2715 44.8594 38.8392 44.0822 38.7286 43.194L34.9964 24.5319C34.8809 23.5983 35.5138 22.8009 36.2271 22.9876L55.1745 24.6732C55.9029 24.8599 56.5408 24.0323 56.4052 23.0885L52.4771 3.1244C52.3314 2.17564 52.9844 1.34296 53.7128 1.54483L77.5075 7.54013Z" fill="#F67A38"/>
<path d="M73.5191 166.673C73.7402 171.467 69.9326 175.424 65.2108 175.424C64.8542 175.424 64.5076 175.404 64.166 175.363C61.8051 175.065 59.8561 177.205 60.1927 179.572C60.3484 180.652 60.7201 181.782 61.4434 182.847L61.3279 182.953C57.6911 179.012 55.4709 173.733 55.4709 167.94C55.4709 166.416 55.6266 164.927 55.9179 163.484L56.1038 163.494C58.8113 159.421 62.6038 158.578 65.6026 158.715C69.8372 158.911 73.3232 162.414 73.5191 166.673ZM68.3503 167.067C68.3503 165.326 66.9438 163.913 65.2108 163.913C63.4778 163.913 62.0713 165.326 62.0713 167.067C62.0713 168.808 63.4728 170.221 65.2108 170.221C66.9488 170.221 68.3503 168.808 68.3503 167.067Z" fill="#EFB73B"/>
<path d="M70.0833 139.644L70.0984 139.704C64.1308 141.274 58.9118 144.7 55.0941 149.333C52.1204 147.41 49.2773 145.694 46.5698 144.332C37.7943 139.921 30.3048 139.825 22.986 141.743L11.4177 127.749C20.0676 122.889 33.6301 118.282 47.6749 125.337C54.3557 128.693 61.8503 134.219 70.0833 139.644Z" fill="#F9FFF2"/>
<path d="M65.2108 163.913C66.9438 163.913 68.3503 165.326 68.3503 167.067C68.3503 168.808 66.9438 170.221 65.2108 170.221C63.4778 170.221 62.0713 168.808 62.0713 167.067C62.0713 165.326 63.4728 163.913 65.2108 163.913Z" fill="#F9FFF2"/>
<path d="M61.5288 89.6828L45.2085 106.523C37.7843 103.404 30.566 103.43 24.2217 104.863L24.2117 104.817L61.5288 89.6828Z" fill="#EFB73B"/>
<path d="M48.78 172.487L48.4384 172.542L22.986 141.743C30.3048 139.825 37.7943 139.921 46.5698 144.332C49.2773 145.694 52.1204 147.41 55.0941 149.333C50.9299 154.385 48.4284 160.869 48.4284 167.94C48.4284 169.489 48.549 171.003 48.78 172.487Z" fill="#84CCF5"/>
<path d="M83.686 178.416C83.0581 178.795 82.3448 178.997 81.6165 178.997C80.4662 178.997 79.3661 178.497 78.5674 177.589C78.5122 177.528 78.4469 177.473 78.3816 177.422C78.3665 177.412 78.3514 177.397 78.3363 177.387C78.2861 177.352 78.2309 177.321 78.1756 177.296C78.1404 177.276 78.1103 177.256 78.0751 177.24C78.04 177.225 77.9998 177.215 77.9596 177.2C77.9044 177.18 77.8491 177.16 77.7888 177.15C77.7587 177.145 77.7336 177.145 77.7034 177.14C77.6331 177.129 77.5628 177.119 77.4925 177.119C77.4874 177.119 77.4774 177.119 77.4724 177.119C77.4523 177.119 77.4372 177.124 77.4171 177.124C77.3367 177.124 77.2514 177.134 77.171 177.15C77.1408 177.155 77.1107 177.165 77.0806 177.175C77.0102 177.195 76.9399 177.22 76.8696 177.246C76.8395 177.261 76.8093 177.271 76.7842 177.286C76.7189 177.321 76.6586 177.357 76.5983 177.402C76.5732 177.422 76.5481 177.437 76.523 177.457C76.5029 177.473 76.4778 177.488 76.4577 177.508C76.4225 177.543 76.3924 177.584 76.3572 177.619C76.3472 177.634 76.3321 177.644 76.317 177.654C75.5435 178.507 74.4534 178.997 73.3232 178.997C72.5898 178.997 71.8766 178.795 71.2537 178.416C70.5404 177.982 69.6161 178.209 69.1841 178.926C68.7521 179.643 68.9782 180.571 69.6915 181.005C70.7815 181.671 72.0373 182.02 73.3232 182.02C74.8201 182.02 76.2718 181.535 77.4673 180.657C78.6629 181.535 80.1095 182.02 81.6165 182.02C82.8924 182.02 84.1482 181.666 85.2432 181.005C85.9565 180.576 86.1876 179.643 85.7556 178.926C85.3286 178.209 84.3993 177.977 83.686 178.411V178.416Z" fill="#0E2C5E"/>
<path d="M77.4573 174.964C78.7884 174.964 79.788 174.112 79.788 172.981C79.788 171.851 78.7884 170.998 77.4573 170.998C76.1262 170.998 75.1316 171.851 75.1316 172.981C75.1316 174.112 76.1312 174.964 77.4573 174.964Z" fill="#0E2C5E"/>
<path d="M89.9298 162.419C87.368 162.419 85.2834 164.513 85.2834 167.087C85.2834 169.661 87.368 171.755 89.9298 171.755C92.4917 171.755 94.5763 169.661 94.5763 167.087C94.5763 164.513 92.4917 162.419 89.9298 162.419ZM89.9298 168.727C89.0307 168.727 88.2973 167.99 88.2973 167.087C88.2973 166.183 89.0307 165.447 89.9298 165.447C90.829 165.447 91.5624 166.183 91.5624 167.087C91.5624 167.99 90.829 168.727 89.9298 168.727Z" fill="#0E2C5E"/>
<path d="M69.8572 167.067C69.8572 164.493 67.7726 162.399 65.2108 162.399C62.649 162.399 60.5644 164.493 60.5644 167.067C60.5644 169.64 62.649 171.735 65.2108 171.735C67.7726 171.735 69.8572 169.64 69.8572 167.067ZM63.5783 167.067C63.5783 166.163 64.3117 165.426 65.2108 165.426C66.11 165.426 66.8433 166.163 66.8433 167.067C66.8433 167.97 66.11 168.707 65.2108 168.707C64.3117 168.707 63.5783 167.97 63.5783 167.067Z" fill="#0E2C5E"/>
<path d="M100.514 163.236C100.514 163.236 100.514 163.226 100.514 163.221C100.514 163.221 100.514 163.211 100.514 163.206C98.2984 152.26 88.6138 144.317 77.4774 144.317C66.341 144.317 56.6714 152.25 54.4462 163.176C54.1297 164.745 53.969 166.345 53.969 167.935C53.969 173.905 56.1892 179.602 60.2278 183.978C64.6633 188.792 70.9523 191.552 77.4774 191.552C84.0025 191.552 90.3669 188.757 94.8073 183.887C98.7907 179.527 100.986 173.859 100.986 167.935C100.986 166.35 100.83 164.765 100.519 163.231L100.514 163.236ZM60.1525 175.343C59.6803 175.822 59.3186 176.388 59.0675 176.998C57.7012 174.207 56.9778 171.119 56.9778 167.94C56.9778 166.769 57.0833 165.588 57.2792 164.427C57.3043 164.397 57.3295 164.372 57.3546 164.336C59.2734 161.45 62.0261 160.062 65.5323 160.229C69.0083 160.39 71.8514 163.251 72.0122 166.744C72.0976 168.636 71.4345 170.428 70.1385 171.79C68.8375 173.158 67.0895 173.91 65.2108 173.91C64.9145 173.91 64.6281 173.895 64.3518 173.859C62.7997 173.662 61.2676 174.202 60.1525 175.343ZM93.4511 179.375C93.3154 180.319 92.9889 181.182 92.4967 181.934C88.6288 186.127 83.1636 188.53 77.4724 188.53C71.7811 188.53 66.7077 186.289 62.865 182.368C62.8198 182.237 62.7645 182.11 62.6842 181.989C62.1567 181.217 61.8202 180.329 61.6795 179.355C61.5791 178.653 61.8051 177.967 62.2974 177.463C62.5636 177.195 63.1312 176.761 63.9852 176.862C64.382 176.907 64.7939 176.933 65.2058 176.933C67.9183 176.933 70.4399 175.848 72.3136 173.874C74.1822 171.906 75.1466 169.322 75.0211 166.597C74.79 161.561 70.681 157.428 65.6679 157.196C63.7842 157.11 61.4585 157.372 59.2131 158.578C62.649 151.841 69.6513 147.345 77.4724 147.345C85.2934 147.345 92.2104 151.791 95.6663 158.457C93.5063 157.367 91.2811 157.135 89.4677 157.216C84.4546 157.448 80.3406 161.576 80.1095 166.617C79.984 169.343 80.9434 171.926 82.817 173.895C84.6907 175.868 87.2173 176.953 89.9298 176.953C90.3568 176.953 90.7737 176.928 91.1555 176.877C92.0044 176.771 92.577 177.21 92.8383 177.483C93.3305 177.987 93.5515 178.674 93.4511 179.37V179.375ZM95.9727 176.791C95.7266 176.272 95.4001 175.787 94.9932 175.368C93.8781 174.228 92.346 173.688 90.7737 173.874C90.5125 173.91 90.2262 173.925 89.9298 173.925C88.0461 173.925 86.2981 173.173 84.9971 171.805C83.7011 170.443 83.033 168.651 83.1234 166.759C83.2842 163.267 86.1323 160.405 89.6084 160.244C93.0141 160.087 95.7015 161.389 97.6103 164.109C97.8464 165.361 97.9719 166.648 97.9719 167.94C97.9719 171.038 97.2787 174.051 95.9777 176.791H95.9727Z" fill="#0E2C5E"/>
<path d="M107.456 173.789C107.526 173.728 107.596 173.667 107.657 173.592L154.995 116.313L140.146 98.3427C140.146 98.3427 140.141 98.3377 140.136 98.3326C140.136 98.3326 140.131 98.3225 140.126 98.3175L140.116 98.3023L77.5075 22.5536L67.9535 34.1102C67.9535 34.1102 67.9434 34.1254 67.9384 34.1304L0 116.329L0.517387 116.939C0.572641 117.161 0.678128 117.373 0.833846 117.555C0.979518 117.721 1.15533 117.848 1.34119 117.933L47.2731 173.511C47.3283 173.582 47.3936 173.637 47.4589 173.693C48.1471 177.372 49.4782 180.839 51.4373 184.028C49.865 185.976 46.6854 190.836 47.0822 197.881C47.5996 206.955 53.7881 216.149 65.472 225.213C65.472 225.213 65.4821 225.218 65.4821 225.223C65.4821 225.223 65.4871 225.223 65.4921 225.228C65.7885 225.46 66.11 225.667 66.4515 225.839L68.7823 231.102C69.0334 231.668 69.581 232.001 70.1586 232.001C70.3646 232.001 70.5705 231.96 70.7715 231.869C71.53 231.531 71.8715 230.633 71.535 229.871L70.0331 226.485C70.6258 226.414 71.2035 226.258 71.746 226.02L74.348 228.841C74.6443 229.164 75.0462 229.326 75.4531 229.326C75.8197 229.326 76.1864 229.195 76.4778 228.922C77.0856 228.352 77.1258 227.398 76.5582 226.782L74.137 224.158C74.4735 223.729 74.7448 223.26 74.9608 222.76L76.2367 224.557C76.2367 224.557 76.2618 224.582 76.2769 224.597C76.3221 224.658 76.3773 224.713 76.4326 224.769C76.4627 224.799 76.4878 224.824 76.523 224.855C76.533 224.865 76.5431 224.875 76.5531 224.885C76.6235 224.94 76.6988 224.986 76.7792 225.026C76.7942 225.031 76.8093 225.036 76.8194 225.046C76.9048 225.087 76.9901 225.117 77.0755 225.142C77.1007 225.147 77.1258 225.157 77.1509 225.162C77.2514 225.183 77.3568 225.198 77.4623 225.198C77.5628 225.198 77.6632 225.183 77.7637 225.162C77.7888 225.162 77.8089 225.152 77.834 225.147C77.9245 225.122 78.0149 225.092 78.1003 225.051C78.1103 225.051 78.1204 225.046 78.1254 225.041C78.2007 225.006 78.2711 224.961 78.3364 224.915C78.3514 224.905 78.3615 224.895 78.3715 224.885C78.4067 224.86 78.4368 224.829 78.467 224.799C78.5222 224.749 78.5724 224.698 78.6177 224.643C78.6327 224.628 78.6478 224.617 78.6578 224.597L80.1196 222.664C80.3155 223.154 80.5767 223.618 80.8982 224.042L78.3665 226.787C77.7989 227.398 77.8391 228.357 78.4469 228.927C78.7382 229.2 79.1049 229.331 79.4716 229.331C79.8785 229.331 80.2803 229.169 80.5767 228.846L83.239 225.96C83.8267 226.237 84.4496 226.414 85.0975 226.49L83.5956 229.876C83.2591 230.638 83.5956 231.536 84.3591 231.874C84.5601 231.965 84.766 232.006 84.972 232.006C85.5496 232.006 86.0972 231.673 86.3483 231.107L88.6841 225.839C89.0206 225.667 89.3421 225.465 89.6385 225.228C101.327 216.165 107.516 206.965 108.033 197.891C108.445 190.649 105.07 185.719 103.553 183.887C105.446 180.768 106.747 177.387 107.436 173.804L107.456 173.789ZM46.9265 168.343L25.7136 142.677C32.7461 141.299 39.0652 142.253 45.8917 145.684C47.9311 146.709 50.1815 148.006 52.8839 149.717C49.0261 154.97 46.9164 161.374 46.9164 167.94C46.9164 168.076 46.9214 168.212 46.9265 168.348V168.343ZM54.8078 147.355C51.8793 145.493 49.4481 144.09 47.2429 142.979C39.3716 139.023 31.8117 138.089 23.5436 140.052L13.7534 128.208C22.2526 123.803 34.4539 120.391 47.0018 126.694C51.7839 129.096 57.0883 132.695 62.7042 136.51C64.0103 137.398 65.3515 138.301 66.7027 139.21C62.1517 140.925 58.098 143.696 54.8078 147.36V147.355ZM70.4349 138.064C68.3754 136.702 66.346 135.329 64.387 133.997C58.6857 130.126 53.3009 126.472 48.348 123.984C34.3836 116.97 20.9416 120.941 11.7844 125.826L4.18932 116.636C7.01737 114.295 14.7028 108.562 24.5533 106.341C31.5907 104.752 38.3469 105.282 44.6309 107.921C45.3442 108.219 46.0424 108.542 46.7155 108.88C51.7487 111.408 57.3797 115.4 63.3422 119.629L65.5926 121.224C80.0191 131.403 95.4654 141.243 112.504 141.243C113.715 141.243 114.94 141.193 116.166 141.087C116.186 141.087 116.211 141.087 116.231 141.087H116.276C116.276 141.087 116.286 141.087 116.291 141.082C122.947 140.502 129.527 138.337 135.947 134.637L120.461 153.375C115.232 154.44 109.992 154.516 104.482 153.607C99.1674 143.499 88.89 137.252 77.4724 137.252C75.0914 137.252 72.7255 137.529 70.4349 138.074V138.064ZM54.4462 55.1947L80.858 69.648C80.3105 70.9198 79.9689 72.2722 79.8534 73.6449L38.2565 74.7753L54.4411 55.1897L54.4462 55.1947ZM68.948 37.6529L84.7911 64.551C83.8769 65.2626 83.0581 66.1003 82.3649 67.0339L56.4052 52.8279L68.943 37.6579L68.948 37.6529ZM117.929 76.2035C114.056 74.2858 109.611 73.983 105.517 75.3759C105.562 74.4271 105.502 73.4683 105.336 72.5145C104.924 70.1678 103.899 68.0432 102.362 66.282L105.748 61.4676L117.929 76.2035ZM130.346 91.2321C127.563 90.0966 124.61 89.481 121.671 89.481C108.3 89.481 97.8263 99.786 97.8263 112.942C97.8263 112.973 97.8313 112.998 97.8363 113.023C97.8363 113.079 97.8413 113.129 97.8514 113.185C97.8614 113.235 97.8715 113.28 97.8815 113.326C97.8916 113.371 97.9066 113.422 97.9267 113.467C97.9418 113.513 97.9619 113.558 97.987 113.603C98.0071 113.649 98.0322 113.689 98.0573 113.73C98.0824 113.77 98.1076 113.81 98.1377 113.846C98.1678 113.886 98.198 113.926 98.2331 113.962C98.2633 113.997 98.2984 114.032 98.3336 114.063C98.3688 114.093 98.4039 114.128 98.4441 114.154C98.4893 114.184 98.5295 114.214 98.5797 114.239C98.6049 114.254 98.6249 114.275 98.6501 114.285C98.6651 114.295 98.6802 114.295 98.7003 114.305C98.7505 114.33 98.8008 114.345 98.851 114.366C98.8962 114.381 98.9414 114.396 98.9866 114.406C99.0318 114.416 99.0821 114.426 99.1323 114.431C99.1825 114.436 99.2378 114.446 99.288 114.446C99.3081 114.446 99.3232 114.451 99.3382 114.451C99.3684 114.451 99.3935 114.446 99.4236 114.441C99.4739 114.441 99.5291 114.436 99.5794 114.426C99.6296 114.416 99.6748 114.406 99.725 114.396C99.7702 114.386 99.8154 114.371 99.8606 114.355C99.9109 114.335 99.9561 114.315 100.001 114.295C100.041 114.275 100.087 114.254 100.127 114.229C100.167 114.204 100.207 114.174 100.247 114.148C100.288 114.123 100.323 114.088 100.363 114.053C100.398 114.017 100.433 113.987 100.463 113.947C100.494 113.911 100.524 113.876 100.554 113.836C100.584 113.79 100.614 113.745 100.639 113.699C100.654 113.674 100.669 113.654 100.684 113.629C103.477 108.143 109.023 104.732 115.151 104.732C124.107 104.732 131.396 112.054 131.396 121.052C131.396 130.05 125.504 136.813 116.015 138.054C98.9866 139.528 83.8769 130.338 68.6919 119.69L100.599 82.2291C101.734 80.8968 103.08 79.8269 104.592 79.0396C109.063 76.7081 114.388 77.0917 118.487 80.0338L124.926 84.6464L130.361 91.222L130.346 91.2321ZM44.8268 104.747C41.3507 103.404 37.7491 102.637 34.0471 102.461L55.4558 93.7806L44.8268 104.747ZM64.6482 88.6331C66.5872 86.6347 69.5207 85.9635 72.1327 86.9224C73.1977 87.316 74.1269 87.9418 74.9005 88.7946L80.2 94.6083C80.2 94.6083 80.21 94.6184 80.215 94.6284L83.239 97.9491L66.2054 117.949L65.0802 117.151C59.0223 112.857 53.3009 108.804 48.0667 106.17C47.9763 106.124 47.8758 106.079 47.7854 106.034L64.6532 88.6281L64.6482 88.6331ZM82.601 82.8145C83.3645 83.7784 84.2637 84.6312 85.2633 85.3377L81.1493 91.1816L77.1157 86.7558C76.7641 86.3672 76.3874 86.019 75.9905 85.6961L82.596 82.8145H82.601ZM85.2131 95.6327L83.239 93.4677L87.9407 86.7861C89.2417 87.3059 90.6029 87.6037 91.9893 87.6743L85.2081 95.6327H85.2131ZM100.107 64.2381C98.429 63.0421 96.5001 62.2649 94.4708 61.9722L94.2799 47.5896L103.754 59.0503L100.107 64.2331V64.2381ZM92.9186 64.8689C95.3197 64.9295 97.6203 65.8732 99.3885 67.5335C100.961 69.0021 101.99 70.9097 102.367 73.0393C102.588 74.311 102.568 75.5878 102.302 76.8343C102.302 76.8444 102.302 76.8545 102.302 76.8646C100.805 77.7679 99.4638 78.9034 98.2984 80.266L94.7019 84.4899C94.5964 84.4899 94.4858 84.4899 94.3804 84.5101C92.2204 84.8936 90.0604 84.5606 88.1215 83.5462C86.6095 82.759 85.3186 81.5831 84.3993 80.1549C83.676 79.0346 83.1938 77.7982 82.9677 76.4861C82.8874 76.0168 82.8371 75.5424 82.8221 75.0731C82.7568 73.226 83.2189 71.4042 84.1532 69.7944C84.987 68.3511 86.1775 67.1348 87.5991 66.282C88.6188 65.6612 89.754 65.2373 90.9596 65.0203C91.6076 64.9043 92.2706 64.8538 92.9236 64.874L92.9186 64.8689ZM35.6947 77.8789L79.9488 76.6728C79.9639 76.7838 79.9739 76.8949 79.994 77.0059C80.1899 78.1212 80.5265 79.191 80.9936 80.2104L72.5698 83.8843C69.0033 82.8195 65.1053 83.8187 62.4883 86.5186L60.6699 88.396L23.6491 103.409C23.6089 103.425 23.5788 103.45 23.5386 103.465C18.3296 104.686 13.7032 106.821 10.0162 108.951L35.6997 77.8739L35.6947 77.8789ZM111.936 157.256C113.815 157.256 115.684 157.14 117.527 156.913L108.008 168.429C108.008 168.268 108.018 168.101 108.018 167.94C108.018 164.094 107.32 160.385 105.959 156.873C107.963 157.12 109.957 157.256 111.931 157.256H111.936ZM143.15 125.917C138.614 129.672 134.084 132.538 129.487 134.562C132.627 131.08 134.4 126.432 134.4 121.057C134.4 110.389 125.76 101.709 115.141 101.709C109.977 101.709 105.17 103.758 101.629 107.275C104.075 98.6606 112.007 92.5089 121.671 92.5089C127.639 92.5089 133.672 95.4107 137.816 100.265L137.826 100.276C137.826 100.276 137.836 100.286 137.841 100.291L151.082 116.313L143.15 125.912V125.917ZM91.2158 43.8854L91.4569 61.9016C91.1153 61.9369 90.7687 61.9773 90.4271 62.0378C89.3572 62.2296 88.3425 62.5576 87.3781 62.9916L70.9925 35.175L77.5075 27.2923L91.2158 43.8803V43.8854ZM105.045 197.765C104.552 205.91 98.7556 214.338 87.8151 222.821C87.1671 223.331 86.3433 223.538 85.5496 223.457L86.3332 222.604C86.9009 221.993 86.8657 221.034 86.2529 220.464C85.6451 219.894 84.6907 219.929 84.123 220.545L83.028 221.731C82.812 221.297 82.6914 220.807 82.6914 220.303V220.237C82.6914 220.237 82.6714 219.788 82.6714 219.041C82.6864 215.892 83.1435 205.118 88.5033 198.623C89.0357 197.977 88.9453 197.023 88.3074 196.493C87.6694 195.958 86.715 196.049 86.1876 196.69C80.6721 203.371 79.768 213.485 79.6725 218.259L77.5176 221.105L75.4983 218.264C75.4028 213.5 74.5037 203.377 68.9832 196.69C68.4508 196.044 67.5014 195.958 66.8634 196.493C66.2205 197.028 66.1351 197.982 66.6675 198.623C72.0273 205.118 72.4844 215.892 72.4994 219.036C72.4994 219.788 72.4793 220.217 72.4793 220.237V220.303C72.4793 220.868 72.3286 221.403 72.0674 221.872L70.8418 220.545C70.2742 219.929 69.3248 219.894 68.712 220.464C68.0991 221.034 68.064 221.988 68.6316 222.604L69.4453 223.482C69.0134 223.502 68.5763 223.437 68.1644 223.275C67.8731 223.164 67.6018 223.008 67.3658 222.826C67.3658 222.826 67.3658 222.826 67.3607 222.826C67.3607 222.826 67.3607 222.826 67.3557 222.821C56.4152 214.338 50.6185 205.91 50.1262 197.765C49.6591 190.049 54.3557 185.295 54.4009 185.254L55.3001 184.376L54.6019 183.327C52.3565 179.966 50.9098 176.241 50.287 172.254C50.0659 170.831 49.9554 169.383 49.9554 167.94C49.9554 161.505 52.2008 155.243 56.2746 150.297C59.9817 145.795 64.9044 142.641 70.5002 141.168C72.7657 140.572 75.1165 140.269 77.4925 140.269C88.0261 140.269 97.4797 146.164 102.166 155.651C104.065 159.487 105.029 163.62 105.029 167.94C105.029 169.413 104.914 170.887 104.683 172.335C104.065 176.251 102.638 179.915 100.448 183.226C99.9963 183.907 100.172 184.815 100.825 185.29C101.252 185.739 105.512 190.402 105.065 197.77L105.045 197.765Z" fill="#0E2C5E"/>
<path d="M23.4833 74.5381L77.5075 9.89687L131.522 74.5381L141.211 45.7173C141.558 44.6777 141.357 43.5321 140.684 42.7297C140.146 42.0838 139.358 41.7557 138.569 41.8466L117.813 43.2142L121.49 24.8296L121.511 24.7186C121.636 23.6992 121.274 22.6798 120.561 22.054C119.994 21.5544 119.27 21.3525 118.552 21.4888L100.137 23.1289L104.015 3.42214L104.025 3.35149C104.181 2.3119 103.824 1.26727 103.096 0.621307C102.473 0.0661869 101.669 -0.125582 100.926 0.0813266L77.5025 5.98579L54.1146 0.0863731C53.336 -0.130629 52.5323 0.0661869 51.9095 0.621307C51.1811 1.27231 50.8295 2.31695 50.9902 3.35654L54.8781 23.1289L36.4582 21.4888C35.7449 21.3525 35.0216 21.5493 34.4489 22.054C33.7406 22.6798 33.374 23.6992 33.4995 24.7186L37.1966 43.2142L16.4408 41.8466C15.6472 41.7557 14.8636 42.0838 14.3261 42.7297C13.658 43.5321 13.4571 44.6777 13.8037 45.7223L23.4934 74.5381H23.4833ZM100.991 3.17991L97.1331 22.7908L97.123 22.8615C96.9673 23.8909 97.3189 24.9305 98.0322 25.5765C98.6049 26.0963 99.3382 26.3082 100.067 26.1669L118.482 24.5268L114.81 42.8862L114.79 42.9972C114.669 43.9712 114.98 44.93 115.628 45.5659C116.161 46.0857 116.864 46.343 117.572 46.2573L138.308 44.8896L130.386 68.452L80.21 8.41823L100.991 3.17991ZM37.4427 46.2674C38.146 46.3531 38.8492 46.1008 39.3817 45.581C40.0297 44.9452 40.3461 43.9813 40.2256 43.0073L36.5335 24.5369L54.9485 26.177C55.6718 26.3183 56.4052 26.1064 56.9778 25.5866C57.6911 24.9406 58.0427 23.901 57.8971 22.8766L54.0242 3.19L74.8051 8.42327L24.6236 68.4671L16.702 44.9048L37.4427 46.2724V46.2674Z" fill="#0E2C5E"/>
<path d="M174.1 31.6821C174.1 32.2247 174.265 32.4358 174.853 32.4358H180.048C181.263 32.4358 181.599 32.7724 181.599 33.9884V36.7571C181.599 37.9731 181.263 38.3098 180.133 38.3098H174.858C174.27 38.3098 174.105 38.4756 174.105 39.0635V45.1837C174.105 45.7264 174.27 45.9374 174.858 45.9374H180.555C181.77 45.9374 182.106 46.2741 182.106 47.4901V50.2587C182.106 51.4747 181.77 51.8114 180.555 51.8114H169.873C168.658 51.8114 168.322 51.4747 168.322 50.2587V21.9138C168.322 20.6978 168.658 20.3612 169.873 20.3612H180.555C181.77 20.3612 182.106 20.6978 182.106 21.9138V24.6825C182.106 25.8985 181.77 26.2352 180.555 26.2352H174.858C174.27 26.2352 174.105 26.401 174.105 26.9889V31.6871L174.1 31.6821Z" fill="#0E2C5E"/>
<path d="M197.26 26.23C196.673 26.23 196.507 26.3958 196.507 26.9837V50.2586C196.507 51.4746 196.171 51.8112 194.956 51.8112H192.276C191.061 51.8112 190.725 51.4746 190.725 50.2586V26.9837C190.725 26.3958 190.559 26.23 189.972 26.23H187.376C186.162 26.23 185.825 25.8933 185.825 24.6773V21.9087C185.825 20.6927 186.162 20.356 187.376 20.356H199.86C201.075 20.356 201.411 20.6927 201.411 21.9087V24.6773C201.411 25.8933 201.075 26.23 199.86 26.23H197.26Z" fill="#0E2C5E"/>
<path d="M215.732 38.9327C215.732 38.3448 215.567 38.179 214.979 38.179H211.546C210.959 38.179 210.793 38.3448 210.793 38.9327V50.2536C210.793 51.4696 210.457 51.8062 209.242 51.8062H206.561C205.347 51.8062 205.01 51.4696 205.01 50.2536V21.9087C205.01 20.6927 205.347 20.356 206.561 20.356H209.242C210.457 20.356 210.793 20.6927 210.793 21.9087V31.5513C210.793 32.0939 210.959 32.305 211.546 32.305H214.979C215.567 32.305 215.732 32.0939 215.732 31.5513V21.9087C215.732 20.6927 216.069 20.356 217.283 20.356H219.964C221.178 20.356 221.515 20.6927 221.515 21.9087V50.2536C221.515 51.4696 221.178 51.8062 219.964 51.8062H217.283C216.069 51.8062 215.732 51.4696 215.732 50.2536V38.9327Z" fill="#0E2C5E"/>
<path d="M183.256 106.496C181.89 106.496 181.504 106.888 181.504 108.25V127.952C181.504 130.781 180.726 131.56 177.9 131.56H171.665C168.839 131.56 168.061 130.781 168.061 127.952V62.0267C168.061 59.1977 168.839 58.4189 171.665 58.4189H184.526C199.333 58.4189 206.055 63.7853 206.055 76.9503V87.9697C206.055 101.135 199.333 106.501 184.526 106.501H183.261L183.256 106.496ZM181.504 91.0901C181.504 92.4568 181.895 92.8437 183.256 92.8437H185.304C190.077 92.8437 192.221 90.8941 192.221 85.9196V78.9954C192.221 74.0209 190.077 72.0712 185.304 72.0712H183.256C181.89 72.0712 181.504 72.4632 181.504 73.8249V91.0901Z" fill="#0E2C5E"/>
<path d="M242.201 58.4188C245.027 58.4188 245.805 59.1977 245.805 62.0267V111.084C245.805 126.786 241.126 132.54 227.001 132.54C212.876 132.54 208.198 126.786 208.198 111.084V62.0267C208.198 59.1977 208.976 58.4188 211.802 58.4188H218.036C220.862 58.4188 221.64 59.1977 221.64 62.0267V113.425C221.64 117.325 223.297 118.887 226.996 118.887C230.696 118.887 232.357 117.325 232.357 113.425V62.0267C232.357 59.1977 233.135 58.4188 235.961 58.4188H242.201Z" fill="#0E2C5E"/>
<path d="M267.027 105.134C266.541 103.768 266.149 103.381 264.688 103.381H264.297C262.931 103.381 262.545 103.773 262.545 105.134V127.957C262.545 130.786 261.767 131.565 258.941 131.565H252.707C249.88 131.565 249.102 130.786 249.102 127.957V62.0267C249.102 59.1977 249.88 58.4188 252.707 58.4188H265.567C280.375 58.4188 287.096 63.4889 287.096 75.9755V82.9951C287.096 92.1604 285.635 95.6727 280.47 100.064C279.883 100.456 279.787 100.647 279.787 101.135C279.787 101.426 279.883 101.723 280.078 102.401L288.652 127.857C289.53 130.394 288.556 131.565 286.022 131.565H278.909C276.183 131.565 275.596 131.173 274.818 128.836L267.022 105.139L267.027 105.134ZM262.545 88.3566C262.545 89.7233 262.936 90.1102 264.297 90.1102H266.345C270.923 90.1102 273.262 88.0601 273.262 83.382V78.0206C273.262 73.438 271.118 71.5838 266.345 71.5838H264.297C262.931 71.5838 262.545 71.9758 262.545 73.3375V88.3566Z" fill="#0E2C5E"/>
<path d="M318.097 58.4188C322.479 58.4188 323.844 59.8811 324.331 63.4889L332.905 127.952C333.296 130.781 332.513 131.56 329.692 131.56H322.971C320.049 131.56 319.367 130.876 318.975 127.952L317.71 117.32C317.615 116.345 317.319 116.053 316.149 116.053H307.772C306.602 116.053 306.311 116.345 306.21 117.32L304.945 127.952C304.554 130.876 303.876 131.56 300.95 131.56H294.229C291.403 131.56 290.625 130.781 291.016 127.952L299.59 63.4889C300.077 59.8811 301.442 58.4188 305.824 58.4188H318.102H318.097ZM311.958 76.9503C310.889 76.9503 310.301 77.1463 310.206 78.317L307.967 101.039C307.872 102.21 308.163 102.501 309.428 102.501H314.493C315.758 102.501 316.054 102.21 315.953 101.039L313.715 78.317C313.619 77.1463 313.032 76.9503 311.963 76.9503H311.958Z" fill="#0E2C5E"/>
<path d="M182.718 210.635C177.654 210.635 176.193 209.173 175.606 204.59L168.106 141.102C167.815 138.273 168.884 137.494 171.71 137.494H178.823C181.649 137.494 182.231 138.273 182.427 141.102L186.714 191.134C186.809 192.305 187.201 192.596 188.079 192.596C188.958 192.596 189.344 192.305 189.445 191.134L193.731 141.102C193.927 138.273 194.509 137.494 197.335 137.494H204.448C207.274 137.494 208.343 138.273 208.052 141.102L200.548 204.59C199.966 209.173 198.5 210.635 193.435 210.635H182.718Z" fill="#0E2C5E"/>
<path d="M224.125 207.027C224.125 209.856 223.347 210.635 220.521 210.635H214.287C211.461 210.635 210.682 209.856 210.682 207.027V141.097C210.682 138.268 211.461 137.489 214.287 137.489H220.521C223.347 137.489 224.125 138.268 224.125 141.097V207.027Z" fill="#0E2C5E"/>
<path d="M265.778 187.225C265.778 203.806 261.978 210.63 243.27 210.63H231.383C228.557 210.63 227.779 209.851 227.779 207.022V141.092C227.779 138.263 228.557 137.484 231.383 137.484H243.27C261.978 137.484 265.778 144.313 265.778 160.89V187.225ZM241.227 152.895V195.224C241.227 196.49 241.618 196.978 242.979 196.978H244.048C249.504 196.978 251.939 194.44 251.939 188.104V160.015C251.939 153.674 249.504 151.141 244.048 151.141H242.979C241.613 151.141 241.227 151.533 241.227 152.895Z" fill="#0E2C5E"/>
<path d="M293.727 137.489C298.109 137.489 299.474 138.951 299.961 142.559L308.534 207.022C308.926 209.851 308.143 210.63 305.322 210.63H298.601C295.679 210.63 294.997 209.947 294.605 207.022L293.34 196.39C293.245 195.415 292.949 195.123 291.779 195.123H283.401C282.232 195.123 281.941 195.415 281.84 196.39L280.575 207.022C280.184 209.947 279.506 210.63 276.58 210.63H269.858C267.032 210.63 266.254 209.851 266.646 207.022L275.219 142.559C275.706 138.951 277.072 137.489 281.454 137.489H293.732H293.727ZM287.588 156.016C286.519 156.016 285.931 156.211 285.836 157.382L283.597 180.104C283.502 181.275 283.793 181.567 285.058 181.567H290.123C291.388 181.567 291.684 181.275 291.583 180.104L289.345 157.382C289.249 156.211 288.662 156.016 287.593 156.016H287.588Z" fill="#0E2C5E"/>
</svg>
