<svg width="184" height="684" viewBox="0 0 184 684" fill="none" xmlns="http://www.w3.org/2000/svg">
<g clip-path="url(#clip0_2280_2134)">
<path d="M183.453 356.108L139.868 319.969L183.453 283.832L183.453 290.441L147.839 319.972L183.453 349.503L183.453 356.112L183.453 356.108Z" fill="#0F2841"/>
<path d="M166.671 291.722L152.628 286.983C152.119 286.812 151.56 287.134 151.624 287.558L152.374 298.983C152.428 299.351 152.009 299.655 151.537 299.595L141.556 297.592C141.057 297.528 140.632 297.869 140.729 298.254L141.63 308.421C141.731 308.809 141.289 309.153 140.783 309.08L130.106 306.973C129.597 306.896 129.152 307.247 129.262 307.638L132.467 320.404L166.671 291.725L166.671 291.722Z" fill="#0F2841"/>
<path d="M166.711 348.647L152.668 353.386C152.159 353.557 151.6 353.236 151.664 352.811L152.414 341.386C152.468 341.018 152.049 340.714 151.577 340.774L141.596 342.778C141.097 342.841 140.672 342.5 140.769 342.115L141.67 331.948C141.771 331.56 141.329 331.216 140.823 331.289L130.146 333.396C129.637 333.473 129.192 333.122 129.302 332.731L132.507 319.965L166.711 348.644L166.711 348.647Z" fill="#0F2841"/>
<path d="M129.285 277.224L164.899 247.692L129.285 218.161L129.285 211.552L172.87 247.692L129.285 283.832L129.285 277.224Z" fill="#E93334"/>
<path d="M146.027 276.371L160.07 281.11C160.579 281.28 161.138 280.959 161.075 280.535L160.324 269.11C160.271 268.742 160.689 268.438 161.162 268.498L171.142 270.501C171.641 270.565 172.066 270.224 171.969 269.839L171.068 259.672C170.968 259.284 171.41 258.94 171.915 259.013L182.592 261.12C183.101 261.197 183.547 260.846 183.436 260.455L180.231 247.689L146.027 276.367L146.027 276.371Z" fill="#E93334"/>
<path d="M146.027 219.017L160.07 214.278C160.579 214.108 161.138 214.429 161.075 214.853L160.324 226.278C160.271 226.646 160.689 226.95 161.162 226.89L171.142 224.887C171.641 224.823 172.066 225.164 171.969 225.549L171.068 235.716C170.968 236.104 171.41 236.448 171.915 236.375L182.592 234.268C183.101 234.191 183.547 234.542 183.436 234.933L180.231 247.699L146.027 219.021L146.027 219.017Z" fill="#E93334"/>
<path d="M183.453 211.556L139.868 175.416L183.453 139.276L183.453 145.885L147.839 175.416L183.453 204.947L183.453 211.556Z" fill="#0F2841"/>
<path d="M166.711 146.738L152.668 141.999C152.159 141.828 151.6 142.149 151.664 142.574L152.414 153.998C152.468 154.366 152.049 154.671 151.577 154.61L141.596 152.607C141.097 152.544 140.672 152.885 140.769 153.269L141.67 163.436C141.771 163.824 141.329 164.169 140.823 164.095L130.146 161.988C129.637 161.911 129.192 162.263 129.302 162.654L132.507 175.419L166.711 146.741L166.711 146.738Z" fill="#0F2841"/>
<path d="M166.711 204.094L152.668 208.834C152.159 209.004 151.6 208.683 151.664 208.258L152.414 196.834C152.468 196.466 152.049 196.162 151.577 196.222L141.596 198.225C141.097 198.289 140.672 197.947 140.769 197.563L141.67 187.396C141.771 187.008 141.329 186.663 140.823 186.737L130.146 188.844C129.637 188.921 129.192 188.57 129.302 188.178L132.507 175.413L166.711 204.091L166.711 204.094Z" fill="#0F2841"/>
<path d="M129.285 132.671L164.899 103.14L129.285 73.6086L129.285 67L172.867 103.14L129.282 139.28L129.282 132.671L129.285 132.671Z" fill="#0F2841"/>
<path d="M146.027 131.815L160.07 136.554C160.579 136.725 161.138 136.403 161.075 135.979L160.324 124.554C160.271 124.186 160.689 123.882 161.162 123.942L171.142 125.945C171.641 126.009 172.066 125.668 171.969 125.283L171.068 115.116C170.968 114.728 171.41 114.384 171.915 114.457L182.592 116.564C183.101 116.641 183.547 116.29 183.436 115.899L180.231 103.133L146.027 131.812L146.027 131.815Z" fill="#0F2841"/>
<path d="M146.027 74.4614L160.07 69.7223C160.579 69.5517 161.138 69.8728 161.075 70.2975L160.324 81.7221C160.271 82.09 160.689 82.3943 161.162 82.3341L171.142 80.3308C171.641 80.2673 172.066 80.6084 171.969 80.993L171.068 91.16C170.968 91.548 171.41 91.8925 171.915 91.8189L182.592 89.7119C183.101 89.635 183.547 89.9862 183.436 90.3775L180.231 103.143L146.027 74.4614Z" fill="#0F2841"/>
<path d="M129.245 566.335L164.859 536.804L129.245 507.273L129.245 500.664L172.83 536.804L129.245 572.944L129.245 566.335Z" fill="#0F2841"/>
<path d="M145.99 565.479L160.033 570.218C160.542 570.389 161.101 570.068 161.038 569.643L160.288 558.219C160.234 557.851 160.653 557.546 161.125 557.606L171.105 559.61C171.604 559.673 172.029 559.332 171.932 558.948L171.031 548.781C170.931 548.393 171.373 548.048 171.879 548.122L182.555 550.229C183.064 550.306 183.51 549.954 183.399 549.563L180.194 536.797L145.99 565.476L145.99 565.479Z" fill="#0F2841"/>
<path d="M145.99 508.126L160.033 503.387C160.542 503.216 161.101 503.537 161.038 503.962L160.288 515.386C160.234 515.754 160.653 516.059 161.125 515.998L171.105 513.995C171.604 513.932 172.029 514.273 171.932 514.657L171.031 524.824C170.931 525.212 171.373 525.557 171.879 525.483L182.555 523.376C183.064 523.299 183.51 523.65 183.399 524.042L180.194 536.807L145.99 508.129L145.99 508.126Z" fill="#0F2841"/>
<path d="M183.416 500.664L139.831 464.524L183.416 428.388L183.416 434.997L147.802 464.528L183.416 494.056L183.416 500.664Z" fill="#0F2841"/>
<path d="M166.671 435.849L152.628 431.11C152.119 430.94 151.56 431.261 151.624 431.686L152.374 443.11C152.427 443.478 152.009 443.782 151.536 443.722L141.556 441.719C141.057 441.655 140.632 441.996 140.729 442.381L141.63 452.548C141.73 452.936 141.288 453.281 140.783 453.207L130.106 451.1C129.597 451.023 129.151 451.374 129.262 451.766L132.467 464.531L166.671 435.853L166.671 435.849Z" fill="#0F2841"/>
<path d="M166.671 493.203L152.628 497.942C152.119 498.112 151.56 497.791 151.624 497.367L152.374 485.942C152.427 485.574 152.009 485.27 151.536 485.33L141.556 487.333C141.057 487.397 140.632 487.056 140.729 486.671L141.63 476.504C141.73 476.116 141.288 475.772 140.783 475.845L130.106 477.952C129.597 478.029 129.151 477.678 129.262 477.287L132.467 464.521L166.671 493.2L166.671 493.203Z" fill="#0F2841"/>
<path d="M129.245 421.779L164.859 392.248L129.245 362.717L129.245 356.108L172.83 392.248L129.245 428.388L129.245 421.779Z" fill="#0F2841"/>
<path d="M145.99 420.927L160.033 425.666C160.542 425.836 161.101 425.515 161.038 425.09L160.288 413.666C160.234 413.298 160.653 412.994 161.125 413.054L171.105 415.057C171.604 415.121 172.029 414.78 171.932 414.395L171.031 404.228C170.931 403.84 171.373 403.495 171.879 403.569L182.555 405.676C183.064 405.753 183.51 405.402 183.399 405.011L180.194 392.245L145.99 420.923L145.99 420.927Z" fill="#0F2841"/>
<path d="M145.99 363.57L160.033 358.831C160.542 358.66 161.101 358.981 161.038 359.406L160.288 370.831C160.234 371.198 160.653 371.503 161.125 371.443L171.105 369.439C171.604 369.376 172.029 369.717 171.932 370.102L171.031 380.269C170.931 380.657 171.373 381.001 171.879 380.927L182.555 378.82C183.064 378.743 183.51 379.095 183.399 379.486L180.194 392.252L145.99 363.573L145.99 363.57Z" fill="#0F2841"/>
</g>
<g clip-path="url(#clip1_2280_2134)">
<path d="M65.099 394.627L108.684 430.766L65.099 466.903L65.099 460.294L100.713 430.763L65.099 401.232L65.099 394.623L65.099 394.627Z" fill="#0F2841"/>
<path d="M81.8409 459.442L95.8836 464.181C96.3926 464.351 96.9519 464.03 96.8883 463.605L96.1381 452.181C96.0845 451.813 96.5031 451.509 96.9754 451.569L106.956 453.572C107.455 453.636 107.88 453.295 107.783 452.91L106.882 442.743C106.781 442.355 107.223 442.01 107.729 442.084L118.406 444.191C118.915 444.268 119.36 443.917 119.25 443.526L116.045 430.76L81.8409 459.438L81.8409 459.442Z" fill="#0F2841"/>
<path d="M81.8409 402.088L95.8836 397.349C96.3926 397.179 96.9519 397.5 96.8883 397.924L96.1381 409.349C96.0845 409.717 96.5031 410.021 96.9754 409.961L106.956 407.958C107.455 407.894 107.88 408.235 107.783 408.62L106.882 418.787C106.781 419.175 107.223 419.519 107.729 419.446L118.406 417.339C118.915 417.262 119.36 417.613 119.25 418.004L116.045 430.77L81.8409 402.091L81.8409 402.088Z" fill="#0F2841"/>
<path d="M119.267 473.512L83.6528 503.043L119.267 532.574L119.267 539.183L75.682 503.043L119.267 466.903L119.267 473.512Z" fill="#0F2841"/>
<path d="M102.525 474.364L88.4822 469.625C87.9731 469.455 87.4138 469.776 87.4774 470.201L88.2276 481.625C88.2812 481.993 87.8626 482.297 87.3904 482.237L77.4102 480.234C76.9111 480.17 76.4858 480.511 76.5829 480.896L77.4838 491.063C77.5843 491.451 77.1422 491.796 76.6365 491.722L65.9597 489.615C65.4507 489.538 65.0052 489.889 65.1158 490.28L68.3208 503.046L102.525 474.368L102.525 474.364Z" fill="#0F2841"/>
<path d="M102.525 531.718L88.4822 536.457C87.9731 536.627 87.4138 536.306 87.4774 535.882L88.2276 524.457C88.2812 524.089 87.8626 523.785 87.3904 523.845L77.4102 525.848C76.9111 525.912 76.4858 525.571 76.5829 525.186L77.4838 515.019C77.5843 514.631 77.1422 514.287 76.6365 514.36L65.9597 516.467C65.4507 516.544 65.0052 516.193 65.1158 515.802L68.3208 503.036L102.525 531.715L102.525 531.718Z" fill="#0F2841"/>
<path d="M65.099 539.179L108.684 575.319L65.099 611.459L65.099 604.85L100.713 575.319L65.099 545.788L65.099 539.179Z" fill="#0F2841"/>
<path d="M81.8409 603.997L95.8836 608.736C96.3926 608.907 96.9519 608.586 96.8883 608.161L96.1381 596.737C96.0845 596.369 96.5031 596.064 96.9754 596.125L106.956 598.128C107.455 598.191 107.88 597.85 107.783 597.466L106.882 587.299C106.781 586.911 107.223 586.566 107.729 586.64L118.406 588.747C118.915 588.824 119.36 588.473 119.25 588.081L116.045 575.316L81.8409 603.994L81.8409 603.997Z" fill="#0F2841"/>
<path d="M81.8409 546.641L95.8836 541.902C96.3926 541.731 96.9519 542.052 96.8883 542.477L96.1381 553.901C96.0845 554.269 96.5031 554.574 96.9754 554.513L106.956 552.51C107.455 552.447 107.88 552.788 107.783 553.172L106.882 563.339C106.781 563.727 107.223 564.072 107.729 563.998L118.406 561.891C118.915 561.814 119.36 562.165 119.25 562.557L116.045 575.322L81.8409 546.644L81.8409 546.641Z" fill="#0F2841"/>
<path d="M119.267 618.064L83.6528 647.595L119.267 677.127L119.267 683.735L75.6854 647.595L119.27 611.455L119.27 618.064L119.267 618.064Z" fill="#0F2841"/>
<path d="M102.525 618.92L88.4822 614.181C87.9731 614.011 87.4138 614.332 87.4774 614.756L88.2276 626.181C88.2812 626.549 87.8626 626.853 87.3904 626.793L77.4102 624.79C76.9111 624.726 76.4858 625.067 76.5829 625.452L77.4838 635.619C77.5843 636.007 77.1422 636.351 76.6365 636.278L65.9597 634.171C65.4507 634.094 65.0052 634.445 65.1158 634.836L68.3208 647.602L102.525 618.924L102.525 618.92Z" fill="#0F2841"/>
<path d="M102.525 676.274L88.4822 681.013C87.9731 681.183 87.4138 680.862 87.4774 680.438L88.2276 669.013C88.2812 668.645 87.8626 668.341 87.3904 668.401L77.4102 670.404C76.9111 670.468 76.4858 670.127 76.5829 669.742L77.4838 659.575C77.5843 659.187 77.1422 658.843 76.6365 658.916L65.9597 661.023C65.4507 661.1 65.0052 660.749 65.1158 660.358L68.3208 647.592L102.525 676.274Z" fill="#0F2841"/>
<path d="M119.307 184.4L83.693 213.931L119.307 243.462L119.307 250.071L75.7222 213.931L119.307 177.791L119.307 184.4Z" fill="#0F2841"/>
<path d="M102.562 185.256L88.519 180.517C88.01 180.346 87.4507 180.667 87.5143 181.092L88.2645 192.517C88.3181 192.884 87.8994 193.189 87.4272 193.129L77.447 191.125C76.948 191.062 76.5227 191.403 76.6198 191.788L77.5207 201.955C77.6212 202.342 77.1791 202.687 76.6734 202.613L65.9966 200.506C65.4875 200.429 65.0421 200.781 65.1526 201.172L68.3577 213.938L102.562 185.259L102.562 185.256Z" fill="#0F2841"/>
<path d="M102.562 242.609L88.519 247.348C88.01 247.519 87.4507 247.198 87.5143 246.773L88.2645 235.349C88.3181 234.981 87.8994 234.676 87.4272 234.737L77.447 236.74C76.948 236.804 76.5227 236.462 76.6198 236.078L77.5207 225.911C77.6212 225.523 77.1791 225.178 76.6734 225.252L65.9966 227.359C65.4875 227.436 65.0421 227.085 65.1526 226.693L68.3577 213.928L102.562 242.606L102.562 242.609Z" fill="#0F2841"/>
<path d="M65.099 249.751L108.684 285.89L65.099 322.027L65.099 315.418L100.713 285.887L65.099 256.359L65.099 249.751Z" fill="#0F2841"/>
<path d="M81.8812 314.886L95.9238 319.625C96.4328 319.795 96.9921 319.474 96.9285 319.049L96.1783 307.625C96.1247 307.257 96.5434 306.953 97.0156 307.013L106.996 309.016C107.495 309.08 107.92 308.739 107.823 308.354L106.922 298.187C106.822 297.799 107.264 297.455 107.769 297.528L118.446 299.635C118.955 299.712 119.401 299.361 119.29 298.97L116.085 286.204L81.8812 314.882L81.8812 314.886Z" fill="#0F2841"/>
<path d="M81.8812 257.532L95.9238 252.793C96.4328 252.623 96.9921 252.944 96.9285 253.368L96.1783 264.793C96.1247 265.161 96.5434 265.465 97.0156 265.405L106.996 263.402C107.495 263.338 107.92 263.679 107.823 264.064L106.922 274.231C106.822 274.619 107.264 274.963 107.769 274.89L118.446 272.783C118.955 272.706 119.401 273.057 119.29 273.448L116.085 286.214L81.8812 257.536L81.8812 257.532Z" fill="#0F2841"/>
<path d="M119.307 328.956L83.693 358.487L119.307 388.018L119.307 394.627L75.7222 358.487L119.307 322.347L119.307 328.956Z" fill="#0F2841"/>
<path d="M102.562 329.808L88.519 325.069C88.01 324.899 87.4507 325.22 87.5143 325.645L88.2645 337.069C88.3181 337.437 87.8994 337.741 87.4272 337.681L77.447 335.678C76.948 335.614 76.5227 335.956 76.6198 336.34L77.5207 346.507C77.6212 346.895 77.1791 347.24 76.6734 347.166L65.9966 345.059C65.4875 344.982 65.0421 345.333 65.1526 345.725L68.3577 358.49L102.562 329.812L102.562 329.808Z" fill="#0F2841"/>
<path d="M102.562 387.165L88.519 391.904C88.01 392.075 87.4507 391.754 87.5143 391.329L88.2645 379.905C88.3181 379.537 87.8994 379.232 87.4272 379.292L77.447 381.296C76.948 381.359 76.5227 381.018 76.6198 380.634L77.5207 370.467C77.6212 370.079 77.1791 369.734 76.6734 369.808L65.9966 371.915C65.4875 371.992 65.0421 371.64 65.1526 371.249L68.3577 358.483L102.562 387.162L102.562 387.165Z" fill="#0F2841"/>
</g>
<g clip-path="url(#clip2_2280_2134)">
<path d="M54 289.142L10.5825 252.998L54 216.858L54 223.467L18.5227 253.002L54 282.536L54 289.146L54 289.142Z" fill="#0F2841"/>
<path d="M37.3223 224.32L23.3335 219.58C22.8264 219.41 22.2693 219.731 22.3327 220.156L23.08 231.581C23.1333 231.949 22.7163 232.254 22.2459 232.194L12.304 230.19C11.8069 230.126 11.3832 230.468 11.4799 230.852L12.3774 241.02C12.4775 241.408 12.0371 241.753 11.5333 241.679L0.897472 239.572C0.390369 239.495 -0.0533494 239.846 0.0567427 240.238L3.2495 253.005L37.3223 224.323L37.3223 224.32Z" fill="#0F2841"/>
<path d="M37.3223 281.68L23.3335 286.42C22.8264 286.59 22.2693 286.269 22.3327 285.844L23.08 274.419C23.1333 274.051 22.7163 273.746 22.2459 273.806L12.304 275.81C11.8069 275.874 11.3832 275.532 11.4799 275.148L12.3774 264.979C12.4775 264.591 12.0371 264.247 11.5333 264.321L0.897472 266.428C0.390369 266.505 -0.0533491 266.153 0.0567431 265.762L3.2495 252.995L37.3223 281.677L37.3223 281.68Z" fill="#0F2841"/>
<path d="M0.0400743 210.248L35.5174 180.714L0.0400769 151.179L0.0400772 144.569L43.4576 180.714L0.040074 216.858L0.0400743 210.248Z" fill="#0F2841"/>
<path d="M16.7178 209.395L30.7065 214.135C31.2136 214.306 31.7708 213.984 31.7074 213.56L30.9601 202.134C30.9067 201.766 31.3237 201.461 31.7941 201.522L41.7361 203.525C42.2332 203.589 42.6569 203.248 42.5601 202.863L41.6627 192.695C41.5626 192.307 42.003 191.962 42.5067 192.036L53.1426 194.143C53.6497 194.22 54.0934 193.869 53.9833 193.477L50.7906 180.71L16.7178 209.392L16.7178 209.395Z" fill="#0F2841"/>
<path d="M16.7178 152.035L30.7065 147.296C31.2136 147.125 31.7708 147.446 31.7074 147.871L30.9601 159.297C30.9067 159.665 31.3237 159.969 31.7941 159.909L41.7361 157.905C42.2332 157.842 42.6569 158.183 42.5601 158.568L41.6627 168.736C41.5626 169.124 42.003 169.468 42.5067 169.395L53.1426 167.288C53.6497 167.211 54.0934 167.562 53.9833 167.953L50.7906 180.72L16.7178 152.038L16.7178 152.035Z" fill="#0F2841"/>
<path d="M54 144.573L10.5825 108.429L54 72.2848L54 78.8941L18.5227 108.429L54 137.964L54 144.573Z" fill="#0F2841"/>
<path d="M37.3223 79.7471L23.3335 75.0075C22.8264 74.8369 22.2693 75.158 22.3327 75.5828L23.08 87.0087C23.1333 87.3766 22.7163 87.681 22.2459 87.6208L12.304 85.6172C11.8069 85.5537 11.3832 85.8948 11.4799 86.2795L12.3774 96.4477C12.4775 96.8357 12.0371 97.1802 11.5333 97.1067L0.897472 94.9994C0.390369 94.9225 -0.0533494 95.2737 0.0567427 95.665L3.2495 108.432L37.3223 79.7504L37.3223 79.7471Z" fill="#0F2841"/>
<path d="M37.3223 137.111L23.3335 141.85C22.8264 142.021 22.2693 141.7 22.3327 141.275L23.08 129.849C23.1333 129.481 22.7163 129.177 22.2459 129.237L12.304 131.24C11.8069 131.304 11.3832 130.963 11.4799 130.578L12.3774 120.41C12.4775 120.022 12.0371 119.677 11.5333 119.751L0.897472 121.858C0.390369 121.935 -0.0533491 121.584 0.0567431 121.193L3.2495 108.425L37.3223 137.107L37.3223 137.111Z" fill="#0F2841"/>
<path d="M0.0400515 65.6788L35.5174 36.1441L0.040054 6.60935L0.0400543 -1.89769e-06L43.4542 36.1441L0.0367171 72.2881L0.0367174 65.6788L0.0400515 65.6788Z" fill="#0F2841"/>
<path d="M16.7178 64.8224L30.7065 69.562C31.2136 69.7326 31.7708 69.4115 31.7074 68.9867L30.9601 57.5609C30.9067 57.1929 31.3237 56.8885 31.7941 56.9488L41.7361 58.9523C42.2332 59.0159 42.6569 58.6747 42.5601 58.29L41.6627 48.1218C41.5626 47.7338 42.003 47.3893 42.5067 47.4629L53.1426 49.5701C53.6497 49.647 54.0934 49.2958 53.9833 48.9045L50.7906 36.1373L16.7178 64.8191L16.7178 64.8224Z" fill="#0F2841"/>
<path d="M16.7178 7.46228L30.7065 2.72268C31.2136 2.55209 31.7708 2.8732 31.7074 3.29799L30.9601 14.7239C30.9067 15.0918 31.3237 15.3962 31.7941 15.336L41.7361 13.3324C42.2332 13.2689 42.6569 13.61 42.5601 13.9947L41.6627 24.1629C41.5626 24.5509 42.003 24.8954 42.5067 24.8219L53.1426 22.7146C53.6497 22.6377 54.0934 22.9889 53.9833 23.3802L50.7906 36.1474L16.7178 7.46228Z" fill="#0F2841"/>
<path d="M-2.57591e-05 499.394L35.4773 469.859L-2.31771e-05 440.325L-2.28882e-05 433.715L43.4175 469.859L-2.6048e-05 506.003L-2.57591e-05 499.394Z" fill="#0F2841"/>
<path d="M16.681 498.538L30.6698 503.277C31.1769 503.448 31.734 503.127 31.6707 502.702L30.9234 491.276C30.87 490.908 31.287 490.604 31.7574 490.664L41.6993 492.668C42.1964 492.731 42.6201 492.39 42.5234 492.005L41.6259 481.837C41.5258 481.449 41.9662 481.104 42.47 481.178L53.1058 483.285C53.6129 483.362 54.0567 483.011 53.9466 482.62L50.7538 469.853L16.681 498.534L16.681 498.538Z" fill="#0F2841"/>
<path d="M16.6811 441.178L30.6699 436.438C31.177 436.267 31.7341 436.588 31.6707 437.013L30.9234 448.439C30.87 448.807 31.2871 449.111 31.7575 449.051L41.6994 447.048C42.1965 446.984 42.6202 447.325 42.5234 447.71L41.626 457.878C41.5259 458.266 41.9663 458.611 42.47 458.537L53.1059 456.43C53.613 456.353 54.0567 456.704 53.9466 457.095L50.7539 469.863L16.6811 441.181L16.6811 441.178Z" fill="#0F2841"/>
<path d="M53.9633 433.606L10.5458 397.462L53.9633 361.321L53.9633 367.931L18.486 397.465L53.9633 426.997L53.9633 433.606Z" fill="#0F2841"/>
<path d="M37.2822 368.893L23.2935 364.153C22.7864 363.983 22.2292 364.304 22.2926 364.728L23.0399 376.154C23.0933 376.522 22.6763 376.827 22.2059 376.766L12.2639 374.763C11.7669 374.699 11.3432 375.04 11.4399 375.425L12.3373 385.593C12.4374 385.981 11.9971 386.326 11.4933 386.252L0.857432 384.145C0.350329 384.068 -0.0933885 384.419 0.0167037 384.811L3.20946 397.578L37.2822 368.896L37.2822 368.893Z" fill="#0F2841"/>
<path d="M37.2822 426.144L23.2935 430.884C22.7864 431.054 22.2292 430.733 22.2926 430.308L23.0399 418.882C23.0933 418.514 22.6763 418.21 22.2059 418.27L12.2639 420.274C11.7669 420.337 11.3432 419.996 11.4399 419.612L12.3373 409.443C12.4374 409.055 11.9971 408.711 11.4933 408.784L0.857433 410.892C0.35033 410.969 -0.0933882 410.617 0.016704 410.226L3.20946 397.459L37.2822 426.141L37.2822 426.144Z" fill="#0F2841"/>
<path d="M3.52761e-05 354.821L35.4773 325.286L3.78581e-05 295.752L3.8147e-05 289.142L43.4175 325.286L3.49872e-05 361.43L3.52761e-05 354.821Z" fill="#E93334"/>
<path d="M16.6811 353.968L30.6699 358.708C31.177 358.878 31.7341 358.557 31.6707 358.132L30.9234 346.707C30.87 346.339 31.2871 346.034 31.7575 346.095L41.6994 348.098C42.1965 348.162 42.6202 347.82 42.5234 347.436L41.626 337.268C41.5259 336.88 41.9663 336.535 42.47 336.609L53.1059 338.716C53.613 338.793 54.0567 338.442 53.9466 338.05L50.7539 325.283L16.6811 353.965L16.6811 353.968Z" fill="#E93334"/>
<path d="M16.6811 296.605L30.6699 291.865C31.177 291.694 31.7341 292.016 31.6707 292.44L30.9234 303.866C30.87 304.234 31.2871 304.538 31.7575 304.478L41.6994 302.475C42.1965 302.411 42.6202 302.752 42.5234 303.137L41.626 313.305C41.5259 313.693 41.9663 314.038 42.47 313.964L53.1059 311.857C53.613 311.78 54.0567 312.131 53.9466 312.523L50.7539 325.29L16.6811 296.608L16.6811 296.605Z" fill="#E93334"/>
</g>
<defs>
<clipPath id="clip0_2280_2134">
<rect width="505.941" height="54.2079" fill="white" transform="translate(183.453 67) rotate(90)"/>
</clipPath>
<clipPath id="clip1_2280_2134">
<rect width="505.941" height="54.2079" fill="white" transform="translate(65.099 683.735) rotate(-90)"/>
</clipPath>
<clipPath id="clip2_2280_2134">
<rect width="506" height="54" fill="white" transform="translate(54) rotate(90)"/>
</clipPath>
</defs>
</svg>
