<svg width="313" height="1012" viewBox="0 0 313 1012" fill="none" xmlns="http://www.w3.org/2000/svg">
<g clip-path="url(#clip0_2246_4351)">
<path d="M248.453 612.108L204.868 575.969L248.453 539.832L248.453 546.441L212.839 575.972L248.453 605.503L248.453 612.112L248.453 612.108Z" fill="#0F2841"/>
<path d="M231.671 547.722L217.628 542.983C217.119 542.812 216.56 543.134 216.624 543.558L217.374 554.983C217.428 555.351 217.009 555.655 216.537 555.595L206.556 553.592C206.057 553.528 205.632 553.869 205.729 554.254L206.63 564.421C206.731 564.809 206.289 565.153 205.783 565.08L195.106 562.973C194.597 562.896 194.152 563.247 194.262 563.638L197.467 576.404L231.671 547.725L231.671 547.722Z" fill="#0F2841"/>
<path d="M231.711 604.647L217.668 609.386C217.159 609.557 216.6 609.236 216.664 608.811L217.414 597.386C217.468 597.018 217.049 596.714 216.577 596.774L206.596 598.778C206.097 598.841 205.672 598.5 205.769 598.115L206.67 587.948C206.771 587.56 206.329 587.216 205.823 587.289L195.146 589.396C194.637 589.473 194.192 589.122 194.302 588.731L197.507 575.965L231.711 604.644L231.711 604.647Z" fill="#0F2841"/>
<path d="M194.285 533.224L229.899 503.692L194.285 474.161L194.285 467.553L237.87 503.692L194.285 539.832L194.285 533.224Z" fill="#E93334"/>
<path d="M211.027 532.371L225.07 537.11C225.579 537.28 226.138 536.959 226.075 536.535L225.324 525.11C225.271 524.742 225.689 524.438 226.162 524.498L236.142 526.501C236.641 526.565 237.066 526.224 236.969 525.839L236.068 515.672C235.968 515.284 236.41 514.94 236.915 515.013L247.592 517.12C248.101 517.197 248.547 516.846 248.436 516.455L245.231 503.689L211.027 532.367L211.027 532.371Z" fill="#E93334"/>
<path d="M211.027 475.017L225.07 470.278C225.579 470.108 226.138 470.429 226.075 470.853L225.324 482.278C225.271 482.646 225.689 482.95 226.162 482.89L236.142 480.887C236.641 480.823 237.066 481.164 236.969 481.549L236.068 491.716C235.968 492.104 236.41 492.448 236.915 492.375L247.592 490.268C248.101 490.191 248.547 490.542 248.436 490.933L245.231 503.699L211.027 475.021L211.027 475.017Z" fill="#E93334"/>
<path d="M248.453 467.556L204.868 431.416L248.453 395.276L248.453 401.885L212.839 431.416L248.453 460.947L248.453 467.556Z" fill="#0F2841"/>
<path d="M231.711 402.738L217.668 397.999C217.159 397.828 216.6 398.149 216.664 398.574L217.414 409.998C217.468 410.366 217.049 410.671 216.577 410.61L206.596 408.607C206.097 408.544 205.672 408.885 205.769 409.269L206.67 419.436C206.771 419.824 206.329 420.169 205.823 420.095L195.146 417.988C194.637 417.911 194.192 418.262 194.302 418.654L197.507 431.419L231.711 402.741L231.711 402.738Z" fill="#0F2841"/>
<path d="M231.711 460.094L217.668 464.834C217.159 465.004 216.6 464.683 216.664 464.258L217.414 452.834C217.468 452.466 217.049 452.162 216.577 452.222L206.596 454.225C206.097 454.289 205.672 453.947 205.769 453.563L206.67 443.396C206.771 443.008 206.329 442.663 205.823 442.737L195.146 444.844C194.637 444.921 194.192 444.57 194.302 444.178L197.507 431.413L231.711 460.091L231.711 460.094Z" fill="#0F2841"/>
<path d="M194.285 388.671L229.899 359.14L194.285 329.609L194.285 323L237.867 359.14L194.282 395.28L194.282 388.671L194.285 388.671Z" fill="#0F2841"/>
<path d="M211.027 387.815L225.07 392.554C225.579 392.724 226.138 392.403 226.075 391.979L225.324 380.554C225.271 380.186 225.689 379.882 226.162 379.942L236.142 381.945C236.641 382.009 237.066 381.668 236.969 381.283L236.068 371.116C235.968 370.728 236.41 370.384 236.915 370.457L247.592 372.564C248.101 372.641 248.547 372.29 248.436 371.899L245.231 359.133L211.027 387.812L211.027 387.815Z" fill="#0F2841"/>
<path d="M211.027 330.461L225.07 325.722C225.579 325.552 226.138 325.873 226.075 326.298L225.324 337.722C225.271 338.09 225.689 338.394 226.162 338.334L236.142 336.331C236.641 336.267 237.066 336.608 236.969 336.993L236.068 347.16C235.968 347.548 236.41 347.893 236.915 347.819L247.592 345.712C248.101 345.635 248.547 345.986 248.436 346.377L245.231 359.143L211.027 330.461Z" fill="#0F2841"/>
<path d="M194.245 822.335L229.859 792.804L194.245 763.273L194.245 756.664L237.83 792.804L194.245 828.944L194.245 822.335Z" fill="#0F2841"/>
<path d="M210.99 821.479L225.033 826.218C225.542 826.389 226.101 826.068 226.038 825.643L225.288 814.218C225.234 813.851 225.653 813.546 226.125 813.606L236.105 815.61C236.604 815.673 237.029 815.332 236.932 814.948L236.031 804.781C235.931 804.393 236.373 804.048 236.879 804.122L247.555 806.229C248.064 806.306 248.51 805.954 248.399 805.563L245.194 792.797L210.99 821.476L210.99 821.479Z" fill="#0F2841"/>
<path d="M210.99 764.126L225.033 759.387C225.542 759.216 226.101 759.537 226.038 759.962L225.288 771.386C225.234 771.754 225.653 772.059 226.125 771.998L236.105 769.995C236.604 769.932 237.029 770.273 236.932 770.657L236.031 780.824C235.931 781.212 236.373 781.557 236.879 781.483L247.555 779.376C248.064 779.299 248.51 779.65 248.399 780.042L245.194 792.807L210.99 764.129L210.99 764.126Z" fill="#0F2841"/>
<path d="M248.416 756.664L204.831 720.524L248.416 684.388L248.416 690.997L212.802 720.528L248.416 750.056L248.416 756.664Z" fill="#0F2841"/>
<path d="M231.671 691.849L217.628 687.11C217.119 686.94 216.56 687.261 216.624 687.686L217.374 699.11C217.427 699.478 217.009 699.782 216.536 699.722L206.556 697.719C206.057 697.655 205.632 697.996 205.729 698.381L206.63 708.548C206.73 708.936 206.288 709.281 205.783 709.207L195.106 707.1C194.597 707.023 194.151 707.374 194.262 707.766L197.467 720.531L231.671 691.853L231.671 691.849Z" fill="#0F2841"/>
<path d="M231.671 749.203L217.628 753.942C217.119 754.113 216.56 753.791 216.624 753.367L217.374 741.942C217.427 741.574 217.009 741.27 216.536 741.33L206.556 743.333C206.057 743.397 205.632 743.056 205.729 742.671L206.63 732.504C206.73 732.116 206.288 731.772 205.783 731.845L195.106 733.952C194.597 734.029 194.151 733.678 194.262 733.287L197.467 720.521L231.671 749.2L231.671 749.203Z" fill="#0F2841"/>
<path d="M194.245 677.779L229.859 648.248L194.245 618.717L194.245 612.108L237.83 648.248L194.245 684.388L194.245 677.779Z" fill="#0F2841"/>
<path d="M210.99 676.927L225.033 681.666C225.542 681.836 226.101 681.515 226.038 681.09L225.288 669.666C225.234 669.298 225.653 668.994 226.125 669.054L236.105 671.057C236.604 671.121 237.029 670.78 236.932 670.395L236.031 660.228C235.931 659.84 236.373 659.496 236.879 659.569L247.555 661.676C248.064 661.753 248.51 661.402 248.399 661.011L245.194 648.245L210.99 676.923L210.99 676.927Z" fill="#0F2841"/>
<path d="M210.99 619.57L225.033 614.831C225.542 614.66 226.101 614.981 226.038 615.406L225.288 626.831C225.234 627.198 225.653 627.503 226.125 627.443L236.105 625.439C236.604 625.376 237.029 625.717 236.932 626.101L236.031 636.269C235.931 636.656 236.373 637.001 236.879 636.927L247.555 634.82C248.064 634.743 248.51 635.095 248.399 635.486L245.194 648.252L210.99 619.573L210.99 619.57Z" fill="#0F2841"/>
</g>
<g clip-path="url(#clip1_2246_4351)">
<path d="M130.099 575.627L173.684 611.767L130.099 647.903L130.099 641.294L165.713 611.763L130.099 582.232L130.099 575.623L130.099 575.627Z" fill="#0F2841"/>
<path d="M146.841 640.442L160.884 645.181C161.393 645.351 161.952 645.03 161.888 644.605L161.138 633.181C161.085 632.813 161.503 632.509 161.975 632.569L171.956 634.572C172.455 634.636 172.88 634.295 172.783 633.91L171.882 623.743C171.781 623.355 172.223 623.01 172.729 623.084L183.406 625.191C183.915 625.268 184.36 624.917 184.25 624.526L181.045 611.76L146.841 640.438L146.841 640.442Z" fill="#0F2841"/>
<path d="M146.841 583.088L160.884 578.349C161.393 578.179 161.952 578.5 161.888 578.924L161.138 590.349C161.085 590.717 161.503 591.021 161.975 590.961L171.956 588.958C172.455 588.894 172.88 589.235 172.783 589.62L171.882 599.787C171.781 600.175 172.223 600.519 172.729 600.446L183.406 598.339C183.915 598.262 184.36 598.613 184.25 599.004L181.045 611.77L146.841 583.091L146.841 583.088Z" fill="#0F2841"/>
<path d="M184.267 654.512L148.653 684.043L184.267 713.574L184.267 720.183L140.682 684.043L184.267 647.903L184.267 654.512Z" fill="#0F2841"/>
<path d="M167.525 655.364L153.482 650.625C152.973 650.455 152.414 650.776 152.477 651.201L153.228 662.625C153.281 662.993 152.863 663.297 152.39 663.237L142.41 661.234C141.911 661.17 141.486 661.511 141.583 661.896L142.484 672.063C142.584 672.451 142.142 672.796 141.637 672.722L130.96 670.615C130.451 670.538 130.005 670.889 130.116 671.281L133.321 684.046L167.525 655.368L167.525 655.364Z" fill="#0F2841"/>
<path d="M167.525 712.718L153.482 717.457C152.973 717.628 152.414 717.306 152.477 716.882L153.228 705.457C153.281 705.089 152.863 704.785 152.39 704.845L142.41 706.848C141.911 706.912 141.486 706.571 141.583 706.186L142.484 696.019C142.584 695.631 142.142 695.287 141.637 695.36L130.96 697.467C130.451 697.544 130.005 697.193 130.116 696.802L133.321 684.036L167.525 712.715L167.525 712.718Z" fill="#0F2841"/>
<path d="M130.099 720.179L173.684 756.319L130.099 792.459L130.099 785.85L165.713 756.319L130.099 726.788L130.099 720.179Z" fill="#0F2841"/>
<path d="M146.841 784.998L160.884 789.737C161.393 789.907 161.952 789.586 161.888 789.161L161.138 777.737C161.085 777.369 161.503 777.065 161.975 777.125L171.956 779.128C172.455 779.192 172.88 778.85 172.783 778.466L171.882 768.299C171.781 767.911 172.223 767.566 172.729 767.64L183.406 769.747C183.915 769.824 184.36 769.473 184.25 769.081L181.045 756.316L146.841 784.994L146.841 784.998Z" fill="#0F2841"/>
<path d="M146.841 727.641L160.884 722.902C161.393 722.731 161.952 723.052 161.888 723.477L161.138 734.901C161.085 735.269 161.503 735.574 161.975 735.513L171.956 733.51C172.455 733.447 172.88 733.788 172.783 734.172L171.882 744.339C171.781 744.727 172.223 745.072 172.729 744.998L183.406 742.891C183.915 742.814 184.36 743.165 184.25 743.557L181.045 756.322L146.841 727.644L146.841 727.641Z" fill="#0F2841"/>
<path d="M184.267 799.064L148.653 828.595L184.267 858.127L184.267 864.735L140.685 828.595L184.27 792.456L184.27 799.064L184.267 799.064Z" fill="#0F2841"/>
<path d="M167.525 799.92L153.482 795.181C152.973 795.011 152.414 795.332 152.477 795.756L153.228 807.181C153.281 807.549 152.863 807.853 152.39 807.793L142.41 805.79C141.911 805.726 141.486 806.067 141.583 806.452L142.484 816.619C142.584 817.007 142.142 817.351 141.637 817.278L130.96 815.171C130.451 815.094 130.005 815.445 130.116 815.836L133.321 828.602L167.525 799.924L167.525 799.92Z" fill="#0F2841"/>
<path d="M167.525 857.274L153.482 862.013C152.973 862.183 152.414 861.862 152.477 861.438L153.228 850.013C153.281 849.645 152.863 849.341 152.39 849.401L142.41 851.404C141.911 851.468 141.486 851.127 141.583 850.742L142.484 840.575C142.584 840.187 142.142 839.843 141.637 839.916L130.96 842.023C130.451 842.1 130.005 841.749 130.116 841.358L133.321 828.592L167.525 857.274Z" fill="#0F2841"/>
<path d="M184.307 365.4L148.693 394.931L184.307 424.462L184.307 431.071L140.722 394.931L184.307 358.791L184.307 365.4Z" fill="#0F2841"/>
<path d="M167.562 366.256L153.519 361.517C153.01 361.346 152.451 361.667 152.514 362.092L153.264 373.517C153.318 373.885 152.899 374.189 152.427 374.129L142.447 372.125C141.948 372.062 141.523 372.403 141.62 372.788L142.521 382.955C142.621 383.343 142.179 383.687 141.673 383.614L130.997 381.507C130.488 381.43 130.042 381.781 130.153 382.172L133.358 394.938L167.562 366.259L167.562 366.256Z" fill="#0F2841"/>
<path d="M167.562 423.609L153.519 428.349C153.01 428.519 152.451 428.198 152.514 427.773L153.264 416.349C153.318 415.981 152.899 415.676 152.427 415.737L142.447 417.74C141.948 417.804 141.523 417.462 141.62 417.078L142.521 406.911C142.621 406.523 142.179 406.178 141.673 406.252L130.997 408.359C130.488 408.436 130.042 408.085 130.153 407.693L133.358 394.928L167.562 423.606L167.562 423.609Z" fill="#0F2841"/>
<path d="M130.099 430.751L173.684 466.89L130.099 503.027L130.099 496.418L165.713 466.887L130.099 437.359L130.099 430.751Z" fill="#0F2841"/>
<path d="M146.881 495.886L160.924 500.625C161.433 500.795 161.992 500.474 161.928 500.05L161.178 488.625C161.125 488.257 161.543 487.953 162.016 488.013L171.996 490.016C172.495 490.08 172.92 489.739 172.823 489.354L171.922 479.187C171.822 478.799 172.264 478.455 172.769 478.528L183.446 480.635C183.955 480.712 184.401 480.361 184.29 479.97L181.085 467.204L146.881 495.882L146.881 495.886Z" fill="#0F2841"/>
<path d="M146.881 438.532L160.924 433.793C161.433 433.623 161.992 433.944 161.928 434.368L161.178 445.793C161.125 446.161 161.543 446.465 162.016 446.405L171.996 444.402C172.495 444.338 172.92 444.679 172.823 445.064L171.922 455.231C171.822 455.619 172.264 455.963 172.769 455.89L183.446 453.783C183.955 453.706 184.401 454.057 184.29 454.448L181.085 467.214L146.881 438.536L146.881 438.532Z" fill="#0F2841"/>
<path d="M184.307 509.956L148.693 539.487L184.307 569.018L184.307 575.627L140.722 539.487L184.307 503.347L184.307 509.956Z" fill="#0F2841"/>
<path d="M167.562 510.809L153.519 506.069C153.01 505.899 152.451 506.22 152.514 506.645L153.264 518.069C153.318 518.437 152.899 518.741 152.427 518.681L142.447 516.678C141.948 516.614 141.523 516.956 141.62 517.34L142.521 527.507C142.621 527.895 142.179 528.24 141.673 528.166L130.997 526.059C130.488 525.982 130.042 526.333 130.153 526.725L133.358 539.49L167.562 510.812L167.562 510.809Z" fill="#0F2841"/>
<path d="M167.562 568.165L153.519 572.904C153.01 573.075 152.451 572.754 152.514 572.329L153.264 560.905C153.318 560.537 152.899 560.232 152.427 560.293L142.447 562.296C141.948 562.359 141.523 562.018 141.62 561.634L142.521 551.467C142.621 551.079 142.179 550.734 141.673 550.808L130.997 552.915C130.488 552.992 130.042 552.641 130.153 552.249L133.358 539.484L167.562 568.162L167.562 568.165Z" fill="#0F2841"/>
</g>
<g clip-path="url(#clip2_2246_4351)">
<path d="M130.099 134.219L173.684 170.424L130.099 206.625L130.099 200.004L165.713 170.42L130.099 140.836L130.099 134.216L130.099 134.219Z" fill="#0F2841"/>
<path d="M146.841 199.15L160.884 203.897C161.393 204.068 161.952 203.747 161.888 203.321L161.138 191.876C161.085 191.508 161.503 191.203 161.975 191.263L171.956 193.27C172.455 193.334 172.88 192.992 172.783 192.607L171.882 182.421C171.781 182.033 172.223 181.688 172.729 181.761L183.406 183.872C183.915 183.949 184.36 183.597 184.25 183.205L181.045 170.417L146.841 199.147L146.841 199.15Z" fill="#0F2841"/>
<path d="M146.841 141.694L160.884 136.947C161.393 136.776 161.952 137.097 161.888 137.523L161.138 148.968C161.085 149.336 161.503 149.641 161.975 149.581L171.956 147.574C172.455 147.51 172.88 147.852 172.783 148.237L171.882 158.423C171.781 158.811 172.223 159.156 172.729 159.083L183.406 156.972C183.915 156.895 184.36 157.247 184.25 157.639L181.045 170.427L146.841 141.697L146.841 141.694Z" fill="#0F2841"/>
<path d="M184.267 213.245L148.653 242.829L184.267 272.413L184.267 279.033L140.682 242.829L184.267 206.625L184.267 213.245Z" fill="#0F2841"/>
<path d="M167.525 214.099L153.482 209.352C152.973 209.181 152.414 209.503 152.477 209.928L153.228 221.373C153.281 221.742 152.863 222.047 152.39 221.986L142.41 219.979C141.911 219.916 141.486 220.257 141.583 220.643L142.484 230.828C142.584 231.217 142.142 231.562 141.637 231.488L130.96 229.377C130.451 229.3 130.005 229.652 130.116 230.044L133.321 242.832L167.525 214.103L167.525 214.099Z" fill="#0F2841"/>
<path d="M167.525 271.555L153.482 276.303C152.973 276.474 152.414 276.152 152.477 275.727L153.228 264.282C153.281 263.913 152.863 263.608 152.39 263.668L142.41 265.675C141.911 265.739 141.486 265.397 141.583 265.012L142.484 254.827C142.584 254.438 142.142 254.093 141.637 254.167L130.96 256.278C130.451 256.355 130.005 256.003 130.116 255.611L133.321 242.822L167.525 271.552L167.525 271.555Z" fill="#0F2841"/>
<path d="M130.099 279.03L173.684 315.234L130.099 351.439L130.099 344.818L165.713 315.234L130.099 285.65L130.099 279.03Z" fill="#0F2841"/>
<path d="M146.841 343.964L160.884 348.712C161.393 348.882 161.952 348.561 161.888 348.135L161.138 336.69C161.085 336.322 161.503 336.017 161.975 336.077L171.956 338.084C172.455 338.148 172.88 337.806 172.783 337.421L171.882 327.235C171.781 326.847 172.223 326.502 172.729 326.575L183.406 328.686C183.915 328.763 184.36 328.411 184.25 328.019L181.045 315.231L146.841 343.961L146.841 343.964Z" fill="#0F2841"/>
<path d="M146.841 286.505L160.884 281.757C161.393 281.586 161.952 281.908 161.888 282.334L161.138 293.778C161.085 294.147 161.503 294.452 161.975 294.392L171.956 292.385C172.455 292.321 172.88 292.663 172.783 293.048L171.882 303.233C171.781 303.622 172.223 303.967 172.729 303.893L183.406 301.783C183.915 301.705 184.36 302.057 184.25 302.449L181.045 315.238L146.841 286.508L146.841 286.505Z" fill="#0F2841"/>
<path d="M130.099 -10.9155L173.684 25.2889L130.099 61.4899L130.099 54.8695L165.713 25.2855L130.099 -4.29512L130.099 -10.9155Z" fill="#E93334"/>
<path d="M146.881 54.336L160.924 59.0835C161.433 59.2544 161.992 58.9327 161.928 58.5072L161.178 47.0623C161.125 46.6937 161.543 46.3888 162.016 46.4491L171.996 48.456C172.495 48.5197 172.92 48.1779 172.823 47.7926L171.922 37.6074C171.822 37.2188 172.264 36.8737 172.769 36.9474L183.446 39.0582C183.955 39.1352 184.401 38.7835 184.29 38.3915L181.085 25.603L146.881 54.3326L146.881 54.336Z" fill="#E93334"/>
<path d="M146.881 -3.11994L160.924 -7.86746C161.433 -8.03833 161.992 -7.71666 161.928 -7.29116L161.178 4.15375C161.125 4.5223 161.543 4.82721 162.016 4.7669L171.996 2.76002C172.495 2.69636 172.92 3.03809 172.823 3.42339L171.922 13.6086C171.822 13.9972 172.264 14.3423 172.769 14.2686L183.446 12.1578C183.955 12.0808 184.401 12.4326 184.29 12.8246L181.085 25.613L146.881 -3.11658L146.881 -3.11994Z" fill="#E93334"/>
<path d="M184.307 68.431L148.693 98.015L184.307 127.599L184.307 134.219L140.722 98.015L184.307 61.8107L184.307 68.431Z" fill="#0F2841"/>
<path d="M167.562 69.2854L153.519 64.5379C153.01 64.367 152.451 64.6887 152.514 65.1142L153.264 76.5591C153.318 76.9276 152.899 77.2325 152.427 77.1722L142.447 75.1654C141.948 75.1017 141.523 75.4434 141.62 75.8287L142.521 86.0139C142.621 86.4026 142.179 86.7477 141.673 86.6739L130.997 84.5632C130.488 84.4861 130.042 84.8379 130.153 85.2299L133.358 98.0184L167.562 69.2888L167.562 69.2854Z" fill="#0F2841"/>
<path d="M167.562 126.745L153.519 131.492C153.01 131.663 152.451 131.341 152.514 130.916L153.264 119.471C153.318 119.102 152.899 118.797 152.427 118.858L142.447 120.865C141.948 120.928 141.523 120.587 141.62 120.201L142.521 110.016C142.621 109.627 142.179 109.282 141.673 109.356L130.997 111.467C130.488 111.544 130.042 111.192 130.153 110.8L133.358 98.0116L167.562 126.741L167.562 126.745Z" fill="#0F2841"/>
</g>
<g clip-path="url(#clip3_2246_4351)">
<path d="M119 687.486L75.5825 651.342L119 615.202L119 621.811L83.5227 651.346L119 680.88L119 687.49L119 687.486Z" fill="#0F2841"/>
<path d="M102.322 622.664L88.3335 617.924C87.8264 617.754 87.2693 618.075 87.3327 618.5L88.08 629.926C88.1333 630.293 87.7163 630.598 87.2459 630.538L77.304 628.534C76.8069 628.471 76.3832 628.812 76.4799 629.196L77.3774 639.365C77.4775 639.753 77.0371 640.097 76.5333 640.024L65.8975 637.916C65.3904 637.839 64.9467 638.191 65.0567 638.582L68.2495 651.349L102.322 622.667L102.322 622.664Z" fill="#0F2841"/>
<path d="M102.322 680.024L88.3335 684.764C87.8264 684.934 87.2693 684.613 87.3327 684.188L88.08 672.763C88.1333 672.395 87.7163 672.09 87.2459 672.15L77.304 674.154C76.8069 674.218 76.3832 673.876 76.4799 673.492L77.3774 663.324C77.4775 662.936 77.0371 662.591 76.5333 662.665L65.8975 664.772C65.3904 664.849 64.9467 664.498 65.0567 664.106L68.2495 651.339L102.322 680.021L102.322 680.024Z" fill="#0F2841"/>
<path d="M65.0401 608.592L100.517 579.058L65.0401 549.523L65.0401 542.914L108.458 579.058L65.0401 615.202L65.0401 608.592Z" fill="#0F2841"/>
<path d="M81.7178 607.739L95.7065 612.479C96.2136 612.65 96.7708 612.328 96.7074 611.904L95.9601 600.478C95.9067 600.11 96.3237 599.805 96.7941 599.866L106.736 601.869C107.233 601.933 107.657 601.592 107.56 601.207L106.663 591.039C106.563 590.651 107.003 590.306 107.507 590.38L118.143 592.487C118.65 592.564 119.093 592.213 118.983 591.821L115.791 579.054L81.7178 607.736L81.7178 607.739Z" fill="#0F2841"/>
<path d="M81.7178 550.379L95.7065 545.64C96.2136 545.469 96.7708 545.79 96.7074 546.215L95.9601 557.641C95.9067 558.009 96.3237 558.313 96.7941 558.253L106.736 556.249C107.233 556.186 107.657 556.527 107.56 556.912L106.663 567.08C106.563 567.468 107.003 567.812 107.507 567.739L118.143 565.632C118.65 565.555 119.093 565.906 118.983 566.297L115.791 579.064L81.7178 550.383L81.7178 550.379Z" fill="#0F2841"/>
<path d="M119 542.917L75.5825 506.773L119 470.629L119 477.238L83.5227 506.773L119 536.308L119 542.917Z" fill="#0F2841"/>
<path d="M102.322 478.091L88.3335 473.351C87.8264 473.181 87.2693 473.502 87.3327 473.927L88.08 485.353C88.1333 485.721 87.7163 486.025 87.2459 485.965L77.304 483.961C76.8069 483.898 76.3832 484.239 76.4799 484.624L77.3774 494.792C77.4775 495.18 77.0371 495.524 76.5333 495.451L65.8975 493.343C65.3904 493.267 64.9467 493.618 65.0567 494.009L68.2495 506.776L102.322 478.094L102.322 478.091Z" fill="#0F2841"/>
<path d="M102.322 535.455L88.3335 540.194C87.8264 540.365 87.2693 540.044 87.3327 539.619L88.08 528.193C88.1333 527.825 87.7163 527.521 87.2459 527.581L77.304 529.584C76.8069 529.648 76.3832 529.307 76.4799 528.922L77.3774 518.754C77.4775 518.366 77.0371 518.021 76.5333 518.095L65.8975 520.202C65.3904 520.279 64.9467 519.928 65.0567 519.537L68.2495 506.77L102.322 535.451L102.322 535.455Z" fill="#0F2841"/>
<path d="M65.0401 464.023L100.517 434.488L65.0401 404.953L65.0401 398.344L108.454 434.488L65.0367 470.632L65.0367 464.023L65.0401 464.023Z" fill="#0F2841"/>
<path d="M81.7178 463.167L95.7065 467.906C96.2136 468.077 96.7708 467.756 96.7074 467.331L95.9601 455.905C95.9067 455.537 96.3237 455.233 96.7941 455.293L106.736 457.296C107.233 457.36 107.657 457.019 107.56 456.634L106.663 446.466C106.563 446.078 107.003 445.733 107.507 445.807L118.143 447.914C118.65 447.991 119.093 447.64 118.983 447.249L115.791 434.481L81.7178 463.163L81.7178 463.167Z" fill="#0F2841"/>
<path d="M81.7178 405.806L95.7065 401.067C96.2136 400.896 96.7708 401.217 96.7074 401.642L95.9601 413.068C95.9067 413.436 96.3237 413.74 96.7941 413.68L106.736 411.676C107.233 411.613 107.657 411.954 107.56 412.339L106.663 422.507C106.563 422.895 107.003 423.24 107.507 423.166L118.143 421.059C118.65 420.982 119.093 421.333 118.983 421.724L115.791 434.491L81.7178 405.806Z" fill="#0F2841"/>
<path d="M65 897.738L100.477 868.203L65 838.669L65 832.059L108.417 868.203L65 904.347L65 897.738Z" fill="#0F2841"/>
<path d="M81.681 896.882L95.6698 901.621C96.1769 901.792 96.734 901.471 96.6707 901.046L95.9234 889.62C95.87 889.252 96.287 888.948 96.7574 889.008L106.699 891.012C107.196 891.075 107.62 890.734 107.523 890.349L106.626 880.181C106.526 879.793 106.966 879.449 107.47 879.522L118.106 881.629C118.613 881.706 119.057 881.355 118.947 880.964L115.754 868.197L81.681 896.878L81.681 896.882Z" fill="#0F2841"/>
<path d="M81.6811 839.522L95.6699 834.782C96.177 834.611 96.7341 834.932 96.6707 835.357L95.9234 846.783C95.87 847.151 96.2871 847.455 96.7575 847.395L106.699 845.392C107.196 845.328 107.62 845.669 107.523 846.054L106.626 856.222C106.526 856.61 106.966 856.955 107.47 856.881L118.106 854.774C118.613 854.697 119.057 855.048 118.947 855.44L115.754 868.207L81.6811 839.525L81.6811 839.522Z" fill="#0F2841"/>
<path d="M118.963 831.95L75.5458 795.806L118.963 759.666L118.963 766.275L83.486 795.81L118.963 825.341L118.963 831.95Z" fill="#0F2841"/>
<path d="M102.282 767.237L88.2935 762.497C87.7864 762.327 87.2292 762.648 87.2926 763.073L88.0399 774.498C88.0933 774.866 87.6763 775.171 87.2059 775.111L77.2639 773.107C76.7669 773.043 76.3432 773.385 76.4399 773.769L77.3373 783.937C77.4374 784.325 76.9971 784.67 76.4933 784.596L65.8574 782.489C65.3503 782.412 64.9066 782.763 65.0167 783.155L68.2095 795.922L102.282 767.24L102.282 767.237Z" fill="#0F2841"/>
<path d="M102.282 824.488L88.2935 829.228C87.7864 829.398 87.2292 829.077 87.2926 828.652L88.0399 817.226C88.0933 816.859 87.6763 816.554 87.2059 816.614L77.2639 818.618C76.7669 818.681 76.3432 818.34 76.4399 817.956L77.3373 807.787C77.4374 807.399 76.9971 807.055 76.4933 807.128L65.8574 809.236C65.3503 809.313 64.9066 808.961 65.0167 808.57L68.2095 795.803L102.282 824.485L102.282 824.488Z" fill="#0F2841"/>
<path d="M65 753.165L100.477 723.631L65 694.096L65 687.486L108.418 723.631L65 759.775L65 753.165Z" fill="#E93334"/>
<path d="M81.6811 752.312L95.6699 757.052C96.177 757.222 96.7341 756.901 96.6707 756.477L95.9234 745.051C95.87 744.683 96.2871 744.378 96.7575 744.439L106.699 746.442C107.196 746.506 107.62 746.164 107.523 745.78L106.626 735.612C106.526 735.224 106.966 734.879 107.47 734.953L118.106 737.06C118.613 737.137 119.057 736.786 118.947 736.394L115.754 723.627L81.6811 752.309L81.6811 752.312Z" fill="#E93334"/>
<path d="M81.6811 694.949L95.6699 690.209C96.177 690.039 96.7341 690.36 96.6707 690.784L95.9234 702.21C95.87 702.578 96.2871 702.883 96.7575 702.822L106.699 700.819C107.196 700.755 107.62 701.096 107.523 701.481L106.626 711.649C106.526 712.037 106.966 712.382 107.47 712.308L118.106 710.201C118.613 710.124 119.057 710.475 118.947 710.867L115.754 723.634L81.6811 694.952L81.6811 694.949Z" fill="#E93334"/>
</g>
<g clip-path="url(#clip4_2246_4351)">
<path d="M259.295 722.164L302.153 758.368L259.295 794.569L259.295 787.949L294.315 758.365L259.295 728.781L259.295 722.16L259.295 722.164Z" fill="#0F2841"/>
<path d="M275.758 787.306L289.566 792.053C290.067 792.224 290.617 791.903 290.554 791.477L289.816 780.032C289.764 779.664 290.175 779.359 290.64 779.419L300.454 781.426C300.944 781.49 301.362 781.148 301.267 780.763L300.381 770.577C300.282 770.189 300.717 769.844 301.214 769.917L311.713 772.028C312.214 772.105 312.652 771.753 312.543 771.361L309.391 758.573L275.758 787.303L275.758 787.306Z" fill="#0F2841"/>
<path d="M275.758 729.85L289.566 725.103C290.067 724.932 290.617 725.253 290.554 725.679L289.816 737.124C289.764 737.492 290.175 737.797 290.64 737.737L300.454 735.73C300.944 735.666 301.362 736.008 301.267 736.393L300.381 746.579C300.282 746.967 300.717 747.312 301.214 747.239L311.713 745.128C312.214 745.051 312.652 745.403 312.543 745.795L309.391 758.583L275.758 729.853L275.758 729.85Z" fill="#0F2841"/>
<path d="M312.56 801.401L277.539 830.985L312.56 860.569L312.56 867.189L269.701 830.985L312.56 794.781L312.56 801.401Z" fill="#0F2841"/>
<path d="M296.097 802.255L282.288 797.508C281.787 797.337 281.237 797.659 281.3 798.084L282.038 809.529C282.09 809.898 281.679 810.202 281.214 810.142L271.401 808.135C270.91 808.072 270.492 808.413 270.587 808.799L271.473 818.984C271.572 819.373 271.137 819.718 270.64 819.644L260.141 817.533C259.64 817.456 259.202 817.808 259.311 818.2L262.463 830.988L296.097 802.259L296.097 802.255Z" fill="#0F2841"/>
<path d="M296.097 859.711L282.288 864.459C281.787 864.63 281.237 864.308 281.3 863.882L282.038 852.438C282.09 852.069 281.679 851.764 281.214 851.824L271.401 853.831C270.91 853.895 270.492 853.553 270.587 853.168L271.473 842.983C271.572 842.594 271.137 842.249 270.64 842.323L260.141 844.433C259.64 844.511 259.202 844.159 259.311 843.767L262.463 830.978L296.097 859.708L296.097 859.711Z" fill="#0F2841"/>
<path d="M259.295 867.186L302.153 903.39L259.295 939.595L259.295 932.974L294.315 903.39L259.295 873.806L259.295 867.186Z" fill="#E93334"/>
<path d="M275.758 932.12L289.566 936.867C290.067 937.038 290.617 936.717 290.554 936.291L289.816 924.846C289.764 924.478 290.175 924.173 290.64 924.233L300.454 926.24C300.944 926.304 301.362 925.962 301.267 925.577L300.381 915.391C300.282 915.003 300.717 914.658 301.214 914.731L311.713 916.842C312.214 916.919 312.652 916.567 312.543 916.175L309.391 903.387L275.758 932.117L275.758 932.12Z" fill="#0F2841"/>
<path d="M275.758 874.661L289.566 869.913C290.067 869.742 290.617 870.064 290.554 870.489L289.816 881.934C289.764 882.303 290.175 882.608 290.64 882.548L300.454 880.541C300.944 880.477 301.362 880.819 301.267 881.204L300.381 891.389C300.282 891.778 300.717 892.123 301.214 892.049L311.713 889.939C312.214 889.861 312.652 890.213 312.543 890.605L309.391 903.394L275.758 874.664L275.758 874.661Z" fill="#E93334"/>
<path d="M312.56 946.212L277.539 975.796L312.56 1005.38L312.56 1012L269.705 975.796L312.563 939.591L312.563 946.212L312.56 946.212Z" fill="#0F2841"/>
<path d="M296.097 947.069L282.288 942.322C281.787 942.151 281.237 942.473 281.3 942.898L282.038 954.343C282.09 954.712 281.679 955.017 281.214 954.956L271.401 952.949C270.91 952.886 270.492 953.227 270.587 953.613L271.473 963.798C271.572 964.187 271.137 964.532 270.64 964.458L260.141 962.347C259.64 962.27 259.202 962.622 259.311 963.014L262.463 975.802L296.097 947.073L296.097 947.069Z" fill="#0F2841"/>
<path d="M296.097 1004.53L282.288 1009.27C281.787 1009.44 281.237 1009.12 281.3 1008.7L282.038 997.252C282.09 996.883 281.679 996.578 281.214 996.638L271.401 998.645C270.91 998.709 270.492 998.367 270.587 997.982L271.473 987.797C271.572 987.408 271.137 987.063 270.64 987.137L260.141 989.247C259.64 989.325 259.202 988.973 259.311 988.581L262.463 975.792L296.097 1004.53Z" fill="#0F2841"/>
<path d="M312.599 511.773L277.579 541.357L312.599 570.941L312.599 577.561L269.741 541.357L312.599 505.153L312.599 511.773Z" fill="#0F2841"/>
<path d="M296.133 512.631L282.324 507.883C281.824 507.712 281.274 508.034 281.336 508.459L282.074 519.904C282.127 520.273 281.715 520.578 281.251 520.518L271.437 518.511C270.946 518.447 270.528 518.789 270.623 519.174L271.509 529.359C271.608 529.748 271.173 530.093 270.676 530.019L260.177 527.908C259.677 527.831 259.239 528.183 259.347 528.575L262.499 541.364L296.133 512.634L296.133 512.631Z" fill="#0F2841"/>
<path d="M296.133 570.087L282.324 574.834C281.824 575.005 281.274 574.683 281.336 574.258L282.074 562.813C282.127 562.444 281.715 562.139 281.251 562.2L271.437 564.207C270.946 564.27 270.528 563.929 270.623 563.543L271.509 553.358C271.608 552.969 271.173 552.624 270.676 552.698L260.177 554.809C259.677 554.886 259.239 554.534 259.347 554.142L262.499 541.354L296.133 570.083L296.133 570.087Z" fill="#0F2841"/>
<path d="M259.331 577.561L302.189 613.766L259.331 649.967L259.331 643.346L294.351 613.762L259.331 584.182L259.331 577.561Z" fill="#0F2841"/>
<path d="M275.797 642.492L289.606 647.239C290.106 647.41 290.656 647.089 290.594 646.663L289.856 635.218C289.803 634.85 290.215 634.545 290.679 634.605L300.493 636.612C300.984 636.676 301.402 636.334 301.306 635.949L300.421 625.763C300.322 625.375 300.756 625.03 301.254 625.103L311.753 627.214C312.253 627.291 312.691 626.939 312.583 626.547L309.431 613.759L275.797 642.489L275.797 642.492Z" fill="#0F2841"/>
<path d="M275.797 585.036L289.606 580.288C290.106 580.118 290.656 580.439 290.594 580.865L289.856 592.31C289.803 592.678 290.215 592.983 290.679 592.923L300.493 590.916C300.984 590.852 301.402 591.194 301.306 591.579L300.421 601.765C300.322 602.153 300.756 602.498 301.254 602.425L311.753 600.314C312.253 600.237 312.691 600.589 312.583 600.981L309.431 613.769L275.797 585.039L275.797 585.036Z" fill="#0F2841"/>
<path d="M312.599 656.587L277.579 686.171L312.599 715.755L312.599 722.375L269.741 686.171L312.599 649.967L312.599 656.587Z" fill="#0F2841"/>
<path d="M296.133 657.441L282.324 652.694C281.824 652.523 281.274 652.845 281.336 653.27L282.074 664.715C282.127 665.084 281.715 665.388 281.251 665.328L271.437 663.321C270.946 663.258 270.528 663.599 270.623 663.985L271.509 674.17C271.608 674.558 271.173 674.904 270.676 674.83L260.177 672.719C259.677 672.642 259.239 672.994 259.347 673.386L262.499 686.174L296.133 657.445L296.133 657.441Z" fill="#0F2841"/>
<path d="M296.133 714.901L282.324 719.648C281.824 719.819 281.274 719.497 281.336 719.072L282.074 707.627C282.127 707.258 281.715 706.953 281.251 707.014L271.437 709.021C270.946 709.084 270.528 708.743 270.623 708.357L271.509 698.172C271.608 697.783 271.173 697.438 270.676 697.512L260.177 699.623C259.677 699.7 259.239 699.348 259.347 698.956L262.499 686.168L296.133 714.897L296.133 714.901Z" fill="#0F2841"/>
</g>
<g clip-path="url(#clip5_2246_4351)">
<path d="M8.61886e-07 504.945L42.8583 541.085L0 577.221L7.88063e-08 570.613L35.0204 541.082L7.83119e-07 511.55L8.61926e-07 504.942L8.61886e-07 504.945Z" fill="#0F2841"/>
<path d="M16.463 569.971L30.2715 574.71C30.7721 574.881 31.3221 574.56 31.2595 574.135L30.5218 562.711C30.4691 562.343 30.8808 562.038 31.3451 562.099L41.159 564.102C41.6497 564.165 42.0679 563.824 41.9724 563.44L41.0865 553.273C40.9877 552.885 41.4225 552.54 41.9197 552.614L52.4186 554.721C52.9192 554.798 53.3572 554.446 53.2485 554.055L50.0969 541.29L16.463 569.968L16.463 569.971Z" fill="#0F2841"/>
<path d="M16.463 512.618L30.2715 507.879C30.7721 507.708 31.3221 508.029 31.2595 508.454L30.5218 519.879C30.4691 520.246 30.8808 520.551 31.3451 520.491L41.159 518.487C41.6497 518.424 42.0679 518.765 41.9724 519.149L41.0865 529.316C40.9877 529.704 41.4225 530.049 41.9197 529.975L52.4186 527.868C52.9192 527.791 53.3572 528.143 53.2485 528.534L50.0969 541.3L16.463 512.621L16.463 512.618Z" fill="#0F2841"/>
<path d="M53.265 584.041L18.2446 613.572L53.265 643.104L53.265 649.712L10.4067 613.572L53.265 577.433L53.265 584.041Z" fill="#0F2841"/>
<path d="M36.802 584.894L22.9934 580.155C22.4929 579.984 21.9429 580.306 22.0055 580.73L22.7431 592.155C22.7958 592.523 22.3842 592.827 21.9198 592.767L12.106 590.764C11.6153 590.7 11.197 591.041 11.2925 591.426L12.1784 601.593C12.2772 601.981 11.8425 602.325 11.3452 602.252L0.846367 600.145C0.345794 600.068 -0.0922078 600.419 0.0164692 600.81L3.1681 613.576L36.802 584.897L36.802 584.894Z" fill="#0F2841"/>
<path d="M36.802 642.248L22.9934 646.987C22.4929 647.157 21.9429 646.836 22.0055 646.411L22.7431 634.987C22.7958 634.619 22.3842 634.315 21.9198 634.375L12.106 636.378C11.6153 636.442 11.197 636.101 11.2925 635.716L12.1784 625.549C12.2772 625.161 11.8425 624.816 11.3452 624.89L0.846367 626.997C0.345794 627.074 -0.0922077 626.723 0.0164693 626.331L3.1681 613.566L36.802 642.244L36.802 642.248Z" fill="#0F2841"/>
<path d="M8.61926e-07 649.709L42.8583 685.849L0 721.989L7.88064e-08 715.38L35.0204 685.849L7.83119e-07 656.318L8.61926e-07 649.709Z" fill="#0F2841"/>
<path d="M16.463 714.527L30.2715 719.266C30.7721 719.437 31.3221 719.116 31.2595 718.691L30.5218 707.266C30.4691 706.899 30.8808 706.594 31.3451 706.654L41.159 708.658C41.6497 708.721 42.0679 708.38 41.9724 707.996L41.0865 697.828C40.9877 697.441 41.4225 697.096 41.9197 697.17L52.4186 699.277C52.9192 699.354 53.3572 699.002 53.2485 698.611L50.0969 685.845L16.463 714.524L16.463 714.527Z" fill="#0F2841"/>
<path d="M16.463 657.17L30.2715 652.431C30.7721 652.261 31.3221 652.582 31.2595 653.007L30.5218 664.431C30.4691 664.799 30.8808 665.103 31.3451 665.043L41.159 663.04C41.6497 662.976 42.0679 663.317 41.9724 663.702L41.0865 673.869C40.9877 674.257 41.4225 674.601 41.9197 674.528L52.4186 672.421C52.9192 672.344 53.3572 672.695 53.2485 673.086L50.0969 685.852L16.463 657.174L16.463 657.17Z" fill="#0F2841"/>
<path d="M53.265 728.594L18.2446 758.125L53.265 787.656L53.265 794.265L10.41 758.125L53.2683 721.985L53.2683 728.594L53.265 728.594Z" fill="#0F2841"/>
<path d="M36.802 729.45L22.9934 724.711C22.4929 724.54 21.9429 724.861 22.0055 725.286L22.7431 736.711C22.7958 737.079 22.3842 737.383 21.9198 737.323L12.106 735.319C11.6153 735.256 11.197 735.597 11.2925 735.982L12.1784 746.149C12.2772 746.537 11.8425 746.881 11.3452 746.808L0.846367 744.701C0.345794 744.624 -0.0922078 744.975 0.0164692 745.366L3.1681 758.132L36.802 729.453L36.802 729.45Z" fill="#0F2841"/>
<path d="M36.802 786.803L22.9934 791.542C22.4929 791.713 21.9429 791.392 22.0055 790.967L22.7431 779.543C22.7958 779.175 22.3842 778.87 21.9198 778.931L12.106 780.934C11.6153 780.998 11.197 780.656 11.2925 780.272L12.1784 770.105C12.2772 769.717 11.8425 769.372 11.3452 769.446L0.846367 771.553C0.345794 771.63 -0.0922077 771.279 0.0164693 770.887L3.1681 758.122L36.802 786.803Z" fill="#0F2841"/>
<path d="M53.3044 294.929L18.2841 324.461L53.3044 353.992L53.3044 360.601L10.4462 324.461L53.3044 288.321L53.3044 294.929Z" fill="#E93334"/>
<path d="M36.8383 295.786L23.0297 291.047C22.5291 290.876 21.9791 291.197 22.0417 291.622L22.7794 303.046C22.8321 303.414 22.4204 303.719 21.9561 303.658L12.1422 301.655C11.6515 301.592 11.2333 301.933 11.3288 302.317L12.2147 312.484C12.3135 312.872 11.8788 313.217 11.3815 313.143L0.882622 311.036C0.382049 310.959 -0.0559529 311.31 0.0527241 311.702L3.20436 324.467L36.8383 295.789L36.8383 295.786Z" fill="#E93334"/>
<path d="M36.8383 353.139L23.0297 357.878C22.5291 358.049 21.9791 357.728 22.0417 357.303L22.7794 345.878C22.8321 345.511 22.4204 345.206 21.9561 345.266L12.1422 347.27C11.6515 347.333 11.2333 346.992 11.3288 346.607L12.2147 336.44C12.3135 336.052 11.8788 335.708 11.3815 335.782L0.882622 337.889C0.382049 337.966 -0.0559528 337.614 0.0527242 337.223L3.20436 324.457L36.8383 353.136L36.8383 353.139Z" fill="#E93334"/>
<path d="M0.0362557 360.601L42.8945 396.74L0.0362549 432.877L0.036255 426.268L35.0566 396.737L0.0362557 367.209L0.0362557 360.601Z" fill="#0F2841"/>
<path d="M16.5024 425.415L30.311 430.154C30.8116 430.325 31.3616 430.004 31.299 429.579L30.5613 418.155C30.5086 417.787 30.9203 417.482 31.3846 417.543L41.1985 419.546C41.6892 419.609 42.1074 419.268 42.0119 418.884L41.126 408.717C41.0272 408.329 41.4619 407.984 41.9592 408.058L52.4581 410.165C52.9587 410.242 53.3967 409.891 53.288 409.499L50.1363 396.734L16.5024 425.412L16.5024 425.415Z" fill="#0F2841"/>
<path d="M16.5024 368.062L30.311 363.323C30.8116 363.152 31.3616 363.473 31.299 363.898L30.5613 375.323C30.5086 375.691 30.9203 375.995 31.3846 375.935L41.1985 373.931C41.6892 373.868 42.1074 374.209 42.0119 374.594L41.126 384.761C41.0272 385.149 41.4619 385.493 41.9592 385.419L52.4581 383.312C52.9587 383.236 53.3967 383.587 53.288 383.978L50.1363 396.744L16.5024 368.065L16.5024 368.062Z" fill="#0F2841"/>
<path d="M53.3044 439.485L18.2841 469.017L53.3044 498.548L53.3044 505.156L10.4462 469.017L53.3044 432.877L53.3044 439.485Z" fill="#0F2841"/>
<path d="M36.8383 440.338L23.0297 435.599C22.5291 435.429 21.9791 435.75 22.0417 436.174L22.7794 447.599C22.8321 447.967 22.4204 448.271 21.9561 448.211L12.1422 446.208C11.6515 446.144 11.2333 446.485 11.3288 446.87L12.2147 457.037C12.3135 457.425 11.8788 457.769 11.3815 457.696L0.882622 455.589C0.382049 455.512 -0.0559529 455.863 0.0527241 456.254L3.20436 469.02L36.8383 440.342L36.8383 440.338Z" fill="#0F2841"/>
<path d="M36.8383 497.695L23.0297 502.434C22.5291 502.605 21.9791 502.284 22.0417 501.859L22.7794 490.434C22.8321 490.066 22.4204 489.762 21.9561 489.822L12.1422 491.826C11.6515 491.889 11.2333 491.548 11.3288 491.163L12.2147 480.996C12.3135 480.608 11.8788 480.264 11.3815 480.337L0.882622 482.444C0.382049 482.521 -0.0559528 482.17 0.0527242 481.779L3.20436 469.013L36.8383 497.692L36.8383 497.695Z" fill="#0F2841"/>
</g>
<defs>
<clipPath id="clip0_2246_4351">
<rect width="505.941" height="54.2079" fill="white" transform="translate(248.453 323) rotate(90)"/>
</clipPath>
<clipPath id="clip1_2246_4351">
<rect width="505.941" height="54.2079" fill="white" transform="translate(130.099 864.735) rotate(-90)"/>
</clipPath>
<clipPath id="clip2_2246_4351">
<rect width="506.844" height="54.2079" fill="white" transform="translate(130.099 423.844) rotate(-90)"/>
</clipPath>
<clipPath id="clip3_2246_4351">
<rect width="506" height="54" fill="white" transform="translate(119 398.344) rotate(90)"/>
</clipPath>
<clipPath id="clip4_2246_4351">
<rect width="506.844" height="53.3044" fill="white" transform="translate(259.295 1012) rotate(-90)"/>
</clipPath>
<clipPath id="clip5_2246_4351">
<rect width="505.941" height="53.3044" fill="white" transform="translate(0 794.265) rotate(-90)"/>
</clipPath>
</defs>
</svg>
