<svg width="123" height="1016" viewBox="0 0 123 1016" fill="none" xmlns="http://www.w3.org/2000/svg">
<g clip-path="url(#clip0_2280_2133)">
<path d="M54.2079 726.219L10.6232 762.424L54.2079 798.625L54.2079 792.004L18.594 762.42L54.2079 732.836L54.2079 726.216L54.2079 726.219Z" fill="#0F2841"/>
<path d="M37.4659 791.15L23.4233 795.897C22.9143 796.068 22.355 795.747 22.4186 795.321L23.1688 783.876C23.2224 783.508 22.8038 783.203 22.3315 783.263L12.3513 785.27C11.8523 785.334 11.427 784.992 11.5241 784.607L12.425 774.421C12.5255 774.033 12.0834 773.688 11.5777 773.761L0.90089 775.872C0.391833 775.949 -0.053594 775.597 0.056925 775.205L3.26198 762.417L37.4659 791.147L37.4659 791.15Z" fill="#0F2841"/>
<path d="M37.4659 733.694L23.4233 728.947C22.9143 728.776 22.355 729.097 22.4186 729.523L23.1688 740.968C23.2224 741.336 22.8038 741.641 22.3315 741.581L12.3513 739.574C11.8523 739.51 11.427 739.852 11.5241 740.237L12.425 750.423C12.5255 750.811 12.0834 751.156 11.5777 751.083L0.90089 748.972C0.391833 748.895 -0.053594 749.247 0.0569251 749.639L3.26198 762.427L37.4659 733.697L37.4659 733.694Z" fill="#0F2841"/>
<path d="M0.0401857 805.245L35.6541 834.829L0.0401864 864.413L0.0401865 871.033L43.6249 834.829L0.0401856 798.625L0.0401857 805.245Z" fill="#0F2841"/>
<path d="M16.7821 806.099L30.8248 801.352C31.3338 801.181 31.8931 801.503 31.8295 801.928L31.0793 813.373C31.0257 813.742 31.4443 814.046 31.9166 813.986L41.8968 811.979C42.3958 811.916 42.8211 812.257 42.724 812.643L41.8231 822.828C41.7226 823.216 42.1647 823.562 42.6704 823.488L53.3472 821.377C53.8563 821.3 54.3017 821.652 54.1912 822.044L50.9861 834.832L16.7821 806.103L16.7821 806.099Z" fill="#0F2841"/>
<path d="M16.7821 863.555L30.8248 868.303C31.3338 868.474 31.8931 868.152 31.8295 867.726L31.0793 856.282C31.0257 855.913 31.4443 855.608 31.9166 855.668L41.8968 857.675C42.3958 857.739 42.8211 857.397 42.724 857.012L41.8231 846.827C41.7226 846.438 42.1647 846.093 42.6704 846.167L53.3472 848.277C53.8563 848.355 54.3017 848.003 54.1912 847.611L50.9861 834.822L16.7821 863.552L16.7821 863.555Z" fill="#0F2841"/>
<path d="M54.2079 871.03L10.6232 907.234L54.2079 943.439L54.2079 936.818L18.594 907.234L54.2079 877.65L54.2079 871.03Z" fill="#0F2841"/>
<path d="M37.4659 935.964L23.4233 940.711C22.9143 940.882 22.355 940.561 22.4186 940.135L23.1688 928.69C23.2224 928.322 22.8038 928.017 22.3315 928.077L12.3513 930.084C11.8523 930.148 11.427 929.806 11.5241 929.421L12.425 919.235C12.5255 918.847 12.0834 918.502 11.5777 918.575L0.90089 920.686C0.391833 920.763 -0.053594 920.411 0.056925 920.019L3.26198 907.231L37.4659 935.961L37.4659 935.964Z" fill="#0F2841"/>
<path d="M37.4659 878.505L23.4233 873.757C22.9143 873.586 22.355 873.908 22.4186 874.333L23.1688 885.778C23.2224 886.147 22.8038 886.452 22.3315 886.392L12.3513 884.385C11.8523 884.321 11.427 884.663 11.5241 885.048L12.425 895.233C12.5255 895.622 12.0834 895.967 11.5777 895.893L0.90089 893.782C0.391833 893.705 -0.053594 894.057 0.0569251 894.449L3.26198 907.238L37.4659 878.508L37.4659 878.505Z" fill="#0F2841"/>
<path d="M-5.94989e-06 515.617L35.6139 545.201L-5.24432e-06 574.785L-5.16537e-06 581.405L43.5847 545.201L-6.02884e-06 508.997L-5.94989e-06 515.617Z" fill="#0F2841"/>
<path d="M16.7453 516.475L30.7879 511.727C31.297 511.556 31.8563 511.878 31.7926 512.303L31.0425 523.748C30.9889 524.117 31.4075 524.422 31.8797 524.362L41.8599 522.355C42.3589 522.291 42.7843 522.633 42.6871 523.018L41.7862 533.203C41.6858 533.592 42.1278 533.937 42.6336 533.863L53.3104 531.752C53.8194 531.675 54.2648 532.027 54.1543 532.419L50.9493 545.208L16.7453 516.478L16.7453 516.475Z" fill="#0F2841"/>
<path d="M16.7453 573.931L30.7879 578.678C31.297 578.849 31.8563 578.527 31.7926 578.102L31.0425 566.657C30.9889 566.288 31.4075 565.983 31.8797 566.044L41.8599 568.051C42.3589 568.114 42.7843 567.773 42.6871 567.387L41.7862 557.202C41.6858 556.813 42.1278 556.468 42.6336 556.542L53.3104 558.653C53.8194 558.73 54.2648 558.378 54.1543 557.986L50.9493 545.198L16.7453 573.927L16.7453 573.931Z" fill="#0F2841"/>
<path d="M54.2079 581.084L10.6232 617.289L54.2079 653.49L54.2079 646.869L18.594 617.285L54.2079 587.705L54.2079 581.084Z" fill="#E93334"/>
<path d="M37.4258 646.336L23.3831 651.083C22.8741 651.254 22.3148 650.933 22.3784 650.507L23.1286 639.062C23.1822 638.694 22.7636 638.389 22.2913 638.449L12.3111 640.456C11.8121 640.52 11.3868 640.178 11.4839 639.793L12.3848 629.607C12.4853 629.219 12.0432 628.874 11.5375 628.947L0.860698 631.058C0.351641 631.135 -0.0937857 630.783 0.0167333 630.391L3.22178 617.603L37.4258 646.333L37.4258 646.336Z" fill="#E93334"/>
<path d="M37.4258 588.88L23.3831 584.133C22.8741 583.962 22.3148 584.283 22.3784 584.709L23.1286 596.154C23.1822 596.522 22.7636 596.827 22.2913 596.767L12.3111 594.76C11.8121 594.696 11.3868 595.038 11.4839 595.423L12.3848 605.609C12.4853 605.997 12.0432 606.342 11.5375 606.269L0.860698 604.158C0.351641 604.081 -0.0937856 604.433 0.0167334 604.825L3.22178 617.613L37.4258 588.883L37.4258 588.88Z" fill="#E93334"/>
<path d="M-5.94989e-06 660.431L35.6139 690.015L-5.24432e-06 719.599L-5.16537e-06 726.219L43.5847 690.015L-6.02884e-06 653.811L-5.94989e-06 660.431Z" fill="#0F2841"/>
<path d="M16.7453 661.285L30.7879 656.538C31.297 656.367 31.8563 656.689 31.7926 657.114L31.0425 668.559C30.9889 668.928 31.4075 669.232 31.8797 669.172L41.8599 667.165C42.3589 667.102 42.7843 667.443 42.6871 667.829L41.7862 678.014C41.6858 678.402 42.1278 678.748 42.6336 678.674L53.3104 676.563C53.8194 676.486 54.2648 676.838 54.1543 677.23L50.9493 690.018L16.7453 661.289L16.7453 661.285Z" fill="#0F2841"/>
<path d="M16.7453 718.745L30.7879 723.492C31.297 723.663 31.8563 723.341 31.7926 722.916L31.0425 711.471C30.9889 711.102 31.4075 710.797 31.8797 710.858L41.8599 712.865C42.3589 712.928 42.7843 712.587 42.6871 712.201L41.7862 702.016C41.6858 701.627 42.1278 701.282 42.6336 701.356L53.3104 703.467C53.8194 703.544 54.2648 703.192 54.1543 702.8L50.9493 690.012L16.7453 718.741L16.7453 718.745Z" fill="#0F2841"/>
</g>
<g clip-path="url(#clip1_2280_2133)">
<path d="M0.903406 289.836L43.7617 253.632L0.903412 217.431L0.903411 224.051L35.9238 253.635L0.903407 283.219L0.903406 289.84L0.903406 289.836Z" fill="#0F2841"/>
<path d="M17.3664 224.694L31.1749 219.947C31.6755 219.776 32.2255 220.097 32.1629 220.523L31.4252 231.968C31.3725 232.336 31.7842 232.641 32.2485 232.581L42.0624 230.574C42.5531 230.51 42.9713 230.852 42.8758 231.237L41.99 241.423C41.8912 241.811 42.3259 242.156 42.8231 242.083L53.322 239.972C53.8226 239.895 54.2606 240.247 54.1519 240.639L51.0003 253.427L17.3664 224.697L17.3664 224.694Z" fill="#0F2841"/>
<path d="M17.3664 282.15L31.1749 286.897C31.6755 287.068 32.2255 286.747 32.1629 286.321L31.4252 274.876C31.3725 274.508 31.7842 274.203 32.2485 274.263L42.0624 276.27C42.5531 276.334 42.9713 275.992 42.8758 275.607L41.99 265.421C41.8912 265.033 42.3259 264.688 42.8231 264.761L53.322 266.872C53.8226 266.949 54.2606 266.597 54.1519 266.205L51.0003 253.417L17.3664 282.147L17.3664 282.15Z" fill="#0F2841"/>
<path d="M54.1684 210.599L19.148 181.015L54.1684 151.431L54.1684 144.811L11.3101 181.015L54.1684 217.219L54.1684 210.599Z" fill="#0F2841"/>
<path d="M37.7054 209.745L23.8968 214.492C23.3963 214.663 22.8463 214.341 22.9089 213.916L23.6466 202.471C23.6992 202.102 23.2876 201.797 22.8232 201.858L13.0094 203.865C12.5187 203.928 12.1004 203.587 12.1959 203.201L13.0818 193.016C13.1806 192.627 12.7459 192.282 12.2486 192.356L1.74978 194.467C1.2492 194.544 0.811203 194.192 0.91988 193.8L4.07152 181.012L37.7054 209.741L37.7054 209.745Z" fill="#0F2841"/>
<path d="M37.7054 152.289L23.8969 147.541C23.3963 147.37 22.8463 147.692 22.9089 148.118L23.6466 159.562C23.6993 159.931 23.2876 160.236 22.8233 160.176L13.0094 158.169C12.5187 158.105 12.1005 158.447 12.196 158.832L13.0819 169.017C13.1807 169.406 12.746 169.751 12.2487 169.677L1.74981 167.567C1.24923 167.489 0.811233 167.841 0.91991 168.233L4.07154 181.022L37.7054 152.292L37.7054 152.289Z" fill="#0F2841"/>
<path d="M0.903437 144.814L43.7617 108.61L0.903442 72.4053L0.903442 79.0257L35.9238 108.61L0.903437 138.194L0.903437 144.814Z" fill="#0F2841"/>
<path d="M17.3664 79.8801L31.1749 75.1325C31.6755 74.9617 32.2255 75.2833 32.1629 75.7088L31.4252 87.1538C31.3725 87.5223 31.7842 87.8272 32.2485 87.7669L42.0624 85.76C42.5531 85.6963 42.9713 86.0381 42.8758 86.4234L41.99 96.6086C41.8912 96.9972 42.3259 97.3423 42.8231 97.2686L53.322 95.1578C53.8226 95.0808 54.2606 95.4326 54.1519 95.8246L51.0003 108.613L17.3664 79.8834L17.3664 79.8801Z" fill="#0F2841"/>
<path d="M17.3664 137.339L31.1749 142.087C31.6755 142.258 32.2255 141.936 32.1629 141.511L31.4252 130.066C31.3725 129.697 31.7842 129.392 32.2485 129.452L42.0624 131.459C42.5531 131.523 42.9713 131.181 42.8758 130.796L41.99 120.611C41.8912 120.222 42.3259 119.877 42.8231 119.951L53.322 122.062C53.8226 122.139 54.2606 121.787 54.1519 121.395L51.0003 108.606L17.3664 137.336L17.3664 137.339Z" fill="#0F2841"/>
<path d="M54.1684 65.7883L19.148 36.2043L54.1684 6.62038L54.1684 3.23546e-06L11.3134 36.2043L54.1717 72.4087L54.1717 65.7883L54.1684 65.7883Z" fill="#0F2841"/>
<path d="M37.7054 64.9306L23.8969 69.6781C23.3963 69.849 22.8463 69.5273 22.9089 69.1018L23.6466 57.6569C23.6993 57.2884 23.2876 56.9835 22.8233 57.0438L13.0094 59.0507C12.5187 59.1143 12.1005 58.7726 12.196 58.3873L13.0819 48.2021C13.1807 47.8134 12.746 47.4684 12.2487 47.5421L1.74981 49.6528C1.24923 49.7299 0.811233 49.3781 0.919911 48.9861L4.07155 36.1976L37.7054 64.9273L37.7054 64.9306Z" fill="#0F2841"/>
<path d="M37.7054 7.47472L23.8969 2.72721C23.3963 2.55634 22.8463 2.87798 22.9089 3.30348L23.6466 14.7484C23.6993 15.117 23.2876 15.4219 22.8233 15.3615L13.0094 13.3547C12.5187 13.291 12.1005 13.6327 12.196 14.018L13.0819 24.2032C13.1807 24.5919 12.746 24.937 12.2487 24.8633L1.74981 22.7525C1.24923 22.6755 0.811233 23.0272 0.91991 23.4192L4.07154 36.2077L37.7054 7.47472Z" fill="#0F2841"/>
<path d="M54.2079 500.227L19.1875 470.643L54.2079 441.059L54.2079 434.439L11.3496 470.643L54.2078 506.847L54.2079 500.227Z" fill="#0F2841"/>
<path d="M37.7416 499.369L23.9331 504.117C23.4325 504.288 22.8825 503.966 22.9451 503.541L23.6828 492.096C23.7355 491.727 23.3238 491.422 22.8595 491.482L13.0456 493.489C12.5549 493.553 12.1367 493.211 12.2322 492.826L13.1181 482.641C13.2169 482.252 12.7821 481.907 12.2849 481.981L1.786 484.092C1.28543 484.169 0.847427 483.817 0.956104 483.425L4.10774 470.636L37.7416 499.366L37.7416 499.369Z" fill="#0F2841"/>
<path d="M37.7416 441.913L23.9331 437.166C23.4325 436.995 22.8825 437.317 22.9451 437.742L23.6828 449.187C23.7355 449.556 23.3238 449.861 22.8595 449.8L13.0456 447.793C12.5549 447.73 12.1367 448.071 12.2322 448.457L13.1181 458.642C13.2169 459.031 12.7821 459.376 12.2849 459.302L1.786 457.191C1.28543 457.114 0.847427 457.466 0.956104 457.858L4.10774 470.646L37.7416 441.917L37.7416 441.913Z" fill="#0F2841"/>
<path d="M0.939631 434.439L43.7979 398.234L0.939636 362.033L0.939636 368.654L35.96 398.238L0.939631 427.818L0.939631 434.439Z" fill="#0F2841"/>
<path d="M17.4059 369.508L31.2144 364.761C31.715 364.59 32.265 364.911 32.2024 365.337L31.4647 376.782C31.412 377.15 31.8237 377.455 32.288 377.395L42.1019 375.388C42.5926 375.324 43.0108 375.666 42.9153 376.051L42.0294 386.237C41.9306 386.625 42.3654 386.97 42.8626 386.897L53.3615 384.786C53.8621 384.709 54.3001 385.061 54.1914 385.453L51.0398 398.241L17.4059 369.511L17.4059 369.508Z" fill="#0F2841"/>
<path d="M17.4059 426.964L31.2144 431.712C31.715 431.882 32.265 431.561 32.2024 431.135L31.4647 419.69C31.412 419.322 31.8237 419.017 32.288 419.077L42.1019 421.084C42.5926 421.148 43.0108 420.806 42.9153 420.421L42.0294 410.235C41.9306 409.847 42.3654 409.502 42.8626 409.575L53.3615 411.686C53.8621 411.763 54.3001 411.411 54.1914 411.019L51.0398 398.231L17.4059 426.961L17.4059 426.964Z" fill="#0F2841"/>
<path d="M54.2079 355.413L19.1875 325.829L54.2079 296.245L54.2079 289.625L11.3496 325.829L54.2078 362.033L54.2079 355.413Z" fill="#0F2841"/>
<path d="M37.7416 354.559L23.9331 359.306C23.4325 359.477 22.8825 359.155 22.9451 358.73L23.6828 347.285C23.7355 346.916 23.3238 346.612 22.8595 346.672L13.0456 348.679C12.5549 348.742 12.1367 348.401 12.2322 348.015L13.1181 337.83C13.2169 337.442 12.7821 337.096 12.2849 337.17L1.786 339.281C1.28543 339.358 0.847427 339.006 0.956104 338.614L4.10774 325.826L37.7416 354.555L37.7416 354.559Z" fill="#0F2841"/>
<path d="M37.7416 297.099L23.9331 292.352C23.4325 292.181 22.8825 292.503 22.9451 292.928L23.6828 304.373C23.7355 304.742 23.3238 305.047 22.8595 304.986L13.0456 302.979C12.5549 302.916 12.1367 303.257 12.2322 303.643L13.1181 313.828C13.2169 314.217 12.7821 314.562 12.2849 314.488L1.786 312.377C1.28543 312.3 0.847427 312.652 0.956104 313.044L4.10774 325.832L37.7416 297.103L37.7416 297.099Z" fill="#0F2841"/>
</g>
<g clip-path="url(#clip2_2280_2133)">
<path d="M122.208 544.219L78.6232 580.424L122.208 616.625L122.208 610.004L86.594 580.42L122.208 550.836L122.208 544.216L122.208 544.219Z" fill="#0F2841"/>
<path d="M105.466 609.15L91.4233 613.897C90.9142 614.068 90.3549 613.747 90.4186 613.321L91.1688 601.876C91.2224 601.508 90.8037 601.203 90.3315 601.263L80.3513 603.27C79.8523 603.334 79.427 602.992 79.5241 602.607L80.425 592.421C80.5255 592.033 80.0834 591.688 79.5777 591.761L68.9009 593.872C68.3918 593.949 67.9464 593.597 68.0569 593.205L71.262 580.417L105.466 609.147L105.466 609.15Z" fill="#0F2841"/>
<path d="M105.466 551.694L91.4233 546.947C90.9142 546.776 90.355 547.097 90.4186 547.523L91.1688 558.968C91.2224 559.336 90.8037 559.641 90.3315 559.581L80.3513 557.574C79.8523 557.51 79.427 557.852 79.5241 558.237L80.425 568.423C80.5255 568.811 80.0834 569.156 79.5777 569.083L68.9009 566.972C68.3918 566.895 67.9464 567.247 68.0569 567.639L71.262 580.427L105.466 551.697L105.466 551.694Z" fill="#0F2841"/>
<path d="M68.0402 623.245L103.654 652.829L68.0402 682.413L68.0402 689.033L111.625 652.829L68.0402 616.625L68.0402 623.245Z" fill="#0F2841"/>
<path d="M84.7821 624.099L98.8247 619.352C99.3338 619.181 99.8931 619.503 99.8294 619.928L99.0793 631.373C99.0257 631.742 99.4443 632.047 99.9165 631.986L109.897 629.979C110.396 629.916 110.821 630.257 110.724 630.643L109.823 640.828C109.723 641.217 110.165 641.562 110.67 641.488L121.347 639.377C121.856 639.3 122.302 639.652 122.191 640.044L118.986 652.832L84.7821 624.103L84.7821 624.099Z" fill="#0F2841"/>
<path d="M84.7821 681.555L98.8247 686.303C99.3338 686.474 99.8931 686.152 99.8294 685.726L99.0793 674.282C99.0257 673.913 99.4443 673.608 99.9165 673.668L109.897 675.675C110.396 675.739 110.821 675.397 110.724 675.012L109.823 664.827C109.723 664.438 110.165 664.093 110.67 664.167L121.347 666.277C121.856 666.355 122.302 666.003 122.191 665.611L118.986 652.822L84.7821 681.552L84.7821 681.555Z" fill="#0F2841"/>
<path d="M122.208 689.03L78.6232 725.234L122.208 761.439L122.208 754.818L86.5939 725.234L122.208 695.65L122.208 689.03Z" fill="#0F2841"/>
<path d="M105.466 753.964L91.4233 758.711C90.9142 758.882 90.3549 758.561 90.4186 758.135L91.1688 746.69C91.2223 746.322 90.8037 746.017 90.3315 746.077L80.3513 748.084C79.8523 748.148 79.427 747.806 79.5241 747.421L80.425 737.235C80.5254 736.847 80.0834 736.502 79.5777 736.575L68.9009 738.686C68.3918 738.763 67.9464 738.411 68.0569 738.019L71.2619 725.231L105.466 753.961L105.466 753.964Z" fill="#0F2841"/>
<path d="M105.466 696.505L91.4233 691.757C90.9142 691.586 90.3549 691.908 90.4186 692.333L91.1688 703.778C91.2223 704.147 90.8037 704.452 90.3315 704.392L80.3513 702.385C79.8523 702.321 79.427 702.663 79.5241 703.048L80.425 713.233C80.5254 713.622 80.0834 713.967 79.5777 713.893L68.9009 711.782C68.3918 711.705 67.9464 712.057 68.0569 712.449L71.2619 725.238L105.466 696.508L105.466 696.505Z" fill="#0F2841"/>
<path d="M68.0401 768.056L103.654 797.64L68.0401 827.224L68.0401 833.844L111.621 797.64L68.0368 761.435L68.0368 768.056L68.0401 768.056Z" fill="#E93334"/>
<path d="M84.7821 768.913L98.8247 764.166C99.3338 763.995 99.8931 764.317 99.8294 764.742L99.0793 776.187C99.0257 776.556 99.4443 776.861 99.9165 776.8L109.897 774.793C110.396 774.73 110.821 775.071 110.724 775.457L109.823 785.642C109.723 786.031 110.165 786.376 110.67 786.302L121.347 784.191C121.856 784.114 122.302 784.466 122.191 784.858L118.986 797.646L84.7821 768.917L84.7821 768.913Z" fill="#E93334"/>
<path d="M84.7821 826.369L98.8247 831.117C99.3338 831.288 99.8931 830.966 99.8294 830.54L99.0792 819.096C99.0256 818.727 99.4443 818.422 99.9165 818.482L109.897 820.489C110.396 820.553 110.821 820.211 110.724 819.826L109.823 809.641C109.723 809.252 110.165 808.907 110.67 808.981L121.347 811.091C121.856 811.168 122.302 810.817 122.191 810.425L118.986 797.636L84.7821 826.369Z" fill="#E93334"/>
<path d="M68 333.617L103.614 363.201L68 392.785L68 399.405L111.585 363.201L68 326.997L68 333.617Z" fill="#0F2841"/>
<path d="M84.7453 334.475L98.7879 329.727C99.2969 329.556 99.8562 329.878 99.7926 330.303L99.0424 341.748C98.9888 342.117 99.4075 342.422 99.8797 342.362L109.86 340.355C110.359 340.291 110.784 340.633 110.687 341.018L109.786 351.203C109.686 351.592 110.128 351.937 110.634 351.863L121.31 349.752C121.819 349.675 122.265 350.027 122.154 350.419L118.949 363.208L84.7453 334.478L84.7453 334.475Z" fill="#0F2841"/>
<path d="M84.7453 391.931L98.7879 396.678C99.2969 396.849 99.8562 396.527 99.7926 396.102L99.0424 384.657C98.9888 384.288 99.4075 383.983 99.8797 384.044L109.86 386.051C110.359 386.114 110.784 385.773 110.687 385.387L109.786 375.202C109.686 374.813 110.128 374.468 110.634 374.542L121.31 376.653C121.819 376.73 122.265 376.378 122.154 375.986L118.949 363.198L84.7453 391.927L84.7453 391.931Z" fill="#0F2841"/>
<path d="M122.171 399.514L78.5864 435.719L122.171 471.92L122.171 465.299L86.5571 435.715L122.171 406.135L122.171 399.514Z" fill="#0F2841"/>
<path d="M105.426 464.336L91.3831 469.083C90.8741 469.254 90.3148 468.933 90.3784 468.507L91.1286 457.062C91.1822 456.694 90.7635 456.389 90.2913 456.449L80.3111 458.456C79.8121 458.52 79.3868 458.178 79.4839 457.793L80.3848 447.607C80.4853 447.219 80.0432 446.874 79.5375 446.947L68.8607 449.058C68.3516 449.135 67.9062 448.783 68.0167 448.391L71.2218 435.603L105.426 464.333L105.426 464.336Z" fill="#0F2841"/>
<path d="M105.426 406.989L91.3831 402.242C90.8741 402.071 90.3148 402.392 90.3784 402.818L91.1286 414.263C91.1822 414.631 90.7635 414.936 90.2913 414.876L80.3111 412.869C79.8121 412.805 79.3868 413.147 79.4839 413.532L80.3848 423.718C80.4853 424.106 80.0432 424.451 79.5375 424.378L68.8607 422.267C68.3516 422.19 67.9062 422.542 68.0167 422.934L71.2218 435.722L105.426 406.992L105.426 406.989Z" fill="#0F2841"/>
<path d="M68 478.431L103.614 508.015L68 537.599L68 544.219L111.585 508.015L68 471.811L68 478.431Z" fill="#0F2841"/>
<path d="M84.7453 479.285L98.7879 474.538C99.2969 474.367 99.8562 474.689 99.7926 475.114L99.0424 486.559C98.9888 486.928 99.4075 487.232 99.8797 487.172L109.86 485.165C110.359 485.102 110.784 485.443 110.687 485.829L109.786 496.014C109.686 496.402 110.128 496.748 110.634 496.674L121.31 494.563C121.819 494.486 122.265 494.838 122.154 495.23L118.949 508.018L84.7453 479.289L84.7453 479.285Z" fill="#0F2841"/>
<path d="M84.7453 536.745L98.7879 541.492C99.2969 541.663 99.8562 541.341 99.7926 540.916L99.0424 529.471C98.9888 529.102 99.4075 528.797 99.8797 528.858L109.86 530.865C110.359 530.928 110.784 530.587 110.687 530.201L109.786 520.016C109.686 519.627 110.128 519.282 110.634 519.356L121.31 521.467C121.819 521.544 122.265 521.192 122.154 520.8L118.949 508.012L84.7453 536.741L84.7453 536.745Z" fill="#0F2841"/>
</g>
<defs>
<clipPath id="clip0_2280_2133">
<rect width="506.844" height="54.2079" fill="white" transform="matrix(-1.19249e-08 -1 -1 1.19249e-08 54.2079 1015.84)"/>
</clipPath>
<clipPath id="clip1_2280_2133">
<rect width="506.844" height="53.3044" fill="white" transform="matrix(-7.54979e-08 1 1 7.54979e-08 0.903442 0)"/>
</clipPath>
<clipPath id="clip2_2280_2133">
<rect width="506.844" height="54.2079" fill="white" transform="matrix(4.37114e-08 -1 -1 -4.37114e-08 122.208 833.844)"/>
</clipPath>
</defs>
</svg>
