<svg width="123" height="835" viewBox="0 0 123 835" fill="none" xmlns="http://www.w3.org/2000/svg">
<path d="M54.2083 726.219L10.6236 762.424L54.2083 798.625L54.2083 792.004L18.5943 762.42L54.2083 732.836L54.2083 726.216L54.2083 726.219Z" fill="#0F2841"/>
<path d="M37.4663 791.15L23.4237 795.897C22.9146 796.068 22.3553 795.746 22.419 795.321L23.1692 783.876C23.2227 783.507 22.8041 783.202 22.3319 783.263L12.3517 785.27C11.8527 785.333 11.4274 784.992 11.5245 784.606L12.4254 774.421C12.5258 774.032 12.0838 773.687 11.5781 773.761L0.901256 775.872C0.392199 775.949 -0.0532278 775.597 0.0572912 775.205L3.26235 762.417L37.4663 791.146L37.4663 791.15Z" fill="#0F2841"/>
<path d="M37.4663 733.694L23.4237 728.946C22.9146 728.775 22.3553 729.097 22.419 729.523L23.1692 740.967C23.2227 741.336 22.8041 741.641 22.3319 741.581L12.3517 739.574C11.8527 739.51 11.4274 739.852 11.5245 740.237L12.4254 750.422C12.5258 750.811 12.0838 751.156 11.5781 751.082L0.901256 748.972C0.392199 748.895 -0.0532277 749.246 0.0572913 749.638L3.26235 762.427L37.4663 733.697L37.4663 733.694Z" fill="#0F2841"/>
<path d="M0.0405537 805.245L35.6545 834.829L43.6252 834.829L0.0405536 798.625L0.0405537 805.245Z" fill="#0F2841"/>
<path d="M16.7825 806.099L30.8251 801.352C31.3342 801.181 31.8934 801.502 31.8298 801.928L31.0796 813.373C31.026 813.741 31.4447 814.046 31.9169 813.986L41.8971 811.979C42.3961 811.915 42.8214 812.257 42.7243 812.642L41.8234 822.828C41.7229 823.216 42.165 823.561 42.6707 823.488L53.3475 821.377C53.8566 821.3 54.302 821.652 54.1915 822.044L50.9864 834.832L16.7825 806.102L16.7825 806.099Z" fill="#0F2841"/>
<path d="M0.000268708 515.617L35.6142 545.201L0.000269414 574.785L0.000269493 581.405L43.585 545.201L0.000268629 508.997L0.000268708 515.617Z" fill="#0F2841"/>
<path d="M16.7456 516.475L30.7882 511.727C31.2973 511.556 31.8566 511.878 31.793 512.303L31.0428 523.748C30.9892 524.117 31.4078 524.422 31.88 524.361L41.8602 522.354C42.3592 522.291 42.7846 522.633 42.6874 523.018L41.7865 533.203C41.6861 533.592 42.1282 533.937 42.6339 533.863L53.3107 531.752C53.8197 531.675 54.2652 532.027 54.1546 532.419L50.9496 545.208L16.7456 516.478L16.7456 516.475Z" fill="#0F2841"/>
<path d="M16.7456 573.93L30.7882 578.678C31.2973 578.849 31.8566 578.527 31.793 578.102L31.0428 566.657C30.9892 566.288 31.4078 565.983 31.88 566.044L41.8602 568.05C42.3592 568.114 42.7846 567.772 42.6874 567.387L41.7865 557.202C41.6861 556.813 42.1282 556.468 42.6339 556.542L53.3107 558.653C53.8197 558.73 54.2652 558.378 54.1546 557.986L50.9496 545.197L16.7456 573.927L16.7456 573.93Z" fill="#0F2841"/>
<path d="M54.2083 581.084L10.6236 617.289L54.2083 653.49L54.2083 646.869L18.5943 617.285L54.2083 587.705L54.2083 581.084Z" fill="#E93334"/>
<path d="M37.426 646.336L23.3834 651.083C22.8744 651.254 22.3151 650.932 22.3787 650.507L23.1289 639.062C23.1825 638.693 22.7638 638.388 22.2916 638.449L12.3114 640.456C11.8124 640.519 11.3871 640.178 11.4842 639.792L12.3851 629.607C12.4856 629.218 12.0435 628.873 11.5378 628.947L0.860973 631.058C0.351916 631.135 -0.093511 630.783 0.017008 630.391L3.22206 617.603L37.426 646.332L37.426 646.336Z" fill="#E93334"/>
<path d="M37.426 588.88L23.3834 584.132C22.8744 583.961 22.3151 584.283 22.3787 584.709L23.1289 596.154C23.1825 596.522 22.7638 596.827 22.2916 596.767L12.3114 594.76C11.8124 594.696 11.3871 595.038 11.4842 595.423L12.3851 605.608C12.4856 605.997 12.0435 606.342 11.5378 606.268L0.860973 604.158C0.351916 604.081 -0.0935109 604.432 0.0170081 604.824L3.22206 617.613L37.426 588.883L37.426 588.88Z" fill="#E93334"/>
<path d="M0.000268708 660.431L35.6142 690.015L0.000269414 719.599L0.000269493 726.219L43.585 690.015L0.000268629 653.811L0.000268708 660.431Z" fill="#0F2841"/>
<path d="M16.7456 661.285L30.7882 656.538C31.2973 656.367 31.8566 656.688 31.793 657.114L31.0428 668.559C30.9892 668.927 31.4078 669.232 31.88 669.172L41.8602 667.165C42.3592 667.101 42.7846 667.443 42.6874 667.828L41.7865 678.014C41.6861 678.402 42.1282 678.747 42.6339 678.674L53.3107 676.563C53.8197 676.486 54.2652 676.838 54.1546 677.23L50.9496 690.018L16.7456 661.288L16.7456 661.285Z" fill="#0F2841"/>
<path d="M16.7456 718.744L30.7882 723.492C31.2973 723.663 31.8566 723.341 31.793 722.916L31.0428 711.471C30.9892 711.102 31.4078 710.797 31.88 710.858L41.8602 712.864C42.3592 712.928 42.7846 712.586 42.6874 712.201L41.7865 702.016C41.6861 701.627 42.1282 701.282 42.6339 701.356L53.3107 703.467C53.8197 703.544 54.2652 703.192 54.1546 702.8L50.9496 690.011L16.7456 718.741L16.7456 718.744Z" fill="#0F2841"/>
<path d="M0.903681 289.836L43.762 253.632L0.903687 217.431L0.903686 224.052L35.924 253.635L0.903682 283.219L0.903681 289.84L0.903681 289.836Z" fill="#0F2841"/>
<path d="M17.3666 224.694L31.1751 219.947C31.6757 219.776 32.2257 220.097 32.1631 220.523L31.4254 231.968C31.3727 232.336 31.7844 232.641 32.2487 232.581L42.0626 230.574C42.5533 230.51 42.9715 230.852 42.876 231.237L41.9902 241.423C41.8914 241.811 42.3261 242.156 42.8234 242.083L53.3222 239.972C53.8228 239.895 54.2608 240.247 54.1521 240.639L51.0005 253.427L17.3666 224.697L17.3666 224.694Z" fill="#0F2841"/>
<path d="M17.3666 282.15L31.1751 286.897C31.6757 287.068 32.2257 286.747 32.1631 286.321L31.4254 274.876C31.3727 274.508 31.7844 274.203 32.2487 274.263L42.0626 276.27C42.5533 276.334 42.9715 275.992 42.876 275.607L41.9902 265.421C41.8914 265.033 42.3261 264.688 42.8234 264.761L53.3222 266.872C53.8228 266.949 54.2608 266.597 54.1521 266.205L51.0005 253.417L17.3666 282.147L17.3666 282.15Z" fill="#0F2841"/>
<path d="M54.1686 210.599L19.1482 181.015L54.1686 151.431L54.1686 144.811L11.3103 181.015L54.1686 217.219L54.1686 210.599Z" fill="#0F2841"/>
<path d="M37.7057 209.745L23.8971 214.492C23.3965 214.663 22.8466 214.341 22.9091 213.916L23.6468 202.471C23.6995 202.102 23.2879 201.798 22.8235 201.858L13.0097 203.865C12.519 203.928 12.1007 203.587 12.1962 203.201L13.0821 193.016C13.1809 192.628 12.7462 192.282 12.2489 192.356L1.75005 194.467C1.24948 194.544 0.811478 194.192 0.920155 193.8L4.07179 181.012L37.7057 209.741L37.7057 209.745Z" fill="#0F2841"/>
<path d="M37.7057 152.289L23.8971 147.541C23.3965 147.37 22.8466 147.692 22.9091 148.118L23.6468 159.563C23.6995 159.931 23.2879 160.236 22.8235 160.176L13.0097 158.169C12.519 158.105 12.1007 158.447 12.1962 158.832L13.0821 169.017C13.1809 169.406 12.7462 169.751 12.2489 169.677L1.75005 167.567C1.24948 167.49 0.811477 167.841 0.920154 168.233L4.07179 181.022L37.7057 152.292L37.7057 152.289Z" fill="#0F2841"/>
<path d="M0.903681 144.814L43.762 108.61L0.903687 72.4053L0.903686 79.0256L35.924 108.61L0.903682 138.194L0.903681 144.814Z" fill="#0F2841"/>
<path d="M17.3667 79.8802L31.1753 75.1327C31.6758 74.9618 32.2258 75.2834 32.1632 75.7089L31.4256 87.1539C31.3729 87.5224 31.7845 87.8273 32.2489 87.767L42.0627 85.7601C42.5534 85.6965 42.9717 86.0382 42.8762 86.4235L41.9903 96.6087C41.8915 96.9973 42.3262 97.3424 42.8235 97.2687L53.3223 95.158C53.8229 95.0809 54.2609 95.4327 54.1522 95.8247L51.0006 108.613L17.3667 79.8835L17.3667 79.8802Z" fill="#0F2841"/>
<path d="M17.3666 137.339L31.1751 142.087C31.6757 142.258 32.2257 141.936 32.1631 141.511L31.4254 130.066C31.3727 129.697 31.7844 129.392 32.2487 129.453L42.0626 131.459C42.5533 131.523 42.9715 131.181 42.876 130.796L41.9902 120.611C41.8914 120.222 42.3261 119.877 42.8234 119.951L53.3222 122.062C53.8228 122.139 54.2608 121.787 54.1521 121.395L51.0005 108.606L17.3666 137.336L17.3666 137.339Z" fill="#0F2841"/>
<path d="M54.1687 65.7883L19.1483 36.2043L54.1687 6.62038L54.1687 3.23546e-06L11.3137 36.2043L54.172 72.4087L54.172 65.7883L54.1687 65.7883Z" fill="#0F2841"/>
<path d="M37.7057 64.9307L23.8971 69.6782C23.3965 69.8491 22.8466 69.5275 22.9091 69.102L23.6468 57.657C23.6995 57.2885 23.2879 56.9836 22.8235 57.0439L13.0097 59.0508C12.519 59.1144 12.1007 58.7727 12.1962 58.3874L13.0821 48.2022C13.1809 47.8136 12.7462 47.4685 12.2489 47.5422L1.75005 49.6529C1.24948 49.73 0.811478 49.3782 0.920155 48.9862L4.07179 36.1978L37.7057 64.9274L37.7057 64.9307Z" fill="#0F2841"/>
<path d="M37.7057 7.47491L23.8971 2.7274C23.3965 2.55653 22.8466 2.87817 22.9091 3.30367L23.6468 14.7486C23.6995 15.1172 23.2879 15.422 22.8235 15.3617L13.0097 13.3548C12.519 13.2912 12.1007 13.6329 12.1962 14.0182L13.0821 24.2034C13.1809 24.5921 12.7462 24.9372 12.2489 24.8634L1.75005 22.7527C1.24948 22.6756 0.811477 23.0274 0.920154 23.4194L4.07179 36.2079L37.7057 7.47491Z" fill="#0F2841"/>
<path d="M54.2081 500.227L19.1878 470.643L54.2081 441.059L54.2081 434.438L11.3499 470.643L54.2081 506.847L54.2081 500.227Z" fill="#0F2841"/>
<path d="M37.7419 499.369L23.9334 504.117C23.4328 504.288 22.8828 503.966 22.9454 503.54L23.6831 492.096C23.7358 491.727 23.3241 491.422 22.8598 491.482L13.0459 493.489C12.5552 493.553 12.137 493.211 12.2325 492.826L13.1184 482.641C13.2172 482.252 12.7825 481.907 12.2852 481.981L1.78631 484.091C1.28573 484.168 0.847732 483.817 0.95641 483.425L4.10805 470.636L37.7419 499.366L37.7419 499.369Z" fill="#0F2841"/>
<path d="M37.7419 441.913L23.9334 437.166C23.4328 436.995 22.8828 437.317 22.9454 437.742L23.6831 449.187C23.7358 449.556 23.3241 449.861 22.8598 449.8L13.0459 447.793C12.5552 447.73 12.137 448.071 12.2325 448.457L13.1184 458.642C13.2172 459.031 12.7824 459.376 12.2852 459.302L1.78631 457.191C1.28573 457.114 0.847732 457.466 0.956409 457.858L4.10804 470.646L37.7419 441.917L37.7419 441.913Z" fill="#0F2841"/>
<path d="M0.939936 434.439L43.7982 398.234L0.939941 362.033L0.939941 368.654L35.9603 398.238L0.939936 427.818L0.939936 434.439Z" fill="#0F2841"/>
<path d="M17.4061 369.508L31.2147 364.761C31.7153 364.59 32.2652 364.911 32.2027 365.337L31.465 376.782C31.4123 377.15 31.824 377.455 32.2883 377.395L42.1022 375.388C42.5929 375.324 43.0111 375.666 42.9156 376.051L42.0297 386.237C41.9309 386.625 42.3656 386.97 42.8629 386.897L53.3618 384.786C53.8623 384.709 54.3003 385.061 54.1917 385.453L51.04 398.241L17.4061 369.511L17.4061 369.508Z" fill="#0F2841"/>
<path d="M17.4061 426.964L31.2147 431.711C31.7153 431.882 32.2652 431.561 32.2027 431.135L31.465 419.69C31.4123 419.322 31.824 419.017 32.2883 419.077L42.1022 421.084C42.5929 421.148 43.0111 420.806 42.9156 420.421L42.0297 410.235C41.9309 409.847 42.3656 409.502 42.8629 409.575L53.3618 411.686C53.8623 411.763 54.3003 411.411 54.1917 411.019L51.04 398.231L17.4061 426.961L17.4061 426.964Z" fill="#0F2841"/>
<path d="M54.2081 355.413L19.1878 325.829L54.2081 296.245L54.2081 289.625L11.3499 325.829L54.2081 362.033L54.2081 355.413Z" fill="#0F2841"/>
<path d="M37.7419 354.559L23.9334 359.306C23.4328 359.477 22.8828 359.155 22.9454 358.73L23.6831 347.285C23.7358 346.916 23.3241 346.612 22.8598 346.672L13.0459 348.679C12.5552 348.742 12.137 348.401 12.2325 348.015L13.1184 337.83C13.2172 337.442 12.7825 337.096 12.2852 337.17L1.78631 339.281C1.28573 339.358 0.847732 339.006 0.95641 338.614L4.10805 325.826L37.7419 354.555L37.7419 354.559Z" fill="#0F2841"/>
<path d="M37.7419 297.099L23.9334 292.352C23.4328 292.181 22.8828 292.503 22.9454 292.928L23.6831 304.373C23.7358 304.742 23.3241 305.047 22.8598 304.986L13.0459 302.979C12.5552 302.916 12.137 303.257 12.2325 303.643L13.1184 313.828C13.2172 314.217 12.7824 314.562 12.2852 314.488L1.78631 312.377C1.28573 312.3 0.847732 312.652 0.956409 313.044L4.10804 325.832L37.7419 297.103L37.7419 297.099Z" fill="#0F2841"/>
<path d="M122.208 544.219L78.6235 580.424L122.208 616.625L122.208 610.004L86.5942 580.42L122.208 550.836L122.208 544.216L122.208 544.219Z" fill="#0F2841"/>
<path d="M105.466 609.15L91.4236 613.897C90.9145 614.068 90.3552 613.746 90.4189 613.321L91.169 601.876C91.2226 601.507 90.804 601.202 90.3318 601.263L80.3516 603.27C79.8526 603.333 79.4272 602.992 79.5244 602.606L80.4253 592.421C80.5257 592.032 80.0837 591.687 79.5779 591.761L68.9011 593.872C68.3921 593.949 67.9467 593.597 68.0572 593.205L71.2622 580.417L105.466 609.146L105.466 609.15Z" fill="#0F2841"/>
<path d="M105.466 551.694L91.4236 546.946C90.9145 546.775 90.3552 547.097 90.4189 547.523L91.169 558.967C91.2226 559.336 90.804 559.641 90.3318 559.581L80.3516 557.574C79.8526 557.51 79.4272 557.852 79.5244 558.237L80.4253 568.422C80.5257 568.811 80.0837 569.156 79.5779 569.082L68.9011 566.972C68.3921 566.895 67.9467 567.246 68.0572 567.638L71.2622 580.427L105.466 551.697L105.466 551.694Z" fill="#0F2841"/>
<path d="M68.0404 623.245L103.654 652.829L68.0404 682.413L68.0404 689.033L111.625 652.829L68.0404 616.625L68.0404 623.245Z" fill="#0F2841"/>
<path d="M84.7824 624.099L98.825 619.352C99.334 619.181 99.8933 619.502 99.8297 619.928L99.0795 631.373C99.0259 631.741 99.4446 632.046 99.9168 631.986L109.897 629.979C110.396 629.915 110.821 630.257 110.724 630.642L109.823 640.828C109.723 641.216 110.165 641.561 110.671 641.488L121.347 639.377C121.856 639.3 122.302 639.652 122.191 640.044L118.986 652.832L84.7824 624.102L84.7824 624.099Z" fill="#0F2841"/>
<path d="M84.7824 681.555L98.825 686.302C99.334 686.473 99.8933 686.152 99.8297 685.726L99.0795 674.281C99.0259 673.913 99.4446 673.608 99.9168 673.668L109.897 675.675C110.396 675.739 110.821 675.397 110.724 675.012L109.823 664.826C109.723 664.438 110.165 664.093 110.671 664.166L121.347 666.277C121.856 666.354 122.302 666.002 122.191 665.61L118.986 652.822L84.7824 681.552L84.7824 681.555Z" fill="#0F2841"/>
<path d="M122.208 689.03L78.6235 725.234L122.208 761.438L122.208 754.818L86.5942 725.234L122.208 695.65L122.208 689.03Z" fill="#0F2841"/>
<path d="M105.466 753.964L91.4236 758.711C90.9145 758.882 90.3552 758.56 90.4189 758.135L91.169 746.69C91.2226 746.321 90.804 746.016 90.3318 746.077L80.3516 748.084C79.8526 748.147 79.4272 747.806 79.5244 747.42L80.4253 737.235C80.5257 736.846 80.0837 736.501 79.5779 736.575L68.9011 738.686C68.3921 738.763 67.9467 738.411 68.0572 738.019L71.2622 725.231L105.466 753.96L105.466 753.964Z" fill="#0F2841"/>
<path d="M105.466 696.504L91.4236 691.757C90.9145 691.586 90.3552 691.908 90.4189 692.333L91.169 703.778C91.2226 704.147 90.804 704.451 90.3318 704.391L80.3516 702.384C79.8526 702.321 79.4272 702.662 79.5244 703.048L80.4253 713.233C80.5257 713.621 80.0837 713.967 79.5779 713.893L68.9011 711.782C68.3921 711.705 67.9467 712.057 68.0572 712.449L71.2622 725.237L105.466 696.508L105.466 696.504Z" fill="#0F2841"/>
<path d="M68.0405 768.055L103.654 797.639L68.0405 827.223L68.0405 833.844L111.622 797.639L68.0371 761.435L68.0371 768.055L68.0405 768.055Z" fill="#E93334"/>
<path d="M84.7824 768.913L98.825 764.166C99.334 763.995 99.8933 764.316 99.8297 764.742L99.0795 776.187C99.0259 776.555 99.4446 776.86 99.9168 776.8L109.897 774.793C110.396 774.729 110.821 775.071 110.724 775.456L109.823 785.642C109.723 786.03 110.165 786.375 110.671 786.302L121.347 784.191C121.856 784.114 122.302 784.466 122.191 784.858L118.986 797.646L84.7824 768.916L84.7824 768.913Z" fill="#E93334"/>
<path d="M84.7824 826.369L98.825 831.116C99.334 831.287 99.8933 830.966 99.8297 830.54L99.0795 819.095C99.0259 818.727 99.4446 818.422 99.9168 818.482L109.897 820.489C110.396 820.553 110.821 820.211 110.724 819.826L109.823 809.64C109.723 809.252 110.165 808.907 110.671 808.98L121.347 811.091C121.856 811.168 122.302 810.816 122.191 810.424L118.986 797.636L84.7824 826.369Z" fill="#E93334"/>
<path d="M68.0003 333.617L103.614 363.201L68.0003 392.785L68.0003 399.405L111.585 363.201L68.0003 326.997L68.0003 333.617Z" fill="#0F2841"/>
<path d="M84.7456 334.475L98.7882 329.727C99.2973 329.556 99.8566 329.878 99.793 330.303L99.0428 341.748C98.9892 342.117 99.4078 342.422 99.88 342.361L109.86 340.354C110.359 340.291 110.785 340.633 110.687 341.018L109.787 351.203C109.686 351.592 110.128 351.937 110.634 351.863L121.311 349.752C121.82 349.675 122.265 350.027 122.155 350.419L118.95 363.208L84.7456 334.478L84.7456 334.475Z" fill="#0F2841"/>
<path d="M84.7456 391.93L98.7882 396.678C99.2973 396.849 99.8566 396.527 99.793 396.102L99.0428 384.657C98.9892 384.288 99.4078 383.983 99.88 384.044L109.86 386.05C110.359 386.114 110.785 385.772 110.687 385.387L109.787 375.202C109.686 374.813 110.128 374.468 110.634 374.542L121.311 376.653C121.82 376.73 122.265 376.378 122.155 375.986L118.95 363.197L84.7456 391.927L84.7456 391.93Z" fill="#0F2841"/>
<path d="M122.171 399.514L78.5867 435.718L122.171 471.919L122.171 465.299L86.5575 435.715L122.171 406.134L122.171 399.514Z" fill="#0F2841"/>
<path d="M105.426 464.336L91.3834 469.083C90.8744 469.254 90.3151 468.932 90.3787 468.507L91.1289 457.062C91.1825 456.693 90.7638 456.388 90.2916 456.449L80.3114 458.456C79.8124 458.519 79.3871 458.178 79.4842 457.792L80.3851 447.607C80.4856 447.218 80.0435 446.873 79.5378 446.947L68.861 449.058C68.3519 449.135 67.9065 448.783 68.017 448.391L71.2221 435.603L105.426 464.332L105.426 464.336Z" fill="#0F2841"/>
<path d="M105.426 406.989L91.3834 402.241C90.8744 402.07 90.3151 402.392 90.3787 402.817L91.1289 414.262C91.1825 414.631 90.7638 414.936 90.2916 414.876L80.3114 412.869C79.8124 412.805 79.3871 413.147 79.4842 413.532L80.3851 423.717C80.4856 424.106 80.0435 424.451 79.5378 424.377L68.861 422.266C68.3519 422.189 67.9065 422.541 68.017 422.933L71.2221 435.722L105.426 406.992L105.426 406.989Z" fill="#0F2841"/>
<path d="M68.0003 478.431L103.614 508.015L68.0003 537.599L68.0003 544.219L111.585 508.015L68.0003 471.811L68.0003 478.431Z" fill="#0F2841"/>
<path d="M84.7456 479.285L98.7882 474.538C99.2973 474.367 99.8566 474.688 99.793 475.114L99.0428 486.559C98.9892 486.927 99.4078 487.232 99.88 487.172L109.86 485.165C110.359 485.101 110.785 485.443 110.687 485.828L109.787 496.014C109.686 496.402 110.128 496.747 110.634 496.674L121.311 494.563C121.82 494.486 122.265 494.838 122.155 495.23L118.95 508.018L84.7456 479.288L84.7456 479.285Z" fill="#0F2841"/>
<path d="M84.7456 536.744L98.7882 541.492C99.2973 541.663 99.8566 541.341 99.793 540.916L99.0428 529.471C98.9892 529.102 99.4078 528.797 99.88 528.858L109.86 530.864C110.359 530.928 110.785 530.586 110.687 530.201L109.787 520.016C109.686 519.627 110.128 519.282 110.634 519.356L121.311 521.467C121.82 521.544 122.265 521.192 122.155 520.8L118.95 508.011L84.7456 536.741L84.7456 536.744Z" fill="#0F2841"/>
</svg>
