<svg width="57" height="56" viewBox="0 0 57 56" fill="none" xmlns="http://www.w3.org/2000/svg">
<rect width="57" height="56" rx="28" fill="#E93334"/>
<g clip-path="url(#clip0_2246_5027)">
<path d="M45.9661 40.0138C45.5275 37.2007 40.3191 39.3652 39.9953 36.283C39.5392 31.908 46.0449 22.4853 45.533 18.8224C45.0769 15.5357 42.85 14.8411 40.9184 14.8007C39.0427 14.7733 38.5483 15.0686 37.9161 15.4394C37.5453 15.6494 37.0225 16.0705 36.293 15.3771C35.8084 14.9144 35.4781 14.5972 34.9717 14.186C34.7092 13.976 34.2936 13.7135 33.5925 13.6118C32.9045 13.5035 31.9924 13.6117 31.4225 13.8513C30.8406 14.1017 30.3977 14.5349 29.9252 14.945C29.4516 15.3552 28.2495 16.6939 27.1383 16.1974C26.6483 15.9874 25.0077 15.166 23.8231 14.6607C21.5438 13.6752 18.2527 15.2699 17.0605 17.383C15.2941 20.5155 11.8149 32.8432 11.2778 34.4674C10.0999 38.1128 12.7883 41.0868 16.3999 40.915C17.9322 40.8417 18.9516 40.2894 19.9141 38.5296C20.473 37.5146 25.7197 23.8208 26.1124 23.1547C26.3978 22.6822 27.3428 22.0555 28.1413 22.4591C28.9452 22.8747 29.1038 23.7289 28.9845 24.5328C28.7844 25.8377 25.0941 34.2005 24.9453 35.1411C24.7058 36.7522 25.4703 37.6403 27.1449 37.7322C28.2856 37.7891 29.4297 37.3855 30.3299 35.676C30.8374 34.7233 36.6703 23.0355 37.1822 22.2546C37.752 21.4003 38.207 21.1138 38.7955 21.1488C39.245 21.1707 39.9559 21.2855 39.7799 22.6286C39.6038 23.951 34.9105 32.5194 34.4205 34.615C33.7588 37.4293 35.2966 40.2664 37.8374 41.5144C39.4561 42.3107 46.5425 43.6669 45.9672 40.0149L45.9661 40.0138Z" fill="white"/>
</g>
<defs>
<clipPath id="clip0_2246_5027">
<rect width="35" height="35" fill="white" transform="translate(11 10.5)"/>
</clipPath>
</defs>
</svg>
