<svg width="735" height="108" viewBox="0 0 735 108" fill="none" xmlns="http://www.w3.org/2000/svg">
<path fill-rule="evenodd" clip-rule="evenodd" d="M141.063 14.4945C131.951 10.0122 122.224 12.4542 113.366 16.8025C106.017 9.01035 96.4964 3.60499 86.0389 1.28684C75.5814 -1.03131 64.6687 -0.155403 54.7149 3.80107C44.761 7.75754 36.2248 14.6122 30.2123 23.4769C24.1998 32.3415 20.9881 42.8076 20.9934 53.519C21.0007 55.8237 21.1549 58.1256 21.455 60.4108C12.7768 63.6051 4.90633 68.8444 1.32886 77.6011C-3.01027 87.5904 6.245 95.3823 15.7957 95.2531C37.7534 94.1617 55.0352 78.2029 70.6643 63.7702L70.6654 63.7692C72.2233 62.3306 73.7646 60.9072 75.2926 59.5153C76.893 58.0134 78.4956 56.4899 80.106 54.9589L80.1064 54.9585C89.9407 45.6094 100.071 35.9791 111.817 29.2832L111.816 29.2809C114.4 27.71 117.112 26.3596 119.923 25.244L120.496 25.0167L120.499 25.0232C122.324 24.2947 124.181 23.651 126.065 23.0943C129.185 22.2403 138.021 21.0401 136.802 26.2886V26.2701C134.526 31.5202 130.42 34.5397 125.665 36.6473L125.674 36.6673L121.753 38.2664L117.492 39.5884C118.766 43.5149 119.502 47.6152 119.664 51.7774C119.98 59.9021 118.097 67.9615 114.215 75.1055C110.332 82.2495 104.594 88.2133 97.6044 92.3678C90.6151 96.5224 82.6341 98.7136 74.5032 98.7105C64.7448 98.7105 52.6091 96.0701 50.0933 92.1372L43.0953 96.6148C48.3484 104.827 65.308 107.02 74.4848 107.02C82.0511 107.025 89.5324 105.425 96.4346 102.325C103.337 99.2248 109.503 94.6958 114.525 89.0368C119.548 83.3778 123.312 76.7176 125.57 69.4962C127.829 62.2747 128.529 54.6563 127.625 47.1441C136.46 43.539 144.243 37.5796 146.953 28.0889C148.49 22.2403 146.367 17.398 141.063 14.4945ZM16.8897 85.0608C10.6672 85.4762 8.58074 81.6772 13.3815 77.495C16.3632 74.5194 19.8872 72.1424 23.7631 70.4923C25.0852 74.4574 26.875 78.2509 29.0947 81.7926C25.2477 83.5932 21.1127 84.6997 16.8805 85.0608H16.8897ZM60.1564 58.5874C57.4642 60.5438 55.0332 62.8363 52.9226 65.4094C52.4767 64.9359 52.128 64.3794 51.8964 63.7716C51.6639 63.1616 51.5538 62.5117 51.5724 61.859C51.6101 60.541 52.1698 59.292 53.1284 58.3866C54.087 57.4813 55.366 56.9938 56.684 57.0315C58.002 57.0691 59.251 57.6288 60.1564 58.5874ZM60.3364 42.8188C59.3235 42.8207 58.3329 42.522 57.4898 41.9606C56.6467 41.3992 55.9892 40.6003 55.6003 39.6651C55.2114 38.7298 55.1087 37.7002 55.3052 36.7065C55.5017 35.7129 55.9885 34.7999 56.7041 34.083C57.4196 33.3661 58.3318 32.8777 59.3251 32.6794C60.3184 32.4811 61.3481 32.582 62.2841 32.9691C63.2201 33.3563 64.0201 34.0125 64.583 34.8545C65.146 35.6966 65.4464 36.6867 65.4464 37.6996C65.447 38.372 65.315 39.038 65.058 39.6594C64.8009 40.2807 64.4239 40.8453 63.9484 41.3208C63.4729 41.7963 62.9083 42.1734 62.287 42.4304C61.6684 42.6863 61.0057 42.8182 60.3364 42.8188ZM81.5151 37.8658C81.0907 37.369 80.7684 36.7935 80.5665 36.1722C80.3645 35.5508 80.287 34.8958 80.3382 34.2444C80.3894 33.5931 80.5684 32.9583 80.865 32.3761C81.1616 31.794 81.5699 31.2759 82.0667 30.8516C83.07 29.9946 84.3726 29.5713 85.688 29.6747C86.3393 29.726 86.9742 29.905 87.5563 30.2015C88.1385 30.4981 88.6565 30.9065 89.0808 31.4032C86.294 33.2265 83.7515 35.3982 81.5151 37.8658ZM100.93 24.0683C99.7763 24.853 99.0516 25.0838 97.8053 24.0683C91.892 19.2306 85.0695 16.5763 77.4575 15.7177C73.4995 15.272 69.4948 15.4889 65.608 16.3594C66.2482 16.9255 66.7363 17.643 67.0277 18.4463C67.3192 19.2496 67.4047 20.1132 67.2765 20.9581C67.1483 21.803 66.8105 22.6023 66.2938 23.283C65.7771 23.9637 65.0981 24.5041 64.3189 24.8548C63.5396 25.2055 62.6848 25.3554 61.8327 25.2907C60.9806 25.2261 60.1583 24.9489 59.4408 24.4846C58.7234 24.0203 58.1338 23.3836 57.7257 22.6327C57.3177 21.8818 57.1044 21.0407 57.1051 20.1861C57.1062 19.9045 57.1309 19.6235 57.179 19.346C49.1388 23.3414 42.7185 29.9818 38.9962 38.152C39.203 38.1263 39.411 38.1125 39.6194 38.1104C40.4441 38.1169 41.2551 38.3225 41.9832 38.7097C42.7114 39.097 43.3352 39.6545 43.8016 40.3347C44.268 41.0149 44.5631 41.7977 44.6619 42.6166C44.7606 43.4354 44.6601 44.2659 44.3688 45.0375C44.0775 45.8091 43.6041 46.4989 42.9889 47.0482C42.3737 47.5975 41.6348 47.99 40.8353 48.1923C40.0358 48.3947 39.1992 48.4008 38.3967 48.2103C37.5943 48.0197 36.8498 47.6381 36.2265 47.098C35.7955 49.659 35.6408 52.2589 35.7649 54.853C35.7649 54.853 36.2635 62.2665 38.927 67.8935C39.5437 69.1999 40.0692 70.2212 40.4886 71.0364C41.3667 72.7432 41.78 73.5466 41.5935 74.1707C41.4276 74.7256 40.7876 75.1389 39.5784 75.9196L39.4763 75.9855C38.4746 76.6318 37.4637 77.2688 36.4343 77.892C30.4536 68.5714 28.1043 57.3789 29.8326 46.4402C31.5609 35.5015 37.2463 25.5785 45.8092 18.5557C54.3721 11.533 65.2159 7.89963 76.2813 8.3457C87.3467 8.79178 97.8629 13.2862 105.833 20.9755C104.139 22.0095 102.5 23.0619 100.93 24.0867V24.0683ZM103.512 76.9621C102.659 76.8482 101.848 76.5209 101.155 76.0104C100.462 75.5 99.9093 74.8229 99.5476 74.042C99.1859 73.261 99.0271 72.4014 99.0859 71.5427C99.1447 70.6841 99.4193 69.8542 99.8842 69.1299C100.349 68.4055 100.989 67.8103 101.745 67.3991C102.501 66.988 103.349 66.7743 104.21 66.7778C105.07 66.7814 105.916 67.0021 106.669 67.4194C107.422 67.8368 108.057 68.4374 108.516 69.1655C110.95 64.0783 112.123 58.4796 111.936 52.843V52.2752C111.866 52.0857 111.816 51.8891 111.788 51.689C111.756 51.4372 111.724 51.1854 111.693 50.9338C111.27 47.5863 110.851 44.2608 109.25 41.3027L108.83 41.4505C104.781 44.4324 100.922 47.6083 97.16 50.8904C97.9145 51.2559 98.5676 51.8012 99.0618 52.4784C99.5559 53.1556 99.8761 53.9439 99.994 54.7739C100.112 55.604 100.024 56.4502 99.738 57.2383C99.452 58.0263 98.9766 58.732 98.3538 59.2932C97.7309 59.8543 96.9797 60.2538 96.1662 60.4564C95.3527 60.659 94.5019 60.6585 93.6886 60.455C92.8753 60.2515 92.1246 59.8512 91.5024 59.2893C90.8802 58.7274 90.4056 58.0213 90.1205 57.2329C87.5111 59.6495 84.9295 62.0956 82.3475 64.5422C74.1087 72.3486 65.8649 80.1598 56.6953 87.0344C73.1378 95.7727 92.627 90.0349 103.512 76.9621ZM78.9172 74.5017C79.9299 74.5017 80.9198 74.8021 81.7618 75.3648C82.6037 75.9275 83.2599 76.7273 83.6472 77.663C84.0345 78.5987 84.1357 79.6282 83.9377 80.6214C83.7398 81.6145 83.2518 82.5267 82.5354 83.2424C81.819 83.9582 80.9064 84.4454 79.9131 84.6424C78.9197 84.8394 77.8903 84.7374 76.9549 84.3492C76.0196 83.961 75.2204 83.3042 74.6585 82.4617C74.0965 81.6192 73.797 80.629 73.798 79.6163C73.7992 78.2594 74.3391 76.9585 75.299 75.9995C76.2589 75.0404 77.5603 74.5017 78.9172 74.5017Z" fill="black"/>
<mask id="path-2-outside-1_3108_647" maskUnits="userSpaceOnUse" x="183.992" y="4.47754" width="551" height="86" fill="black">
<rect fill="white" x="183.992" y="4.47754" width="551" height="86"/>
<path d="M216.512 8.75053C224.251 8.75053 230.86 11.1371 236.338 15.9102C241.815 20.6833 244.554 26.4413 244.554 33.1843C244.554 39.8515 241.815 45.5716 236.338 50.3447C230.86 55.0421 224.251 57.3907 216.512 57.3907H200.47V82.0518C200.47 83.7943 199.731 85.2717 198.252 86.484C196.861 87.6962 195.166 88.3023 193.166 88.3023C191.166 88.3023 189.47 87.6962 188.079 86.484C186.688 85.2717 185.992 83.7943 185.992 82.0518V15.001C185.992 13.2585 186.688 11.7811 188.079 10.5689C189.47 9.35664 191.166 8.75053 193.166 8.75053H216.512ZM200.47 21.3652V44.7761H216.512C220.251 44.7761 223.425 43.6397 226.034 41.3667C228.642 39.0938 229.99 36.3664 230.077 33.1843C229.99 29.8507 228.642 27.0474 226.034 24.7745C223.425 22.5016 220.251 21.3652 216.512 21.3652H200.47Z"/>
<path d="M259.811 33.4116C261.203 32.1994 262.898 31.5933 264.898 31.5933C266.898 31.5933 268.55 32.1994 269.854 33.4116C271.246 34.548 271.941 36.0254 271.941 37.8437V82.1654C271.941 83.908 271.246 85.3854 269.854 86.5976C268.55 87.7341 266.898 88.3023 264.898 88.3023C262.985 88.3023 261.333 87.6962 259.942 86.484C258.551 85.2717 257.855 83.8322 257.855 82.1654V37.8437C257.855 36.0254 258.507 34.548 259.811 33.4116ZM271.941 14.8874V17.2739C271.941 19.0165 271.246 20.4939 269.854 21.7061C268.55 22.9183 266.898 23.5244 264.898 23.5244C262.985 23.5244 261.333 22.9183 259.942 21.7061C258.551 20.4939 257.855 19.0165 257.855 17.2739V14.8874C257.855 13.2206 258.551 11.7811 259.942 10.5689C261.333 9.35664 262.985 8.75053 264.898 8.75053C266.898 8.75053 268.55 9.35664 269.854 10.5689C271.246 11.7053 271.941 13.1448 271.941 14.8874Z"/>
<path d="M286.464 84.4383L286.073 83.4155V82.62C285.986 82.5442 285.942 82.4306 285.942 82.2791V82.1654L286.073 81.3699V80.9153C286.247 80.7638 286.334 80.5744 286.334 80.3471C286.334 80.044 286.508 79.741 286.855 79.4379C286.855 79.2864 286.986 79.097 287.247 78.8697H287.377L316.724 43.526H292.855C291.029 43.526 289.421 42.9578 288.029 41.8213C286.638 40.6091 285.942 39.1696 285.942 37.5028C285.942 35.836 286.638 34.4344 288.029 33.2979C289.421 32.0857 291.029 31.4796 292.855 31.4796H330.549L331.331 31.5933H331.984C332.245 31.5933 332.418 31.6311 332.505 31.7069C332.679 31.7827 332.94 31.8584 333.288 31.9342C333.462 32.1615 333.592 32.2751 333.679 32.2751L334.592 32.7297C334.766 32.7297 334.853 32.8055 334.853 32.957L335.505 33.5252C335.679 33.5252 335.853 33.7146 336.027 34.0934C336.288 34.3965 336.505 34.548 336.679 34.548C336.94 35.2299 337.07 35.6845 337.07 35.9118C337.07 36.0633 337.157 36.2148 337.331 36.3664V37.0482L337.462 37.5028V37.6165L337.331 38.1847C337.331 38.715 337.244 39.1317 337.07 39.4348C337.07 39.7378 336.94 39.9272 336.679 40.003V40.3439L336.027 40.9122V41.0258L306.55 76.2559H330.549C332.375 76.2559 333.984 76.862 335.375 78.0742C336.766 79.2106 337.462 80.6123 337.462 82.2791C337.462 83.9459 336.766 85.3854 335.375 86.5976C333.984 87.7341 332.375 88.3023 330.549 88.3023H292.855C292.333 88.3023 291.899 88.2644 291.551 88.1886H291.16C290.812 88.0371 290.551 87.9613 290.377 87.9613L289.334 87.5068C289.073 87.2795 288.942 87.1279 288.942 87.0522C288.595 87.0522 288.16 86.787 287.638 86.2567C287.116 85.6506 286.855 85.2338 286.855 85.0066C286.595 84.9308 286.464 84.7414 286.464 84.4383Z"/>
<path d="M351.096 84.4383L350.705 83.4155V82.62C350.618 82.5442 350.574 82.4306 350.574 82.2791V82.1654L350.705 81.3699V80.9153C350.879 80.7638 350.966 80.5744 350.966 80.3471C350.966 80.044 351.139 79.741 351.487 79.4379C351.487 79.2864 351.618 79.097 351.879 78.8697H352.009L381.355 43.526H357.487C355.661 43.526 354.052 42.9578 352.661 41.8213C351.27 40.6091 350.574 39.1696 350.574 37.5028C350.574 35.836 351.27 34.4344 352.661 33.2979C354.052 32.0857 355.661 31.4796 357.487 31.4796H395.181L395.963 31.5933H396.615C396.876 31.5933 397.05 31.6311 397.137 31.7069C397.311 31.7827 397.572 31.8584 397.92 31.9342C398.094 32.1615 398.224 32.2751 398.311 32.2751L399.224 32.7297C399.398 32.7297 399.485 32.8055 399.485 32.957L400.137 33.5252C400.311 33.5252 400.485 33.7146 400.659 34.0934C400.92 34.3965 401.137 34.548 401.311 34.548C401.572 35.2299 401.702 35.6845 401.702 35.9118C401.702 36.0633 401.789 36.2148 401.963 36.3664V37.0482L402.093 37.5028V37.6165L401.963 38.1847C401.963 38.715 401.876 39.1317 401.702 39.4348C401.702 39.7378 401.572 39.9272 401.311 40.003V40.3439L400.659 40.9122V41.0258L371.182 76.2559H395.181C397.007 76.2559 398.615 76.862 400.007 78.0742C401.398 79.2106 402.093 80.6123 402.093 82.2791C402.093 83.9459 401.398 85.3854 400.007 86.5976C398.615 87.7341 397.007 88.3023 395.181 88.3023H357.487C356.965 88.3023 356.53 88.2644 356.183 88.1886H355.791C355.444 88.0371 355.183 87.9613 355.009 87.9613L353.965 87.5068C353.705 87.2795 353.574 87.1279 353.574 87.0522C353.226 87.0522 352.792 86.787 352.27 86.2567C351.748 85.6506 351.487 85.2338 351.487 85.0066C351.226 84.9308 351.096 84.7414 351.096 84.4383Z"/>
<path d="M441.225 88.3023C432.442 88.3023 425.052 85.5369 419.052 80.0062C413.139 74.4754 410.183 67.8082 410.183 60.0046C410.183 52.1252 413.139 45.4201 419.052 39.8894C425.052 34.2829 432.442 31.4796 441.225 31.4796C447.398 31.4796 453.181 33.1464 458.572 36.48C459.006 35.0405 459.832 33.8662 461.05 32.957C462.267 31.9721 463.745 31.4796 465.484 31.4796C467.31 31.4796 468.875 32.0857 470.18 33.2979C471.571 34.5101 472.267 35.9497 472.267 37.6165V82.2791C472.267 83.9459 471.571 85.3854 470.18 86.5976C468.875 87.7341 467.31 88.3023 465.484 88.3023C463.745 88.3023 462.267 87.8477 461.05 86.9385C459.832 86.0294 459.006 84.855 458.572 83.4155C453.268 86.6734 447.485 88.3023 441.225 88.3023ZM424.139 60.0046C424.139 64.5504 425.704 68.3765 428.834 71.4828C432.051 74.5891 436.138 76.1422 441.094 76.1422C446.137 76.1422 450.268 74.5891 453.485 71.4828C456.789 68.3765 458.441 64.5504 458.441 60.0046C458.441 55.4588 456.789 51.5948 453.485 48.4128C450.181 45.2307 446.05 43.6397 441.094 43.6397C436.225 43.6397 432.182 45.2307 428.964 48.4128C425.747 51.5191 424.139 55.383 424.139 60.0046Z"/>
<path d="M489.73 82.0518V15.001C489.73 13.2585 490.425 11.7811 491.817 10.5689C493.208 9.35664 494.903 8.75053 496.903 8.75053H512.294C524.902 8.75053 535.641 12.6524 544.51 20.456C553.379 28.1839 557.813 37.5407 557.813 48.5264C557.813 59.5121 553.379 68.9068 544.51 76.7104C535.641 84.4383 524.902 88.3023 512.294 88.3023H496.903C494.903 88.3023 493.208 87.6962 491.817 86.484C490.425 85.2717 489.73 83.7943 489.73 82.0518ZM504.207 21.3652V75.6876H512.294C520.902 75.6119 528.206 72.9602 534.206 67.7325C540.292 62.429 543.336 56.027 543.336 48.5264C543.336 41.0258 540.292 34.6238 534.206 29.3203C528.206 24.0169 520.902 21.3652 512.294 21.3652H504.207Z"/>
<path d="M623.394 84.3247L617.003 69.5508H585.309L578.918 84.3247C577.701 86.9764 575.57 88.3023 572.527 88.3023C569.571 88.3023 567.44 87.3931 566.136 85.5748C564.832 83.6807 564.571 81.7487 565.354 79.7789L594.178 12.8418C594.787 11.6296 595.7 10.6446 596.917 9.88699C598.221 9.12935 599.613 8.78842 601.091 8.86418C604.395 8.71265 606.699 10.0385 608.004 12.8418L636.828 79.7789C637.611 81.7487 637.35 83.6807 636.046 85.5748C634.741 87.3931 632.568 88.3023 629.524 88.3023C626.568 88.3023 624.524 86.9764 623.394 84.3247ZM590.526 57.0498H601.091H611.656L601.091 32.6161L590.526 57.0498Z"/>
<path d="M656.542 76.2558C647.933 68.2248 643.629 58.6029 643.629 47.3899C643.629 36.1769 647.933 26.5549 656.542 18.5239C665.237 10.493 675.801 6.47754 688.236 6.47754C700.67 6.47754 711.191 10.5688 719.799 18.7512C728.495 26.8579 732.842 36.442 732.842 47.5035C732.842 58.565 728.451 68.1112 719.669 76.1421C715.756 79.9303 711.061 82.923 705.583 85.1201C700.105 87.2415 694.409 88.3022 688.496 88.3022C675.888 88.3022 665.237 84.2867 656.542 76.2558ZM658.498 47.3899C658.498 55.042 661.411 61.6334 667.237 67.1641C673.062 72.6191 680.062 75.3466 688.236 75.3466C696.496 75.3466 703.496 72.5812 709.235 67.0505C715.06 61.444 717.973 54.8904 717.973 47.3899C717.973 39.8893 715.104 33.3736 709.365 27.8429C703.626 22.2364 696.583 19.4331 688.236 19.4331C679.975 19.4331 672.932 22.1985 667.106 27.7292C661.367 33.1842 658.498 39.7377 658.498 47.3899Z"/>
</mask>
<path d="M216.512 8.75053C224.251 8.75053 230.86 11.1371 236.338 15.9102C241.815 20.6833 244.554 26.4413 244.554 33.1843C244.554 39.8515 241.815 45.5716 236.338 50.3447C230.86 55.0421 224.251 57.3907 216.512 57.3907H200.47V82.0518C200.47 83.7943 199.731 85.2717 198.252 86.484C196.861 87.6962 195.166 88.3023 193.166 88.3023C191.166 88.3023 189.47 87.6962 188.079 86.484C186.688 85.2717 185.992 83.7943 185.992 82.0518V15.001C185.992 13.2585 186.688 11.7811 188.079 10.5689C189.47 9.35664 191.166 8.75053 193.166 8.75053H216.512ZM200.47 21.3652V44.7761H216.512C220.251 44.7761 223.425 43.6397 226.034 41.3667C228.642 39.0938 229.99 36.3664 230.077 33.1843C229.99 29.8507 228.642 27.0474 226.034 24.7745C223.425 22.5016 220.251 21.3652 216.512 21.3652H200.47Z" fill="black"/>
<path d="M259.811 33.4116C261.203 32.1994 262.898 31.5933 264.898 31.5933C266.898 31.5933 268.55 32.1994 269.854 33.4116C271.246 34.548 271.941 36.0254 271.941 37.8437V82.1654C271.941 83.908 271.246 85.3854 269.854 86.5976C268.55 87.7341 266.898 88.3023 264.898 88.3023C262.985 88.3023 261.333 87.6962 259.942 86.484C258.551 85.2717 257.855 83.8322 257.855 82.1654V37.8437C257.855 36.0254 258.507 34.548 259.811 33.4116ZM271.941 14.8874V17.2739C271.941 19.0165 271.246 20.4939 269.854 21.7061C268.55 22.9183 266.898 23.5244 264.898 23.5244C262.985 23.5244 261.333 22.9183 259.942 21.7061C258.551 20.4939 257.855 19.0165 257.855 17.2739V14.8874C257.855 13.2206 258.551 11.7811 259.942 10.5689C261.333 9.35664 262.985 8.75053 264.898 8.75053C266.898 8.75053 268.55 9.35664 269.854 10.5689C271.246 11.7053 271.941 13.1448 271.941 14.8874Z" fill="black"/>
<path d="M286.464 84.4383L286.073 83.4155V82.62C285.986 82.5442 285.942 82.4306 285.942 82.2791V82.1654L286.073 81.3699V80.9153C286.247 80.7638 286.334 80.5744 286.334 80.3471C286.334 80.044 286.508 79.741 286.855 79.4379C286.855 79.2864 286.986 79.097 287.247 78.8697H287.377L316.724 43.526H292.855C291.029 43.526 289.421 42.9578 288.029 41.8213C286.638 40.6091 285.942 39.1696 285.942 37.5028C285.942 35.836 286.638 34.4344 288.029 33.2979C289.421 32.0857 291.029 31.4796 292.855 31.4796H330.549L331.331 31.5933H331.984C332.245 31.5933 332.418 31.6311 332.505 31.7069C332.679 31.7827 332.94 31.8584 333.288 31.9342C333.462 32.1615 333.592 32.2751 333.679 32.2751L334.592 32.7297C334.766 32.7297 334.853 32.8055 334.853 32.957L335.505 33.5252C335.679 33.5252 335.853 33.7146 336.027 34.0934C336.288 34.3965 336.505 34.548 336.679 34.548C336.94 35.2299 337.07 35.6845 337.07 35.9118C337.07 36.0633 337.157 36.2148 337.331 36.3664V37.0482L337.462 37.5028V37.6165L337.331 38.1847C337.331 38.715 337.244 39.1317 337.07 39.4348C337.07 39.7378 336.94 39.9272 336.679 40.003V40.3439L336.027 40.9122V41.0258L306.55 76.2559H330.549C332.375 76.2559 333.984 76.862 335.375 78.0742C336.766 79.2106 337.462 80.6123 337.462 82.2791C337.462 83.9459 336.766 85.3854 335.375 86.5976C333.984 87.7341 332.375 88.3023 330.549 88.3023H292.855C292.333 88.3023 291.899 88.2644 291.551 88.1886H291.16C290.812 88.0371 290.551 87.9613 290.377 87.9613L289.334 87.5068C289.073 87.2795 288.942 87.1279 288.942 87.0522C288.595 87.0522 288.16 86.787 287.638 86.2567C287.116 85.6506 286.855 85.2338 286.855 85.0066C286.595 84.9308 286.464 84.7414 286.464 84.4383Z" fill="black"/>
<path d="M351.096 84.4383L350.705 83.4155V82.62C350.618 82.5442 350.574 82.4306 350.574 82.2791V82.1654L350.705 81.3699V80.9153C350.879 80.7638 350.966 80.5744 350.966 80.3471C350.966 80.044 351.139 79.741 351.487 79.4379C351.487 79.2864 351.618 79.097 351.879 78.8697H352.009L381.355 43.526H357.487C355.661 43.526 354.052 42.9578 352.661 41.8213C351.27 40.6091 350.574 39.1696 350.574 37.5028C350.574 35.836 351.27 34.4344 352.661 33.2979C354.052 32.0857 355.661 31.4796 357.487 31.4796H395.181L395.963 31.5933H396.615C396.876 31.5933 397.05 31.6311 397.137 31.7069C397.311 31.7827 397.572 31.8584 397.92 31.9342C398.094 32.1615 398.224 32.2751 398.311 32.2751L399.224 32.7297C399.398 32.7297 399.485 32.8055 399.485 32.957L400.137 33.5252C400.311 33.5252 400.485 33.7146 400.659 34.0934C400.92 34.3965 401.137 34.548 401.311 34.548C401.572 35.2299 401.702 35.6845 401.702 35.9118C401.702 36.0633 401.789 36.2148 401.963 36.3664V37.0482L402.093 37.5028V37.6165L401.963 38.1847C401.963 38.715 401.876 39.1317 401.702 39.4348C401.702 39.7378 401.572 39.9272 401.311 40.003V40.3439L400.659 40.9122V41.0258L371.182 76.2559H395.181C397.007 76.2559 398.615 76.862 400.007 78.0742C401.398 79.2106 402.093 80.6123 402.093 82.2791C402.093 83.9459 401.398 85.3854 400.007 86.5976C398.615 87.7341 397.007 88.3023 395.181 88.3023H357.487C356.965 88.3023 356.53 88.2644 356.183 88.1886H355.791C355.444 88.0371 355.183 87.9613 355.009 87.9613L353.965 87.5068C353.705 87.2795 353.574 87.1279 353.574 87.0522C353.226 87.0522 352.792 86.787 352.27 86.2567C351.748 85.6506 351.487 85.2338 351.487 85.0066C351.226 84.9308 351.096 84.7414 351.096 84.4383Z" fill="black"/>
<path d="M441.225 88.3023C432.442 88.3023 425.052 85.5369 419.052 80.0062C413.139 74.4754 410.183 67.8082 410.183 60.0046C410.183 52.1252 413.139 45.4201 419.052 39.8894C425.052 34.2829 432.442 31.4796 441.225 31.4796C447.398 31.4796 453.181 33.1464 458.572 36.48C459.006 35.0405 459.832 33.8662 461.05 32.957C462.267 31.9721 463.745 31.4796 465.484 31.4796C467.31 31.4796 468.875 32.0857 470.18 33.2979C471.571 34.5101 472.267 35.9497 472.267 37.6165V82.2791C472.267 83.9459 471.571 85.3854 470.18 86.5976C468.875 87.7341 467.31 88.3023 465.484 88.3023C463.745 88.3023 462.267 87.8477 461.05 86.9385C459.832 86.0294 459.006 84.855 458.572 83.4155C453.268 86.6734 447.485 88.3023 441.225 88.3023ZM424.139 60.0046C424.139 64.5504 425.704 68.3765 428.834 71.4828C432.051 74.5891 436.138 76.1422 441.094 76.1422C446.137 76.1422 450.268 74.5891 453.485 71.4828C456.789 68.3765 458.441 64.5504 458.441 60.0046C458.441 55.4588 456.789 51.5948 453.485 48.4128C450.181 45.2307 446.05 43.6397 441.094 43.6397C436.225 43.6397 432.182 45.2307 428.964 48.4128C425.747 51.5191 424.139 55.383 424.139 60.0046Z" fill="black"/>
<path d="M489.73 82.0518V15.001C489.73 13.2585 490.425 11.7811 491.817 10.5689C493.208 9.35664 494.903 8.75053 496.903 8.75053H512.294C524.902 8.75053 535.641 12.6524 544.51 20.456C553.379 28.1839 557.813 37.5407 557.813 48.5264C557.813 59.5121 553.379 68.9068 544.51 76.7104C535.641 84.4383 524.902 88.3023 512.294 88.3023H496.903C494.903 88.3023 493.208 87.6962 491.817 86.484C490.425 85.2717 489.73 83.7943 489.73 82.0518ZM504.207 21.3652V75.6876H512.294C520.902 75.6119 528.206 72.9602 534.206 67.7325C540.292 62.429 543.336 56.027 543.336 48.5264C543.336 41.0258 540.292 34.6238 534.206 29.3203C528.206 24.0169 520.902 21.3652 512.294 21.3652H504.207Z" fill="black"/>
<path d="M623.394 84.3247L617.003 69.5508H585.309L578.918 84.3247C577.701 86.9764 575.57 88.3023 572.527 88.3023C569.571 88.3023 567.44 87.3931 566.136 85.5748C564.832 83.6807 564.571 81.7487 565.354 79.7789L594.178 12.8418C594.787 11.6296 595.7 10.6446 596.917 9.88699C598.221 9.12935 599.613 8.78842 601.091 8.86418C604.395 8.71265 606.699 10.0385 608.004 12.8418L636.828 79.7789C637.611 81.7487 637.35 83.6807 636.046 85.5748C634.741 87.3931 632.568 88.3023 629.524 88.3023C626.568 88.3023 624.524 86.9764 623.394 84.3247ZM590.526 57.0498H601.091H611.656L601.091 32.6161L590.526 57.0498Z" fill="black"/>
<path d="M656.542 76.2558C647.933 68.2248 643.629 58.6029 643.629 47.3899C643.629 36.1769 647.933 26.5549 656.542 18.5239C665.237 10.493 675.801 6.47754 688.236 6.47754C700.67 6.47754 711.191 10.5688 719.799 18.7512C728.495 26.8579 732.842 36.442 732.842 47.5035C732.842 58.565 728.451 68.1112 719.669 76.1421C715.756 79.9303 711.061 82.923 705.583 85.1201C700.105 87.2415 694.409 88.3022 688.496 88.3022C675.888 88.3022 665.237 84.2867 656.542 76.2558ZM658.498 47.3899C658.498 55.042 661.411 61.6334 667.237 67.1641C673.062 72.6191 680.062 75.3466 688.236 75.3466C696.496 75.3466 703.496 72.5812 709.235 67.0505C715.06 61.444 717.973 54.8904 717.973 47.3899C717.973 39.8893 715.104 33.3736 709.365 27.8429C703.626 22.2364 696.583 19.4331 688.236 19.4331C679.975 19.4331 672.932 22.1985 667.106 27.7292C661.367 33.1842 658.498 39.7377 658.498 47.3899Z" fill="black"/>
<path d="M236.338 15.9102L235.483 16.8903L236.338 15.9102ZM236.338 50.3447L237.184 51.3316L237.192 51.3249L236.338 50.3447ZM200.47 57.3907V56.0907C199.752 56.0907 199.17 56.6728 199.17 57.3907H200.47ZM198.252 86.484L197.428 85.4787C197.418 85.487 197.408 85.4953 197.398 85.5038L198.252 86.484ZM188.079 10.5689L188.933 11.549L188.933 11.549L188.079 10.5689ZM200.47 21.3652V20.0652C199.752 20.0652 199.17 20.6472 199.17 21.3652H200.47ZM200.47 44.7761H199.17C199.17 45.4941 199.752 46.0761 200.47 46.0761V44.7761ZM230.077 33.1843L231.376 33.2198C231.377 33.1967 231.377 33.1735 231.377 33.1504L230.077 33.1843ZM226.034 24.7745L225.18 25.7547H225.18L226.034 24.7745ZM259.811 33.4116L260.665 34.3917L259.811 33.4116ZM269.854 33.4116L268.969 34.3638C268.99 34.3827 269.011 34.4009 269.032 34.4184L269.854 33.4116ZM269.854 86.5976L269 85.6175L269.854 86.5976ZM259.942 86.484L260.796 85.5038L259.942 86.484ZM269.854 21.7061L269 20.726C268.99 20.7351 268.98 20.7444 268.969 20.7539L269.854 21.7061ZM259.942 21.7061L259.088 22.6862V22.6862L259.942 21.7061ZM259.942 10.5689L260.796 11.549L260.796 11.549L259.942 10.5689ZM269.854 10.5689L268.969 11.5211C268.99 11.5399 269.011 11.5581 269.032 11.5757L269.854 10.5689ZM286.464 84.4383H287.764C287.764 84.2796 287.735 84.1221 287.678 83.9738L286.464 84.4383ZM286.073 83.4155H284.773C284.773 83.5743 284.802 83.7317 284.859 83.88L286.073 83.4155ZM286.073 82.62H287.373C287.373 82.2442 287.21 81.8868 286.927 81.6399L286.073 82.62ZM285.942 82.1654L284.66 81.9551C284.648 82.0246 284.642 82.095 284.642 82.1654H285.942ZM286.073 81.3699L287.356 81.5802C287.367 81.5107 287.373 81.4404 287.373 81.3699H286.073ZM286.073 80.9153L285.219 79.9352C284.936 80.1821 284.773 80.5395 284.773 80.9153H286.073ZM286.855 79.4379L287.709 80.4181C287.993 80.1712 288.155 79.8138 288.155 79.4379H286.855ZM287.247 78.8697V77.5697C286.933 77.5697 286.629 77.6833 286.393 77.8896L287.247 78.8697ZM287.377 78.8697V80.1697C287.764 80.1697 288.13 79.9976 288.377 79.7002L287.377 78.8697ZM316.724 43.526L317.724 44.3565C318.046 43.9687 318.115 43.4298 317.9 42.9736C317.686 42.5173 317.228 42.226 316.724 42.226V43.526ZM288.029 41.8213L287.175 42.8015C287.186 42.8105 287.196 42.8194 287.207 42.8281L288.029 41.8213ZM288.029 33.2979L288.852 34.3047C288.862 34.296 288.873 34.2871 288.883 34.2781L288.029 33.2979ZM330.549 31.4796L330.736 30.1931C330.674 30.1841 330.611 30.1796 330.549 30.1796V31.4796ZM331.331 31.5933L331.145 32.8798C331.207 32.8887 331.269 32.8932 331.331 32.8932V31.5933ZM332.505 31.7069L331.651 32.687C331.751 32.7743 331.864 32.8457 331.986 32.8987L332.505 31.7069ZM333.288 31.9342L334.32 31.1442C334.133 30.8997 333.865 30.7295 333.565 30.664L333.288 31.9342ZM333.679 32.2751L334.259 31.1114C334.079 31.0218 333.88 30.9751 333.679 30.9751V32.2751ZM334.592 32.7297L334.013 33.8934C334.193 33.9831 334.391 34.0297 334.592 34.0297V32.7297ZM334.853 32.957H333.553C333.553 33.3328 333.716 33.6902 333.999 33.9371L334.853 32.957ZM335.505 33.5252L334.651 34.5053C334.888 34.7116 335.191 34.8252 335.505 34.8252V33.5252ZM336.027 34.0934L334.845 34.6358C334.896 34.7464 334.962 34.8493 335.042 34.9415L336.027 34.0934ZM336.679 34.548L337.893 34.0835C337.701 33.5803 337.218 33.248 336.679 33.248V34.548ZM337.331 36.3664H338.631C338.631 35.9905 338.469 35.6331 338.185 35.3862L337.331 36.3664ZM337.331 37.0482H336.031C336.031 37.1695 336.048 37.2901 336.082 37.4067L337.331 37.0482ZM337.462 37.5028H338.762C338.762 37.3816 338.745 37.2609 338.711 37.1443L337.462 37.5028ZM337.462 37.6165L338.729 37.9072C338.751 37.8119 338.762 37.7143 338.762 37.6165H337.462ZM337.331 38.1847L336.064 37.8939C336.042 37.9893 336.031 38.0868 336.031 38.1847H337.331ZM337.07 39.4348L335.943 38.7878C335.83 38.9847 335.77 39.2077 335.77 39.4348H337.07ZM336.679 40.003L336.316 38.7546C335.761 38.9159 335.379 39.4247 335.379 40.003H336.679ZM336.679 40.3439L337.533 41.324C337.816 41.0772 337.979 40.7197 337.979 40.3439H336.679ZM336.027 40.9122L335.173 39.9321C334.89 40.1789 334.727 40.5364 334.727 40.9122H336.027ZM336.027 41.0258L337.024 41.86C337.22 41.6261 337.327 41.3308 337.327 41.0258H336.027ZM306.55 76.2559L305.553 75.4216C305.229 75.8089 305.159 76.3487 305.372 76.8061C305.586 77.2635 306.045 77.5559 306.55 77.5559V76.2559ZM335.375 78.0742L334.521 79.0543C334.531 79.0634 334.542 79.0723 334.552 79.081L335.375 78.0742ZM335.375 86.5976L336.197 87.6044C336.208 87.5957 336.218 87.5868 336.229 87.5777L335.375 86.5976ZM291.551 88.1886L291.828 86.9184C291.737 86.8986 291.644 86.8886 291.551 86.8886V88.1886ZM291.16 88.1886L290.64 89.3804C290.804 89.4518 290.981 89.4886 291.16 89.4886V88.1886ZM290.377 87.9613L289.858 89.1532C290.022 89.2245 290.198 89.2614 290.377 89.2614V87.9613ZM289.334 87.5068L288.48 88.4869C288.58 88.5741 288.693 88.6455 288.814 88.6986L289.334 87.5068ZM288.942 87.0522H290.242C290.242 86.3342 289.66 85.7522 288.942 85.7522V87.0522ZM287.638 86.2567L286.653 87.1047C286.672 87.1266 286.691 87.1478 286.711 87.1683L287.638 86.2567ZM286.855 85.0066H288.155C288.155 84.4282 287.773 83.9194 287.218 83.7581L286.855 85.0066ZM351.096 84.4383H352.396C352.396 84.2796 352.367 84.1221 352.31 83.9739L351.096 84.4383ZM350.705 83.4155H349.405C349.405 83.5743 349.434 83.7317 349.491 83.88L350.705 83.4155ZM350.705 82.62H352.005C352.005 82.2442 351.842 81.8868 351.559 81.6399L350.705 82.62ZM350.574 82.1654L349.291 81.955C349.28 82.0246 349.274 82.0949 349.274 82.1654H350.574ZM350.705 81.3699L351.988 81.5803C351.999 81.5107 352.005 81.4404 352.005 81.3699H350.705ZM350.705 80.9153L349.851 79.9352C349.567 80.1821 349.405 80.5395 349.405 80.9153H350.705ZM351.487 79.4379L352.341 80.4181C352.625 80.1712 352.787 79.8138 352.787 79.4379H351.487ZM351.879 78.8697V77.5697C351.565 77.5697 351.261 77.6833 351.025 77.8896L351.879 78.8697ZM352.009 78.8697V80.1697C352.396 80.1697 352.762 79.9976 353.009 79.7002L352.009 78.8697ZM381.355 43.526L382.356 44.3565C382.677 43.9687 382.746 43.4298 382.532 42.9736C382.318 42.5173 381.859 42.226 381.355 42.226V43.526ZM352.661 41.8213L351.807 42.8015C351.818 42.8105 351.828 42.8194 351.839 42.8281L352.661 41.8213ZM352.661 33.2979L353.484 34.3047C353.494 34.296 353.505 34.2871 353.515 34.2781L352.661 33.2979ZM395.181 31.4796L395.368 30.1931C395.306 30.1841 395.243 30.1796 395.181 30.1796V31.4796ZM395.963 31.5933L395.776 32.8798C395.838 32.8887 395.901 32.8932 395.963 32.8932V31.5933ZM397.137 31.7069L396.283 32.687C396.383 32.7743 396.496 32.8457 396.618 32.8987L397.137 31.7069ZM397.92 31.9342L398.952 31.1442C398.765 30.8997 398.497 30.7295 398.196 30.664L397.92 31.9342ZM398.311 32.2751L398.89 31.1114C398.71 31.0218 398.512 30.9751 398.311 30.9751V32.2751ZM399.224 32.7297L398.645 33.8934C398.825 33.9831 399.023 34.0297 399.224 34.0297V32.7297ZM399.485 32.957H398.185C398.185 33.3328 398.347 33.6902 398.631 33.9371L399.485 32.957ZM400.137 33.5252L399.283 34.5053C399.52 34.7116 399.823 34.8252 400.137 34.8252V33.5252ZM400.659 34.0934L399.477 34.6358C399.528 34.7464 399.594 34.8493 399.673 34.9415L400.659 34.0934ZM401.311 34.548L402.525 34.0835C402.333 33.5803 401.85 33.248 401.311 33.248V34.548ZM401.963 36.3664H403.263C403.263 35.9905 403.1 35.6331 402.817 35.3862L401.963 36.3664ZM401.963 37.0482H400.663C400.663 37.1695 400.68 37.2902 400.713 37.4067L401.963 37.0482ZM402.093 37.5028H403.393C403.393 37.3815 403.376 37.2609 403.343 37.1443L402.093 37.5028ZM402.093 37.6165L403.36 37.9073C403.382 37.8119 403.393 37.7143 403.393 37.6165H402.093ZM401.963 38.1847L400.696 37.8939C400.674 37.9893 400.663 38.0868 400.663 38.1847H401.963ZM401.702 39.4348L400.575 38.7878C400.462 38.9847 400.402 39.2077 400.402 39.4348H401.702ZM401.311 40.003L400.948 38.7546C400.393 38.9159 400.011 39.4247 400.011 40.003H401.311ZM401.311 40.3439L402.165 41.324C402.448 41.0772 402.611 40.7197 402.611 40.3439H401.311ZM400.659 40.9122L399.805 39.9321C399.521 40.1789 399.359 40.5364 399.359 40.9122H400.659ZM400.659 41.0258L401.656 41.86C401.851 41.6261 401.959 41.3308 401.959 41.0258H400.659ZM371.182 76.2559L370.185 75.4216C369.861 75.8089 369.79 76.3487 370.004 76.8061C370.218 77.2635 370.677 77.5559 371.182 77.5559V76.2559ZM400.007 78.0742L399.153 79.0543C399.163 79.0634 399.173 79.0723 399.184 79.081L400.007 78.0742ZM400.007 86.5976L400.829 87.6044C400.84 87.5957 400.85 87.5868 400.861 87.5777L400.007 86.5976ZM356.183 88.1886L356.459 86.9184C356.368 86.8986 356.276 86.8886 356.183 86.8886V88.1886ZM355.791 88.1886L355.272 89.3804C355.436 89.4518 355.613 89.4886 355.791 89.4886V88.1886ZM355.009 87.9613L354.49 89.1531C354.653 89.2245 354.83 89.2614 355.009 89.2614V87.9613ZM353.965 87.5068L353.111 88.4869C353.212 88.5741 353.324 88.6455 353.446 88.6985L353.965 87.5068ZM353.574 87.0522H354.874C354.874 86.3342 354.292 85.7522 353.574 85.7522V87.0522ZM352.27 86.2567L351.285 87.1047C351.303 87.1266 351.323 87.1478 351.343 87.1683L352.27 86.2567ZM351.487 85.0066H352.787C352.787 84.4282 352.405 83.9194 351.85 83.7581L351.487 85.0066ZM419.052 80.0062L418.164 80.9556L418.171 80.962L419.052 80.0062ZM419.052 39.8894L418.164 38.9395L418.164 38.94L419.052 39.8894ZM458.572 36.48L457.888 37.5857C458.231 37.7981 458.654 37.8388 459.032 37.6958C459.41 37.5529 459.699 37.2425 459.816 36.8559L458.572 36.48ZM461.05 32.957L461.828 33.9986C461.841 33.9885 461.854 33.9782 461.867 33.9676L461.05 32.957ZM470.18 33.2979L469.295 34.2502C469.305 34.2596 469.315 34.2689 469.326 34.2781L470.18 33.2979ZM470.18 86.5976L469.326 85.6175L470.18 86.5976ZM461.05 86.9385L460.272 87.9801L461.05 86.9385ZM458.572 83.4155L459.816 83.0397C459.7 82.6537 459.41 82.3437 459.034 82.2004C458.657 82.0571 458.235 82.0968 457.891 82.3078L458.572 83.4155ZM428.834 71.4828L427.918 72.4055C427.922 72.4097 427.927 72.4139 427.931 72.418L428.834 71.4828ZM453.485 71.4828L452.594 70.5356C452.59 70.5396 452.586 70.5435 452.582 70.5475L453.485 71.4828ZM453.485 48.4128L452.583 49.3491L453.485 48.4128ZM428.964 48.4128L429.867 49.348C429.871 49.3444 429.875 49.3407 429.879 49.337L428.964 48.4128ZM491.817 10.5689L492.671 11.549V11.549L491.817 10.5689ZM544.51 20.456L543.651 21.432L543.656 21.4361L544.51 20.456ZM544.51 76.7104L545.364 77.6906L545.368 77.6864L544.51 76.7104ZM504.207 21.3652V20.0652C503.489 20.0652 502.907 20.6472 502.907 21.3652H504.207ZM504.207 75.6876H502.907C502.907 76.4056 503.489 76.9876 504.207 76.9876V75.6876ZM512.294 75.6876V76.9877L512.305 76.9876L512.294 75.6876ZM534.206 67.7325L533.352 66.7523L534.206 67.7325ZM534.206 29.3203L533.345 30.2944L533.352 30.3005L534.206 29.3203ZM623.394 84.3247L624.59 83.8149L624.587 83.8085L623.394 84.3247ZM617.003 69.5508L618.196 69.0347C617.99 68.5588 617.522 68.2508 617.003 68.2508V69.5508ZM585.309 69.5508V68.2508C584.791 68.2508 584.322 68.5588 584.116 69.0347L585.309 69.5508ZM578.918 84.3247L580.1 84.8671C580.104 84.8584 580.107 84.8496 580.111 84.8408L578.918 84.3247ZM566.136 85.5748L565.065 86.3121C565.07 86.3189 565.075 86.3257 565.08 86.3325L566.136 85.5748ZM565.354 79.7789L564.16 79.2647C564.155 79.276 564.15 79.2874 564.145 79.2989L565.354 79.7789ZM594.178 12.8418L593.016 12.2584C593.005 12.2812 592.994 12.3042 592.984 12.3276L594.178 12.8418ZM596.917 9.88699L596.264 8.76288C596.253 8.76951 596.241 8.77631 596.23 8.78329L596.917 9.88699ZM601.091 8.86418L601.024 10.1625C601.066 10.1646 601.108 10.1647 601.15 10.1628L601.091 8.86418ZM608.004 12.8418L609.198 12.3276C609.193 12.3161 609.188 12.3047 609.182 12.2934L608.004 12.8418ZM636.828 79.7789L638.036 79.2989C638.032 79.2874 638.027 79.276 638.022 79.2647L636.828 79.7789ZM636.046 85.5748L637.102 86.3325C637.107 86.3257 637.112 86.3189 637.116 86.3121L636.046 85.5748ZM590.526 57.0498L589.333 56.5339C589.159 56.9356 589.199 57.3979 589.44 57.7637C589.68 58.1295 590.088 58.3498 590.526 58.3498V57.0498ZM611.656 57.0498V58.3498C612.093 58.3498 612.502 58.1295 612.742 57.7637C612.982 57.3979 613.022 56.9356 612.849 56.5339L611.656 57.0498ZM601.091 32.6161L602.284 32.1001C602.078 31.6242 601.609 31.3161 601.091 31.3161C600.572 31.3161 600.103 31.6242 599.898 32.1001L601.091 32.6161ZM656.542 76.2558L655.655 77.2064L655.659 77.2108L656.542 76.2558ZM656.542 18.5239L655.659 17.5689L655.655 17.5734L656.542 18.5239ZM719.799 18.7512L718.904 19.6935L718.913 19.7021L719.799 18.7512ZM719.669 76.1421L718.792 75.1828C718.782 75.1911 718.773 75.1995 718.765 75.2081L719.669 76.1421ZM705.583 85.1201L706.052 86.3324C706.057 86.3305 706.062 86.3286 706.067 86.3267L705.583 85.1201ZM667.237 67.1641L666.342 68.107L666.348 68.1131L667.237 67.1641ZM709.235 67.0505L708.333 66.1138L708.332 66.1144L709.235 67.0505ZM709.365 27.8429L708.456 28.7728L708.463 28.7789L709.365 27.8429ZM667.106 27.7292L666.211 26.7864L666.211 26.787L667.106 27.7292ZM216.512 10.0505C223.959 10.0505 230.258 12.3376 235.483 16.8903L237.192 14.9301C231.461 9.93658 224.543 7.45053 216.512 7.45053V10.0505ZM235.483 16.8903C240.703 21.4382 243.254 26.8489 243.254 33.1843H245.854C245.854 26.0338 242.928 19.9284 237.192 14.9301L235.483 16.8903ZM243.254 33.1843C243.254 39.4392 240.707 44.8134 235.483 49.3646L237.192 51.3249C242.924 46.3298 245.854 40.2637 245.854 33.1843H243.254ZM235.491 49.3579C230.267 53.8379 223.965 56.0907 216.512 56.0907V58.6907C224.537 58.6907 231.452 56.2463 237.184 51.3316L235.491 49.3579ZM216.512 56.0907H200.47V58.6907H216.512V56.0907ZM199.17 57.3907V82.0518H201.77V57.3907H199.17ZM199.17 82.0518C199.17 83.3639 198.638 84.4862 197.428 85.4787L199.077 87.4892C200.823 86.0573 201.77 84.2247 201.77 82.0518H199.17ZM197.398 85.5038C196.265 86.4918 194.88 87.0023 193.166 87.0023V89.6023C195.451 89.6023 197.458 88.9005 199.106 87.4641L197.398 85.5038ZM193.166 87.0023C191.451 87.0023 190.067 86.4918 188.933 85.5038L187.225 87.4641C188.874 88.9005 190.88 89.6023 193.166 89.6023V87.0023ZM188.933 85.5038C187.806 84.522 187.292 83.3941 187.292 82.0518H184.692C184.692 84.1946 185.569 86.0215 187.225 87.4641L188.933 85.5038ZM187.292 82.0518V15.001H184.692V82.0518H187.292ZM187.292 15.001C187.292 13.6587 187.806 12.5309 188.933 11.549L187.225 9.58873C185.569 11.0313 184.692 12.8582 184.692 15.001H187.292ZM188.933 11.549C190.067 10.561 191.451 10.0505 193.166 10.0505V7.45053C190.88 7.45053 188.874 8.15232 187.225 9.58873L188.933 11.549ZM193.166 10.0505H216.512V7.45053H193.166V10.0505ZM199.17 21.3652V44.7761H201.77V21.3652H199.17ZM200.47 46.0761H216.512V43.4761H200.47V46.0761ZM216.512 46.0761C220.538 46.0761 224.023 44.8433 226.888 42.3469L225.18 40.3866C222.828 42.436 219.965 43.4761 216.512 43.4761V46.0761ZM226.888 42.3469C229.744 39.8584 231.279 36.799 231.376 33.2198L228.777 33.1488C228.701 35.9337 227.541 38.3293 225.18 40.3866L226.888 42.3469ZM231.377 33.1504C231.28 29.4377 229.759 26.2963 226.888 23.7944L225.18 25.7547C227.525 27.7986 228.7 30.2636 228.777 33.2182L231.377 33.1504ZM226.888 23.7944C224.023 21.2979 220.538 20.0652 216.512 20.0652V22.6652C219.965 22.6652 222.828 23.7053 225.18 25.7547L226.888 23.7944ZM216.512 20.0652H200.47V22.6652H216.512V20.0652ZM260.665 34.3917C261.799 33.4037 263.184 32.8932 264.898 32.8932V30.2932C262.613 30.2932 260.606 30.995 258.957 32.4314L260.665 34.3917ZM264.898 32.8932C266.613 32.8932 267.936 33.4032 268.969 34.3638L270.739 32.4593C269.164 30.9956 267.183 30.2932 264.898 30.2932V32.8932ZM269.032 34.4184C270.117 35.3044 270.641 36.4102 270.641 37.8437H273.241C273.241 35.6407 272.375 33.7916 270.677 32.4048L269.032 34.4184ZM270.641 37.8437V82.1654H273.241V37.8437H270.641ZM270.641 82.1654C270.641 83.5077 270.127 84.6356 269 85.6175L270.708 87.5777C272.364 86.1352 273.241 84.3083 273.241 82.1654H270.641ZM269 85.6175C267.969 86.5159 266.636 87.0023 264.898 87.0023V89.6023C267.16 89.6023 269.131 88.9522 270.708 87.5777L269 85.6175ZM264.898 87.0023C263.287 87.0023 261.941 86.5017 260.796 85.5038L259.088 87.4641C260.725 88.8907 262.684 89.6023 264.898 89.6023V87.0023ZM260.796 85.5038C259.654 84.5088 259.155 83.4135 259.155 82.1654H256.555C256.555 84.2509 257.447 86.0346 259.088 87.4641L260.796 85.5038ZM259.155 82.1654V37.8437H256.555V82.1654H259.155ZM259.155 37.8437C259.155 36.3794 259.661 35.2673 260.665 34.3917L258.957 32.4314C257.354 33.8288 256.555 35.6714 256.555 37.8437H259.155ZM270.641 14.8874V17.2739H273.241V14.8874H270.641ZM270.641 17.2739C270.641 18.6162 270.127 19.7441 269 20.726L270.708 22.6862C272.364 21.2437 273.241 19.4168 273.241 17.2739H270.641ZM268.969 20.7539C267.936 21.7145 266.613 22.2244 264.898 22.2244V24.8244C267.183 24.8244 269.164 24.1221 270.739 22.6583L268.969 20.7539ZM264.898 22.2244C263.287 22.2244 261.941 21.7238 260.796 20.726L259.088 22.6862C260.725 24.1128 262.684 24.8244 264.898 24.8244V22.2244ZM260.796 20.726C259.669 19.7441 259.155 18.6162 259.155 17.2739H256.555C256.555 19.4168 257.432 21.2437 259.088 22.6862L260.796 20.726ZM259.155 17.2739V14.8874H256.555V17.2739H259.155ZM259.155 14.8874C259.155 13.6393 259.654 12.544 260.796 11.549L259.088 9.58873C257.447 11.0182 256.555 12.8019 256.555 14.8874H259.155ZM260.796 11.549C261.941 10.5512 263.287 10.0505 264.898 10.0505V7.45053C262.684 7.45053 260.725 8.16213 259.088 9.58873L260.796 11.549ZM264.898 10.0505C266.613 10.0505 267.936 10.5605 268.969 11.5211L270.739 9.61663C269.164 8.15284 267.183 7.45053 264.898 7.45053V10.0505ZM269.032 11.5757C270.132 12.474 270.641 13.5488 270.641 14.8874H273.241C273.241 12.7408 272.359 10.9366 270.677 9.56207L269.032 11.5757ZM287.678 83.9738L287.287 82.951L284.859 83.88L285.25 84.9028L287.678 83.9738ZM287.373 83.4155V82.62H284.773V83.4155H287.373ZM286.927 81.6399C287.053 81.7495 287.139 81.8828 287.189 82.0135C287.236 82.1364 287.242 82.2336 287.242 82.2791H284.642C284.642 82.6811 284.766 83.2056 285.219 83.6001L286.927 81.6399ZM287.242 82.2791V82.1654H284.642V82.2791H287.242ZM287.225 82.3757L287.356 81.5802L284.79 81.1596L284.66 81.9551L287.225 82.3757ZM287.373 81.3699V80.9153H284.773V81.3699H287.373ZM286.927 81.8955C287.379 81.5013 287.634 80.9566 287.634 80.3471H285.034C285.034 80.2907 285.046 80.2076 285.087 80.1172C285.128 80.0273 285.182 79.9675 285.219 79.9352L286.927 81.8955ZM287.634 80.3471C287.634 80.3974 287.626 80.4423 287.616 80.4783C287.606 80.5135 287.595 80.5341 287.592 80.5395C287.589 80.5445 287.593 80.5354 287.612 80.5133C287.632 80.4911 287.662 80.4591 287.709 80.4181L286.001 78.4578C285.519 78.8783 285.034 79.5081 285.034 80.3471H287.634ZM288.155 79.4379C288.155 79.5876 288.123 79.7055 288.094 79.7817C288.065 79.8565 288.035 79.9029 288.024 79.9195C288.005 79.9474 288.016 79.924 288.101 79.8498L286.393 77.8896C286.217 78.0427 286.032 78.2277 285.883 78.4449C285.74 78.6513 285.555 78.9949 285.555 79.4379H288.155ZM287.247 80.1697H287.377V77.5697H287.247V80.1697ZM288.377 79.7002L317.724 44.3565L315.723 42.6956L286.377 78.0393L288.377 79.7002ZM316.724 42.226H292.855V44.826H316.724V42.226ZM292.855 42.226C291.324 42.226 290.007 41.758 288.852 40.8145L287.207 42.8281C288.834 44.1576 290.735 44.826 292.855 44.826V42.226ZM288.883 40.8412C287.741 39.8462 287.242 38.7509 287.242 37.5028H284.642C284.642 39.5883 285.535 41.372 287.175 42.8015L288.883 40.8412ZM287.242 37.5028C287.242 36.2597 287.736 35.2162 288.852 34.3047L287.207 32.2911C285.54 33.6525 284.642 35.4123 284.642 37.5028H287.242ZM288.883 34.2781C290.041 33.2697 291.347 32.7796 292.855 32.7796V30.1796C290.712 30.1796 288.801 30.9017 287.175 32.3178L288.883 34.2781ZM292.855 32.7796H330.549V30.1796H292.855V32.7796ZM330.362 32.7661L331.145 32.8798L331.518 30.3067L330.736 30.1931L330.362 32.7661ZM331.331 32.8932H331.984V30.2932H331.331V32.8932ZM331.984 32.8932C332.06 32.8932 332.068 32.8996 332.033 32.8919C332.013 32.8875 331.967 32.876 331.905 32.849C331.843 32.822 331.75 32.7729 331.651 32.687L333.359 30.7268C333.085 30.4877 332.781 30.3939 332.586 30.3514C332.377 30.3059 332.168 30.2932 331.984 30.2932V32.8932ZM331.986 32.8987C332.279 33.0262 332.639 33.1233 333.011 33.2044L333.565 30.664C333.241 30.5935 333.08 30.5391 333.025 30.5151L331.986 32.8987ZM332.255 32.7241C332.366 32.8684 332.503 33.031 332.662 33.17C332.764 33.2588 333.132 33.5751 333.679 33.5751V30.9751C333.935 30.9751 334.121 31.0563 334.208 31.1017C334.3 31.1497 334.355 31.1962 334.37 31.2097C334.399 31.2351 334.384 31.2273 334.32 31.1442L332.255 32.7241ZM333.1 33.4389L334.013 33.8934L335.172 31.566L334.259 31.1114L333.1 33.4389ZM334.592 34.0297C334.519 34.0297 334.222 34.0177 333.934 33.7667C333.612 33.4858 333.553 33.1318 333.553 32.957H336.153C336.153 32.6307 336.051 32.163 335.642 31.8064C335.267 31.4796 334.839 31.4297 334.592 31.4297V34.0297ZM333.999 33.9371L334.651 34.5053L336.359 32.5451L335.707 31.9769L333.999 33.9371ZM335.505 34.8252C335.083 34.8252 334.849 34.5907 334.809 34.5465C334.765 34.4988 334.785 34.5032 334.845 34.6358L337.208 33.5511C337.095 33.3049 336.941 33.0251 336.724 32.788C336.509 32.5544 336.101 32.2252 335.505 32.2252V34.8252ZM335.042 34.9415C335.211 35.1383 335.411 35.3397 335.642 35.5008C335.862 35.654 336.22 35.848 336.679 35.848V33.248C336.826 33.248 336.939 33.28 337.01 33.3074C337.079 33.3342 337.119 33.3612 337.129 33.3679C337.143 33.3775 337.104 33.3516 337.012 33.2454L335.042 34.9415ZM335.465 35.0125C335.588 35.3352 335.672 35.5811 335.723 35.7589C335.748 35.8474 335.762 35.9071 335.769 35.9429C335.777 35.985 335.77 35.9677 335.77 35.9118H338.37C338.37 35.6057 338.293 35.2882 338.222 35.0418C338.143 34.765 338.031 34.4428 337.893 34.0835L335.465 35.0125ZM335.77 35.9118C335.77 36.5994 336.169 37.0776 336.477 37.3465L338.185 35.3862C338.146 35.352 338.37 35.5272 338.37 35.9118H335.77ZM336.031 36.3664V37.0482H338.631V36.3664H336.031ZM336.082 37.4067L336.212 37.8613L338.711 37.1443L338.581 36.6898L336.082 37.4067ZM336.162 37.5028V37.6165H338.762V37.5028H336.162ZM336.195 37.3257L336.064 37.8939L338.598 38.4755L338.729 37.9072L336.195 37.3257ZM336.031 38.1847C336.031 38.5962 335.96 38.758 335.943 38.7878L338.198 40.0818C338.529 39.5055 338.631 38.8338 338.631 38.1847H336.031ZM335.77 39.4348C335.77 39.4056 335.777 39.2483 335.902 39.0668C336.036 38.8716 336.213 38.7845 336.316 38.7546L337.042 41.2514C337.405 41.1457 337.778 40.9261 338.043 40.5414C338.299 40.1705 338.37 39.767 338.37 39.4348H335.77ZM335.379 40.003V40.3439H337.979V40.003H335.379ZM335.825 39.3638L335.173 39.9321L336.881 41.8923L337.533 41.324L335.825 39.3638ZM334.727 40.9122V41.0258H337.327V40.9122H334.727ZM335.03 40.1916L305.553 75.4216L307.547 77.0901L337.024 41.86L335.03 40.1916ZM306.55 77.5559H330.549V74.9559H306.55V77.5559ZM330.549 77.5559C332.057 77.5559 333.364 78.046 334.521 79.0543L336.229 77.0941C334.604 75.678 332.692 74.9559 330.549 74.9559V77.5559ZM334.552 79.081C335.668 79.9925 336.162 81.0359 336.162 82.2791H338.762C338.762 80.1886 337.864 78.4288 336.197 77.0674L334.552 79.081ZM336.162 82.2791C336.162 83.5272 335.663 84.6225 334.521 85.6175L336.229 87.5777C337.869 86.1483 338.762 84.3646 338.762 82.2791H336.162ZM334.552 85.5908C333.397 86.5343 332.081 87.0023 330.549 87.0023V89.6023C332.669 89.6023 334.57 88.9339 336.197 87.6044L334.552 85.5908ZM330.549 87.0023H292.855V89.6023H330.549V87.0023ZM292.855 87.0023C292.388 87.0023 292.053 86.9676 291.828 86.9184L291.274 89.4588C291.744 89.5612 292.279 89.6023 292.855 89.6023V87.0023ZM291.551 86.8886H291.16V89.4886H291.551V86.8886ZM291.679 86.9968C291.316 86.8386 290.841 86.6613 290.377 86.6613V89.2614C290.329 89.2614 290.301 89.2564 290.301 89.2563C290.299 89.2559 290.311 89.258 290.341 89.2666C290.401 89.2842 290.499 89.3189 290.64 89.3804L291.679 86.9968ZM290.896 86.7695L289.853 86.3149L288.814 88.6986L289.858 89.1532L290.896 86.7695ZM290.188 86.5266C290.135 86.481 290.096 86.4445 290.067 86.4165C290.037 86.3875 290.025 86.3741 290.025 86.3745C290.026 86.3753 290.033 86.3831 290.043 86.3976C290.054 86.4113 290.072 86.438 290.094 86.4762C290.115 86.5128 290.148 86.5756 290.178 86.6609C290.206 86.744 290.242 86.8797 290.242 87.0522H287.642C287.642 87.4086 287.782 87.6702 287.839 87.7702C287.912 87.8968 287.993 87.9994 288.055 88.0707C288.179 88.2155 288.331 88.3573 288.48 88.4869L290.188 86.5266ZM288.942 85.7522C289.093 85.7522 289.135 85.8059 289.032 85.7435C288.937 85.6855 288.782 85.5656 288.565 85.345L286.711 87.1683C287.016 87.4781 287.339 87.7559 287.678 87.9632C288.011 88.1659 288.443 88.3522 288.942 88.3522V85.7522ZM288.623 85.4086C288.382 85.1286 288.234 84.929 288.153 84.7998C288.113 84.7356 288.105 84.7127 288.109 84.7245C288.11 84.7255 288.155 84.8317 288.155 85.0066H285.555C285.555 85.5188 285.808 85.9542 285.949 86.1794C286.129 86.4668 286.372 86.7786 286.653 87.1047L288.623 85.4086ZM287.218 83.7581C287.321 83.7881 287.498 83.8751 287.633 84.0704C287.758 84.2519 287.764 84.4092 287.764 84.4383H285.164C285.164 84.7705 285.236 85.1741 285.491 85.545C285.756 85.9296 286.129 86.1493 286.493 86.255L287.218 83.7581ZM352.31 83.9739L351.919 82.951L349.491 83.88L349.882 84.9028L352.31 83.9739ZM352.005 83.4155V82.62H349.405V83.4155H352.005ZM351.559 81.6399C351.685 81.7495 351.771 81.8827 351.821 82.0133C351.868 82.1362 351.874 82.2335 351.874 82.2791H349.274C349.274 82.6814 349.398 83.2058 349.851 83.6001L351.559 81.6399ZM351.874 82.2791V82.1654H349.274V82.2791H351.874ZM351.857 82.3758L351.988 81.5803L349.422 81.1595L349.291 81.955L351.857 82.3758ZM352.005 81.3699V80.9153H349.405V81.3699H352.005ZM351.559 81.8955C352.011 81.5012 352.266 80.9565 352.266 80.3471H349.666C349.666 80.2907 349.677 80.2077 349.719 80.1173C349.76 80.0274 349.814 79.9675 349.851 79.9352L351.559 81.8955ZM352.266 80.3471C352.266 80.3974 352.258 80.4423 352.248 80.4783C352.238 80.5135 352.227 80.5341 352.224 80.5396C352.221 80.5445 352.225 80.5355 352.244 80.5133C352.263 80.4911 352.294 80.4591 352.341 80.4181L350.633 78.4578C350.151 78.8783 349.666 79.508 349.666 80.3471H352.266ZM352.787 79.4379C352.787 79.5877 352.755 79.7056 352.726 79.7817C352.697 79.8565 352.667 79.9029 352.656 79.9196C352.637 79.9474 352.647 79.924 352.733 79.8498L351.025 77.8896C350.849 78.0427 350.664 78.2276 350.514 78.4449C350.372 78.6513 350.187 78.9949 350.187 79.4379H352.787ZM351.879 80.1697H352.009V77.5697H351.879V80.1697ZM353.009 79.7002L382.356 44.3565L380.355 42.6956L351.009 78.0393L353.009 79.7002ZM381.355 42.226H357.487V44.826H381.355V42.226ZM357.487 42.226C355.955 42.226 354.639 41.758 353.484 40.8145L351.839 42.8281C353.466 44.1576 355.367 44.826 357.487 44.826V42.226ZM353.515 40.8412C352.373 39.8462 351.874 38.7509 351.874 37.5028H349.274C349.274 39.5883 350.167 41.372 351.807 42.8015L353.515 40.8412ZM351.874 37.5028C351.874 36.2597 352.368 35.2162 353.484 34.3047L351.839 32.2911C350.172 33.6525 349.274 35.4123 349.274 37.5028H351.874ZM353.515 34.2781C354.672 33.2697 355.979 32.7796 357.487 32.7796V30.1796C355.343 30.1796 353.432 30.9017 351.807 32.3178L353.515 34.2781ZM357.487 32.7796H395.181V30.1796H357.487V32.7796ZM394.994 32.7661L395.776 32.8798L396.15 30.3067L395.368 30.1931L394.994 32.7661ZM395.963 32.8932H396.615V30.2932H395.963V32.8932ZM396.615 32.8932C396.692 32.8932 396.7 32.8996 396.665 32.8919C396.645 32.8875 396.598 32.876 396.536 32.849C396.474 32.822 396.382 32.7729 396.283 32.687L397.991 30.7268C397.717 30.4877 397.413 30.3939 397.218 30.3515C397.009 30.3059 396.8 30.2932 396.615 30.2932V32.8932ZM396.618 32.8987C396.911 33.0262 397.271 33.1233 397.643 33.2044L398.196 30.664C397.873 30.5935 397.712 30.5391 397.656 30.5151L396.618 32.8987ZM396.887 32.7241C396.998 32.8684 397.134 33.031 397.294 33.17C397.396 33.2588 397.763 33.5751 398.311 33.5751V30.9751C398.567 30.9751 398.753 31.0563 398.84 31.1017C398.932 31.1497 398.986 31.1962 399.002 31.2097C399.031 31.2351 399.016 31.2273 398.952 31.1442L396.887 32.7241ZM397.732 33.4389L398.645 33.8934L399.803 31.566L398.89 31.1114L397.732 33.4389ZM399.224 34.0297C399.151 34.0297 398.854 34.0177 398.566 33.7666C398.243 33.4858 398.185 33.1317 398.185 32.957H400.785C400.785 32.6307 400.683 32.163 400.274 31.8064C399.899 31.4796 399.471 31.4297 399.224 31.4297V34.0297ZM398.631 33.9371L399.283 34.5053L400.991 32.5451L400.339 31.9769L398.631 33.9371ZM400.137 34.8252C399.715 34.8252 399.481 34.5907 399.44 34.5465C399.396 34.4988 399.416 34.5032 399.477 34.6358L401.84 33.5511C401.727 33.3049 401.573 33.0252 401.355 32.7881C401.141 32.5545 400.733 32.2252 400.137 32.2252V34.8252ZM399.673 34.9415C399.843 35.1383 400.043 35.3397 400.274 35.5008C400.494 35.654 400.852 35.848 401.311 35.848V33.248C401.457 33.248 401.571 33.28 401.642 33.3074C401.711 33.3342 401.751 33.3612 401.761 33.3679C401.775 33.3775 401.735 33.3516 401.644 33.2454L399.673 34.9415ZM400.097 35.0125C400.22 35.3352 400.304 35.5811 400.355 35.7589C400.38 35.8474 400.394 35.9071 400.401 35.943C400.409 35.985 400.402 35.9678 400.402 35.9118H403.002C403.002 35.6057 402.925 35.2882 402.854 35.0418C402.774 34.765 402.662 34.4428 402.525 34.0835L400.097 35.0125ZM400.402 35.9118C400.402 36.5994 400.8 37.0776 401.109 37.3465L402.817 35.3862C402.778 35.3521 403.002 35.5272 403.002 35.9118H400.402ZM400.663 36.3664V37.0482H403.263V36.3664H400.663ZM400.713 37.4067L400.844 37.8613L403.343 37.1443L403.213 36.6897L400.713 37.4067ZM400.793 37.5028V37.6165H403.393V37.5028H400.793ZM400.826 37.3257L400.696 37.8939L403.23 38.4755L403.36 37.9073L400.826 37.3257ZM400.663 38.1847C400.663 38.5962 400.592 38.758 400.575 38.7878L402.83 40.0818C403.16 39.5054 403.263 38.8338 403.263 38.1847H400.663ZM400.402 39.4348C400.402 39.4056 400.409 39.2483 400.534 39.0668C400.668 38.8716 400.845 38.7845 400.948 38.7546L401.673 41.2514C402.037 41.1457 402.41 40.9261 402.675 40.5415C402.93 40.1706 403.002 39.767 403.002 39.4348H400.402ZM400.011 40.003V40.3439H402.611V40.003H400.011ZM400.457 39.3638L399.805 39.9321L401.513 41.8923L402.165 41.324L400.457 39.3638ZM399.359 40.9122V41.0258H401.959V40.9122H399.359ZM399.662 40.1916L370.185 75.4216L372.179 77.0901L401.656 41.86L399.662 40.1916ZM371.182 77.5559H395.181V74.9559H371.182V77.5559ZM395.181 77.5559C396.689 77.5559 397.995 78.046 399.153 79.0543L400.861 77.0941C399.235 75.678 397.324 74.9559 395.181 74.9559V77.5559ZM399.184 79.081C400.3 79.9925 400.793 81.0359 400.793 82.2791H403.393C403.393 80.1886 402.496 78.4288 400.829 77.0674L399.184 79.081ZM400.793 82.2791C400.793 83.5272 400.294 84.6225 399.153 85.6175L400.861 87.5777C402.501 86.1483 403.393 84.3646 403.393 82.2791H400.793ZM399.184 85.5908C398.029 86.5343 396.712 87.0023 395.181 87.0023V89.6023C397.301 89.6023 399.201 88.9339 400.829 87.6044L399.184 85.5908ZM395.181 87.0023H357.487V89.6023H395.181V87.0023ZM357.487 87.0023C357.019 87.0023 356.685 86.9676 356.459 86.9184L355.906 89.4588C356.376 89.5612 356.911 89.6023 357.487 89.6023V87.0023ZM356.183 86.8886H355.791V89.4886H356.183V86.8886ZM356.311 86.9968C355.947 86.8386 355.473 86.6613 355.009 86.6613V89.2614C354.961 89.2614 354.933 89.2564 354.932 89.2563C354.93 89.2559 354.943 89.258 354.972 89.2666C355.033 89.2842 355.131 89.3189 355.272 89.3804L356.311 86.9968ZM355.528 86.7696L354.485 86.315L353.446 88.6985L354.49 89.1531L355.528 86.7696ZM354.819 86.5266C354.767 86.481 354.727 86.4445 354.698 86.4165C354.668 86.3875 354.657 86.3741 354.657 86.3745C354.658 86.3753 354.665 86.3831 354.675 86.3975C354.685 86.4113 354.704 86.4379 354.726 86.4761C354.747 86.5127 354.78 86.5756 354.809 86.6609C354.838 86.744 354.874 86.8797 354.874 87.0522H352.274C352.274 87.4086 352.414 87.6703 352.471 87.7703C352.544 87.8969 352.625 87.9994 352.687 88.0708C352.811 88.2155 352.963 88.3573 353.111 88.4869L354.819 86.5266ZM353.574 85.7522C353.725 85.7522 353.766 85.8059 353.664 85.7435C353.569 85.6855 353.414 85.5656 353.197 85.345L351.343 87.1683C351.648 87.4781 351.971 87.7559 352.31 87.9631C352.643 88.1659 353.075 88.3522 353.574 88.3522V85.7522ZM353.255 85.4086C353.014 85.1286 352.866 84.929 352.785 84.7998C352.745 84.7356 352.736 84.7127 352.741 84.7245C352.741 84.7255 352.787 84.8317 352.787 85.0066H350.187C350.187 85.5188 350.44 85.9541 350.581 86.1793C350.761 86.4668 351.004 86.7786 351.285 87.1047L353.255 85.4086ZM351.85 83.7581C351.953 83.7881 352.13 83.8751 352.264 84.0704C352.389 84.2519 352.396 84.4092 352.396 84.4383H349.796C349.796 84.7705 349.868 85.1741 350.123 85.545C350.388 85.9296 350.761 86.1493 351.125 86.255L351.85 83.7581ZM441.225 87.0023C432.742 87.0023 425.673 84.342 419.933 79.0503L418.171 80.962C424.43 86.7318 432.143 89.6023 441.225 89.6023V87.0023ZM419.94 79.0568C414.279 73.7614 411.483 67.4334 411.483 60.0046H408.883C408.883 68.183 411.999 75.1894 418.164 80.9556L419.94 79.0568ZM411.483 60.0046C411.483 52.4961 414.282 46.1313 419.94 40.8388L418.164 38.94C411.996 44.7089 408.883 51.7543 408.883 60.0046H411.483ZM419.939 40.8392C425.681 35.4743 432.747 32.7796 441.225 32.7796V30.1796C432.138 30.1796 424.422 33.0914 418.164 38.9395L419.939 40.8392ZM441.225 32.7796C447.15 32.7796 452.697 34.3755 457.888 37.5857L459.255 35.3743C453.665 31.9173 447.646 30.1796 441.225 30.1796V32.7796ZM459.816 36.8559C460.17 35.6854 460.831 34.7433 461.828 33.9986L460.272 31.9154C458.834 32.989 457.843 34.3956 457.327 36.1041L459.816 36.8559ZM461.867 33.9676C462.828 33.1908 464.008 32.7796 465.484 32.7796V30.1796C463.483 30.1796 461.707 30.7533 460.232 31.9464L461.867 33.9676ZM465.484 32.7796C466.991 32.7796 468.238 33.2677 469.295 34.2502L471.065 32.3457C469.513 30.9037 467.629 30.1796 465.484 30.1796V32.7796ZM469.326 34.2781C470.468 35.2731 470.967 36.3684 470.967 37.6165H473.567C473.567 35.5309 472.674 33.7472 471.034 32.3178L469.326 34.2781ZM470.967 37.6165V82.2791H473.567V37.6165H470.967ZM470.967 82.2791C470.967 83.5271 470.468 84.6225 469.326 85.6175L471.034 87.5777C472.674 86.1483 473.567 84.3646 473.567 82.2791H470.967ZM469.326 85.6175C468.272 86.5355 467.015 87.0023 465.484 87.0023V89.6023C467.605 89.6023 469.479 88.9326 471.034 87.5777L469.326 85.6175ZM465.484 87.0023C463.983 87.0023 462.789 86.6147 461.828 85.897L460.272 87.9801C461.745 89.0807 463.507 89.6023 465.484 89.6023V87.0023ZM461.828 85.897C460.831 85.1523 460.17 84.2102 459.816 83.0397L457.327 83.7914C457.843 85.4999 458.834 86.9065 460.272 87.9801L461.828 85.897ZM457.891 82.3078C452.793 85.4391 447.246 87.0023 441.225 87.0023V89.6023C447.724 89.6023 453.742 87.9076 459.252 84.5233L457.891 82.3078ZM422.839 60.0046C422.839 64.885 424.534 69.0469 427.918 72.4055L429.75 70.56C426.874 67.7061 425.439 64.2158 425.439 60.0046H422.839ZM427.931 72.418C431.418 75.7845 435.841 77.4422 441.094 77.4422V74.8422C436.435 74.8422 432.685 73.3936 429.737 70.5475L427.931 72.418ZM441.094 77.4422C446.428 77.4422 450.897 75.7888 454.388 72.418L452.582 70.5475C449.639 73.3893 445.847 74.8422 441.094 74.8422V77.4422ZM454.375 72.4299C457.942 69.0773 459.741 64.9081 459.741 60.0046H457.141C457.141 64.1927 455.637 67.6757 452.594 70.5356L454.375 72.4299ZM459.741 60.0046C459.741 55.1019 457.943 50.901 454.387 47.4764L452.583 49.3491C455.635 52.2887 457.141 55.8157 457.141 60.0046H459.741ZM454.387 47.4764C450.82 44.0412 446.357 42.3397 441.094 42.3397V44.9397C445.744 44.9397 449.542 46.4202 452.583 49.3491L454.387 47.4764ZM441.094 42.3397C435.911 42.3397 431.531 44.0462 428.05 47.4885L429.879 49.337C432.833 46.4152 436.538 44.9397 441.094 44.9397V42.3397ZM428.061 47.4775C424.581 50.8379 422.839 55.0436 422.839 60.0046H425.439C425.439 55.7225 426.913 52.2003 429.867 49.348L428.061 47.4775ZM491.03 82.0518V15.001H488.43V82.0518H491.03ZM491.03 15.001C491.03 13.6587 491.544 12.5309 492.671 11.549L490.963 9.58873C489.307 11.0313 488.43 12.8582 488.43 15.001H491.03ZM492.671 11.549C493.805 10.561 495.189 10.0505 496.903 10.0505V7.45053C494.618 7.45053 492.611 8.15232 490.963 9.58873L492.671 11.549ZM496.903 10.0505H512.294V7.45053H496.903V10.0505ZM512.294 10.0505C524.609 10.0505 535.036 13.852 543.651 21.432L545.368 19.48C536.245 11.4528 525.195 7.45053 512.294 7.45053V10.0505ZM543.656 21.4361C552.264 28.9369 556.513 37.9456 556.513 48.5264H559.113C559.113 37.1357 554.493 27.4308 545.364 19.4759L543.656 21.4361ZM556.513 48.5264C556.513 59.1078 552.263 68.1566 543.651 75.7345L545.368 77.6864C554.494 69.657 559.113 59.9164 559.113 48.5264H556.513ZM543.656 75.7303C535.041 83.2365 524.612 87.0023 512.294 87.0023V89.6023C525.191 89.6023 536.24 85.6402 545.364 77.6906L543.656 75.7303ZM512.294 87.0023H496.903V89.6023H512.294V87.0023ZM496.903 87.0023C495.189 87.0023 493.805 86.4918 492.671 85.5038L490.963 87.4641C492.611 88.9005 494.618 89.6023 496.903 89.6023V87.0023ZM492.671 85.5038C491.544 84.5219 491.03 83.3941 491.03 82.0518H488.43C488.43 84.1946 489.307 86.0215 490.963 87.4641L492.671 85.5038ZM502.907 21.3652V75.6876H505.507V21.3652H502.907ZM504.207 76.9876H512.294V74.3876H504.207V76.9876ZM512.305 76.9876C521.196 76.9093 528.807 74.1612 535.06 68.7126L533.352 66.7523C527.606 71.7591 520.608 74.3144 512.282 74.3877L512.305 76.9876ZM535.06 68.7126C541.405 63.1836 544.636 56.4341 544.636 48.5264H542.036C542.036 55.6199 539.18 61.6745 533.352 66.7523L535.06 68.7126ZM544.636 48.5264C544.636 40.6187 541.405 33.8692 535.06 28.3402L533.352 30.3005C539.18 35.3783 542.036 41.4329 542.036 48.5264H544.636ZM535.067 28.3463C528.811 22.8163 521.193 20.0652 512.294 20.0652V22.6652C520.611 22.6652 527.601 25.2174 533.345 30.2944L535.067 28.3463ZM512.294 20.0652H504.207V22.6652H512.294V20.0652ZM624.587 83.8085L618.196 69.0347L615.81 70.0669L622.201 84.8408L624.587 83.8085ZM617.003 68.2508H585.309V70.8508H617.003V68.2508ZM584.116 69.0347L577.725 83.8085L580.111 84.8408L586.502 70.0669L584.116 69.0347ZM577.737 83.7823C577.216 84.9152 576.536 85.6967 575.72 86.2042C574.901 86.7139 573.858 87.0023 572.527 87.0023V89.6023C574.24 89.6023 575.783 89.2277 577.094 88.4116C578.409 87.5932 579.402 86.3858 580.1 84.8671L577.737 83.7823ZM572.527 87.0023C569.842 87.0023 568.178 86.1906 567.192 84.8171L565.08 86.3325C566.703 88.5957 569.299 89.6023 572.527 89.6023V87.0023ZM567.207 84.8375C566.124 83.2648 565.955 81.7865 566.562 80.2588L564.145 79.2989C563.187 81.711 563.54 84.0965 565.065 86.3121L567.207 84.8375ZM566.548 80.293L595.372 13.3559L592.984 12.3276L564.16 79.2647L566.548 80.293ZM595.34 13.4251C595.835 12.4391 596.578 11.6294 597.604 10.9907L596.23 8.78329C594.822 9.65985 593.739 10.82 593.016 12.2584L595.34 13.4251ZM597.57 11.0111C598.661 10.3775 599.803 10.0999 601.024 10.1625L601.157 7.56588C599.423 7.47696 597.782 7.88123 596.264 8.76288L597.57 11.0111ZM601.15 10.1628C602.615 10.0956 603.758 10.3594 604.649 10.8717C605.533 11.3803 606.267 12.1906 606.825 13.3902L609.182 12.2934C608.436 10.6897 607.366 9.43546 605.946 8.61815C604.532 7.80461 602.871 7.4812 601.031 7.56554L601.15 10.1628ZM606.81 13.3559L635.634 80.293L638.022 79.2647L609.198 12.3276L606.81 13.3559ZM635.62 80.2588C636.227 81.7865 636.058 83.2648 634.975 84.8375L637.116 86.3121C638.642 84.0966 638.995 81.711 638.036 79.2989L635.62 80.2588ZM634.989 84.8171C634.011 86.1808 632.312 87.0023 629.524 87.0023V89.6023C632.823 89.6023 635.472 88.6054 637.102 86.3325L634.989 84.8171ZM629.524 87.0023C628.243 87.0023 627.252 86.7168 626.482 86.2173C625.715 85.7193 625.073 84.9474 624.59 83.8149L622.198 84.8345C622.846 86.3537 623.791 87.5705 625.067 88.3984C626.34 89.2248 627.849 89.6023 629.524 89.6023V87.0023ZM612.849 56.5339L602.284 32.1001L599.898 33.132L610.462 57.5657L612.849 56.5339ZM599.898 32.1001L589.333 56.5339L591.719 57.5657L602.284 33.132L599.898 32.1001ZM657.428 75.3052C649.069 67.5063 644.929 58.2227 644.929 47.3899H642.329C642.329 58.9831 646.798 68.9433 655.655 77.2063L657.428 75.3052ZM644.929 47.3899C644.929 36.557 649.069 27.2734 657.428 19.4745L655.655 17.5734C646.798 25.8364 642.329 35.7967 642.329 47.3899H644.929ZM657.424 19.4789C665.866 11.6818 676.11 7.77754 688.236 7.77754V5.17754C675.493 5.17754 664.608 9.30418 655.659 17.569L657.424 19.4789ZM688.236 7.77754C700.354 7.77754 710.549 11.7523 718.904 19.6935L720.695 17.809C711.833 9.3852 700.986 5.17754 688.236 5.17754V7.77754ZM718.913 19.7021C727.366 27.5834 731.542 36.8317 731.542 47.5035H734.142C734.142 36.0524 729.623 26.1324 720.686 17.8004L718.913 19.7021ZM731.542 47.5035C731.542 58.1701 727.327 67.3772 718.792 75.1828L720.546 77.1015C729.575 68.8452 734.142 58.9599 734.142 47.5035H731.542ZM718.765 75.2081C714.983 78.8696 710.433 81.7739 705.099 83.9135L706.067 86.3267C711.688 84.0721 716.529 80.991 720.573 77.0761L718.765 75.2081ZM705.113 83.9078C699.786 85.9708 694.25 87.0022 688.496 87.0022V89.6022C694.569 89.6022 700.423 88.5121 706.052 86.3324L705.113 83.9078ZM688.496 87.0022C676.192 87.0022 665.862 83.0946 657.424 75.3008L655.659 77.2108C664.611 85.4789 675.585 89.6022 688.496 89.6022V87.0022ZM657.198 47.3899C657.198 55.4179 660.272 62.3445 666.342 68.1069L668.132 66.2213C662.55 60.9223 659.798 54.666 659.798 47.3899H657.198ZM666.348 68.1131C672.421 73.7996 679.741 76.6466 688.236 76.6466V74.0466C680.383 74.0466 673.704 71.4387 668.125 66.2152L666.348 68.1131ZM688.236 76.6466C696.819 76.6466 704.146 73.7601 710.137 67.9866L708.332 66.1144C702.846 71.4024 696.173 74.0466 688.236 74.0466V76.6466ZM710.136 67.9872C716.194 62.1569 719.273 55.2734 719.273 47.3899H716.673C716.673 54.5075 713.926 60.7311 708.333 66.1138L710.136 67.9872ZM719.273 47.3899C719.273 39.5122 716.242 32.6655 710.267 26.9068L708.463 28.7789C713.965 34.0817 716.673 40.2663 716.673 47.3899H719.273ZM710.273 26.913C704.281 21.0587 696.907 18.1331 688.236 18.1331V20.7331C696.259 20.7331 702.971 23.414 708.457 28.7728L710.273 26.913ZM688.236 18.1331C679.653 18.1331 672.286 21.0192 666.211 26.7864L668.001 28.672C673.578 23.3777 680.298 20.7331 688.236 20.7331V18.1331ZM666.211 26.787C660.224 32.4778 657.198 39.3678 657.198 47.3899H659.798C659.798 40.1077 662.511 33.8906 668.002 28.6715L666.211 26.787ZM590.526 58.3498H601.091V55.7498H590.526V58.3498ZM601.091 58.3498H611.656V55.7498H601.091V58.3498Z" fill="black" mask="url(#path-2-outside-1_3108_647)"/>
</svg>
