<svg width="97" height="94" viewBox="0 0 97 94" fill="none" xmlns="http://www.w3.org/2000/svg">
<rect x="0.449036" y="0.00286865" width="96" height="93" rx="46.5" fill="#E93334"/>
<path d="M45.7407 51.9196H40.3241C40.3241 45.4549 42.8921 39.255 47.4633 34.6838C52.0345 30.1126 58.2344 27.5446 64.6991 27.5446V32.9612C54.2178 32.9612 45.7407 41.4383 45.7407 51.9196ZM64.6991 43.7946V38.3779C57.2241 38.3779 51.1574 44.4446 51.1574 51.9196H56.5741C56.5741 47.4237 60.2032 43.7946 64.6991 43.7946ZM34.9074 24.8362C34.9074 21.83 32.497 19.4196 29.4907 19.4196C26.4845 19.4196 24.0741 21.83 24.0741 24.8362C24.0741 27.8425 26.4845 30.2529 29.4907 30.2529C32.497 30.2529 34.9074 27.8425 34.9074 24.8362ZM46.9595 26.1904H41.5428C41.2285 28.0823 40.253 29.8012 38.7898 31.0412C37.3267 32.2811 35.4711 32.9615 33.5532 32.9612H25.4282C23.1803 32.9612 21.3657 34.7758 21.3657 37.0237V43.7946H37.6157V37.6737C40.1251 36.8824 42.3475 35.3729 44.0081 33.332C45.6688 31.2911 46.6948 28.8082 46.9595 26.1904ZM67.4074 60.0446C70.4136 60.0446 72.8241 57.6341 72.8241 54.6279C72.8241 51.6216 70.4136 49.2112 67.4074 49.2112C64.4011 49.2112 61.9907 51.6216 61.9907 54.6279C61.9907 57.6341 64.4011 60.0446 67.4074 60.0446ZM71.4699 62.7529H63.3449C61.4271 62.7532 59.5714 62.0728 58.1083 60.8328C56.6452 59.5929 55.6696 57.874 55.3553 55.9821H49.9386C50.2033 58.5999 51.2294 61.0827 52.89 63.1237C54.5507 65.1646 56.773 66.674 59.2824 67.4654V73.5862H75.5324V66.8154C75.5324 64.5675 73.7178 62.7529 71.4699 62.7529Z" fill="white"/>
</svg>
