<svg width="57" height="56" viewBox="0 0 57 56" fill="none" xmlns="http://www.w3.org/2000/svg">
<rect width="57" height="56" rx="28" fill="#E93334"/>
<g clip-path="url(#clip0_2246_5030)">
<path d="M45.4841 14.5859C45.5165 14.3912 45.4974 14.1915 45.4289 14.0064C45.3604 13.8214 45.2447 13.6574 45.0933 13.5308C44.942 13.4042 44.7602 13.3193 44.566 13.2845C44.3717 13.2497 44.1718 13.2662 43.9859 13.3324L12.2525 24.6658C12.0433 24.7403 11.8607 24.8747 11.7273 25.0523C11.5938 25.2298 11.5155 25.4426 11.502 25.6642C11.4884 25.8859 11.5403 26.1067 11.6512 26.2991C11.7621 26.4915 11.927 26.6471 12.1256 26.7466L21.1923 31.2799C21.3709 31.3693 21.5701 31.4099 21.7695 31.3976C21.9689 31.3852 22.1616 31.3204 22.3279 31.2096L29.8532 26.1912L25.3493 31.8262C25.2513 31.9488 25.1798 32.0905 25.1395 32.2422C25.0991 32.3939 25.0907 32.5524 25.1148 32.7075C25.1388 32.8627 25.1949 33.0111 25.2794 33.1434C25.3638 33.2758 25.4749 33.3891 25.6055 33.4763L39.2055 42.543C39.3629 42.6477 39.5441 42.7113 39.7325 42.7281C39.9209 42.7448 40.1104 42.7142 40.2839 42.6389C40.4574 42.5637 40.6093 42.4462 40.7258 42.2972C40.8423 42.1482 40.9196 41.9724 40.9508 41.7859L45.4841 14.5859Z" fill="white"/>
</g>
<defs>
<clipPath id="clip0_2246_5030">
<rect width="34" height="34" fill="white" transform="translate(11.5 11)"/>
</clipPath>
</defs>
</svg>
