<svg width="500" height="78" viewBox="0 0 500 78" fill="none" xmlns="http://www.w3.org/2000/svg">
<g clip-path="url(#clip0_3809_3845)">
<path d="M73.7661 57.604C68.306 57.604 64.0952 56.021 61.1337 52.855C58.2186 49.6424 56.761 44.9399 56.761 38.7475C56.761 32.6017 58.1723 27.9224 60.9949 24.7099C63.8638 21.4973 67.8895 19.891 73.0721 19.891C75.4782 19.891 78.0232 20.147 80.707 20.6592C81.3548 20.7989 81.887 21.1481 82.3034 21.7068C82.7661 22.2189 82.9975 22.8242 82.9975 23.5226C82.9975 24.0813 82.743 24.5236 82.234 24.8495C81.7713 25.1754 81.2623 25.2686 80.707 25.1289C78.3471 24.5236 75.9178 24.221 73.4191 24.221C66.0155 24.221 62.3137 29.0631 62.3137 38.7475C62.3137 43.7759 63.2854 47.4541 65.2289 49.7821C67.1723 52.11 70.1337 53.274 74.1132 53.274C76.7044 53.274 79.0643 52.9248 81.1929 52.2264C81.7019 52.0402 82.1877 52.11 82.6505 52.4359C83.1132 52.7619 83.3446 53.2042 83.3446 53.7629C83.3446 54.4613 83.1363 55.0898 82.7199 55.6485C82.3034 56.2073 81.7481 56.5797 81.0541 56.766C78.8793 57.3247 76.4499 57.604 73.7661 57.604ZM95.5719 56.1374C95.0629 56.6496 94.4383 56.9056 93.6979 56.9056C92.9575 56.9056 92.3097 56.6496 91.7545 56.1374C91.2455 55.6253 90.991 54.9967 90.991 54.2518V7.18025C90.991 6.4353 91.2455 5.80675 91.7545 5.2946C92.3097 4.78244 92.9575 4.52637 93.6979 4.52637C94.4383 4.52637 95.0629 4.78244 95.5719 5.2946C96.0809 5.80675 96.3354 6.4353 96.3354 7.18025V26.0368C96.3354 26.0834 96.3586 26.1066 96.4048 26.1066C96.4511 26.1066 96.4974 26.0834 96.5437 26.0368C99.8753 21.9396 103.739 19.891 108.135 19.891C112.346 19.891 115.4 21.0782 117.297 23.4527C119.194 25.7807 120.143 29.715 120.143 35.2555V54.2518C120.143 54.9967 119.888 55.6253 119.379 56.1374C118.916 56.6496 118.315 56.9056 117.575 56.9056C116.834 56.9056 116.209 56.6496 115.7 56.1374C115.191 55.6253 114.937 54.9967 114.937 54.2518V36.1635C114.937 31.461 114.312 28.3182 113.063 26.7352C111.86 25.1056 109.754 24.2908 106.747 24.2908C104.341 24.2908 102.004 25.4548 99.7365 27.7828C97.4691 30.0642 96.3354 32.4154 96.3354 34.8365V54.2518C96.3354 54.9967 96.0809 55.6253 95.5719 56.1374ZM140.987 23.9416C134.556 23.9416 131.039 27.7828 130.437 35.4651C130.437 35.8375 130.645 36.0238 131.062 36.0238H149.733C150.103 36.0238 150.288 35.8375 150.288 35.4651C150.011 27.7828 146.91 23.9416 140.987 23.9416ZM142.445 57.604C136.753 57.604 132.427 56.0443 129.466 52.9248C126.504 49.7588 125.023 45.033 125.023 38.7475C125.023 32.2757 126.435 27.5267 129.257 24.5003C132.126 21.4274 136.036 19.891 140.987 19.891C150.103 19.891 154.939 25.3151 155.494 36.1635C155.54 37.2809 155.147 38.2353 154.314 39.0269C153.527 39.7718 152.579 40.1443 151.468 40.1443H130.923C130.553 40.1443 130.368 40.3538 130.368 40.7728C130.784 49.2932 134.972 53.5534 142.931 53.5534C145.568 53.5534 148.275 53.0645 151.052 52.0868C151.561 51.9005 152.047 51.9704 152.509 52.2963C152.972 52.5756 153.203 52.9947 153.203 53.5534C153.203 55.1364 152.486 56.1141 151.052 56.4866C148.09 57.2316 145.221 57.604 142.445 57.604ZM176.328 57.604C170.868 57.604 166.657 56.021 163.696 52.855C160.78 49.6424 159.323 44.9399 159.323 38.7475C159.323 32.6017 160.734 27.9224 163.557 24.7099C166.426 21.4973 170.451 19.891 175.634 19.891C178.04 19.891 180.585 20.147 183.269 20.6592C183.917 20.7989 184.449 21.1481 184.865 21.7068C185.328 22.2189 185.559 22.8242 185.559 23.5226C185.559 24.0813 185.305 24.5236 184.796 24.8495C184.333 25.1754 183.824 25.2686 183.269 25.1289C180.909 24.5236 178.48 24.221 175.981 24.221C168.577 24.221 164.876 29.0631 164.876 38.7475C164.876 43.7759 165.847 47.4541 167.791 49.7821C169.734 52.11 172.696 53.274 176.675 53.274C179.266 53.274 181.626 52.9248 183.755 52.2264C184.264 52.0402 184.75 52.11 185.212 52.4359C185.675 52.7619 185.906 53.2042 185.906 53.7629C185.906 54.4613 185.698 55.0898 185.282 55.6485C184.865 56.2073 184.31 56.5797 183.616 56.766C181.441 57.3247 179.012 57.604 176.328 57.604ZM198.065 56.1374C197.556 56.6496 196.931 56.9056 196.191 56.9056C195.45 56.9056 194.825 56.6496 194.316 56.1374C193.807 55.6253 193.553 54.9967 193.553 54.2518V7.18025C193.553 6.4353 193.807 5.80675 194.316 5.2946C194.825 4.78244 195.45 4.52637 196.191 4.52637C196.931 4.52637 197.556 4.78244 198.065 5.2946C198.574 5.80675 198.828 6.4353 198.828 7.18025V36.7222C198.828 36.7687 198.851 36.792 198.897 36.792L199.036 36.7222L214.029 22.8242C215.602 21.3343 217.499 20.5893 219.72 20.5893C220.322 20.5893 220.715 20.8687 220.9 21.4274C221.131 21.9861 221.039 22.4517 220.622 22.8242L204.52 37.6301C204.242 37.9094 204.219 38.1888 204.45 38.4681L220.831 54.601C221.201 54.9734 221.27 55.4623 221.039 56.0676C220.808 56.6263 220.414 56.9056 219.859 56.9056C217.684 56.9056 215.833 56.1374 214.306 54.601L199.036 39.376C198.99 39.3295 198.944 39.3062 198.897 39.3062C198.851 39.3062 198.828 39.3295 198.828 39.376V54.2518C198.828 54.9967 198.574 55.6253 198.065 56.1374ZM231.342 56.1374C230.833 56.6496 230.209 56.9056 229.468 56.9056C228.728 56.9056 228.08 56.6496 227.525 56.1374C227.016 55.6253 226.761 54.9967 226.761 54.2518V23.1734C226.761 22.475 227.016 21.8697 227.525 21.3576C228.034 20.8454 228.635 20.5893 229.329 20.5893C230.023 20.5893 230.625 20.8454 231.134 21.3576C231.643 21.8697 231.897 22.475 231.897 23.1734L231.967 25.4781C231.967 25.5246 231.99 25.5479 232.036 25.5479C232.129 25.5479 232.175 25.5014 232.175 25.4082C234.813 21.7301 237.959 19.891 241.615 19.891C243.836 19.891 245.617 20.3798 246.959 21.3576C248.347 22.3353 249.481 23.9649 250.36 26.2463C250.36 26.3394 250.383 26.386 250.43 26.386C250.522 26.386 250.568 26.3394 250.568 26.2463C253.16 22.0094 256.538 19.891 260.702 19.891C264.404 19.891 267.065 20.9618 268.684 23.1036C270.35 25.2453 271.183 28.8304 271.183 33.8588V54.2518C271.183 54.9967 270.928 55.6253 270.419 56.1374C269.957 56.6496 269.355 56.9056 268.615 56.9056C267.874 56.9056 267.25 56.6496 266.741 56.1374C266.232 55.6253 265.977 54.9967 265.977 54.2518V35.2555C265.977 30.9255 265.468 27.9923 264.45 26.4558C263.478 24.8728 261.743 24.0813 259.245 24.0813C257.532 24.0813 255.844 25.0125 254.178 26.8749C252.512 28.6907 251.679 30.5763 251.679 32.5318V54.2518C251.679 54.9967 251.424 55.6253 250.915 56.1374C250.407 56.6496 249.782 56.9056 249.041 56.9056C248.301 56.9056 247.676 56.6496 247.167 56.1374C246.658 55.6253 246.404 54.9967 246.404 54.2518V35.2555C246.404 30.9255 245.895 27.9923 244.877 26.4558C243.905 24.8728 242.193 24.0813 239.741 24.0813C238.029 24.0813 236.317 25.0125 234.604 26.8749C232.939 28.6907 232.106 30.5763 232.106 32.5318V54.2518C232.106 54.9967 231.851 55.6253 231.342 56.1374ZM286.913 56.0676L274.766 23.2432C274.535 22.5914 274.604 21.9861 274.975 21.4274C275.391 20.8687 275.946 20.5893 276.64 20.5893C277.473 20.5893 278.214 20.8454 278.862 21.3576C279.556 21.8232 280.041 22.4517 280.319 23.2432L289.828 50.4106C289.828 50.4572 289.851 50.4805 289.898 50.4805C289.99 50.4805 290.036 50.4572 290.036 50.4106L300.517 23.1036C300.795 22.3586 301.257 21.7533 301.905 21.2877C302.599 20.8221 303.363 20.5893 304.196 20.5893C304.844 20.5893 305.329 20.8687 305.653 21.4274C306.024 21.9396 306.093 22.4983 305.862 23.1036L286.774 69.756C286.45 70.501 285.941 71.1063 285.247 71.5718C284.599 72.0374 283.859 72.2702 283.026 72.2702C282.378 72.2702 281.892 71.9909 281.568 71.4322C281.245 70.92 281.198 70.3613 281.43 69.756L286.913 57.185C287.052 56.8125 287.052 56.4401 286.913 56.0676Z" fill="#202022"/>
<path d="M316.295 29.2314C315.231 29.2314 314.305 28.8589 313.519 28.114C312.732 27.3225 312.339 26.3913 312.339 25.3204C312.339 24.2496 312.732 23.3184 313.519 22.5269C314.305 21.7354 315.231 21.3396 316.295 21.3396H319.072C319.442 21.3396 319.627 21.1301 319.627 20.7111V12.051C319.627 10.9802 320.02 10.049 320.807 9.25748C321.593 8.46597 322.519 8.07022 323.583 8.07022H326.915C327.979 8.07022 328.904 8.46597 329.691 9.25748C330.478 10.049 330.871 10.9802 330.871 12.051V20.7111C330.871 21.1301 331.079 21.3396 331.496 21.3396H338.298C339.362 21.3396 340.264 21.7354 341.005 22.5269C341.791 23.3184 342.185 24.2496 342.185 25.3204C342.185 26.3913 341.791 27.3225 341.005 28.114C340.264 28.8589 339.362 29.2314 338.298 29.2314H331.496C331.079 29.2314 330.871 29.4409 330.871 29.86V41.8024C330.871 44.7357 331.126 46.598 331.635 47.3895C332.19 48.1811 333.393 48.5768 335.244 48.5768C336.215 48.5768 336.979 48.5303 337.534 48.4371C338.552 48.2975 339.455 48.5303 340.241 49.1355C341.028 49.7408 341.421 50.5323 341.421 51.51V52.0688C341.421 53.2327 341.051 54.257 340.311 55.1417C339.57 56.0263 338.622 56.5385 337.465 56.6781C336.03 56.8644 334.365 56.9575 332.467 56.9575C327.748 56.9575 324.416 55.9565 322.473 53.9544C320.575 51.9058 319.627 48.2509 319.627 42.9897V29.86C319.627 29.4409 319.442 29.2314 319.072 29.2314H316.295ZM353.575 56.2591C352.511 56.2591 351.586 55.8633 350.799 55.0718C350.012 54.2803 349.619 53.3491 349.619 52.2783V23.9237C349.619 22.8528 350.012 21.9216 350.799 21.1301C351.586 20.3386 352.511 19.9428 353.575 19.9428H357.462C358.527 19.9428 359.452 20.3386 360.239 21.1301C361.025 21.9216 361.419 22.8528 361.419 23.9237V52.2783C361.419 53.3491 361.025 54.2803 360.239 55.0718C359.452 55.8633 358.527 56.2591 357.462 56.2591H353.575ZM353.575 12.9589C352.511 12.9589 351.586 12.5632 350.799 11.7717C350.012 10.9802 349.619 10.049 349.619 8.97813V7.8607C349.619 6.78984 350.012 5.85865 350.799 5.06714C351.586 4.27564 352.511 3.87988 353.575 3.87988H357.462C358.527 3.87988 359.452 4.27564 360.239 5.06714C361.025 5.85865 361.419 6.78984 361.419 7.8607V8.97813C361.419 10.049 361.025 10.9802 360.239 11.7717C359.452 12.5632 358.527 12.9589 357.462 12.9589H353.575ZM384.917 56.9575C378.948 56.9575 374.367 55.3745 371.174 52.2084C367.982 49.0424 366.385 44.3399 366.385 38.101C366.385 32.0017 367.912 27.3458 370.966 24.1332C374.066 20.874 378.485 19.2445 384.223 19.2445C386.12 19.2445 388.642 19.454 391.789 19.873C392.946 20.0592 393.871 20.5947 394.565 21.4793C395.305 22.3174 395.676 23.3184 395.676 24.4824V25.1808C395.676 26.1585 395.282 26.95 394.496 27.5553C393.709 28.1606 392.83 28.3701 391.858 28.1838C389.961 27.8579 387.994 27.695 385.958 27.695C383.321 27.695 381.354 28.533 380.059 30.2092C378.809 31.8387 378.185 34.4693 378.185 38.101C378.185 41.8257 378.856 44.5029 380.198 46.1324C381.586 47.7155 383.737 48.507 386.653 48.507C388.827 48.507 390.771 48.3207 392.483 47.9483C393.455 47.7155 394.311 47.9017 395.051 48.507C395.838 49.1122 396.231 49.9037 396.231 50.8815V51.5799C396.231 52.7439 395.861 53.7915 395.12 54.7226C394.38 55.6073 393.455 56.1427 392.344 56.3289C389.799 56.748 387.324 56.9575 384.917 56.9575ZM405.841 56.2591C404.777 56.2591 403.852 55.8633 403.065 55.0718C402.325 54.2803 401.955 53.3491 401.955 52.2783V7.8607C401.955 6.78984 402.325 5.85865 403.065 5.06714C403.852 4.27564 404.777 3.87988 405.841 3.87988H409.243C410.307 3.87988 411.209 4.27564 411.949 5.06714C412.736 5.85865 413.129 6.78984 413.129 7.8607V33.6313C413.129 33.6778 413.153 33.7011 413.199 33.7011L413.338 33.6313L422.014 23.0158C423.68 20.9671 425.808 19.9428 428.399 19.9428H433.397C434.137 19.9428 434.669 20.292 434.993 20.9904C435.363 21.6888 435.294 22.3406 434.785 22.9459L422.916 36.9835C422.685 37.2629 422.685 37.5655 422.916 37.8915L434.924 53.1862C435.387 53.838 435.433 54.5131 435.063 55.2115C434.739 55.9099 434.183 56.2591 433.397 56.2591H428.399C425.808 56.2591 423.703 55.2115 422.083 53.1163L413.338 41.6628C413.291 41.6162 413.245 41.5929 413.199 41.5929C413.153 41.5929 413.129 41.6162 413.129 41.6628V52.2783C413.129 53.3491 412.736 54.2803 411.949 55.0718C411.209 55.8633 410.307 56.2591 409.243 56.2591H405.841ZM451.641 26.8569C449.559 26.8569 447.985 27.4156 446.921 28.533C445.857 29.6039 445.186 31.4663 444.908 34.1201C444.908 34.4926 445.07 34.6789 445.394 34.6789H457.124C457.541 34.6789 457.749 34.4693 457.749 34.0503C457.564 29.2547 455.528 26.8569 451.641 26.8569ZM453.376 56.9575C447.083 56.9575 442.225 55.3512 438.8 52.1386C435.422 48.926 433.734 44.2468 433.734 38.101C433.734 32.0017 435.237 27.3458 438.245 24.1332C441.299 20.874 445.695 19.2445 451.433 19.2445C462.446 19.2445 468.045 25.2972 468.23 37.4026C468.23 38.52 467.79 39.4745 466.911 40.266C466.078 41.0109 465.106 41.3834 463.996 41.3834H445.464C445.001 41.3834 444.816 41.5929 444.908 42.012C445.279 44.5727 446.25 46.4118 447.824 47.5292C449.443 48.6001 451.849 49.1355 455.042 49.1355C457.124 49.1355 459.369 48.8329 461.775 48.2276C462.746 47.9948 463.602 48.1811 464.343 48.7863C465.129 49.3916 465.523 50.1831 465.523 51.1609V51.3005C465.523 52.4645 465.153 53.5354 464.412 54.5131C463.718 55.4443 462.816 56.003 461.705 56.1893C459.021 56.7014 456.245 56.9575 453.376 56.9575ZM473.414 29.2314C472.349 29.2314 471.424 28.8589 470.637 28.114C469.851 27.3225 469.457 26.3913 469.457 25.3204C469.457 24.2496 469.851 23.3184 470.637 22.5269C471.424 21.7354 472.349 21.3396 473.414 21.3396H476.19C476.56 21.3396 476.745 21.1301 476.745 20.7111V12.051C476.745 10.9802 477.138 10.049 477.925 9.25748C478.712 8.46597 479.637 8.07022 480.701 8.07022H484.033C485.097 8.07022 486.023 8.46597 486.809 9.25748C487.596 10.049 487.989 10.9802 487.989 12.051V20.7111C487.989 21.1301 488.198 21.3396 488.614 21.3396H495.416C496.48 21.3396 497.383 21.7354 498.123 22.5269C498.91 23.3184 499.303 24.2496 499.303 25.3204C499.303 26.3913 498.91 27.3225 498.123 28.114C497.383 28.8589 496.48 29.2314 495.416 29.2314H488.614C488.198 29.2314 487.989 29.4409 487.989 29.86V41.8024C487.989 44.7357 488.244 46.598 488.753 47.3895C489.308 48.1811 490.511 48.5768 492.362 48.5768C493.334 48.5768 494.097 48.5303 494.653 48.4371C495.671 48.2975 496.573 48.5303 497.36 49.1355C498.146 49.7408 498.54 50.5323 498.54 51.51V52.0688C498.54 53.2327 498.169 54.257 497.429 55.1417C496.689 56.0263 495.74 56.5385 494.583 56.6781C493.149 56.8644 491.483 56.9575 489.586 56.9575C484.866 56.9575 481.534 55.9565 479.591 53.9544C477.694 51.9058 476.745 48.2509 476.745 42.9897V29.86C476.745 29.4409 476.56 29.2314 476.19 29.2314H473.414Z" fill="#6E3DD9"/>
<path fill-rule="evenodd" clip-rule="evenodd" d="M30.8483 0C30.1384 0 29.5741 0.583381 29.4572 1.2879C28.8475 4.96062 25.6741 7.75988 21.8509 7.75988C18.0276 7.75988 14.8542 4.96062 14.2446 1.2879C14.1276 0.583381 13.5634 0 12.8535 0H1.28535C0.575469 0 0 0.579035 0 1.29331V76.3055C0 77.0198 0.575469 77.5988 1.28535 77.5988H12.8535C13.5634 77.5988 14.1276 77.0154 14.2446 76.3109C14.8542 72.6382 18.0276 69.8389 21.8509 69.8389C25.6741 69.8389 28.8475 72.6382 29.4572 76.3109C29.5741 77.0154 30.1384 77.5988 30.8483 77.5988H42.4164C43.1263 77.5988 43.7018 77.0198 43.7018 76.3055V1.29331C43.7018 0.579036 43.1263 0 42.4164 0H30.8483ZM21.8509 24.573C29.6595 24.573 35.9897 30.9424 35.9897 38.7994C35.9897 46.6564 29.6595 53.0259 21.8509 53.0259C14.0423 53.0259 7.71208 46.6564 7.71208 38.7994C7.71208 30.9424 14.0423 24.573 21.8509 24.573Z" fill="#6E3DD9"/>
<path fill-rule="evenodd" clip-rule="evenodd" d="M31.0139 33.6421C31.7151 34.4483 31.6338 35.674 30.8326 36.3795L20.5498 45.4327C19.7517 46.1353 18.5395 46.0575 17.8365 45.2586L13.9805 40.8757C13.2747 40.0734 13.3489 38.8474 14.1462 38.1372C14.9433 37.4271 16.1619 37.5017 16.8678 38.3039L19.4531 41.2426L28.2933 33.4596C29.0946 32.7539 30.3128 32.8357 31.0139 33.6421Z" fill="#6E3DD9"/>
</g>
<defs>
<clipPath id="clip0_3809_3845">
<rect width="500" height="77.5988" fill="white"/>
</clipPath>
</defs>
</svg>
