<svg width="500" height="147" viewBox="0 0 500 147" fill="none" xmlns="http://www.w3.org/2000/svg">
<path d="M123.56 54.1139C123.56 51.1569 124.2 48.4955 125.48 46.4256C126.761 44.0599 128.681 42.2857 130.922 41.1029C133.163 39.9201 136.044 39.3287 138.925 39.3287C141.805 39.3287 144.366 39.9201 146.927 41.1029C149.168 42.2857 151.088 44.0599 152.369 46.4256C153.649 48.7912 154.289 51.4526 154.289 54.4097V56.7753H131.562C131.562 58.5495 132.523 60.0281 133.803 61.2109C135.083 62.3937 137.004 62.9851 139.245 62.9851C140.845 62.9851 142.126 62.6894 143.406 62.098C144.686 61.5066 146.287 60.3238 147.567 58.8452L152.689 63.5765C150.768 65.3508 148.848 66.8293 146.607 67.7164C144.366 68.6035 141.805 69.195 138.925 69.195C135.724 69.195 133.163 68.6035 130.602 67.4207C128.361 66.2379 126.441 64.4637 125.16 62.098C124.2 59.4367 123.56 56.7753 123.56 54.1139ZM145.967 50.8612C145.967 49.3827 145.007 47.9041 143.726 47.017C142.446 46.1299 140.845 45.5385 138.925 45.5385C137.004 45.5385 135.403 46.1299 134.123 47.017C132.843 47.9041 132.202 49.3827 131.882 50.8612H145.967Z" fill="#36364C"/>
<path d="M179.258 46.721V57.9579C179.258 58.845 179.578 59.7321 179.898 60.0278C180.218 60.3235 181.178 60.6192 182.139 60.6192H189.181V68.0119H181.498C177.977 68.0119 175.416 67.4205 173.816 65.9419C171.895 64.4634 170.935 62.3935 170.935 59.7321V46.721H163.573V39.9198H170.935V32.5271H179.258V39.6241H191.101V46.4253H179.258V46.721Z" fill="#36364C"/>
<path d="M201.985 29.2745H210.307V42.5812C212.548 40.2156 215.429 39.0328 219.27 39.0328C221.511 39.0328 223.432 39.6242 225.352 40.5113C226.953 41.3984 228.553 42.8769 229.513 44.6512C230.474 46.4254 231.114 48.4954 231.114 50.861V68.012H222.791V52.0438C222.791 50.2696 222.151 48.7911 221.191 47.6082C220.231 46.4254 218.63 46.1297 217.03 46.1297C215.109 46.1297 213.508 46.7211 212.548 47.6082C211.588 48.7911 210.948 49.9739 210.948 52.0438V68.012H202.625V29.2745H201.985Z" fill="#36364C"/>
<path d="M238.797 54.1139C238.797 51.1569 239.437 48.4955 240.717 46.4256C241.998 44.0599 243.919 42.2857 246.159 41.1029C248.4 39.9201 251.281 39.3287 254.162 39.3287C257.043 39.3287 259.604 39.9201 262.164 41.1029C264.405 42.2857 266.326 44.0599 267.606 46.4256C268.887 48.7912 269.527 51.4526 269.527 54.4097V56.7753H246.799C246.799 58.5495 247.76 60.0281 249.04 61.2109C250.321 62.3937 252.241 62.9851 254.482 62.9851C256.082 62.9851 257.363 62.6894 258.643 62.098C259.924 61.5066 261.524 60.3238 262.805 58.8452L267.926 63.5765C266.006 65.3508 264.085 66.8293 261.844 67.7164C259.604 68.6035 257.043 69.195 254.162 69.195C250.961 69.195 248.4 68.6035 245.839 67.4207C243.598 66.2379 241.678 64.4637 240.397 62.098C239.437 59.4367 238.797 56.7753 238.797 54.1139ZM261.524 50.8612C261.524 49.3827 260.564 47.9041 259.283 47.017C258.003 46.1299 256.403 45.5385 254.482 45.5385C252.561 45.5385 250.961 46.1299 249.68 47.017C248.4 47.9041 247.76 49.3827 247.44 50.8612H261.524Z" fill="#36364C"/>
<path d="M281.05 39.9201H289.053V42.5814C290.333 41.3986 291.614 40.5115 293.214 39.9201C294.495 39.3287 296.095 39.033 298.016 39.033C300.577 39.033 302.817 39.6244 304.738 41.1029C306.659 42.5814 307.939 44.3557 308.899 47.017L301.217 49.3827C300.257 47.017 298.656 45.8342 295.775 45.8342C293.855 45.8342 292.254 46.4256 290.974 47.6084C290.013 48.7913 289.373 50.2698 289.373 52.3397V68.0122H281.05V39.9201Z" fill="#36364C"/>
<path d="M315.941 54.1139C315.941 51.1569 316.581 48.4955 317.861 46.4256C319.142 44.0599 321.062 42.2857 323.303 41.1029C325.544 39.9201 328.425 39.3287 331.306 39.3287C334.187 39.3287 336.747 39.9201 339.308 41.1029C341.549 42.2857 343.47 44.0599 344.75 46.4256C346.03 48.7912 346.671 51.4526 346.671 54.4097V56.7753H323.943C323.943 58.5495 324.904 60.0281 326.184 61.2109C327.465 62.3937 329.385 62.9851 331.626 62.9851C333.226 62.9851 334.507 62.6894 335.787 62.098C337.068 61.5066 338.668 60.3238 339.949 58.8452L345.07 63.5765C343.15 65.3508 341.229 66.8293 338.988 67.7164C336.747 68.6035 334.187 69.195 331.306 69.195C328.105 69.195 325.544 68.6035 322.983 67.4207C320.422 66.2379 318.822 64.4637 317.541 62.098C316.581 59.4367 315.941 56.7753 315.941 54.1139ZM338.348 50.8612C338.348 49.3827 337.388 47.9041 336.107 47.017C334.827 46.1299 333.226 45.5385 331.306 45.5385C329.385 45.5385 327.785 46.1299 326.504 47.017C325.224 47.9041 324.584 49.3827 324.264 50.8612H338.348Z" fill="#36364C"/>
<path d="M356.274 58.5495V39.9201H364.597V56.7753C364.597 60.3238 366.517 61.8023 370.039 61.8023C371.639 61.8023 372.919 61.2109 373.88 60.3238C374.84 59.4367 375.48 58.2538 375.48 56.4796V39.6244H383.803V68.0121H375.8V65.6465C374.84 66.5336 373.88 67.4207 372.279 68.0121C370.679 68.6036 369.398 68.8993 367.798 68.8993C364.277 68.8993 361.396 68.0121 359.475 66.2379C357.234 64.168 356.274 61.8023 356.274 58.5495Z" fill="#36364C"/>
<path d="M392.126 39.9201H399.488V42.2857C400.129 41.3986 401.089 40.5115 402.049 40.2158C403.009 39.6244 404.29 39.3287 405.57 39.3287C408.131 39.3287 410.052 40.5115 411.332 42.5814C412.933 40.5115 414.853 39.3287 417.734 39.3287C419.975 39.3287 421.896 39.9201 423.176 41.3986C424.456 42.8771 425.097 44.6514 425.097 47.017V68.0122H417.414V48.4955C417.414 47.6084 417.094 47.017 416.774 46.7213C416.454 46.4256 415.814 46.1299 414.853 46.1299C413.893 46.1299 413.253 46.4256 412.933 46.7213C412.613 47.3127 412.292 47.9041 412.292 48.7913V68.0122H405.25V48.4955C405.25 47.6084 404.93 47.017 404.61 46.7213C404.29 46.4256 403.65 46.1299 402.689 46.1299C401.729 46.1299 401.089 46.4256 400.769 46.7213C400.129 47.3127 400.129 47.9041 400.129 48.7913V68.0122H392.446V39.9201H392.126Z" fill="#36364C"/>
<path d="M132.523 105.863H124.52V99.0613H132.523V94.9214C132.523 92.5558 133.483 90.4858 135.084 89.0073C137.004 87.5288 139.245 86.9374 142.446 86.9374H151.409V93.7386H143.406C142.446 93.7386 142.126 94.0343 141.486 94.33C141.166 94.6257 140.845 95.2171 140.845 96.1042V99.357H153.009V106.158H140.845V124.196H132.203V105.863H132.523Z" fill="#36364C"/>
<path d="M161.972 110.002C161.972 107.045 162.612 104.384 163.893 102.314C165.173 99.9482 167.094 98.174 169.334 96.9912C171.575 95.8083 174.456 95.2169 177.337 95.2169C180.538 95.2169 183.099 95.8083 185.339 96.9912C187.58 98.174 189.501 99.9482 190.781 102.314C192.062 104.68 192.702 107.045 192.702 110.002C192.702 112.959 192.062 115.621 190.781 117.691C189.501 120.056 187.58 121.83 185.339 123.013C183.099 124.196 180.218 124.788 177.337 124.788C174.456 124.788 171.575 124.196 169.334 123.013C167.094 121.83 165.173 120.056 163.893 117.691C162.612 115.621 161.972 112.959 161.972 110.002ZM185.019 110.002C185.019 107.637 184.379 105.567 183.099 104.088C181.818 102.61 179.898 102.018 177.657 102.018C175.416 102.018 173.496 102.61 172.215 104.088C170.935 105.567 170.295 107.341 170.295 110.002C170.295 112.664 170.935 114.438 172.215 115.916C173.496 117.395 175.416 117.986 177.657 117.986C179.898 117.986 181.818 117.395 183.099 115.916C184.379 114.438 185.019 112.664 185.019 110.002Z" fill="#36364C"/>
<path d="M202.305 114.734V96.104H210.627V112.959C210.627 116.508 212.548 117.986 216.069 117.986C217.67 117.986 218.95 117.395 219.91 116.508C220.871 115.621 221.511 114.438 221.511 112.664V95.8083H229.834V124.196H221.831V121.83C220.871 122.718 219.91 123.605 218.31 124.196C216.709 124.788 215.429 125.083 213.828 125.083C210.307 125.083 207.426 124.196 205.506 122.422C203.265 120.352 202.305 117.986 202.305 114.734Z" fill="#36364C"/>
<path d="M240.397 96.1041H248.72V98.7654C250 97.5826 251.281 96.6955 252.561 96.1041C253.841 95.5126 255.442 95.2169 257.363 95.2169C259.283 95.2169 261.204 95.5126 262.804 96.3998C264.405 97.2869 266.005 98.4697 266.966 100.54C267.926 102.61 268.566 104.68 268.566 107.341V124.196H260.244V108.228C260.244 106.454 259.603 104.975 258.643 103.792C257.683 102.61 256.082 102.018 254.162 102.018C252.241 102.018 250.64 102.61 249.68 103.497C248.72 104.68 248.08 105.862 248.08 107.932V124.196H239.757V96.1041H240.397Z" fill="#36364C"/>
<path d="M276.889 110.002C276.889 107.045 277.529 104.679 278.81 102.314C280.09 99.948 281.69 98.1737 283.931 96.9909C286.172 95.8081 288.413 95.2167 291.294 95.2167C294.815 95.2167 297.375 96.1038 299.296 97.878V85.4584H307.299V124.196H299.616V121.83C297.375 123.9 294.495 125.083 290.653 125.083C288.093 125.083 285.532 124.492 283.291 123.309C281.05 122.126 279.45 120.352 278.169 117.986C277.529 115.62 276.889 112.959 276.889 110.002ZM299.296 112.072V108.523C299.296 107.341 298.976 106.454 298.336 105.566C297.696 104.679 296.735 103.792 295.775 103.201C294.815 102.609 293.534 102.314 292.254 102.314C290.013 102.314 288.413 102.905 287.132 104.384C285.852 105.862 285.212 107.636 285.212 110.298C285.212 112.663 285.852 114.733 287.132 115.916C288.413 117.395 290.013 117.986 292.254 117.986C294.495 117.986 296.095 117.395 297.376 116.212C298.336 115.029 299.296 113.55 299.296 112.072Z" fill="#36364C"/>
<path d="M317.862 116.803C317.862 114.142 318.822 112.072 320.743 110.594C322.663 109.115 325.864 107.932 330.346 107.341C332.587 107.045 334.507 106.454 335.147 106.158C336.108 105.567 336.428 104.975 336.428 104.384C336.428 103.497 336.108 102.905 335.147 102.314C334.187 101.722 333.227 101.427 331.626 101.427C330.026 101.427 328.425 102.018 327.465 102.905C326.505 103.792 325.544 104.975 325.224 106.454L317.542 104.975C317.862 103.201 318.822 101.427 320.103 99.9482C321.383 98.4697 322.984 97.2869 325.224 96.3998C327.145 95.5126 329.386 95.2169 331.946 95.2169C335.788 95.2169 338.989 96.1041 341.229 98.174C343.47 100.244 344.751 102.905 344.751 106.158V123.9H337.388V121.239C336.428 122.422 335.147 123.309 333.547 124.196C331.946 125.083 330.026 125.379 328.105 125.379C326.185 125.379 324.264 125.083 322.663 124.196C321.063 123.605 319.783 122.422 318.822 121.239C318.182 119.761 317.862 118.282 317.862 116.803ZM337.068 113.846V110.594C336.748 111.185 336.108 111.481 335.468 111.776C334.507 112.072 333.547 112.368 331.626 112.664C329.386 112.959 328.105 113.551 327.145 114.142C326.185 114.734 325.864 115.325 325.864 116.212C325.864 117.099 326.185 117.691 326.825 117.986C327.465 118.282 328.425 118.578 330.026 118.578C331.306 118.578 332.587 118.282 333.547 117.986C334.507 117.691 335.468 116.803 336.108 116.212C336.748 115.621 337.068 114.734 337.068 113.846Z" fill="#36364C"/>
<path d="M371.959 102.905V114.142C371.959 115.029 372.279 115.916 372.599 116.212C373.24 116.508 373.88 116.804 374.84 116.804H381.882V124.196H374.2C370.679 124.196 368.118 123.605 366.517 122.126C364.597 120.648 363.636 118.578 363.636 115.916V102.905H356.274V96.1042H363.636V88.7115H371.959V95.8085H383.803V102.61H371.959V102.905Z" fill="#36364C"/>
<path d="M423.495 117.395V124.196H393.406V117.099H404.289V102.905H394.046V95.8082H412.612V117.099H423.495V117.395ZM404.289 83.9799H412.612V91.6683H404.289V83.9799Z" fill="#36364C"/>
<path d="M431.498 110.002C431.498 107.045 432.139 104.384 433.419 102.314C434.699 99.9482 436.62 98.174 438.861 96.9912C441.102 95.8083 443.982 95.2169 446.863 95.2169C450.064 95.2169 452.625 95.8083 454.866 96.9912C457.107 98.174 459.027 99.9482 460.308 102.314C461.588 104.68 462.228 107.045 462.228 110.002C462.228 112.959 461.588 115.621 460.308 117.691C459.027 120.056 457.107 121.83 454.866 123.013C452.625 124.196 449.744 124.788 446.863 124.788C443.982 124.788 441.102 124.196 438.861 123.013C436.62 121.83 434.699 120.056 433.419 117.691C432.139 115.621 431.498 112.959 431.498 110.002ZM454.226 110.002C454.226 107.637 453.586 105.567 452.305 104.088C451.025 102.61 449.104 102.018 446.863 102.018C444.623 102.018 442.702 102.61 441.422 104.088C440.141 105.567 439.501 107.341 439.501 110.002C439.501 112.664 440.141 114.438 441.422 115.916C442.702 117.395 444.623 117.986 446.863 117.986C449.104 117.986 451.025 117.395 452.305 115.916C453.586 114.438 454.226 112.664 454.226 110.002Z" fill="#36364C"/>
<path d="M471.192 96.1041H479.514V98.7654C480.795 97.5826 482.075 96.6955 483.356 96.1041C484.636 95.5126 486.236 95.2169 488.157 95.2169C490.078 95.2169 491.998 95.5126 493.599 96.3998C495.199 97.2869 496.8 98.4697 497.76 100.54C498.72 102.61 499.361 104.68 499.361 107.341V124.196H491.038V108.228C491.038 106.454 490.398 104.975 489.437 103.792C488.477 102.61 486.877 102.018 484.956 102.018C483.035 102.018 481.435 102.61 480.475 103.497C479.514 104.68 478.874 105.862 478.874 107.932V124.196H470.551V96.1041H471.192Z" fill="#36364C"/>
<path d="M46.7353 111.185V146.374L0.000396729 83.6844L46.7353 111.185Z" fill="#1AACD4"/>
<path d="M93.15 83.6844L46.7351 146.374V111.185L93.15 83.6844Z" fill="#6B7BBB"/>
<path d="M93.15 74.8133L46.7351 50.2697V102.314L93.15 74.8133Z" fill="#A666A7"/>
<path d="M93.15 74.8133L46.7351 -0.000312805V50.2697L93.15 74.8133Z" fill="#F18B78"/>
<path d="M46.7354 -0.000579834V50.2694L0.000457764 74.813L46.7354 -0.000579834Z" fill="#FFEC5D"/>
<path d="M46.7353 50.2697V102.314L0.000396729 74.8133L46.7353 50.2697Z" fill="#59B56E"/>
</svg>
