<?xml version="1.0" encoding="utf-8"?><!-- Uploaded to: SVG Repo, www.svgrepo.com, Generator: SVG Repo Mixer Tools -->
<svg width="800px" height="800px" viewBox="0 0 64 64" fill="none" xmlns="http://www.w3.org/2000/svg">
<path d="M47.5228 29.3221L37.7635 20.7688L35.2045 23.5699L37.0108 25.1705L36.3836 24.8203L29.8356 27.1712L27.5275 29.4471L27.6278 28.4467L27.3017 28.5217C25.8215 28.7969 24.3664 29.297 23.0116 30.0223L19.8003 31.698L19.4742 33.8488L19.7251 30.0223L15.9367 29.8472L15.0837 42.7772L18.8971 42.9772L18.9975 41.6017L20.277 41.8518C20.0512 42.5271 20.3774 43.2774 21.0547 43.5525C21.7572 43.8526 22.56 43.5024 22.8611 42.8022L23.0367 42.352L23.3628 42.427L22.836 43.7275C22.5349 44.4528 22.8862 45.2781 23.5886 45.5532C24.3162 45.8533 25.1441 45.5032 25.4201 44.8029L26.1727 42.9772L26.6745 43.0773L26.1225 44.4278C25.8215 45.1531 26.1727 45.9784 26.8752 46.2535C27.6028 46.5536 28.4307 46.2035 28.7066 45.5032L29.4844 43.6275L29.8356 43.7025L29.4844 44.5278C29.1833 45.2531 29.5345 46.0784 30.237 46.3535C30.9646 46.6536 31.7925 46.3035 32.0685 45.6032L32.6204 44.2527L32.9465 43.6525L36.208 44.6529C36.9356 44.878 37.7635 44.5028 38.0144 43.7775C38.2652 43.0273 37.8638 42.202 37.0861 41.9769L34.0002 41.0265L34.0253 40.9265L38.3405 42.252C39.0681 42.4771 39.896 42.1019 40.1469 41.3766C40.3977 40.6263 40.0465 39.601 39.2688 39.3759L34.9285 38.1004L35.0038 37.8753L39.2688 39.1258C39.9963 39.3509 40.8995 38.8507 41.1504 38.1254C41.4013 37.3751 40.9999 36.5498 40.2221 36.3247L35.932 34.9992L40.5232 36.1747C41.2758 36.3997 42.0536 35.9746 42.2794 35.2493C42.5051 34.499 42.0786 33.7237 41.3511 33.4986L36.9356 31.873L31.2405 29.6972L41.7776 32.5983C41.7776 32.5983 42.756 32.0481 42.9818 31.3228C43.0571 31.1227 43.0822 30.9227 43.1073 30.7226L44.8885 32.2732L47.5228 29.3221Z" fill="#2A2941"/>
<path d="M30.814 46.8538C30.5632 46.8538 30.3123 46.8038 30.0865 46.7037C29.6349 46.5287 29.3087 46.1785 29.108 45.7784C28.6565 46.6287 27.6027 47.0038 26.6996 46.6287C26.1476 46.4036 25.7462 45.9284 25.5957 45.3782C25.395 45.6283 25.1441 45.8034 24.843 45.9284C24.3664 46.1285 23.8395 46.1285 23.3879 45.9284C22.9113 45.7284 22.56 45.3782 22.3593 44.903C22.2339 44.6029 22.1837 44.2778 22.2339 43.9527C21.7823 44.1278 21.3056 44.1027 20.854 43.9277C20.1265 43.6276 19.6749 42.9023 19.7 42.152L19.4491 42.102L19.3738 43.4025L14.5569 43.1524L15.4851 29.2471L20.277 29.4722L20.1766 30.8727L22.7858 29.4972C24.1657 28.7719 25.671 28.2467 27.2013 27.9716L28.1798 27.7715L28.1547 28.0716L29.5596 26.6961L35.5808 24.5453L34.502 23.5949L37.7133 20.0686L48.2253 29.2721L44.9889 32.8485L43.4585 31.4979C43.1073 32.2983 42.2041 32.8235 42.0786 32.8985L41.903 32.9985H41.8779C42.2292 33.1736 42.5302 33.4487 42.7058 33.7988C42.9567 34.249 43.0069 34.7742 42.8564 35.2494C42.6557 35.8996 42.1539 36.3498 41.5267 36.5249C41.5518 36.5749 41.5769 36.5999 41.602 36.6499C41.8278 37.1251 41.8779 37.6503 41.7023 38.1255C41.5016 38.7507 40.9748 39.2009 40.3726 39.426C40.4228 39.501 40.4981 39.601 40.5483 39.7011C40.8242 40.2263 40.8744 40.8765 40.6988 41.4017C40.3977 42.252 39.4946 42.7772 38.5914 42.6522C38.6917 43.0273 38.6917 43.4275 38.5663 43.8026C38.2401 44.778 37.1363 45.3032 36.1327 45.0031L33.2476 44.1278L33.1222 44.3278L32.5702 45.6533C32.2942 46.4036 31.5667 46.8538 30.814 46.8538ZM29.2084 42.9523L30.5632 43.2024L29.9861 44.5779C29.7854 45.0281 30.0112 45.5783 30.4879 45.7534C30.9395 45.9534 31.4914 45.7284 31.667 45.2532L32.2441 43.8526L32.7709 42.9023L36.4338 44.0277C36.9356 44.1778 37.4624 43.9277 37.6129 43.4775C37.6882 43.2524 37.6631 43.0023 37.5628 42.7772C37.4624 42.5522 37.2617 42.4021 37.0108 42.3271L33.4232 41.2267L33.7744 40.1762L38.5663 41.6518C39.0681 41.8019 39.5949 41.5518 39.7454 41.1016C39.8458 40.8265 39.8207 40.4514 39.6702 40.1762C39.5949 40.0512 39.4695 39.8261 39.2186 39.7511L34.4017 38.3255L34.778 37.1251L39.4946 38.5256C39.9712 38.6757 40.5984 38.3255 40.749 37.8254C40.8242 37.6003 40.7991 37.3502 40.6988 37.1251C40.5733 36.9 40.3977 36.7499 40.1468 36.6749L35.8568 35.3494L36.1327 34.3991L40.7239 35.5745C41.2256 35.7246 41.7274 35.4495 41.8779 34.9743C41.9532 34.7492 41.9281 34.4991 41.8027 34.274C41.6772 34.0489 41.5016 33.8989 41.2758 33.8238H41.2507L36.8352 32.1982L31.1151 30.0224L31.4162 29.072L41.7274 31.9231C42.0034 31.723 42.4299 31.3729 42.5553 31.0228C42.6055 30.8727 42.6306 30.7227 42.6557 30.5226L42.7811 29.5972L44.8885 31.4479L46.7701 29.3721L37.7635 21.4941L35.8819 23.5449L41.0249 28.0466L36.3084 25.3456L30.0865 27.5715L26.8752 30.7227L27.0508 29.022C25.7211 29.2971 24.4416 29.7723 23.2374 30.3975L20.2519 31.9481L19.9508 33.8488L18.9473 33.7488L19.1731 30.4225L16.3632 30.2975L15.5855 42.227L18.3954 42.3771L18.4957 40.9265L20.9042 41.3767L20.7286 41.9269C20.5781 42.3521 20.8038 42.8273 21.2303 43.0023C21.4561 43.1024 21.6819 43.1024 21.9077 43.0023C22.1335 42.9023 22.284 42.7522 22.3844 42.5271L22.7356 41.7018L24.0653 41.9519L23.2876 43.8026C23.1872 44.0277 23.1872 44.2778 23.2876 44.5029C23.3879 44.728 23.5635 44.903 23.7893 45.0031C24.0151 45.1031 24.266 45.1031 24.4918 45.0031C24.7176 44.903 24.8932 44.728 24.9936 44.5029L25.9218 42.3021L27.4271 42.6022L26.6243 44.5029C26.4236 44.9531 26.6494 45.5033 27.1261 45.6783C27.5777 45.8784 28.1296 45.6533 28.3052 45.1782L29.2084 42.9523Z" fill="#2A2941"/>
<path d="M42.4298 30.5978L38.0143 28.9722L32.3193 26.7963L27.7532 29.2973L29.7101 25.6709L28.2801 25.7459C26.7999 26.021 25.3448 26.5212 23.99 27.2465L20.7787 28.9221L19.2734 38.6758L33.6741 41.4269L34.0002 40.8267L37.2617 41.827C37.9641 42.0521 38.7419 41.727 39.0429 41.0517C39.3691 40.2765 38.9426 39.4011 38.1649 39.176L35.079 38.2257L35.1041 38.1256L39.4193 39.4511C40.1468 39.6762 40.9747 39.3011 41.2256 38.5758C41.4765 37.8255 41.1253 36.8001 40.3475 36.575L36.0073 35.2996L36.0825 35.0745L40.3475 36.3249C41.0751 36.55 41.9783 36.0498 42.2291 35.3246C42.48 34.5743 42.0786 33.749 41.3009 33.5239L37.0108 32.1984L41.6019 33.3738C42.3546 33.5989 43.1323 33.1738 43.3581 32.4485C43.609 31.6232 43.1825 30.8229 42.4298 30.5978Z" fill="white"/>
<path d="M37.7133 42.3522C37.5126 42.3522 37.3119 42.3271 37.1362 42.2521L34.2511 41.3768L33.95 41.927L18.7215 39.0259L20.3522 28.5469L23.7893 26.7462C25.1692 26.0209 26.6745 25.4957 28.2048 25.2206H28.2801L30.5882 25.1206L29.0077 28.0467L32.2691 26.271L38.1899 28.5219L42.6055 30.1475C43.0821 30.2976 43.4835 30.6227 43.7093 31.0729C43.9602 31.523 44.0104 32.0482 43.8599 32.5234C43.7093 32.9986 43.3832 33.3988 42.9316 33.6488C42.8062 33.7239 42.6807 33.7739 42.5302 33.7989C42.5553 33.8489 42.5804 33.8739 42.6055 33.924C42.8313 34.3991 42.8814 34.9243 42.7058 35.3995C42.5051 36.0248 41.9783 36.4749 41.3761 36.7C41.4263 36.775 41.5016 36.8751 41.5518 36.9751C41.8277 37.5003 41.8779 38.1506 41.7023 38.6758C41.4012 39.5511 40.4981 40.0513 39.5949 39.9262C39.7203 40.3514 39.6952 40.8016 39.5196 41.2017C39.2186 41.927 38.491 42.3522 37.7133 42.3522ZM33.7744 40.2013L37.4373 41.3268C37.914 41.4768 38.4157 41.2517 38.5914 40.8266C38.6917 40.5765 38.6917 40.3264 38.5663 40.1013C38.4659 39.8762 38.2652 39.7011 38.0143 39.6261L34.4267 38.5257L34.7779 37.4753L39.5698 38.9509C40.0716 39.1009 40.5984 38.8508 40.7489 38.4007C40.8493 38.1256 40.8242 37.7504 40.6737 37.4753C40.5984 37.3503 40.473 37.1252 40.2221 37.0501L35.4052 35.6246L35.7815 34.4241L40.4981 35.8247C40.9747 35.9747 41.6019 35.6246 41.7525 35.1244C41.8277 34.8993 41.8026 34.6492 41.7023 34.4241C41.6019 34.1991 41.4012 34.049 41.1503 33.974L36.8603 32.6485L37.1362 31.6981L41.7274 32.8736C41.9783 32.9486 42.2291 32.9236 42.4549 32.8235C42.6807 32.6985 42.8313 32.5234 42.9065 32.2983C42.9818 32.0733 42.9567 31.8232 42.8313 31.5981C42.7058 31.373 42.5302 31.2229 42.3044 31.1479H42.2793L37.8638 29.5223L32.3695 27.4215L26.5239 30.6227L28.8822 26.271L28.3805 26.2961C26.9504 26.5712 25.5706 27.0463 24.266 27.7216L21.2805 29.2722L19.8756 38.3006L33.4483 40.8766L33.7744 40.2013Z" fill="#2A2941"/>
<path d="M37.3621 22.0696L30.6635 23.7202L26.9505 28.2219C25.7964 29.6725 26.1225 31.4732 28.1798 30.1226L32.2942 26.8214L42.4299 30.6228C42.4299 30.6228 43.8097 29.1723 44.0355 28.447C44.4118 27.3216 44.0606 25.896 44.0606 25.896L37.3621 22.0696Z" fill="white"/>
<path d="M42.5804 31.198L32.4197 27.3715L28.4808 30.5227C27.101 31.4481 26.3985 31.0479 26.1225 30.7478C25.5706 30.1476 25.7462 28.9471 26.5741 27.9217L30.3875 23.27L37.4624 21.5193L44.5373 25.5458L44.5874 25.7459C44.6125 25.8209 44.9638 27.3215 44.5373 28.572C44.2613 29.3973 42.9567 30.7728 42.8062 30.9479L42.5804 31.198ZM30.9395 24.1453L27.3268 28.5219C26.7497 29.2472 26.6996 29.8975 26.825 30.0475C26.8501 30.0975 27.1762 30.1476 27.8787 29.6974L32.1939 26.2211L42.2793 29.9975C42.7811 29.4473 43.4334 28.647 43.5588 28.2468C43.8097 27.4966 43.6843 26.5712 43.6341 26.1711L37.2868 22.5447L30.9395 24.1453Z" fill="#2A2941"/>
<path d="M24.5671 42.7273C23.8396 42.4272 23.5134 41.6019 23.8145 40.9016L25.3198 37.2752C25.6208 36.55 26.4487 36.2248 27.1512 36.5249C27.8788 36.8251 28.2049 37.6504 27.9039 38.3506L26.3986 41.977C26.1226 42.7023 25.2947 43.0274 24.5671 42.7273Z" fill="white"/>
<path d="M25.119 43.3526C24.8682 43.3526 24.6173 43.3026 24.3915 43.2026C23.9148 43.0025 23.5636 42.6524 23.3629 42.1772C23.1622 41.702 23.1622 41.1768 23.3629 40.7266L24.8682 37.1003C25.0689 36.6251 25.4201 36.2749 25.8968 36.0749C26.3735 35.8748 26.9003 35.8748 27.3519 36.0749C27.8286 36.2749 28.1798 36.6251 28.3805 37.1003C28.5812 37.5754 28.5812 38.1006 28.3805 38.5508L26.8752 42.1772C26.5742 42.9025 25.8466 43.3526 25.119 43.3526ZM24.7678 42.2772C25.2194 42.4773 25.7713 42.2522 25.947 41.777L27.4522 38.1507C27.5526 37.9256 27.5526 37.6755 27.4522 37.4504C27.3519 37.2253 27.1763 37.0502 26.9505 36.9502C26.7247 36.8502 26.4738 36.8502 26.248 36.9502C26.0222 37.0502 25.8466 37.2253 25.7462 37.4504L24.241 41.0768C24.1406 41.3018 24.1406 41.5519 24.241 41.777C24.3413 42.0021 24.542 42.1772 24.7678 42.2772Z" fill="#2A2941"/>
<path d="M27.8788 43.4275C27.1512 43.1274 26.8251 42.3021 27.1261 41.6018L28.6314 37.9754C28.9325 37.2502 29.7604 36.925 30.4629 37.2251C31.1904 37.5253 31.5166 38.3506 31.2155 39.0508L29.7102 42.6772C29.4342 43.3775 28.6063 43.7276 27.8788 43.4275Z" fill="white"/>
<path d="M28.4307 44.0277C28.1798 44.0277 27.9289 43.9777 27.7031 43.8776C27.2265 43.6775 26.8752 43.3274 26.6745 42.8522C26.4738 42.3771 26.4738 41.8519 26.6745 41.4017L28.1798 37.7753C28.3805 37.3001 28.7317 36.95 29.2084 36.7499C29.6851 36.5498 30.212 36.5498 30.6635 36.7499C31.1402 36.95 31.4915 37.3001 31.6922 37.7753C31.8929 38.2505 31.8929 38.7757 31.6922 39.2259L30.1869 42.8522C29.9862 43.3274 29.6349 43.6775 29.1582 43.8776C28.9325 43.9777 28.6816 44.0277 28.4307 44.0277ZM29.936 37.5752C29.8105 37.5752 29.7102 37.6002 29.5847 37.6503C29.359 37.7503 29.1833 37.9254 29.083 38.1504L27.5777 41.7768C27.4773 42.0019 27.4773 42.252 27.5777 42.4771C27.678 42.7022 27.8537 42.8772 28.0795 42.9773C28.3052 43.0773 28.5561 43.0773 28.7819 42.9773C29.0077 42.8772 29.1833 42.7022 29.2837 42.4771L30.789 38.8507C30.8893 38.6256 30.8893 38.3755 30.789 38.1504C30.6886 37.9254 30.513 37.7503 30.2872 37.6503C30.1869 37.6002 30.0614 37.5752 29.936 37.5752Z" fill="#2A2941"/>
<path d="M31.2907 43.5028C30.5631 43.2026 30.237 42.3773 30.5381 41.6771L31.4161 39.5763C31.7172 38.851 32.5451 38.5259 33.2476 38.826C33.9751 39.1261 34.3013 39.9514 34.0002 40.6517L33.1221 42.7525C32.8211 43.4527 31.9932 43.8029 31.2907 43.5028Z" fill="white"/>
<path d="M31.8176 44.1029C31.5667 44.1029 31.3158 44.0529 31.09 43.9529C30.1116 43.5527 29.66 42.4273 30.0614 41.4519L30.9395 39.3511C31.3409 38.3757 32.4699 37.9256 33.4483 38.3257C33.925 38.5258 34.2762 38.8759 34.4769 39.3511C34.6776 39.8263 34.6776 40.3515 34.4769 40.8017L33.5988 42.9025C33.3981 43.3776 33.0469 43.7278 32.5702 43.9278C32.3193 44.0529 32.0685 44.1029 31.8176 44.1029ZM32.6957 39.201C32.3444 39.201 31.9932 39.4011 31.8427 39.7513L30.9646 41.8521C30.7639 42.3022 30.9897 42.8524 31.4663 43.0275C31.6921 43.1275 31.943 43.1275 32.1688 43.0275C32.3946 42.9275 32.5702 42.7524 32.6706 42.5273L33.5487 40.4265C33.649 40.2014 33.649 39.9513 33.5487 39.7262C33.4483 39.5012 33.2727 39.3261 33.0469 39.2261C32.9215 39.201 32.8211 39.201 32.6957 39.201Z" fill="#2A2941"/>
<path d="M22.0332 40.7267C21.3307 40.4266 21.0045 39.6263 21.2805 38.926L21.707 37.9256C22.0081 37.2254 22.8109 36.9002 23.5134 37.1753C24.2158 37.4755 24.542 38.2758 24.266 38.976L23.8395 39.9764C23.5385 40.6767 22.7356 41.0268 22.0332 40.7267Z" fill="white"/>
<path d="M22.56 41.3269C22.3091 41.3269 22.0833 41.2768 21.8325 41.1768C20.8791 40.7767 20.4275 39.6762 20.8039 38.7259L21.2303 37.7255C21.6318 36.7751 22.7356 36.325 23.689 36.7001C24.1406 36.9002 24.5169 37.2503 24.7176 37.7255C24.9183 38.1757 24.9183 38.7009 24.7176 39.151L24.2911 40.1514C24.0904 40.6016 23.7392 40.9767 23.2625 41.1768C23.0367 41.2768 22.8109 41.3269 22.56 41.3269ZM22.9614 37.6004C22.6102 37.6004 22.2841 37.8005 22.1586 38.1507L21.7321 39.151C21.5565 39.6012 21.7572 40.1014 22.2088 40.3015C22.4346 40.4015 22.6604 40.4015 22.8862 40.3015C23.112 40.2014 23.2625 40.0514 23.3628 39.8263L23.7893 38.8259C23.8897 38.6008 23.8897 38.3757 23.7893 38.1507C23.689 37.9256 23.5385 37.7755 23.3127 37.6755C23.1872 37.6004 23.0869 37.6004 22.9614 37.6004Z" fill="#2A2941"/>
<path d="M19.8756 40.1514L20.7035 27.2215L16.9152 27.0464L16.0622 39.9513L19.8756 40.1514Z" fill="#A694FE"/>
<path d="M20.3523 40.6766L15.5353 40.4265L16.4385 26.5212L21.2304 26.7463L20.3523 40.6766ZM16.589 39.4762L19.3989 39.6262L20.1767 27.6967L17.3919 27.5716L16.589 39.4762Z" fill="#2A2941"/>
<path d="M45.9673 29.3971L36.1829 20.8189L38.767 18.0178L48.5263 26.5711L45.9673 29.3971Z" fill="#32EDBB"/>
<path d="M45.9924 30.0975L35.4805 20.869L38.7168 17.3176L49.2288 26.5211L45.9924 30.0975ZM36.9105 20.7939L45.9172 28.697L47.7988 26.6212L38.7921 18.7432L36.9105 20.7939Z" fill="#2A2941"/>
</svg>