<svg width="502" height="74" viewBox="0 0 502 74" fill="none" xmlns="http://www.w3.org/2000/svg">
<path fill-rule="evenodd" clip-rule="evenodd" d="M96.1176 9.87897C89.8987 6.8199 83.2607 8.48648 77.215 11.4542C72.1991 6.13613 65.7016 2.44703 58.5645 0.864924C51.4274 -0.717187 43.9797 -0.119391 37.1863 2.58085C30.3929 5.2811 24.567 9.95932 20.4636 16.0094C16.3601 22.0594 14.1682 29.2024 14.1718 36.5127C14.1767 38.0857 14.282 39.6567 14.4868 41.2163C8.56403 43.3964 3.19255 46.9721 0.750969 52.9485C-2.21043 59.766 4.10618 65.084 10.6244 64.9958C25.6103 64.2509 37.4049 53.3592 48.0716 43.5091C49.135 42.527 50.1872 41.5554 51.2303 40.6051C52.3227 39.58 53.4165 38.5402 54.5157 37.4952C61.2275 31.1145 68.1411 24.5419 76.1576 19.9721L76.1569 19.9706C77.9207 18.8984 79.7717 17.9768 81.6903 17.2154L82.0812 17.0603L82.0832 17.0647C83.3284 16.5675 84.5959 16.1282 85.8819 15.7482C88.0116 15.1654 94.0415 14.3463 93.2098 17.9283V17.9157C91.6566 21.4988 88.8543 23.5596 85.6091 24.998L85.6152 25.0116L82.9387 26.103L80.0311 27.0053C80.9007 29.6851 81.4029 32.4835 81.5133 35.3241C81.7289 40.8691 80.4441 46.3696 77.7943 51.2453C75.1445 56.121 71.228 60.1912 66.4579 63.0266C61.6877 65.862 56.2408 67.3575 50.6916 67.3554C44.0316 67.3554 35.7491 65.5534 34.0321 62.8692L29.2561 65.9251C32.8412 71.5297 44.4159 73.0262 50.679 73.0262C55.8429 73.0297 60.9488 71.9376 65.6595 69.822C70.3701 67.7064 74.5783 64.6154 78.0061 60.7532C81.4338 56.891 84.0031 52.3455 85.5443 47.417C87.0855 42.4884 87.5635 37.2889 86.9467 32.162C92.9766 29.7015 98.2883 25.6343 100.138 19.157C101.187 15.1654 99.7375 11.8606 96.1176 9.87897ZM11.3711 58.0396C7.12429 58.3231 5.70029 55.7303 8.97674 52.876C11.0117 50.8452 13.4168 49.223 16.0621 48.0968C16.9644 50.803 18.1859 53.392 19.7008 55.8091C17.0753 57.038 14.2532 57.7932 11.3648 58.0396H11.3711ZM40.9 39.9719C39.0626 41.3071 37.4035 42.8717 35.9631 44.6278C35.6588 44.3046 35.4208 43.9249 35.2627 43.51C35.104 43.0937 35.0289 42.6501 35.0416 42.2047C35.0673 41.3052 35.4493 40.4527 36.1035 39.8348C36.7577 39.217 37.6306 38.8843 38.5302 38.91C39.4297 38.9357 40.2822 39.3177 40.9 39.9719ZM41.0229 29.21C40.3316 29.2113 39.6555 29.0074 39.0801 28.6243C38.5047 28.2411 38.056 27.6959 37.7905 27.0576C37.5251 26.4193 37.4551 25.7166 37.5891 25.0384C37.7232 24.3603 38.0555 23.7372 38.5439 23.2479C39.0322 22.7587 39.6548 22.4253 40.3327 22.29C41.0106 22.1546 41.7134 22.2235 42.3522 22.4877C42.991 22.752 43.537 23.1998 43.9212 23.7745C44.3054 24.3492 44.5104 25.0249 44.5104 25.7162C44.5108 26.1751 44.4208 26.6296 44.2453 27.0537C44.0699 27.4778 43.8126 27.8631 43.488 28.1876C43.1635 28.5121 42.7782 28.7695 42.3541 28.9449C41.932 29.1195 41.4797 29.2096 41.0229 29.21ZM55.4771 25.8296C55.1875 25.4906 54.9675 25.0978 54.8297 24.6737C54.6919 24.2497 54.6389 23.8026 54.6739 23.3581C54.7088 22.9136 54.831 22.4803 55.0334 22.083C55.2358 21.6857 55.5145 21.3321 55.8536 21.0425C56.5383 20.4576 57.4273 20.1687 58.3251 20.2393C58.7696 20.2743 59.2029 20.3965 59.6002 20.5989C59.9975 20.8013 60.351 21.08 60.6406 21.419C58.7387 22.6633 57.0034 24.1455 55.4771 25.8296ZM68.7278 16.413C67.9402 16.9485 67.4456 17.1061 66.5949 16.413C62.5592 13.1113 57.9029 11.2998 52.7079 10.7138C50.0065 10.4096 47.2734 10.5576 44.6207 11.1517C45.0576 11.5381 45.3907 12.0278 45.5897 12.5761C45.7886 13.1243 45.847 13.7137 45.7594 14.2903C45.6719 14.8669 45.4414 15.4125 45.0887 15.877C44.7361 16.3416 44.2727 16.7104 43.7409 16.9498C43.209 17.1891 42.6257 17.2914 42.0441 17.2473C41.4626 17.2031 40.9013 17.014 40.4117 16.6971C39.9221 16.3802 39.5196 15.9457 39.2412 15.4332C38.9627 14.9208 38.8171 14.3467 38.8176 13.7635C38.8183 13.5713 38.8352 13.3795 38.868 13.1901C33.3807 15.9169 28.9989 20.4489 26.4585 26.0249C26.5996 26.0074 26.7416 25.998 26.8838 25.9966C27.4466 26.001 28.0001 26.1413 28.4971 26.4056C28.994 26.6699 29.4198 27.0504 29.7381 27.5146C30.0564 27.9788 30.2578 28.5131 30.3252 29.072C30.3926 29.6308 30.324 30.1976 30.1252 30.7242C29.9264 31.2508 29.6033 31.7216 29.1834 32.0965C28.7636 32.4714 28.2593 32.7393 27.7136 32.8774C27.168 33.0154 26.597 33.0196 26.0493 32.8896C25.5017 32.7596 24.9936 32.4991 24.5682 32.1305C24.2741 33.8783 24.1684 35.6528 24.2532 37.4232C24.2532 37.4232 24.5934 42.4828 26.4112 46.3232C26.8322 47.2147 27.1908 47.9118 27.477 48.4682C28.0763 49.633 28.3583 50.1813 28.2311 50.6073C28.1179 50.986 27.6811 51.268 26.8558 51.8008L26.7861 51.8459C26.1025 52.2869 25.4125 52.7217 24.71 53.147C20.6282 46.7858 19.0249 39.1471 20.2044 31.6815C21.3839 24.216 25.2642 17.4437 31.1083 12.6507C36.9523 7.8578 44.3531 5.37807 51.9051 5.68251C59.4571 5.98696 66.6343 9.05436 72.0735 14.3022C70.9173 15.0079 69.7989 15.7262 68.7278 16.4256V16.413ZM70.4896 52.5124C69.9073 52.4346 69.3541 52.2112 68.8812 51.8629C68.4083 51.5145 68.0309 51.0524 67.784 50.5194C67.5372 49.9864 67.4288 49.3997 67.469 48.8137C67.5091 48.2277 67.6965 47.6613 68.0138 47.167C68.331 46.6726 68.7679 46.2663 69.284 45.9857C69.8 45.7051 70.3785 45.5593 70.9659 45.5617C71.5533 45.5642 72.1305 45.7148 72.6442 45.9996C73.158 46.2845 73.5915 46.6943 73.9046 47.1913C75.5661 43.7193 76.3668 39.8983 76.2391 36.0514V35.6639C76.1911 35.5345 76.1573 35.4004 76.1383 35.2638C76.1163 35.0919 76.0946 34.9201 76.0729 34.7483C75.7848 32.4638 75.4985 30.1942 74.4056 28.1753L74.1189 28.2761C71.3559 30.3113 68.7222 32.4788 66.1546 34.7187C66.6695 34.9682 67.1152 35.3404 67.4525 35.8026C67.7898 36.2647 68.0082 36.8027 68.0887 37.3692C68.1692 37.9357 68.1092 38.5133 67.914 39.0511C67.7188 39.5889 67.3944 40.0705 66.9693 40.4535C66.5442 40.8365 66.0315 41.1091 65.4763 41.2474C64.9211 41.3857 64.3404 41.3854 63.7854 41.2465C63.2303 41.1076 62.7179 40.8344 62.2933 40.4509C61.8686 40.0674 61.5448 39.5855 61.3502 39.0474C59.5693 40.6967 57.8075 42.3661 56.0454 44.0357L56.0452 44.0359L56.0451 44.036C50.4223 49.3638 44.7961 54.6948 38.5379 59.3866C49.7597 65.3504 63.0609 61.4344 70.4896 52.5124ZM53.7041 50.8332C54.3952 50.8332 55.0708 51.0382 55.6455 51.4222C56.2201 51.8063 56.6679 52.3521 56.9323 52.9907C57.1966 53.6293 57.2656 54.332 57.1305 55.0098C56.9955 55.6876 56.6624 56.3101 56.1735 56.7986C55.6845 57.2871 55.0617 57.6196 54.3838 57.7541C53.7058 57.8885 53.0032 57.8189 52.3649 57.554C51.7265 57.289 51.1811 56.8407 50.7975 56.2658C50.414 55.6908 50.2096 55.015 50.2102 54.3238C50.2111 53.3978 50.5796 52.5099 51.2347 51.8554C51.8898 51.2008 52.778 50.8332 53.7041 50.8332Z" fill="black"/>
<mask id="path-2-outside-1_3809_3832" maskUnits="userSpaceOnUse" x="124.782" y="2.40771" width="377" height="60" fill="black">
<rect fill="white" x="124.782" y="2.40771" width="377" height="60"/>
<path d="M147.611 5.95901C152.893 5.95901 157.403 7.5878 161.142 10.8454C164.88 14.103 166.75 18.0328 166.75 22.6347C166.75 27.185 164.88 31.089 161.142 34.3465C157.403 37.5524 152.893 39.1554 147.611 39.1554H136.662V55.9862C136.662 57.1755 136.158 58.1838 135.149 59.0111C134.2 59.8384 133.042 60.2521 131.677 60.2521C130.313 60.2521 129.155 59.8384 128.206 59.0111C127.256 58.1838 126.782 57.1755 126.782 55.9862V10.2249C126.782 9.03561 127.256 8.02732 128.206 7.19999C129.155 6.37267 130.313 5.95901 131.677 5.95901H147.611ZM136.662 14.5683V30.546H147.611C150.163 30.546 152.329 29.7704 154.109 28.2192C155.89 26.6679 156.81 24.8065 156.869 22.6347C156.81 20.3596 155.89 18.4464 154.109 16.8952C152.329 15.344 150.163 14.5683 147.611 14.5683H136.662Z"/>
<path d="M177.162 22.7899C178.112 21.9625 179.269 21.5489 180.634 21.5489C181.999 21.5489 183.126 21.9625 184.017 22.7899C184.966 23.5655 185.441 24.5738 185.441 25.8148V56.0638C185.441 57.2531 184.966 58.2614 184.017 59.0887C183.126 59.8643 181.999 60.2521 180.634 60.2521C179.328 60.2521 178.201 59.8384 177.251 59.0111C176.302 58.1838 175.827 57.2013 175.827 56.0638V25.8148C175.827 24.5738 176.272 23.5655 177.162 22.7899ZM185.441 10.1473V11.7761C185.441 12.9654 184.966 13.9737 184.017 14.801C183.126 15.6283 181.999 16.042 180.634 16.042C179.328 16.042 178.201 15.6283 177.251 14.801C176.302 13.9737 175.827 12.9654 175.827 11.7761V10.1473C175.827 9.00976 176.302 8.02732 177.251 7.19999C178.201 6.37267 179.328 5.95901 180.634 5.95901C181.999 5.95901 183.126 6.37267 184.017 7.19999C184.966 7.97561 185.441 8.95805 185.441 10.1473Z"/>
<path d="M195.353 57.615L195.085 56.917V56.374C195.026 56.3223 194.996 56.2448 194.996 56.1413V56.0638L195.085 55.5208V55.2106C195.204 55.1072 195.264 54.9779 195.264 54.8228C195.264 54.616 195.382 54.4091 195.62 54.2023C195.62 54.0989 195.709 53.9696 195.887 53.8145H195.976L216.004 29.6928H199.714C198.468 29.6928 197.37 29.305 196.421 28.5294C195.471 27.7021 194.996 26.7197 194.996 25.5821C194.996 24.4445 195.471 23.4879 196.421 22.7123C197.37 21.885 198.468 21.4713 199.714 21.4713H225.44L225.974 21.5489H226.419C226.597 21.5489 226.716 21.5747 226.775 21.6264C226.894 21.6782 227.072 21.7299 227.309 21.7816C227.428 21.9367 227.517 22.0142 227.576 22.0142L228.199 22.3245C228.318 22.3245 228.377 22.3762 228.377 22.4796L228.822 22.8674C228.941 22.8674 229.06 22.9967 229.179 23.2552C229.357 23.4621 229.505 23.5655 229.624 23.5655C229.802 24.0309 229.891 24.3411 229.891 24.4962C229.891 24.5996 229.95 24.7031 230.069 24.8065V25.2718L230.158 25.5821V25.6596L230.069 26.0475C230.069 26.4094 230.009 26.6938 229.891 26.9006C229.891 27.1075 229.802 27.2367 229.624 27.2884V27.5211L229.179 27.9089V27.9865L209.061 52.0306H225.44C226.686 52.0306 227.784 52.4442 228.733 53.2716C229.683 54.0472 230.158 55.0038 230.158 56.1413C230.158 57.2789 229.683 58.2614 228.733 59.0887C227.784 59.8643 226.686 60.2521 225.44 60.2521H199.714C199.358 60.2521 199.062 60.2263 198.824 60.1745H198.557C198.32 60.0711 198.142 60.0194 198.023 60.0194L197.311 59.7092C197.133 59.554 197.044 59.4506 197.044 59.3989C196.806 59.3989 196.51 59.218 196.154 58.856C195.798 58.4423 195.62 58.1579 195.62 58.0028C195.442 57.9511 195.353 57.8218 195.353 57.615Z"/>
<path d="M239.463 57.615L239.196 56.917V56.374C239.137 56.3223 239.107 56.2448 239.107 56.1413V56.0638L239.196 55.5208V55.2106C239.315 55.1072 239.374 54.9779 239.374 54.8228C239.374 54.616 239.493 54.4091 239.73 54.2023C239.73 54.0989 239.819 53.9696 239.997 53.8145H240.086L260.115 29.6928H243.825C242.578 29.6928 241.481 29.305 240.531 28.5294C239.582 27.7021 239.107 26.7197 239.107 25.5821C239.107 24.4445 239.582 23.4879 240.531 22.7123C241.481 21.885 242.578 21.4713 243.825 21.4713H269.55L270.084 21.5489H270.529C270.707 21.5489 270.826 21.5747 270.885 21.6264C271.004 21.6782 271.182 21.7299 271.42 21.7816C271.538 21.9367 271.627 22.0142 271.687 22.0142L272.31 22.3245C272.428 22.3245 272.488 22.3762 272.488 22.4796L272.933 22.8674C273.052 22.8674 273.17 22.9967 273.289 23.2552C273.467 23.4621 273.615 23.5655 273.734 23.5655C273.912 24.0309 274.001 24.3411 274.001 24.4962C274.001 24.5996 274.06 24.7031 274.179 24.8065V25.2718L274.268 25.5821V25.6596L274.179 26.0475C274.179 26.4094 274.12 26.6938 274.001 26.9006C274.001 27.1075 273.912 27.2367 273.734 27.2884V27.5211L273.289 27.9089V27.9865L253.171 52.0306H269.55C270.796 52.0306 271.894 52.4442 272.844 53.2716C273.793 54.0472 274.268 55.0038 274.268 56.1413C274.268 57.2789 273.793 58.2614 272.844 59.0887C271.894 59.8643 270.796 60.2521 269.55 60.2521H243.825C243.469 60.2521 243.172 60.2263 242.935 60.1745H242.668C242.43 60.0711 242.252 60.0194 242.133 60.0194L241.421 59.7092C241.243 59.554 241.154 59.4506 241.154 59.3989C240.917 59.3989 240.62 59.218 240.264 58.856C239.908 58.4423 239.73 58.1579 239.73 58.0028C239.552 57.9511 239.463 57.8218 239.463 57.615Z"/>
<path d="M300.975 60.2521C294.981 60.2521 289.937 58.3648 285.842 54.5901C281.807 50.8154 279.789 46.2652 279.789 40.9393C279.789 35.5617 281.807 30.9855 285.842 27.2109C289.937 23.3845 294.981 21.4713 300.975 21.4713C305.188 21.4713 309.134 22.6089 312.814 24.884C313.11 23.9016 313.674 23.1001 314.505 22.4796C315.336 21.8074 316.345 21.4713 317.532 21.4713C318.778 21.4713 319.846 21.885 320.736 22.7123C321.686 23.5396 322.16 24.5221 322.16 25.6596V56.1413C322.16 57.2789 321.686 58.2614 320.736 59.0887C319.846 59.8643 318.778 60.2521 317.532 60.2521C316.345 60.2521 315.336 59.9419 314.505 59.3214C313.674 58.7009 313.11 57.8994 312.814 56.917C309.194 59.1404 305.247 60.2521 300.975 60.2521ZM289.314 40.9393C289.314 44.0417 290.382 46.653 292.518 48.773C294.714 50.893 297.503 51.953 300.886 51.953C304.328 51.953 307.146 50.893 309.342 48.773C311.597 46.653 312.725 44.0417 312.725 40.9393C312.725 37.8368 311.597 35.1997 309.342 33.028C307.087 30.8563 304.268 29.7704 300.886 29.7704C297.562 29.7704 294.803 30.8563 292.607 33.028C290.411 35.148 289.314 37.7851 289.314 40.9393Z"/>
<path d="M334.079 55.9862V10.2249C334.079 9.03561 334.554 8.02732 335.503 7.19999C336.453 6.37267 337.61 5.95901 338.975 5.95901H349.479C358.083 5.95901 365.412 8.62195 371.465 13.9479C377.518 19.222 380.545 25.6079 380.545 33.1056C380.545 40.6032 377.518 47.0149 371.465 52.3408C365.412 57.615 358.083 60.2521 349.479 60.2521H338.975C337.61 60.2521 336.453 59.8384 335.503 59.0111C334.554 58.1838 334.079 57.1755 334.079 55.9862ZM343.96 14.5683V51.6428H349.479C355.354 51.5911 360.338 49.7813 364.433 46.2135C368.587 42.5939 370.664 38.2246 370.664 33.1056C370.664 27.9865 368.587 23.6172 364.433 19.9976C360.338 16.3781 355.354 14.5683 349.479 14.5683H343.96Z"/>
<path d="M425.303 57.5374L420.941 47.4544H399.311L394.949 57.5374C394.118 59.3472 392.664 60.2521 390.587 60.2521C388.569 60.2521 387.115 59.6316 386.225 58.3906C385.335 57.0979 385.157 55.7794 385.691 54.435L405.364 8.75122C405.779 7.9239 406.402 7.2517 407.233 6.73462C408.123 6.21754 409.073 5.98486 410.081 6.03657C412.336 5.93315 413.909 6.83804 414.799 8.75122L434.472 54.435C435.006 55.7794 434.828 57.0979 433.938 58.3906C433.047 59.6316 431.564 60.2521 429.487 60.2521C427.469 60.2521 426.075 59.3472 425.303 57.5374ZM402.871 38.9227H410.081H417.292L410.081 22.2469L402.871 38.9227Z"/>
<path d="M447.926 52.0305C442.051 46.5495 439.113 39.9826 439.113 32.3299C439.113 24.6771 442.051 18.1103 447.926 12.6292C453.86 7.14822 461.07 4.40771 469.557 4.40771C478.043 4.40771 485.223 7.19993 491.098 12.7844C497.033 18.3171 500 24.8581 500 32.4074C500 39.9568 497.003 46.4719 491.009 51.9529C488.339 54.5383 485.134 56.5808 481.396 58.0803C477.657 59.5281 473.77 60.252 469.735 60.252C461.13 60.252 453.86 57.5115 447.926 52.0305ZM449.261 32.3299C449.261 37.5524 451.249 42.0509 455.225 45.8256C459.201 49.5485 463.978 51.41 469.557 51.41C475.194 51.41 479.971 49.5227 483.888 45.748C487.864 41.9217 489.852 37.4489 489.852 32.3299C489.852 27.2108 487.894 22.764 483.977 18.9893C480.06 15.1629 475.254 13.2497 469.557 13.2497C463.919 13.2497 459.112 15.1371 455.136 18.9117C451.219 22.6347 449.261 27.1074 449.261 32.3299Z"/>
</mask>
<path d="M147.611 5.95901C152.893 5.95901 157.403 7.5878 161.142 10.8454C164.88 14.103 166.75 18.0328 166.75 22.6347C166.75 27.185 164.88 31.089 161.142 34.3465C157.403 37.5524 152.893 39.1554 147.611 39.1554H136.662V55.9862C136.662 57.1755 136.158 58.1838 135.149 59.0111C134.2 59.8384 133.042 60.2521 131.677 60.2521C130.313 60.2521 129.155 59.8384 128.206 59.0111C127.256 58.1838 126.782 57.1755 126.782 55.9862V10.2249C126.782 9.03561 127.256 8.02732 128.206 7.19999C129.155 6.37267 130.313 5.95901 131.677 5.95901H147.611ZM136.662 14.5683V30.546H147.611C150.163 30.546 152.329 29.7704 154.109 28.2192C155.89 26.6679 156.81 24.8065 156.869 22.6347C156.81 20.3596 155.89 18.4464 154.109 16.8952C152.329 15.344 150.163 14.5683 147.611 14.5683H136.662Z" fill="black"/>
<path d="M177.162 22.7899C178.112 21.9625 179.269 21.5489 180.634 21.5489C181.999 21.5489 183.126 21.9625 184.017 22.7899C184.966 23.5655 185.441 24.5738 185.441 25.8148V56.0638C185.441 57.2531 184.966 58.2614 184.017 59.0887C183.126 59.8643 181.999 60.2521 180.634 60.2521C179.328 60.2521 178.201 59.8384 177.251 59.0111C176.302 58.1838 175.827 57.2013 175.827 56.0638V25.8148C175.827 24.5738 176.272 23.5655 177.162 22.7899ZM185.441 10.1473V11.7761C185.441 12.9654 184.966 13.9737 184.017 14.801C183.126 15.6283 181.999 16.042 180.634 16.042C179.328 16.042 178.201 15.6283 177.251 14.801C176.302 13.9737 175.827 12.9654 175.827 11.7761V10.1473C175.827 9.00976 176.302 8.02732 177.251 7.19999C178.201 6.37267 179.328 5.95901 180.634 5.95901C181.999 5.95901 183.126 6.37267 184.017 7.19999C184.966 7.97561 185.441 8.95805 185.441 10.1473Z" fill="black"/>
<path d="M195.353 57.615L195.085 56.917V56.374C195.026 56.3223 194.996 56.2448 194.996 56.1413V56.0638L195.085 55.5208V55.2106C195.204 55.1072 195.264 54.9779 195.264 54.8228C195.264 54.616 195.382 54.4091 195.62 54.2023C195.62 54.0989 195.709 53.9696 195.887 53.8145H195.976L216.004 29.6928H199.714C198.468 29.6928 197.37 29.305 196.421 28.5294C195.471 27.7021 194.996 26.7197 194.996 25.5821C194.996 24.4445 195.471 23.4879 196.421 22.7123C197.37 21.885 198.468 21.4713 199.714 21.4713H225.44L225.974 21.5489H226.419C226.597 21.5489 226.716 21.5747 226.775 21.6264C226.894 21.6782 227.072 21.7299 227.309 21.7816C227.428 21.9367 227.517 22.0142 227.576 22.0142L228.199 22.3245C228.318 22.3245 228.377 22.3762 228.377 22.4796L228.822 22.8674C228.941 22.8674 229.06 22.9967 229.179 23.2552C229.357 23.4621 229.505 23.5655 229.624 23.5655C229.802 24.0309 229.891 24.3411 229.891 24.4962C229.891 24.5996 229.95 24.7031 230.069 24.8065V25.2718L230.158 25.5821V25.6596L230.069 26.0475C230.069 26.4094 230.009 26.6938 229.891 26.9006C229.891 27.1075 229.802 27.2367 229.624 27.2884V27.5211L229.179 27.9089V27.9865L209.061 52.0306H225.44C226.686 52.0306 227.784 52.4442 228.733 53.2716C229.683 54.0472 230.158 55.0038 230.158 56.1413C230.158 57.2789 229.683 58.2614 228.733 59.0887C227.784 59.8643 226.686 60.2521 225.44 60.2521H199.714C199.358 60.2521 199.062 60.2263 198.824 60.1745H198.557C198.32 60.0711 198.142 60.0194 198.023 60.0194L197.311 59.7092C197.133 59.554 197.044 59.4506 197.044 59.3989C196.806 59.3989 196.51 59.218 196.154 58.856C195.798 58.4423 195.62 58.1579 195.62 58.0028C195.442 57.9511 195.353 57.8218 195.353 57.615Z" fill="black"/>
<path d="M239.463 57.615L239.196 56.917V56.374C239.137 56.3223 239.107 56.2448 239.107 56.1413V56.0638L239.196 55.5208V55.2106C239.315 55.1072 239.374 54.9779 239.374 54.8228C239.374 54.616 239.493 54.4091 239.73 54.2023C239.73 54.0989 239.819 53.9696 239.997 53.8145H240.086L260.115 29.6928H243.825C242.578 29.6928 241.481 29.305 240.531 28.5294C239.582 27.7021 239.107 26.7197 239.107 25.5821C239.107 24.4445 239.582 23.4879 240.531 22.7123C241.481 21.885 242.578 21.4713 243.825 21.4713H269.55L270.084 21.5489H270.529C270.707 21.5489 270.826 21.5747 270.885 21.6264C271.004 21.6782 271.182 21.7299 271.42 21.7816C271.538 21.9367 271.627 22.0142 271.687 22.0142L272.31 22.3245C272.428 22.3245 272.488 22.3762 272.488 22.4796L272.933 22.8674C273.052 22.8674 273.17 22.9967 273.289 23.2552C273.467 23.4621 273.615 23.5655 273.734 23.5655C273.912 24.0309 274.001 24.3411 274.001 24.4962C274.001 24.5996 274.06 24.7031 274.179 24.8065V25.2718L274.268 25.5821V25.6596L274.179 26.0475C274.179 26.4094 274.12 26.6938 274.001 26.9006C274.001 27.1075 273.912 27.2367 273.734 27.2884V27.5211L273.289 27.9089V27.9865L253.171 52.0306H269.55C270.796 52.0306 271.894 52.4442 272.844 53.2716C273.793 54.0472 274.268 55.0038 274.268 56.1413C274.268 57.2789 273.793 58.2614 272.844 59.0887C271.894 59.8643 270.796 60.2521 269.55 60.2521H243.825C243.469 60.2521 243.172 60.2263 242.935 60.1745H242.668C242.43 60.0711 242.252 60.0194 242.133 60.0194L241.421 59.7092C241.243 59.554 241.154 59.4506 241.154 59.3989C240.917 59.3989 240.62 59.218 240.264 58.856C239.908 58.4423 239.73 58.1579 239.73 58.0028C239.552 57.9511 239.463 57.8218 239.463 57.615Z" fill="black"/>
<path d="M300.975 60.2521C294.981 60.2521 289.937 58.3648 285.842 54.5901C281.807 50.8154 279.789 46.2652 279.789 40.9393C279.789 35.5617 281.807 30.9855 285.842 27.2109C289.937 23.3845 294.981 21.4713 300.975 21.4713C305.188 21.4713 309.134 22.6089 312.814 24.884C313.11 23.9016 313.674 23.1001 314.505 22.4796C315.336 21.8074 316.345 21.4713 317.532 21.4713C318.778 21.4713 319.846 21.885 320.736 22.7123C321.686 23.5396 322.16 24.5221 322.16 25.6596V56.1413C322.16 57.2789 321.686 58.2614 320.736 59.0887C319.846 59.8643 318.778 60.2521 317.532 60.2521C316.345 60.2521 315.336 59.9419 314.505 59.3214C313.674 58.7009 313.11 57.8994 312.814 56.917C309.194 59.1404 305.247 60.2521 300.975 60.2521ZM289.314 40.9393C289.314 44.0417 290.382 46.653 292.518 48.773C294.714 50.893 297.503 51.953 300.886 51.953C304.328 51.953 307.146 50.893 309.342 48.773C311.597 46.653 312.725 44.0417 312.725 40.9393C312.725 37.8368 311.597 35.1997 309.342 33.028C307.087 30.8563 304.268 29.7704 300.886 29.7704C297.562 29.7704 294.803 30.8563 292.607 33.028C290.411 35.148 289.314 37.7851 289.314 40.9393Z" fill="black"/>
<path d="M334.079 55.9862V10.2249C334.079 9.03561 334.554 8.02732 335.503 7.19999C336.453 6.37267 337.61 5.95901 338.975 5.95901H349.479C358.083 5.95901 365.412 8.62195 371.465 13.9479C377.518 19.222 380.545 25.6079 380.545 33.1056C380.545 40.6032 377.518 47.0149 371.465 52.3408C365.412 57.615 358.083 60.2521 349.479 60.2521H338.975C337.61 60.2521 336.453 59.8384 335.503 59.0111C334.554 58.1838 334.079 57.1755 334.079 55.9862ZM343.96 14.5683V51.6428H349.479C355.354 51.5911 360.338 49.7813 364.433 46.2135C368.587 42.5939 370.664 38.2246 370.664 33.1056C370.664 27.9865 368.587 23.6172 364.433 19.9976C360.338 16.3781 355.354 14.5683 349.479 14.5683H343.96Z" fill="black"/>
<path d="M425.303 57.5374L420.941 47.4544H399.311L394.949 57.5374C394.118 59.3472 392.664 60.2521 390.587 60.2521C388.569 60.2521 387.115 59.6316 386.225 58.3906C385.335 57.0979 385.157 55.7794 385.691 54.435L405.364 8.75122C405.779 7.9239 406.402 7.2517 407.233 6.73462C408.123 6.21754 409.073 5.98486 410.081 6.03657C412.336 5.93315 413.909 6.83804 414.799 8.75122L434.472 54.435C435.006 55.7794 434.828 57.0979 433.938 58.3906C433.047 59.6316 431.564 60.2521 429.487 60.2521C427.469 60.2521 426.075 59.3472 425.303 57.5374ZM402.871 38.9227H410.081H417.292L410.081 22.2469L402.871 38.9227Z" fill="black"/>
<path d="M447.926 52.0305C442.051 46.5495 439.113 39.9826 439.113 32.3299C439.113 24.6771 442.051 18.1103 447.926 12.6292C453.86 7.14822 461.07 4.40771 469.557 4.40771C478.043 4.40771 485.223 7.19993 491.098 12.7844C497.033 18.3171 500 24.8581 500 32.4074C500 39.9568 497.003 46.4719 491.009 51.9529C488.339 54.5383 485.134 56.5808 481.396 58.0803C477.657 59.5281 473.77 60.252 469.735 60.252C461.13 60.252 453.86 57.5115 447.926 52.0305ZM449.261 32.3299C449.261 37.5524 451.249 42.0509 455.225 45.8256C459.201 49.5485 463.978 51.41 469.557 51.41C475.194 51.41 479.971 49.5227 483.888 45.748C487.864 41.9217 489.852 37.4489 489.852 32.3299C489.852 27.2108 487.894 22.764 483.977 18.9893C480.06 15.1629 475.254 13.2497 469.557 13.2497C463.919 13.2497 459.112 15.1371 455.136 18.9117C451.219 22.6347 449.261 27.1074 449.261 32.3299Z" fill="black"/>
<path d="M161.142 10.8454L160.288 11.8255L161.142 10.8454ZM161.142 34.3465L161.988 35.3334L161.996 35.3267L161.142 34.3465ZM136.662 39.1554V37.8554C135.944 37.8554 135.362 38.4374 135.362 39.1554H136.662ZM135.149 59.0111L134.325 58.0059C134.315 58.0141 134.305 58.0225 134.295 58.031L135.149 59.0111ZM128.206 7.19999L129.06 8.18013L129.06 8.18013L128.206 7.19999ZM136.662 14.5683V13.2683C135.944 13.2683 135.362 13.8504 135.362 14.5683H136.662ZM136.662 30.546H135.362C135.362 31.264 135.944 31.846 136.662 31.846V30.546ZM156.869 22.6347L158.168 22.6703C158.169 22.6471 158.169 22.624 158.168 22.6008L156.869 22.6347ZM154.109 16.8952L153.255 17.8753L153.255 17.8753L154.109 16.8952ZM177.162 22.7899L178.016 23.77V23.77L177.162 22.7899ZM184.017 22.7899L183.132 23.7421C183.152 23.761 183.173 23.7791 183.194 23.7967L184.017 22.7899ZM184.017 59.0887L183.163 58.1086L184.017 59.0887ZM177.251 59.0111L178.105 58.031H178.105L177.251 59.0111ZM184.017 14.801L183.163 13.8209C183.152 13.83 183.142 13.8393 183.132 13.8488L184.017 14.801ZM177.251 14.801L176.397 15.7812V15.7812L177.251 14.801ZM177.251 7.19999L178.105 8.18013L178.105 8.18013L177.251 7.19999ZM184.017 7.19999L183.132 8.15223C183.152 8.17107 183.173 8.18927 183.194 8.20679L184.017 7.19999ZM195.353 57.615H196.653C196.653 57.4562 196.623 57.2988 196.567 57.1505L195.353 57.615ZM195.085 56.917H193.785C193.785 57.0757 193.815 57.2332 193.871 57.3815L195.085 56.917ZM195.085 56.374H196.385C196.385 55.9982 196.223 55.6408 195.939 55.3939L195.085 56.374ZM194.996 56.0638L193.714 55.8535C193.702 55.923 193.696 55.9933 193.696 56.0638H194.996ZM195.085 55.5208L196.368 55.7312C196.38 55.6616 196.385 55.5913 196.385 55.5208H195.085ZM195.085 55.2106L194.231 54.2305C193.948 54.4773 193.785 54.8348 193.785 55.2106H195.085ZM195.62 54.2023L196.474 55.1824C196.757 54.9355 196.92 54.5781 196.92 54.2023H195.62ZM195.887 53.8145V52.5145C195.573 52.5145 195.269 52.6281 195.033 52.8344L195.887 53.8145ZM195.976 53.8145V55.1145C196.362 55.1145 196.729 54.9424 196.976 54.645L195.976 53.8145ZM216.004 29.6928L217.004 30.5233C217.326 30.1355 217.395 29.5966 217.181 29.1404C216.967 28.6842 216.508 28.3928 216.004 28.3928V29.6928ZM196.421 28.5294L195.567 29.5096C195.577 29.5186 195.588 29.5275 195.598 29.5362L196.421 28.5294ZM196.421 22.7123L197.243 23.7191C197.254 23.7104 197.264 23.7015 197.275 23.6924L196.421 22.7123ZM225.44 21.4713L225.627 20.1848C225.565 20.1758 225.502 20.1713 225.44 20.1713V21.4713ZM225.974 21.5489L225.787 22.8354C225.849 22.8444 225.911 22.8489 225.974 22.8489V21.5489ZM226.775 21.6264L225.921 22.6066C226.021 22.6938 226.134 22.7652 226.256 22.8182L226.775 21.6264ZM227.309 21.7816L228.342 20.9916C228.155 20.7471 227.887 20.5769 227.586 20.5114L227.309 21.7816ZM227.576 22.0142L228.156 20.8505C227.976 20.7609 227.777 20.7142 227.576 20.7142V22.0142ZM228.199 22.3245L227.62 23.4882C227.8 23.5779 227.998 23.6245 228.199 23.6245V22.3245ZM228.377 22.4796H227.077C227.077 22.8554 227.24 23.2128 227.523 23.4597L228.377 22.4796ZM228.822 22.8674L227.968 23.8475C228.205 24.0538 228.508 24.1674 228.822 24.1674V22.8674ZM229.179 23.2552L227.997 23.7976C228.048 23.9082 228.114 24.0111 228.193 24.1033L229.179 23.2552ZM229.624 23.5655L230.838 23.101C230.645 22.5978 230.162 22.2655 229.624 22.2655V23.5655ZM230.069 24.8065H231.369C231.369 24.4306 231.206 24.0732 230.923 23.8263L230.069 24.8065ZM230.069 25.2718H228.769C228.769 25.3931 228.786 25.5137 228.819 25.6303L230.069 25.2718ZM230.158 25.5821H231.458C231.458 25.4608 231.441 25.3402 231.407 25.2236L230.158 25.5821ZM230.158 25.6596L231.425 25.9504C231.447 25.855 231.458 25.7575 231.458 25.6596H230.158ZM230.069 26.0475L228.802 25.7567C228.78 25.8521 228.769 25.9496 228.769 26.0475H230.069ZM229.891 26.9006L228.763 26.2536C228.65 26.4505 228.591 26.6736 228.591 26.9006H229.891ZM229.624 27.2884L229.261 26.04C228.706 26.2013 228.324 26.7101 228.324 27.2884H229.624ZM229.624 27.5211L230.478 28.5012C230.761 28.2543 230.924 27.8969 230.924 27.5211H229.624ZM229.179 27.9089L228.324 26.9288C228.041 27.1757 227.879 27.5331 227.879 27.9089H229.179ZM229.179 27.9865L230.176 28.8207C230.371 28.5868 230.479 28.2915 230.479 27.9865H229.179ZM209.061 52.0306L208.064 51.1964C207.74 51.5836 207.669 52.1234 207.883 52.5808C208.097 53.0382 208.556 53.3306 209.061 53.3306V52.0306ZM228.733 53.2716L227.879 54.2517C227.89 54.2607 227.9 54.2696 227.911 54.2784L228.733 53.2716ZM228.733 59.0887L229.556 60.0955C229.567 60.0868 229.577 60.0779 229.587 60.0688L228.733 59.0887ZM198.824 60.1745L199.101 58.9043C199.01 58.8845 198.917 58.8745 198.824 58.8745V60.1745ZM198.557 60.1745L198.038 61.3664C198.202 61.4377 198.378 61.4745 198.557 61.4745V60.1745ZM198.023 60.0194L197.504 61.2112C197.668 61.2826 197.844 61.3194 198.023 61.3194V60.0194ZM197.311 59.7092L196.457 60.6893C196.557 60.7765 196.67 60.8479 196.792 60.901L197.311 59.7092ZM197.044 59.3989H198.344C198.344 58.681 197.762 58.0989 197.044 58.0989V59.3989ZM196.154 58.856L195.168 59.7041C195.187 59.7259 195.207 59.7471 195.227 59.7677L196.154 58.856ZM195.62 58.0028H196.92C196.92 57.4245 196.538 56.9157 195.982 56.7544L195.62 58.0028ZM239.463 57.615H240.763C240.763 57.4562 240.734 57.2988 240.677 57.1505L239.463 57.615ZM239.196 56.917H237.896C237.896 57.0757 237.925 57.2331 237.982 57.3814L239.196 56.917ZM239.196 56.374H240.496C240.496 55.9982 240.333 55.6408 240.05 55.3939L239.196 56.374ZM239.107 56.0638L237.824 55.8534C237.813 55.9229 237.807 55.9933 237.807 56.0638H239.107ZM239.196 55.5208L240.479 55.7312C240.49 55.6617 240.496 55.5913 240.496 55.5208H239.196ZM239.196 55.2106L238.342 54.2305C238.059 54.4773 237.896 54.8348 237.896 55.2106H239.196ZM239.73 54.2023L240.584 55.1824C240.867 54.9355 241.03 54.5781 241.03 54.2023H239.73ZM239.997 53.8145V52.5145C239.683 52.5145 239.38 52.6281 239.143 52.8344L239.997 53.8145ZM240.086 53.8145V55.1145C240.473 55.1145 240.839 54.9424 241.086 54.645L240.086 53.8145ZM260.115 29.6928L261.115 30.5233C261.437 30.1355 261.506 29.5966 261.291 29.1404C261.077 28.6842 260.619 28.3928 260.115 28.3928V29.6928ZM240.531 28.5294L239.677 29.5096C239.688 29.5186 239.698 29.5275 239.709 29.5362L240.531 28.5294ZM240.531 22.7123L241.354 23.7191C241.364 23.7104 241.375 23.7015 241.385 23.6924L240.531 22.7123ZM269.55 21.4713L269.737 20.1848C269.675 20.1758 269.613 20.1713 269.55 20.1713V21.4713ZM270.084 21.5489L269.898 22.8354C269.959 22.8444 270.022 22.8489 270.084 22.8489V21.5489ZM270.885 21.6264L270.031 22.6066C270.132 22.6938 270.244 22.7652 270.366 22.8182L270.885 21.6264ZM271.42 21.7816L272.452 20.9916C272.265 20.7471 271.997 20.5769 271.696 20.5114L271.42 21.7816ZM271.687 22.0142L272.266 20.8505C272.086 20.7609 271.888 20.7142 271.687 20.7142V22.0142ZM272.31 22.3245L271.73 23.4882C271.91 23.5779 272.109 23.6245 272.31 23.6245V22.3245ZM272.488 22.4796H271.188C271.188 22.8554 271.35 23.2129 271.634 23.4597L272.488 22.4796ZM272.933 22.8674L272.079 23.8476C272.316 24.0538 272.619 24.1674 272.933 24.1674V22.8674ZM273.289 23.2552L272.107 23.7976C272.158 23.9082 272.224 24.0111 272.304 24.1033L273.289 23.2552ZM273.734 23.5655L274.948 23.101C274.756 22.5978 274.273 22.2655 273.734 22.2655V23.5655ZM274.179 24.8065H275.479C275.479 24.4306 275.316 24.0732 275.033 23.8263L274.179 24.8065ZM274.179 25.2718H272.879C272.879 25.3931 272.896 25.5138 272.929 25.6303L274.179 25.2718ZM274.268 25.5821H275.568C275.568 25.4608 275.551 25.3402 275.518 25.2236L274.268 25.5821ZM274.268 25.6596L275.535 25.9504C275.557 25.8551 275.568 25.7575 275.568 25.6596H274.268ZM274.179 26.0475L272.912 25.7566C272.89 25.852 272.879 25.9496 272.879 26.0475H274.179ZM274.001 26.9006L272.873 26.2536C272.76 26.4505 272.701 26.6736 272.701 26.9006H274.001ZM273.734 27.2884L273.371 26.04C272.816 26.2013 272.434 26.7101 272.434 27.2884H273.734ZM273.734 27.5211L274.588 28.5012C274.871 28.2543 275.034 27.8969 275.034 27.5211H273.734ZM273.289 27.9089L272.435 26.9288C272.152 27.1757 271.989 27.5331 271.989 27.9089H273.289ZM273.289 27.9865L274.286 28.8207C274.482 28.5868 274.589 28.2915 274.589 27.9865H273.289ZM253.171 52.0306L252.174 51.1964C251.85 51.5836 251.78 52.1234 251.994 52.5808C252.207 53.0382 252.666 53.3306 253.171 53.3306V52.0306ZM272.844 53.2716L271.99 54.2517C272 54.2607 272.011 54.2696 272.021 54.2784L272.844 53.2716ZM272.844 59.0887L273.666 60.0955C273.677 60.0868 273.687 60.0779 273.698 60.0688L272.844 59.0887ZM242.935 60.1745L243.211 58.9043C243.12 58.8845 243.028 58.8745 242.935 58.8745V60.1745ZM242.668 60.1745L242.148 61.3664C242.312 61.4377 242.489 61.4745 242.668 61.4745V60.1745ZM242.133 60.0194L241.614 61.2112C241.778 61.2826 241.955 61.3194 242.133 61.3194V60.0194ZM241.421 59.7092L240.567 60.6893C240.667 60.7765 240.78 60.8479 240.902 60.901L241.421 59.7092ZM241.154 59.3989H242.454C242.454 58.681 241.872 58.0989 241.154 58.0989V59.3989ZM240.264 58.856L239.279 59.7041C239.298 59.7259 239.317 59.7471 239.337 59.7677L240.264 58.856ZM239.73 58.0028H241.03C241.03 57.4245 240.648 56.9157 240.093 56.7544L239.73 58.0028ZM285.842 54.5901L284.954 55.5395L284.961 55.5459L285.842 54.5901ZM285.842 27.2109L284.954 26.261L284.954 26.2615L285.842 27.2109ZM312.814 24.884L312.13 25.9897C312.474 26.2021 312.896 26.2428 313.274 26.0998C313.652 25.9569 313.941 25.6465 314.058 25.2599L312.814 24.884ZM314.505 22.4796L315.283 23.5212C315.296 23.5111 315.31 23.5008 315.323 23.4903L314.505 22.4796ZM320.736 22.7123L319.851 23.6645C319.861 23.674 319.872 23.6833 319.882 23.6924L320.736 22.7123ZM320.736 59.0887L319.882 58.1086L320.736 59.0887ZM314.505 59.3214L313.727 60.3629L314.505 59.3214ZM312.814 56.917L314.058 56.5411C313.942 56.1551 313.653 55.8451 313.276 55.7018C312.899 55.5585 312.477 55.5982 312.133 55.8092L312.814 56.917ZM292.518 48.773L291.602 49.6958C291.607 49.6999 291.611 49.7041 291.615 49.7082L292.518 48.773ZM309.342 48.773L308.452 47.8258C308.447 47.8298 308.443 47.8338 308.439 47.8378L309.342 48.773ZM309.342 33.028L308.44 33.9644L309.342 33.028ZM292.607 33.028L293.51 33.9632C293.514 33.9596 293.518 33.9559 293.521 33.9523L292.607 33.028ZM335.503 7.19999L336.357 8.18013V8.18013L335.503 7.19999ZM371.465 13.9479L370.607 14.9239L370.611 14.928L371.465 13.9479ZM371.465 52.3408L372.319 53.321L372.324 53.3168L371.465 52.3408ZM343.96 14.5683V13.2683C343.242 13.2683 342.66 13.8504 342.66 14.5683H343.96ZM343.96 51.6428H342.66C342.66 52.3607 343.242 52.9428 343.96 52.9428V51.6428ZM349.479 51.6428V52.9428L349.49 52.9427L349.479 51.6428ZM364.433 46.2135L363.579 45.2333L364.433 46.2135ZM364.433 19.9976L363.572 20.9717L363.579 20.9778L364.433 19.9976ZM425.303 57.5374L426.499 57.0277L426.496 57.0213L425.303 57.5374ZM420.941 47.4544L422.134 46.9383C421.929 46.4625 421.46 46.1544 420.941 46.1544V47.4544ZM399.311 47.4544V46.1544C398.792 46.1544 398.323 46.4625 398.117 46.9383L399.311 47.4544ZM394.949 57.5374L396.13 58.0798C396.134 58.0711 396.138 58.0624 396.142 58.0536L394.949 57.5374ZM386.225 58.3906L385.155 59.1279C385.159 59.1348 385.164 59.1416 385.169 59.1483L386.225 58.3906ZM385.691 54.435L384.497 53.9208C384.492 53.9322 384.488 53.9436 384.483 53.955L385.691 54.435ZM405.364 8.75122L404.202 8.16789C404.19 8.19062 404.18 8.21369 404.17 8.23706L405.364 8.75122ZM407.233 6.73462L406.58 5.61051C406.569 5.61714 406.557 5.62395 406.546 5.63092L407.233 6.73462ZM410.081 6.03657L410.015 7.33486C410.057 7.33702 410.099 7.33713 410.141 7.3352L410.081 6.03657ZM414.799 8.75122L415.993 8.23706C415.988 8.22557 415.983 8.21416 415.978 8.20282L414.799 8.75122ZM434.472 54.435L435.68 53.955C435.675 53.9436 435.671 53.9322 435.666 53.9208L434.472 54.435ZM433.938 58.3906L434.994 59.1483C434.999 59.1416 435.004 59.1348 435.008 59.1279L433.938 58.3906ZM402.871 38.9227L401.678 38.4067C401.504 38.8085 401.544 39.2707 401.785 39.6366C402.025 40.0024 402.433 40.2227 402.871 40.2227V38.9227ZM417.292 38.9227V40.2227C417.729 40.2227 418.138 40.0024 418.378 39.6366C418.618 39.2707 418.659 38.8085 418.485 38.4067L417.292 38.9227ZM410.081 22.2469L411.275 21.731C411.069 21.2551 410.6 20.9469 410.081 20.9469C409.563 20.9469 409.094 21.2551 408.888 21.731L410.081 22.2469ZM447.926 52.0305L447.039 52.9811L447.044 52.9855L447.926 52.0305ZM447.926 12.6292L447.044 11.6742L447.039 11.6787L447.926 12.6292ZM491.098 12.7844L490.203 13.7267L490.212 13.7352L491.098 12.7844ZM491.009 51.9529L490.132 50.9936C490.123 51.0019 490.114 51.0104 490.105 51.0189L491.009 51.9529ZM481.396 58.0803L481.865 59.2926C481.87 59.2907 481.875 59.2888 481.88 59.2869L481.396 58.0803ZM455.225 45.8256L454.33 46.7684L454.337 46.7745L455.225 45.8256ZM483.888 45.748L482.987 44.8113L482.986 44.812L483.888 45.748ZM483.977 18.9893L483.069 19.9192L483.075 19.9253L483.977 18.9893ZM455.136 18.9117L454.241 17.9689L454.24 17.9695L455.136 18.9117ZM147.611 7.25901C152.601 7.25901 156.802 8.78831 160.288 11.8255L161.996 9.86525C158.004 6.38729 153.185 4.65901 147.611 4.65901V7.25901ZM160.288 11.8255C163.768 14.8579 165.45 18.4403 165.45 22.6347H168.05C168.05 17.6252 165.993 13.3481 161.996 9.86525L160.288 11.8255ZM165.45 22.6347C165.45 26.7728 163.772 30.3307 160.288 33.3664L161.996 35.3267C165.989 31.8472 168.05 27.5973 168.05 22.6347H165.45ZM160.295 33.3597C156.81 36.3482 152.607 37.8554 147.611 37.8554V40.4554C153.179 40.4554 157.996 38.7566 161.988 35.3334L160.295 33.3597ZM147.611 37.8554H136.662V40.4554H147.611V37.8554ZM135.362 39.1554V55.9862H137.962V39.1554H135.362ZM135.362 55.9862C135.362 56.7451 135.066 57.3983 134.325 58.0059L135.973 60.0163C137.25 58.9693 137.962 57.6059 137.962 55.9862H135.362ZM134.295 58.031C133.603 58.6341 132.757 58.9521 131.677 58.9521V61.5521C133.328 61.5521 134.796 61.0428 136.003 59.9913L134.295 58.031ZM131.677 58.9521C130.598 58.9521 129.752 58.6341 129.06 58.031L127.352 59.9913C128.559 61.0428 130.027 61.5521 131.677 61.5521V58.9521ZM129.06 58.031C128.375 57.434 128.082 56.7752 128.082 55.9862H125.482C125.482 57.5758 126.138 58.9336 127.352 59.9913L129.06 58.031ZM128.082 55.9862V10.2249H125.482V55.9862H128.082ZM128.082 10.2249C128.082 9.43588 128.375 8.77709 129.06 8.18013L127.352 6.21986C126.138 7.27754 125.482 8.63535 125.482 10.2249H128.082ZM129.06 8.18013C129.752 7.577 130.598 7.25901 131.677 7.25901V4.65901C130.027 4.65901 128.559 5.16834 127.352 6.21986L129.06 8.18013ZM131.677 7.25901H147.611V4.65901H131.677V7.25901ZM135.362 14.5683V30.546H137.962V14.5683H135.362ZM136.662 31.846H147.611V29.246H136.662V31.846ZM147.611 31.846C150.45 31.846 152.927 30.9741 154.963 29.1993L153.255 27.239C151.732 28.5667 149.877 29.246 147.611 29.246V31.846ZM154.963 29.1993C156.991 27.4325 158.098 25.2391 158.168 22.6703L155.569 22.5992C155.521 24.3738 154.788 25.9034 153.255 27.239L154.963 29.1993ZM158.168 22.6008C158.099 19.9467 157.007 17.6953 154.963 15.9151L153.255 17.8753C154.773 19.1976 155.52 20.7726 155.569 22.6686L158.168 22.6008ZM154.963 15.9151C152.927 14.1403 150.45 13.2683 147.611 13.2683V15.8683C149.877 15.8683 151.732 16.5476 153.255 17.8753L154.963 15.9151ZM147.611 13.2683H136.662V15.8683H147.611V13.2683ZM178.016 23.77C178.709 23.1669 179.555 22.8489 180.634 22.8489V20.2489C178.984 20.2489 177.515 20.7582 176.308 21.8097L178.016 23.77ZM180.634 22.8489C181.714 22.8489 182.512 23.1664 183.132 23.7421L184.902 21.8376C183.741 20.7587 182.284 20.2489 180.634 20.2489V22.8489ZM183.194 23.7967C183.837 24.3219 184.141 24.9585 184.141 25.8148H186.741C186.741 24.189 186.095 22.8091 184.839 21.7831L183.194 23.7967ZM184.141 25.8148V56.0638H186.741V25.8148H184.141ZM184.141 56.0638C184.141 56.8528 183.848 57.5116 183.163 58.1086L184.871 60.0688C186.084 59.0111 186.741 57.6533 186.741 56.0638H184.141ZM183.163 58.1086C182.546 58.6462 181.737 58.9521 180.634 58.9521V61.5521C182.261 61.5521 183.707 61.0824 184.871 60.0688L183.163 58.1086ZM180.634 58.9521C179.63 58.9521 178.809 58.6439 178.105 58.031L176.397 59.9912C177.593 61.033 179.027 61.5521 180.634 61.5521V58.9521ZM178.105 58.031C177.405 57.4209 177.127 56.7826 177.127 56.0638H174.527C174.527 57.6201 175.199 58.9467 176.397 59.9913L178.105 58.031ZM177.127 56.0638V25.8148H174.527V56.0638H177.127ZM177.127 25.8148C177.127 24.9277 177.426 24.2847 178.016 23.77L176.308 21.8097C175.119 22.8462 174.527 24.2198 174.527 25.8148H177.127ZM184.141 10.1473V11.7761H186.741V10.1473H184.141ZM184.141 11.7761C184.141 12.5651 183.848 13.2239 183.163 13.8209L184.871 15.7812C186.084 14.7235 186.741 13.3657 186.741 11.7761H184.141ZM183.132 13.8488C182.512 14.4245 181.714 14.742 180.634 14.742V17.342C182.284 17.342 183.741 16.8322 184.902 15.7533L183.132 13.8488ZM180.634 14.742C179.63 14.742 178.809 14.4338 178.105 13.8209L176.397 15.7812C177.593 16.8229 179.027 17.342 180.634 17.342V14.742ZM178.105 13.8209C177.42 13.2239 177.127 12.5651 177.127 11.7761H174.527C174.527 13.3657 175.183 14.7235 176.397 15.7812L178.105 13.8209ZM177.127 11.7761V10.1473H174.527V11.7761H177.127ZM177.127 10.1473C177.127 9.42848 177.405 8.79022 178.105 8.18013L176.397 6.21986C175.199 7.26442 174.527 8.59104 174.527 10.1473H177.127ZM178.105 8.18013C178.809 7.56718 179.63 7.25901 180.634 7.25901V4.65901C179.027 4.65901 177.593 5.17816 176.397 6.21986L178.105 8.18013ZM180.634 7.25901C181.714 7.25901 182.512 7.57648 183.132 8.15223L184.902 6.24776C183.741 5.16886 182.284 4.65901 180.634 4.65901V7.25901ZM183.194 8.20679C183.852 8.74433 184.141 9.36207 184.141 10.1473H186.741C186.741 8.55404 186.08 7.20689 184.839 6.1932L183.194 8.20679ZM196.567 57.1505L196.3 56.4525L193.871 57.3815L194.138 58.0795L196.567 57.1505ZM196.385 56.917V56.374H193.785V56.917H196.385ZM195.939 55.3939C196.246 55.6609 196.296 55.9942 196.296 56.1413H193.696C193.696 56.4953 193.806 56.9837 194.231 57.3542L195.939 55.3939ZM196.296 56.1413V56.0638H193.696V56.1413H196.296ZM196.279 56.2741L196.368 55.7312L193.803 55.3105L193.714 55.8535L196.279 56.2741ZM196.385 55.5208V55.2106H193.785V55.5208H196.385ZM195.939 56.1907C196.337 55.8446 196.564 55.3601 196.564 54.8228H193.964C193.964 54.7303 193.982 54.6141 194.038 54.4937C194.093 54.3737 194.167 54.2868 194.231 54.2305L195.939 56.1907ZM196.564 54.8228C196.564 54.9792 196.516 55.0966 196.48 55.1596C196.449 55.2146 196.431 55.2194 196.474 55.1824L194.766 53.2222C194.393 53.5464 193.964 54.08 193.964 54.8228H196.564ZM196.92 54.2023C196.92 54.5179 196.789 54.7181 196.757 54.7651C196.717 54.823 196.697 54.8327 196.741 54.7946L195.033 52.8344C194.898 52.9514 194.745 53.1033 194.616 53.2905C194.494 53.4668 194.32 53.7833 194.32 54.2023H196.92ZM195.887 55.1145H195.976V52.5145H195.887V55.1145ZM196.976 54.645L217.004 30.5233L215.004 28.8624L194.975 52.984L196.976 54.645ZM216.004 28.3928H199.714V30.9928H216.004V28.3928ZM199.714 28.3928C198.762 28.3928 197.956 28.1052 197.243 27.5226L195.598 29.5362C196.784 30.5048 198.174 30.9928 199.714 30.9928V28.3928ZM197.275 27.5493C196.575 26.9392 196.296 26.3009 196.296 25.5821H193.696C193.696 27.1384 194.368 28.465 195.567 29.5096L197.275 27.5493ZM196.296 25.5821C196.296 24.8682 196.569 24.2698 197.243 23.7191L195.598 21.7055C194.373 22.7061 193.696 24.0208 193.696 25.5821H196.296ZM197.275 23.6924C197.99 23.069 198.786 22.7713 199.714 22.7713V20.1713C198.151 20.1713 196.75 20.701 195.567 21.7322L197.275 23.6924ZM199.714 22.7713H225.44V20.1713H199.714V22.7713ZM225.253 22.7578L225.787 22.8354L226.161 20.2624L225.627 20.1848L225.253 22.7578ZM225.974 22.8489H226.419V20.2489H225.974V22.8489ZM226.419 22.8489C226.454 22.8489 226.428 22.8522 226.365 22.8385C226.316 22.8279 226.122 22.7819 225.921 22.6066L227.629 20.6463C227.369 20.4193 227.086 20.3345 226.918 20.2981C226.737 20.2585 226.562 20.2489 226.419 20.2489V22.8489ZM226.256 22.8182C226.493 22.9217 226.771 22.9948 227.032 23.0518L227.586 20.5114C227.488 20.49 227.414 20.4711 227.36 20.4556C227.304 20.4392 227.286 20.4311 227.294 20.4346L226.256 22.8182ZM226.277 22.5715C226.359 22.6797 226.472 22.8153 226.611 22.9362C226.692 23.007 227.042 23.3142 227.576 23.3142V20.7142C227.839 20.7142 228.033 20.7977 228.128 20.8476C228.229 20.9001 228.293 20.9534 228.319 20.9759C228.369 21.0193 228.378 21.0386 228.342 20.9916L226.277 22.5715ZM226.997 23.178L227.62 23.4882L228.779 21.1608L228.156 20.8505L226.997 23.178ZM228.199 23.6245C228.099 23.6245 227.781 23.6065 227.479 23.3434C227.143 23.0505 227.077 22.6785 227.077 22.4796H229.677C229.677 22.1773 229.582 21.7277 229.187 21.3831C228.826 21.0684 228.418 21.0245 228.199 21.0245V23.6245ZM227.523 23.4597L227.968 23.8475L229.676 21.8873L229.231 21.4995L227.523 23.4597ZM228.822 24.1674C228.373 24.1674 228.111 23.9179 228.043 23.8436C227.972 23.7659 227.964 23.7251 227.997 23.7976L230.36 22.7129C230.275 22.5268 230.148 22.2922 229.958 22.0851C229.771 21.8816 229.39 21.5674 228.822 21.5674V24.1674ZM228.193 24.1033C228.321 24.252 228.483 24.4173 228.68 24.5544C228.865 24.6835 229.192 24.8655 229.624 24.8655V22.2655C229.936 22.2655 230.13 22.3957 230.167 22.4215C230.215 22.4551 230.214 22.4653 230.164 22.4072L228.193 24.1033ZM228.409 24.03C228.491 24.2444 228.544 24.4001 228.574 24.5057C228.589 24.5581 228.595 24.5863 228.597 24.595C228.6 24.61 228.591 24.5702 228.591 24.4962H231.191C231.191 24.2262 231.123 23.9629 231.073 23.7886C231.015 23.584 230.934 23.352 230.838 23.101L228.409 24.03ZM228.591 24.4962C228.591 25.1357 228.961 25.5659 229.215 25.7866L230.923 23.8263C230.939 23.8402 231.191 24.0635 231.191 24.4962H228.591ZM228.769 24.8065V25.2718H231.369V24.8065H228.769ZM228.819 25.6303L228.908 25.9405L231.407 25.2236L231.318 24.9134L228.819 25.6303ZM228.858 25.5821V25.6596H231.458V25.5821H228.858ZM228.891 25.3689L228.802 25.7567L231.336 26.3382L231.425 25.9504L228.891 25.3689ZM228.769 26.0475C228.769 26.1599 228.759 26.23 228.752 26.2666C228.744 26.303 228.741 26.2915 228.763 26.2536L231.018 27.5477C231.294 27.0675 231.369 26.5282 231.369 26.0475H228.769ZM228.591 26.9006C228.591 26.8233 228.607 26.6269 228.753 26.4154C228.908 26.1901 229.117 26.082 229.261 26.04L229.986 28.5368C230.309 28.4432 230.65 28.2446 230.895 27.89C231.129 27.5492 231.191 27.1848 231.191 26.9006H228.591ZM228.324 27.2884V27.5211H230.924V27.2884H228.324ZM228.77 26.541L228.324 26.9288L230.033 28.889L230.478 28.5012L228.77 26.541ZM227.879 27.9089V27.9865H230.479V27.9089H227.879ZM228.181 27.1523L208.064 51.1964L210.058 52.8648L230.176 28.8207L228.181 27.1523ZM209.061 53.3306H225.44V50.7306H209.061V53.3306ZM225.44 53.3306C226.368 53.3306 227.164 53.6282 227.879 54.2517L229.587 52.2914C228.404 51.2603 227.004 50.7306 225.44 50.7306V53.3306ZM227.911 54.2784C228.585 54.829 228.858 55.4274 228.858 56.1413H231.458C231.458 54.5801 230.781 53.2653 229.556 52.2648L227.911 54.2784ZM228.858 56.1413C228.858 56.8602 228.58 57.4985 227.879 58.1086L229.587 60.0688C230.786 59.0243 231.458 57.6976 231.458 56.1413H228.858ZM227.911 58.0819C227.198 58.6645 226.392 58.9521 225.44 58.9521V61.5521C226.98 61.5521 228.37 61.0641 229.556 60.0955L227.911 58.0819ZM225.44 58.9521H199.714V61.5521H225.44V58.9521ZM199.714 58.9521C199.412 58.9521 199.216 58.9294 199.101 58.9043L198.547 61.4448C198.907 61.5231 199.304 61.5521 199.714 61.5521V58.9521ZM198.824 58.8745H198.557V61.4745H198.824V58.8745ZM199.076 58.9827C198.824 58.8726 198.432 58.7194 198.023 58.7194V61.3194C197.991 61.3194 197.965 61.3177 197.945 61.3158C197.925 61.3139 197.91 61.3116 197.9 61.3098C197.881 61.3065 197.874 61.3041 197.883 61.3066C197.891 61.309 197.908 61.3144 197.935 61.3245C197.962 61.3346 197.996 61.3483 198.038 61.3664L199.076 58.9827ZM198.542 58.8276L197.83 58.5174L196.792 60.901L197.504 61.2112L198.542 58.8276ZM198.165 58.729C198.094 58.6674 198.081 58.6499 198.096 58.6672C198.102 58.6748 198.143 58.7216 198.188 58.8004C198.212 58.8415 198.247 58.9085 198.277 58.9975C198.307 59.0844 198.344 59.2234 198.344 59.3989H195.744C195.744 59.7493 195.881 60.0034 195.933 60.0944C196 60.212 196.074 60.304 196.125 60.3634C196.229 60.4841 196.35 60.5958 196.457 60.6893L198.165 58.729ZM197.044 58.0989C197.15 58.0989 197.229 58.1192 197.272 58.1338C197.314 58.148 197.331 58.1597 197.32 58.1533C197.31 58.1474 197.284 58.1299 197.241 58.0941C197.198 58.0586 197.145 58.0097 197.08 57.9443L195.227 59.7677C195.449 59.9932 195.696 60.2079 195.966 60.373C196.23 60.5337 196.6 60.6989 197.044 60.6989V58.0989ZM197.139 58.0079C197.063 57.9191 197.001 57.8434 196.952 57.78C196.903 57.7158 196.873 57.6707 196.855 57.6427C196.836 57.6116 196.843 57.618 196.858 57.6553C196.866 57.6755 196.88 57.7135 196.893 57.7667C196.905 57.8191 196.92 57.9002 196.92 58.0028H194.32C194.32 58.479 194.552 58.8632 194.651 59.0223C194.79 59.2436 194.971 59.4742 195.168 59.7041L197.139 58.0079ZM195.982 56.7544C196.127 56.7963 196.335 56.9045 196.49 57.1298C196.636 57.3413 196.653 57.5377 196.653 57.615H194.053C194.053 57.8991 194.114 58.2635 194.349 58.6044C194.593 58.959 194.935 59.1576 195.257 59.2512L195.982 56.7544ZM240.677 57.1505L240.41 56.4525L237.982 57.3814L238.249 58.0795L240.677 57.1505ZM240.496 56.917V56.374H237.896V56.917H240.496ZM240.05 55.3939C240.356 55.6608 240.407 55.9939 240.407 56.1413H237.807C237.807 56.4956 237.917 56.9838 238.342 57.3542L240.05 55.3939ZM240.407 56.1413V56.0638H237.807V56.1413H240.407ZM240.39 56.2742L240.479 55.7312L237.913 55.3105L237.824 55.8534L240.39 56.2742ZM240.496 55.5208V55.2106H237.896V55.5208H240.496ZM240.05 56.1907C240.447 55.8446 240.674 55.36 240.674 54.8228H238.074C238.074 54.7303 238.093 54.6142 238.148 54.4938C238.203 54.3738 238.277 54.2868 238.342 54.2305L240.05 56.1907ZM240.674 54.8228C240.674 54.9792 240.627 55.0966 240.59 55.1596C240.559 55.2146 240.542 55.2194 240.584 55.1824L238.876 53.2222C238.504 53.5464 238.074 54.08 238.074 54.8228H240.674ZM241.03 54.2023C241.03 54.5179 240.9 54.7181 240.867 54.7651C240.828 54.823 240.807 54.8327 240.851 54.7946L239.143 52.8344C239.009 52.9514 238.855 53.1033 238.726 53.2905C238.605 53.4667 238.43 53.7833 238.43 54.2023H241.03ZM239.997 55.1145H240.086V52.5145H239.997V55.1145ZM241.086 54.645L261.115 30.5233L259.114 28.8624L239.086 52.984L241.086 54.645ZM260.115 28.3928H243.825V30.9928H260.115V28.3928ZM243.825 28.3928C242.873 28.3928 242.067 28.1052 241.354 27.5226L239.709 29.5362C240.894 30.5048 242.284 30.9928 243.825 30.9928V28.3928ZM241.385 27.5493C240.685 26.9392 240.407 26.3009 240.407 25.5821H237.807C237.807 27.1384 238.478 28.465 239.677 29.5096L241.385 27.5493ZM240.407 25.5821C240.407 24.8682 240.679 24.2698 241.354 23.7191L239.709 21.7055C238.484 22.7061 237.807 24.0208 237.807 25.5821H240.407ZM241.385 23.6924C242.101 23.069 242.896 22.7713 243.825 22.7713V20.1713C242.261 20.1713 240.861 20.701 239.677 21.7322L241.385 23.6924ZM243.825 22.7713H269.55V20.1713H243.825V22.7713ZM269.363 22.7578L269.898 22.8354L270.271 20.2624L269.737 20.1848L269.363 22.7578ZM270.084 22.8489H270.529V20.2489H270.084V22.8489ZM270.529 22.8489C270.564 22.8489 270.538 22.8522 270.475 22.8385C270.427 22.8279 270.233 22.7819 270.031 22.6066L271.739 20.6463C271.479 20.4193 271.196 20.3345 271.029 20.2981C270.847 20.2585 270.673 20.2489 270.529 20.2489V22.8489ZM270.366 22.8182C270.604 22.9217 270.881 22.9948 271.143 23.0518L271.696 20.5114C271.598 20.49 271.524 20.4711 271.471 20.4556C271.414 20.4392 271.397 20.4311 271.405 20.4346L270.366 22.8182ZM270.387 22.5715C270.47 22.6797 270.583 22.8153 270.721 22.9362C270.803 23.007 271.153 23.3142 271.687 23.3142V20.7142C271.95 20.7142 272.143 20.7977 272.239 20.8476C272.339 20.9001 272.403 20.9534 272.429 20.9759C272.479 21.0193 272.488 21.0386 272.452 20.9916L270.387 22.5715ZM271.107 23.178L271.73 23.4882L272.889 21.1608L272.266 20.8505L271.107 23.178ZM272.31 23.6245C272.209 23.6245 271.891 23.6065 271.589 23.3434C271.253 23.0505 271.188 22.6784 271.188 22.4796H273.788C273.788 22.1774 273.693 21.7278 273.297 21.3832C272.936 21.0684 272.529 21.0245 272.31 21.0245V23.6245ZM271.634 23.4597L272.079 23.8476L273.787 21.8873L273.342 21.4995L271.634 23.4597ZM272.933 24.1674C272.484 24.1674 272.221 23.9178 272.153 23.8436C272.082 23.7658 272.074 23.7251 272.107 23.7976L274.47 22.7129C274.385 22.5268 274.259 22.2922 274.068 22.0852C273.882 21.8816 273.501 21.5674 272.933 21.5674V24.1674ZM272.304 24.1033C272.432 24.252 272.594 24.4173 272.79 24.5544C272.976 24.6835 273.303 24.8655 273.734 24.8655V22.2655C274.046 22.2655 274.24 22.3957 274.277 22.4215C274.325 22.4551 274.324 22.4653 274.274 22.4072L272.304 24.1033ZM272.52 24.03C272.602 24.2444 272.654 24.4001 272.685 24.5058C272.7 24.5581 272.706 24.5863 272.707 24.5951C272.71 24.6101 272.701 24.5702 272.701 24.4962H275.301C275.301 24.2262 275.234 23.9629 275.184 23.7886C275.125 23.584 275.044 23.352 274.948 23.101L272.52 24.03ZM272.701 24.4962C272.701 25.1357 273.072 25.5658 273.325 25.7866L275.033 23.8263C275.049 23.8403 275.301 24.0636 275.301 24.4962H272.701ZM272.879 24.8065V25.2718H275.479V24.8065H272.879ZM272.929 25.6303L273.018 25.9406L275.518 25.2236L275.429 24.9133L272.929 25.6303ZM272.968 25.5821V25.6596H275.568V25.5821H272.968ZM273.001 25.3688L272.912 25.7566L275.446 26.3383L275.535 25.9504L273.001 25.3688ZM272.879 26.0475C272.879 26.16 272.87 26.23 272.862 26.2666C272.854 26.303 272.852 26.2915 272.873 26.2536L275.129 27.5477C275.404 27.0675 275.479 26.5282 275.479 26.0475H272.879ZM272.701 26.9006C272.701 26.8233 272.718 26.6269 272.864 26.4154C273.019 26.1901 273.227 26.082 273.371 26.04L274.097 28.5368C274.419 28.4432 274.761 28.2446 275.005 27.89C275.24 27.5492 275.301 27.1848 275.301 26.9006H272.701ZM272.434 27.2884V27.5211H275.034V27.2884H272.434ZM272.88 26.541L272.435 26.9288L274.143 28.889L274.588 28.5012L272.88 26.541ZM271.989 27.9089V27.9865H274.589V27.9089H271.989ZM272.292 27.1523L252.174 51.1964L254.168 52.8648L274.286 28.8207L272.292 27.1523ZM253.171 53.3306H269.55V50.7306H253.171V53.3306ZM269.55 53.3306C270.479 53.3306 271.274 53.6282 271.99 54.2517L273.698 52.2914C272.514 51.2603 271.114 50.7306 269.55 50.7306V53.3306ZM272.021 54.2784C272.696 54.829 272.968 55.4274 272.968 56.1413H275.568C275.568 54.5801 274.891 53.2653 273.666 52.2648L272.021 54.2784ZM272.968 56.1413C272.968 56.8602 272.69 57.4985 271.99 58.1086L273.698 60.0688C274.897 59.0243 275.568 57.6976 275.568 56.1413H272.968ZM272.021 58.0819C271.308 58.6645 270.502 58.9521 269.55 58.9521V61.5521C271.091 61.5521 272.48 61.0641 273.666 60.0955L272.021 58.0819ZM269.55 58.9521H243.825V61.5521H269.55V58.9521ZM243.825 58.9521C243.523 58.9521 243.326 58.9294 243.211 58.9043L242.658 61.4448C243.018 61.5231 243.414 61.5521 243.825 61.5521V58.9521ZM242.935 58.8745H242.668V61.4745H242.935V58.8745ZM243.187 58.9827C242.934 58.8726 242.542 58.7194 242.133 58.7194V61.3194C242.101 61.3194 242.075 61.3177 242.055 61.3158C242.036 61.3139 242.02 61.3116 242.01 61.3098C241.991 61.3065 241.985 61.3041 241.993 61.3066C242.001 61.309 242.019 61.3144 242.046 61.3245C242.073 61.3346 242.107 61.3483 242.148 61.3664L243.187 58.9827ZM242.653 58.8276L241.941 58.5174L240.902 60.901L241.614 61.2112L242.653 58.8276ZM242.275 58.729C242.205 58.6674 242.191 58.6499 242.206 58.6671C242.213 58.6748 242.253 58.7215 242.298 58.8003C242.322 58.8414 242.357 58.9084 242.388 58.9975C242.417 59.0844 242.454 59.2234 242.454 59.3989H239.854C239.854 59.7494 239.991 60.0035 240.043 60.0945C240.111 60.212 240.185 60.304 240.236 60.3634C240.34 60.4841 240.46 60.5958 240.567 60.6893L242.275 58.729ZM241.154 58.0989C241.261 58.0989 241.339 58.1192 241.382 58.1338C241.424 58.148 241.441 58.1597 241.431 58.1534C241.421 58.1474 241.394 58.1299 241.351 58.0941C241.309 58.0586 241.255 58.0097 241.191 57.9443L239.337 59.7677C239.559 59.9932 239.806 60.2079 240.077 60.373C240.34 60.5337 240.711 60.6989 241.154 60.6989V58.0989ZM241.249 58.0079C241.173 57.9191 241.111 57.8434 241.063 57.78C241.014 57.7158 240.983 57.6707 240.965 57.6427C240.946 57.6116 240.953 57.618 240.968 57.6553C240.976 57.6755 240.991 57.7135 241.003 57.7667C241.016 57.8191 241.03 57.9002 241.03 58.0028H238.43C238.43 58.479 238.662 58.8632 238.762 59.0222C238.9 59.2435 239.081 59.4742 239.279 59.7041L241.249 58.0079ZM240.093 56.7544C240.237 56.7963 240.445 56.9045 240.6 57.1298C240.746 57.3413 240.763 57.5377 240.763 57.615H238.163C238.163 57.8991 238.224 58.2635 238.459 58.6044C238.703 58.959 239.045 59.1576 239.367 59.2512L240.093 56.7544ZM300.975 58.9521C295.28 58.9521 290.559 57.1699 286.723 53.6343L284.961 55.5459C289.315 59.5597 294.682 61.5521 300.975 61.5521V58.9521ZM286.73 53.6407C282.946 50.1015 281.089 45.8904 281.089 40.9393H278.489C278.489 46.64 280.667 51.5294 284.954 55.5395L286.73 53.6407ZM281.089 40.9393C281.089 35.9326 282.949 31.6968 286.73 28.1603L284.954 26.2615C280.664 30.2743 278.489 35.1908 278.489 40.9393H281.089ZM286.73 28.1607C290.566 24.5759 295.285 22.7713 300.975 22.7713V20.1713C294.676 20.1713 289.308 22.1931 284.954 26.261L286.73 28.1607ZM300.975 22.7713C304.94 22.7713 308.65 23.838 312.13 25.9897L313.497 23.7783C309.618 21.3797 305.436 20.1713 300.975 20.1713V22.7713ZM314.058 25.2599C314.274 24.5465 314.672 23.9772 315.283 23.5212L313.727 21.438C312.676 22.223 311.947 23.2567 311.569 24.5082L314.058 25.2599ZM315.323 23.4903C315.896 23.0262 316.607 22.7713 317.532 22.7713V20.1713C316.082 20.1713 314.775 20.5887 313.687 21.469L315.323 23.4903ZM317.532 22.7713C318.459 22.7713 319.208 23.067 319.851 23.6645L321.621 21.7601C320.484 20.703 319.097 20.1713 317.532 20.1713V22.7713ZM319.882 23.6924C320.582 24.3025 320.86 24.9408 320.86 25.6596H323.46C323.46 24.1033 322.789 22.7767 321.59 21.7322L319.882 23.6924ZM320.86 25.6596V56.1413H323.46V25.6596H320.86ZM320.86 56.1413C320.86 56.8602 320.582 57.4985 319.882 58.1086L321.59 60.0688C322.789 59.0243 323.46 57.6976 323.46 56.1413H320.86ZM319.882 58.1086C319.243 58.6658 318.483 58.9521 317.532 58.9521V61.5521C319.073 61.5521 320.449 61.0628 321.59 60.0688L319.882 58.1086ZM317.532 58.9521C316.583 58.9521 315.857 58.7089 315.283 58.2798L313.727 60.3629C314.814 61.1749 316.107 61.5521 317.532 61.5521V58.9521ZM315.283 58.2798C314.672 57.8238 314.274 57.2545 314.058 56.5411L311.569 57.2928C311.947 58.5443 312.676 59.578 313.727 60.3629L315.283 58.2798ZM312.133 55.8092C308.719 57.9062 305.009 58.9521 300.975 58.9521V61.5521C305.486 61.5521 309.668 60.3746 313.494 58.0247L312.133 55.8092ZM288.014 40.9393C288.014 44.3763 289.212 47.3234 291.602 49.6958L293.434 47.8502C291.552 45.9826 290.614 43.7072 290.614 40.9393H288.014ZM291.615 49.7082C294.08 52.0885 297.206 53.253 300.886 53.253V50.653C297.8 50.653 295.347 49.6975 293.421 47.8378L291.615 49.7082ZM300.886 53.253C304.618 53.253 307.775 52.0928 310.245 49.7082L308.439 47.8378C306.517 49.6933 304.037 50.653 300.886 50.653V53.253ZM310.233 49.7201C312.75 47.3538 314.025 44.3995 314.025 40.9393H311.425C311.425 43.684 310.445 45.9522 308.452 47.8258L310.233 49.7201ZM314.025 40.9393C314.025 37.4799 312.751 34.5059 310.244 32.0916L308.44 33.9644C310.444 35.8936 311.425 38.1937 311.425 40.9393H314.025ZM310.244 32.0916C307.726 29.6668 304.575 28.4704 300.886 28.4704V31.0704C303.962 31.0704 306.448 32.0458 308.44 33.9644L310.244 32.0916ZM300.886 28.4704C297.249 28.4704 294.152 29.6718 291.693 32.1037L293.521 33.9523C295.454 32.0407 297.876 31.0704 300.886 31.0704V28.4704ZM291.704 32.0928C289.245 34.4668 288.014 37.4457 288.014 40.9393H290.614C290.614 38.1245 291.578 35.8292 293.51 33.9632L291.704 32.0928ZM335.379 55.9862V10.2249H332.779V55.9862H335.379ZM335.379 10.2249C335.379 9.4359 335.672 8.7771 336.357 8.18013L334.649 6.21986C333.435 7.27753 332.779 8.63533 332.779 10.2249H335.379ZM336.357 8.18013C337.049 7.57699 337.895 7.25901 338.975 7.25901V4.65901C337.324 4.65901 335.856 5.16835 334.649 6.21986L336.357 8.18013ZM338.975 7.25901H349.479V4.65901H338.975V7.25901ZM349.479 7.25901C357.79 7.25901 364.808 9.82155 370.607 14.9238L372.324 12.9719C366.017 7.42237 358.376 4.65901 349.479 4.65901V7.25901ZM370.611 14.928C376.404 19.9751 379.245 26.0129 379.245 33.1056H381.845C381.845 25.203 378.633 18.469 372.319 12.9677L370.611 14.928ZM379.245 33.1056C379.245 40.1989 376.403 46.2647 370.607 51.3648L372.324 53.3168C378.634 47.7651 381.845 41.0075 381.845 33.1056H379.245ZM370.611 51.3607C364.813 56.4131 357.794 58.9521 349.479 58.9521V61.5521C358.373 61.5521 366.012 58.8169 372.319 53.321L370.611 51.3607ZM349.479 58.9521H338.975V61.5521H349.479V58.9521ZM338.975 58.9521C337.895 58.9521 337.049 58.6341 336.357 58.031L334.649 59.9913C335.856 61.0428 337.324 61.5521 338.975 61.5521V58.9521ZM336.357 58.031C335.672 57.434 335.379 56.7752 335.379 55.9862H332.779C332.779 57.5758 333.435 58.9336 334.649 59.9913L336.357 58.031ZM342.66 14.5683V51.6428H345.26V14.5683H342.66ZM343.96 52.9428H349.479V50.3428H343.96V52.9428ZM349.49 52.9427C355.648 52.8885 360.939 50.9824 365.287 47.1936L363.579 45.2333C359.738 48.5802 355.059 50.2936 349.467 50.3428L349.49 52.9427ZM365.287 47.1936C369.7 43.3485 371.964 38.6317 371.964 33.1056H369.364C369.364 37.8175 367.474 41.8394 363.579 45.2333L365.287 47.1936ZM371.964 33.1056C371.964 27.5794 369.7 22.8626 365.287 19.0175L363.579 20.9778C367.474 24.3717 369.364 28.3936 369.364 33.1056H371.964ZM365.294 19.0236C360.943 15.1776 355.645 13.2683 349.479 13.2683V15.8683C355.062 15.8683 359.734 17.5787 363.572 20.9717L365.294 19.0236ZM349.479 13.2683H343.96V15.8683H349.479V13.2683ZM426.496 57.0213L422.134 46.9383L419.748 47.9706L424.11 58.0536L426.496 57.0213ZM420.941 46.1544H399.311V48.7544H420.941V46.1544ZM398.117 46.9383L393.756 57.0213L396.142 58.0536L400.504 47.9706L398.117 46.9383ZM393.767 56.9951C393.44 57.707 393.026 58.1727 392.548 58.4697C392.068 58.769 391.435 58.9521 390.587 58.9521V61.5521C391.816 61.5521 392.949 61.2828 393.922 60.6771C394.899 60.0693 395.626 59.1776 396.13 58.0798L393.767 56.9951ZM390.587 58.9521C388.841 58.9521 387.853 58.4291 387.282 57.6329L385.169 59.1483C386.378 60.8342 388.298 61.5521 390.587 61.5521V58.9521ZM387.296 57.6533C386.627 56.6821 386.541 55.8171 386.899 54.915L384.483 53.955C383.773 55.7416 384.043 57.5138 385.155 59.1279L387.296 57.6533ZM386.885 54.9491L406.558 9.26539L404.17 8.23706L384.497 53.9208L386.885 54.9491ZM406.525 9.33456C406.827 8.73347 407.28 8.23648 407.92 7.83832L406.546 5.63092C405.524 6.26692 404.731 7.11433 404.202 8.16789L406.525 9.33456ZM407.886 7.85873C408.563 7.46566 409.263 7.29631 410.015 7.33486L410.148 4.73827C408.882 4.67341 407.684 4.96943 406.58 5.61051L407.886 7.85873ZM410.141 7.3352C411.081 7.29208 411.779 7.46262 412.304 7.76445C412.822 8.06252 413.27 8.54505 413.621 9.29963L415.978 8.20282C415.439 7.04421 414.655 6.11771 413.601 5.51089C412.552 4.90784 411.337 4.67764 410.022 4.73793L410.141 7.3352ZM413.605 9.26539L433.278 54.9491L435.666 53.9208L415.993 8.23706L413.605 9.26539ZM433.264 54.915C433.622 55.8171 433.536 56.6821 432.867 57.6533L435.008 59.1279C436.12 57.5138 436.39 55.7416 435.68 53.955L433.264 54.915ZM432.881 57.6329C432.317 58.4193 431.309 58.9521 429.487 58.9521V61.5521C431.819 61.5521 433.778 60.8439 434.994 59.1483L432.881 57.6329ZM429.487 58.9521C428.675 58.9521 428.081 58.7719 427.635 58.4829C427.192 58.1954 426.802 57.7392 426.499 57.0277L424.107 58.0472C424.575 59.1454 425.269 60.0466 426.22 60.664C427.169 61.2799 428.281 61.5521 429.487 61.5521V58.9521ZM418.485 38.4067L411.275 21.731L408.888 22.7629L416.098 39.4386L418.485 38.4067ZM408.888 21.731L401.678 38.4067L404.064 39.4386L411.275 22.7629L408.888 21.731ZM448.813 51.08C443.186 45.831 440.413 39.6024 440.413 32.3299H437.813C437.813 40.3628 440.915 47.268 447.039 52.9811L448.813 51.08ZM440.413 32.3299C440.413 25.0573 443.186 18.8288 448.813 13.5798L447.039 11.6787C440.915 17.3918 437.813 24.2969 437.813 32.3299H440.413ZM448.808 13.5842C454.489 8.33705 461.379 5.70771 469.557 5.70771V3.10771C460.762 3.10771 453.231 5.95939 447.044 11.6742L448.808 13.5842ZM469.557 5.70771C477.727 5.70771 484.582 8.3835 490.203 13.7266L491.994 11.8421C485.865 6.01636 478.359 3.10771 469.557 3.10771V5.70771ZM490.212 13.7352C495.905 19.0426 498.7 25.2478 498.7 32.4074H501.3C501.3 24.4685 498.161 17.5916 491.985 11.8335L490.212 13.7352ZM498.7 32.4074C498.7 39.5619 495.879 45.7379 490.132 50.9936L491.887 52.9123C498.127 47.206 501.3 40.3516 501.3 32.4074H498.7ZM490.105 51.0189C487.566 53.4776 484.507 55.4317 480.912 56.8737L481.88 59.2869C485.762 57.7299 489.112 55.5991 491.914 52.8869L490.105 51.0189ZM480.926 56.868C477.338 58.2575 473.611 58.952 469.735 58.952V61.552C473.93 61.552 477.976 60.7988 481.865 59.2926L480.926 56.868ZM469.735 58.952C461.433 58.952 454.485 56.3194 448.808 51.0755L447.044 52.9855C453.235 58.7037 460.826 61.552 469.735 61.552V58.952ZM447.961 32.3299C447.961 37.9283 450.11 42.762 454.33 46.7684L456.12 44.8828C452.388 41.3399 450.561 37.1764 450.561 32.3299H447.961ZM454.337 46.7745C458.56 50.729 463.657 52.71 469.557 52.71V50.11C464.299 50.11 459.842 48.3681 456.114 44.8766L454.337 46.7745ZM469.557 52.71C475.517 52.71 480.622 50.7015 484.79 46.6841L482.986 44.812C479.321 48.3439 474.871 50.11 469.557 50.11V52.71ZM484.79 46.6847C488.998 42.6345 491.152 37.8319 491.152 32.3299H488.552C488.552 37.066 486.73 41.2088 482.987 44.8113L484.79 46.6847ZM491.152 32.3299C491.152 26.8338 489.032 22.0558 484.879 18.0532L483.075 19.9253C486.755 23.4721 488.552 27.5878 488.552 32.3299H491.152ZM484.886 18.0594C480.715 13.9853 475.578 11.9497 469.557 11.9497V14.5497C474.929 14.5497 479.406 16.3405 483.069 19.9192L484.886 18.0594ZM469.557 11.9497C463.596 11.9497 458.466 13.9578 454.241 17.9689L456.031 19.8545C459.758 16.3163 464.242 14.5497 469.557 14.5497V11.9497ZM454.24 17.9695C450.076 21.9283 447.961 26.7375 447.961 32.3299H450.561C450.561 27.4773 452.363 23.3411 456.032 19.854L454.24 17.9695ZM402.871 40.2227H410.081V37.6227H402.871V40.2227ZM410.081 40.2227H417.292V37.6227H410.081V40.2227Z" fill="black" mask="url(#path-2-outside-1_3809_3832)"/>
</svg>
